<svg width="89" height="89" viewBox="0 0 89 89" fill="none" xmlns="http://www.w3.org/2000/svg">
<path d="M88.2008 44.1004C88.2008 68.4563 68.4563 88.2008 44.1004 88.2008C19.7444 88.2008 0 68.4563 0 44.1004C0 19.7444 19.7444 0 44.1004 0C68.4563 0 88.2008 19.7444 88.2008 44.1004ZM9.83155 44.1004C9.83155 63.0265 25.1742 78.3692 44.1004 78.3692C63.0265 78.3692 78.3692 63.0265 78.3692 44.1004C78.3692 25.1742 63.0265 9.83155 44.1004 9.83155C25.1742 9.83155 9.83155 25.1742 9.83155 44.1004Z" fill="#7A2876"/>
<path d="M44.1004 5.07154C44.1004 2.27061 46.3785 -0.0301655 49.1609 0.291195C58.3977 1.358 67.1095 5.32549 74.0065 11.6895C82.1521 19.2055 87.1689 29.5132 88.0585 40.5609C88.948 51.6086 85.6451 62.5861 78.807 71.3087C73.0171 78.6942 65.0523 84.0045 56.1053 86.5355C53.4101 87.2979 50.7932 85.3912 50.3451 82.6264C49.8969 79.8615 51.7936 77.2932 54.461 76.4386C60.8953 74.3772 66.6087 70.4284 70.8245 65.0508C76.0898 58.3344 78.6331 49.8817 77.9481 41.375C77.2632 32.8683 73.4002 24.9314 67.1281 19.144C62.1061 14.5101 55.8346 11.5264 49.1533 10.521C46.3836 10.1043 44.1004 7.87248 44.1004 5.07154Z" fill="#FB82F5"/>
<path d="M28.332 41.392H30.492V49.996H30.546L33.822 46.36H36.594L32.85 50.266L36.828 55H33.966L30.546 50.572H30.492V55H28.332V41.392ZM44.0094 48.754C43.8414 48.514 43.5894 48.316 43.2534 48.16C42.9174 47.992 42.5754 47.908 42.2274 47.908C41.8314 47.908 41.4834 47.992 41.1834 48.16C40.8834 48.316 40.6314 48.526 40.4274 48.79C40.2354 49.054 40.0914 49.354 39.9954 49.69C39.8994 50.014 39.8514 50.344 39.8514 50.68C39.8514 51.016 39.8994 51.352 39.9954 51.688C40.1034 52.012 40.2594 52.306 40.4634 52.57C40.6674 52.834 40.9194 53.05 41.2194 53.218C41.5314 53.374 41.8914 53.452 42.2994 53.452C42.6354 53.452 42.9714 53.386 43.3074 53.254C43.6434 53.122 43.9134 52.93 44.1174 52.678L45.4674 54.046C45.1074 54.43 44.6454 54.73 44.0814 54.946C43.5294 55.15 42.9294 55.252 42.2814 55.252C41.6454 55.252 41.0394 55.15 40.4634 54.946C39.8994 54.742 39.4014 54.442 38.9694 54.046C38.5494 53.65 38.2134 53.17 37.9614 52.606C37.7214 52.042 37.6014 51.4 37.6014 50.68C37.6014 49.984 37.7214 49.354 37.9614 48.79C38.2134 48.226 38.5494 47.746 38.9694 47.35C39.3894 46.954 39.8754 46.648 40.4274 46.432C40.9914 46.216 41.5914 46.108 42.2274 46.108C42.8634 46.108 43.4754 46.228 44.0634 46.468C44.6634 46.708 45.1374 47.038 45.4854 47.458L44.0094 48.754ZM52.2945 53.902H52.2405C52.0245 54.286 51.6765 54.604 51.1965 54.856C50.7165 55.096 50.1705 55.216 49.5585 55.216C49.2105 55.216 48.8445 55.168 48.4605 55.072C48.0885 54.988 47.7405 54.844 47.4165 54.64C47.1045 54.424 46.8405 54.148 46.6245 53.812C46.4205 53.464 46.3185 53.038 46.3185 52.534C46.3185 51.886 46.4985 51.37 46.8585 50.986C47.2305 50.602 47.7045 50.308 48.2805 50.104C48.8565 49.9 49.4925 49.768 50.1885 49.708C50.8965 49.636 51.5865 49.6 52.2585 49.6V49.384C52.2585 48.844 52.0605 48.448 51.6645 48.196C51.2805 47.932 50.8185 47.8 50.2785 47.8C49.8225 47.8 49.3845 47.896 48.9645 48.088C48.5445 48.28 48.1965 48.514 47.9205 48.79L46.8045 47.476C47.2965 47.02 47.8605 46.678 48.4965 46.45C49.1445 46.222 49.7985 46.108 50.4585 46.108C51.2265 46.108 51.8565 46.216 52.3485 46.432C52.8525 46.648 53.2485 46.93 53.5365 47.278C53.8245 47.626 54.0225 48.016 54.1305 48.448C54.2505 48.88 54.3105 49.312 54.3105 49.744V55H52.2945V53.902ZM52.2585 51.058H51.7725C51.4245 51.058 51.0585 51.076 50.6745 51.112C50.2905 51.136 49.9365 51.202 49.6125 51.31C49.2885 51.406 49.0185 51.55 48.8025 51.742C48.5865 51.922 48.4785 52.174 48.4785 52.498C48.4785 52.702 48.5205 52.876 48.6045 53.02C48.7005 53.152 48.8205 53.26 48.9645 53.344C49.1085 53.428 49.2705 53.488 49.4505 53.524C49.6305 53.56 49.8105 53.578 49.9905 53.578C50.7345 53.578 51.2985 53.38 51.6825 52.984C52.0665 52.588 52.2585 52.048 52.2585 51.364V51.058ZM56.899 41.392H59.059V55H56.899V41.392Z" fill="white"/>
<path fill-rule="evenodd" clip-rule="evenodd" d="M43.8724 41.5123C41.0532 41.4496 39 39.6167 39 37.2866C39 35.3058 40.0177 33.9742 41.5463 32.3883C42.5443 31.353 42.9234 30.386 43.1751 29.7441C43.3089 29.4028 43.4067 29.1534 43.5424 29.0345C43.9331 28.6919 46.0292 30.9971 46.6048 31.8306C48.0497 33.923 48.5643 34.8922 48.5847 37.1837C48.6051 39.4752 46.6915 41.575 43.8724 41.5123ZM44.3719 36.9484L44.3718 36.9482C44.0479 36.5311 43.7183 36.1067 43.5008 35.6555C43.2947 35.9397 43.0705 36.2798 42.8588 36.6635C42.3274 37.6265 42.0579 38.5295 42.0579 39.3474C42.0579 40.3898 42.8405 41.2379 43.8024 41.2379C44.7643 41.2379 45.5469 40.3898 45.5469 39.3474C45.5469 38.4613 44.9496 37.6922 44.3719 36.9484Z" fill="white"/>
</svg>
