<svg width="40" height="61" viewBox="0 0 40 61" fill="none" xmlns="http://www.w3.org/2000/svg">
<path fill-rule="evenodd" clip-rule="evenodd" d="M1.8125 21.0147C1.8125 21.0147 7.82921 21.7039 21.5831 18.5825C35.337 15.461 38.1098 20.791 38.1098 20.791L35.854 41.6901L29.8833 59.5629L9.7421 58.6971C9.7421 58.6971 6.35423 50.5047 5.36524 45.1597C4.37625 39.8147 1.8125 21.0147 1.8125 21.0147Z" fill="#DCCCFF"/>
<path fill-rule="evenodd" clip-rule="evenodd" d="M27.4478 58.3579H12.6693C12.0677 58.3579 11.496 58.0706 10.9207 57.4849C7.35764 53.8435 1.16651 25.736 2.95639 10.5124C4.09256 11.2314 5.83317 11.5535 6.94536 11.6044C8.47343 11.6711 9.9919 11.1109 11.5427 9.89103C13.0612 11.0927 14.5294 11.6808 16.0059 11.6808C16.0215 11.6808 16.0382 11.6796 16.055 11.6796C17.5447 11.6675 19.0345 11.0563 20.5889 9.81585C22.1217 11.0296 23.6534 11.5984 25.0952 11.602C26.5837 11.5886 28.0722 10.9787 29.6254 9.7431C31.1379 10.969 32.4658 11.5256 33.8357 11.5256H33.8801C34.9239 11.5171 36.8681 11.18 37.9731 10.4731C37.5925 28.0131 32.787 53.8229 29.2156 57.4764C28.6367 58.0681 28.0578 58.3579 27.4478 58.3579ZM4.06719 1.10792C1.60031 1.81536 0.828561 2.77273 0.7414 4.74567C-0.345193 29.3413 4.5914 54.2337 9.77676 59.5308C10.507 60.2769 11.2353 60.6416 12.0011 60.6416H27.9668C28.7423 60.6416 29.4784 60.2735 30.2152 59.5199C36.2906 53.3067 40.7224 23.7643 39.9025 4.77113C39.8172 2.79385 38.785 1.86894 36.5803 1.12126C34.3756 0.373569 26.1022 0.00215908 20.8631 9.77005e-06C15.2645 -0.00228706 6.53407 0.400479 4.06719 1.10792Z" fill="#F5F5F5"/>
<path fill-rule="evenodd" clip-rule="evenodd" d="M29.6946 34.5576C30.3573 34.5576 30.8931 35.0996 30.8931 35.7702C30.8931 36.4395 30.3573 36.9828 29.6946 36.9828C29.033 36.9828 28.4961 36.4395 28.4961 35.7702C28.4961 35.0996 29.033 34.5576 29.6946 34.5576Z" fill="#C9B3FB"/>
<path fill-rule="evenodd" clip-rule="evenodd" d="M10.7961 27.7007C11.4589 27.7007 11.9946 28.2427 11.9946 28.9133C11.9946 29.5826 11.4589 30.1258 10.7961 30.1258C10.1346 30.1258 9.59766 29.5826 9.59766 28.9133C9.59766 28.2427 10.1346 27.7007 10.7961 27.7007Z" fill="#C9B3FB"/>
<path fill-rule="evenodd" clip-rule="evenodd" d="M20.6736 38.5048C20.6736 39.8835 19.5592 40.9979 18.1806 40.9979C16.8044 40.9979 15.6875 39.8835 15.6875 38.5048C15.6875 37.1261 16.8044 36.0117 18.1806 36.0117C19.5592 36.0117 20.6736 37.1261 20.6736 38.5048Z" fill="#C9B3FB"/>
<path fill-rule="evenodd" clip-rule="evenodd" d="M15.6418 45.9839C16.3046 45.9839 16.8403 46.5259 16.8403 47.1965C16.8403 47.867 16.3046 48.4091 15.6418 48.4091C14.9803 48.4091 14.4434 47.867 14.4434 47.1965C14.4434 46.5259 14.9803 45.9839 15.6418 45.9839Z" fill="#C9B3FB"/>
</svg>
