<svg width="21" height="32" viewBox="0 0 21 32" fill="none" xmlns="http://www.w3.org/2000/svg">
<path fill-rule="evenodd" clip-rule="evenodd" d="M0.640625 10.9833C0.640625 10.9833 3.78528 11.3436 10.9738 9.71214C18.1623 8.0807 19.6115 10.8664 19.6115 10.8664L18.4325 21.7894L15.3119 31.1307L4.78505 30.6782C4.78505 30.6782 3.01437 26.3964 2.49748 23.6028C1.98058 20.8092 0.640625 10.9833 0.640625 10.9833Z" fill="#DCCCFF"/>
<path fill-rule="evenodd" clip-rule="evenodd" d="M14.0379 30.501H6.31389C5.99944 30.501 5.70065 30.3508 5.39998 30.0447C3.53772 28.1415 0.301907 13.451 1.2374 5.49436C1.83121 5.87018 2.74095 6.03851 3.32224 6.06513C4.12089 6.09999 4.91453 5.80719 5.72508 5.16963C6.51872 5.79768 7.28604 6.10506 8.05776 6.10506C8.0659 6.10506 8.07467 6.10442 8.08344 6.10442C8.86204 6.09808 9.64065 5.77867 10.4531 5.13033C11.2542 5.76473 12.0548 6.06196 12.8083 6.06386C13.5863 6.05689 14.3643 5.73811 15.1761 5.09231C15.9666 5.73304 16.6606 6.02393 17.3766 6.02393H17.3997C17.9453 6.0195 18.9615 5.84331 19.539 5.47383C19.3401 14.6412 16.8285 28.1308 14.9618 30.0403C14.6593 30.3495 14.3567 30.501 14.0379 30.501ZM1.81745 0.579057C0.528125 0.948803 0.124766 1.44918 0.0792115 2.48034C-0.4887 15.3353 2.09143 28.3454 4.80157 31.114C5.18325 31.5039 5.56389 31.6945 5.96415 31.6945H14.3087C14.7139 31.6945 15.0987 31.5021 15.4838 31.1083C18.6591 27.8609 20.9754 12.4205 20.5469 2.49365C20.5023 1.46021 19.9628 0.97681 18.8105 0.586029C17.6582 0.195247 13.3341 0.00112845 10.5959 5.10635e-06C7.66975 -0.00119534 3.10677 0.209312 1.81745 0.579057Z" fill="white"/>
<path fill-rule="evenodd" clip-rule="evenodd" d="M15.2123 18.0615C15.5587 18.0615 15.8387 18.3448 15.8387 18.6953C15.8387 19.0451 15.5587 19.329 15.2123 19.329C14.8666 19.329 14.5859 19.0451 14.5859 18.6953C14.5859 18.3448 14.8666 18.0615 15.2123 18.0615Z" fill="#C9B3FB"/>
<path fill-rule="evenodd" clip-rule="evenodd" d="M5.33342 14.478C5.67982 14.478 5.95981 14.7613 5.95981 15.1118C5.95981 15.4616 5.67982 15.7455 5.33342 15.7455C4.98765 15.7455 4.70703 15.4616 4.70703 15.1118C4.70703 14.7613 4.98765 14.478 5.33342 14.478Z" fill="#C9B3FB"/>
<path fill-rule="evenodd" clip-rule="evenodd" d="M10.4966 20.1248C10.4966 20.8454 9.9142 21.4278 9.19363 21.4278C8.47437 21.4278 7.89062 20.8454 7.89062 20.1248C7.89062 19.4042 8.47437 18.8218 9.19363 18.8218C9.9142 18.8218 10.4966 19.4042 10.4966 20.1248Z" fill="#C9B3FB"/>
<path fill-rule="evenodd" clip-rule="evenodd" d="M7.86858 24.0332C8.21497 24.0332 8.49497 24.3165 8.49497 24.667C8.49497 25.0174 8.21497 25.3007 7.86858 25.3007C7.52281 25.3007 7.24219 25.0174 7.24219 24.667C7.24219 24.3165 7.52281 24.0332 7.86858 24.0332Z" fill="#C9B3FB"/>
</svg>
