<svg width="10" height="13" viewBox="0 0 10 13" fill="none" xmlns="http://www.w3.org/2000/svg">
<path fill-rule="evenodd" clip-rule="evenodd" d="M4.87235 12.5123C2.05324 12.4496 0 10.6167 0 8.28662C0 6.30581 1.01769 4.97418 2.54632 3.38832C3.5443 2.35298 3.92343 1.38603 4.17511 0.744127C4.30894 0.402808 4.40673 0.15339 4.54237 0.0344566C4.93309 -0.30815 7.02924 1.99711 7.60479 2.83057C9.04972 4.92296 9.56434 5.89216 9.58472 8.18366C9.6051 10.4752 7.69146 12.575 4.87235 12.5123ZM5.37192 7.94837L5.37179 7.94821C5.04787 7.53114 4.71825 7.1067 4.50077 6.65552C4.29473 6.9397 4.07048 7.27984 3.85877 7.66345C3.32736 8.62653 3.05789 9.52951 3.05789 10.3474C3.05789 11.3898 3.84047 12.2379 4.80238 12.2379C5.7643 12.2379 6.54688 11.3898 6.54688 10.3474C6.54688 9.46127 5.94958 8.69218 5.37192 7.94837Z" fill="white"/>
</svg>
