<svg width="90" height="90" viewBox="0 0 90 90" fill="none" xmlns="http://www.w3.org/2000/svg">
<g filter="url(#filter0_d)">
<circle cx="45" cy="41" r="20" fill="white"/>
</g>
<path fill-rule="evenodd" clip-rule="evenodd" d="M38.4336 38.8516C38.4336 38.8516 40.5709 39.0107 45.4568 38.2901C50.3427 37.5694 51.3277 38.7999 51.3277 38.7999L50.5263 43.6248L48.4053 47.751L41.2505 47.5511C41.2505 47.5511 40.047 45.6598 39.6957 44.4258C39.3443 43.1918 38.4336 38.8516 38.4336 38.8516Z" fill="#9A3995"/>
<path fill-rule="evenodd" clip-rule="evenodd" d="M47.5397 47.4729H42.2899C42.0762 47.4729 41.8731 47.4065 41.6687 47.2713C40.403 46.4306 38.2037 39.9416 38.8395 36.427C39.2431 36.593 39.8615 36.6674 40.2565 36.6791C40.7994 36.6945 41.3388 36.5652 41.8897 36.2836C42.4291 36.561 42.9507 36.6968 43.4752 36.6968C43.4807 36.6968 43.4867 36.6965 43.4926 36.6965C44.0218 36.6937 44.551 36.5526 45.1032 36.2662C45.6477 36.5464 46.1918 36.6777 46.704 36.6786C47.2328 36.6755 47.7616 36.5347 48.3133 36.2494C48.8506 36.5324 49.3223 36.6609 49.809 36.6609H49.8247C50.1955 36.659 50.8862 36.5811 51.2787 36.4179C51.1435 40.4673 49.4364 46.4259 48.1677 47.2693C47.9621 47.406 47.7564 47.4729 47.5397 47.4729ZM39.2353 34.2558C38.359 34.4191 38.0848 34.6401 38.0538 35.0956C37.6678 40.7739 39.4215 46.5207 41.2635 47.7436C41.5229 47.9158 41.7816 48 42.0537 48H47.7253C48.0007 48 48.2622 47.915 48.524 47.7411C50.6822 46.3066 52.2565 39.4863 51.9653 35.1015C51.9349 34.645 51.5683 34.4315 50.7851 34.2589C50.0019 34.0862 47.0629 34.0005 45.2018 34C43.213 33.9995 40.1116 34.0925 39.2353 34.2558Z" fill="#F5F5F5"/>
<path fill-rule="evenodd" clip-rule="evenodd" d="M48.3398 41.9783C48.5752 41.9783 48.7655 42.1034 48.7655 42.2582C48.7655 42.4127 48.5752 42.5382 48.3398 42.5382C48.1048 42.5382 47.9141 42.4127 47.9141 42.2582C47.9141 42.1034 48.1048 41.9783 48.3398 41.9783Z" fill="#F7E9F6"/>
<path fill-rule="evenodd" clip-rule="evenodd" d="M41.625 40.3953C41.8604 40.3953 42.0507 40.5204 42.0507 40.6752C42.0507 40.8297 41.8604 40.9551 41.625 40.9551C41.39 40.9551 41.1992 40.8297 41.1992 40.6752C41.1992 40.5204 41.39 40.3953 41.625 40.3953" fill="#F7E9F6"/>
<path fill-rule="evenodd" clip-rule="evenodd" d="M45.1345 42.8893C45.1345 43.2076 44.7387 43.4648 44.2489 43.4648C43.76 43.4648 43.3633 43.2076 43.3633 42.8893C43.3633 42.571 43.76 42.3137 44.2489 42.3137C44.7387 42.3137 45.1345 42.571 45.1345 42.8893Z" fill="#F7E9F6"/>
<path fill-rule="evenodd" clip-rule="evenodd" d="M43.3437 44.616C43.5791 44.616 43.7695 44.7411 43.7695 44.8959C43.7695 45.0507 43.5791 45.1759 43.3437 45.1759C43.1087 45.1759 42.918 45.0507 42.918 44.8959C42.918 44.7411 43.1087 44.616 43.3437 44.616" fill="#F7E9F6"/>
<defs>
<filter id="filter0_d" x="0" y="0" width="90" height="90" filterUnits="userSpaceOnUse" color-interpolation-filters="sRGB">
<feFlood flood-opacity="0" result="BackgroundImageFix"/>
<feColorMatrix in="SourceAlpha" type="matrix" values="0 0 0 0 0 0 0 0 0 0 0 0 0 0 0 0 0 0 127 0" result="hardAlpha"/>
<feOffset dy="4"/>
<feGaussianBlur stdDeviation="12.5"/>
<feColorMatrix type="matrix" values="0 0 0 0 0.603922 0 0 0 0 0.223529 0 0 0 0 0.584314 0 0 0 0.3 0"/>
<feBlend mode="normal" in2="BackgroundImageFix" result="effect1_dropShadow"/>
<feBlend mode="normal" in="SourceGraphic" in2="effect1_dropShadow" result="shape"/>
</filter>
</defs>
</svg>
