<svg width="23" height="27" viewBox="0 0 23 27" fill="none" xmlns="http://www.w3.org/2000/svg">
<mask id="path-1-inside-1" fill="white">
<path d="M15.1016 8.90591C15.0845 8.8428 15.0623 8.78651 15.0332 8.73193C15.0554 8.78993 15.0794 8.84792 15.1016 8.90591Z"/>
</mask>
<path d="M15.1016 8.90591C15.0845 8.8428 15.0623 8.78651 15.0332 8.73193C15.0554 8.78993 15.0794 8.84792 15.1016 8.90591Z" fill="white"/>
<path d="M15.1016 8.90591L14.1678 9.26371L16.0668 8.64448L15.1016 8.90591ZM15.0332 8.73193L15.9159 8.262L14.0994 9.08973L15.0332 8.73193ZM16.0668 8.64448C16.0308 8.51165 15.9815 8.38516 15.9159 8.262L14.1505 9.20187C14.1475 9.19619 14.1442 9.18927 14.1413 9.18183C14.1384 9.17448 14.1369 9.16925 14.1363 9.16733L16.0668 8.64448ZM14.0994 9.08973C14.1132 9.1257 14.1271 9.16064 14.1382 9.18863C14.1502 9.21864 14.1593 9.24168 14.1678 9.26371L16.0354 8.54811C16.0216 8.51214 16.0077 8.4772 15.9965 8.44921C15.9846 8.41921 15.9754 8.39616 15.967 8.37413L14.0994 9.08973Z" fill="white" mask="url(#path-1-inside-1)"/>
<mask id="path-3-inside-2" fill="white">
<path d="M6.48633 11.27C6.52051 11.2274 6.5547 11.1847 6.58717 11.1421C6.55299 11.1847 6.5188 11.2274 6.48633 11.27Z"/>
</mask>
<path d="M6.48633 11.27C6.52051 11.2274 6.5547 11.1847 6.58717 11.1421C6.55299 11.1847 6.5188 11.2274 6.48633 11.27Z" fill="white"/>
<path d="M6.48633 11.27L5.69074 10.6642L7.2666 11.8955L6.48633 11.27ZM6.58717 11.1421L7.38276 11.7479L5.8069 10.5166L6.58717 11.1421ZM7.2666 11.8955C7.29938 11.8546 7.34146 11.8022 7.38276 11.7479L5.79158 10.5363C5.76793 10.5673 5.74165 10.6002 5.70606 10.6446L7.2666 11.8955ZM5.8069 10.5166C5.77412 10.5575 5.73204 10.61 5.69074 10.6642L7.28192 11.8759C7.30557 11.8448 7.33185 11.8119 7.36744 11.7675L5.8069 10.5166Z" fill="white" mask="url(#path-3-inside-2)"/>
<path d="M7.81797 12.6908C7.81797 12.6389 7.85991 12.5985 7.90947 12.5985C7.95903 12.5985 8.00098 12.6389 8.00098 12.6908C8.00098 12.7428 7.95902 12.7832 7.90947 12.7832C7.85992 12.7832 7.81797 12.7428 7.81797 12.6908Z" fill="white" stroke="white"/>
<path d="M13.3707 9.96331C13.3707 9.91131 13.4127 9.87095 13.4622 9.87095C13.5118 9.87095 13.5537 9.91132 13.5537 9.96331C13.5537 10.0153 13.5118 10.0557 13.4622 10.0557C13.4127 10.0557 13.3707 10.0153 13.3707 9.96331Z" fill="white" stroke="white"/>
<path d="M9.6627 8.65862C9.6627 8.60662 9.70466 8.56626 9.7542 8.56626C9.80374 8.56626 9.8457 8.60662 9.8457 8.65862C9.8457 8.71062 9.80375 8.75098 9.7542 8.75098C9.70465 8.75098 9.6627 8.71061 9.6627 8.65862Z" fill="white" stroke="white"/>
<path d="M13.6109 13.6645C13.6109 13.6125 13.6529 13.5721 13.7024 13.5721C13.752 13.5721 13.7939 13.6125 13.7939 13.6645C13.7939 13.7165 13.752 13.7568 13.7024 13.7568C13.6529 13.7568 13.6109 13.7165 13.6109 13.6645Z" fill="white" stroke="white"/>
<path d="M13.3707 11.7846C13.3707 11.7326 13.4127 11.6922 13.4622 11.6922C13.5118 11.6922 13.5537 11.7326 13.5537 11.7846C13.5537 11.8366 13.5117 11.877 13.4622 11.877C13.4127 11.877 13.3707 11.8366 13.3707 11.7846Z" fill="white" stroke="white"/>
<path d="M14.943 11.476C14.943 11.424 14.9849 11.3836 15.0345 11.3836C15.084 11.3836 15.126 11.424 15.126 11.476C15.126 11.528 15.084 11.5684 15.0345 11.5684C14.9849 11.5684 14.943 11.528 14.943 11.476Z" fill="white" stroke="white"/>
<path d="M6.53282 13.1C6.53282 13.048 6.57478 13.0077 6.62432 13.0077C6.67386 13.0077 6.71582 13.048 6.71582 13.1C6.71582 13.152 6.67387 13.1924 6.62432 13.1924C6.57477 13.1924 6.53282 13.152 6.53282 13.1Z" fill="white" stroke="white"/>
<path d="M10.4811 12.7812C10.4811 12.7292 10.523 12.6888 10.5726 12.6888C10.6221 12.6888 10.6641 12.7292 10.6641 12.7812C10.6641 12.8332 10.6221 12.8735 10.5726 12.8735C10.523 12.8735 10.4811 12.8332 10.4811 12.7812Z" fill="white" stroke="white"/>
<path d="M9.04746 10.5004C9.04746 10.4484 9.08941 10.4081 9.13897 10.4081C9.18852 10.4081 9.23047 10.4484 9.23047 10.5004C9.23047 10.5524 9.18851 10.5928 9.13897 10.5928C9.08942 10.5928 9.04746 10.5524 9.04746 10.5004Z" fill="white" stroke="white"/>
<path d="M11.5279 9.15666C11.5279 9.10467 11.5699 9.06431 11.6194 9.06431C11.669 9.06431 11.7109 9.10468 11.7109 9.15666C11.7109 9.20866 11.669 9.24902 11.6194 9.24902C11.5699 9.24902 11.5279 9.20867 11.5279 9.15666Z" fill="white" stroke="white"/>
<path d="M15.5709 13.5981C15.5709 13.5461 15.6129 13.5057 15.6624 13.5057C15.712 13.5057 15.7539 13.5461 15.7539 13.5981C15.7539 13.6501 15.7119 13.6904 15.6624 13.6904C15.6129 13.6904 15.5709 13.6501 15.5709 13.5981Z" fill="white" stroke="white"/>
<path d="M13.4879 16.7006C13.4879 16.6486 13.5298 16.6083 13.5794 16.6083C13.629 16.6083 13.6709 16.6486 13.6709 16.7006C13.6709 16.7526 13.6289 16.793 13.5794 16.793C13.5299 16.793 13.4879 16.7526 13.4879 16.7006Z" fill="white" stroke="white"/>
<path d="M11.5279 11.0668C11.5279 11.0148 11.5699 10.9745 11.6194 10.9745C11.669 10.9745 11.7109 11.0148 11.7109 11.0668C11.7109 11.1188 11.669 11.1592 11.6194 11.1592C11.5699 11.1592 11.5279 11.1188 11.5279 11.0668Z" fill="white" stroke="white"/>
<path d="M7.81797 15.6225C7.81797 15.5705 7.85992 15.5301 7.90947 15.5301C7.95902 15.5301 8.00098 15.5705 8.00098 15.6225C8.00098 15.6745 7.95902 15.7148 7.90947 15.7148C7.85993 15.7148 7.81797 15.6745 7.81797 15.6225Z" fill="white" stroke="white"/>
<path d="M10.0729 14.413C10.0729 14.361 10.1148 14.3206 10.1644 14.3206C10.2139 14.3206 10.2559 14.361 10.2559 14.413C10.2559 14.465 10.2139 14.5054 10.1644 14.5054C10.1148 14.5054 10.0729 14.465 10.0729 14.413Z" fill="white" stroke="white"/>
<path d="M9.2545 15.8837C9.2545 15.8317 9.29646 15.7914 9.346 15.7914C9.39554 15.7914 9.4375 15.8317 9.4375 15.8837C9.4375 15.9357 9.39553 15.9761 9.346 15.9761C9.29647 15.9761 9.2545 15.9357 9.2545 15.8837Z" fill="white" stroke="white"/>
<path d="M11.6178 16.2929C11.6178 16.2409 11.6597 16.2005 11.7093 16.2005C11.7588 16.2005 11.8008 16.2409 11.8008 16.2929C11.8008 16.3449 11.7588 16.3853 11.7093 16.3853C11.6597 16.3853 11.6178 16.3449 11.6178 16.2929Z" fill="white" stroke="white"/>
<path d="M15.3502 15.7182C15.3502 15.6662 15.3922 15.6258 15.4417 15.6258C15.4912 15.6258 15.5332 15.6662 15.5332 15.7182C15.5332 15.7702 15.4912 15.8105 15.4417 15.8105C15.3922 15.8105 15.3502 15.7702 15.3502 15.7182Z" fill="white" stroke="white"/>
<mask id="path-23-inside-3" fill="white">
<path d="M19.9814 6.77539C19.9917 6.80268 20.0003 6.82827 20.0105 6.85556C20.0003 6.82997 19.99 6.80268 19.9814 6.77539Z"/>
</mask>
<path d="M19.9814 6.77539C19.9917 6.80268 20.0003 6.82827 20.0105 6.85556C20.0003 6.82997 19.99 6.80268 19.9814 6.77539Z" fill="white"/>
<path d="M19.9814 6.77539L20.9175 6.42344L19.0272 7.0744L19.9814 6.77539ZM20.0105 6.85556L19.0824 7.22781L20.9465 6.50361L20.0105 6.85556ZM19.0454 7.12734C19.0469 7.13131 19.0487 7.13626 19.0538 7.15064C19.0581 7.1627 19.0657 7.18419 19.0745 7.20751L20.9465 6.50361C20.945 6.49964 20.9433 6.49469 20.9381 6.48031C20.9339 6.46825 20.9262 6.44676 20.9175 6.42344L19.0454 7.12734ZM20.9386 6.4833C20.9363 6.47749 20.935 6.47405 20.9344 6.4724C20.9338 6.4707 20.9344 6.4722 20.9357 6.47638L19.0272 7.0744C19.0465 7.1359 19.067 7.18957 19.0824 7.22781L20.9386 6.4833Z" fill="white" mask="url(#path-23-inside-3)"/>
<path d="M16.4935 2.39209C16.4832 2.38697 16.473 2.38186 16.4627 2.37674C15.5534 1.84288 14.5775 1.48641 13.5468 1.2715C12.7828 1.11288 12.0137 0.957667 11.2275 1.01054C10.3934 1.06683 9.56953 1.2118 8.76279 1.44036C7.19204 1.88552 5.80929 2.64452 4.70857 3.86745C3.68647 5.00339 3.06944 6.34571 2.69855 7.81253C2.17553 9.87803 2.16015 11.9776 2.31569 14.0841C2.45243 15.9364 2.39432 17.775 1.99265 19.5915C1.81832 20.3863 1.64056 21.1846 1.1842 21.8839C1.11241 21.9947 1.06626 22.126 1.02182 22.254C0.666311 23.2296 0.910729 24.0943 1.73456 24.7271C2.30885 25.1689 2.96177 25.4469 3.67451 25.5765C4.42143 25.7113 5.13416 25.6089 5.77682 25.1842C5.96141 25.0614 6.12379 24.9062 6.32205 24.7459C5.96141 24.635 5.64863 24.5497 5.34268 24.444C4.79061 24.2529 4.25222 24.0312 3.78731 23.6611C3.03185 23.0573 3.41129 21.993 4.08471 21.6417C4.1189 21.6979 4.15137 21.7559 4.18555 21.8122C4.53081 22.3819 4.92735 22.9106 5.44866 23.3353C5.67427 23.5195 5.93236 23.6014 6.21779 23.5878C6.80405 23.5571 7.2963 23.291 7.78855 22.9652C7.70993 22.9021 7.64326 22.8595 7.58686 22.8049C7.17152 22.4058 6.74765 22.0152 6.35111 21.599C6.12892 21.3671 6.04858 21.0669 6.05542 20.7343C6.0708 20.0657 6.06055 19.3971 6.06055 18.7285C6.06055 18.6637 6.06055 18.5988 6.06055 18.5494C9.69089 21.1641 13.299 21.1658 16.9276 18.5477C16.9276 18.5937 16.9276 18.6534 16.9276 18.7114C16.9276 19.4107 16.9225 20.11 16.9293 20.8093C16.9311 21.0532 16.8781 21.2784 16.7294 21.4643C16.5157 21.7321 16.2952 21.9981 16.0508 22.2369C15.7893 22.4945 15.4987 22.7196 15.2116 22.9686C15.6338 23.2586 16.0747 23.4905 16.5841 23.569C16.9789 23.6304 17.331 23.5417 17.6216 23.262C17.8062 23.0829 18.001 22.9089 18.16 22.7094C18.4283 22.3682 18.6727 22.0084 18.9274 21.6536C19.5906 22.005 19.9444 23.0693 19.2009 23.6611C18.8266 23.9596 18.4027 24.1677 17.9566 24.3297C17.5498 24.4781 17.1327 24.6026 16.7208 24.7391C16.7225 24.7459 16.7191 24.7612 16.7259 24.768C16.7618 24.809 16.7977 24.8516 16.8388 24.8891C17.2438 25.2712 17.7207 25.5202 18.2728 25.5867C19.5325 25.7385 20.6041 25.3036 21.5322 24.4798C21.8074 24.2359 21.9817 23.9152 22.0689 23.5519C22.2244 22.9021 22.0347 22.3205 21.7425 21.7491C21.5681 21.408 21.3989 21.0566 21.2878 20.6916C20.6332 18.5511 20.5101 16.356 20.6725 14.137C20.7887 12.5371 20.8075 10.9389 20.5887 9.34417C20.5204 8.84613 20.4281 8.35662 20.3084 7.87393C20.2982 7.82788 20.2862 7.78354 20.2742 7.73919C20.2366 7.59762 20.199 7.45776 20.158 7.3179C20.1563 7.31108 20.1529 7.30256 20.1512 7.29573C20.1067 7.14905 20.0589 7.00407 20.0076 6.85909C19.9974 6.8318 19.9888 6.80451 19.9786 6.77893C19.9444 6.68171 19.9051 6.5862 19.8675 6.49068C18.9889 4.28703 17.5412 3.04363 16.4935 2.39209ZM18.3446 13.279C17.8233 16.3508 15.1979 18.7575 12.0923 19.0065C8.51496 19.293 5.3273 16.8608 4.66413 13.3404C4.62994 13.1613 4.66755 13.0573 4.81283 12.9413C5.43498 12.4467 5.99218 11.8855 6.48785 11.2698C6.52032 11.2255 6.5545 11.1828 6.58869 11.1419C6.6844 11.0191 6.78012 10.8946 6.8707 10.7667C6.9066 10.7172 6.94249 10.6694 6.99035 10.6046C6.99377 10.6063 6.99719 10.608 7.00061 10.6097C7.43645 9.97696 7.72531 9.32712 7.83982 9.0474C7.85862 9.00135 7.87572 8.957 7.89452 8.91095C7.89452 8.90924 7.89622 8.90413 7.89622 8.90413C7.89622 8.90413 7.89452 8.90924 7.89452 8.91095C8.09279 8.4095 8.28934 7.91317 8.50128 7.42366C8.81919 6.69024 9.26188 6.03528 9.8789 5.51336C10.0293 5.38715 10.1917 5.27458 10.3541 5.16542C11.1232 4.65203 11.8855 4.66568 12.6615 5.16883C13.4221 5.66176 13.957 6.3423 14.3655 7.13541C14.4784 7.35372 14.5792 7.57716 14.6698 7.804C14.7928 8.11101 14.9159 8.41973 15.0373 8.73015C15.0663 8.78303 15.0885 8.84102 15.1056 8.90413C15.1825 9.10198 15.2612 9.29983 15.3381 9.49768C15.5483 9.92408 15.832 10.3556 16.0662 10.6814C16.0799 10.6984 16.0935 10.7138 16.1055 10.7308C16.7106 11.5819 17.4216 12.3341 18.2386 12.9823C18.3446 13.0709 18.3651 13.1511 18.3446 13.279Z" stroke="white" stroke-width="0.8" stroke-miterlimit="10"/>
<mask id="path-26-inside-4" fill="white">
<path d="M20.1523 7.29248C20.1541 7.29939 20.1575 7.30803 20.1593 7.31495C20.1575 7.30803 20.1541 7.30112 20.1523 7.29248Z"/>
</mask>
<path d="M20.1523 7.29248C20.1541 7.29939 20.1575 7.30803 20.1593 7.31495C20.1575 7.30803 20.1541 7.30112 20.1523 7.29248Z" fill="white"/>
<path d="M20.1523 7.29248L21.1224 7.04971L19.1718 7.48879L20.1523 7.29248ZM19.1823 7.53525C19.186 7.5501 19.1895 7.56285 19.1924 7.57285C19.1953 7.58289 19.1979 7.59144 19.2 7.59787C19.202 7.6043 19.2037 7.60965 19.2049 7.61312C19.2059 7.61642 19.2069 7.61939 19.2071 7.62001C19.2076 7.62133 19.2072 7.62031 19.2068 7.61894C19.2063 7.6174 19.2052 7.61397 19.2037 7.60943C19.2023 7.60489 19.2002 7.5982 19.1979 7.58998C19.1955 7.58181 19.1925 7.57083 19.1892 7.55772L21.1293 7.07217C21.1256 7.05733 21.1221 7.04457 21.1192 7.03458C21.1163 7.02453 21.1137 7.01598 21.1117 7.00955C21.1096 7.00312 21.1079 6.99778 21.1067 6.9943C21.1057 6.99101 21.1047 6.98804 21.1045 6.98741C21.104 6.9861 21.1044 6.98712 21.1048 6.98848C21.1053 6.99003 21.1064 6.99346 21.1079 6.998C21.1093 7.00254 21.1114 7.00922 21.1137 7.01745C21.1161 7.02562 21.1191 7.03659 21.1224 7.04971L19.1823 7.53525ZM21.1293 7.07217C21.1244 7.05245 21.1195 7.03541 21.1154 7.02176C21.1113 7.00819 21.1075 6.99691 21.1049 6.98902C21.1023 6.98132 21.1001 6.97514 21.0992 6.97268C21.099 6.97199 21.0987 6.97139 21.0986 6.97101C21.0985 6.97082 21.0985 6.97064 21.0984 6.97052C21.0984 6.97038 21.0984 6.97032 21.0983 6.97026C21.0982 6.96996 21.0985 6.97057 21.0988 6.97147C21.0994 6.97324 21.1011 6.97797 21.1032 6.98424C21.1053 6.99064 21.1082 6.99944 21.1113 7.01001C21.1178 7.03127 21.1258 7.06063 21.1329 7.09617L19.1718 7.48879C19.1798 7.52865 19.1889 7.56212 19.1965 7.58732C19.2038 7.61157 19.2105 7.6306 19.2128 7.63726C19.2135 7.63907 19.214 7.64059 19.2142 7.6412C19.2146 7.64218 19.2144 7.64173 19.2143 7.64147C19.2141 7.64081 19.2125 7.63639 19.2105 7.63045C19.2067 7.61916 19.1979 7.59262 19.1892 7.55772L21.1293 7.07217Z" fill="white" mask="url(#path-26-inside-4)"/>
<mask id="path-28-inside-5" fill="white">
<path d="M20.2754 7.73584C20.2873 7.78019 20.2993 7.82624 20.3095 7.87058C20.2993 7.82624 20.2873 7.78189 20.2754 7.73584Z"/>
</mask>
<path d="M20.2754 7.73584C20.2873 7.78019 20.2993 7.82624 20.3095 7.87058C20.2993 7.82624 20.2873 7.78189 20.2754 7.73584Z" fill="white"/>
<path d="M20.2754 7.73584L21.2409 7.4756L19.3075 7.98706L20.2754 7.73584ZM19.3098 7.99608C19.3204 8.03525 19.3289 8.06821 19.3352 8.09568L21.2839 7.64549C21.2697 7.58427 21.2543 7.52512 21.2409 7.4756L19.3098 7.99608ZM21.2839 7.64549C21.2696 7.58387 21.2521 7.51833 21.2433 7.48462L19.3075 7.98706C19.3226 8.04545 19.3289 8.06861 19.3352 8.09568L21.2839 7.64549Z" fill="white" mask="url(#path-28-inside-5)"/>
</svg>
