<svg width="25" height="26" viewBox="0 0 25 26" fill="none" xmlns="http://www.w3.org/2000/svg">
<path d="M12.046 6.34957L12.3105 3.62533C12.4151 2.53058 13.4374 1.78771 14.4701 2.0545C16.0236 2.45698 17.1149 3.90017 17.1149 5.55496V9.04507C17.1149 9.82128 17.1149 10.21 17.2828 10.494C17.3783 10.6562 17.5094 10.793 17.6657 10.8907C17.9417 11.0644 18.3178 11.0644 19.0687 11.0644H19.524C21.4824 11.0644 22.461 11.0644 23.0635 11.5129C23.5155 11.8498 23.834 12.3431 23.9605 12.902C24.1284 13.6495 23.7524 14.5844 22.9992 16.4519L22.6243 17.3834C22.4068 17.9229 22.3179 18.5055 22.3644 19.0853C22.6312 22.3903 20.0105 25.1743 16.8067 24.9915L4.81982 24.3027C3.51004 24.2279 2.85573 24.19 2.26466 23.6667C1.67244 23.1435 1.5609 22.6042 1.33896 21.5267C0.866603 19.2344 0.888164 16.8677 1.40221 14.5844C1.72764 13.1493 3.09836 12.3765 4.51393 12.5605C8.26732 13.0435 11.67 10.2387 12.046 6.35072V6.34957Z" stroke="white" stroke-width="2" stroke-linecap="round" stroke-linejoin="round"/>
<path d="M6.75129 12.9253L6.59375 13.4508C5.57387 16.8506 5.62889 20.4825 6.75129 23.8499" stroke="white" stroke-width="2" stroke-linecap="round" stroke-linejoin="round"/>
</svg>
