<svg width="27" height="27" viewBox="0 0 27 27" fill="none" xmlns="http://www.w3.org/2000/svg">
<path d="M13.4999 16.7617C12.8148 16.7617 12.1451 16.9649 11.5755 17.3455C11.0059 17.7261 10.562 18.267 10.2998 18.8999C10.0376 19.5329 9.96904 20.2293 10.1027 20.9012C10.2363 21.5731 10.5662 22.1903 11.0506 22.6747C11.5351 23.1591 12.1522 23.489 12.8241 23.6227C13.496 23.7563 14.1925 23.6877 14.8254 23.4256C15.4583 23.1634 15.9993 22.7194 16.3799 22.1498C16.7605 21.5802 16.9636 20.9105 16.9636 20.2255C16.9638 19.7706 16.8743 19.3201 16.7003 18.8998C16.5263 18.4794 16.2712 18.0975 15.9495 17.7759C15.6278 17.4542 15.2459 17.1991 14.8256 17.025C14.4053 16.851 13.9548 16.7616 13.4999 16.7617ZM11.0766 18.8255C11.3221 18.3999 11.6752 18.0465 12.1006 17.8008C12.526 17.555 13.0086 17.4255 13.4998 17.4253C13.9911 17.4252 14.4738 17.5543 14.8993 17.7998C15.3248 18.0453 15.6783 18.3984 15.9241 18.8238L11.0766 18.8255Z" fill="white"/>
<path d="M18.291 15.7915C19.3265 15.7915 20.166 14.952 20.166 13.9165C20.166 12.881 19.3265 12.0415 18.291 12.0415C17.2555 12.0415 16.416 12.881 16.416 13.9165C16.416 14.952 17.2555 15.7915 18.291 15.7915Z" fill="white"/>
<path d="M8.70898 15.7915C9.74452 15.7915 10.584 14.952 10.584 13.9165C10.584 12.881 9.74452 12.0415 8.70898 12.0415C7.67345 12.0415 6.83398 12.881 6.83398 13.9165C6.83398 14.952 7.67345 15.7915 8.70898 15.7915Z" fill="white"/>
<path d="M11.4124 8.32482C11.6378 8.1294 11.0078 7.46607 10.8232 7.62732C10.157 8.18967 9.37502 8.59822 8.5329 8.82385C7.69078 9.04949 6.80927 9.08666 5.95114 8.93273C5.71031 8.88565 5.49781 9.77482 5.79073 9.83107C6.78088 10.0088 7.79804 9.96599 8.76974 9.70563C9.74144 9.44528 10.6438 8.97381 11.4124 8.32482Z" fill="white"/>
<path d="M23.3454 2.25084L23.2365 2.14769L23.2365 2.14775L23.2363 2.14791L23.2358 2.14847L23.2339 2.15045L23.227 2.15786L23.2008 2.18625C23.1781 2.21109 23.145 2.24765 23.1033 2.29509C23.0199 2.38997 22.9015 2.52844 22.761 2.70391C22.5048 3.02386 22.1742 3.46763 21.8466 3.99497C19.5424 1.96566 16.5746 0.845874 13.5 0.850012C13.4999 0.850012 13.4999 0.850012 13.4998 0.850012L13.5 1.00001C6.59667 1.00001 1 6.59668 1 13.5C1 20.4033 6.59667 26 13.5 26C20.4033 26 26 20.4033 26 13.5C26 12.2033 25.8021 10.9525 25.4358 9.77584L23.3454 2.25084ZM23.3454 2.25084L23.454 2.14736L23.3451 2.03311L23.2366 2.14765L23.3454 2.25084ZM23.3454 2.25084C23.454 2.14736 23.454 2.1474 23.4541 2.14745M23.3454 2.25084L23.4541 2.14745M26.15 7.88951C26.1504 8.67394 25.9415 9.31217 25.601 9.80264L26.15 7.88959C26.15 7.88957 26.15 7.88954 26.15 7.88951ZM26.15 7.88951C26.15 6.42051 25.4685 4.98156 24.7996 3.92024M26.15 7.88951L24.7996 3.92024M24.7996 3.92024C24.4638 3.38748 24.1283 2.94518 23.8765 2.63595M24.7996 3.92024L23.8765 2.63595M23.8765 2.63595C23.7506 2.48126 23.6455 2.35967 23.5716 2.2765M23.8765 2.63595L23.5716 2.2765M23.5716 2.2765C23.5347 2.23491 23.5056 2.20291 23.4855 2.18117M23.5716 2.2765L23.4855 2.18117M23.4855 2.18117L23.4625 2.15633M23.4855 2.18117L23.4625 2.15633M23.4625 2.15633L23.4563 2.14983M23.4625 2.15633L23.4563 2.14983M23.4563 2.14983L23.4547 2.14809M23.4563 2.14983L23.4547 2.14809M23.4547 2.14809L23.4542 2.1476M23.4547 2.14809L23.4542 2.1476M23.4542 2.1476L23.4541 2.14745M23.4542 2.1476L23.4541 2.14745M15.4895 8.37519L15.4907 8.37629C16.2762 9.03948 17.1983 9.52128 18.1913 9.78734C19.1657 10.0484 20.1848 10.0955 21.1787 9.92555C21.9755 10.9493 23.3595 11.2185 24.4648 10.7387C24.6882 11.6229 24.8083 12.5475 24.8083 13.5C24.8083 19.7355 19.7351 24.8083 13.5 24.8083C7.26451 24.8083 2.19167 19.7355 2.19167 13.5C2.19167 7.26452 7.26451 2.19168 13.5 2.19168C16.4672 2.19168 19.1691 3.34234 21.1885 5.21916C20.8175 6.03606 20.54 6.95443 20.54 7.88959C20.54 8.20665 20.5741 8.49967 20.637 8.76948C19.8866 8.85418 19.1264 8.79087 18.3995 8.58253C17.619 8.35884 16.8945 7.97299 16.2734 7.45019C16.2119 7.39705 16.1381 7.38463 16.0751 7.39017C16.014 7.39555 15.9555 7.41788 15.9048 7.44432C15.8029 7.4975 15.7002 7.58458 15.6158 7.67884C15.5318 7.77269 15.4551 7.88598 15.4162 7.99848C15.3794 8.10522 15.3619 8.26499 15.4895 8.37519Z" fill="white" stroke="white" stroke-width="0.3"/>
</svg>
