<svg width="26" height="26" viewBox="0 0 26 26" fill="none" xmlns="http://www.w3.org/2000/svg">
<mask id="path-1-outside-1" maskUnits="userSpaceOnUse" x="0" y="0" width="26" height="26" fill="black">
<rect fill="white" width="26" height="26"/>
<path d="M2.1793 25.0967C1.97922 25.0967 1.74178 25.0602 1.45619 24.988C1.22041 24.9283 1.02365 24.608 1.01784 24.3823C0.916557 20.4487 1.17392 16.306 3.71684 12.6594C3.97254 12.2935 4.19919 11.8911 4.41919 11.502C4.513 11.336 4.60682 11.1692 4.70312 11.005C5.68525 9.32813 5.91273 7.51771 5.37891 5.62349C5.1423 4.78299 4.87414 3.9342 4.61512 3.1128C4.48893 2.71205 4.36191 2.3113 4.23821 1.90889C4.21081 1.82011 4.18922 1.73216 4.15933 1.61103C4.14273 1.54465 4.12447 1.46666 4.10039 1.37207L4.02152 1.06176H4.34198C4.49391 1.06176 4.64003 1.0601 4.78116 1.05927C5.14728 1.05595 5.49348 1.05263 5.83718 1.07587C6.07379 1.09163 6.31455 1.32063 6.38179 1.51478C6.43825 1.67823 6.49553 1.84169 6.55282 2.00514C7.17962 3.79564 7.82801 5.64672 7.85873 7.63802C7.8911 9.68241 7.04264 11.3999 6.20911 12.8104C6.04639 13.0859 5.88035 13.3597 5.71099 13.6401C5.69023 13.6741 5.67031 13.7081 5.64955 13.7422C10.6432 14.8672 15.5099 14.8672 20.5036 13.7422C20.4886 13.7164 20.4729 13.6899 20.4571 13.6642C20.2919 13.3854 20.1233 13.1008 19.9523 12.8179C19.0466 11.3227 18.0462 9.30656 18.345 6.96927C18.4579 6.08563 18.6788 5.20863 18.893 4.35984C18.9694 4.05783 19.0474 3.74586 19.1196 3.4397C19.1794 3.18664 19.2674 2.94354 19.3521 2.70873C19.3878 2.60916 19.4243 2.5096 19.4575 2.41003C19.9432 0.972152 20.2578 0.80787 21.8643 1.15386L22.1283 1.21111L21.9249 1.88234C21.8369 2.17108 21.7497 2.45816 21.6642 2.74524C21.5646 3.08044 21.4625 3.41398 21.3595 3.74835C21.1271 4.50753 20.8863 5.29243 20.6879 6.07153C20.2636 7.73592 20.5301 9.4111 21.4799 11.0498C21.5563 11.1817 21.6318 11.3136 21.7074 11.4455C21.9672 11.9002 22.237 12.3707 22.5293 12.8087C24.0701 15.1211 24.9244 17.7762 25.0672 20.6993C25.1012 21.3987 25.1129 22.1089 25.1245 22.7959C25.132 23.2697 25.1403 23.76 25.156 24.2404C25.1618 24.4329 25.1477 24.6752 24.9809 24.8412C24.8132 25.0088 24.5724 25.0204 24.4064 25.0146C24.2096 25.0079 24.0427 25.0063 23.9082 25.0054C23.1312 24.9988 22.9784 24.9291 22.9676 24.1442C22.966 24.0023 22.9635 23.8256 22.9518 23.6082C22.858 21.8965 22.726 20.1815 22.5583 18.5113C22.526 18.1861 22.4886 17.9969 22.4479 17.9488C22.3541 17.9297 21.9755 18.0849 21.8502 18.1371C19.4011 19.1535 17.1711 20.6163 15.1263 22.0459C14.473 22.5022 13.7407 22.9005 12.82 22.7237C12.2829 22.62 11.803 22.5147 11.3821 22.2724C10.0048 21.4783 8.6167 20.6511 7.27426 19.8513C6.56195 19.4265 5.84963 19.0025 5.13566 18.581C4.89988 18.4416 4.63421 18.3288 4.37685 18.2193L4.31292 18.1919C4.11866 18.1089 3.79986 17.9762 3.69691 17.9745C3.64461 18.0624 3.60559 18.4118 3.58898 18.5644C3.46528 19.6746 3.37645 20.8096 3.29011 21.9073C3.26105 22.2774 3.232 22.6474 3.20128 23.0166C3.19049 23.151 3.19298 23.2888 3.1963 23.4348C3.19796 23.5053 3.19962 23.575 3.19962 23.6455C3.19962 24.3126 3.07924 24.691 2.7978 24.9092C2.63674 25.0353 2.43915 25.0967 2.1793 25.0967ZM1.59816 24.5101C2.05809 24.6246 2.35032 24.6271 2.49145 24.5176C2.63259 24.408 2.70067 24.1226 2.70067 23.6464C2.70067 23.58 2.69901 23.5136 2.69735 23.4464C2.69403 23.2946 2.6907 23.1369 2.70399 22.9768C2.7347 22.6076 2.76376 22.2384 2.79282 21.8691C2.87999 20.7673 2.96965 19.6289 3.09335 18.5105C3.14981 18.0035 3.1963 17.6858 3.4437 17.5422C3.70189 17.3912 4.02235 17.5281 4.50802 17.7347L4.57195 17.7621C4.84425 17.8774 5.12569 17.9977 5.38887 18.1529C6.10367 18.5752 6.81599 19 7.52913 19.4248C8.86992 20.2238 10.2564 21.0502 11.6312 21.8426C11.9857 22.0467 12.4215 22.1421 12.9147 22.2367C13.612 22.3711 14.189 22.0957 14.8407 21.6393C16.9088 20.194 19.1661 18.7138 21.6592 17.6791C22.125 17.4858 22.4487 17.3705 22.7036 17.5223C22.956 17.6733 23.0083 18.0077 23.054 18.4632C23.2217 20.1409 23.3553 21.8633 23.4483 23.5825C23.4608 23.8098 23.4633 23.9924 23.4649 24.1392C23.4666 24.2819 23.4691 24.4288 23.4823 24.4894C23.5521 24.5059 23.7347 24.5076 23.9116 24.5093C24.0485 24.5109 24.2196 24.5118 24.4221 24.5192C24.5907 24.525 24.6264 24.4918 24.628 24.4902C24.6313 24.4869 24.6629 24.4495 24.6571 24.2579C24.6413 23.7733 24.633 23.2813 24.6255 22.805C24.6139 22.1222 24.6023 21.4161 24.5691 20.7241C24.4304 17.8924 23.6044 15.3219 22.1142 13.085C21.8128 12.632 21.5388 12.1549 21.2748 11.6928C21.1993 11.5617 21.1246 11.4298 21.049 11.2995C20.032 9.54385 19.7481 7.74422 20.2055 5.94873C20.4073 5.15885 20.6497 4.36731 20.8838 3.60315C20.9859 3.27044 21.088 2.93773 21.1868 2.60419C21.2723 2.31545 21.3603 2.02754 21.4483 1.73797L21.4948 1.58531C20.3873 1.3588 20.3027 1.465 19.9299 2.57017C19.895 2.67388 19.8577 2.77676 19.8203 2.87965C19.7365 3.11197 19.6568 3.33101 19.6036 3.55586C19.5306 3.86617 19.4517 4.1798 19.3753 4.48347C19.1653 5.31733 18.9478 6.18022 18.8382 7.03399C18.5592 9.21861 19.514 11.1352 20.3774 12.5615C20.5501 12.8461 20.7194 13.1323 20.8846 13.4119C20.9585 13.5372 21.0316 13.6609 21.1046 13.782L21.2782 14.074L20.9477 14.152C15.6502 15.3974 10.4996 15.3974 5.20124 14.152L4.86833 14.074L5.04433 13.7812C5.12486 13.6468 5.20456 13.5148 5.28426 13.3846C5.4528 13.1058 5.61801 12.8336 5.7799 12.559C6.57855 11.2082 7.39049 9.56791 7.3606 7.64714C7.33072 5.73633 6.69561 3.92342 6.08209 2.17108C6.0248 2.0068 5.96752 1.84334 5.91024 1.67906C5.89695 1.6467 5.83054 1.58614 5.79401 1.57286C5.47189 1.55129 5.13815 1.55461 4.78531 1.55793C4.7438 1.55793 4.70146 1.55875 4.65912 1.55875C4.67904 1.64173 4.69565 1.70312 4.71391 1.76286C4.83761 2.16361 4.9638 2.56353 5.09 2.96262C5.35068 3.78735 5.61966 4.64029 5.85876 5.48825C6.43077 7.51771 6.1867 9.45839 5.134 11.2555C5.03935 11.4182 4.94637 11.5816 4.85422 11.7459C4.62923 12.145 4.39594 12.5582 4.12696 12.9432C1.66623 16.4719 1.418 20.52 1.5168 24.3682C1.51929 24.4022 1.56578 24.4811 1.59816 24.5101Z"/>
</mask>
<path d="M2.1793 25.0967C1.97922 25.0967 1.74178 25.0602 1.45619 24.988C1.22041 24.9283 1.02365 24.608 1.01784 24.3823C0.916557 20.4487 1.17392 16.306 3.71684 12.6594C3.97254 12.2935 4.19919 11.8911 4.41919 11.502C4.513 11.336 4.60682 11.1692 4.70312 11.005C5.68525 9.32813 5.91273 7.51771 5.37891 5.62349C5.1423 4.78299 4.87414 3.9342 4.61512 3.1128C4.48893 2.71205 4.36191 2.3113 4.23821 1.90889C4.21081 1.82011 4.18922 1.73216 4.15933 1.61103C4.14273 1.54465 4.12447 1.46666 4.10039 1.37207L4.02152 1.06176H4.34198C4.49391 1.06176 4.64003 1.0601 4.78116 1.05927C5.14728 1.05595 5.49348 1.05263 5.83718 1.07587C6.07379 1.09163 6.31455 1.32063 6.38179 1.51478C6.43825 1.67823 6.49553 1.84169 6.55282 2.00514C7.17962 3.79564 7.82801 5.64672 7.85873 7.63802C7.8911 9.68241 7.04264 11.3999 6.20911 12.8104C6.04639 13.0859 5.88035 13.3597 5.71099 13.6401C5.69023 13.6741 5.67031 13.7081 5.64955 13.7422C10.6432 14.8672 15.5099 14.8672 20.5036 13.7422C20.4886 13.7164 20.4729 13.6899 20.4571 13.6642C20.2919 13.3854 20.1233 13.1008 19.9523 12.8179C19.0466 11.3227 18.0462 9.30656 18.345 6.96927C18.4579 6.08563 18.6788 5.20863 18.893 4.35984C18.9694 4.05783 19.0474 3.74586 19.1196 3.4397C19.1794 3.18664 19.2674 2.94354 19.3521 2.70873C19.3878 2.60916 19.4243 2.5096 19.4575 2.41003C19.9432 0.972152 20.2578 0.80787 21.8643 1.15386L22.1283 1.21111L21.9249 1.88234C21.8369 2.17108 21.7497 2.45816 21.6642 2.74524C21.5646 3.08044 21.4625 3.41398 21.3595 3.74835C21.1271 4.50753 20.8863 5.29243 20.6879 6.07153C20.2636 7.73592 20.5301 9.4111 21.4799 11.0498C21.5563 11.1817 21.6318 11.3136 21.7074 11.4455C21.9672 11.9002 22.237 12.3707 22.5293 12.8087C24.0701 15.1211 24.9244 17.7762 25.0672 20.6993C25.1012 21.3987 25.1129 22.1089 25.1245 22.7959C25.132 23.2697 25.1403 23.76 25.156 24.2404C25.1618 24.4329 25.1477 24.6752 24.9809 24.8412C24.8132 25.0088 24.5724 25.0204 24.4064 25.0146C24.2096 25.0079 24.0427 25.0063 23.9082 25.0054C23.1312 24.9988 22.9784 24.9291 22.9676 24.1442C22.966 24.0023 22.9635 23.8256 22.9518 23.6082C22.858 21.8965 22.726 20.1815 22.5583 18.5113C22.526 18.1861 22.4886 17.9969 22.4479 17.9488C22.3541 17.9297 21.9755 18.0849 21.8502 18.1371C19.4011 19.1535 17.1711 20.6163 15.1263 22.0459C14.473 22.5022 13.7407 22.9005 12.82 22.7237C12.2829 22.62 11.803 22.5147 11.3821 22.2724C10.0048 21.4783 8.6167 20.6511 7.27426 19.8513C6.56195 19.4265 5.84963 19.0025 5.13566 18.581C4.89988 18.4416 4.63421 18.3288 4.37685 18.2193L4.31292 18.1919C4.11866 18.1089 3.79986 17.9762 3.69691 17.9745C3.64461 18.0624 3.60559 18.4118 3.58898 18.5644C3.46528 19.6746 3.37645 20.8096 3.29011 21.9073C3.26105 22.2774 3.232 22.6474 3.20128 23.0166C3.19049 23.151 3.19298 23.2888 3.1963 23.4348C3.19796 23.5053 3.19962 23.575 3.19962 23.6455C3.19962 24.3126 3.07924 24.691 2.7978 24.9092C2.63674 25.0353 2.43915 25.0967 2.1793 25.0967ZM1.59816 24.5101C2.05809 24.6246 2.35032 24.6271 2.49145 24.5176C2.63259 24.408 2.70067 24.1226 2.70067 23.6464C2.70067 23.58 2.69901 23.5136 2.69735 23.4464C2.69403 23.2946 2.6907 23.1369 2.70399 22.9768C2.7347 22.6076 2.76376 22.2384 2.79282 21.8691C2.87999 20.7673 2.96965 19.6289 3.09335 18.5105C3.14981 18.0035 3.1963 17.6858 3.4437 17.5422C3.70189 17.3912 4.02235 17.5281 4.50802 17.7347L4.57195 17.7621C4.84425 17.8774 5.12569 17.9977 5.38887 18.1529C6.10367 18.5752 6.81599 19 7.52913 19.4248C8.86992 20.2238 10.2564 21.0502 11.6312 21.8426C11.9857 22.0467 12.4215 22.1421 12.9147 22.2367C13.612 22.3711 14.189 22.0957 14.8407 21.6393C16.9088 20.194 19.1661 18.7138 21.6592 17.6791C22.125 17.4858 22.4487 17.3705 22.7036 17.5223C22.956 17.6733 23.0083 18.0077 23.054 18.4632C23.2217 20.1409 23.3553 21.8633 23.4483 23.5825C23.4608 23.8098 23.4633 23.9924 23.4649 24.1392C23.4666 24.2819 23.4691 24.4288 23.4823 24.4894C23.5521 24.5059 23.7347 24.5076 23.9116 24.5093C24.0485 24.5109 24.2196 24.5118 24.4221 24.5192C24.5907 24.525 24.6264 24.4918 24.628 24.4902C24.6313 24.4869 24.6629 24.4495 24.6571 24.2579C24.6413 23.7733 24.633 23.2813 24.6255 22.805C24.6139 22.1222 24.6023 21.4161 24.5691 20.7241C24.4304 17.8924 23.6044 15.3219 22.1142 13.085C21.8128 12.632 21.5388 12.1549 21.2748 11.6928C21.1993 11.5617 21.1246 11.4298 21.049 11.2995C20.032 9.54385 19.7481 7.74422 20.2055 5.94873C20.4073 5.15885 20.6497 4.36731 20.8838 3.60315C20.9859 3.27044 21.088 2.93773 21.1868 2.60419C21.2723 2.31545 21.3603 2.02754 21.4483 1.73797L21.4948 1.58531C20.3873 1.3588 20.3027 1.465 19.9299 2.57017C19.895 2.67388 19.8577 2.77676 19.8203 2.87965C19.7365 3.11197 19.6568 3.33101 19.6036 3.55586C19.5306 3.86617 19.4517 4.1798 19.3753 4.48347C19.1653 5.31733 18.9478 6.18022 18.8382 7.03399C18.5592 9.21861 19.514 11.1352 20.3774 12.5615C20.5501 12.8461 20.7194 13.1323 20.8846 13.4119C20.9585 13.5372 21.0316 13.6609 21.1046 13.782L21.2782 14.074L20.9477 14.152C15.6502 15.3974 10.4996 15.3974 5.20124 14.152L4.86833 14.074L5.04433 13.7812C5.12486 13.6468 5.20456 13.5148 5.28426 13.3846C5.4528 13.1058 5.61801 12.8336 5.7799 12.559C6.57855 11.2082 7.39049 9.56791 7.3606 7.64714C7.33072 5.73633 6.69561 3.92342 6.08209 2.17108C6.0248 2.0068 5.96752 1.84334 5.91024 1.67906C5.89695 1.6467 5.83054 1.58614 5.79401 1.57286C5.47189 1.55129 5.13815 1.55461 4.78531 1.55793C4.7438 1.55793 4.70146 1.55875 4.65912 1.55875C4.67904 1.64173 4.69565 1.70312 4.71391 1.76286C4.83761 2.16361 4.9638 2.56353 5.09 2.96262C5.35068 3.78735 5.61966 4.64029 5.85876 5.48825C6.43077 7.51771 6.1867 9.45839 5.134 11.2555C5.03935 11.4182 4.94637 11.5816 4.85422 11.7459C4.62923 12.145 4.39594 12.5582 4.12696 12.9432C1.66623 16.4719 1.418 20.52 1.5168 24.3682C1.51929 24.4022 1.56578 24.4811 1.59816 24.5101Z" fill="white"/>
<path d="M2.1793 25.0967C1.97922 25.0967 1.74178 25.0602 1.45619 24.988C1.22041 24.9283 1.02365 24.608 1.01784 24.3823C0.916557 20.4487 1.17392 16.306 3.71684 12.6594C3.97254 12.2935 4.19919 11.8911 4.41919 11.502C4.513 11.336 4.60682 11.1692 4.70312 11.005C5.68525 9.32813 5.91273 7.51771 5.37891 5.62349C5.1423 4.78299 4.87414 3.9342 4.61512 3.1128C4.48893 2.71205 4.36191 2.3113 4.23821 1.90889C4.21081 1.82011 4.18922 1.73216 4.15933 1.61103C4.14273 1.54465 4.12447 1.46666 4.10039 1.37207L4.02152 1.06176H4.34198C4.49391 1.06176 4.64003 1.0601 4.78116 1.05927C5.14728 1.05595 5.49348 1.05263 5.83718 1.07587C6.07379 1.09163 6.31455 1.32063 6.38179 1.51478C6.43825 1.67823 6.49553 1.84169 6.55282 2.00514C7.17962 3.79564 7.82801 5.64672 7.85873 7.63802C7.8911 9.68241 7.04264 11.3999 6.20911 12.8104C6.04639 13.0859 5.88035 13.3597 5.71099 13.6401C5.69023 13.6741 5.67031 13.7081 5.64955 13.7422C10.6432 14.8672 15.5099 14.8672 20.5036 13.7422C20.4886 13.7164 20.4729 13.6899 20.4571 13.6642C20.2919 13.3854 20.1233 13.1008 19.9523 12.8179C19.0466 11.3227 18.0462 9.30656 18.345 6.96927C18.4579 6.08563 18.6788 5.20863 18.893 4.35984C18.9694 4.05783 19.0474 3.74586 19.1196 3.4397C19.1794 3.18664 19.2674 2.94354 19.3521 2.70873C19.3878 2.60916 19.4243 2.5096 19.4575 2.41003C19.9432 0.972152 20.2578 0.80787 21.8643 1.15386L22.1283 1.21111L21.9249 1.88234C21.8369 2.17108 21.7497 2.45816 21.6642 2.74524C21.5646 3.08044 21.4625 3.41398 21.3595 3.74835C21.1271 4.50753 20.8863 5.29243 20.6879 6.07153C20.2636 7.73592 20.5301 9.4111 21.4799 11.0498C21.5563 11.1817 21.6318 11.3136 21.7074 11.4455C21.9672 11.9002 22.237 12.3707 22.5293 12.8087C24.0701 15.1211 24.9244 17.7762 25.0672 20.6993C25.1012 21.3987 25.1129 22.1089 25.1245 22.7959C25.132 23.2697 25.1403 23.76 25.156 24.2404C25.1618 24.4329 25.1477 24.6752 24.9809 24.8412C24.8132 25.0088 24.5724 25.0204 24.4064 25.0146C24.2096 25.0079 24.0427 25.0063 23.9082 25.0054C23.1312 24.9988 22.9784 24.9291 22.9676 24.1442C22.966 24.0023 22.9635 23.8256 22.9518 23.6082C22.858 21.8965 22.726 20.1815 22.5583 18.5113C22.526 18.1861 22.4886 17.9969 22.4479 17.9488C22.3541 17.9297 21.9755 18.0849 21.8502 18.1371C19.4011 19.1535 17.1711 20.6163 15.1263 22.0459C14.473 22.5022 13.7407 22.9005 12.82 22.7237C12.2829 22.62 11.803 22.5147 11.3821 22.2724C10.0048 21.4783 8.6167 20.6511 7.27426 19.8513C6.56195 19.4265 5.84963 19.0025 5.13566 18.581C4.89988 18.4416 4.63421 18.3288 4.37685 18.2193L4.31292 18.1919C4.11866 18.1089 3.79986 17.9762 3.69691 17.9745C3.64461 18.0624 3.60559 18.4118 3.58898 18.5644C3.46528 19.6746 3.37645 20.8096 3.29011 21.9073C3.26105 22.2774 3.232 22.6474 3.20128 23.0166C3.19049 23.151 3.19298 23.2888 3.1963 23.4348C3.19796 23.5053 3.19962 23.575 3.19962 23.6455C3.19962 24.3126 3.07924 24.691 2.7978 24.9092C2.63674 25.0353 2.43915 25.0967 2.1793 25.0967ZM1.59816 24.5101C2.05809 24.6246 2.35032 24.6271 2.49145 24.5176C2.63259 24.408 2.70067 24.1226 2.70067 23.6464C2.70067 23.58 2.69901 23.5136 2.69735 23.4464C2.69403 23.2946 2.6907 23.1369 2.70399 22.9768C2.7347 22.6076 2.76376 22.2384 2.79282 21.8691C2.87999 20.7673 2.96965 19.6289 3.09335 18.5105C3.14981 18.0035 3.1963 17.6858 3.4437 17.5422C3.70189 17.3912 4.02235 17.5281 4.50802 17.7347L4.57195 17.7621C4.84425 17.8774 5.12569 17.9977 5.38887 18.1529C6.10367 18.5752 6.81599 19 7.52913 19.4248C8.86992 20.2238 10.2564 21.0502 11.6312 21.8426C11.9857 22.0467 12.4215 22.1421 12.9147 22.2367C13.612 22.3711 14.189 22.0957 14.8407 21.6393C16.9088 20.194 19.1661 18.7138 21.6592 17.6791C22.125 17.4858 22.4487 17.3705 22.7036 17.5223C22.956 17.6733 23.0083 18.0077 23.054 18.4632C23.2217 20.1409 23.3553 21.8633 23.4483 23.5825C23.4608 23.8098 23.4633 23.9924 23.4649 24.1392C23.4666 24.2819 23.4691 24.4288 23.4823 24.4894C23.5521 24.5059 23.7347 24.5076 23.9116 24.5093C24.0485 24.5109 24.2196 24.5118 24.4221 24.5192C24.5907 24.525 24.6264 24.4918 24.628 24.4902C24.6313 24.4869 24.6629 24.4495 24.6571 24.2579C24.6413 23.7733 24.633 23.2813 24.6255 22.805C24.6139 22.1222 24.6023 21.4161 24.5691 20.7241C24.4304 17.8924 23.6044 15.3219 22.1142 13.085C21.8128 12.632 21.5388 12.1549 21.2748 11.6928C21.1993 11.5617 21.1246 11.4298 21.049 11.2995C20.032 9.54385 19.7481 7.74422 20.2055 5.94873C20.4073 5.15885 20.6497 4.36731 20.8838 3.60315C20.9859 3.27044 21.088 2.93773 21.1868 2.60419C21.2723 2.31545 21.3603 2.02754 21.4483 1.73797L21.4948 1.58531C20.3873 1.3588 20.3027 1.465 19.9299 2.57017C19.895 2.67388 19.8577 2.77676 19.8203 2.87965C19.7365 3.11197 19.6568 3.33101 19.6036 3.55586C19.5306 3.86617 19.4517 4.1798 19.3753 4.48347C19.1653 5.31733 18.9478 6.18022 18.8382 7.03399C18.5592 9.21861 19.514 11.1352 20.3774 12.5615C20.5501 12.8461 20.7194 13.1323 20.8846 13.4119C20.9585 13.5372 21.0316 13.6609 21.1046 13.782L21.2782 14.074L20.9477 14.152C15.6502 15.3974 10.4996 15.3974 5.20124 14.152L4.86833 14.074L5.04433 13.7812C5.12486 13.6468 5.20456 13.5148 5.28426 13.3846C5.4528 13.1058 5.61801 12.8336 5.7799 12.559C6.57855 11.2082 7.39049 9.56791 7.3606 7.64714C7.33072 5.73633 6.69561 3.92342 6.08209 2.17108C6.0248 2.0068 5.96752 1.84334 5.91024 1.67906C5.89695 1.6467 5.83054 1.58614 5.79401 1.57286C5.47189 1.55129 5.13815 1.55461 4.78531 1.55793C4.7438 1.55793 4.70146 1.55875 4.65912 1.55875C4.67904 1.64173 4.69565 1.70312 4.71391 1.76286C4.83761 2.16361 4.9638 2.56353 5.09 2.96262C5.35068 3.78735 5.61966 4.64029 5.85876 5.48825C6.43077 7.51771 6.1867 9.45839 5.134 11.2555C5.03935 11.4182 4.94637 11.5816 4.85422 11.7459C4.62923 12.145 4.39594 12.5582 4.12696 12.9432C1.66623 16.4719 1.418 20.52 1.5168 24.3682C1.51929 24.4022 1.56578 24.4811 1.59816 24.5101Z" stroke="white" stroke-width="0.6" mask="url(#path-1-outside-1)"/>
<path d="M14.5648 10.159L14.467 10.1157L13.9539 9.88833L13.8355 9.83588L13.8701 9.71111L13.9274 9.50468C13.9398 9.45966 13.9508 9.4134 13.9625 9.36403L14.5648 10.159ZM14.5648 10.159L14.6377 10.0806L17.8348 6.63816L17.9675 6.49521L17.7953 6.40364L17.5097 6.2518L17.5096 6.25177C17.3572 6.1708 17.1826 6.07759 17.0428 5.99065C16.9727 5.947 16.9157 5.90763 16.8762 5.87455C16.8647 5.86492 16.8558 5.8567 16.849 5.84993M14.5648 10.159L17.2219 5.2693M15.6533 2.67762C15.5063 2.64089 15.3297 2.66637 15.1814 2.72551C15.0346 2.78406 14.88 2.89014 14.8104 3.04932L14.8103 3.04945C14.4328 3.91543 14.0745 4.77873 13.696 5.69122L13.6958 5.69155C13.5971 5.93112 13.4968 6.17319 13.3947 6.41776L13.2893 6.66989L13.2257 6.82202L13.3832 6.87098L13.6447 6.95229L13.6451 6.95241C13.6634 6.95804 13.6813 6.96357 13.699 6.96901C13.7987 6.9997 13.889 7.02751 13.9727 7.05352L13.9732 7.05368C13.9907 7.05904 14.0078 7.06432 14.0248 7.06951C14.1917 7.1207 14.3337 7.16425 14.475 7.20981C14.5847 7.24532 14.6645 7.27852 14.718 7.3083C14.7553 7.32906 14.7708 7.34324 14.776 7.34839C14.7765 7.35604 14.7771 7.37862 14.7673 7.42391C14.7536 7.48638 14.7246 7.57147 14.6768 7.6806C14.584 7.89237 14.4827 8.10709 14.3831 8.31703L14.3831 8.31706C14.2844 8.52504 14.1814 8.74273 14.0857 8.96168C14.0249 9.10042 13.9924 9.23789 13.9641 9.35747L13.9626 9.36392L14.9478 3.10939C15.0425 2.89284 15.4011 2.76922 15.617 2.82315C16.1636 2.95952 16.7111 3.11519 17.2902 3.27986L17.3181 3.28778L17.3532 3.29772C17.5414 3.35102 17.7348 3.40578 17.9341 3.46202M15.6533 2.67762L15.617 2.82314L15.6533 2.67761C15.6533 2.67761 15.6533 2.67762 15.6533 2.67762ZM15.6533 2.67762C16.2024 2.81459 16.7518 2.97083 17.3301 3.13526L17.3589 3.14346L17.3181 3.28778L17.3591 3.1435L17.3943 3.15346C17.5823 3.20672 17.7756 3.26143 17.9746 3.3176L17.9744 3.31755L17.9341 3.46202M17.9341 3.46202L18.1245 3.51522L18.1572 3.47015L18.2786 3.55827L18.2383 3.70273L18.1846 3.68775L17.7083 4.344M17.9341 3.46202L17.9748 3.31766L18.319 3.4138L18.5267 3.47183L18.4 3.64638L17.8297 4.43209L17.7083 4.344M14.9138 7.28614C14.947 7.35998 14.9138 7.51347 14.8142 7.74081C14.7204 7.95488 14.6182 8.17143 14.5186 8.38135L14.9138 7.28614ZM14.9138 7.28614C14.8814 7.21395 14.7494 7.14094 14.5211 7.06709L14.9138 7.28614ZM17.7083 4.344L17.8297 4.43211M17.7083 4.344L17.1006 5.18117M17.8297 4.43211L14.5278 9.97853L17.6193 6.64981L17.6545 6.66853L17.7249 6.53608L17.615 6.434L17.5878 6.46322L17.4393 6.38424C17.1363 6.22328 16.722 6.00175 16.6946 5.88476M17.8297 4.43211L17.222 5.26926L17.1006 5.18117M17.8297 4.43211L17.2219 5.2693M17.1006 5.18117C16.9187 5.43174 16.6697 5.77607 16.6946 5.88476M17.1006 5.18117L17.2219 5.2693M16.6946 5.88476L16.8408 5.85126C16.8438 5.86432 16.8427 5.87244 16.8426 5.87245C16.8426 5.87246 16.8427 5.87104 16.8434 5.86798C16.8444 5.86366 16.8462 5.85769 16.849 5.84993M16.6946 5.88476L16.8406 5.85056C16.8378 5.83866 16.8338 5.83247 16.8338 5.8325C16.8337 5.83252 16.8348 5.83418 16.8376 5.83757C16.8404 5.84093 16.8441 5.84506 16.849 5.84993M16.849 5.84993C16.8515 5.84298 16.8548 5.8346 16.8592 5.8247C16.8776 5.78287 16.9078 5.72883 16.9472 5.66568C17.0259 5.53991 17.1303 5.39553 17.2219 5.2693M17.1811 3.76569L17.1402 3.91001C17.1081 3.90091 17.0761 3.89184 17.0442 3.8828C16.5087 3.73105 16.0027 3.58765 15.5004 3.46103C15.1576 4.24881 14.8296 5.03847 14.484 5.87057C14.4669 5.91184 14.4497 5.95321 14.4325 5.99469C14.3889 6.10279 14.3445 6.2108 14.2997 6.31892C14.4524 6.36573 14.5864 6.40725 14.7199 6.45057M17.1811 3.76569L15.3679 7.0812C15.4925 7.35666 15.3887 7.66946 15.2708 7.93911M17.1811 3.76569L17.1397 3.90988C17.1621 3.9163 17.1843 3.92265 17.2065 3.92897L17.1819 3.96279L17.1816 3.96318C16.9693 4.25653 16.772 4.52836 16.5746 4.80027L16.574 4.80099L16.574 4.80107C16.3956 5.04713 16.2472 5.25636 16.1544 5.44571C16.0596 5.63937 16.0146 5.82837 16.0611 6.03044L16.0611 6.03059C16.1285 6.32166 16.3618 6.51462 16.6814 6.7057M17.1811 3.76569C17.1488 3.75653 17.1165 3.7474 17.0844 3.73829C16.5373 3.58324 16.0184 3.43617 15.5024 3.30687M14.7199 6.45057C14.72 6.4506 14.7201 6.45062 14.7202 6.45065L14.6739 6.59333L14.7197 6.45051C14.7198 6.45053 14.7198 6.45055 14.7199 6.45057ZM14.7199 6.45057C14.9914 6.53773 15.3518 6.68111 15.5046 7.01941M15.5046 7.01941L15.368 7.08116L15.5046 7.01947C15.5046 7.01945 15.5046 7.01943 15.5046 7.01941ZM15.5046 7.01941C15.6593 7.36152 15.5247 7.73268 15.4083 7.9991M15.4083 7.9991C15.4083 7.99904 15.4083 7.99898 15.4083 7.99892L15.2708 7.93911M15.4083 7.9991C15.3867 8.04873 15.3647 8.09827 15.3425 8.14763L16.6814 6.7057M15.4083 7.9991C15.4083 7.99913 15.4082 7.99917 15.4082 7.9992L15.2708 7.93911M15.2708 7.93911L16.6814 6.7057M16.6814 6.7057L14.3456 5.81263C14.7 4.9594 15.0365 4.14935 15.3895 3.34005C15.4194 3.32346 15.475 3.30687 15.5024 3.30687M15.5024 3.30687L15.4838 3.38118L15.5018 3.45783C15.5032 3.45753 15.5044 3.45728 15.5055 3.45707C15.5074 3.4567 15.5083 3.45659 15.5083 3.45659C15.5083 3.4566 15.5062 3.45687 15.5024 3.45687V3.45644C15.5106 3.43764 15.5188 3.41883 15.527 3.40003L15.5024 3.38931V3.30687Z" fill="white" stroke="white" stroke-width="0.3"/>
<path d="M11.4736 13.3856L11.3512 13.3785L10.7194 13.342L10.588 13.3344L10.5784 13.2031L10.5369 12.6315L10.5369 12.6313C10.5302 12.537 10.5233 12.4426 10.5165 12.3481C10.5023 12.1521 10.4881 11.9555 10.4746 11.7588M11.4736 13.3856L10.6243 11.7486M11.4736 13.3856L11.5049 13.267L12.7053 8.7161L12.7524 8.53753L12.568 8.52803L12.2618 8.51228M11.4736 13.3856L12.2618 8.51228M10.4746 11.7588L10.6243 11.7486M10.4746 11.7588C10.4746 11.7589 10.4746 11.7589 10.4746 11.759L10.6243 11.7486M10.4746 11.7588C10.4695 11.6851 10.4658 11.6114 10.4622 11.5392C10.461 11.5163 10.4599 11.4935 10.4587 11.471L10.4587 11.4707C10.4576 11.4496 10.4566 11.4287 10.4556 11.4082C10.4527 11.3468 10.4498 11.2876 10.4456 11.2283L10.4455 11.2274L10.4453 11.2242C10.4411 11.1591 10.4333 11.04 10.4146 10.9275C10.4051 10.8701 10.3936 10.8197 10.3803 10.7815C10.373 10.7607 10.367 10.7489 10.3638 10.7431M10.6243 11.7486C10.6192 11.6764 10.6156 11.6047 10.612 11.5328C10.6109 11.5096 10.6097 11.4864 10.6085 11.4632C10.6075 11.4429 10.6065 11.4226 10.6055 11.4023C10.6025 11.3405 10.5996 11.2788 10.5952 11.2176L10.5949 11.2131C10.5863 11.0818 10.5616 10.703 10.4566 10.6227C10.3528 10.5422 9.98335 10.6127 9.86214 10.6359M10.3638 10.7431C10.3674 10.744 10.369 10.7446 10.3691 10.7445C10.3692 10.7444 10.3678 10.7436 10.3654 10.7418C10.3654 10.7418 10.3654 10.7418 10.3653 10.7417L10.3654 10.7418C10.3653 10.7417 10.3651 10.7416 10.365 10.7415C10.3649 10.7414 10.3648 10.7413 10.3646 10.7412C10.3623 10.7394 10.3612 10.7383 10.3611 10.7384C10.361 10.7385 10.362 10.7399 10.3638 10.7431ZM10.3638 10.7431C10.3575 10.7414 10.3451 10.7388 10.3243 10.737C10.2852 10.7337 10.2351 10.735 10.1789 10.7398C10.0671 10.7496 9.95145 10.7716 9.89051 10.7832M9.89051 10.7832L9.86214 10.6359M9.89051 10.7832C9.7522 10.8099 9.61398 10.8357 9.44881 10.8664L9.44907 10.8663L9.4213 10.7189M9.89051 10.7832C9.89047 10.7832 9.89042 10.7833 9.89037 10.7833L9.86214 10.6359M9.86214 10.6359C9.72432 10.6625 9.58651 10.6882 9.4213 10.7189M12.2618 8.51228C12.0549 8.50141 11.8508 8.49063 11.6896 8.47218C11.6087 8.46293 11.5439 8.4523 11.4975 8.4403C11.4852 8.43714 11.4754 8.43415 11.4675 8.43147C11.4666 8.42479 11.4658 8.41665 11.4651 8.40688C11.462 8.36326 11.4633 8.30311 11.4688 8.22816C11.4796 8.07875 11.5049 7.89187 11.5309 7.70163L11.5309 7.70144C11.5757 7.36957 11.6206 7.03764 11.6687 6.67915C11.6687 6.67915 11.6687 6.67914 11.6687 6.67913L11.7908 5.77145L11.8194 5.55849L11.6096 5.60502L11.262 5.68213C11.262 5.68214 11.2619 5.68215 11.2619 5.68216C11.0952 5.71881 10.9331 5.75396 10.7741 5.78844C10.7282 5.79838 10.6827 5.80826 10.6373 5.8181C10.6373 5.81811 10.6373 5.81811 10.6373 5.81811L10.6162 5.82268C10.0235 5.95113 9.45933 6.07339 8.90449 6.21779L8.90427 6.21785C8.73226 6.2629 8.59415 6.40185 8.50508 6.54198C8.41558 6.68279 8.35313 6.85985 8.36515 7.01662L8.36517 7.01683C8.43504 7.91133 8.52153 8.7964 8.61367 9.73134L8.76295 9.71663M12.2618 8.51228L11.2942 5.82863C11.1273 5.86535 10.9648 5.90057 10.8057 5.93506C10.7599 5.945 10.7144 5.95487 10.6691 5.9647L10.6495 5.96895C10.0557 6.09764 9.4941 6.21934 8.94227 6.36296C8.70151 6.42602 8.49728 6.77781 8.51471 7.00515C8.58445 7.89791 8.67079 8.78155 8.76295 9.71663M8.76295 9.71663C8.77769 9.8691 8.7927 10.0226 8.80782 10.1773C8.81993 10.3012 8.83212 10.4258 8.8443 10.5513L8.8562 10.6728L8.8431 10.6752L8.87087 10.8226L9.02016 10.808L9.01886 10.7947L9.4213 10.7189M8.76295 9.71663L8.61364 9.73107C8.62839 9.8835 8.64341 10.0372 8.65855 10.192C8.67066 10.316 8.68285 10.4406 8.69501 10.5658L8.69502 10.5659L8.72158 10.8372L8.73756 11.0004L8.89865 10.97L9.4487 10.8664L9.4213 10.7189M9.44896 10.0555C9.55266 10.0361 9.64726 10.0182 9.74144 9.99998L9.74181 9.99991C9.9352 9.96294 10.1149 9.93668 10.2781 9.93668C10.4916 9.93668 10.6873 9.98112 10.8538 10.1099L10.7621 10.2286M9.44896 10.0555L10.963 8.85042L10.8473 8.94595C10.8474 8.94597 10.8474 8.946 10.8474 8.94602C10.9609 9.08342 11.1088 9.16215 11.2857 9.21035C11.4142 9.24533 11.5629 9.2655 11.7316 9.27985L11.2407 11.1409C11.2108 10.7067 11.1423 10.3324 10.8537 10.1098L10.7621 10.2286M9.44896 10.0555C9.43925 9.95737 9.4297 9.85962 9.42019 9.76222C9.41663 9.72579 9.41308 9.68941 9.40952 9.65307L9.40952 9.65302L9.40733 9.63075C9.31788 8.71966 9.23348 7.86008 9.16567 6.99425C9.16792 6.98971 9.17066 6.98459 9.1738 6.97916C9.17525 6.97664 9.17673 6.97418 9.1782 6.9718C9.69987 6.83784 10.2373 6.72157 10.8079 6.59836L10.8079 6.59835C10.8276 6.59408 10.8475 6.5898 10.8674 6.58551C10.8709 6.58476 10.8743 6.58401 10.8778 6.58327M9.44896 10.0555L10.8778 6.58327M10.7621 10.2286C10.6301 10.1265 10.4707 10.0867 10.2781 10.0867C10.1295 10.0867 9.96093 10.1107 9.76998 10.1472C9.67156 10.1663 9.5727 10.185 9.46387 10.2053L10.7621 10.2286ZM10.8778 6.58327C10.8301 6.93793 10.7857 7.26676 10.7413 7.59479C10.7413 7.59481 10.7413 7.59483 10.7413 7.59485L10.8778 6.58327ZM10.728 13.1923L10.6865 12.6206L11.3598 13.2288L10.728 13.1923ZM11.3822 7.68136C11.3308 8.05888 11.2776 8.44967 11.3457 8.53181C11.4171 8.6181 11.843 8.6405 12.254 8.66207L11.3822 7.68136Z" fill="white" stroke="white" stroke-width="0.3"/>
</svg>
