<svg width="24" height="24" viewBox="0 0 24 24" fill="none" xmlns="http://www.w3.org/2000/svg">
<path d="M22.6064 17.2812C22.6191 17.3088 22.6334 17.3359 22.6495 17.3618L22.6496 17.3621C22.6976 17.4401 22.708 17.5223 22.691 17.5962C22.7618 17.7339 22.7685 17.9012 22.7468 18.1016M22.6064 17.2812L22.8062 18.9274M22.6064 17.2812C22.5828 17.167 22.5625 17.0549 22.5421 16.942C22.5315 16.8838 22.521 16.8255 22.5099 16.7664L22.5102 16.7664L22.5093 16.7631L22.6064 17.2812ZM22.7468 18.1016L22.7124 18.0979C22.7216 18.1124 22.7304 18.1271 22.7388 18.1417M22.7468 18.1016C22.7468 18.1013 22.7469 18.101 22.7469 18.1007L22.712 18.0971C22.7103 18.0945 22.7087 18.0919 22.707 18.0892M22.7468 18.1016C22.7455 18.1137 22.7433 18.1244 22.7412 18.1329C22.7404 18.136 22.7396 18.1389 22.7388 18.1417M22.7388 18.1417C22.7374 18.1469 22.7359 18.1516 22.7345 18.1556C22.7325 18.1617 22.7304 18.1675 22.729 18.1716L22.7254 18.1813C22.7249 18.1829 22.7247 18.1836 22.7247 18.1836L22.7248 18.1833C22.7249 18.1829 22.7252 18.1816 22.7256 18.1796C22.726 18.1779 22.7264 18.1757 22.7267 18.1731C22.7275 18.1675 22.7284 18.1565 22.7265 18.1422C22.7248 18.1299 22.7208 18.1142 22.712 18.0978L22.6962 18.0961L22.6932 18.0958L22.5977 18.0854M22.7388 18.1417C22.8652 18.361 22.9184 18.5925 22.9454 18.8163M22.5977 18.0854L22.6939 18.0953L22.697 18.0956L22.7116 18.0971C22.7102 18.0945 22.7087 18.0919 22.707 18.0892M22.5977 18.0854C22.6226 17.8557 22.6024 17.7146 22.5242 17.6119L22.5805 18.1699C22.5737 18.1595 22.5803 18.1415 22.5872 18.1224C22.5918 18.1099 22.5965 18.0969 22.5977 18.0854ZM22.707 18.0892L22.707 18.0892L22.7058 18.0875C22.7062 18.0881 22.7066 18.0887 22.707 18.0892ZM22.9454 18.8163C22.9439 18.8107 22.9421 18.8048 22.9402 18.7989L22.7979 18.8465L22.9469 18.8292C22.9464 18.8249 22.9459 18.8206 22.9454 18.8163ZM22.9454 18.8163C22.9504 18.8349 22.9531 18.8518 22.9548 18.8646L22.9562 18.8747V18.8825M22.9562 18.8825C22.956 18.8799 22.9558 18.8774 22.9556 18.8748L22.8451 18.8849L22.845 18.8849L22.8063 18.8884L22.9562 18.8884V18.8884V18.8884V18.8884V18.8883V18.8883V18.8883V18.8883V18.8883V18.8883V18.8882V18.8882V18.8882V18.8882V18.8882V18.8881V18.8881V18.8881V18.8881V18.8881V18.8881V18.888V18.888V18.888V18.888V18.888V18.8879V18.8879V18.8879V18.8879V18.8879V18.8878V18.8878V18.8878V18.8878V18.8878V18.8878V18.8877V18.8877V18.8877V18.8877V18.8877V18.8876V18.8876V18.8876V18.8876V18.8876V18.8876V18.8875V18.8875V18.8875V18.8875V18.8875V18.8874V18.8874V18.8874V18.8874V18.8874V18.8873V18.8873V18.8873V18.8873V18.8873V18.8873V18.8872V18.8872V18.8872V18.8872V18.8872V18.8871V18.8871V18.8871V18.8871V18.8871V18.887V18.887V18.887V18.887V18.887V18.887V18.8869V18.8869V18.8869V18.8869V18.8869V18.8868V18.8868V18.8868V18.8868V18.8868V18.8868V18.8867V18.8867V18.8867V18.8867V18.8867V18.8866V18.8866V18.8866V18.8866V18.8866V18.8865V18.8865V18.8865V18.8865V18.8865V18.8865V18.8864V18.8864V18.8864V18.8864V18.8864V18.8863V18.8863V18.8863V18.8863V18.8863V18.8863V18.8862V18.8862V18.8862V18.8862V18.8862V18.8861V18.8861V18.8861V18.8861V18.8861V18.8861V18.886V18.886V18.886V18.886V18.886V18.8859V18.8859V18.8859V18.8859V18.8859V18.8858V18.8858V18.8858V18.8858V18.8858V18.8858V18.8857V18.8857V18.8857V18.8857V18.8857V18.8856V18.8856V18.8856V18.8856V18.8856V18.8855V18.8855V18.8855V18.8855V18.8855V18.8855V18.8854V18.8854V18.8854V18.8854V18.8854V18.8853V18.8853V18.8853V18.8853V18.8853V18.8853V18.8852V18.8852V18.8852V18.8852V18.8852V18.8851V18.8851V18.8851V18.8851V18.8851V18.885V18.885V18.885V18.885V18.885V18.885V18.8849V18.8849V18.8849V18.8825ZM22.9562 18.8825C22.9572 18.8969 22.9574 18.9114 22.9567 18.9258M22.9567 18.9258C22.9563 18.9218 22.956 18.9179 22.9556 18.9139L22.8062 18.9274M22.9567 18.9258C22.9564 18.9309 22.9561 18.936 22.9556 18.941L22.8062 18.9274M22.9567 18.9258C22.9651 19.0229 22.9709 19.1278 22.9764 19.2287C22.9805 19.3048 22.9846 19.3786 22.9895 19.445M22.8062 18.9274C22.8153 19.0283 22.8208 19.1296 22.8262 19.2302C22.8303 19.3062 22.8344 19.3817 22.84 19.4564M22.9895 19.445L22.84 19.4564M22.9895 19.445C22.9895 19.4451 22.9896 19.4451 22.9896 19.4452L22.84 19.4564M22.9895 19.445C23.0653 20.4369 23.0979 21.4319 23.1303 22.4227C23.1348 22.5601 23.1393 22.6974 23.1439 22.8347M22.84 19.4564L22.8329 23.0889L22.8527 23.2376C22.9156 23.2292 22.9624 23.1924 22.9884 23.1683C23.0183 23.1406 23.0445 23.1071 23.0657 23.074C23.1038 23.0147 23.1469 22.923 23.1439 22.8347M23.1439 22.8347L22.994 22.8397L23.1439 22.8345C23.1439 22.8346 23.1439 22.8346 23.1439 22.8347ZM12.8404 22.7706C12.8405 22.7709 12.8405 22.7719 12.8407 22.7737L12.8422 22.7843L12.8451 22.8006C12.8462 22.8068 12.8476 22.8144 12.8488 22.8223C12.8512 22.8375 12.8541 22.8596 12.8535 22.884C12.8529 22.9087 12.8486 22.9423 12.8315 22.9769L12.8313 22.9774C12.8068 23.0266 12.7769 23.0698 12.7497 23.1065C12.7361 23.1249 12.7249 23.1396 12.7144 23.1532C12.7009 23.1709 12.6887 23.1868 12.6746 23.2066L12.5767 23.3442L12.4516 23.2307C12.4414 23.2214 12.4278 23.211 12.4085 23.1969C12.4047 23.1941 12.4005 23.1911 12.3961 23.1879C12.3807 23.1768 12.3621 23.1634 12.3454 23.1503C12.3089 23.1217 12.2354 23.062 12.2146 22.9685C12.2146 22.9685 12.2146 22.9685 12.2146 22.9685L12.3611 22.936C12.3269 22.7824 12.3226 22.6214 12.3183 22.462L12.8404 22.7706ZM12.8404 22.7706C12.8397 22.5914 12.8367 22.4138 12.8338 22.2373C12.8268 21.8232 12.82 21.4151 12.8426 21.0058M12.8404 22.7706L12.8426 21.0058M12.8426 21.0058C12.8426 21.0058 12.8426 21.0058 12.8426 21.0058L12.6928 20.9975L12.8426 21.0058ZM12.8426 21.0058C12.8786 20.3551 13.0033 19.741 13.3636 19.1955L13.3636 19.1954M12.8426 21.0058L13.3636 19.1954M2.76189 15.0576C2.55691 15.0228 2.4793 15.1001 2.41887 15.2891L2.56182 15.3345C1.81631 17.6791 1.47782 20.082 1.51315 22.5406L1.51315 22.5408C1.51435 22.6354 1.51435 22.7309 1.51254 22.826C1.51107 22.9042 1.50247 22.9785 1.48032 23.0425C1.45775 23.1077 1.41649 23.1744 1.34283 23.2136C1.26989 23.2524 1.19186 23.25 1.12542 23.2339C1.05957 23.218 0.991542 23.1857 0.923332 23.1452L0.85 23.1016V23.0163V21.2857V21.2724L0.850578 21.2725C0.865396 21.1042 0.879679 20.9354 0.893984 20.7663C0.92296 20.4238 0.952025 20.0803 0.9858 19.7381L0.985804 19.7381C1.23458 17.2253 1.91167 14.8289 2.94918 12.5315C2.98756 12.4459 3.0083 12.3602 3.00146 12.2992L3.00142 12.2988C2.7919 10.3884 3.06308 8.53381 3.66099 6.73058L2.7367 15.2055L2.76189 15.0576ZM2.76189 15.0576C3.01354 15.1005 3.26665 15.1368 3.5197 15.1731C3.97078 15.2378 4.42169 15.3024 4.86384 15.4042L2.56174 15.3348C2.59014 15.246 2.61281 15.2192 2.62494 15.2103C2.63068 15.2061 2.65297 15.1912 2.73676 15.2055M2.76189 15.0576L2.73676 15.2055M2.73676 15.2055C2.99694 15.2498 3.25375 15.2866 3.5082 15.323C3.95433 15.3869 4.3932 15.4498 4.8302 15.5504L4.83028 15.5504C6.73478 15.9876 8.43014 16.8161 9.80741 18.2154C10.5535 18.9735 11.0714 19.8208 11.0991 20.8886L11.0991 20.8886C11.1124 21.3983 11.1085 21.9084 11.1046 22.4212C11.1037 22.5469 11.1027 22.6727 11.102 22.7987L11.102 22.7989C11.102 22.8133 11.1015 22.8284 11.1009 22.846L11.1008 22.8475C11.1003 22.864 11.0997 22.8828 11.0996 22.9016C11.0993 22.9392 11.1008 22.9874 11.1131 23.0356C11.1259 23.086 11.1519 23.142 11.2039 23.187C11.2555 23.2315 11.3192 23.2534 11.3863 23.261M2.73676 15.2055L11.3863 23.261M11.3863 23.261C11.3863 23.261 11.3863 23.261 11.3863 23.261L11.4031 23.1119L11.3863 23.261ZM13.3636 19.1954C13.8325 18.4849 14.4155 17.8861 15.0945 17.377C16.9386 15.9942 19.0647 15.3909 21.3467 15.197C21.3765 15.1945 21.3912 15.1964 21.3972 15.1978C21.4004 15.2029 21.4078 15.2172 21.4166 15.25L21.4167 15.2503M13.3636 19.1954L21.4167 15.2503M21.4167 15.2503C21.4797 15.483 21.5448 15.7119 21.6096 15.9397C21.7048 16.2743 21.7993 16.6065 21.8852 16.9448M21.4167 15.2503L21.8852 16.9448M21.8852 16.9448C21.8849 16.9485 21.8847 16.9523 21.8845 16.9562L21.8844 16.9562L21.8843 16.9625C21.8817 17.1896 21.9369 17.4084 22.0394 17.6068L21.8852 16.9448ZM22.5083 16.7578C22.4731 16.5707 22.4327 16.3815 22.3725 16.1964L22.5083 16.7578ZM22.3724 16.1962L22.3446 16.1103C22.0354 15.1547 21.7241 14.1926 21.3571 13.2524C21.3571 13.2524 21.357 13.2524 21.357 13.2524L22.3724 16.1962ZM3.09291 14.5915C3.01193 14.5759 2.92641 14.5663 2.83859 14.5574C2.86518 14.4732 2.88967 14.3974 2.92094 14.3207L2.92113 14.3202C3.00132 14.1215 3.0841 13.921 3.16714 13.7198C3.27506 13.4584 3.38343 13.1959 3.4872 12.9348L3.48722 12.9348C3.50841 12.8814 3.52434 12.8696 3.52959 12.8664C3.53532 12.8629 3.55502 12.8533 3.61645 12.8583C6.32513 13.0788 9.03847 13.2 11.7552 13.2278C14.6061 13.2568 17.4561 13.1776 20.297 12.8674L20.2971 12.8673C20.4049 12.8554 20.4514 12.8688 20.4762 12.8839C20.5009 12.8989 20.5324 12.9328 20.5694 13.0297C20.7241 13.4352 20.8909 13.8367 21.0592 14.2416C21.0997 14.3391 21.1403 14.4367 21.1808 14.5347C21.0218 14.5589 20.8639 14.5819 20.707 14.6047C20.2384 14.6729 19.7792 14.7397 19.3289 14.8334C17.2155 15.2723 15.2982 16.1329 13.7487 17.6946C13.5864 17.8579 13.442 18.0357 13.304 18.2108C13.2789 18.2425 13.2542 18.274 13.2296 18.3054C13.1168 18.4492 13.007 18.5891 12.8895 18.7226L12.8893 18.7227C12.8028 18.8213 12.693 18.9031 12.6003 18.9266C12.1531 19.0387 11.6944 19.0059 11.232 18.8966L11.232 18.8966C11.1998 18.889 11.1566 18.8594 11.1391 18.834L11.0156 18.9191L11.1396 18.8346C9.81785 16.8966 7.93031 15.7657 5.74367 15.1256C5.13735 14.9481 4.50517 14.8396 3.88331 14.7329C3.61709 14.6872 3.35276 14.6418 3.09317 14.5915L3.09291 14.5915ZM13.0021 18.8217C12.9067 18.9304 12.7722 19.0378 12.6371 19.0721L13.0021 18.8217ZM11.7882 22.3318C11.8159 21.4272 11.7936 20.5118 11.5213 19.6212L11.7555 22.8476C11.7555 22.8475 11.7555 22.8474 11.7555 22.8474C11.7591 22.7745 11.7646 22.7016 11.7703 22.6264C11.7711 22.616 11.7719 22.6056 11.7727 22.595C11.7791 22.5095 11.7854 22.4211 11.7882 22.3319L11.7882 22.3318Z" fill="white" stroke="white" stroke-width="0.3"/>
<path d="M12.4421 7.09281L12.399 7.04985L12.3352 7.05121C11.9245 7.0599 11.6129 7.37807 11.6137 7.74588L11.6137 7.74589C11.6141 7.92249 11.6878 8.09129 11.7994 8.21531C11.9109 8.33918 12.0718 8.43045 12.2542 8.42754L12.2547 8.42753C12.3274 8.42615 12.387 8.39426 12.4255 8.36969C12.4546 8.35109 12.4858 8.32689 12.5094 8.3086C12.5104 8.30783 12.5114 8.30706 12.5123 8.30631C12.6133 8.26316 12.6943 8.18994 12.7468 8.09679C12.8004 8.05576 12.8451 7.99536 12.8609 7.91773L12.8609 7.91773L12.8611 7.91698C12.8913 7.76431 12.881 7.57734 12.8169 7.41955C12.7567 7.27099 12.6378 7.12813 12.445 7.09509L12.4421 7.09281Z" fill="white" stroke="white" stroke-width="0.3"/>
<path d="M18.3759 7.06069C18.3288 7.00557 18.3003 6.93489 18.2966 6.85707L18.2966 6.85671C18.2923 6.76081 18.3355 6.67646 18.3926 6.61947C18.4496 6.56246 18.534 6.51937 18.63 6.52356C18.6781 6.52554 18.7253 6.53101 18.771 6.53871C18.8998 6.47208 19.0327 6.41512 19.1603 6.36153L19.2184 6.49983M18.3759 7.06069L19.4563 6.9367C19.5523 6.93458 19.634 6.89471 19.6903 6.82932C19.7454 6.76522 19.7693 6.6848 19.7693 6.60995C19.7693 6.53509 19.7454 6.45467 19.6903 6.39057C19.6325 6.32335 19.5477 6.28311 19.4482 6.28311C19.3821 6.28311 19.3231 6.30115 19.2743 6.33225C19.2363 6.33577 19.1973 6.34536 19.1584 6.36233L19.2184 6.49983M18.3759 7.06069L18.3491 7.12764L18.5202 7.16682C18.534 7.16999 18.5506 7.17516 18.5728 7.18275C18.5773 7.18427 18.5821 7.18594 18.5873 7.18771C18.605 7.19384 18.6262 7.20115 18.6462 7.20722C18.69 7.22054 18.7687 7.24202 18.8496 7.21921C18.9402 7.22046 19.0269 7.18159 19.0879 7.12108C19.1493 7.09186 19.2129 7.0596 19.2743 7.02844C19.3201 7.00522 19.3646 6.98261 19.4062 6.96235L18.3759 7.06069ZM19.2184 6.49983C19.2563 6.48329 19.293 6.47857 19.3268 6.48152L18.7948 6.69586C18.931 6.62205 19.075 6.56005 19.2184 6.49983Z" fill="white" stroke="white" stroke-width="0.3"/>
<path d="M19.2335 7.53047L19.2336 7.53052C19.3656 7.5972 19.4979 7.66165 19.6318 7.72571L19.2335 7.53047ZM19.2335 7.53047C19.1972 7.51217 19.1629 7.49578 19.13 7.4801C19.073 7.45288 19.0206 7.42782 18.9702 7.39871C18.8832 7.25657 18.7139 7.23769 18.5969 7.27787C18.4624 7.32404 18.3343 7.46482 18.3779 7.6615L18.3779 7.6615M19.2335 7.53047L18.3779 7.6615M18.3779 7.6615L18.378 7.66183M18.3779 7.6615L18.378 7.66183M18.378 7.66183C18.3933 7.72994 18.4253 7.78476 18.4625 7.8286C18.4804 7.85932 18.5085 7.89764 18.5515 7.92424L18.5515 7.92426M18.378 7.66183L18.5515 7.92426M18.5515 7.92426L18.5541 7.92582M18.5515 7.92426L18.5541 7.92582M18.5541 7.92582C18.7369 8.03381 18.9304 8.13091 19.1322 8.20685C19.162 8.22137 19.1919 8.23632 19.2226 8.25171L19.223 8.25191C19.2555 8.26817 19.289 8.28491 19.3227 8.30127L19.3227 8.30127M18.5541 7.92582L19.3227 8.30127M19.3227 8.30127L19.3234 8.30162M19.3227 8.30127L19.3234 8.30162M19.3234 8.30162C19.5127 8.39213 19.6867 8.28974 19.761 8.16348M19.3234 8.30162L19.761 8.16348M19.761 8.16348C19.7988 8.09939 19.8199 8.01682 19.8015 7.9322M19.761 8.16348L19.8015 7.9322M19.8015 7.9322C19.7819 7.84241 19.7216 7.7687 19.6318 7.72573L19.8015 7.9322Z" fill="white" stroke="white" stroke-width="0.3"/>
<path d="M4.89363 7.03818C5.06595 7.1512 5.25562 7.20819 5.45078 7.23007L5.45089 7.23009C5.55762 7.24198 5.64584 7.19134 5.70119 7.13239C5.75569 7.07434 5.7945 6.9922 5.79464 6.90492M4.89363 7.03818L4.74059 6.78697C4.69852 6.72615 4.66831 6.62754 4.68964 6.56437M4.89363 7.03818L4.84372 7.01304C4.83784 7.01007 4.82899 7.00639 4.81329 7.00042C4.81082 6.99949 4.80811 6.99847 4.80519 6.99737C4.7923 6.99252 4.77555 6.98621 4.75981 6.97954C4.72481 6.96471 4.65997 6.93474 4.61695 6.87189M4.89363 7.03818L4.61695 6.87189M5.79464 6.90492C5.79464 6.90505 5.79463 6.90518 5.79463 6.90531L5.64464 6.90446H5.79464C5.79464 6.90462 5.79464 6.90477 5.79464 6.90492ZM5.79464 6.90492C5.79559 6.69917 5.62885 6.59435 5.48419 6.57826C5.44905 6.57433 5.41404 6.56545 5.37712 6.55206C5.33495 6.53028 5.29074 6.50778 5.24549 6.48643C5.23978 6.48297 5.23613 6.48084 5.23341 6.47926C5.22917 6.47678 5.22722 6.47564 5.22332 6.47287L5.22333 6.47286L5.22191 6.47187C5.18852 6.44869 5.15207 6.43385 5.11479 6.42641C5.05631 6.40042 4.99682 6.37476 4.93697 6.35045M4.93697 6.35045C4.93701 6.35047 4.93705 6.35049 4.9371 6.35051L4.8804 6.48938L4.93683 6.3504C4.93688 6.35042 4.93692 6.35044 4.93697 6.35045ZM4.93697 6.35045C4.8885 6.33071 4.84013 6.33384 4.8114 6.33781C4.77837 6.34237 4.74574 6.35186 4.7169 6.36328C4.68822 6.37464 4.65782 6.39008 4.63079 6.40966C4.60914 6.42534 4.56639 6.45997 4.54738 6.51679L4.68964 6.56437M4.68964 6.56437L4.54752 6.51639C4.52379 6.58669 4.53237 6.65969 4.54591 6.7133C4.56015 6.76964 4.58526 6.82597 4.61695 6.87189M4.68964 6.56437L4.61695 6.87189" fill="white" stroke="white" stroke-width="0.3"/>
<path d="M18.2996 6.1692L18.2996 6.16921C18.7715 7.57384 17.9761 9.09699 16.537 9.54221L16.5365 9.54236C16.439 9.57214 16.3276 9.58266 16.2369 9.59123C16.2148 9.59331 16.1939 9.59528 16.1748 9.59738C16.0615 9.60984 15.9955 9.62697 15.9556 9.65771L15.9555 9.65776C15.9161 9.68805 15.8831 9.74659 15.8429 9.85213C15.8359 9.87043 15.8286 9.89056 15.8209 9.9119C15.7902 9.9966 15.7525 10.1006 15.7002 10.1865C15.0607 11.2414 13.7032 11.5822 12.6296 10.9687L12.6292 10.9684C12.582 10.9412 12.5339 10.9114 12.4879 10.8826C12.0046 11.3263 11.5589 11.5747 11.1066 11.575C10.6557 11.5752 10.2416 11.3295 9.81822 10.8908C9.45178 11.1335 9.04561 11.2867 8.59896 11.345L8.59893 11.345C6.84745 11.5731 5.30807 9.90495 5.70346 8.18789L5.84963 8.22155M18.2996 6.1692L7.59375 5.25337M18.2996 6.1692C17.8116 4.71714 16.2632 3.97519 14.8169 4.50922L14.8167 4.50928C14.7531 4.53283 14.725 4.53426 14.7087 4.53177C14.6947 4.52963 14.6697 4.52161 14.6213 4.4781L14.6212 4.47799C13.973 3.89721 13.0075 3.87202 12.3141 4.39366L18.2996 6.1692ZM5.84963 8.22155L5.70295 8.19019C5.7131 8.14269 5.73263 8.10157 5.75051 8.06948C5.7756 7.91095 5.82502 7.75851 5.88959 7.61349C5.89062 7.60718 5.89164 7.60102 5.89264 7.59492C5.89587 7.57528 5.89899 7.55634 5.90225 7.5354L5.93217 7.34326L6.01017 7.37727C6.11253 7.19764 6.2315 7.02986 6.3459 6.87784C6.46239 6.72304 6.59112 6.58675 6.7346 6.47181C6.76515 6.42763 6.80803 6.39179 6.8614 6.36686L6.86299 6.36611L6.863 6.36612C6.87348 6.36137 6.88039 6.35789 6.88913 6.35349C6.89123 6.35243 6.89344 6.35132 6.89582 6.35012C6.99841 6.25962 7.12731 6.17564 7.27432 6.16307C7.33408 6.13606 7.3949 6.11123 7.45816 6.0901C7.45275 6.07644 7.44777 6.06265 7.44323 6.04873C7.39085 5.99506 7.35636 5.92152 7.35377 5.833M5.84963 8.22155C5.85733 8.18554 5.87511 8.15247 5.89466 8.12L12.4695 10.6944C11.4517 11.6674 10.7295 11.6698 9.83906 10.6938C9.46465 10.966 9.0458 11.1354 8.57955 11.1962C6.92963 11.4112 5.47818 9.83466 5.84963 8.22155ZM7.35377 5.833C7.34785 5.64624 7.35208 5.39124 7.46091 5.18371M7.35377 5.833C7.35377 5.83292 7.35376 5.83284 7.35376 5.83276L7.5037 5.82847L7.35378 5.83323C7.35377 5.83315 7.35377 5.83307 7.35377 5.833ZM7.46091 5.18371L7.59375 5.25337M7.46091 5.18371C7.46089 5.18374 7.46087 5.18377 7.46086 5.1838L7.59375 5.25337M7.46091 5.18371C7.51362 5.08304 7.58755 4.99784 7.65849 4.92534C7.69424 4.88881 7.73102 4.85375 7.76522 4.82118L7.76654 4.81992C7.80091 4.78718 7.83247 4.75713 7.86165 4.72737L7.86165 4.72736C7.89404 4.69434 7.9297 4.67105 7.96632 4.65549M7.59375 5.25337C7.6582 5.13025 7.76694 5.02668 7.87094 4.92764C7.90459 4.89558 7.93776 4.864 7.96876 4.83238C7.99423 4.8064 8.02208 4.79223 8.04992 4.78514M7.96632 4.65549C7.95749 4.66453 7.94878 4.67366 7.94018 4.68288L8.04992 4.78514M7.96632 4.65549C8.23763 4.37769 8.61683 4.19158 9.03247 4.2962C9.50203 4.29814 9.90386 4.47901 10.225 4.83789M7.96632 4.65549C7.98174 4.64893 7.99734 4.64374 8.01293 4.63978L8.04992 4.78514M8.04992 4.78514C8.30467 4.51177 8.64887 4.34644 9.01321 4.44623C9.44806 4.44327 9.81596 4.60565 10.1134 4.93807M10.4682 5.02605L10.4119 4.88702C10.8912 4.69287 11.3775 4.70793 11.7418 4.82491C11.813 4.77125 11.8797 4.72097 11.9433 4.673C12.0758 4.57313 12.195 4.48326 12.3141 4.39367L12.0338 4.79267C11.9514 4.85476 11.8639 4.92075 11.768 4.99298C11.4303 4.86426 10.9463 4.83238 10.4682 5.02605ZM10.4682 5.02605C10.3089 5.0904 10.2253 5.06265 10.1134 4.93807M10.4682 5.02605L10.4121 4.88696C10.3456 4.91379 10.321 4.91043 10.3113 4.90788C10.2994 4.90473 10.2748 4.89329 10.225 4.83789M10.1134 4.93807L10.2252 4.83806C10.2251 4.838 10.2251 4.83795 10.225 4.83789M10.1134 4.93807L10.2249 4.8378C10.2249 4.83783 10.225 4.83786 10.225 4.83789M12.435 5.23013C12.4592 5.24961 12.4853 5.27067 12.5161 5.29667C12.5801 5.35078 12.6491 5.41457 12.7069 5.49182L12.707 5.49202C12.7674 5.57296 12.761 5.67405 12.7571 5.72245C12.7553 5.74504 12.7524 5.76921 12.75 5.78962C12.7493 5.79546 12.7486 5.801 12.748 5.8061C12.7451 5.83178 12.7434 5.85071 12.7433 5.866L12.7421 6.05154L12.5609 6.01155C12.548 6.00868 12.5309 6.00641 12.5065 6.00393C12.5014 6.00341 12.4957 6.00285 12.4896 6.00226C12.4705 6.00041 12.4478 5.99821 12.4271 5.99543C12.3993 5.99168 12.3644 5.98564 12.3302 5.97337C12.2963 5.96118 12.2519 5.93894 12.2173 5.89568M12.435 5.23013L9.99547 5.35906L9.86705 5.43658C9.91322 5.51307 9.97894 5.60178 10.0803 5.64333C10.1938 5.68984 10.3086 5.66185 10.4133 5.5996L10.4134 5.59956C11.0233 5.2367 11.8025 5.3799 12.2173 5.89568M12.435 5.23013C12.8408 4.62019 13.652 4.50929 14.1237 4.924C14.1062 4.93873 14.0877 4.95444 14.0675 4.97212C14.0066 5.02542 13.9417 5.08711 13.8875 5.16125C13.8876 5.16122 13.8876 5.16119 13.8876 5.16116L12.435 5.23013ZM12.2173 5.89568C12.2173 5.89562 12.2172 5.89555 12.2172 5.89548L12.3344 5.8019L12.2175 5.89588C12.2174 5.89581 12.2174 5.89575 12.2173 5.89568ZM14.2938 5.63805C14.2316 5.66255 14.1687 5.67022 14.118 5.67404C14.0892 5.6762 14.0685 5.67712 14.05 5.67795C14.0279 5.67893 14.0089 5.67978 13.9832 5.68244L13.797 5.70172L13.8187 5.51582C13.8206 5.49954 13.8214 5.48027 13.8219 5.45516C13.822 5.45015 13.8221 5.44474 13.8221 5.43906C13.8224 5.41897 13.8228 5.39538 13.8239 5.37319C13.8266 5.32037 13.8345 5.23378 13.8875 5.16134L14.5094 5.46213C14.4954 5.47363 14.4849 5.48495 14.4689 5.50202C14.4603 5.51119 14.4502 5.52202 14.4372 5.53544C14.4075 5.56594 14.3599 5.61221 14.2938 5.63805ZM14.2938 5.63805C14.2937 5.63808 14.2936 5.63812 14.2936 5.63815L14.239 5.4984L14.2941 5.63795C14.294 5.63798 14.2939 5.63802 14.2938 5.63805ZM17.7835 7.01463C17.8026 5.97705 16.9982 5.0856 15.9198 4.99185L15.9198 4.99185C15.3954 4.94621 14.926 5.1211 14.5096 5.46202L17.7835 7.01463ZM17.7835 7.01463C17.762 8.07804 16.9533 8.92631 15.872 8.99353C15.7443 9.00143 15.621 9.02407 15.5195 9.09954C15.4156 9.17679 15.3583 9.29104 15.3198 9.42721C15.0238 10.4754 13.8557 10.934 12.9336 10.3909L12.9335 10.3909C12.8401 10.336 12.8004 10.2953 12.785 10.2637C12.7745 10.2423 12.7645 10.2034 12.8026 10.1158L12.8029 10.115C12.8281 10.056 12.8547 9.97274 12.8554 9.88676C12.9184 9.77171 12.9281 9.61355 12.807 9.49283C12.7452 9.43129 12.6599 9.40061 12.5803 9.398C12.4995 9.39535 12.4021 9.42161 12.3345 9.50394L12.3343 9.50416C12.2431 9.61581 12.1692 9.74484 12.1343 9.89715C12.1343 9.89727 12.1343 9.8974 12.1342 9.89752L12.2805 9.9309M17.7835 7.01463L12.1098 10.1908M12.2805 9.9309C12.2704 9.974 12.2769 10.0201 12.2965 10.0596M12.2805 9.9309C12.3089 9.80632 12.3699 9.69767 12.4505 9.59907L12.2805 9.9309ZM12.2965 10.0596L12.1492 10.0312C12.1464 10.0455 12.1437 10.0594 12.1409 10.0728C12.1465 10.0912 12.1536 10.1091 12.162 10.1261L12.2965 10.0596ZM12.2965 10.0596C12.2846 10.121 12.2716 10.1824 12.2514 10.2403M12.2514 10.2403L12.1099 10.1907C12.1099 10.1907 12.1098 10.1908 12.1098 10.1908M12.2514 10.2403C12.0873 10.7085 11.7597 10.9978 11.2591 11.0468M12.2514 10.2403L12.1098 10.191C12.1098 10.1909 12.1098 10.1909 12.1098 10.1908M12.1098 10.1908L11.2591 11.0468M11.2591 11.0468C10.7781 11.0935 10.4078 10.8862 10.1578 10.4788C10.0543 10.3104 10.0042 10.2257 9.94061 10.2139C9.87752 10.2021 9.80109 10.2621 9.64593 10.3832C8.85503 11.0014 7.8011 11.0185 7.01376 10.4263L11.2591 11.0468ZM8.46336 5.17944C8.48402 5.15842 8.50623 5.13137 8.52422 5.10945C8.52576 5.10758 8.52726 5.10574 8.52874 5.10395C8.54348 5.08602 8.55703 5.06968 8.56997 5.05512C8.58988 5.04499 8.60872 5.03468 8.62538 5.02556L8.62574 5.02536C8.64263 5.01611 8.6574 5.00803 8.6713 5.00085C8.75839 4.99387 8.87732 5.0143 8.97112 5.03087L8.46336 5.17944ZM8.46336 5.17944C8.41796 5.22592 8.36476 5.2556 8.30895 5.26902C8.30294 5.27723 8.29734 5.28514 8.29172 5.29364L8.29153 5.29392C8.28493 5.30385 8.27834 5.31372 8.27179 5.32354C8.18854 5.44836 8.11119 5.56431 8.07691 5.67671C8.05955 5.73363 8.05674 5.77998 8.06557 5.81897C8.07396 5.856 8.09553 5.89864 8.14883 5.94538L8.46336 5.17944ZM9.669 5.19277C9.69813 5.19373 9.72633 5.19081 9.75326 5.18457L9.71939 5.03845L9.62517 5.15516C9.64004 5.16717 9.65466 5.17971 9.669 5.19277ZM14.0495 5.52776C14.0729 5.52661 14.0963 5.52547 14.1193 5.52344C14.1186 5.53242 14.1178 5.54154 14.1167 5.55067L13.9677 5.53324C13.9946 5.53046 14.0221 5.52911 14.0495 5.52776ZM8.33671 6.08024C8.30227 6.07312 8.26799 6.0664 8.23376 6.06003C8.21584 6.01813 8.18747 5.97895 8.1483 5.94492L8.04992 6.05815C7.76637 5.80946 7.97681 5.49477 8.14446 5.24406C8.15195 5.23286 8.15936 5.22179 8.16663 5.21086C8.17922 5.19183 8.19349 5.17279 8.2079 5.15357L8.33671 6.08024Z" fill="white" stroke="white" stroke-width="0.3"/>
<path d="M5.31212 7.82034C5.26532 7.82979 5.21852 7.83983 5.17468 7.86167C5.08755 7.90509 5.01463 7.97161 4.94352 8.03647C4.93921 8.04041 4.9349 8.04434 4.9306 8.04825C4.76235 8.20118 4.51115 7.95201 4.68 7.79849L4.68242 7.7963C4.77884 7.70899 4.87944 7.6179 4.99576 7.557M5.31212 7.82034L5.21921 7.9381C5.2392 7.95387 5.26264 7.96837 5.2895 7.979M5.31212 7.82034L5.3418 7.96738C5.32112 7.97155 5.30409 7.97522 5.2895 7.979M5.31212 7.82034C5.35478 7.854 5.40691 7.86167 5.49163 7.80558C5.51118 7.79259 5.52777 7.76012 5.53843 7.72351L5.36248 7.44423M5.2895 7.979C5.27017 7.98399 5.25514 7.98917 5.24158 7.99593C5.17369 8.02976 5.11503 8.08318 5.03834 8.15301C5.0361 8.15505 5.03385 8.15711 5.03157 8.15918L5.03149 8.15925C4.87397 8.30243 4.67774 8.24868 4.57313 8.14466C4.52023 8.09206 4.4794 8.01792 4.47451 7.93236C4.46934 7.84201 4.50538 7.75453 4.57909 7.68751L4.57932 7.6873L4.57932 7.6873C4.58189 7.68497 4.58448 7.68262 4.58709 7.68026C4.67983 7.59624 4.79257 7.49412 4.92595 7.42424M5.2895 7.979C5.31909 7.9907 5.35283 7.9977 5.39069 7.99655C5.45796 7.99449 5.51942 7.96708 5.57444 7.93065L5.57464 7.93052C5.61312 7.90495 5.63641 7.86988 5.64961 7.84603C5.65967 7.82785 5.66786 7.80882 5.67448 7.79016C5.74394 7.67921 5.73786 7.54152 5.68429 7.44124C5.65421 7.38491 5.60497 7.3321 5.53531 7.30322C5.46361 7.27349 5.38461 7.27513 5.30892 7.30411M4.92595 7.42424C4.92587 7.42428 4.92579 7.42432 4.9257 7.42437L4.99576 7.557M4.92595 7.42424C4.92603 7.42419 4.92611 7.42415 4.92619 7.42411L4.99576 7.557M4.92595 7.42424C5.00299 7.38359 5.07982 7.36363 5.14334 7.34865C5.15478 7.34594 5.16568 7.34342 5.17612 7.341C5.22773 7.32905 5.26816 7.31969 5.30892 7.30411M4.99576 7.557C5.06447 7.52071 5.13578 7.50427 5.20736 7.48776C5.25921 7.47581 5.31121 7.46382 5.36248 7.44423M5.36248 7.44423L5.30879 7.30416C5.30883 7.30415 5.30888 7.30413 5.30892 7.30411M5.36248 7.44423L5.30892 7.30411" fill="white" stroke="white" stroke-width="0.3"/>
</svg>
