<svg width="27" height="27" viewBox="0 0 27 27" fill="none" xmlns="http://www.w3.org/2000/svg">
<path d="M26.125 13.5232C26.1424 6.5502 20.4873 0.882204 13.5052 0.875009L0.875036 13.4758C0.858619 20.4508 6.51265 26.1188 13.4928 26.125C20.4536 26.1301 26.1075 20.4897 26.125 13.5232ZM13.5052 0.875009C6.54228 0.866807 0.890443 6.50528 0.875036 13.4758L13.5052 0.875009ZM2.90261 13.4524C2.93275 7.61906 7.70579 2.87039 13.5013 2.90353C19.3902 2.9377 24.1365 7.69873 24.0964 13.5281C24.0562 19.3924 19.2767 24.1467 13.4787 24.0965C7.58183 24.0452 2.87248 19.3026 2.90261 13.4524Z" fill="white" stroke="white" stroke-width="0.25"/>
<path d="M13.505 21.1255L13.4919 21.1249C11.1353 21.0156 9.06066 20.2531 7.27732 18.7238L7.27715 18.7237C7.12693 18.5944 7.00744 18.4451 6.93877 18.271C6.86951 18.0955 6.85493 17.9024 6.90359 17.6921L7.02537 17.7203M13.505 21.1255L15.964 20.5832C15.4117 20.7193 14.8448 20.8008 14.2777 20.8824C14.0173 20.9198 13.7568 20.9573 13.4977 21C11.1665 20.8919 9.11918 20.1386 7.35869 18.629C7.08007 18.3892 6.93869 18.0949 7.02537 17.7203M13.505 21.1255L13.518 21.1233C13.7716 21.0815 14.0291 21.0445 14.2879 21.0072C14.8582 20.9252 15.4355 20.8422 15.9939 20.7046M13.505 21.1255L15.9939 20.7046M7.02537 17.7203L6.90354 17.6923C6.99898 17.2767 7.26938 17.0116 7.67293 16.9067M7.02537 17.7203C7.10999 17.3518 7.34424 17.1213 7.70439 17.0277M7.67293 16.9067L7.70439 17.0277M7.67293 16.9067C7.6729 16.9067 7.67287 16.9067 7.67283 16.9067L7.70439 17.0277M7.67293 16.9067C8.08755 16.7986 8.41239 16.982 8.68824 17.2164L8.60734 17.3117M7.70439 17.0277C8.05938 16.9351 8.34213 17.0863 8.60734 17.3117M8.60734 17.3117C9.63515 18.1844 10.8116 18.7555 12.1438 18.985L8.60734 17.3117ZM15.9939 20.7046C17.3993 20.3586 18.6386 19.6691 19.7269 18.7213C19.8836 18.5856 20.0042 18.4288 20.07 18.2473C20.1362 18.0644 20.1437 17.8648 20.0867 17.6501L20.0867 17.65C19.9804 17.2519 19.7099 17.0023 19.3223 16.9054L19.292 17.0266L19.3223 16.9054C18.9086 16.8019 18.5872 16.9903 18.3097 17.2182L18.3097 17.2182C16.5117 18.6961 14.4658 19.2579 12.165 18.8618C10.856 18.6364 9.7 18.0755 8.68828 17.2165L15.9939 20.7046Z" fill="white" stroke="white" stroke-width="0.25"/>
<path d="M14.9522 11.2763L14.9522 11.2762C14.8421 10.9963 14.8515 10.7133 14.9696 10.4731C15.0874 10.2335 15.3082 10.0472 15.6012 9.94884L14.9522 11.2763ZM14.9522 11.2763C15.3906 12.3871 16.6255 13.125 17.9875 13.125M14.9522 11.2763L15.0685 11.2304C15.4843 12.284 16.6659 13 17.9876 13M17.9876 13L17.9875 13.125M17.9876 13C19.3329 13.001 20.4885 12.3109 20.922 11.2524L17.9875 13.125M17.9876 13V13.125C17.9876 13.125 17.9875 13.125 17.9875 13.125M17.1182 10.5587L17.1182 10.5588C17.2027 10.738 17.3107 10.8771 17.449 10.9718C17.5865 11.066 17.7628 11.1224 17.9947 11.1224H17.9949C18.2259 11.1228 18.4044 11.0687 18.5444 10.9763C18.6848 10.8835 18.795 10.7465 18.8794 10.5677L18.8795 10.5675C19.1569 9.98174 19.7661 9.74434 20.3868 9.94542C20.3867 9.94541 20.3867 9.9454 20.3867 9.94539L17.1182 10.5587ZM17.1182 10.5587C16.8436 9.9772 16.2163 9.74241 15.6013 9.94883L17.1182 10.5587ZM17.9947 11.2474C18.4977 11.2484 18.8087 11.0104 18.9924 10.621L17.9947 11.2474Z" fill="white" stroke="white" stroke-width="0.25"/>
<path d="M9.47561 13.125H9.47561C8.33546 13.1229 7.30739 12.3758 6.94459 11.2899C6.94459 11.2899 6.94458 11.2899 6.94458 11.2899L7.06314 11.2503C6.88821 10.728 7.08574 10.2406 7.5447 10.0645L9.47561 13.125ZM9.47561 13.125C10.6377 13.1271 11.639 12.4288 12.0374 11.3379L12.0374 11.3378M9.47561 13.125L12.0374 11.3378M12.0374 11.3378C12.1448 11.043 12.1535 10.7533 12.0632 10.5062C11.9723 10.2574 11.7844 10.0615 11.519 9.95372M12.0374 11.3378L11.519 9.95372M11.519 9.95372C11.251 9.84467 10.9813 9.84924 10.7456 9.96547M11.519 9.95372L10.7456 9.96547M10.7456 9.96547C10.5117 10.0808 10.3246 10.2993 10.2043 10.5942L10.7456 9.96547ZM9.93173 10.9819C9.82136 11.0678 9.68263 11.1192 9.50399 11.1253L10.2043 10.5943C10.1339 10.7666 10.0434 10.895 9.93173 10.9819Z" fill="white" stroke="white" stroke-width="0.25"/>
</svg>
