<svg width="25" height="25" viewBox="0 0 25 25" fill="none" xmlns="http://www.w3.org/2000/svg">
<path d="M22.5 12.5C22.5 10.5222 21.9135 8.58879 20.8147 6.9443C19.7159 5.2998 18.1541 4.01808 16.3268 3.2612C14.4996 2.50433 12.4889 2.30629 10.5491 2.69215C8.60929 3.078 6.82746 4.03041 5.42894 5.42893C4.03041 6.82746 3.078 8.60928 2.69215 10.5491C2.3063 12.4889 2.50433 14.4996 3.26121 16.3268C4.01809 18.1541 5.29981 19.7159 6.9443 20.8147C8.58879 21.9135 10.5222 22.5 12.5 22.5C15.1522 22.5 17.6957 21.4464 19.5711 19.5711C21.4464 17.6957 22.5 15.1522 22.5 12.5ZM25 12.5C25 14.9723 24.2669 17.389 22.8934 19.4446C21.5199 21.5002 19.5676 23.1024 17.2835 24.0485C14.9995 24.9946 12.4861 25.2421 10.0614 24.7598C7.63661 24.2775 5.40933 23.087 3.66117 21.3388C1.91301 19.5907 0.722505 17.3634 0.24019 14.9386C-0.242126 12.5139 0.00541605 10.0005 0.951511 7.71645C1.89761 5.43238 3.49976 3.48015 5.55538 2.10663C7.61099 0.733112 10.0277 0 12.5 0C14.1415 0 15.767 0.323322 17.2835 0.951506C18.8001 1.57969 20.1781 2.50043 21.3388 3.66116C22.4996 4.8219 23.4203 6.19988 24.0485 7.71645C24.6767 9.23302 25 10.8585 25 12.5ZM16.875 7.5C17.2458 7.5 17.6084 7.60996 17.9167 7.81599C18.225 8.02202 18.4654 8.31485 18.6073 8.65747C18.7492 9.00008 18.7863 9.37708 18.714 9.74079C18.6416 10.1045 18.4631 10.4386 18.2008 10.7008C17.9386 10.963 17.6045 11.1416 17.2408 11.214C16.8771 11.2863 16.5001 11.2492 16.1575 11.1073C15.8149 10.9654 15.522 10.725 15.316 10.4167C15.11 10.1083 15 9.74584 15 9.375C15.0127 8.88171 15.2143 8.41211 15.5632 8.06318C15.9121 7.71426 16.3817 7.51265 16.875 7.5ZM10 9.375C10 9.74584 9.89004 10.1083 9.68401 10.4167C9.47798 10.725 9.18515 10.9654 8.84254 11.1073C8.49992 11.2492 8.12292 11.2863 7.75921 11.214C7.39549 11.1416 7.0614 10.963 6.79918 10.7008C6.53696 10.4386 6.35838 10.1045 6.28603 9.74079C6.21368 9.37708 6.25082 9.00008 6.39273 8.65747C6.53464 8.31485 6.77497 8.02202 7.08331 7.81599C7.39165 7.60996 7.75416 7.5 8.125 7.5C8.6183 7.51265 9.08789 7.71426 9.43682 8.06318C9.78574 8.41211 9.98735 8.88171 10 9.375ZM18.75 16.25H13.75C12.8711 16.2487 12.0073 16.4791 11.2458 16.918C10.4843 17.3569 9.85197 17.9888 9.4125 18.75L7.25 17.5C7.90867 16.3591 8.85621 15.4119 9.99728 14.7536C11.1383 14.0953 12.4327 13.7492 13.75 13.75H18.75V16.25Z" fill="white"/>
</svg>
