<svg width="25" height="27" viewBox="0 0 25 27" fill="none" xmlns="http://www.w3.org/2000/svg">
<mask id="path-1-outside-1" maskUnits="userSpaceOnUse" x="0" y="0" width="25" height="27" fill="black">
<rect fill="white" width="25" height="27"/>
<path d="M19.5761 14.6601C19.0149 14.9846 18.4748 15.2902 17.9414 15.6067C16.5879 16.4108 15.248 17.2399 13.8796 18.0185C13.2303 18.388 12.5349 18.6843 11.8463 18.9792C11.3753 19.1808 10.8643 18.9812 10.5945 18.5499C10.5484 18.476 10.5064 18.4001 10.4501 18.3034C10.1167 18.4807 9.77375 18.648 9.37726 18.5325C8.9801 18.4169 8.74017 18.1441 8.61953 17.776C8.47246 17.776 8.33691 17.7894 8.20542 17.7733C7.76149 17.7189 7.42872 17.4132 7.34942 17.002C7.26131 16.5445 7.44498 16.1179 7.83401 15.8969C8.00345 15.8008 8.18102 15.7189 8.31658 15.6497C8.26574 15.3641 8.22304 15.1055 8.17086 14.8482C8.16137 14.8025 8.12003 14.7541 8.08072 14.7239C6.97191 13.8949 5.86107 13.0685 4.75023 12.2415C4.74006 12.2341 4.72515 12.2321 4.68177 12.216C4.59366 12.4343 4.49878 12.6527 4.41745 12.875C3.60685 15.0826 3.19749 17.3568 3.3039 19.7102C3.38658 21.5375 3.75528 23.3038 4.5164 24.98C4.57469 25.1083 4.64653 25.2305 4.70753 25.3575C4.81868 25.5906 4.75497 25.8446 4.56452 25.9413C4.35916 26.0455 4.10771 25.9588 3.97962 25.7317C3.49774 24.8752 3.18326 23.9554 2.9352 23.0108C2.43637 21.1103 2.32928 19.1814 2.53464 17.2338C2.72577 15.4199 3.18732 13.6705 3.88406 11.9835C3.96606 11.7847 3.93963 11.6819 3.76342 11.5549C3.06668 11.0544 2.38554 10.5324 1.69355 10.0258C1.11407 9.60123 0.916165 9.03892 1.03138 8.34627C1.17913 7.45879 1.32282 6.57064 1.4604 5.68114C1.56139 5.02678 1.89891 4.54576 2.536 4.33749C3.15682 4.13393 3.71394 4.31935 4.17956 4.76074C4.5225 5.0859 4.85121 5.4245 5.18738 5.75639C5.23821 5.80677 5.29243 5.85313 5.39884 5.88806C5.39884 5.65628 5.39952 5.42518 5.39884 5.1934C5.39545 4.23605 5.24363 3.29415 5.09385 2.35158C5.05183 2.08621 5.00845 1.82084 4.97389 1.5548C4.96304 1.47015 4.95762 1.37475 4.98609 1.29682C5.04641 1.1302 5.15959 1.00525 5.35885 1.0086C5.53168 1.01129 5.70722 1.15103 5.74382 1.34183C5.81024 1.69118 5.85632 2.04456 5.91461 2.39525C6.11523 3.59714 6.24739 4.80374 6.19046 6.02444C6.18842 6.06475 6.19656 6.10708 6.18571 6.1447C6.06372 6.5787 6.27653 6.85616 6.58355 7.1437C7.24911 7.76648 7.92077 8.37919 8.82489 8.62373C9.29729 8.75138 9.79544 8.84006 10.2827 8.84678C11.6843 8.86559 12.9097 9.33049 13.9901 10.1871C14.3106 10.441 14.617 10.5411 15.0386 10.5062C15.9162 10.4336 16.7716 10.3046 17.591 9.97275C17.7618 9.90355 17.8072 9.83436 17.7509 9.64759C17.2962 8.14942 17.0806 6.61498 17.183 5.05299C17.2467 4.08959 17.389 3.1309 17.5002 2.17086C17.532 1.89743 17.5754 1.62534 17.6154 1.35325C17.654 1.09124 17.818 0.970983 18.0857 1.00592C18.3114 1.03548 18.4334 1.20276 18.4023 1.45873C18.325 2.08487 18.247 2.71168 18.161 3.33715C17.8919 5.30022 17.919 7.24783 18.4456 9.17261C18.4666 9.25054 18.491 9.32713 18.5154 9.40439C18.5188 9.41581 18.5324 9.42454 18.5581 9.45276C18.6327 9.41044 18.7161 9.3708 18.7899 9.31907C19.3748 8.9059 19.957 8.48869 20.5419 8.07552C20.8713 7.84307 21.0563 7.87196 21.2956 8.18839C22.1279 9.29085 22.9588 10.394 23.7911 11.4964C23.8155 11.5287 23.8392 11.5616 23.865 11.5932C24.0757 11.8512 24.0452 12.0084 23.7348 12.1925C22.6592 12.83 21.5836 13.4676 20.5033 14.0971C20.3569 14.1824 20.3135 14.257 20.3596 14.4303C20.8706 16.3537 21.0963 18.3074 20.9398 20.296C20.7981 22.0918 20.401 23.8237 19.6127 25.4563C19.5517 25.5833 19.4867 25.7102 19.4053 25.8251C19.2738 26.0119 19.0529 26.0502 18.8679 25.9346C18.6822 25.8191 18.6137 25.6021 18.7147 25.4079C19.7788 23.3602 20.1732 21.1653 20.1692 18.8845C20.1664 17.4878 19.9692 16.1139 19.6148 14.7622C19.6046 14.74 19.5951 14.7158 19.5761 14.6601ZM20.8916 8.8723C20.8144 8.92068 20.7568 8.9536 20.7019 8.99189C20.1366 9.38491 19.5815 9.79405 19.0041 10.1689C18.1244 10.7393 17.1579 11.0974 16.1094 11.2109C15.4967 11.2768 14.8793 11.2989 14.2679 11.3742C12.926 11.5401 11.7996 12.2717 10.5898 12.7837C10.4684 12.8354 10.419 12.9442 10.48 13.0678C10.5403 13.1894 10.6433 13.2156 10.7707 13.1532C10.9286 13.0759 11.0866 12.9973 11.2499 12.9342C11.5718 12.8092 11.8673 13.0343 11.8355 13.3729C11.8185 13.5495 11.704 13.6409 11.5535 13.7101C10.768 14.0722 9.9825 14.4357 9.19969 14.8038C9.11971 14.8415 9.02957 14.906 8.9984 14.9799C8.97129 15.043 9.00246 15.1955 9.04245 15.2089C9.14411 15.2439 9.28441 15.2634 9.37591 15.2197C10.2109 14.8193 11.0384 14.4028 11.8687 13.9929C12.112 13.8727 12.3221 13.9385 12.4299 14.1622C12.5275 14.3645 12.4482 14.558 12.2171 14.6708C11.7921 14.8784 11.3658 15.084 10.9395 15.2902C10.0693 15.7115 9.20037 16.134 8.32877 16.5519C8.19526 16.6164 8.14646 16.7078 8.18984 16.8435C8.2366 16.9886 8.35453 17.0121 8.48466 16.9846C8.54972 16.9711 8.61072 16.9376 8.67104 16.908C9.83881 16.341 11.0052 15.7733 12.173 15.2063C12.2821 15.1532 12.3912 15.0961 12.5071 15.0618C12.7003 15.004 12.8846 15.0954 12.9619 15.2687C13.0432 15.4508 12.9816 15.6557 12.8094 15.7605C12.7349 15.8062 12.6535 15.8418 12.5742 15.8801C11.6064 16.3484 10.6386 16.8153 9.67141 17.2835C9.62871 17.3044 9.58398 17.3218 9.54602 17.3487C9.43013 17.432 9.40437 17.5476 9.4674 17.6685C9.5284 17.7854 9.63752 17.8176 9.76223 17.7686C9.83136 17.7417 9.8971 17.7061 9.96352 17.6732C11.2052 17.0578 12.4461 16.4417 13.6878 15.8264C13.9419 15.7001 14.1663 15.739 14.2808 15.9251C14.4008 16.1206 14.3384 16.3504 14.0911 16.5029C13.8559 16.6473 13.6044 16.7669 13.357 16.8899C12.7091 17.211 12.0598 17.5294 11.4092 17.8459C11.2675 17.9144 11.2174 18.0212 11.2784 18.1576C11.3353 18.2859 11.4512 18.3289 11.5834 18.2678C12.1411 18.0078 12.7186 17.7827 13.2486 17.4757C16.4591 15.6161 19.6581 13.7377 22.8605 11.8653C22.9208 11.8297 22.9764 11.7853 23.0428 11.739C22.3156 10.7709 21.606 9.82428 20.8916 8.8723ZM13.3686 10.785C13.3753 10.7655 13.3821 10.7453 13.3889 10.7259C13.2012 10.5982 13.0195 10.4592 12.8236 10.3443C11.9975 9.85653 11.0954 9.67446 10.1404 9.67782C9.45656 9.68051 8.79778 9.53204 8.17289 9.24517C7.3562 8.86962 6.66556 8.31738 6.02305 7.70938C5.20026 6.93073 4.40186 6.12656 3.59804 5.32911C3.36286 5.09598 3.08905 5.02343 2.77999 5.12017C2.47161 5.21624 2.32047 5.44331 2.27167 5.75974C2.13341 6.65528 1.99447 7.55083 1.83385 8.44234C1.75523 8.87701 1.884 9.19344 2.23711 9.45746C4.19514 10.92 6.15318 12.3819 8.09495 13.8653C8.43993 14.1287 8.72119 14.2408 9.10819 13.9741C9.3244 13.825 9.58872 13.7444 9.83407 13.6322C9.43284 12.998 9.70868 12.3429 10.1269 12.1488C11.0147 11.737 11.9121 11.3446 12.8094 10.9536C12.987 10.8757 13.1822 10.8401 13.3686 10.785Z"/>
</mask>
<path d="M19.5761 14.6601C19.0149 14.9846 18.4748 15.2902 17.9414 15.6067C16.5879 16.4108 15.248 17.2399 13.8796 18.0185C13.2303 18.388 12.5349 18.6843 11.8463 18.9792C11.3753 19.1808 10.8643 18.9812 10.5945 18.5499C10.5484 18.476 10.5064 18.4001 10.4501 18.3034C10.1167 18.4807 9.77375 18.648 9.37726 18.5325C8.9801 18.4169 8.74017 18.1441 8.61953 17.776C8.47246 17.776 8.33691 17.7894 8.20542 17.7733C7.76149 17.7189 7.42872 17.4132 7.34942 17.002C7.26131 16.5445 7.44498 16.1179 7.83401 15.8969C8.00345 15.8008 8.18102 15.7189 8.31658 15.6497C8.26574 15.3641 8.22304 15.1055 8.17086 14.8482C8.16137 14.8025 8.12003 14.7541 8.08072 14.7239C6.97191 13.8949 5.86107 13.0685 4.75023 12.2415C4.74006 12.2341 4.72515 12.2321 4.68177 12.216C4.59366 12.4343 4.49878 12.6527 4.41745 12.875C3.60685 15.0826 3.19749 17.3568 3.3039 19.7102C3.38658 21.5375 3.75528 23.3038 4.5164 24.98C4.57469 25.1083 4.64653 25.2305 4.70753 25.3575C4.81868 25.5906 4.75497 25.8446 4.56452 25.9413C4.35916 26.0455 4.10771 25.9588 3.97962 25.7317C3.49774 24.8752 3.18326 23.9554 2.9352 23.0108C2.43637 21.1103 2.32928 19.1814 2.53464 17.2338C2.72577 15.4199 3.18732 13.6705 3.88406 11.9835C3.96606 11.7847 3.93963 11.6819 3.76342 11.5549C3.06668 11.0544 2.38554 10.5324 1.69355 10.0258C1.11407 9.60123 0.916165 9.03892 1.03138 8.34627C1.17913 7.45879 1.32282 6.57064 1.4604 5.68114C1.56139 5.02678 1.89891 4.54576 2.536 4.33749C3.15682 4.13393 3.71394 4.31935 4.17956 4.76074C4.5225 5.0859 4.85121 5.4245 5.18738 5.75639C5.23821 5.80677 5.29243 5.85313 5.39884 5.88806C5.39884 5.65628 5.39952 5.42518 5.39884 5.1934C5.39545 4.23605 5.24363 3.29415 5.09385 2.35158C5.05183 2.08621 5.00845 1.82084 4.97389 1.5548C4.96304 1.47015 4.95762 1.37475 4.98609 1.29682C5.04641 1.1302 5.15959 1.00525 5.35885 1.0086C5.53168 1.01129 5.70722 1.15103 5.74382 1.34183C5.81024 1.69118 5.85632 2.04456 5.91461 2.39525C6.11523 3.59714 6.24739 4.80374 6.19046 6.02444C6.18842 6.06475 6.19656 6.10708 6.18571 6.1447C6.06372 6.5787 6.27653 6.85616 6.58355 7.1437C7.24911 7.76648 7.92077 8.37919 8.82489 8.62373C9.29729 8.75138 9.79544 8.84006 10.2827 8.84678C11.6843 8.86559 12.9097 9.33049 13.9901 10.1871C14.3106 10.441 14.617 10.5411 15.0386 10.5062C15.9162 10.4336 16.7716 10.3046 17.591 9.97275C17.7618 9.90355 17.8072 9.83436 17.7509 9.64759C17.2962 8.14942 17.0806 6.61498 17.183 5.05299C17.2467 4.08959 17.389 3.1309 17.5002 2.17086C17.532 1.89743 17.5754 1.62534 17.6154 1.35325C17.654 1.09124 17.818 0.970983 18.0857 1.00592C18.3114 1.03548 18.4334 1.20276 18.4023 1.45873C18.325 2.08487 18.247 2.71168 18.161 3.33715C17.8919 5.30022 17.919 7.24783 18.4456 9.17261C18.4666 9.25054 18.491 9.32713 18.5154 9.40439C18.5188 9.41581 18.5324 9.42454 18.5581 9.45276C18.6327 9.41044 18.7161 9.3708 18.7899 9.31907C19.3748 8.9059 19.957 8.48869 20.5419 8.07552C20.8713 7.84307 21.0563 7.87196 21.2956 8.18839C22.1279 9.29085 22.9588 10.394 23.7911 11.4964C23.8155 11.5287 23.8392 11.5616 23.865 11.5932C24.0757 11.8512 24.0452 12.0084 23.7348 12.1925C22.6592 12.83 21.5836 13.4676 20.5033 14.0971C20.3569 14.1824 20.3135 14.257 20.3596 14.4303C20.8706 16.3537 21.0963 18.3074 20.9398 20.296C20.7981 22.0918 20.401 23.8237 19.6127 25.4563C19.5517 25.5833 19.4867 25.7102 19.4053 25.8251C19.2738 26.0119 19.0529 26.0502 18.8679 25.9346C18.6822 25.8191 18.6137 25.6021 18.7147 25.4079C19.7788 23.3602 20.1732 21.1653 20.1692 18.8845C20.1664 17.4878 19.9692 16.1139 19.6148 14.7622C19.6046 14.74 19.5951 14.7158 19.5761 14.6601ZM20.8916 8.8723C20.8144 8.92068 20.7568 8.9536 20.7019 8.99189C20.1366 9.38491 19.5815 9.79405 19.0041 10.1689C18.1244 10.7393 17.1579 11.0974 16.1094 11.2109C15.4967 11.2768 14.8793 11.2989 14.2679 11.3742C12.926 11.5401 11.7996 12.2717 10.5898 12.7837C10.4684 12.8354 10.419 12.9442 10.48 13.0678C10.5403 13.1894 10.6433 13.2156 10.7707 13.1532C10.9286 13.0759 11.0866 12.9973 11.2499 12.9342C11.5718 12.8092 11.8673 13.0343 11.8355 13.3729C11.8185 13.5495 11.704 13.6409 11.5535 13.7101C10.768 14.0722 9.9825 14.4357 9.19969 14.8038C9.11971 14.8415 9.02957 14.906 8.9984 14.9799C8.97129 15.043 9.00246 15.1955 9.04245 15.2089C9.14411 15.2439 9.28441 15.2634 9.37591 15.2197C10.2109 14.8193 11.0384 14.4028 11.8687 13.9929C12.112 13.8727 12.3221 13.9385 12.4299 14.1622C12.5275 14.3645 12.4482 14.558 12.2171 14.6708C11.7921 14.8784 11.3658 15.084 10.9395 15.2902C10.0693 15.7115 9.20037 16.134 8.32877 16.5519C8.19526 16.6164 8.14646 16.7078 8.18984 16.8435C8.2366 16.9886 8.35453 17.0121 8.48466 16.9846C8.54972 16.9711 8.61072 16.9376 8.67104 16.908C9.83881 16.341 11.0052 15.7733 12.173 15.2063C12.2821 15.1532 12.3912 15.0961 12.5071 15.0618C12.7003 15.004 12.8846 15.0954 12.9619 15.2687C13.0432 15.4508 12.9816 15.6557 12.8094 15.7605C12.7349 15.8062 12.6535 15.8418 12.5742 15.8801C11.6064 16.3484 10.6386 16.8153 9.67141 17.2835C9.62871 17.3044 9.58398 17.3218 9.54602 17.3487C9.43013 17.432 9.40437 17.5476 9.4674 17.6685C9.5284 17.7854 9.63752 17.8176 9.76223 17.7686C9.83136 17.7417 9.8971 17.7061 9.96352 17.6732C11.2052 17.0578 12.4461 16.4417 13.6878 15.8264C13.9419 15.7001 14.1663 15.739 14.2808 15.9251C14.4008 16.1206 14.3384 16.3504 14.0911 16.5029C13.8559 16.6473 13.6044 16.7669 13.357 16.8899C12.7091 17.211 12.0598 17.5294 11.4092 17.8459C11.2675 17.9144 11.2174 18.0212 11.2784 18.1576C11.3353 18.2859 11.4512 18.3289 11.5834 18.2678C12.1411 18.0078 12.7186 17.7827 13.2486 17.4757C16.4591 15.6161 19.6581 13.7377 22.8605 11.8653C22.9208 11.8297 22.9764 11.7853 23.0428 11.739C22.3156 10.7709 21.606 9.82428 20.8916 8.8723ZM13.3686 10.785C13.3753 10.7655 13.3821 10.7453 13.3889 10.7259C13.2012 10.5982 13.0195 10.4592 12.8236 10.3443C11.9975 9.85653 11.0954 9.67446 10.1404 9.67782C9.45656 9.68051 8.79778 9.53204 8.17289 9.24517C7.3562 8.86962 6.66556 8.31738 6.02305 7.70938C5.20026 6.93073 4.40186 6.12656 3.59804 5.32911C3.36286 5.09598 3.08905 5.02343 2.77999 5.12017C2.47161 5.21624 2.32047 5.44331 2.27167 5.75974C2.13341 6.65528 1.99447 7.55083 1.83385 8.44234C1.75523 8.87701 1.884 9.19344 2.23711 9.45746C4.19514 10.92 6.15318 12.3819 8.09495 13.8653C8.43993 14.1287 8.72119 14.2408 9.10819 13.9741C9.3244 13.825 9.58872 13.7444 9.83407 13.6322C9.43284 12.998 9.70868 12.3429 10.1269 12.1488C11.0147 11.737 11.9121 11.3446 12.8094 10.9536C12.987 10.8757 13.1822 10.8401 13.3686 10.785Z" fill="white"/>
<path d="M19.5761 14.6601C19.0149 14.9846 18.4748 15.2902 17.9414 15.6067C16.5879 16.4108 15.248 17.2399 13.8796 18.0185C13.2303 18.388 12.5349 18.6843 11.8463 18.9792C11.3753 19.1808 10.8643 18.9812 10.5945 18.5499C10.5484 18.476 10.5064 18.4001 10.4501 18.3034C10.1167 18.4807 9.77375 18.648 9.37726 18.5325C8.9801 18.4169 8.74017 18.1441 8.61953 17.776C8.47246 17.776 8.33691 17.7894 8.20542 17.7733C7.76149 17.7189 7.42872 17.4132 7.34942 17.002C7.26131 16.5445 7.44498 16.1179 7.83401 15.8969C8.00345 15.8008 8.18102 15.7189 8.31658 15.6497C8.26574 15.3641 8.22304 15.1055 8.17086 14.8482C8.16137 14.8025 8.12003 14.7541 8.08072 14.7239C6.97191 13.8949 5.86107 13.0685 4.75023 12.2415C4.74006 12.2341 4.72515 12.2321 4.68177 12.216C4.59366 12.4343 4.49878 12.6527 4.41745 12.875C3.60685 15.0826 3.19749 17.3568 3.3039 19.7102C3.38658 21.5375 3.75528 23.3038 4.5164 24.98C4.57469 25.1083 4.64653 25.2305 4.70753 25.3575C4.81868 25.5906 4.75497 25.8446 4.56452 25.9413C4.35916 26.0455 4.10771 25.9588 3.97962 25.7317C3.49774 24.8752 3.18326 23.9554 2.9352 23.0108C2.43637 21.1103 2.32928 19.1814 2.53464 17.2338C2.72577 15.4199 3.18732 13.6705 3.88406 11.9835C3.96606 11.7847 3.93963 11.6819 3.76342 11.5549C3.06668 11.0544 2.38554 10.5324 1.69355 10.0258C1.11407 9.60123 0.916165 9.03892 1.03138 8.34627C1.17913 7.45879 1.32282 6.57064 1.4604 5.68114C1.56139 5.02678 1.89891 4.54576 2.536 4.33749C3.15682 4.13393 3.71394 4.31935 4.17956 4.76074C4.5225 5.0859 4.85121 5.4245 5.18738 5.75639C5.23821 5.80677 5.29243 5.85313 5.39884 5.88806C5.39884 5.65628 5.39952 5.42518 5.39884 5.1934C5.39545 4.23605 5.24363 3.29415 5.09385 2.35158C5.05183 2.08621 5.00845 1.82084 4.97389 1.5548C4.96304 1.47015 4.95762 1.37475 4.98609 1.29682C5.04641 1.1302 5.15959 1.00525 5.35885 1.0086C5.53168 1.01129 5.70722 1.15103 5.74382 1.34183C5.81024 1.69118 5.85632 2.04456 5.91461 2.39525C6.11523 3.59714 6.24739 4.80374 6.19046 6.02444C6.18842 6.06475 6.19656 6.10708 6.18571 6.1447C6.06372 6.5787 6.27653 6.85616 6.58355 7.1437C7.24911 7.76648 7.92077 8.37919 8.82489 8.62373C9.29729 8.75138 9.79544 8.84006 10.2827 8.84678C11.6843 8.86559 12.9097 9.33049 13.9901 10.1871C14.3106 10.441 14.617 10.5411 15.0386 10.5062C15.9162 10.4336 16.7716 10.3046 17.591 9.97275C17.7618 9.90355 17.8072 9.83436 17.7509 9.64759C17.2962 8.14942 17.0806 6.61498 17.183 5.05299C17.2467 4.08959 17.389 3.1309 17.5002 2.17086C17.532 1.89743 17.5754 1.62534 17.6154 1.35325C17.654 1.09124 17.818 0.970983 18.0857 1.00592C18.3114 1.03548 18.4334 1.20276 18.4023 1.45873C18.325 2.08487 18.247 2.71168 18.161 3.33715C17.8919 5.30022 17.919 7.24783 18.4456 9.17261C18.4666 9.25054 18.491 9.32713 18.5154 9.40439C18.5188 9.41581 18.5324 9.42454 18.5581 9.45276C18.6327 9.41044 18.7161 9.3708 18.7899 9.31907C19.3748 8.9059 19.957 8.48869 20.5419 8.07552C20.8713 7.84307 21.0563 7.87196 21.2956 8.18839C22.1279 9.29085 22.9588 10.394 23.7911 11.4964C23.8155 11.5287 23.8392 11.5616 23.865 11.5932C24.0757 11.8512 24.0452 12.0084 23.7348 12.1925C22.6592 12.83 21.5836 13.4676 20.5033 14.0971C20.3569 14.1824 20.3135 14.257 20.3596 14.4303C20.8706 16.3537 21.0963 18.3074 20.9398 20.296C20.7981 22.0918 20.401 23.8237 19.6127 25.4563C19.5517 25.5833 19.4867 25.7102 19.4053 25.8251C19.2738 26.0119 19.0529 26.0502 18.8679 25.9346C18.6822 25.8191 18.6137 25.6021 18.7147 25.4079C19.7788 23.3602 20.1732 21.1653 20.1692 18.8845C20.1664 17.4878 19.9692 16.1139 19.6148 14.7622C19.6046 14.74 19.5951 14.7158 19.5761 14.6601ZM20.8916 8.8723C20.8144 8.92068 20.7568 8.9536 20.7019 8.99189C20.1366 9.38491 19.5815 9.79405 19.0041 10.1689C18.1244 10.7393 17.1579 11.0974 16.1094 11.2109C15.4967 11.2768 14.8793 11.2989 14.2679 11.3742C12.926 11.5401 11.7996 12.2717 10.5898 12.7837C10.4684 12.8354 10.419 12.9442 10.48 13.0678C10.5403 13.1894 10.6433 13.2156 10.7707 13.1532C10.9286 13.0759 11.0866 12.9973 11.2499 12.9342C11.5718 12.8092 11.8673 13.0343 11.8355 13.3729C11.8185 13.5495 11.704 13.6409 11.5535 13.7101C10.768 14.0722 9.9825 14.4357 9.19969 14.8038C9.11971 14.8415 9.02957 14.906 8.9984 14.9799C8.97129 15.043 9.00246 15.1955 9.04245 15.2089C9.14411 15.2439 9.28441 15.2634 9.37591 15.2197C10.2109 14.8193 11.0384 14.4028 11.8687 13.9929C12.112 13.8727 12.3221 13.9385 12.4299 14.1622C12.5275 14.3645 12.4482 14.558 12.2171 14.6708C11.7921 14.8784 11.3658 15.084 10.9395 15.2902C10.0693 15.7115 9.20037 16.134 8.32877 16.5519C8.19526 16.6164 8.14646 16.7078 8.18984 16.8435C8.2366 16.9886 8.35453 17.0121 8.48466 16.9846C8.54972 16.9711 8.61072 16.9376 8.67104 16.908C9.83881 16.341 11.0052 15.7733 12.173 15.2063C12.2821 15.1532 12.3912 15.0961 12.5071 15.0618C12.7003 15.004 12.8846 15.0954 12.9619 15.2687C13.0432 15.4508 12.9816 15.6557 12.8094 15.7605C12.7349 15.8062 12.6535 15.8418 12.5742 15.8801C11.6064 16.3484 10.6386 16.8153 9.67141 17.2835C9.62871 17.3044 9.58398 17.3218 9.54602 17.3487C9.43013 17.432 9.40437 17.5476 9.4674 17.6685C9.5284 17.7854 9.63752 17.8176 9.76223 17.7686C9.83136 17.7417 9.8971 17.7061 9.96352 17.6732C11.2052 17.0578 12.4461 16.4417 13.6878 15.8264C13.9419 15.7001 14.1663 15.739 14.2808 15.9251C14.4008 16.1206 14.3384 16.3504 14.0911 16.5029C13.8559 16.6473 13.6044 16.7669 13.357 16.8899C12.7091 17.211 12.0598 17.5294 11.4092 17.8459C11.2675 17.9144 11.2174 18.0212 11.2784 18.1576C11.3353 18.2859 11.4512 18.3289 11.5834 18.2678C12.1411 18.0078 12.7186 17.7827 13.2486 17.4757C16.4591 15.6161 19.6581 13.7377 22.8605 11.8653C22.9208 11.8297 22.9764 11.7853 23.0428 11.739C22.3156 10.7709 21.606 9.82428 20.8916 8.8723ZM13.3686 10.785C13.3753 10.7655 13.3821 10.7453 13.3889 10.7259C13.2012 10.5982 13.0195 10.4592 12.8236 10.3443C11.9975 9.85653 11.0954 9.67446 10.1404 9.67782C9.45656 9.68051 8.79778 9.53204 8.17289 9.24517C7.3562 8.86962 6.66556 8.31738 6.02305 7.70938C5.20026 6.93073 4.40186 6.12656 3.59804 5.32911C3.36286 5.09598 3.08905 5.02343 2.77999 5.12017C2.47161 5.21624 2.32047 5.44331 2.27167 5.75974C2.13341 6.65528 1.99447 7.55083 1.83385 8.44234C1.75523 8.87701 1.884 9.19344 2.23711 9.45746C4.19514 10.92 6.15318 12.3819 8.09495 13.8653C8.43993 14.1287 8.72119 14.2408 9.10819 13.9741C9.3244 13.825 9.58872 13.7444 9.83407 13.6322C9.43284 12.998 9.70868 12.3429 10.1269 12.1488C11.0147 11.737 11.9121 11.3446 12.8094 10.9536C12.987 10.8757 13.1822 10.8401 13.3686 10.785Z" stroke="white" stroke-width="0.4" mask="url(#path-1-outside-1)"/>
<path d="M13.0404 21.433C12.9568 21.5124 12.8728 21.5917 12.7889 21.6709C12.5368 21.9088 12.2846 22.1468 12.0412 22.3925C11.9673 22.4668 11.9128 22.591 11.912 22.6927C11.9055 23.3105 11.9056 23.9285 11.9058 24.5465C11.9058 24.8836 11.9059 25.2206 11.9049 25.5576M13.0404 21.433L13.1093 21.5055M13.0404 21.433C13.2023 21.2793 13.3643 21.1256 13.5263 20.9719C13.9583 20.562 14.3906 20.152 14.8213 19.7405L8.77956 19.0696M13.0404 21.433L13.1093 21.5054C13.1093 21.5054 13.1093 21.5055 13.1093 21.5055M13.1093 21.5055C13.0251 21.5855 12.9407 21.6651 12.8565 21.7446C12.6048 21.9821 12.3543 22.2185 12.1123 22.4628L12.1122 22.463C12.0553 22.5202 12.0126 22.6199 12.012 22.6934L12.012 22.6938C12.0055 23.3111 12.0056 23.9281 12.0058 24.5457C12.0058 24.8828 12.0059 25.2202 12.0049 25.5578L11.9049 25.5576M13.1093 21.5055C13.271 21.3519 13.4329 21.1983 13.5949 21.0447C14.027 20.6347 14.4595 20.2245 14.8904 19.8128L14.8904 19.8128C15.0116 19.6968 15.088 19.5671 15.0987 19.4301C15.1097 19.2898 15.0504 19.1619 14.9407 19.0569M11.9049 25.5576L12.0049 25.5579M11.9049 25.5576C11.9041 25.8769 11.7111 26.04 11.4074 25.9916C11.1813 25.9554 11.0715 25.8237 11.0708 25.5651L12.0049 25.5579M12.0049 25.5579C12.0044 25.7368 11.9497 25.8891 11.8351 25.9882C11.7203 26.0874 11.5634 26.1178 11.3917 26.0903L11.3916 26.0903C11.2625 26.0697 11.1524 26.0192 11.0765 25.9242C11.0015 25.8305 10.9712 25.7076 10.9708 25.5654L12.0049 25.5579ZM10.9738 22.7157C10.9655 22.8832 10.9671 23.0527 10.9688 23.2187C10.9694 23.2851 10.9701 23.3511 10.9701 23.4161C10.9701 23.6309 10.9699 23.8457 10.9697 24.0605C10.9692 24.5619 10.9688 25.0636 10.9708 25.5654L8.77956 19.0696M10.9738 22.7157L11.0736 22.7207L10.9738 22.7159C10.9738 22.7158 10.9738 22.7158 10.9738 22.7157ZM10.9738 22.7157C10.9767 22.6545 10.9678 22.6069 10.9494 22.5652C10.9307 22.5228 10.8998 22.4808 10.8507 22.4345C9.93331 21.5705 9.01769 20.7041 8.11344 19.8266L8.11343 19.8266C8.05269 19.7677 7.99689 19.6891 7.9578 19.6069C7.91947 19.5262 7.89205 19.4308 7.90208 19.3405M7.90208 19.3405C7.91214 19.2494 7.96977 19.1665 8.0283 19.1044C8.08936 19.0396 8.16533 18.9828 8.23632 18.9447L8.23633 18.9447C8.44202 18.8345 8.64896 18.9454 8.77956 19.0696M7.90208 19.3405C7.90208 19.3406 7.90208 19.3406 7.90208 19.3406L8.00148 19.3515L7.90209 19.3405C7.90209 19.3405 7.90208 19.3405 7.90208 19.3405ZM8.77956 19.0696C8.90127 19.1851 9.02303 19.3006 9.14482 19.4161C9.51059 19.7631 9.8765 20.1102 10.2412 20.4585L10.2413 20.4586C10.544 20.7488 10.8465 21.0401 11.1616 21.3437C11.2703 21.4483 11.3804 21.5544 11.4926 21.6625C11.6101 21.5487 11.7257 21.4364 11.8401 21.3254C12.1258 21.048 12.4039 20.778 12.6841 20.5097C13.1796 20.0353 13.6772 19.5622 14.1771 19.0917L14.1771 19.0917C14.2943 18.9814 14.4279 18.9169 14.5649 18.9098C14.7034 18.9026 14.8341 18.9547 14.9407 19.0569M14.9407 19.0569C14.9407 19.0569 14.9407 19.0569 14.9407 19.0569L14.8715 19.1291L14.9407 19.0569Z" fill="white" stroke="white" stroke-width="0.2"/>
<path d="M12.0011 7.1C12.618 7.10063 13.0981 6.62046 13.1 6.0026C13.1019 5.38292 12.6282 4.9038 12.0086 4.90002C11.3879 4.89625 10.9076 5.36558 10.9001 5.98505L10.9001 5.98506C10.8926 6.60998 11.3765 7.09995 12.0011 7.1ZM12.0011 7.1L12.0012 7V7.1C12.0011 7.1 12.0011 7.1 12.0011 7.1ZM11.9995 5.6684C11.8115 5.66954 11.6794 5.8007 11.6766 5.99085L12.0011 6.2259C11.9258 6.22633 11.8711 6.20136 11.8355 6.16473C11.7998 6.12794 11.7752 6.07096 11.7766 5.99254L11.7766 5.99234C11.7776 5.92064 11.8026 5.86606 11.8392 5.82957C11.8758 5.7931 11.9299 5.76883 12.0001 5.7684L11.9995 5.6684ZM11.9995 5.6684L12.0001 5.7684M11.9995 5.6684L12.0001 5.7684M12.0001 5.7684C12.0726 5.76797 12.1269 5.79293 12.1631 5.8305C12.1995 5.86834 12.2243 5.92627 12.2235 6.00388C12.2224 6.07732 12.1978 6.13104 12.1625 6.16623C12.1272 6.20139 12.0738 6.22546 12.0012 6.2259L12.0001 5.7684Z" fill="white" stroke="white" stroke-width="0.2"/>
</svg>
