<svg width="27" height="27" viewBox="0 0 27 27" fill="none" xmlns="http://www.w3.org/2000/svg">
<mask id="mask0" mask-type="alpha" maskUnits="userSpaceOnUse" x="0" y="0" width="27" height="27">
<path d="M13.2739 26.4058C20.594 26.4058 26.5282 20.4946 26.5282 13.2029C26.5282 5.91113 20.594 0 13.2739 0C5.95369 0 0.0195312 5.91113 0.0195312 13.2029C0.0195312 20.4946 5.95369 26.4058 13.2739 26.4058Z" fill="#C4C4C4"/>
</mask>
<g mask="url(#mask0)">
<path d="M13.2733 26.2894C5.7465 26.2894 0.083347 28.889 -0.351594 22.2243C-0.659719 17.5099 1.98163 20.741 5.92087 19.5103C8.69102 18.6448 11.0233 22.4286 12.9909 20.7736C19.6309 15.1877 19.9361 20.5762 21.764 19.084C24.2706 17.0391 27.1349 18.1316 26.906 22.2243C26.6702 26.4444 20.8 26.2894 13.2733 26.2894Z" fill="white"/>
</g>
</svg>
