<svg width="22" height="27" viewBox="0 0 22 27" fill="none" xmlns="http://www.w3.org/2000/svg">
<mask id="path-1-outside-1" maskUnits="userSpaceOnUse" x="0" y="5.36865" width="21" height="21" fill="black">
<rect fill="white" y="5.36865" width="21" height="21"/>
<path d="M1.04421 11.4089C1.0341 10.9944 1.02977 10.5799 1.02328 10.1654C1.01534 9.66785 1.36827 9.29018 1.867 9.28513C2.27335 9.28079 2.6833 9.26346 3.08459 9.31184C3.60425 9.37467 3.86408 9.72634 3.86192 10.2455C3.86048 10.6189 3.80274 12.3844 3.84532 12.4299C3.83016 12.4913 3.88069 13.1708 3.89801 13.464C3.911 13.6821 3.89223 13.9023 3.88646 14.1211C3.87852 14.4287 3.86769 14.7364 3.86047 15.044C3.85542 15.2541 3.90089 15.4801 3.8381 15.6708C3.77892 15.8499 3.81645 16.0145 3.79985 16.1842C3.7717 16.4701 3.58044 16.6247 3.35886 16.746C3.25493 16.803 3.22461 16.8623 3.23183 16.9727C3.24843 17.2378 3.25709 17.5042 3.26359 17.7699C3.26864 17.9606 3.26431 18.1519 3.26359 18.3426C3.26359 18.6545 3.59704 19.043 4.07123 18.9687C4.14268 18.9578 4.21558 18.9571 4.27187 18.9528C4.2098 18.5267 4.13763 18.1043 4.08999 17.6804C4.0669 17.4768 4.0106 17.2479 4.243 17.1006C4.26538 17.0861 4.2661 17.0255 4.26466 16.9865C4.25672 16.7121 4.23651 16.4384 4.23723 16.164C4.23723 15.8838 4.26032 15.6036 4.26466 15.3227C4.26971 14.9862 4.26393 14.6497 4.26682 14.3132C4.26899 14.0698 4.23362 13.3477 4.23506 13.2308C4.23867 12.7881 4.25888 12.3454 4.26321 11.9028C4.27043 11.1438 4.26826 10.3842 4.27404 9.62524C4.27765 9.21364 4.27981 8.80203 4.30291 8.39115C4.31085 8.25178 4.36065 8.10303 4.42994 7.98027C4.70853 7.48346 5.11416 7.15923 5.70022 7.09351C6.02861 7.05669 6.204 7.23288 6.18379 7.56505C6.16502 7.8734 6.17801 8.18318 6.17224 8.49225C6.16574 8.80853 6.14698 9.12482 6.1477 9.44183C6.1477 9.57614 6.17946 11.7475 6.17801 12.6285C6.17729 13.2936 6.20183 13.9594 6.20472 14.6244C6.20616 14.9884 6.18595 15.3523 6.17657 15.7163C6.16647 16.0795 6.15564 16.4427 6.14987 16.8059C6.14842 16.8825 6.16719 16.959 6.17801 17.0486C6.30143 17.0486 6.41763 17.0356 6.52878 17.0507C6.94812 17.1085 7.36746 17.0673 7.81567 17.0753C7.72689 16.9532 7.66626 16.829 7.57099 16.7453C7.19207 16.4138 7.06505 15.9603 6.96111 15.5011C6.78501 14.719 7.01452 14.0309 7.48438 13.4041C7.66771 13.1593 7.87557 12.9231 8.00476 12.6509C8.28625 12.0588 8.71136 11.5605 9.03759 10.9994C9.22741 10.673 9.5226 10.4008 9.6785 10.0621C9.92317 9.53209 10.2581 9.06199 10.5648 8.57457C10.8817 8.07125 11.2368 7.58816 11.6135 7.12745C12.0393 6.60681 12.6117 6.33819 13.293 6.3714C13.7752 6.39523 14.2248 6.55337 14.6109 6.84511C14.8361 7.01553 15.0519 7.20833 15.2374 7.42063C15.485 7.70298 15.5297 8.07198 15.594 8.42942C15.7268 9.1602 15.4345 9.76244 15.0462 10.3466C14.7538 10.7857 14.4846 11.2406 14.2248 11.6999C14.1548 11.8234 14.1461 11.9858 14.1259 12.1331C14.0473 12.7022 13.9758 13.2719 13.9015 13.8417C13.8964 13.8821 13.8841 13.9218 13.8719 13.9752C14.1497 13.9752 14.4197 13.9709 14.6889 13.9767C14.9473 13.9825 15.2057 14.0077 15.464 14.0085C15.721 14.0099 15.9779 13.9875 16.2349 13.9825C17.005 13.9651 17.6661 14.1919 18.1259 14.8497C18.3532 15.1747 18.4723 15.5415 18.4701 15.938C18.4651 17.0442 18.4492 18.1498 18.442 19.2561C18.4369 20.0482 18.4405 20.8397 18.4405 21.6318C18.4405 21.678 18.4405 21.7242 18.4405 21.7907C18.7639 21.7112 19.0367 21.8246 19.3088 21.9568C19.8609 22.2261 20.1843 22.998 19.7267 23.5743C20.0219 24.0704 20.0031 24.6091 19.9194 25.1543C19.8978 25.2973 19.8739 25.4402 19.848 25.5825C19.8133 25.776 19.7339 25.8381 19.5412 25.8381C17.7527 25.8374 15.9642 25.8374 14.1757 25.8388C13.9664 25.8388 13.8834 25.7912 13.8531 25.5875C13.7975 25.2193 13.747 24.8488 13.7196 24.4777C13.6922 24.1094 13.6857 23.7382 13.6885 23.3692C13.69 23.1468 13.7131 22.9222 13.7492 22.7027C13.8379 22.1597 14.4002 21.7791 14.9372 21.8867C14.9819 21.8961 15.0281 21.899 15.0851 21.9062C15.0851 21.1718 15.0851 20.4483 15.0851 19.6929C14.3619 21.2289 13.2122 22.2593 11.6409 22.8038C11.7889 23.1186 11.9361 23.4241 12.0769 23.7332C12.3432 24.3173 12.4594 24.942 12.5561 25.5702C12.5821 25.737 12.4717 25.8453 12.2833 25.8461C11.8871 25.8475 11.4908 25.8468 11.0946 25.8453C10.4298 25.8432 9.76511 25.8352 9.10038 25.8381C8.85643 25.8396 8.61248 25.8742 8.3678 25.8786C8.20974 25.8814 8.05023 25.8432 7.89217 25.8482C7.46417 25.8627 7.43169 25.8518 7.49304 25.4265C7.61935 24.5513 7.88062 23.718 8.33244 22.9504C8.34254 22.9323 8.3512 22.9136 8.37719 22.863C7.48438 22.7027 6.14987 21.7257 6.19606 21.7502C5.88498 21.4166 5.07662 20.6187 4.99002 20.4605C4.94888 20.3847 4.9034 20.3659 4.82257 20.3645C4.43788 20.3594 4.05246 20.3508 3.66777 20.3334C3.54579 20.3284 3.20585 20.1746 3.14233 20.1341C2.89838 19.9789 2.65876 19.8171 2.41914 19.6554C2.15859 19.4785 1.97887 19.2344 1.89659 18.9347C1.8403 18.7289 1.89659 17.354 1.90742 17.2471C1.92185 17.1042 1.91103 16.959 1.91103 16.8579C1.69884 16.7807 1.50901 16.746 1.35889 16.65C1.10122 16.4846 0.988632 16.2232 1.0009 15.9141C1.01317 15.6137 1.03122 15.3126 1.04132 15.0122C1.04493 14.9032 1.03771 14.7934 1.02977 14.6844C1.02111 14.5602 1.04565 14.1551 1.04493 14.072C1.04204 13.7305 1.04565 13.3882 1.0406 13.0466C1.03988 13.0148 1.04709 11.5345 1.04421 11.4089ZM11.869 9.29596C11.8676 9.26058 11.939 8.7782 12.0653 8.73415C12.1346 8.7096 12.2321 8.71249 12.2985 8.74282C12.4399 8.80709 12.476 9.01145 12.411 9.18042C12.3677 9.29379 12.2234 10.317 12.2162 10.3683C12.1981 10.4939 12.201 10.6232 12.1866 10.7496C12.1187 11.3561 11.9174 12.7823 11.9037 12.9715C11.8871 13.2127 11.8625 13.4553 11.8178 13.6929C11.8019 13.7767 11.7672 13.8503 11.7694 13.9464C11.7752 14.1681 11.7514 14.3912 11.7268 14.6122C11.7073 14.792 11.6604 14.9689 11.6424 15.1487C11.6178 15.3956 11.6056 15.6448 11.5947 15.8932C11.5854 16.1141 11.5211 16.3315 11.6467 16.5539C11.742 16.7229 11.8416 16.8095 12.0365 16.8673C12.2804 16.9388 12.4753 16.9395 12.6665 16.7756C12.8087 16.6536 12.9119 16.5077 12.9249 16.3142C12.9379 16.125 12.9314 15.9336 12.9538 15.7459C12.9747 15.5668 13.0303 15.392 13.0541 15.2129C13.0779 15.0303 13.0707 14.844 13.0938 14.662C13.1335 14.3515 13.1891 14.0424 13.2346 13.7319C13.3132 13.1954 13.5269 11.8732 13.5456 11.7316C13.5759 11.5027 13.6221 11.2753 13.6525 11.0464C13.7073 10.6261 13.7398 10.2022 13.8105 9.78483C13.8596 9.49526 13.8639 9.18981 14.0602 8.93201C14.0971 8.88363 14.123 8.82947 14.1757 8.8302C14.3973 8.83164 14.538 8.93418 14.5236 9.15154C14.5128 9.31329 14.4522 9.47215 14.4161 9.63318C14.3987 9.71334 14.3547 10.156 14.3403 10.2954C14.336 10.3394 14.3172 10.3827 14.2955 10.4578C14.4096 10.2853 14.4998 10.1437 14.5943 10.0058C14.8202 9.67651 14.9769 9.3234 15.0202 8.91974C15.0656 8.49152 14.9263 8.10664 14.7243 7.75353C14.5402 7.43146 14.245 7.22205 13.8834 7.08702C13.2317 6.84294 12.6572 6.98159 12.0993 7.34409C11.9268 7.45602 11.7838 7.58166 11.6741 7.75641C10.7871 9.17392 9.89575 10.5893 9.00583 12.0053C8.8521 12.2501 8.69909 12.4949 8.53381 12.7585C9.47785 13.0806 10.3981 13.3954 11.3212 13.711C11.3732 13.534 11.6128 11.2688 11.6373 11.281C11.6547 11.1316 11.8719 9.36817 11.869 9.29596ZM5.0427 19.1687C5.07735 19.2445 5.1156 19.316 5.1423 19.3911C5.17623 19.4864 5.19355 19.5882 5.23252 19.6814C5.29964 19.8424 5.37759 19.9991 5.45193 20.1573C5.46493 20.1847 6.15925 21.0556 6.21194 21.1047C6.3267 21.2123 6.45084 21.3112 6.58003 21.4015C6.77057 21.5343 6.96472 21.6614 7.16393 21.7798C7.38334 21.9105 7.60347 22.0449 7.83587 22.1481C8.05384 22.2449 8.28625 22.3113 8.51648 22.3763C9.07368 22.533 9.63375 22.6868 10.2205 22.6514C10.458 22.637 10.6954 22.603 10.9293 22.559C11.6474 22.4225 12.2999 22.1272 12.8997 21.7127C12.9322 21.6903 13.236 21.4599 13.345 21.3574C13.5565 21.1588 13.7528 20.9436 13.9477 20.7277C14.0552 20.6086 14.1548 20.48 14.245 20.3472C14.3186 20.2389 14.3749 20.1183 14.4348 20.0013C14.5323 19.8106 14.8628 19.0864 14.8809 19.0214C14.8174 19.0466 11.8004 19.1131 11.5615 19.1167C11.4915 19.1174 9.77089 19.1326 9.70521 19.1347C9.49518 19.1427 9.28443 19.1514 9.0744 19.1542C8.94304 19.1564 8.81168 19.1456 8.68104 19.1499C8.63413 19.1514 8.32305 19.1492 8.21407 19.1492C8.0127 19.1485 7.81206 19.1716 7.61069 19.173C7.46056 19.1745 7.30972 19.1485 7.1596 19.1506C6.93513 19.1528 5.13436 19.1506 5.0427 19.1687ZM13.2252 17.1085C13.306 17.0977 13.3825 17.0789 13.4583 17.0789C13.9902 17.0767 14.5222 17.0767 15.0541 17.0811C15.1782 17.0818 15.3082 17.0825 15.4236 17.1186C15.5009 17.1424 15.5976 17.2197 15.6156 17.2905C15.6488 17.4219 15.6467 17.5678 15.6293 17.7042C15.6005 17.9324 15.5189 18.157 15.5117 18.3852C15.4936 18.9477 15.5059 19.5117 15.5059 20.0749C15.5059 20.6584 15.5088 21.2419 15.503 21.8253C15.5016 21.9423 15.5723 21.9568 15.6503 21.9589C16.0768 21.9712 16.5041 21.9828 16.9306 21.9835C17.0497 21.9835 17.7347 21.9828 17.8372 21.9214C17.9461 21.8564 17.9368 21.5639 17.957 21.4339C17.9671 21.3704 17.8639 19.6835 17.8848 19.2589C17.8942 19.2171 17.8855 18.6545 17.8812 18.4148C17.8776 18.2018 17.8797 17.9888 17.8812 17.7757C17.8819 17.7317 17.8819 17.6869 17.8826 17.6429C17.8862 17.2276 17.8971 16.8196 17.8668 16.4073C17.8617 16.3351 17.8805 16.2615 17.8718 16.19C17.8458 15.982 17.822 15.7726 17.7765 15.5682C17.7506 15.452 17.695 15.3372 17.6315 15.2353C17.573 15.1422 17.4965 15.0526 17.4099 14.9862C17.2655 14.875 17.119 14.7392 16.9516 14.6945C16.7307 14.6353 16.4897 14.6519 16.2565 14.6418C16.1786 14.6381 16.1006 14.6584 16.0227 14.6576C15.8625 14.6562 15.7029 14.6432 15.5427 14.6425C15.2316 14.6403 14.9206 14.6483 14.6095 14.6432C14.3886 14.6396 14.1685 14.6143 13.9484 14.6114C13.9022 14.6107 13.8481 14.6613 13.8098 14.6995C13.7044 14.8064 13.5637 15.912 13.529 16.0672C13.5153 16.1293 13.5197 16.195 13.5168 16.26C13.5132 16.3539 13.3226 16.9114 13.2252 17.1085ZM15.8314 22.507C15.7657 22.4976 15.7015 22.4738 15.6351 22.4687C15.3146 22.4456 14.9935 22.4196 14.673 22.4124C14.5958 22.4102 14.494 22.455 14.4442 22.5135C14.2876 22.6969 14.2385 22.9121 14.2631 23.1612C14.284 23.3757 14.1873 23.5887 14.2313 23.8162C14.2609 23.9678 14.2096 24.1339 14.2161 24.2921C14.2226 24.4394 14.2631 24.586 14.2782 24.7333C14.2977 24.9189 14.3035 25.1059 14.323 25.2908C14.3258 25.3211 14.3865 25.3745 14.3894 25.3723C14.5561 25.2568 14.7264 25.3276 14.896 25.3565C14.93 25.3622 14.9668 25.3471 15.0021 25.3449C15.1328 25.3377 15.2627 25.3297 15.3933 25.3276C15.4951 25.3261 15.5968 25.3348 15.6993 25.3355C15.7448 25.3362 15.7896 25.3247 15.835 25.3254C16.0155 25.3276 16.1966 25.3391 16.3771 25.3334C16.6672 25.324 16.9573 25.2922 17.2475 25.29C17.4445 25.2886 17.6416 25.3326 17.8386 25.3377C18.2053 25.3478 18.5719 25.3413 18.9393 25.3478C19.0309 25.3492 19.1226 25.3752 19.2143 25.3904C19.2937 25.4034 19.3723 25.4157 19.4856 25.4337C19.5123 25.0936 19.5564 24.7795 19.5556 24.4654C19.5549 24.2783 19.4907 24.0899 19.438 23.9072C19.4265 23.8675 19.3362 23.8191 19.2893 23.8263C18.9046 23.8805 18.5243 23.9808 18.1389 24.0018C17.6105 24.0299 17.0793 24.0061 16.5488 23.9938C16.4081 23.9909 16.3237 23.8639 16.3446 23.7332C16.3735 23.5519 16.4391 23.5042 16.6167 23.5375C16.6824 23.5497 18.9624 23.4356 19.0136 23.4147C19.08 23.3873 19.5109 22.9504 19.5455 22.9345C19.477 22.8226 19.4257 22.715 19.3521 22.6254C19.2121 22.4543 19.0533 22.3019 18.8086 22.3084C18.7271 22.3091 16.1129 22.5482 15.8314 22.507ZM11.2894 17.1814C11.2959 17.1728 11.3024 17.1634 11.3082 17.1547C11.2425 17.0839 10.9531 16.455 10.9596 16.2015C10.9906 16.1799 10.9784 16.039 10.9813 15.9986C10.9971 15.7798 11.0823 15.2548 11.0729 15.1906C11.0657 15.1371 11.0708 15.0808 11.078 15.0266C11.0888 14.9407 11.1061 14.8555 11.1184 14.7696C11.1292 14.6938 11.1292 14.615 11.1494 14.5414C11.1935 14.3832 11.1473 14.2229 11.0101 14.1767C10.9062 14.1413 10.8095 14.0966 10.7099 14.0547C10.5013 13.9666 10.2747 13.9218 10.056 13.8575C9.851 13.7969 9.64602 13.7377 9.44321 13.6705C9.31907 13.6294 9.19926 13.5766 9.07873 13.5268C8.95314 13.4748 8.83045 13.4171 8.70414 13.368C8.62691 13.3376 8.54608 13.3131 8.46452 13.2979C8.40966 13.2878 8.30429 13.2885 8.30068 13.303C8.25088 13.5109 7.77019 14.0713 7.71967 14.2056C7.58543 14.5645 7.49737 14.9385 7.558 15.3256C7.60131 15.5993 7.6244 15.8917 7.74349 16.1336C7.88712 16.4261 8.64351 16.9605 8.75538 17.0023C8.95603 17.0767 9.16534 17.1518 9.37609 17.1692C9.87265 17.2103 10.3728 17.1446 10.8716 17.1742C10.9185 17.1757 11.2562 17.172 11.2894 17.1814ZM3.26503 10.2246C3.28885 10.0354 3.23544 9.94514 3.03624 9.91625C2.87745 9.89315 2.05033 9.92492 1.85834 9.92564C1.69667 9.92636 1.66275 10.0152 1.65986 10.1379C1.65553 10.2975 1.67213 10.4571 1.66491 10.6167C1.65336 10.8897 1.63821 11.6363 1.64109 11.7374C1.64831 11.9772 1.60573 12.986 1.60501 12.9961C1.59707 13.1477 1.58119 13.2994 1.58335 13.4503C1.58696 13.8048 1.60428 14.1594 1.60717 14.5139C1.61006 14.8671 1.57614 15.7386 1.54294 15.8109C1.42818 16.0614 1.59635 16.3532 1.8735 16.3582C2.24881 16.3647 2.62412 16.364 2.99943 16.3582C3.20296 16.3553 3.35453 16.2001 3.35741 16.0015C3.3603 15.7776 3.34587 15.5523 3.35814 15.3292C3.37907 14.953 3.31195 14.5775 3.35453 14.2013C3.36247 14.1254 3.25998 10.2658 3.26503 10.2246ZM14.8996 18.4625C14.9271 18.4307 14.948 18.3859 14.9632 18.3245C14.9935 18.2039 15.0353 17.97 15.0007 17.8472C14.9206 17.5627 14.3836 17.6811 14.1635 17.6804C13.7809 17.679 13.3991 17.6768 13.0166 17.6746C12.2523 17.6703 11.4879 17.6638 10.7236 17.6559C9.19493 17.6407 7.66626 17.6183 6.1376 17.5901C5.98819 17.5873 4.6212 17.6494 4.61687 17.6111C4.64863 17.8696 4.56707 18.2639 4.71142 18.4935C4.82834 18.6805 5.21159 18.6192 5.38914 18.6025C5.70671 18.5729 6.41547 18.596 6.4927 18.5953C8.83477 18.5578 11.1761 18.5238 13.5182 18.4906C13.8603 18.4856 14.2032 18.4812 14.5431 18.5209C14.7105 18.5397 14.8267 18.5469 14.8996 18.4625ZM12.0819 25.3969C12.1057 24.929 11.6366 23.5866 11.2303 22.9771C11.1307 22.9843 11.0267 22.98 10.9293 23.0009C10.8333 23.0219 8.92788 22.9764 8.77848 23.1367C8.77054 23.1259 8.76332 23.1143 8.77776 23.1352C8.71063 23.2436 8.48834 23.7606 8.44214 23.9094C8.36131 24.17 8.27398 24.4278 8.19964 24.69C8.15417 24.8517 8.12674 25.0185 8.09426 25.1839C8.08921 25.2106 8.0921 25.2503 8.1087 25.2676C8.15128 25.3117 8.52514 25.3045 8.55834 25.3074C8.74383 25.3204 8.93077 25.3211 9.11698 25.3276C9.20864 25.3305 9.44105 25.3218 9.46847 25.3204C9.61932 25.3102 10.279 25.3334 10.4573 25.3355C10.7914 25.3391 11.8748 25.3745 12.0819 25.3969ZM4.84639 16.8023C4.79153 16.9063 4.90485 17.1071 5.02394 17.1078C5.15674 17.1085 5.28954 17.0854 5.4209 17.063C5.44616 17.0587 5.4808 17.011 5.48297 16.9814C5.4938 16.8355 5.49307 16.6897 5.50029 16.5438C5.50318 16.4896 5.52483 16.4362 5.52339 16.3835C5.51617 16.1929 5.48153 15.3429 5.4772 15.1082C5.47287 14.8858 5.53999 13.5817 5.53494 13.4568C5.52483 13.1903 5.53277 10.4997 5.52988 10.4427C5.51545 10.1885 5.53927 9.34939 5.5436 9.18331C5.55298 8.83669 5.57752 7.99182 5.59123 7.916C5.60422 7.84451 5.61722 7.77375 5.63237 7.6907C5.11055 7.82429 4.80019 8.21784 4.80091 8.72982C4.80091 9.5783 4.80813 10.4268 4.8103 11.2745C4.81102 11.4103 4.82762 11.8508 4.837 11.9367C4.86443 12.1844 4.91928 16.663 4.84639 16.8023ZM2.46389 16.8984C2.52235 17.5447 2.36284 18.1924 2.5108 18.843C2.56493 18.9188 3.07016 19.459 3.27947 19.6027C3.46423 19.7298 3.69447 19.8186 3.91605 19.854C4.18165 19.8966 4.45881 19.8641 4.73668 19.8641C4.62264 19.4611 4.62264 19.4611 4.23939 19.4582C4.20258 19.4582 4.1665 19.459 4.12969 19.4575C3.87347 19.4452 3.60714 19.4958 3.37835 19.3196C3.34731 19.2958 2.87096 18.882 2.90271 18.8856C2.70423 18.7657 2.70279 18.3527 2.69557 18.3556C2.67897 18.1418 2.69629 17.7837 2.6833 17.7786C2.6768 17.5865 2.66165 17.3901 2.66742 17.1944C2.67392 17.019 2.61618 16.9171 2.46389 16.8984Z"/>
</mask>
<path d="M1.04421 11.4089C1.0341 10.9944 1.02977 10.5799 1.02328 10.1654C1.01534 9.66785 1.36827 9.29018 1.867 9.28513C2.27335 9.28079 2.6833 9.26346 3.08459 9.31184C3.60425 9.37467 3.86408 9.72634 3.86192 10.2455C3.86048 10.6189 3.80274 12.3844 3.84532 12.4299C3.83016 12.4913 3.88069 13.1708 3.89801 13.464C3.911 13.6821 3.89223 13.9023 3.88646 14.1211C3.87852 14.4287 3.86769 14.7364 3.86047 15.044C3.85542 15.2541 3.90089 15.4801 3.8381 15.6708C3.77892 15.8499 3.81645 16.0145 3.79985 16.1842C3.7717 16.4701 3.58044 16.6247 3.35886 16.746C3.25493 16.803 3.22461 16.8623 3.23183 16.9727C3.24843 17.2378 3.25709 17.5042 3.26359 17.7699C3.26864 17.9606 3.26431 18.1519 3.26359 18.3426C3.26359 18.6545 3.59704 19.043 4.07123 18.9687C4.14268 18.9578 4.21558 18.9571 4.27187 18.9528C4.2098 18.5267 4.13763 18.1043 4.08999 17.6804C4.0669 17.4768 4.0106 17.2479 4.243 17.1006C4.26538 17.0861 4.2661 17.0255 4.26466 16.9865C4.25672 16.7121 4.23651 16.4384 4.23723 16.164C4.23723 15.8838 4.26032 15.6036 4.26466 15.3227C4.26971 14.9862 4.26393 14.6497 4.26682 14.3132C4.26899 14.0698 4.23362 13.3477 4.23506 13.2308C4.23867 12.7881 4.25888 12.3454 4.26321 11.9028C4.27043 11.1438 4.26826 10.3842 4.27404 9.62524C4.27765 9.21364 4.27981 8.80203 4.30291 8.39115C4.31085 8.25178 4.36065 8.10303 4.42994 7.98027C4.70853 7.48346 5.11416 7.15923 5.70022 7.09351C6.02861 7.05669 6.204 7.23288 6.18379 7.56505C6.16502 7.8734 6.17801 8.18318 6.17224 8.49225C6.16574 8.80853 6.14698 9.12482 6.1477 9.44183C6.1477 9.57614 6.17946 11.7475 6.17801 12.6285C6.17729 13.2936 6.20183 13.9594 6.20472 14.6244C6.20616 14.9884 6.18595 15.3523 6.17657 15.7163C6.16647 16.0795 6.15564 16.4427 6.14987 16.8059C6.14842 16.8825 6.16719 16.959 6.17801 17.0486C6.30143 17.0486 6.41763 17.0356 6.52878 17.0507C6.94812 17.1085 7.36746 17.0673 7.81567 17.0753C7.72689 16.9532 7.66626 16.829 7.57099 16.7453C7.19207 16.4138 7.06505 15.9603 6.96111 15.5011C6.78501 14.719 7.01452 14.0309 7.48438 13.4041C7.66771 13.1593 7.87557 12.9231 8.00476 12.6509C8.28625 12.0588 8.71136 11.5605 9.03759 10.9994C9.22741 10.673 9.5226 10.4008 9.6785 10.0621C9.92317 9.53209 10.2581 9.06199 10.5648 8.57457C10.8817 8.07125 11.2368 7.58816 11.6135 7.12745C12.0393 6.60681 12.6117 6.33819 13.293 6.3714C13.7752 6.39523 14.2248 6.55337 14.6109 6.84511C14.8361 7.01553 15.0519 7.20833 15.2374 7.42063C15.485 7.70298 15.5297 8.07198 15.594 8.42942C15.7268 9.1602 15.4345 9.76244 15.0462 10.3466C14.7538 10.7857 14.4846 11.2406 14.2248 11.6999C14.1548 11.8234 14.1461 11.9858 14.1259 12.1331C14.0473 12.7022 13.9758 13.2719 13.9015 13.8417C13.8964 13.8821 13.8841 13.9218 13.8719 13.9752C14.1497 13.9752 14.4197 13.9709 14.6889 13.9767C14.9473 13.9825 15.2057 14.0077 15.464 14.0085C15.721 14.0099 15.9779 13.9875 16.2349 13.9825C17.005 13.9651 17.6661 14.1919 18.1259 14.8497C18.3532 15.1747 18.4723 15.5415 18.4701 15.938C18.4651 17.0442 18.4492 18.1498 18.442 19.2561C18.4369 20.0482 18.4405 20.8397 18.4405 21.6318C18.4405 21.678 18.4405 21.7242 18.4405 21.7907C18.7639 21.7112 19.0367 21.8246 19.3088 21.9568C19.8609 22.2261 20.1843 22.998 19.7267 23.5743C20.0219 24.0704 20.0031 24.6091 19.9194 25.1543C19.8978 25.2973 19.8739 25.4402 19.848 25.5825C19.8133 25.776 19.7339 25.8381 19.5412 25.8381C17.7527 25.8374 15.9642 25.8374 14.1757 25.8388C13.9664 25.8388 13.8834 25.7912 13.8531 25.5875C13.7975 25.2193 13.747 24.8488 13.7196 24.4777C13.6922 24.1094 13.6857 23.7382 13.6885 23.3692C13.69 23.1468 13.7131 22.9222 13.7492 22.7027C13.8379 22.1597 14.4002 21.7791 14.9372 21.8867C14.9819 21.8961 15.0281 21.899 15.0851 21.9062C15.0851 21.1718 15.0851 20.4483 15.0851 19.6929C14.3619 21.2289 13.2122 22.2593 11.6409 22.8038C11.7889 23.1186 11.9361 23.4241 12.0769 23.7332C12.3432 24.3173 12.4594 24.942 12.5561 25.5702C12.5821 25.737 12.4717 25.8453 12.2833 25.8461C11.8871 25.8475 11.4908 25.8468 11.0946 25.8453C10.4298 25.8432 9.76511 25.8352 9.10038 25.8381C8.85643 25.8396 8.61248 25.8742 8.3678 25.8786C8.20974 25.8814 8.05023 25.8432 7.89217 25.8482C7.46417 25.8627 7.43169 25.8518 7.49304 25.4265C7.61935 24.5513 7.88062 23.718 8.33244 22.9504C8.34254 22.9323 8.3512 22.9136 8.37719 22.863C7.48438 22.7027 6.14987 21.7257 6.19606 21.7502C5.88498 21.4166 5.07662 20.6187 4.99002 20.4605C4.94888 20.3847 4.9034 20.3659 4.82257 20.3645C4.43788 20.3594 4.05246 20.3508 3.66777 20.3334C3.54579 20.3284 3.20585 20.1746 3.14233 20.1341C2.89838 19.9789 2.65876 19.8171 2.41914 19.6554C2.15859 19.4785 1.97887 19.2344 1.89659 18.9347C1.8403 18.7289 1.89659 17.354 1.90742 17.2471C1.92185 17.1042 1.91103 16.959 1.91103 16.8579C1.69884 16.7807 1.50901 16.746 1.35889 16.65C1.10122 16.4846 0.988632 16.2232 1.0009 15.9141C1.01317 15.6137 1.03122 15.3126 1.04132 15.0122C1.04493 14.9032 1.03771 14.7934 1.02977 14.6844C1.02111 14.5602 1.04565 14.1551 1.04493 14.072C1.04204 13.7305 1.04565 13.3882 1.0406 13.0466C1.03988 13.0148 1.04709 11.5345 1.04421 11.4089ZM11.869 9.29596C11.8676 9.26058 11.939 8.7782 12.0653 8.73415C12.1346 8.7096 12.2321 8.71249 12.2985 8.74282C12.4399 8.80709 12.476 9.01145 12.411 9.18042C12.3677 9.29379 12.2234 10.317 12.2162 10.3683C12.1981 10.4939 12.201 10.6232 12.1866 10.7496C12.1187 11.3561 11.9174 12.7823 11.9037 12.9715C11.8871 13.2127 11.8625 13.4553 11.8178 13.6929C11.8019 13.7767 11.7672 13.8503 11.7694 13.9464C11.7752 14.1681 11.7514 14.3912 11.7268 14.6122C11.7073 14.792 11.6604 14.9689 11.6424 15.1487C11.6178 15.3956 11.6056 15.6448 11.5947 15.8932C11.5854 16.1141 11.5211 16.3315 11.6467 16.5539C11.742 16.7229 11.8416 16.8095 12.0365 16.8673C12.2804 16.9388 12.4753 16.9395 12.6665 16.7756C12.8087 16.6536 12.9119 16.5077 12.9249 16.3142C12.9379 16.125 12.9314 15.9336 12.9538 15.7459C12.9747 15.5668 13.0303 15.392 13.0541 15.2129C13.0779 15.0303 13.0707 14.844 13.0938 14.662C13.1335 14.3515 13.1891 14.0424 13.2346 13.7319C13.3132 13.1954 13.5269 11.8732 13.5456 11.7316C13.5759 11.5027 13.6221 11.2753 13.6525 11.0464C13.7073 10.6261 13.7398 10.2022 13.8105 9.78483C13.8596 9.49526 13.8639 9.18981 14.0602 8.93201C14.0971 8.88363 14.123 8.82947 14.1757 8.8302C14.3973 8.83164 14.538 8.93418 14.5236 9.15154C14.5128 9.31329 14.4522 9.47215 14.4161 9.63318C14.3987 9.71334 14.3547 10.156 14.3403 10.2954C14.336 10.3394 14.3172 10.3827 14.2955 10.4578C14.4096 10.2853 14.4998 10.1437 14.5943 10.0058C14.8202 9.67651 14.9769 9.3234 15.0202 8.91974C15.0656 8.49152 14.9263 8.10664 14.7243 7.75353C14.5402 7.43146 14.245 7.22205 13.8834 7.08702C13.2317 6.84294 12.6572 6.98159 12.0993 7.34409C11.9268 7.45602 11.7838 7.58166 11.6741 7.75641C10.7871 9.17392 9.89575 10.5893 9.00583 12.0053C8.8521 12.2501 8.69909 12.4949 8.53381 12.7585C9.47785 13.0806 10.3981 13.3954 11.3212 13.711C11.3732 13.534 11.6128 11.2688 11.6373 11.281C11.6547 11.1316 11.8719 9.36817 11.869 9.29596ZM5.0427 19.1687C5.07735 19.2445 5.1156 19.316 5.1423 19.3911C5.17623 19.4864 5.19355 19.5882 5.23252 19.6814C5.29964 19.8424 5.37759 19.9991 5.45193 20.1573C5.46493 20.1847 6.15925 21.0556 6.21194 21.1047C6.3267 21.2123 6.45084 21.3112 6.58003 21.4015C6.77057 21.5343 6.96472 21.6614 7.16393 21.7798C7.38334 21.9105 7.60347 22.0449 7.83587 22.1481C8.05384 22.2449 8.28625 22.3113 8.51648 22.3763C9.07368 22.533 9.63375 22.6868 10.2205 22.6514C10.458 22.637 10.6954 22.603 10.9293 22.559C11.6474 22.4225 12.2999 22.1272 12.8997 21.7127C12.9322 21.6903 13.236 21.4599 13.345 21.3574C13.5565 21.1588 13.7528 20.9436 13.9477 20.7277C14.0552 20.6086 14.1548 20.48 14.245 20.3472C14.3186 20.2389 14.3749 20.1183 14.4348 20.0013C14.5323 19.8106 14.8628 19.0864 14.8809 19.0214C14.8174 19.0466 11.8004 19.1131 11.5615 19.1167C11.4915 19.1174 9.77089 19.1326 9.70521 19.1347C9.49518 19.1427 9.28443 19.1514 9.0744 19.1542C8.94304 19.1564 8.81168 19.1456 8.68104 19.1499C8.63413 19.1514 8.32305 19.1492 8.21407 19.1492C8.0127 19.1485 7.81206 19.1716 7.61069 19.173C7.46056 19.1745 7.30972 19.1485 7.1596 19.1506C6.93513 19.1528 5.13436 19.1506 5.0427 19.1687ZM13.2252 17.1085C13.306 17.0977 13.3825 17.0789 13.4583 17.0789C13.9902 17.0767 14.5222 17.0767 15.0541 17.0811C15.1782 17.0818 15.3082 17.0825 15.4236 17.1186C15.5009 17.1424 15.5976 17.2197 15.6156 17.2905C15.6488 17.4219 15.6467 17.5678 15.6293 17.7042C15.6005 17.9324 15.5189 18.157 15.5117 18.3852C15.4936 18.9477 15.5059 19.5117 15.5059 20.0749C15.5059 20.6584 15.5088 21.2419 15.503 21.8253C15.5016 21.9423 15.5723 21.9568 15.6503 21.9589C16.0768 21.9712 16.5041 21.9828 16.9306 21.9835C17.0497 21.9835 17.7347 21.9828 17.8372 21.9214C17.9461 21.8564 17.9368 21.5639 17.957 21.4339C17.9671 21.3704 17.8639 19.6835 17.8848 19.2589C17.8942 19.2171 17.8855 18.6545 17.8812 18.4148C17.8776 18.2018 17.8797 17.9888 17.8812 17.7757C17.8819 17.7317 17.8819 17.6869 17.8826 17.6429C17.8862 17.2276 17.8971 16.8196 17.8668 16.4073C17.8617 16.3351 17.8805 16.2615 17.8718 16.19C17.8458 15.982 17.822 15.7726 17.7765 15.5682C17.7506 15.452 17.695 15.3372 17.6315 15.2353C17.573 15.1422 17.4965 15.0526 17.4099 14.9862C17.2655 14.875 17.119 14.7392 16.9516 14.6945C16.7307 14.6353 16.4897 14.6519 16.2565 14.6418C16.1786 14.6381 16.1006 14.6584 16.0227 14.6576C15.8625 14.6562 15.7029 14.6432 15.5427 14.6425C15.2316 14.6403 14.9206 14.6483 14.6095 14.6432C14.3886 14.6396 14.1685 14.6143 13.9484 14.6114C13.9022 14.6107 13.8481 14.6613 13.8098 14.6995C13.7044 14.8064 13.5637 15.912 13.529 16.0672C13.5153 16.1293 13.5197 16.195 13.5168 16.26C13.5132 16.3539 13.3226 16.9114 13.2252 17.1085ZM15.8314 22.507C15.7657 22.4976 15.7015 22.4738 15.6351 22.4687C15.3146 22.4456 14.9935 22.4196 14.673 22.4124C14.5958 22.4102 14.494 22.455 14.4442 22.5135C14.2876 22.6969 14.2385 22.9121 14.2631 23.1612C14.284 23.3757 14.1873 23.5887 14.2313 23.8162C14.2609 23.9678 14.2096 24.1339 14.2161 24.2921C14.2226 24.4394 14.2631 24.586 14.2782 24.7333C14.2977 24.9189 14.3035 25.1059 14.323 25.2908C14.3258 25.3211 14.3865 25.3745 14.3894 25.3723C14.5561 25.2568 14.7264 25.3276 14.896 25.3565C14.93 25.3622 14.9668 25.3471 15.0021 25.3449C15.1328 25.3377 15.2627 25.3297 15.3933 25.3276C15.4951 25.3261 15.5968 25.3348 15.6993 25.3355C15.7448 25.3362 15.7896 25.3247 15.835 25.3254C16.0155 25.3276 16.1966 25.3391 16.3771 25.3334C16.6672 25.324 16.9573 25.2922 17.2475 25.29C17.4445 25.2886 17.6416 25.3326 17.8386 25.3377C18.2053 25.3478 18.5719 25.3413 18.9393 25.3478C19.0309 25.3492 19.1226 25.3752 19.2143 25.3904C19.2937 25.4034 19.3723 25.4157 19.4856 25.4337C19.5123 25.0936 19.5564 24.7795 19.5556 24.4654C19.5549 24.2783 19.4907 24.0899 19.438 23.9072C19.4265 23.8675 19.3362 23.8191 19.2893 23.8263C18.9046 23.8805 18.5243 23.9808 18.1389 24.0018C17.6105 24.0299 17.0793 24.0061 16.5488 23.9938C16.4081 23.9909 16.3237 23.8639 16.3446 23.7332C16.3735 23.5519 16.4391 23.5042 16.6167 23.5375C16.6824 23.5497 18.9624 23.4356 19.0136 23.4147C19.08 23.3873 19.5109 22.9504 19.5455 22.9345C19.477 22.8226 19.4257 22.715 19.3521 22.6254C19.2121 22.4543 19.0533 22.3019 18.8086 22.3084C18.7271 22.3091 16.1129 22.5482 15.8314 22.507ZM11.2894 17.1814C11.2959 17.1728 11.3024 17.1634 11.3082 17.1547C11.2425 17.0839 10.9531 16.455 10.9596 16.2015C10.9906 16.1799 10.9784 16.039 10.9813 15.9986C10.9971 15.7798 11.0823 15.2548 11.0729 15.1906C11.0657 15.1371 11.0708 15.0808 11.078 15.0266C11.0888 14.9407 11.1061 14.8555 11.1184 14.7696C11.1292 14.6938 11.1292 14.615 11.1494 14.5414C11.1935 14.3832 11.1473 14.2229 11.0101 14.1767C10.9062 14.1413 10.8095 14.0966 10.7099 14.0547C10.5013 13.9666 10.2747 13.9218 10.056 13.8575C9.851 13.7969 9.64602 13.7377 9.44321 13.6705C9.31907 13.6294 9.19926 13.5766 9.07873 13.5268C8.95314 13.4748 8.83045 13.4171 8.70414 13.368C8.62691 13.3376 8.54608 13.3131 8.46452 13.2979C8.40966 13.2878 8.30429 13.2885 8.30068 13.303C8.25088 13.5109 7.77019 14.0713 7.71967 14.2056C7.58543 14.5645 7.49737 14.9385 7.558 15.3256C7.60131 15.5993 7.6244 15.8917 7.74349 16.1336C7.88712 16.4261 8.64351 16.9605 8.75538 17.0023C8.95603 17.0767 9.16534 17.1518 9.37609 17.1692C9.87265 17.2103 10.3728 17.1446 10.8716 17.1742C10.9185 17.1757 11.2562 17.172 11.2894 17.1814ZM3.26503 10.2246C3.28885 10.0354 3.23544 9.94514 3.03624 9.91625C2.87745 9.89315 2.05033 9.92492 1.85834 9.92564C1.69667 9.92636 1.66275 10.0152 1.65986 10.1379C1.65553 10.2975 1.67213 10.4571 1.66491 10.6167C1.65336 10.8897 1.63821 11.6363 1.64109 11.7374C1.64831 11.9772 1.60573 12.986 1.60501 12.9961C1.59707 13.1477 1.58119 13.2994 1.58335 13.4503C1.58696 13.8048 1.60428 14.1594 1.60717 14.5139C1.61006 14.8671 1.57614 15.7386 1.54294 15.8109C1.42818 16.0614 1.59635 16.3532 1.8735 16.3582C2.24881 16.3647 2.62412 16.364 2.99943 16.3582C3.20296 16.3553 3.35453 16.2001 3.35741 16.0015C3.3603 15.7776 3.34587 15.5523 3.35814 15.3292C3.37907 14.953 3.31195 14.5775 3.35453 14.2013C3.36247 14.1254 3.25998 10.2658 3.26503 10.2246ZM14.8996 18.4625C14.9271 18.4307 14.948 18.3859 14.9632 18.3245C14.9935 18.2039 15.0353 17.97 15.0007 17.8472C14.9206 17.5627 14.3836 17.6811 14.1635 17.6804C13.7809 17.679 13.3991 17.6768 13.0166 17.6746C12.2523 17.6703 11.4879 17.6638 10.7236 17.6559C9.19493 17.6407 7.66626 17.6183 6.1376 17.5901C5.98819 17.5873 4.6212 17.6494 4.61687 17.6111C4.64863 17.8696 4.56707 18.2639 4.71142 18.4935C4.82834 18.6805 5.21159 18.6192 5.38914 18.6025C5.70671 18.5729 6.41547 18.596 6.4927 18.5953C8.83477 18.5578 11.1761 18.5238 13.5182 18.4906C13.8603 18.4856 14.2032 18.4812 14.5431 18.5209C14.7105 18.5397 14.8267 18.5469 14.8996 18.4625ZM12.0819 25.3969C12.1057 24.929 11.6366 23.5866 11.2303 22.9771C11.1307 22.9843 11.0267 22.98 10.9293 23.0009C10.8333 23.0219 8.92788 22.9764 8.77848 23.1367C8.77054 23.1259 8.76332 23.1143 8.77776 23.1352C8.71063 23.2436 8.48834 23.7606 8.44214 23.9094C8.36131 24.17 8.27398 24.4278 8.19964 24.69C8.15417 24.8517 8.12674 25.0185 8.09426 25.1839C8.08921 25.2106 8.0921 25.2503 8.1087 25.2676C8.15128 25.3117 8.52514 25.3045 8.55834 25.3074C8.74383 25.3204 8.93077 25.3211 9.11698 25.3276C9.20864 25.3305 9.44105 25.3218 9.46847 25.3204C9.61932 25.3102 10.279 25.3334 10.4573 25.3355C10.7914 25.3391 11.8748 25.3745 12.0819 25.3969ZM4.84639 16.8023C4.79153 16.9063 4.90485 17.1071 5.02394 17.1078C5.15674 17.1085 5.28954 17.0854 5.4209 17.063C5.44616 17.0587 5.4808 17.011 5.48297 16.9814C5.4938 16.8355 5.49307 16.6897 5.50029 16.5438C5.50318 16.4896 5.52483 16.4362 5.52339 16.3835C5.51617 16.1929 5.48153 15.3429 5.4772 15.1082C5.47287 14.8858 5.53999 13.5817 5.53494 13.4568C5.52483 13.1903 5.53277 10.4997 5.52988 10.4427C5.51545 10.1885 5.53927 9.34939 5.5436 9.18331C5.55298 8.83669 5.57752 7.99182 5.59123 7.916C5.60422 7.84451 5.61722 7.77375 5.63237 7.6907C5.11055 7.82429 4.80019 8.21784 4.80091 8.72982C4.80091 9.5783 4.80813 10.4268 4.8103 11.2745C4.81102 11.4103 4.82762 11.8508 4.837 11.9367C4.86443 12.1844 4.91928 16.663 4.84639 16.8023ZM2.46389 16.8984C2.52235 17.5447 2.36284 18.1924 2.5108 18.843C2.56493 18.9188 3.07016 19.459 3.27947 19.6027C3.46423 19.7298 3.69447 19.8186 3.91605 19.854C4.18165 19.8966 4.45881 19.8641 4.73668 19.8641C4.62264 19.4611 4.62264 19.4611 4.23939 19.4582C4.20258 19.4582 4.1665 19.459 4.12969 19.4575C3.87347 19.4452 3.60714 19.4958 3.37835 19.3196C3.34731 19.2958 2.87096 18.882 2.90271 18.8856C2.70423 18.7657 2.70279 18.3527 2.69557 18.3556C2.67897 18.1418 2.69629 17.7837 2.6833 17.7786C2.6768 17.5865 2.66165 17.3901 2.66742 17.1944C2.67392 17.019 2.61618 16.9171 2.46389 16.8984Z" fill="white"/>
<path d="M1.04421 11.4089C1.0341 10.9944 1.02977 10.5799 1.02328 10.1654C1.01534 9.66785 1.36827 9.29018 1.867 9.28513C2.27335 9.28079 2.6833 9.26346 3.08459 9.31184C3.60425 9.37467 3.86408 9.72634 3.86192 10.2455C3.86048 10.6189 3.80274 12.3844 3.84532 12.4299C3.83016 12.4913 3.88069 13.1708 3.89801 13.464C3.911 13.6821 3.89223 13.9023 3.88646 14.1211C3.87852 14.4287 3.86769 14.7364 3.86047 15.044C3.85542 15.2541 3.90089 15.4801 3.8381 15.6708C3.77892 15.8499 3.81645 16.0145 3.79985 16.1842C3.7717 16.4701 3.58044 16.6247 3.35886 16.746C3.25493 16.803 3.22461 16.8623 3.23183 16.9727C3.24843 17.2378 3.25709 17.5042 3.26359 17.7699C3.26864 17.9606 3.26431 18.1519 3.26359 18.3426C3.26359 18.6545 3.59704 19.043 4.07123 18.9687C4.14268 18.9578 4.21558 18.9571 4.27187 18.9528C4.2098 18.5267 4.13763 18.1043 4.08999 17.6804C4.0669 17.4768 4.0106 17.2479 4.243 17.1006C4.26538 17.0861 4.2661 17.0255 4.26466 16.9865C4.25672 16.7121 4.23651 16.4384 4.23723 16.164C4.23723 15.8838 4.26032 15.6036 4.26466 15.3227C4.26971 14.9862 4.26393 14.6497 4.26682 14.3132C4.26899 14.0698 4.23362 13.3477 4.23506 13.2308C4.23867 12.7881 4.25888 12.3454 4.26321 11.9028C4.27043 11.1438 4.26826 10.3842 4.27404 9.62524C4.27765 9.21364 4.27981 8.80203 4.30291 8.39115C4.31085 8.25178 4.36065 8.10303 4.42994 7.98027C4.70853 7.48346 5.11416 7.15923 5.70022 7.09351C6.02861 7.05669 6.204 7.23288 6.18379 7.56505C6.16502 7.8734 6.17801 8.18318 6.17224 8.49225C6.16574 8.80853 6.14698 9.12482 6.1477 9.44183C6.1477 9.57614 6.17946 11.7475 6.17801 12.6285C6.17729 13.2936 6.20183 13.9594 6.20472 14.6244C6.20616 14.9884 6.18595 15.3523 6.17657 15.7163C6.16647 16.0795 6.15564 16.4427 6.14987 16.8059C6.14842 16.8825 6.16719 16.959 6.17801 17.0486C6.30143 17.0486 6.41763 17.0356 6.52878 17.0507C6.94812 17.1085 7.36746 17.0673 7.81567 17.0753C7.72689 16.9532 7.66626 16.829 7.57099 16.7453C7.19207 16.4138 7.06505 15.9603 6.96111 15.5011C6.78501 14.719 7.01452 14.0309 7.48438 13.4041C7.66771 13.1593 7.87557 12.9231 8.00476 12.6509C8.28625 12.0588 8.71136 11.5605 9.03759 10.9994C9.22741 10.673 9.5226 10.4008 9.6785 10.0621C9.92317 9.53209 10.2581 9.06199 10.5648 8.57457C10.8817 8.07125 11.2368 7.58816 11.6135 7.12745C12.0393 6.60681 12.6117 6.33819 13.293 6.3714C13.7752 6.39523 14.2248 6.55337 14.6109 6.84511C14.8361 7.01553 15.0519 7.20833 15.2374 7.42063C15.485 7.70298 15.5297 8.07198 15.594 8.42942C15.7268 9.1602 15.4345 9.76244 15.0462 10.3466C14.7538 10.7857 14.4846 11.2406 14.2248 11.6999C14.1548 11.8234 14.1461 11.9858 14.1259 12.1331C14.0473 12.7022 13.9758 13.2719 13.9015 13.8417C13.8964 13.8821 13.8841 13.9218 13.8719 13.9752C14.1497 13.9752 14.4197 13.9709 14.6889 13.9767C14.9473 13.9825 15.2057 14.0077 15.464 14.0085C15.721 14.0099 15.9779 13.9875 16.2349 13.9825C17.005 13.9651 17.6661 14.1919 18.1259 14.8497C18.3532 15.1747 18.4723 15.5415 18.4701 15.938C18.4651 17.0442 18.4492 18.1498 18.442 19.2561C18.4369 20.0482 18.4405 20.8397 18.4405 21.6318C18.4405 21.678 18.4405 21.7242 18.4405 21.7907C18.7639 21.7112 19.0367 21.8246 19.3088 21.9568C19.8609 22.2261 20.1843 22.998 19.7267 23.5743C20.0219 24.0704 20.0031 24.6091 19.9194 25.1543C19.8978 25.2973 19.8739 25.4402 19.848 25.5825C19.8133 25.776 19.7339 25.8381 19.5412 25.8381C17.7527 25.8374 15.9642 25.8374 14.1757 25.8388C13.9664 25.8388 13.8834 25.7912 13.8531 25.5875C13.7975 25.2193 13.747 24.8488 13.7196 24.4777C13.6922 24.1094 13.6857 23.7382 13.6885 23.3692C13.69 23.1468 13.7131 22.9222 13.7492 22.7027C13.8379 22.1597 14.4002 21.7791 14.9372 21.8867C14.9819 21.8961 15.0281 21.899 15.0851 21.9062C15.0851 21.1718 15.0851 20.4483 15.0851 19.6929C14.3619 21.2289 13.2122 22.2593 11.6409 22.8038C11.7889 23.1186 11.9361 23.4241 12.0769 23.7332C12.3432 24.3173 12.4594 24.942 12.5561 25.5702C12.5821 25.737 12.4717 25.8453 12.2833 25.8461C11.8871 25.8475 11.4908 25.8468 11.0946 25.8453C10.4298 25.8432 9.76511 25.8352 9.10038 25.8381C8.85643 25.8396 8.61248 25.8742 8.3678 25.8786C8.20974 25.8814 8.05023 25.8432 7.89217 25.8482C7.46417 25.8627 7.43169 25.8518 7.49304 25.4265C7.61935 24.5513 7.88062 23.718 8.33244 22.9504C8.34254 22.9323 8.3512 22.9136 8.37719 22.863C7.48438 22.7027 6.14987 21.7257 6.19606 21.7502C5.88498 21.4166 5.07662 20.6187 4.99002 20.4605C4.94888 20.3847 4.9034 20.3659 4.82257 20.3645C4.43788 20.3594 4.05246 20.3508 3.66777 20.3334C3.54579 20.3284 3.20585 20.1746 3.14233 20.1341C2.89838 19.9789 2.65876 19.8171 2.41914 19.6554C2.15859 19.4785 1.97887 19.2344 1.89659 18.9347C1.8403 18.7289 1.89659 17.354 1.90742 17.2471C1.92185 17.1042 1.91103 16.959 1.91103 16.8579C1.69884 16.7807 1.50901 16.746 1.35889 16.65C1.10122 16.4846 0.988632 16.2232 1.0009 15.9141C1.01317 15.6137 1.03122 15.3126 1.04132 15.0122C1.04493 14.9032 1.03771 14.7934 1.02977 14.6844C1.02111 14.5602 1.04565 14.1551 1.04493 14.072C1.04204 13.7305 1.04565 13.3882 1.0406 13.0466C1.03988 13.0148 1.04709 11.5345 1.04421 11.4089ZM11.869 9.29596C11.8676 9.26058 11.939 8.7782 12.0653 8.73415C12.1346 8.7096 12.2321 8.71249 12.2985 8.74282C12.4399 8.80709 12.476 9.01145 12.411 9.18042C12.3677 9.29379 12.2234 10.317 12.2162 10.3683C12.1981 10.4939 12.201 10.6232 12.1866 10.7496C12.1187 11.3561 11.9174 12.7823 11.9037 12.9715C11.8871 13.2127 11.8625 13.4553 11.8178 13.6929C11.8019 13.7767 11.7672 13.8503 11.7694 13.9464C11.7752 14.1681 11.7514 14.3912 11.7268 14.6122C11.7073 14.792 11.6604 14.9689 11.6424 15.1487C11.6178 15.3956 11.6056 15.6448 11.5947 15.8932C11.5854 16.1141 11.5211 16.3315 11.6467 16.5539C11.742 16.7229 11.8416 16.8095 12.0365 16.8673C12.2804 16.9388 12.4753 16.9395 12.6665 16.7756C12.8087 16.6536 12.9119 16.5077 12.9249 16.3142C12.9379 16.125 12.9314 15.9336 12.9538 15.7459C12.9747 15.5668 13.0303 15.392 13.0541 15.2129C13.0779 15.0303 13.0707 14.844 13.0938 14.662C13.1335 14.3515 13.1891 14.0424 13.2346 13.7319C13.3132 13.1954 13.5269 11.8732 13.5456 11.7316C13.5759 11.5027 13.6221 11.2753 13.6525 11.0464C13.7073 10.6261 13.7398 10.2022 13.8105 9.78483C13.8596 9.49526 13.8639 9.18981 14.0602 8.93201C14.0971 8.88363 14.123 8.82947 14.1757 8.8302C14.3973 8.83164 14.538 8.93418 14.5236 9.15154C14.5128 9.31329 14.4522 9.47215 14.4161 9.63318C14.3987 9.71334 14.3547 10.156 14.3403 10.2954C14.336 10.3394 14.3172 10.3827 14.2955 10.4578C14.4096 10.2853 14.4998 10.1437 14.5943 10.0058C14.8202 9.67651 14.9769 9.3234 15.0202 8.91974C15.0656 8.49152 14.9263 8.10664 14.7243 7.75353C14.5402 7.43146 14.245 7.22205 13.8834 7.08702C13.2317 6.84294 12.6572 6.98159 12.0993 7.34409C11.9268 7.45602 11.7838 7.58166 11.6741 7.75641C10.7871 9.17392 9.89575 10.5893 9.00583 12.0053C8.8521 12.2501 8.69909 12.4949 8.53381 12.7585C9.47785 13.0806 10.3981 13.3954 11.3212 13.711C11.3732 13.534 11.6128 11.2688 11.6373 11.281C11.6547 11.1316 11.8719 9.36817 11.869 9.29596ZM5.0427 19.1687C5.07735 19.2445 5.1156 19.316 5.1423 19.3911C5.17623 19.4864 5.19355 19.5882 5.23252 19.6814C5.29964 19.8424 5.37759 19.9991 5.45193 20.1573C5.46493 20.1847 6.15925 21.0556 6.21194 21.1047C6.3267 21.2123 6.45084 21.3112 6.58003 21.4015C6.77057 21.5343 6.96472 21.6614 7.16393 21.7798C7.38334 21.9105 7.60347 22.0449 7.83587 22.1481C8.05384 22.2449 8.28625 22.3113 8.51648 22.3763C9.07368 22.533 9.63375 22.6868 10.2205 22.6514C10.458 22.637 10.6954 22.603 10.9293 22.559C11.6474 22.4225 12.2999 22.1272 12.8997 21.7127C12.9322 21.6903 13.236 21.4599 13.345 21.3574C13.5565 21.1588 13.7528 20.9436 13.9477 20.7277C14.0552 20.6086 14.1548 20.48 14.245 20.3472C14.3186 20.2389 14.3749 20.1183 14.4348 20.0013C14.5323 19.8106 14.8628 19.0864 14.8809 19.0214C14.8174 19.0466 11.8004 19.1131 11.5615 19.1167C11.4915 19.1174 9.77089 19.1326 9.70521 19.1347C9.49518 19.1427 9.28443 19.1514 9.0744 19.1542C8.94304 19.1564 8.81168 19.1456 8.68104 19.1499C8.63413 19.1514 8.32305 19.1492 8.21407 19.1492C8.0127 19.1485 7.81206 19.1716 7.61069 19.173C7.46056 19.1745 7.30972 19.1485 7.1596 19.1506C6.93513 19.1528 5.13436 19.1506 5.0427 19.1687ZM13.2252 17.1085C13.306 17.0977 13.3825 17.0789 13.4583 17.0789C13.9902 17.0767 14.5222 17.0767 15.0541 17.0811C15.1782 17.0818 15.3082 17.0825 15.4236 17.1186C15.5009 17.1424 15.5976 17.2197 15.6156 17.2905C15.6488 17.4219 15.6467 17.5678 15.6293 17.7042C15.6005 17.9324 15.5189 18.157 15.5117 18.3852C15.4936 18.9477 15.5059 19.5117 15.5059 20.0749C15.5059 20.6584 15.5088 21.2419 15.503 21.8253C15.5016 21.9423 15.5723 21.9568 15.6503 21.9589C16.0768 21.9712 16.5041 21.9828 16.9306 21.9835C17.0497 21.9835 17.7347 21.9828 17.8372 21.9214C17.9461 21.8564 17.9368 21.5639 17.957 21.4339C17.9671 21.3704 17.8639 19.6835 17.8848 19.2589C17.8942 19.2171 17.8855 18.6545 17.8812 18.4148C17.8776 18.2018 17.8797 17.9888 17.8812 17.7757C17.8819 17.7317 17.8819 17.6869 17.8826 17.6429C17.8862 17.2276 17.8971 16.8196 17.8668 16.4073C17.8617 16.3351 17.8805 16.2615 17.8718 16.19C17.8458 15.982 17.822 15.7726 17.7765 15.5682C17.7506 15.452 17.695 15.3372 17.6315 15.2353C17.573 15.1422 17.4965 15.0526 17.4099 14.9862C17.2655 14.875 17.119 14.7392 16.9516 14.6945C16.7307 14.6353 16.4897 14.6519 16.2565 14.6418C16.1786 14.6381 16.1006 14.6584 16.0227 14.6576C15.8625 14.6562 15.7029 14.6432 15.5427 14.6425C15.2316 14.6403 14.9206 14.6483 14.6095 14.6432C14.3886 14.6396 14.1685 14.6143 13.9484 14.6114C13.9022 14.6107 13.8481 14.6613 13.8098 14.6995C13.7044 14.8064 13.5637 15.912 13.529 16.0672C13.5153 16.1293 13.5197 16.195 13.5168 16.26C13.5132 16.3539 13.3226 16.9114 13.2252 17.1085ZM15.8314 22.507C15.7657 22.4976 15.7015 22.4738 15.6351 22.4687C15.3146 22.4456 14.9935 22.4196 14.673 22.4124C14.5958 22.4102 14.494 22.455 14.4442 22.5135C14.2876 22.6969 14.2385 22.9121 14.2631 23.1612C14.284 23.3757 14.1873 23.5887 14.2313 23.8162C14.2609 23.9678 14.2096 24.1339 14.2161 24.2921C14.2226 24.4394 14.2631 24.586 14.2782 24.7333C14.2977 24.9189 14.3035 25.1059 14.323 25.2908C14.3258 25.3211 14.3865 25.3745 14.3894 25.3723C14.5561 25.2568 14.7264 25.3276 14.896 25.3565C14.93 25.3622 14.9668 25.3471 15.0021 25.3449C15.1328 25.3377 15.2627 25.3297 15.3933 25.3276C15.4951 25.3261 15.5968 25.3348 15.6993 25.3355C15.7448 25.3362 15.7896 25.3247 15.835 25.3254C16.0155 25.3276 16.1966 25.3391 16.3771 25.3334C16.6672 25.324 16.9573 25.2922 17.2475 25.29C17.4445 25.2886 17.6416 25.3326 17.8386 25.3377C18.2053 25.3478 18.5719 25.3413 18.9393 25.3478C19.0309 25.3492 19.1226 25.3752 19.2143 25.3904C19.2937 25.4034 19.3723 25.4157 19.4856 25.4337C19.5123 25.0936 19.5564 24.7795 19.5556 24.4654C19.5549 24.2783 19.4907 24.0899 19.438 23.9072C19.4265 23.8675 19.3362 23.8191 19.2893 23.8263C18.9046 23.8805 18.5243 23.9808 18.1389 24.0018C17.6105 24.0299 17.0793 24.0061 16.5488 23.9938C16.4081 23.9909 16.3237 23.8639 16.3446 23.7332C16.3735 23.5519 16.4391 23.5042 16.6167 23.5375C16.6824 23.5497 18.9624 23.4356 19.0136 23.4147C19.08 23.3873 19.5109 22.9504 19.5455 22.9345C19.477 22.8226 19.4257 22.715 19.3521 22.6254C19.2121 22.4543 19.0533 22.3019 18.8086 22.3084C18.7271 22.3091 16.1129 22.5482 15.8314 22.507ZM11.2894 17.1814C11.2959 17.1728 11.3024 17.1634 11.3082 17.1547C11.2425 17.0839 10.9531 16.455 10.9596 16.2015C10.9906 16.1799 10.9784 16.039 10.9813 15.9986C10.9971 15.7798 11.0823 15.2548 11.0729 15.1906C11.0657 15.1371 11.0708 15.0808 11.078 15.0266C11.0888 14.9407 11.1061 14.8555 11.1184 14.7696C11.1292 14.6938 11.1292 14.615 11.1494 14.5414C11.1935 14.3832 11.1473 14.2229 11.0101 14.1767C10.9062 14.1413 10.8095 14.0966 10.7099 14.0547C10.5013 13.9666 10.2747 13.9218 10.056 13.8575C9.851 13.7969 9.64602 13.7377 9.44321 13.6705C9.31907 13.6294 9.19926 13.5766 9.07873 13.5268C8.95314 13.4748 8.83045 13.4171 8.70414 13.368C8.62691 13.3376 8.54608 13.3131 8.46452 13.2979C8.40966 13.2878 8.30429 13.2885 8.30068 13.303C8.25088 13.5109 7.77019 14.0713 7.71967 14.2056C7.58543 14.5645 7.49737 14.9385 7.558 15.3256C7.60131 15.5993 7.6244 15.8917 7.74349 16.1336C7.88712 16.4261 8.64351 16.9605 8.75538 17.0023C8.95603 17.0767 9.16534 17.1518 9.37609 17.1692C9.87265 17.2103 10.3728 17.1446 10.8716 17.1742C10.9185 17.1757 11.2562 17.172 11.2894 17.1814ZM3.26503 10.2246C3.28885 10.0354 3.23544 9.94514 3.03624 9.91625C2.87745 9.89315 2.05033 9.92492 1.85834 9.92564C1.69667 9.92636 1.66275 10.0152 1.65986 10.1379C1.65553 10.2975 1.67213 10.4571 1.66491 10.6167C1.65336 10.8897 1.63821 11.6363 1.64109 11.7374C1.64831 11.9772 1.60573 12.986 1.60501 12.9961C1.59707 13.1477 1.58119 13.2994 1.58335 13.4503C1.58696 13.8048 1.60428 14.1594 1.60717 14.5139C1.61006 14.8671 1.57614 15.7386 1.54294 15.8109C1.42818 16.0614 1.59635 16.3532 1.8735 16.3582C2.24881 16.3647 2.62412 16.364 2.99943 16.3582C3.20296 16.3553 3.35453 16.2001 3.35741 16.0015C3.3603 15.7776 3.34587 15.5523 3.35814 15.3292C3.37907 14.953 3.31195 14.5775 3.35453 14.2013C3.36247 14.1254 3.25998 10.2658 3.26503 10.2246ZM14.8996 18.4625C14.9271 18.4307 14.948 18.3859 14.9632 18.3245C14.9935 18.2039 15.0353 17.97 15.0007 17.8472C14.9206 17.5627 14.3836 17.6811 14.1635 17.6804C13.7809 17.679 13.3991 17.6768 13.0166 17.6746C12.2523 17.6703 11.4879 17.6638 10.7236 17.6559C9.19493 17.6407 7.66626 17.6183 6.1376 17.5901C5.98819 17.5873 4.6212 17.6494 4.61687 17.6111C4.64863 17.8696 4.56707 18.2639 4.71142 18.4935C4.82834 18.6805 5.21159 18.6192 5.38914 18.6025C5.70671 18.5729 6.41547 18.596 6.4927 18.5953C8.83477 18.5578 11.1761 18.5238 13.5182 18.4906C13.8603 18.4856 14.2032 18.4812 14.5431 18.5209C14.7105 18.5397 14.8267 18.5469 14.8996 18.4625ZM12.0819 25.3969C12.1057 24.929 11.6366 23.5866 11.2303 22.9771C11.1307 22.9843 11.0267 22.98 10.9293 23.0009C10.8333 23.0219 8.92788 22.9764 8.77848 23.1367C8.77054 23.1259 8.76332 23.1143 8.77776 23.1352C8.71063 23.2436 8.48834 23.7606 8.44214 23.9094C8.36131 24.17 8.27398 24.4278 8.19964 24.69C8.15417 24.8517 8.12674 25.0185 8.09426 25.1839C8.08921 25.2106 8.0921 25.2503 8.1087 25.2676C8.15128 25.3117 8.52514 25.3045 8.55834 25.3074C8.74383 25.3204 8.93077 25.3211 9.11698 25.3276C9.20864 25.3305 9.44105 25.3218 9.46847 25.3204C9.61932 25.3102 10.279 25.3334 10.4573 25.3355C10.7914 25.3391 11.8748 25.3745 12.0819 25.3969ZM4.84639 16.8023C4.79153 16.9063 4.90485 17.1071 5.02394 17.1078C5.15674 17.1085 5.28954 17.0854 5.4209 17.063C5.44616 17.0587 5.4808 17.011 5.48297 16.9814C5.4938 16.8355 5.49307 16.6897 5.50029 16.5438C5.50318 16.4896 5.52483 16.4362 5.52339 16.3835C5.51617 16.1929 5.48153 15.3429 5.4772 15.1082C5.47287 14.8858 5.53999 13.5817 5.53494 13.4568C5.52483 13.1903 5.53277 10.4997 5.52988 10.4427C5.51545 10.1885 5.53927 9.34939 5.5436 9.18331C5.55298 8.83669 5.57752 7.99182 5.59123 7.916C5.60422 7.84451 5.61722 7.77375 5.63237 7.6907C5.11055 7.82429 4.80019 8.21784 4.80091 8.72982C4.80091 9.5783 4.80813 10.4268 4.8103 11.2745C4.81102 11.4103 4.82762 11.8508 4.837 11.9367C4.86443 12.1844 4.91928 16.663 4.84639 16.8023ZM2.46389 16.8984C2.52235 17.5447 2.36284 18.1924 2.5108 18.843C2.56493 18.9188 3.07016 19.459 3.27947 19.6027C3.46423 19.7298 3.69447 19.8186 3.91605 19.854C4.18165 19.8966 4.45881 19.8641 4.73668 19.8641C4.62264 19.4611 4.62264 19.4611 4.23939 19.4582C4.20258 19.4582 4.1665 19.459 4.12969 19.4575C3.87347 19.4452 3.60714 19.4958 3.37835 19.3196C3.34731 19.2958 2.87096 18.882 2.90271 18.8856C2.70423 18.7657 2.70279 18.3527 2.69557 18.3556C2.67897 18.1418 2.69629 17.7837 2.6833 17.7786C2.6768 17.5865 2.66165 17.3901 2.66742 17.1944C2.67392 17.019 2.61618 16.9171 2.46389 16.8984Z" stroke="white" stroke-width="0.4" mask="url(#path-1-outside-1)"/>
<path d="M19.4849 7.79759C19.503 7.78216 19.5253 7.75645 19.5469 7.7302C19.5703 7.7017 19.5986 7.6654 19.6301 7.62375C19.6931 7.54033 19.7705 7.43321 19.85 7.3192C20.0077 7.09284 20.178 6.83285 20.2593 6.67584C20.3116 6.57563 20.3308 6.45665 20.3464 6.36035C20.3486 6.34667 20.3507 6.33345 20.3529 6.32081L20.3529 6.32075C20.3544 6.31167 20.358 6.2935 20.3629 6.26898C20.3757 6.20411 20.3974 6.0948 20.413 5.9917C20.4242 5.91748 20.4336 5.83906 20.4367 5.7682C20.4397 5.70082 20.4377 5.6274 20.4182 5.57047L20.4181 5.57023C20.4019 5.52336 20.3845 5.41124 20.3683 5.29257C20.3654 5.27135 20.3625 5.25007 20.3598 5.22948C20.3553 5.19583 20.351 5.164 20.3472 5.13722C20.344 5.11547 20.341 5.09554 20.338 5.07937C20.3359 5.06769 20.3321 5.04655 20.3251 5.02964C20.3109 4.99542 20.296 4.96092 20.2801 4.92694C20.1865 4.7226 19.9876 4.4481 19.817 4.22686C19.7335 4.1186 19.6549 4.02067 19.5956 3.94689L19.5894 3.93914C19.5593 3.9016 19.535 3.87129 19.5178 3.84927C19.5098 3.83891 19.5039 3.83115 19.4999 3.82573L14.3569 4.46218C14.4288 4.47158 14.4983 4.48639 14.572 4.50211C14.6108 4.51038 14.6508 4.51891 14.6929 4.52702C14.8092 4.54942 14.9348 4.5668 15.0606 4.55109C15.353 4.51491 15.6195 4.41768 15.8483 4.25738C15.8076 4.30701 15.7677 4.35749 15.733 4.40441C15.6899 4.46247 15.6507 4.52036 15.6287 4.56582L15.7188 4.60926M19.4849 7.79759C19.4353 7.84006 19.3206 7.91599 19.2119 7.98171C19.1563 8.01532 19.0998 8.04777 19.0507 8.07352C19.0051 8.09744 18.9561 8.12098 18.9199 8.1299L18.9198 8.12991C18.7411 8.17384 18.3322 8.21784 17.9459 8.24147C17.7512 8.25338 17.559 8.26031 17.4003 8.25932C17.321 8.25883 17.249 8.25635 17.1886 8.25134C17.1304 8.24652 17.0755 8.23881 17.0348 8.22493L17.0346 8.22487C16.9239 8.18691 16.8217 8.13104 16.727 8.07751C16.7156 8.07107 16.7044 8.06467 16.6932 8.05832C16.6092 8.01061 16.5309 7.96613 16.449 7.93128L16.4489 7.93125C16.3925 7.90714 16.3373 7.86273 16.2864 7.81276C16.2341 7.76141 16.1798 7.69767 16.1255 7.62726C16.0168 7.48637 15.903 7.31223 15.799 7.14169C15.5909 6.80043 15.417 6.46512 15.3939 6.41852L15.3937 6.41809C15.3629 6.3551 15.3475 6.2634 15.3386 6.17305C15.3293 6.07864 15.3257 5.97066 15.3251 5.86599C15.3241 5.70499 15.3301 5.5453 15.3336 5.45016C15.3346 5.42443 15.3354 5.40343 15.3358 5.38839C15.3357 5.38681 15.3356 5.38458 15.3355 5.38236C15.3352 5.37467 15.3351 5.35655 15.343 5.33577C15.3684 5.26531 15.3928 5.19216 15.4177 5.11778C15.4791 4.93387 15.5431 4.74246 15.6288 4.56564L15.7188 4.60926M19.4849 7.79759C19.4849 7.79757 19.485 7.79755 19.485 7.79752L19.4199 7.72157L19.4848 7.79766C19.4849 7.79764 19.4849 7.79762 19.4849 7.79759ZM15.7188 4.60926C15.7888 4.46412 16.1273 4.07707 16.1995 4.01785L15.4357 5.38258C15.4354 5.37874 15.4351 5.37473 15.4366 5.37109C15.4638 5.29553 15.4893 5.21915 15.5148 5.14275C15.5754 4.96141 15.636 4.77998 15.7188 4.60926ZM12.5345 3.29358C12.5864 3.22642 12.681 3.16937 12.7661 3.15421C12.9178 3.12731 13.0713 3.1101 13.2249 3.09289C13.3228 3.08191 13.4207 3.07094 13.5182 3.05744L13.5043 2.95841C13.9411 2.89732 14.2309 2.65515 14.4303 2.25134L14.4304 2.25119C14.5717 1.9663 14.7386 1.68203 14.9418 1.43175C15.2043 1.10814 15.5275 0.938688 15.874 0.905916C16.2182 0.873355 16.5757 0.976495 16.9097 1.17973L16.9098 1.17975C17.2553 1.39016 17.4183 1.69692 17.479 2.07013L13.5045 2.95839C13.4127 2.97109 13.317 2.98186 13.2197 2.9928C13.0629 3.01043 12.9022 3.0285 12.7487 3.05575L12.7486 3.05576C12.6395 3.07519 12.523 3.14515 12.4556 3.23203M12.5345 3.29358L12.4559 3.23168C12.4558 3.2318 12.4557 3.23191 12.4556 3.23203M12.5345 3.29358C12.5049 3.33113 12.5294 3.45822 12.5727 3.49504L12.4556 3.23203M12.5345 3.29358L12.4554 3.23238C12.4555 3.23226 12.4556 3.23214 12.4556 3.23203M19.1276 7.076L19.0577 7.00456C18.9202 7.13924 18.7791 7.26478 18.6248 7.33709C18.4645 7.41208 18.2815 7.44579 18.0875 7.48153C18.069 7.48493 18.0504 7.48836 18.0318 7.49184L18.0316 7.49187C17.9307 7.51084 17.8319 7.51595 17.7258 7.52144C17.6789 7.52386 17.6306 7.52636 17.5801 7.53016L17.58 7.53012L17.533 7.51521C17.494 7.50274 17.4424 7.48603 17.391 7.46914C17.3395 7.45222 17.2886 7.43526 17.251 7.42224C17.232 7.41568 17.2171 7.4104 17.2075 7.40674L17.2038 7.40533C17.1073 7.34998 16.9635 7.25801 16.8445 7.17688C16.7848 7.13619 16.7328 7.09918 16.6968 7.07159C16.6886 7.06528 16.6816 7.05976 16.6758 7.05505L16.6512 7.02842C16.5932 6.96549 16.5143 6.85388 16.4373 6.74496C16.4246 6.727 16.412 6.70911 16.3995 6.69152C16.3573 6.63212 16.3163 6.57541 16.2839 6.53715C16.2714 6.52229 16.2554 6.50436 16.238 6.49036C16.2154 6.41415 16.1773 6.32543 16.1457 6.2542C16.1369 6.23455 16.1287 6.21619 16.121 6.19913C16.1099 6.17432 16.0999 6.15224 16.0916 6.13285C16.085 6.11767 16.0804 6.10631 16.0775 6.09842C16.0774 6.07551 16.0747 6.04734 16.0721 6.02248C16.0688 5.99038 16.0641 5.95244 16.0595 5.9145L16.058 5.90209C16.047 5.81214 16.0383 5.73529 16.0396 5.70576C16.0851 4.78013 16.6596 4.09005 17.573 3.92195L17.5549 3.82361L17.5728 3.92199C17.5976 3.91748 17.6558 3.9202 17.7462 3.93443C17.8316 3.94789 17.9329 3.96934 18.0354 3.99344C18.1761 4.02651 18.3117 4.06261 18.4113 4.08914C18.4589 4.10182 18.4983 4.1123 18.5261 4.11922C18.707 4.16437 18.8373 4.27947 18.9865 4.41128C19.016 4.43734 19.0463 4.46406 19.0778 4.49101L19.078 4.49114C19.2364 4.62609 19.3847 4.77405 19.4668 4.93906L19.4669 4.9392C19.4963 4.998 19.538 5.12738 19.5739 5.25444C19.5913 5.31625 19.6066 5.37471 19.6174 5.41952C19.6228 5.44199 19.627 5.46046 19.6297 5.47391C19.6319 5.48472 19.6325 5.48892 19.6326 5.48891C19.6326 5.48891 19.6326 5.48867 19.6326 5.48821C19.634 5.51949 19.6371 5.5546 19.64 5.58667C19.6416 5.60481 19.6431 5.62198 19.6442 5.63691C19.6475 5.68323 19.6482 5.72311 19.6429 5.75968L19.6428 5.76001C19.6191 5.92764 19.5919 6.08955 19.5416 6.23983L19.5416 6.23996C19.4445 6.5313 19.2775 6.78808 19.0575 7.00475L19.1276 7.076ZM19.1276 7.076C18.9898 7.21103 18.8382 7.34751 18.6672 7.42767L19.1276 7.076ZM16.7446 2.12458L16.7445 2.12429C16.6629 1.97303 16.5677 1.85049 16.4522 1.76675C16.3385 1.68427 16.2004 1.63601 16.0247 1.63954L16.7446 2.12458ZM16.7446 2.12458C16.7607 2.15422 16.7707 2.19257 16.7781 2.24278C16.7817 2.26756 16.7845 2.29313 16.7874 2.32094L16.7874 2.321L16.7874 2.32105C16.7889 2.33499 16.7905 2.34954 16.7922 2.36432C16.6671 2.39457 16.567 2.46284 16.4817 2.52424C16.4716 2.5315 16.4617 2.53864 16.452 2.54566C16.3632 2.60998 16.29 2.66307 16.2027 2.69055L16.2327 2.78593M16.7446 2.12458L13.773 3.52333M13.773 3.52333C13.985 3.43786 14.1963 3.35231 14.3905 3.24365L14.3905 3.24364C14.6856 3.07856 14.9313 2.84648 15.0825 2.51069L15.0825 2.51063C15.1729 2.30952 15.2975 2.12528 15.4271 1.93363C15.462 1.88198 15.4973 1.82979 15.5324 1.77659L15.5326 1.77624C15.5389 1.76654 15.5523 1.75405 15.5812 1.73544C15.5878 1.73117 15.597 1.72562 15.6073 1.71931C15.6284 1.70648 15.6547 1.69052 15.6754 1.67586C15.6773 1.67543 15.6795 1.67496 15.6819 1.67445C15.7045 1.66978 15.7387 1.66448 15.7795 1.65937C15.861 1.64917 15.9592 1.6409 16.0247 1.63954L13.773 3.52333ZM13.773 3.52333C13.9449 3.55968 14.1529 3.59827 14.3518 3.63372C14.4611 3.6532 14.5663 3.67151 14.66 3.68782C14.7101 3.69655 14.757 3.70471 14.7995 3.71217C14.8601 3.72282 14.9119 3.73207 14.9507 3.73944C14.9618 3.74154 14.9729 3.74369 14.9835 3.74584C14.9851 3.74457 14.9868 3.74325 14.9885 3.74186C15.0147 3.72071 15.0519 3.68934 15.097 3.65045C15.1868 3.57288 15.3052 3.46787 15.4244 3.36072C15.5436 3.25364 15.6632 3.14481 15.7554 3.05975C15.8016 3.01719 15.8406 2.98078 15.8692 2.95361C15.894 2.93001 15.9068 2.91722 15.9111 2.91297C15.9122 2.91181 15.9128 2.91129 15.9127 2.91135C15.9795 2.82682 16.0822 2.72823 16.2029 2.69049L16.2327 2.78593M16.2327 2.78593C16.1403 2.81482 16.053 2.89497 15.9909 2.97368L16.5098 2.62731C16.4233 2.69019 16.3365 2.75327 16.2327 2.78593ZM13.2532 4.07704C13.2015 4.05253 13.1503 4.02823 13.0993 4.00458L13.2532 4.07704ZM13.2532 4.07704C13.5948 4.23892 13.9553 4.40982 14.3569 4.46218L13.2532 4.07704ZM18.896 8.0328C18.5582 8.11584 17.2937 8.20755 17.067 8.13028C16.9541 8.09152 16.8485 8.03155 16.7427 7.97143C16.6593 7.92402 16.5757 7.87652 16.4882 7.83927L18.896 8.0328ZM18.4911 3.29855L18.5148 3.23311L18.3465 3.26059C18.3104 3.26648 18.1939 3.26648 18.0811 3.246C18.0255 3.23591 17.9783 3.22209 17.9457 3.20579C17.923 3.1944 17.9159 3.18628 17.9142 3.18409C17.9081 3.15696 17.8954 3.13651 17.8889 3.12645L17.8837 3.11848L17.88 3.11286C17.878 3.10965 17.8775 3.10868 17.8775 3.10878C17.847 3.04765 17.8173 2.98731 17.7866 2.92509C17.762 2.87517 17.7369 2.82405 17.7102 2.77033L17.6618 2.6729L17.6542 2.67753C17.6479 2.66306 17.6414 2.64724 17.6347 2.63061C17.6191 2.59137 17.6038 2.54993 17.5919 2.5152C17.586 2.49783 17.5811 2.4826 17.5774 2.47045L17.5732 2.45556C17.5721 2.45143 17.5718 2.44973 17.5718 2.44982L17.5718 2.44979C17.5598 2.38309 17.5415 2.31807 17.5247 2.25841L17.5223 2.24976L18.4911 3.29855ZM20.2605 5.24191C20.2777 5.37035 20.2995 5.53317 20.3236 5.60289L20.2326 5.06781C20.2393 5.08356 20.2489 5.15484 20.2605 5.24191ZM15.9602 5.92656C15.9701 6.00696 15.9793 6.08226 15.9772 6.10837L15.9397 5.7011C15.9378 5.74312 15.9494 5.83794 15.9602 5.92656ZM16.2005 6.5935C16.2094 6.60363 16.2193 6.61581 16.2301 6.62964C16.2415 6.61708 16.2469 6.60425 16.2494 6.5964L16.2005 6.5935ZM16.0768 6.11785L16.0769 6.11624L16.0768 6.11785ZM16.8464 2.35395L16.8458 2.35404L16.8464 2.35395ZM17.1241 3.39277C17.048 3.4252 16.9707 3.45806 16.8947 3.49034C16.8821 3.49572 16.8695 3.50108 16.8569 3.50641C16.8535 3.4968 16.8502 3.48718 16.8468 3.47753C16.8299 3.42933 16.8129 3.38062 16.7952 3.3305C16.8554 3.30411 16.9197 3.27601 16.9891 3.24566C17.0057 3.23838 17.0226 3.23097 17.0399 3.22343C17.0667 3.27764 17.0945 3.33356 17.1241 3.39277Z" fill="white" stroke="white" stroke-width="0.2"/>
<path d="M17.8262 11.0202C17.797 11.0129 17.7283 11.008 17.6471 11.0022C17.4951 10.9913 17.2993 10.9772 17.2358 10.9386L17.9336 11.131C17.9335 11.131 17.9334 11.131 17.9333 11.131C17.8916 11.1319 17.8462 11.1286 17.8014 11.1171L17.8262 11.0202ZM17.8262 11.0202L17.8019 11.1172M17.8262 11.0202L17.8019 11.1172M19.5057 11.3979L19.5781 11.4669C19.5778 11.4672 19.5813 11.4637 19.5908 11.4576C19.5993 11.452 19.6095 11.4462 19.6195 11.4413C19.6239 11.4391 19.6279 11.4372 19.6312 11.4358C19.6339 11.4357 19.6362 11.4355 19.638 11.4354C19.6544 11.434 19.6684 11.4286 19.6718 11.4273L19.6722 11.4271C19.6835 11.4228 19.6971 11.4163 19.7103 11.4098C19.7381 11.3959 19.7774 11.3748 19.8236 11.3492C19.9163 11.2977 20.041 11.2258 20.1656 11.1518C20.2901 11.0778 20.4157 11.001 20.5098 10.9398C20.5565 10.9094 20.5971 10.8818 20.6263 10.8599C20.6404 10.8493 20.6546 10.838 20.6658 10.8271C20.6711 10.8221 20.6792 10.8138 20.6864 10.8032C20.69 10.798 20.6957 10.7888 20.6999 10.7765C20.704 10.7647 20.7096 10.7416 20.7018 10.714L20.7016 10.7134C20.6981 10.7015 20.6958 10.6879 20.6922 10.6666C20.6917 10.6633 20.6911 10.6597 20.6904 10.656C20.6864 10.6321 20.6805 10.5991 20.6684 10.5674C20.656 10.5345 20.6348 10.497 20.5964 10.4682C20.5575 10.439 20.5106 10.4259 20.4597 10.4249L20.4595 10.4249L18.3005 11.1217C18.3824 11.1221 18.4643 11.1252 18.5471 11.1291C18.4857 11.1626 18.426 11.196 18.3671 11.2291C18.2543 11.2924 18.1441 11.3542 18.0285 11.4116L18.0284 11.4116C17.9475 11.4519 17.8637 11.4876 17.7766 11.5244L17.7645 11.5295C17.6822 11.5643 17.597 11.6002 17.5135 11.6407C17.3902 11.7002 17.2688 11.7625 17.1486 11.8244C17.1408 11.8284 17.1331 11.8324 17.1254 11.8363C17.0128 11.8943 16.9013 11.9518 16.7885 12.007C16.7222 12.0391 16.4194 12.1865 16.3377 12.2346L16.3375 12.2347C16.2788 12.2694 16.2183 12.3008 16.155 12.3336C16.1406 12.3411 16.126 12.3486 16.1113 12.3563C16.0334 12.3969 15.9524 12.4407 15.8755 12.4928C15.7638 12.5682 15.6977 12.6747 15.695 12.7937C15.6924 12.911 15.7519 13.0197 15.8483 13.1012L15.8483 13.1013C15.9459 13.1836 16.0413 13.2395 16.1589 13.2301C16.2659 13.2216 16.3716 13.159 16.4927 13.0774L16.4368 12.9945M19.5057 11.3979L19.5781 11.4668C19.5545 11.4916 19.5234 11.5088 19.5005 11.5201C19.4754 11.5324 19.4482 11.5432 19.4247 11.552C19.4108 11.5572 19.4004 11.561 19.3912 11.5643C19.3819 11.5677 19.3738 11.5706 19.3645 11.5741C19.3639 11.5744 19.3632 11.5746 19.3626 11.5749C19.337 11.6036 19.3021 11.6309 19.2676 11.6553C19.2215 11.688 19.1639 11.7237 19.0999 11.7608C18.9715 11.8352 18.8112 11.9184 18.651 11.9984C18.4757 12.086 18.3034 12.1684 18.1689 12.2326C18.0531 12.288 17.9654 12.3299 17.9279 12.3502L17.8803 12.2623M19.5057 11.3979C19.4788 11.4261 19.4096 11.4512 19.3583 11.4699C19.3267 11.4813 19.3019 11.4903 19.2978 11.4961C19.2077 11.625 18.5202 11.9538 18.1297 12.1406C18.0103 12.1976 17.9186 12.2415 17.8803 12.2623M19.5057 11.3979C19.513 11.3902 19.5238 11.3819 19.5359 11.374L15.9128 13.0248C16.0969 13.1801 16.1892 13.1613 16.4368 12.9945M17.8803 12.2623L17.9281 12.3501C17.8091 12.4148 17.6868 12.4758 17.5615 12.5384C17.5101 12.5641 17.4582 12.59 17.4058 12.6165L17.3309 12.6544L17.3212 12.6414C17.3133 12.644 17.3049 12.6469 17.2963 12.6499C17.2723 12.6585 17.2478 12.6684 17.2264 12.6789C17.2039 12.6899 17.1901 12.699 17.1839 12.7045L17.1838 12.7046C17.1429 12.7409 17.0811 12.7788 17.0174 12.8142C16.9517 12.8507 16.8765 12.8885 16.8041 12.9237C16.7628 12.9438 16.7205 12.9641 16.6814 12.9827C16.6533 12.9962 16.6269 13.0088 16.6038 13.02C16.5435 13.0492 16.506 13.0685 16.4924 13.0776L16.4368 12.9945M17.8803 12.2623C17.763 12.3261 17.6432 12.3859 17.5185 12.4481C17.4668 12.4739 17.4142 12.5002 17.3606 12.5273C17.3585 12.5244 17.1824 12.5721 17.1174 12.6298C17.0351 12.7029 16.8107 12.8101 16.6393 12.892C16.5447 12.9372 16.4663 12.9747 16.4368 12.9945M20.4576 10.5249C20.0715 10.5176 19.6854 10.514 19.2985 10.5119L19.2991 10.4119C19.2991 10.4119 19.2991 10.4119 19.2991 10.4119C19.0415 10.4103 18.7842 10.4106 18.5167 10.4109C18.5152 10.4109 18.5137 10.4109 18.5122 10.4109C18.8216 10.2203 19.1312 10.0297 19.4408 9.83917C19.8112 9.61117 20.1817 9.38314 20.552 9.15494L20.552 9.15491C20.5912 9.13071 20.632 9.10643 20.6735 9.08172C20.7884 9.01326 20.909 8.94144 21.0182 8.85849M20.4576 10.5249L20.4972 8.386C20.5408 8.35894 20.5987 8.32301 20.6549 8.30215C20.7399 8.27057 20.8412 8.26295 20.9469 8.32718M20.4576 10.5249C20.5675 10.5271 20.581 10.6076 20.5935 10.6826M20.4576 10.5249L20.5935 10.6826M21.0182 8.85849C21.0182 8.85851 21.0182 8.85852 21.0182 8.85854L20.9578 8.7788L21.0183 8.85844C21.0183 8.85846 21.0182 8.85848 21.0182 8.85849ZM21.0182 8.85849C21.0618 8.82547 21.0979 8.77621 21.1217 8.7282C21.1446 8.68216 21.1653 8.6189 21.1555 8.55729L21.1554 8.55675C21.1444 8.4902 21.0974 8.44034 21.0631 8.40989C21.0252 8.37634 20.9811 8.34789 20.9469 8.32718M20.9469 8.32718C20.9469 8.3272 20.947 8.32722 20.947 8.32725L20.895 8.41269L20.9468 8.32711C20.9468 8.32714 20.9468 8.32716 20.9469 8.32718ZM17.1838 11.0241L17.1836 11.024C17.0926 10.9683 17.0559 10.8844 17.0578 10.7975C17.0594 10.7195 17.0916 10.6439 17.1231 10.5852L17.1231 10.5852C17.1511 10.533 17.1956 10.4858 17.2397 10.4464C17.2851 10.4059 17.3362 10.3683 17.3835 10.3363C17.431 10.3042 17.4762 10.2767 17.5104 10.2567C17.5275 10.2466 17.542 10.2384 17.5524 10.2325C17.5563 10.2303 17.5592 10.2286 17.5613 10.2274C17.5665 10.2245 17.5669 10.2242 17.5657 10.225L17.6212 10.3082L17.5651 10.2254C17.6888 10.1417 17.8125 10.0564 17.9366 9.97071C18.2139 9.77929 18.4935 9.58637 18.78 9.40743L17.1838 11.0241ZM17.1838 11.0241C17.2267 11.0502 17.2887 11.0635 17.3411 11.0721M17.1838 11.0241L17.3411 11.0721M17.3411 11.0721C17.3985 11.0815 17.4647 11.0882 17.5278 11.0934M17.3411 11.0721L17.5278 11.0934M17.5278 11.0934C17.5659 11.0966 17.6052 11.0994 17.6412 11.102M17.5278 11.0934L17.6412 11.102M17.6412 11.102C17.664 11.1037 17.6855 11.1052 17.7046 11.1067M17.6412 11.102L17.7046 11.1067M17.7046 11.1067C17.7594 11.1109 17.791 11.1145 17.8019 11.1172M17.7046 11.1067L17.8019 11.1172M20.5935 10.6826C20.5969 10.7032 20.6003 10.7234 20.6056 10.7415L20.5935 10.6826ZM20.4603 8.4084C19.8965 8.73343 19.333 9.06199 18.78 9.40742L20.4603 8.4084Z" fill="white" stroke="white" stroke-width="0.2"/>
<path d="M16.6867 10.6799C16.6997 10.6644 16.7133 10.6492 16.7271 10.6343L16.5726 9.91663C16.5377 9.9595 16.5037 10.0034 16.4698 10.0473C16.4076 10.1276 16.3453 10.208 16.2767 10.2827C16.253 10.3085 16.2293 10.3344 16.2056 10.3603C16.0535 10.5266 15.9009 10.6933 15.7311 10.8395C15.6055 10.9478 15.5838 11.054 15.6156 11.2005C15.6517 11.3652 15.8235 11.5262 15.9411 11.4793M16.6867 10.6799C16.6523 10.7211 16.618 10.7625 16.5836 10.804C16.5128 10.8895 16.4418 10.9751 16.3698 11.0597C16.3698 11.0598 16.3694 11.0603 16.3688 11.0612C16.3523 11.0856 16.139 11.4008 15.9411 11.4793M16.6867 10.6799L16.7635 10.7439C16.7295 10.7847 16.6954 10.8258 16.6611 10.8671C16.5912 10.9516 16.5207 11.0366 16.4495 11.1204L17.5797 9.60921M16.6867 10.6799L16.7632 10.7443C16.7852 10.7182 16.8075 10.6946 16.8318 10.669C16.8389 10.6615 16.8462 10.6538 16.8537 10.6458C16.8682 10.6366 16.8775 10.6259 16.8809 10.622C16.8911 10.6102 16.8998 10.5962 16.9054 10.5868C16.9138 10.5728 16.9238 10.5543 16.9313 10.5405C16.9338 10.5358 16.9361 10.5317 16.9378 10.5284M15.9411 11.4793L15.9782 11.5722C15.9781 11.5722 15.978 11.5722 15.978 11.5722C15.8651 11.6171 15.7523 11.5568 15.6815 11.4942C15.6055 11.427 15.5411 11.3275 15.5179 11.222L15.5179 11.2217C15.5001 11.1396 15.4948 11.058 15.5184 10.9775C15.5423 10.8959 15.5926 10.8269 15.6658 10.7638L15.6658 10.7637C15.8308 10.6217 15.9789 10.4598 16.1313 10.2933C16.1551 10.2673 16.179 10.2412 16.2031 10.215L16.2767 10.2827L16.2031 10.2151C16.2692 10.1431 16.3266 10.0688 16.3867 9.99106C16.4212 9.94643 16.4566 9.90064 16.4951 9.85345L16.4953 9.8532C16.5316 9.80901 16.568 9.76326 16.605 9.71685C16.7082 9.58717 16.8155 9.45236 16.9346 9.33211C16.9857 9.28056 17.0479 9.24642 17.1054 9.21865C17.1291 9.20721 17.151 9.19721 17.1724 9.18748C17.2078 9.17135 17.2416 9.15596 17.2789 9.13597L17.3246 9.11152L17.3709 9.13469C17.3703 9.13439 17.4234 9.15768 17.4647 9.18229L17.4135 9.26817M15.9411 11.4793L17.5797 9.60921M17.4135 9.26817C17.3839 9.25054 17.3521 9.23605 17.3357 9.22857C17.3313 9.22655 17.328 9.22504 17.3261 9.22412C17.2865 9.24533 17.2472 9.2633 17.2094 9.28054C17.1302 9.31672 17.058 9.34966 17.0057 9.40248L16.8601 10.4838L16.9369 10.53C16.9372 10.5295 16.9375 10.529 16.9378 10.5284M17.4135 9.26817C17.5297 9.33677 17.5795 9.43281 17.4972 9.55268M17.4135 9.26817L17.4643 9.18206C17.5322 9.22211 17.5964 9.27895 17.6241 9.35809C17.6539 9.44301 17.634 9.53009 17.5797 9.60921M17.4972 9.55268C17.4249 9.65811 17.3449 9.75863 17.2652 9.85886C17.2389 9.89181 17.2127 9.92473 17.1868 9.95779C17.1008 10.0674 16.8913 10.412 16.8528 10.4758L16.8593 10.4829L16.9387 10.527C16.9384 10.5274 16.9381 10.5279 16.9378 10.5284M17.4972 9.55268L17.5796 9.60928C17.5797 9.60925 17.5797 9.60923 17.5797 9.60921M17.4972 9.55268L17.5797 9.60921M16.9378 10.5284C16.9761 10.4649 17.1837 10.1237 17.2655 10.0196L17.2656 10.0195C17.2904 9.98776 17.3159 9.9557 17.3417 9.92326C17.422 9.82238 17.5052 9.71787 17.5797 9.60921" fill="white" stroke="white" stroke-width="0.2"/>
<path d="M17.8635 13.2747C17.9876 13.2646 18.1139 13.2667 18.2388 13.2696L17.8635 13.2747ZM17.8635 13.2747C17.8229 13.2773 17.4842 13.3351 17.3787 13.3531C17.3661 13.3553 17.3568 13.3569 17.3518 13.3577M17.8635 13.2747L17.3518 13.3577M18.1509 12.6405L18.1512 12.6405C18.2121 12.6443 18.2727 12.6459 18.3355 12.6475C18.3538 12.648 18.3723 12.6485 18.391 12.649C18.4726 12.6514 18.5573 12.6549 18.6423 12.6648L18.6307 12.7642L18.642 12.6648L18.1509 12.6405ZM18.1509 12.6405C18.0774 12.6361 17.8778 12.6444 17.6823 12.6533M18.1509 12.6405L17.6823 12.6533M19.5285 12.8838C19.4955 12.8048 19.4468 12.738 19.3762 12.6971C19.3046 12.6557 19.2234 12.6481 19.1406 12.6637L19.2589 13.3927C19.2589 13.3927 19.2589 13.3927 19.259 13.3927M19.5285 12.8838L19.4362 12.9223L19.5284 12.8837C19.5284 12.8837 19.5285 12.8838 19.5285 12.8838ZM19.5285 12.8838C19.5613 12.9622 19.5764 13.0428 19.5617 13.1228C19.5468 13.2039 19.5033 13.2731 19.4392 13.3314L19.4385 13.332L19.4385 13.332C19.387 13.378 19.3122 13.3937 19.259 13.3927M19.259 13.3927C19.0764 13.3896 18.8914 13.385 18.7069 13.3804C18.5493 13.3765 18.3921 13.3726 18.2369 13.3696L18.2365 13.3696C18.1113 13.3667 17.9899 13.3647 17.8716 13.3744L17.8698 13.3745L17.8698 13.3745C17.8698 13.3745 17.8698 13.3745 17.8697 13.3745C17.8693 13.3745 17.8672 13.3747 17.863 13.3752L17.8445 13.3778C17.8292 13.3799 17.8095 13.3829 17.7865 13.3865C17.7405 13.3938 17.6827 13.4033 17.6246 13.4129C17.5334 13.4281 17.4424 13.4437 17.3959 13.4517C17.383 13.4538 17.3736 13.4555 17.3685 13.4563L17.3518 13.3577M19.259 13.3927L17.1878 12.6743C16.9888 12.6773 16.8911 12.8177 16.8499 12.9193M17.3518 13.3577L17.3694 13.4562C17.2054 13.4856 17.0474 13.4331 16.9434 13.3332C16.8378 13.2319 16.7856 13.0775 16.8499 12.9193M16.8499 12.9193C16.8499 12.9194 16.8498 12.9194 16.8498 12.9194L16.9425 12.957L16.8499 12.9193C16.8499 12.9193 16.8499 12.9193 16.8499 12.9193ZM17.6823 12.6533C17.6382 12.6554 17.594 12.6574 17.5509 12.6595M17.6823 12.6533L17.5509 12.6595M17.5509 12.6595C17.3979 12.6666 17.2589 12.6732 17.1878 12.6743L17.5509 12.6595Z" fill="white" stroke="white" stroke-width="0.2"/>
</svg>
