<svg width="25" height="25" viewBox="0 0 25 25" fill="none" xmlns="http://www.w3.org/2000/svg">
<path fill-rule="evenodd" clip-rule="evenodd" d="M12.5 0C9.18479 0 6.00537 1.31699 3.66116 3.66126C1.31696 6.00553 0 9.18503 0 12.5003C8.54614e-05 14.1419 0.323492 15.7674 0.951755 17.2839C1.58002 18.8005 2.50083 20.1785 3.66163 21.3392C4.82242 22.4999 6.20046 23.4206 7.71706 24.0487C9.23366 24.6768 10.8591 25.0001 12.5007 25C14.1422 24.9999 15.7676 24.6765 17.2841 24.0482C18.8007 23.4199 20.1786 22.4991 21.3393 21.3383C22.5 20.1775 23.4206 18.7994 24.0487 17.2827C24.6768 15.7661 25.0001 14.1406 25 12.499C25 5.5965 19.4023 0 12.5 0ZM12.5 22.3951C11.191 22.4101 9.89202 22.1653 8.67831 21.6747C7.4646 21.1842 6.36029 20.4577 5.42933 19.5373C4.49836 18.6169 3.75926 17.521 3.25483 16.3129C2.75039 15.1049 2.49066 13.8088 2.49066 12.4997C2.49066 11.1905 2.75039 9.89443 3.25483 8.6864C3.75926 7.47837 4.49836 6.38243 5.42933 5.46206C6.36029 4.5417 7.4646 3.81519 8.67831 3.32464C9.89202 2.83408 11.191 2.58922 12.5 2.60423C13.809 2.58922 15.108 2.83408 16.3217 3.32464C17.5354 3.81519 18.6397 4.5417 19.5707 5.46206C20.5016 6.38243 21.2407 7.47837 21.7452 8.6864C22.2496 9.89443 22.5093 11.1905 22.5093 12.4997C22.5093 13.8088 22.2496 15.1049 21.7452 16.3129C21.2407 17.521 20.5016 18.6169 19.5707 19.5373C18.6397 20.4577 17.5354 21.1842 16.3217 21.6747C15.108 22.1653 13.809 22.4101 12.5 22.3951ZM9.24609 12.1748C10.3242 12.1748 11.1979 11.1552 11.1979 9.89609C11.1979 8.63694 10.3229 7.61739 9.24479 7.61739C8.16667 7.61739 7.29167 8.63694 7.29167 9.89609C7.29167 11.1552 8.16667 12.1748 9.24609 12.1748ZM15.7552 12.1748C16.8346 12.1748 17.7083 11.1552 17.7083 9.89609C17.7083 8.63694 16.8333 7.61739 15.7552 7.61739C14.6771 7.61739 13.8021 8.63825 13.8021 9.89609C13.8021 11.1539 14.6771 12.1748 15.7552 12.1748ZM18.1523 14.24C17.9225 14.124 17.6564 14.1027 17.4111 14.1806C17.1658 14.2585 16.9607 14.4294 16.8398 14.6566C16.7956 14.7426 15.7083 16.7309 12.5013 16.7309C9.3099 16.7309 8.21615 14.7608 8.16146 14.6579C8.04439 14.4267 7.84027 14.2515 7.59401 14.1708C7.34774 14.0901 7.07951 14.1105 6.84831 14.2276C6.61711 14.3447 6.44188 14.5488 6.36118 14.795C6.28047 15.0413 6.3009 15.3096 6.41797 15.5408C6.48307 15.6697 8.04297 18.6841 12.5013 18.6841C16.9609 18.6841 18.5182 15.6684 18.582 15.5395C18.6968 15.3101 18.716 15.0445 18.6354 14.801C18.5549 14.5575 18.3812 14.3557 18.1523 14.24ZM9.86845 8.25049L9.54883 9.73386L10.7119 9.73777L9.13155 11.7495L9.45117 10.1174L8.28811 10.1135L9.86845 8.25049ZM9.86845 8H9.84625C9.82258 8.00261 9.80186 8.00718 9.78411 8.0137C9.76635 8.02022 9.74637 8.03001 9.72418 8.04305C9.70198 8.0561 9.682 8.07175 9.66425 8.09002C9.66129 8.09263 9.65907 8.09524 9.65759 8.09785C9.65611 8.10046 9.65389 8.10307 9.65093 8.10567L8.05728 9.96086C7.98921 10.0444 7.98181 10.1318 8.03508 10.2231C8.04396 10.2387 8.05506 10.2538 8.06837 10.2681C8.08169 10.2825 8.09649 10.2955 8.11277 10.3072C8.12904 10.319 8.1468 10.3288 8.16603 10.3366C8.18527 10.3444 8.20525 10.3503 8.22596 10.3542C8.24668 10.3581 8.2674 10.3601 8.28811 10.3601L9.10935 10.364L8.84744 11.7065C8.83561 11.7639 8.84597 11.818 8.87852 11.8689C8.91107 11.9198 8.95694 11.9569 9.01613 11.9804C9.03389 11.9883 9.05239 11.9935 9.07162 11.9961C9.09086 11.9987 9.11083 12 9.13155 12C9.21737 12 9.28988 11.9661 9.34907 11.8982L10.9427 9.8865C11.0108 9.803 11.0182 9.71559 10.9649 9.62427C10.9116 9.53294 10.8273 9.48728 10.7119 9.48728H9.89065L10.1481 8.3092C10.1511 8.29876 10.1533 8.28898 10.1548 8.27984C10.1563 8.27071 10.157 8.26093 10.157 8.25049C10.157 8.22701 10.1533 8.20483 10.1459 8.18395C10.1385 8.16308 10.1289 8.14351 10.117 8.12525C10.1052 8.10698 10.0911 8.09002 10.0749 8.07436C10.0586 8.05871 10.0401 8.04566 10.0194 8.03522C9.99866 8.02479 9.97647 8.01631 9.95279 8.00978C9.92912 8.00326 9.90544 8 9.88177 8H9.86845ZM15.5488 9.73386L15.8684 8.25049L14.2881 10.1135L15.4512 10.1174L15.1315 11.7495L16.7119 9.73777L15.5488 9.73386ZM15.8463 8H15.8684H15.8818C15.9054 8 15.9291 8.00326 15.9528 8.00978C15.9765 8.01631 15.9987 8.02479 16.0194 8.03522C16.0401 8.04566 16.0586 8.05871 16.0749 8.07436C16.0911 8.09002 16.1052 8.10698 16.117 8.12525C16.1289 8.14351 16.1385 8.16308 16.1459 8.18395C16.1533 8.20483 16.157 8.22701 16.157 8.25049C16.157 8.26093 16.1563 8.27071 16.1548 8.27984C16.1533 8.28898 16.1511 8.29876 16.1481 8.3092L15.8906 9.48728H16.7119C16.8273 9.48728 16.9116 9.53294 16.9649 9.62427C17.0182 9.71559 17.0108 9.803 16.9427 9.8865L15.3491 11.8982C15.2899 11.9661 15.2174 12 15.1315 12C15.1108 12 15.0909 11.9987 15.0716 11.9961C15.0524 11.9935 15.0339 11.9883 15.0161 11.9804C14.9569 11.9569 14.9111 11.9198 14.8785 11.8689C14.846 11.818 14.8356 11.7639 14.8474 11.7065L15.1094 10.364L14.2881 10.3601C14.2674 10.3601 14.2467 10.3581 14.226 10.3542C14.2052 10.3503 14.1853 10.3444 14.166 10.3366C14.1468 10.3288 14.129 10.319 14.1128 10.3072C14.0965 10.2955 14.0817 10.2825 14.0684 10.2681C14.0551 10.2538 14.044 10.2387 14.0351 10.2231C13.9818 10.1318 13.9892 10.0444 14.0573 9.96086L15.6509 8.10567C15.6539 8.10307 15.6561 8.10046 15.6576 8.09785C15.6591 8.09524 15.6613 8.09263 15.6642 8.09002C15.682 8.07175 15.702 8.0561 15.7242 8.04305C15.7464 8.03001 15.7663 8.02022 15.7841 8.0137C15.8019 8.00718 15.8226 8.00261 15.8463 8Z" fill="white"/>
</svg>
