<svg width="24" height="27" viewBox="0 0 24 27" fill="none" xmlns="http://www.w3.org/2000/svg">
<mask id="path-1-outside-1" maskUnits="userSpaceOnUse" x="0" y="0" width="24" height="27" fill="black">
<rect fill="white" width="24" height="27"/>
<path d="M2.36225 15.6113C2.00329 15.4016 1.74441 15.1215 1.63035 14.7366C1.5722 14.5399 1.57444 14.3257 1.54424 14.12C1.53586 14.0619 1.52076 13.9954 1.48554 13.9515C0.742457 13.03 0.863788 11.7224 1.77069 10.9671C1.87189 10.8826 1.88084 10.8381 1.79026 10.7293C1.26021 10.0947 1.11875 9.37211 1.41173 8.59658C1.70192 7.82724 2.27782 7.38537 3.08575 7.25574C3.15732 7.24447 3.22945 7.2394 3.30158 7.23038C3.30605 7.22981 3.3094 7.22474 3.3245 7.21403C3.03376 6.45935 3.09135 5.73173 3.58785 5.07963C4.08603 4.42527 4.76984 4.18348 5.58784 4.27535C5.51348 3.43106 5.73993 2.70738 6.42765 2.19505C7.126 1.67428 7.87746 1.7126 8.65689 2.05302C9.04883 1.49843 9.57609 1.13715 10.2554 1.03063C10.9359 0.924106 11.5498 1.09713 12.1033 1.52323C12.3874 1.30116 12.6994 1.13546 13.0494 1.06219C13.8925 0.885216 14.6306 1.09432 15.2507 1.70077C15.3261 1.7746 15.377 1.79602 15.4827 1.74755C16.4807 1.2882 17.6404 1.62017 18.2498 2.53942C18.3169 2.64087 18.3773 2.66229 18.4947 2.64425C19.3876 2.50617 20.2302 3.23492 20.2465 4.15079C20.2476 4.2235 20.2465 4.29677 20.2465 4.383C20.9208 4.39484 21.4564 4.67157 21.7846 5.27633C22.11 5.87658 22.0552 6.4757 21.708 7.05284C22.5909 7.64012 22.753 8.69408 22.2453 9.5023C22.729 9.82131 23.0242 10.2649 23.0639 10.8561C23.1036 11.4485 22.8738 11.9287 22.422 12.3187C22.805 12.7143 22.9795 13.1844 22.9235 13.7311C22.8676 14.2806 22.5858 14.6943 22.138 15.0004C23.24 16.1011 22.5131 17.9599 20.9241 17.9751C20.9409 18.0326 20.9565 18.0861 20.9716 18.1402C21.126 18.6948 21.0617 19.2224 20.7698 19.7172C20.7195 19.8023 20.7228 19.8564 20.7782 19.9354C21.4374 20.8704 21.9468 21.8866 22.3734 22.9467C22.431 23.0905 22.3941 23.2105 22.2822 23.2579C22.1592 23.3103 22.0485 23.2562 21.987 23.1057C21.5626 22.0602 21.06 21.0575 20.4058 20.1366C19.9674 19.5194 19.4877 18.9411 18.8777 18.4857C18.7765 18.4102 18.6686 18.3082 18.5406 18.404C18.4175 18.4959 18.4668 18.6357 18.5065 18.7551C18.6278 19.1175 18.8526 19.4185 19.0935 19.7048C19.6404 20.3552 20.0815 21.0767 20.5064 21.8094C20.592 21.957 20.5679 22.0895 20.4544 22.152C20.3376 22.2163 20.2314 22.1673 20.1374 22.0123C19.9104 21.638 19.7086 21.2441 19.4458 20.8974C19.0829 20.4184 18.6876 19.9618 18.2817 19.5188C17.4709 18.6334 16.6239 17.7824 15.6907 17.0265C15.3793 16.774 15.0365 16.5599 14.7027 16.3367C14.62 16.2814 14.5182 16.2504 14.4204 16.2262C14.2906 16.1941 14.1805 16.2471 14.1033 16.353C14.0279 16.4567 14.0446 16.5695 14.1162 16.6658C14.1704 16.7391 14.2353 16.809 14.3085 16.862C15.3686 17.6279 16.2862 18.5483 17.155 19.5217C17.3977 19.7933 17.6247 20.0791 17.8584 20.3581C17.8864 20.3913 17.9138 20.4263 17.9384 20.4623C18.0183 20.5779 18.0083 20.7024 17.9143 20.7751C17.8204 20.8478 17.6946 20.8281 17.6068 20.7216C17.4245 20.5001 17.2507 20.2718 17.0628 20.0554C16.195 19.0544 15.2775 18.1047 14.2079 17.3202C13.9132 17.1043 13.5805 16.9392 13.2574 16.7662C13.1422 16.7047 12.9896 16.6495 12.8811 16.7786C12.7721 16.9082 12.8487 17.0497 12.9141 17.1742C13.0527 17.438 13.2529 17.6555 13.4972 17.8156C14.1961 18.2744 14.8 18.8448 15.3703 19.4484C16.1106 20.2324 16.8212 21.044 17.5442 21.8438C17.5638 21.8652 17.5839 21.8871 17.5995 21.9114C17.6666 22.0123 17.6734 22.1126 17.5839 22.2028C17.5017 22.2851 17.3759 22.2806 17.2864 22.1853C17.1768 22.0686 17.0768 21.9429 16.9716 21.8218C16.0508 20.7605 15.1176 19.711 14.0614 18.7822C13.8148 18.5652 13.5386 18.382 13.2747 18.1842C13.244 18.1611 13.2098 18.1374 13.1735 18.1273C13.0785 18.1008 12.923 18.0348 12.8973 18.0681C12.8296 18.1549 12.7832 18.289 12.7922 18.3989C12.8179 18.7039 13.0197 18.9169 13.2277 19.1176C13.6879 19.5628 14.1788 19.9804 14.6038 20.4578C15.1388 21.0598 15.6202 21.7102 16.1246 22.3397C16.1671 22.3927 16.2129 22.4434 16.2537 22.4981C16.3309 22.6012 16.3253 22.7269 16.2425 22.8013C16.1514 22.8831 16.0239 22.8769 15.935 22.7692C15.7248 22.5144 15.5257 22.2501 15.3161 21.9948C14.8716 21.4549 14.4315 20.9098 13.9708 20.384C13.807 20.1974 13.5912 20.0554 13.3927 19.9021C13.2954 19.8266 13.2266 19.8683 13.1886 19.9838C13.1226 20.1817 13.1724 20.3643 13.2691 20.5305C13.3591 20.685 13.4665 20.8315 13.5817 20.9679C14.3622 21.8939 15.136 22.8273 15.7556 23.8722C16.1363 24.5142 16.5663 25.1065 17.1081 25.6166C17.2199 25.722 17.2316 25.8454 17.1495 25.9378C17.0639 26.0342 16.9359 26.0291 16.8179 25.9181C16.3594 25.4869 15.9406 25.0197 15.6275 24.4702C15.098 23.5397 14.4489 22.6976 13.7818 21.8674C13.6325 21.682 13.4816 21.4971 13.3222 21.3207C13.2853 21.2796 13.2076 21.2491 13.1534 21.2553C12.0273 21.3771 11.0158 21.0941 10.1184 20.3964C9.89647 20.2239 9.6689 20.0577 9.44302 19.8897C9.41338 19.8677 9.37984 19.8514 9.34181 19.8288C9.36306 20.2143 9.39493 20.588 9.4022 20.9617C9.41953 21.824 9.36306 22.6779 9.04268 23.4923C9.0069 23.5825 8.9672 23.6721 8.92135 23.7578C8.85538 23.8812 8.73684 23.924 8.63117 23.8711C8.52549 23.8181 8.48747 23.6963 8.55065 23.5684C8.73628 23.1936 8.8414 22.7951 8.90458 22.3831C9.02982 21.567 8.99068 20.7509 8.92694 19.932C8.90067 19.5932 8.79108 19.3475 8.49921 19.1688C8.33203 19.0663 8.19393 18.9163 8.0329 18.7788C8.01445 18.8109 7.99656 18.8363 7.98482 18.8651C7.5979 19.7928 6.78493 20.3372 5.79248 20.3321C4.91633 20.3276 4.08044 19.7516 3.73602 18.9068C3.69576 18.8081 3.64991 18.7698 3.53921 18.7625C2.77656 18.7123 2.2247 18.3285 1.94346 17.6189C1.66278 16.9116 1.79361 16.2504 2.30466 15.6773C2.32143 15.6615 2.33597 15.6429 2.36225 15.6113ZM7.77123 2.23789C6.87998 2.22493 6.16263 2.80827 6.03906 3.58774C5.96469 4.05442 6.08603 4.476 6.37453 4.84967C6.46735 4.96972 6.4584 5.09766 6.36223 5.17319C6.26662 5.24815 6.13802 5.22391 6.04577 5.10781C5.98874 5.03567 5.94624 4.95112 5.8853 4.88293C5.83721 4.82882 5.77795 4.76908 5.71253 4.74935C5.22553 4.6045 4.76146 4.66932 4.33708 4.94831C3.53809 5.47359 3.33904 6.49486 3.86909 7.31097C3.92836 7.40228 3.97085 7.49246 3.90543 7.59447C3.84561 7.6886 3.75615 7.70381 3.65047 7.68578C2.58366 7.50429 1.64153 8.34295 1.69241 9.43073C1.71478 9.90247 1.90879 10.2947 2.25825 10.6087C2.34603 10.6876 2.40418 10.7834 2.33653 10.8905C2.24483 11.0353 2.13356 11.1689 2.02509 11.3019C1.97309 11.3656 1.90264 11.413 1.84897 11.475C1.26468 12.149 1.2753 13.0852 1.87636 13.7491C1.95241 13.8331 2.00049 13.9126 1.98036 14.0349C1.88531 14.6171 2.20625 15.1407 2.76537 15.3177C2.87552 15.3526 2.98287 15.383 3.003 15.5183C3.02369 15.6564 2.92137 15.7122 2.82912 15.7781C2.17829 16.2403 2.03068 17.1218 2.50091 17.7683C2.80451 18.1859 3.22218 18.3725 3.73322 18.3493C3.96414 18.3392 3.99098 18.3572 4.06311 18.5832C4.07038 18.6064 4.07708 18.63 4.08491 18.6531C4.34323 19.4264 5.10196 19.9404 5.94009 19.9094C6.7402 19.8801 7.46707 19.29 7.66108 18.5117C7.90262 17.5451 7.43464 16.632 6.50146 16.2493C6.29961 16.1665 6.26327 16.0673 6.36335 15.8773C6.75753 15.1322 6.33204 14.2925 5.49894 14.178C5.38544 14.1623 5.28592 14.1414 5.25293 14.0163C5.21994 13.8912 5.29374 13.8196 5.38544 13.7514C6.17157 13.1652 6.17828 12.0549 5.39998 11.4609C5.30772 11.3904 5.2177 11.3222 5.25181 11.1881C5.28536 11.0556 5.39327 11.0336 5.50957 11.0167C6.20903 10.917 6.58197 10.1995 6.26383 9.56317C6.20736 9.45045 6.1643 9.34449 6.26886 9.24417C6.36671 9.14948 6.46903 9.1895 6.57582 9.24304C7.45924 9.68999 8.53835 9.18048 8.75977 8.21388C8.82127 7.94448 8.94036 7.89431 9.17072 8.04424C9.53639 8.28208 9.93393 8.37226 10.3622 8.29843C10.8738 8.2105 11.2579 7.92982 11.5319 7.48795C11.6348 7.32225 11.7869 7.31436 11.9099 7.46259C11.9378 7.4964 11.9619 7.5336 11.991 7.56573C12.3801 7.98957 12.8565 8.15076 13.4106 7.99915C13.9574 7.84979 14.2923 7.47386 14.4192 6.9187C14.4768 6.66564 14.5713 6.60871 14.8056 6.71467C15.4916 7.0241 16.2666 6.69325 16.5277 5.97972C16.781 5.2876 16.3857 4.52503 15.6661 4.31875C15.4027 4.24323 15.3759 4.19194 15.448 3.92027C15.6387 3.20223 15.4883 2.55971 14.9789 2.02653C14.2403 1.25382 13.1064 1.21944 12.2934 1.92114C12.1414 2.05246 12.067 2.05528 11.9267 1.9341C10.9571 1.09713 9.60013 1.31244 8.94148 2.40754C8.83189 2.58958 8.74131 2.61269 8.56183 2.49941C8.29122 2.32863 7.99935 2.24014 7.77123 2.23789ZM9.11872 8.51654C8.66192 9.53725 7.8797 9.95094 6.78829 9.78749C6.85091 10.5146 6.56072 11.0331 5.92779 11.3493C6.55569 12.1868 6.55401 13.0136 5.93171 13.8455C6.33484 14.0191 6.63453 14.2902 6.80506 14.6904C6.97727 15.0945 6.96721 15.5048 6.81401 15.9196C6.87607 15.9534 6.93198 15.9816 6.9851 16.0137C7.68289 16.4342 8.09776 17.053 8.12348 17.8697C8.13466 18.2197 8.24481 18.4452 8.50536 18.6317C8.52493 18.6458 8.54171 18.6638 8.56072 18.6785C9.17408 19.1463 9.78912 19.6107 10.4002 20.0819C10.8738 20.4466 11.3994 20.6929 11.9854 20.8016C12.2985 20.8597 12.6144 20.8862 12.9515 20.8467C12.7284 20.4251 12.6323 20.0131 12.9308 19.5859C12.8682 19.5949 12.8263 19.6023 12.7838 19.6073C12.0072 19.702 11.3306 19.2337 11.1847 18.4722C11.1366 18.222 11.145 17.9571 11.1556 17.7001C11.1819 17.079 11.5917 16.5531 12.1906 16.4021C12.4679 16.3322 12.7614 16.304 13.0483 16.3023C13.24 16.3012 13.4318 16.3801 13.6314 16.4252C13.6281 16.4314 13.6381 16.4195 13.6415 16.4066C13.7813 15.8937 14.1883 15.675 14.6781 15.8672C14.866 15.941 15.0471 16.0397 15.2171 16.1496C15.9451 16.6213 16.573 17.2159 17.202 17.8094C17.2316 17.8376 17.2641 17.8624 17.3032 17.8951C17.5448 17.3822 17.9244 17.0395 18.4371 16.8338C18.048 16.3711 17.878 15.8582 17.954 15.2731C18.0295 14.6887 18.3309 14.2412 18.8162 13.8991C18.3259 13.5688 18.0301 13.1292 17.9613 12.5526C17.8931 11.9783 18.0653 11.4761 18.4517 11.0489C17.3653 10.4819 16.9571 9.60826 17.2266 8.41397C17.2221 8.40946 17.2165 8.39988 17.2082 8.39649C17.1813 8.38522 17.1539 8.37677 17.1265 8.36719C16.6608 8.20317 16.299 7.90953 16.0519 7.4778C15.9965 7.38143 15.9753 7.22925 15.8965 7.19149C15.8115 7.15091 15.6778 7.22869 15.5649 7.22925C15.3071 7.23094 15.0494 7.21685 14.7771 7.20896C14.5635 7.81879 14.1374 8.24995 13.481 8.41453C12.8201 8.58023 12.2409 8.39255 11.7461 7.93433C11.0047 8.75833 10.1347 8.95053 9.11872 8.51654ZM20.4477 19.445C20.7161 18.8938 20.7033 18.3623 20.3762 17.8455C20.3135 17.7468 20.2794 17.6516 20.3521 17.549C20.4237 17.4481 20.5249 17.4611 20.6283 17.4881C21.2568 17.6538 21.8802 17.3619 22.1374 16.7831C22.3974 16.1975 22.204 15.5454 21.6577 15.1801C21.5688 15.1204 21.4911 15.0618 21.505 14.9389C21.519 14.8161 21.6107 14.7783 21.7086 14.7377C22.167 14.5466 22.4444 14.2006 22.5059 13.7069C22.5679 13.2126 22.3818 12.809 21.9859 12.5086C21.7885 12.3587 21.7969 12.2076 22.0133 12.0825C22.4958 11.8035 22.7446 11.2411 22.6205 10.6949C22.5238 10.2722 22.2699 9.9763 21.8802 9.79595C21.6549 9.69168 21.6314 9.57557 21.7936 9.38056C21.8092 9.36196 21.8249 9.34336 21.8394 9.3242C22.3538 8.6659 22.1218 7.71283 21.3641 7.36734C21.112 7.25236 21.0879 7.14189 21.2691 6.92715C21.6191 6.51177 21.6767 5.92956 21.4139 5.46627C21.1394 4.98269 20.6132 4.7347 20.0726 4.83389C19.8064 4.88293 19.708 4.77359 19.7801 4.50981C19.897 4.08316 19.8042 3.70272 19.4978 3.39104C19.1824 3.07091 18.7972 2.97622 18.3633 3.10191C18.1648 3.1594 18.11 3.13742 18.0133 2.95593C17.741 2.4453 17.3256 2.12235 16.762 1.99948C16.365 1.91268 15.987 1.9713 15.6102 2.15222C15.9311 2.71865 16.0172 3.3127 15.8841 3.93098C15.9177 3.94789 15.9339 3.95804 15.9518 3.96536C17.1796 4.46585 17.3938 6.09244 16.3561 6.90123C16.2918 6.95139 16.2906 6.99535 16.3191 7.06242C16.545 7.59729 16.9381 7.92137 17.5062 8.02564C17.7315 8.06734 17.7807 8.17048 17.7103 8.38748C17.6432 8.59376 17.5716 8.80906 17.5632 9.02267C17.5308 9.80722 18.0318 10.4728 18.7922 10.7022C18.8632 10.7237 18.9454 10.7541 18.9907 10.8076C19.1109 10.9491 19.0823 11.0714 18.9196 11.2022C18.2917 11.7077 18.1799 12.5701 18.663 13.1951C18.8498 13.4369 19.0958 13.5902 19.3815 13.6939C19.4508 13.7193 19.5347 13.819 19.5369 13.8872C19.5392 13.956 19.4503 14.0292 19.3949 14.0958C19.3787 14.1149 19.3418 14.116 19.3149 14.1268C18.4438 14.4604 18.0821 15.5132 18.5808 16.3046C18.6921 16.481 18.8727 16.6112 19.0085 16.774C19.0577 16.8332 19.1008 16.9313 19.0879 16.9995C19.0762 17.0598 18.9856 17.11 18.9219 17.1522C18.8883 17.1742 18.8375 17.1686 18.795 17.1782C18.266 17.2965 17.8953 17.6099 17.6761 18.1064C17.6577 18.1476 17.6359 18.2197 17.6549 18.24C17.7773 18.3713 17.9104 18.4925 18.048 18.6238C18.053 18.351 18.1296 18.125 18.3778 18.0061C18.6378 17.8815 18.8783 17.9464 19.0947 18.1211C19.2641 18.258 19.4419 18.3877 19.5956 18.5415C19.8808 18.8301 20.1536 19.1328 20.4477 19.445ZM12.4176 16.787C11.9518 16.8411 11.5822 17.2644 11.5688 17.7401C11.5643 17.8911 11.5649 18.0422 11.5688 18.1932C11.5789 18.5804 11.7561 18.8735 12.0838 19.0691C12.2677 19.179 12.4696 19.2235 12.6943 19.188C12.2493 18.4136 12.2543 18.0861 12.7133 17.6392C12.5288 17.3918 12.3879 17.1235 12.4176 16.787Z"/>
</mask>
<path d="M2.36225 15.6113C2.00329 15.4016 1.74441 15.1215 1.63035 14.7366C1.5722 14.5399 1.57444 14.3257 1.54424 14.12C1.53586 14.0619 1.52076 13.9954 1.48554 13.9515C0.742457 13.03 0.863788 11.7224 1.77069 10.9671C1.87189 10.8826 1.88084 10.8381 1.79026 10.7293C1.26021 10.0947 1.11875 9.37211 1.41173 8.59658C1.70192 7.82724 2.27782 7.38537 3.08575 7.25574C3.15732 7.24447 3.22945 7.2394 3.30158 7.23038C3.30605 7.22981 3.3094 7.22474 3.3245 7.21403C3.03376 6.45935 3.09135 5.73173 3.58785 5.07963C4.08603 4.42527 4.76984 4.18348 5.58784 4.27535C5.51348 3.43106 5.73993 2.70738 6.42765 2.19505C7.126 1.67428 7.87746 1.7126 8.65689 2.05302C9.04883 1.49843 9.57609 1.13715 10.2554 1.03063C10.9359 0.924106 11.5498 1.09713 12.1033 1.52323C12.3874 1.30116 12.6994 1.13546 13.0494 1.06219C13.8925 0.885216 14.6306 1.09432 15.2507 1.70077C15.3261 1.7746 15.377 1.79602 15.4827 1.74755C16.4807 1.2882 17.6404 1.62017 18.2498 2.53942C18.3169 2.64087 18.3773 2.66229 18.4947 2.64425C19.3876 2.50617 20.2302 3.23492 20.2465 4.15079C20.2476 4.2235 20.2465 4.29677 20.2465 4.383C20.9208 4.39484 21.4564 4.67157 21.7846 5.27633C22.11 5.87658 22.0552 6.4757 21.708 7.05284C22.5909 7.64012 22.753 8.69408 22.2453 9.5023C22.729 9.82131 23.0242 10.2649 23.0639 10.8561C23.1036 11.4485 22.8738 11.9287 22.422 12.3187C22.805 12.7143 22.9795 13.1844 22.9235 13.7311C22.8676 14.2806 22.5858 14.6943 22.138 15.0004C23.24 16.1011 22.5131 17.9599 20.9241 17.9751C20.9409 18.0326 20.9565 18.0861 20.9716 18.1402C21.126 18.6948 21.0617 19.2224 20.7698 19.7172C20.7195 19.8023 20.7228 19.8564 20.7782 19.9354C21.4374 20.8704 21.9468 21.8866 22.3734 22.9467C22.431 23.0905 22.3941 23.2105 22.2822 23.2579C22.1592 23.3103 22.0485 23.2562 21.987 23.1057C21.5626 22.0602 21.06 21.0575 20.4058 20.1366C19.9674 19.5194 19.4877 18.9411 18.8777 18.4857C18.7765 18.4102 18.6686 18.3082 18.5406 18.404C18.4175 18.4959 18.4668 18.6357 18.5065 18.7551C18.6278 19.1175 18.8526 19.4185 19.0935 19.7048C19.6404 20.3552 20.0815 21.0767 20.5064 21.8094C20.592 21.957 20.5679 22.0895 20.4544 22.152C20.3376 22.2163 20.2314 22.1673 20.1374 22.0123C19.9104 21.638 19.7086 21.2441 19.4458 20.8974C19.0829 20.4184 18.6876 19.9618 18.2817 19.5188C17.4709 18.6334 16.6239 17.7824 15.6907 17.0265C15.3793 16.774 15.0365 16.5599 14.7027 16.3367C14.62 16.2814 14.5182 16.2504 14.4204 16.2262C14.2906 16.1941 14.1805 16.2471 14.1033 16.353C14.0279 16.4567 14.0446 16.5695 14.1162 16.6658C14.1704 16.7391 14.2353 16.809 14.3085 16.862C15.3686 17.6279 16.2862 18.5483 17.155 19.5217C17.3977 19.7933 17.6247 20.0791 17.8584 20.3581C17.8864 20.3913 17.9138 20.4263 17.9384 20.4623C18.0183 20.5779 18.0083 20.7024 17.9143 20.7751C17.8204 20.8478 17.6946 20.8281 17.6068 20.7216C17.4245 20.5001 17.2507 20.2718 17.0628 20.0554C16.195 19.0544 15.2775 18.1047 14.2079 17.3202C13.9132 17.1043 13.5805 16.9392 13.2574 16.7662C13.1422 16.7047 12.9896 16.6495 12.8811 16.7786C12.7721 16.9082 12.8487 17.0497 12.9141 17.1742C13.0527 17.438 13.2529 17.6555 13.4972 17.8156C14.1961 18.2744 14.8 18.8448 15.3703 19.4484C16.1106 20.2324 16.8212 21.044 17.5442 21.8438C17.5638 21.8652 17.5839 21.8871 17.5995 21.9114C17.6666 22.0123 17.6734 22.1126 17.5839 22.2028C17.5017 22.2851 17.3759 22.2806 17.2864 22.1853C17.1768 22.0686 17.0768 21.9429 16.9716 21.8218C16.0508 20.7605 15.1176 19.711 14.0614 18.7822C13.8148 18.5652 13.5386 18.382 13.2747 18.1842C13.244 18.1611 13.2098 18.1374 13.1735 18.1273C13.0785 18.1008 12.923 18.0348 12.8973 18.0681C12.8296 18.1549 12.7832 18.289 12.7922 18.3989C12.8179 18.7039 13.0197 18.9169 13.2277 19.1176C13.6879 19.5628 14.1788 19.9804 14.6038 20.4578C15.1388 21.0598 15.6202 21.7102 16.1246 22.3397C16.1671 22.3927 16.2129 22.4434 16.2537 22.4981C16.3309 22.6012 16.3253 22.7269 16.2425 22.8013C16.1514 22.8831 16.0239 22.8769 15.935 22.7692C15.7248 22.5144 15.5257 22.2501 15.3161 21.9948C14.8716 21.4549 14.4315 20.9098 13.9708 20.384C13.807 20.1974 13.5912 20.0554 13.3927 19.9021C13.2954 19.8266 13.2266 19.8683 13.1886 19.9838C13.1226 20.1817 13.1724 20.3643 13.2691 20.5305C13.3591 20.685 13.4665 20.8315 13.5817 20.9679C14.3622 21.8939 15.136 22.8273 15.7556 23.8722C16.1363 24.5142 16.5663 25.1065 17.1081 25.6166C17.2199 25.722 17.2316 25.8454 17.1495 25.9378C17.0639 26.0342 16.9359 26.0291 16.8179 25.9181C16.3594 25.4869 15.9406 25.0197 15.6275 24.4702C15.098 23.5397 14.4489 22.6976 13.7818 21.8674C13.6325 21.682 13.4816 21.4971 13.3222 21.3207C13.2853 21.2796 13.2076 21.2491 13.1534 21.2553C12.0273 21.3771 11.0158 21.0941 10.1184 20.3964C9.89647 20.2239 9.6689 20.0577 9.44302 19.8897C9.41338 19.8677 9.37984 19.8514 9.34181 19.8288C9.36306 20.2143 9.39493 20.588 9.4022 20.9617C9.41953 21.824 9.36306 22.6779 9.04268 23.4923C9.0069 23.5825 8.9672 23.6721 8.92135 23.7578C8.85538 23.8812 8.73684 23.924 8.63117 23.8711C8.52549 23.8181 8.48747 23.6963 8.55065 23.5684C8.73628 23.1936 8.8414 22.7951 8.90458 22.3831C9.02982 21.567 8.99068 20.7509 8.92694 19.932C8.90067 19.5932 8.79108 19.3475 8.49921 19.1688C8.33203 19.0663 8.19393 18.9163 8.0329 18.7788C8.01445 18.8109 7.99656 18.8363 7.98482 18.8651C7.5979 19.7928 6.78493 20.3372 5.79248 20.3321C4.91633 20.3276 4.08044 19.7516 3.73602 18.9068C3.69576 18.8081 3.64991 18.7698 3.53921 18.7625C2.77656 18.7123 2.2247 18.3285 1.94346 17.6189C1.66278 16.9116 1.79361 16.2504 2.30466 15.6773C2.32143 15.6615 2.33597 15.6429 2.36225 15.6113ZM7.77123 2.23789C6.87998 2.22493 6.16263 2.80827 6.03906 3.58774C5.96469 4.05442 6.08603 4.476 6.37453 4.84967C6.46735 4.96972 6.4584 5.09766 6.36223 5.17319C6.26662 5.24815 6.13802 5.22391 6.04577 5.10781C5.98874 5.03567 5.94624 4.95112 5.8853 4.88293C5.83721 4.82882 5.77795 4.76908 5.71253 4.74935C5.22553 4.6045 4.76146 4.66932 4.33708 4.94831C3.53809 5.47359 3.33904 6.49486 3.86909 7.31097C3.92836 7.40228 3.97085 7.49246 3.90543 7.59447C3.84561 7.6886 3.75615 7.70381 3.65047 7.68578C2.58366 7.50429 1.64153 8.34295 1.69241 9.43073C1.71478 9.90247 1.90879 10.2947 2.25825 10.6087C2.34603 10.6876 2.40418 10.7834 2.33653 10.8905C2.24483 11.0353 2.13356 11.1689 2.02509 11.3019C1.97309 11.3656 1.90264 11.413 1.84897 11.475C1.26468 12.149 1.2753 13.0852 1.87636 13.7491C1.95241 13.8331 2.00049 13.9126 1.98036 14.0349C1.88531 14.6171 2.20625 15.1407 2.76537 15.3177C2.87552 15.3526 2.98287 15.383 3.003 15.5183C3.02369 15.6564 2.92137 15.7122 2.82912 15.7781C2.17829 16.2403 2.03068 17.1218 2.50091 17.7683C2.80451 18.1859 3.22218 18.3725 3.73322 18.3493C3.96414 18.3392 3.99098 18.3572 4.06311 18.5832C4.07038 18.6064 4.07708 18.63 4.08491 18.6531C4.34323 19.4264 5.10196 19.9404 5.94009 19.9094C6.7402 19.8801 7.46707 19.29 7.66108 18.5117C7.90262 17.5451 7.43464 16.632 6.50146 16.2493C6.29961 16.1665 6.26327 16.0673 6.36335 15.8773C6.75753 15.1322 6.33204 14.2925 5.49894 14.178C5.38544 14.1623 5.28592 14.1414 5.25293 14.0163C5.21994 13.8912 5.29374 13.8196 5.38544 13.7514C6.17157 13.1652 6.17828 12.0549 5.39998 11.4609C5.30772 11.3904 5.2177 11.3222 5.25181 11.1881C5.28536 11.0556 5.39327 11.0336 5.50957 11.0167C6.20903 10.917 6.58197 10.1995 6.26383 9.56317C6.20736 9.45045 6.1643 9.34449 6.26886 9.24417C6.36671 9.14948 6.46903 9.1895 6.57582 9.24304C7.45924 9.68999 8.53835 9.18048 8.75977 8.21388C8.82127 7.94448 8.94036 7.89431 9.17072 8.04424C9.53639 8.28208 9.93393 8.37226 10.3622 8.29843C10.8738 8.2105 11.2579 7.92982 11.5319 7.48795C11.6348 7.32225 11.7869 7.31436 11.9099 7.46259C11.9378 7.4964 11.9619 7.5336 11.991 7.56573C12.3801 7.98957 12.8565 8.15076 13.4106 7.99915C13.9574 7.84979 14.2923 7.47386 14.4192 6.9187C14.4768 6.66564 14.5713 6.60871 14.8056 6.71467C15.4916 7.0241 16.2666 6.69325 16.5277 5.97972C16.781 5.2876 16.3857 4.52503 15.6661 4.31875C15.4027 4.24323 15.3759 4.19194 15.448 3.92027C15.6387 3.20223 15.4883 2.55971 14.9789 2.02653C14.2403 1.25382 13.1064 1.21944 12.2934 1.92114C12.1414 2.05246 12.067 2.05528 11.9267 1.9341C10.9571 1.09713 9.60013 1.31244 8.94148 2.40754C8.83189 2.58958 8.74131 2.61269 8.56183 2.49941C8.29122 2.32863 7.99935 2.24014 7.77123 2.23789ZM9.11872 8.51654C8.66192 9.53725 7.8797 9.95094 6.78829 9.78749C6.85091 10.5146 6.56072 11.0331 5.92779 11.3493C6.55569 12.1868 6.55401 13.0136 5.93171 13.8455C6.33484 14.0191 6.63453 14.2902 6.80506 14.6904C6.97727 15.0945 6.96721 15.5048 6.81401 15.9196C6.87607 15.9534 6.93198 15.9816 6.9851 16.0137C7.68289 16.4342 8.09776 17.053 8.12348 17.8697C8.13466 18.2197 8.24481 18.4452 8.50536 18.6317C8.52493 18.6458 8.54171 18.6638 8.56072 18.6785C9.17408 19.1463 9.78912 19.6107 10.4002 20.0819C10.8738 20.4466 11.3994 20.6929 11.9854 20.8016C12.2985 20.8597 12.6144 20.8862 12.9515 20.8467C12.7284 20.4251 12.6323 20.0131 12.9308 19.5859C12.8682 19.5949 12.8263 19.6023 12.7838 19.6073C12.0072 19.702 11.3306 19.2337 11.1847 18.4722C11.1366 18.222 11.145 17.9571 11.1556 17.7001C11.1819 17.079 11.5917 16.5531 12.1906 16.4021C12.4679 16.3322 12.7614 16.304 13.0483 16.3023C13.24 16.3012 13.4318 16.3801 13.6314 16.4252C13.6281 16.4314 13.6381 16.4195 13.6415 16.4066C13.7813 15.8937 14.1883 15.675 14.6781 15.8672C14.866 15.941 15.0471 16.0397 15.2171 16.1496C15.9451 16.6213 16.573 17.2159 17.202 17.8094C17.2316 17.8376 17.2641 17.8624 17.3032 17.8951C17.5448 17.3822 17.9244 17.0395 18.4371 16.8338C18.048 16.3711 17.878 15.8582 17.954 15.2731C18.0295 14.6887 18.3309 14.2412 18.8162 13.8991C18.3259 13.5688 18.0301 13.1292 17.9613 12.5526C17.8931 11.9783 18.0653 11.4761 18.4517 11.0489C17.3653 10.4819 16.9571 9.60826 17.2266 8.41397C17.2221 8.40946 17.2165 8.39988 17.2082 8.39649C17.1813 8.38522 17.1539 8.37677 17.1265 8.36719C16.6608 8.20317 16.299 7.90953 16.0519 7.4778C15.9965 7.38143 15.9753 7.22925 15.8965 7.19149C15.8115 7.15091 15.6778 7.22869 15.5649 7.22925C15.3071 7.23094 15.0494 7.21685 14.7771 7.20896C14.5635 7.81879 14.1374 8.24995 13.481 8.41453C12.8201 8.58023 12.2409 8.39255 11.7461 7.93433C11.0047 8.75833 10.1347 8.95053 9.11872 8.51654ZM20.4477 19.445C20.7161 18.8938 20.7033 18.3623 20.3762 17.8455C20.3135 17.7468 20.2794 17.6516 20.3521 17.549C20.4237 17.4481 20.5249 17.4611 20.6283 17.4881C21.2568 17.6538 21.8802 17.3619 22.1374 16.7831C22.3974 16.1975 22.204 15.5454 21.6577 15.1801C21.5688 15.1204 21.4911 15.0618 21.505 14.9389C21.519 14.8161 21.6107 14.7783 21.7086 14.7377C22.167 14.5466 22.4444 14.2006 22.5059 13.7069C22.5679 13.2126 22.3818 12.809 21.9859 12.5086C21.7885 12.3587 21.7969 12.2076 22.0133 12.0825C22.4958 11.8035 22.7446 11.2411 22.6205 10.6949C22.5238 10.2722 22.2699 9.9763 21.8802 9.79595C21.6549 9.69168 21.6314 9.57557 21.7936 9.38056C21.8092 9.36196 21.8249 9.34336 21.8394 9.3242C22.3538 8.6659 22.1218 7.71283 21.3641 7.36734C21.112 7.25236 21.0879 7.14189 21.2691 6.92715C21.6191 6.51177 21.6767 5.92956 21.4139 5.46627C21.1394 4.98269 20.6132 4.7347 20.0726 4.83389C19.8064 4.88293 19.708 4.77359 19.7801 4.50981C19.897 4.08316 19.8042 3.70272 19.4978 3.39104C19.1824 3.07091 18.7972 2.97622 18.3633 3.10191C18.1648 3.1594 18.11 3.13742 18.0133 2.95593C17.741 2.4453 17.3256 2.12235 16.762 1.99948C16.365 1.91268 15.987 1.9713 15.6102 2.15222C15.9311 2.71865 16.0172 3.3127 15.8841 3.93098C15.9177 3.94789 15.9339 3.95804 15.9518 3.96536C17.1796 4.46585 17.3938 6.09244 16.3561 6.90123C16.2918 6.95139 16.2906 6.99535 16.3191 7.06242C16.545 7.59729 16.9381 7.92137 17.5062 8.02564C17.7315 8.06734 17.7807 8.17048 17.7103 8.38748C17.6432 8.59376 17.5716 8.80906 17.5632 9.02267C17.5308 9.80722 18.0318 10.4728 18.7922 10.7022C18.8632 10.7237 18.9454 10.7541 18.9907 10.8076C19.1109 10.9491 19.0823 11.0714 18.9196 11.2022C18.2917 11.7077 18.1799 12.5701 18.663 13.1951C18.8498 13.4369 19.0958 13.5902 19.3815 13.6939C19.4508 13.7193 19.5347 13.819 19.5369 13.8872C19.5392 13.956 19.4503 14.0292 19.3949 14.0958C19.3787 14.1149 19.3418 14.116 19.3149 14.1268C18.4438 14.4604 18.0821 15.5132 18.5808 16.3046C18.6921 16.481 18.8727 16.6112 19.0085 16.774C19.0577 16.8332 19.1008 16.9313 19.0879 16.9995C19.0762 17.0598 18.9856 17.11 18.9219 17.1522C18.8883 17.1742 18.8375 17.1686 18.795 17.1782C18.266 17.2965 17.8953 17.6099 17.6761 18.1064C17.6577 18.1476 17.6359 18.2197 17.6549 18.24C17.7773 18.3713 17.9104 18.4925 18.048 18.6238C18.053 18.351 18.1296 18.125 18.3778 18.0061C18.6378 17.8815 18.8783 17.9464 19.0947 18.1211C19.2641 18.258 19.4419 18.3877 19.5956 18.5415C19.8808 18.8301 20.1536 19.1328 20.4477 19.445ZM12.4176 16.787C11.9518 16.8411 11.5822 17.2644 11.5688 17.7401C11.5643 17.8911 11.5649 18.0422 11.5688 18.1932C11.5789 18.5804 11.7561 18.8735 12.0838 19.0691C12.2677 19.179 12.4696 19.2235 12.6943 19.188C12.2493 18.4136 12.2543 18.0861 12.7133 17.6392C12.5288 17.3918 12.3879 17.1235 12.4176 16.787Z" fill="white"/>
<path d="M2.36225 15.6113C2.00329 15.4016 1.74441 15.1215 1.63035 14.7366C1.5722 14.5399 1.57444 14.3257 1.54424 14.12C1.53586 14.0619 1.52076 13.9954 1.48554 13.9515C0.742457 13.03 0.863788 11.7224 1.77069 10.9671C1.87189 10.8826 1.88084 10.8381 1.79026 10.7293C1.26021 10.0947 1.11875 9.37211 1.41173 8.59658C1.70192 7.82724 2.27782 7.38537 3.08575 7.25574C3.15732 7.24447 3.22945 7.2394 3.30158 7.23038C3.30605 7.22981 3.3094 7.22474 3.3245 7.21403C3.03376 6.45935 3.09135 5.73173 3.58785 5.07963C4.08603 4.42527 4.76984 4.18348 5.58784 4.27535C5.51348 3.43106 5.73993 2.70738 6.42765 2.19505C7.126 1.67428 7.87746 1.7126 8.65689 2.05302C9.04883 1.49843 9.57609 1.13715 10.2554 1.03063C10.9359 0.924106 11.5498 1.09713 12.1033 1.52323C12.3874 1.30116 12.6994 1.13546 13.0494 1.06219C13.8925 0.885216 14.6306 1.09432 15.2507 1.70077C15.3261 1.7746 15.377 1.79602 15.4827 1.74755C16.4807 1.2882 17.6404 1.62017 18.2498 2.53942C18.3169 2.64087 18.3773 2.66229 18.4947 2.64425C19.3876 2.50617 20.2302 3.23492 20.2465 4.15079C20.2476 4.2235 20.2465 4.29677 20.2465 4.383C20.9208 4.39484 21.4564 4.67157 21.7846 5.27633C22.11 5.87658 22.0552 6.4757 21.708 7.05284C22.5909 7.64012 22.753 8.69408 22.2453 9.5023C22.729 9.82131 23.0242 10.2649 23.0639 10.8561C23.1036 11.4485 22.8738 11.9287 22.422 12.3187C22.805 12.7143 22.9795 13.1844 22.9235 13.7311C22.8676 14.2806 22.5858 14.6943 22.138 15.0004C23.24 16.1011 22.5131 17.9599 20.9241 17.9751C20.9409 18.0326 20.9565 18.0861 20.9716 18.1402C21.126 18.6948 21.0617 19.2224 20.7698 19.7172C20.7195 19.8023 20.7228 19.8564 20.7782 19.9354C21.4374 20.8704 21.9468 21.8866 22.3734 22.9467C22.431 23.0905 22.3941 23.2105 22.2822 23.2579C22.1592 23.3103 22.0485 23.2562 21.987 23.1057C21.5626 22.0602 21.06 21.0575 20.4058 20.1366C19.9674 19.5194 19.4877 18.9411 18.8777 18.4857C18.7765 18.4102 18.6686 18.3082 18.5406 18.404C18.4175 18.4959 18.4668 18.6357 18.5065 18.7551C18.6278 19.1175 18.8526 19.4185 19.0935 19.7048C19.6404 20.3552 20.0815 21.0767 20.5064 21.8094C20.592 21.957 20.5679 22.0895 20.4544 22.152C20.3376 22.2163 20.2314 22.1673 20.1374 22.0123C19.9104 21.638 19.7086 21.2441 19.4458 20.8974C19.0829 20.4184 18.6876 19.9618 18.2817 19.5188C17.4709 18.6334 16.6239 17.7824 15.6907 17.0265C15.3793 16.774 15.0365 16.5599 14.7027 16.3367C14.62 16.2814 14.5182 16.2504 14.4204 16.2262C14.2906 16.1941 14.1805 16.2471 14.1033 16.353C14.0279 16.4567 14.0446 16.5695 14.1162 16.6658C14.1704 16.7391 14.2353 16.809 14.3085 16.862C15.3686 17.6279 16.2862 18.5483 17.155 19.5217C17.3977 19.7933 17.6247 20.0791 17.8584 20.3581C17.8864 20.3913 17.9138 20.4263 17.9384 20.4623C18.0183 20.5779 18.0083 20.7024 17.9143 20.7751C17.8204 20.8478 17.6946 20.8281 17.6068 20.7216C17.4245 20.5001 17.2507 20.2718 17.0628 20.0554C16.195 19.0544 15.2775 18.1047 14.2079 17.3202C13.9132 17.1043 13.5805 16.9392 13.2574 16.7662C13.1422 16.7047 12.9896 16.6495 12.8811 16.7786C12.7721 16.9082 12.8487 17.0497 12.9141 17.1742C13.0527 17.438 13.2529 17.6555 13.4972 17.8156C14.1961 18.2744 14.8 18.8448 15.3703 19.4484C16.1106 20.2324 16.8212 21.044 17.5442 21.8438C17.5638 21.8652 17.5839 21.8871 17.5995 21.9114C17.6666 22.0123 17.6734 22.1126 17.5839 22.2028C17.5017 22.2851 17.3759 22.2806 17.2864 22.1853C17.1768 22.0686 17.0768 21.9429 16.9716 21.8218C16.0508 20.7605 15.1176 19.711 14.0614 18.7822C13.8148 18.5652 13.5386 18.382 13.2747 18.1842C13.244 18.1611 13.2098 18.1374 13.1735 18.1273C13.0785 18.1008 12.923 18.0348 12.8973 18.0681C12.8296 18.1549 12.7832 18.289 12.7922 18.3989C12.8179 18.7039 13.0197 18.9169 13.2277 19.1176C13.6879 19.5628 14.1788 19.9804 14.6038 20.4578C15.1388 21.0598 15.6202 21.7102 16.1246 22.3397C16.1671 22.3927 16.2129 22.4434 16.2537 22.4981C16.3309 22.6012 16.3253 22.7269 16.2425 22.8013C16.1514 22.8831 16.0239 22.8769 15.935 22.7692C15.7248 22.5144 15.5257 22.2501 15.3161 21.9948C14.8716 21.4549 14.4315 20.9098 13.9708 20.384C13.807 20.1974 13.5912 20.0554 13.3927 19.9021C13.2954 19.8266 13.2266 19.8683 13.1886 19.9838C13.1226 20.1817 13.1724 20.3643 13.2691 20.5305C13.3591 20.685 13.4665 20.8315 13.5817 20.9679C14.3622 21.8939 15.136 22.8273 15.7556 23.8722C16.1363 24.5142 16.5663 25.1065 17.1081 25.6166C17.2199 25.722 17.2316 25.8454 17.1495 25.9378C17.0639 26.0342 16.9359 26.0291 16.8179 25.9181C16.3594 25.4869 15.9406 25.0197 15.6275 24.4702C15.098 23.5397 14.4489 22.6976 13.7818 21.8674C13.6325 21.682 13.4816 21.4971 13.3222 21.3207C13.2853 21.2796 13.2076 21.2491 13.1534 21.2553C12.0273 21.3771 11.0158 21.0941 10.1184 20.3964C9.89647 20.2239 9.6689 20.0577 9.44302 19.8897C9.41338 19.8677 9.37984 19.8514 9.34181 19.8288C9.36306 20.2143 9.39493 20.588 9.4022 20.9617C9.41953 21.824 9.36306 22.6779 9.04268 23.4923C9.0069 23.5825 8.9672 23.6721 8.92135 23.7578C8.85538 23.8812 8.73684 23.924 8.63117 23.8711C8.52549 23.8181 8.48747 23.6963 8.55065 23.5684C8.73628 23.1936 8.8414 22.7951 8.90458 22.3831C9.02982 21.567 8.99068 20.7509 8.92694 19.932C8.90067 19.5932 8.79108 19.3475 8.49921 19.1688C8.33203 19.0663 8.19393 18.9163 8.0329 18.7788C8.01445 18.8109 7.99656 18.8363 7.98482 18.8651C7.5979 19.7928 6.78493 20.3372 5.79248 20.3321C4.91633 20.3276 4.08044 19.7516 3.73602 18.9068C3.69576 18.8081 3.64991 18.7698 3.53921 18.7625C2.77656 18.7123 2.2247 18.3285 1.94346 17.6189C1.66278 16.9116 1.79361 16.2504 2.30466 15.6773C2.32143 15.6615 2.33597 15.6429 2.36225 15.6113ZM7.77123 2.23789C6.87998 2.22493 6.16263 2.80827 6.03906 3.58774C5.96469 4.05442 6.08603 4.476 6.37453 4.84967C6.46735 4.96972 6.4584 5.09766 6.36223 5.17319C6.26662 5.24815 6.13802 5.22391 6.04577 5.10781C5.98874 5.03567 5.94624 4.95112 5.8853 4.88293C5.83721 4.82882 5.77795 4.76908 5.71253 4.74935C5.22553 4.6045 4.76146 4.66932 4.33708 4.94831C3.53809 5.47359 3.33904 6.49486 3.86909 7.31097C3.92836 7.40228 3.97085 7.49246 3.90543 7.59447C3.84561 7.6886 3.75615 7.70381 3.65047 7.68578C2.58366 7.50429 1.64153 8.34295 1.69241 9.43073C1.71478 9.90247 1.90879 10.2947 2.25825 10.6087C2.34603 10.6876 2.40418 10.7834 2.33653 10.8905C2.24483 11.0353 2.13356 11.1689 2.02509 11.3019C1.97309 11.3656 1.90264 11.413 1.84897 11.475C1.26468 12.149 1.2753 13.0852 1.87636 13.7491C1.95241 13.8331 2.00049 13.9126 1.98036 14.0349C1.88531 14.6171 2.20625 15.1407 2.76537 15.3177C2.87552 15.3526 2.98287 15.383 3.003 15.5183C3.02369 15.6564 2.92137 15.7122 2.82912 15.7781C2.17829 16.2403 2.03068 17.1218 2.50091 17.7683C2.80451 18.1859 3.22218 18.3725 3.73322 18.3493C3.96414 18.3392 3.99098 18.3572 4.06311 18.5832C4.07038 18.6064 4.07708 18.63 4.08491 18.6531C4.34323 19.4264 5.10196 19.9404 5.94009 19.9094C6.7402 19.8801 7.46707 19.29 7.66108 18.5117C7.90262 17.5451 7.43464 16.632 6.50146 16.2493C6.29961 16.1665 6.26327 16.0673 6.36335 15.8773C6.75753 15.1322 6.33204 14.2925 5.49894 14.178C5.38544 14.1623 5.28592 14.1414 5.25293 14.0163C5.21994 13.8912 5.29374 13.8196 5.38544 13.7514C6.17157 13.1652 6.17828 12.0549 5.39998 11.4609C5.30772 11.3904 5.2177 11.3222 5.25181 11.1881C5.28536 11.0556 5.39327 11.0336 5.50957 11.0167C6.20903 10.917 6.58197 10.1995 6.26383 9.56317C6.20736 9.45045 6.1643 9.34449 6.26886 9.24417C6.36671 9.14948 6.46903 9.1895 6.57582 9.24304C7.45924 9.68999 8.53835 9.18048 8.75977 8.21388C8.82127 7.94448 8.94036 7.89431 9.17072 8.04424C9.53639 8.28208 9.93393 8.37226 10.3622 8.29843C10.8738 8.2105 11.2579 7.92982 11.5319 7.48795C11.6348 7.32225 11.7869 7.31436 11.9099 7.46259C11.9378 7.4964 11.9619 7.5336 11.991 7.56573C12.3801 7.98957 12.8565 8.15076 13.4106 7.99915C13.9574 7.84979 14.2923 7.47386 14.4192 6.9187C14.4768 6.66564 14.5713 6.60871 14.8056 6.71467C15.4916 7.0241 16.2666 6.69325 16.5277 5.97972C16.781 5.2876 16.3857 4.52503 15.6661 4.31875C15.4027 4.24323 15.3759 4.19194 15.448 3.92027C15.6387 3.20223 15.4883 2.55971 14.9789 2.02653C14.2403 1.25382 13.1064 1.21944 12.2934 1.92114C12.1414 2.05246 12.067 2.05528 11.9267 1.9341C10.9571 1.09713 9.60013 1.31244 8.94148 2.40754C8.83189 2.58958 8.74131 2.61269 8.56183 2.49941C8.29122 2.32863 7.99935 2.24014 7.77123 2.23789ZM9.11872 8.51654C8.66192 9.53725 7.8797 9.95094 6.78829 9.78749C6.85091 10.5146 6.56072 11.0331 5.92779 11.3493C6.55569 12.1868 6.55401 13.0136 5.93171 13.8455C6.33484 14.0191 6.63453 14.2902 6.80506 14.6904C6.97727 15.0945 6.96721 15.5048 6.81401 15.9196C6.87607 15.9534 6.93198 15.9816 6.9851 16.0137C7.68289 16.4342 8.09776 17.053 8.12348 17.8697C8.13466 18.2197 8.24481 18.4452 8.50536 18.6317C8.52493 18.6458 8.54171 18.6638 8.56072 18.6785C9.17408 19.1463 9.78912 19.6107 10.4002 20.0819C10.8738 20.4466 11.3994 20.6929 11.9854 20.8016C12.2985 20.8597 12.6144 20.8862 12.9515 20.8467C12.7284 20.4251 12.6323 20.0131 12.9308 19.5859C12.8682 19.5949 12.8263 19.6023 12.7838 19.6073C12.0072 19.702 11.3306 19.2337 11.1847 18.4722C11.1366 18.222 11.145 17.9571 11.1556 17.7001C11.1819 17.079 11.5917 16.5531 12.1906 16.4021C12.4679 16.3322 12.7614 16.304 13.0483 16.3023C13.24 16.3012 13.4318 16.3801 13.6314 16.4252C13.6281 16.4314 13.6381 16.4195 13.6415 16.4066C13.7813 15.8937 14.1883 15.675 14.6781 15.8672C14.866 15.941 15.0471 16.0397 15.2171 16.1496C15.9451 16.6213 16.573 17.2159 17.202 17.8094C17.2316 17.8376 17.2641 17.8624 17.3032 17.8951C17.5448 17.3822 17.9244 17.0395 18.4371 16.8338C18.048 16.3711 17.878 15.8582 17.954 15.2731C18.0295 14.6887 18.3309 14.2412 18.8162 13.8991C18.3259 13.5688 18.0301 13.1292 17.9613 12.5526C17.8931 11.9783 18.0653 11.4761 18.4517 11.0489C17.3653 10.4819 16.9571 9.60826 17.2266 8.41397C17.2221 8.40946 17.2165 8.39988 17.2082 8.39649C17.1813 8.38522 17.1539 8.37677 17.1265 8.36719C16.6608 8.20317 16.299 7.90953 16.0519 7.4778C15.9965 7.38143 15.9753 7.22925 15.8965 7.19149C15.8115 7.15091 15.6778 7.22869 15.5649 7.22925C15.3071 7.23094 15.0494 7.21685 14.7771 7.20896C14.5635 7.81879 14.1374 8.24995 13.481 8.41453C12.8201 8.58023 12.2409 8.39255 11.7461 7.93433C11.0047 8.75833 10.1347 8.95053 9.11872 8.51654ZM20.4477 19.445C20.7161 18.8938 20.7033 18.3623 20.3762 17.8455C20.3135 17.7468 20.2794 17.6516 20.3521 17.549C20.4237 17.4481 20.5249 17.4611 20.6283 17.4881C21.2568 17.6538 21.8802 17.3619 22.1374 16.7831C22.3974 16.1975 22.204 15.5454 21.6577 15.1801C21.5688 15.1204 21.4911 15.0618 21.505 14.9389C21.519 14.8161 21.6107 14.7783 21.7086 14.7377C22.167 14.5466 22.4444 14.2006 22.5059 13.7069C22.5679 13.2126 22.3818 12.809 21.9859 12.5086C21.7885 12.3587 21.7969 12.2076 22.0133 12.0825C22.4958 11.8035 22.7446 11.2411 22.6205 10.6949C22.5238 10.2722 22.2699 9.9763 21.8802 9.79595C21.6549 9.69168 21.6314 9.57557 21.7936 9.38056C21.8092 9.36196 21.8249 9.34336 21.8394 9.3242C22.3538 8.6659 22.1218 7.71283 21.3641 7.36734C21.112 7.25236 21.0879 7.14189 21.2691 6.92715C21.6191 6.51177 21.6767 5.92956 21.4139 5.46627C21.1394 4.98269 20.6132 4.7347 20.0726 4.83389C19.8064 4.88293 19.708 4.77359 19.7801 4.50981C19.897 4.08316 19.8042 3.70272 19.4978 3.39104C19.1824 3.07091 18.7972 2.97622 18.3633 3.10191C18.1648 3.1594 18.11 3.13742 18.0133 2.95593C17.741 2.4453 17.3256 2.12235 16.762 1.99948C16.365 1.91268 15.987 1.9713 15.6102 2.15222C15.9311 2.71865 16.0172 3.3127 15.8841 3.93098C15.9177 3.94789 15.9339 3.95804 15.9518 3.96536C17.1796 4.46585 17.3938 6.09244 16.3561 6.90123C16.2918 6.95139 16.2906 6.99535 16.3191 7.06242C16.545 7.59729 16.9381 7.92137 17.5062 8.02564C17.7315 8.06734 17.7807 8.17048 17.7103 8.38748C17.6432 8.59376 17.5716 8.80906 17.5632 9.02267C17.5308 9.80722 18.0318 10.4728 18.7922 10.7022C18.8632 10.7237 18.9454 10.7541 18.9907 10.8076C19.1109 10.9491 19.0823 11.0714 18.9196 11.2022C18.2917 11.7077 18.1799 12.5701 18.663 13.1951C18.8498 13.4369 19.0958 13.5902 19.3815 13.6939C19.4508 13.7193 19.5347 13.819 19.5369 13.8872C19.5392 13.956 19.4503 14.0292 19.3949 14.0958C19.3787 14.1149 19.3418 14.116 19.3149 14.1268C18.4438 14.4604 18.0821 15.5132 18.5808 16.3046C18.6921 16.481 18.8727 16.6112 19.0085 16.774C19.0577 16.8332 19.1008 16.9313 19.0879 16.9995C19.0762 17.0598 18.9856 17.11 18.9219 17.1522C18.8883 17.1742 18.8375 17.1686 18.795 17.1782C18.266 17.2965 17.8953 17.6099 17.6761 18.1064C17.6577 18.1476 17.6359 18.2197 17.6549 18.24C17.7773 18.3713 17.9104 18.4925 18.048 18.6238C18.053 18.351 18.1296 18.125 18.3778 18.0061C18.6378 17.8815 18.8783 17.9464 19.0947 18.1211C19.2641 18.258 19.4419 18.3877 19.5956 18.5415C19.8808 18.8301 20.1536 19.1328 20.4477 19.445ZM12.4176 16.787C11.9518 16.8411 11.5822 17.2644 11.5688 17.7401C11.5643 17.8911 11.5649 18.0422 11.5688 18.1932C11.5789 18.5804 11.7561 18.8735 12.0838 19.0691C12.2677 19.179 12.4696 19.2235 12.6943 19.188C12.2493 18.4136 12.2543 18.0861 12.7133 17.6392C12.5288 17.3918 12.3879 17.1235 12.4176 16.787Z" stroke="white" stroke-width="0.6" mask="url(#path-1-outside-1)"/>
<path d="M16.2147 10.6287V10.6292C16.2425 10.6292 16.2724 10.6289 16.3035 10.6286C16.3763 10.6278 16.456 10.627 16.5328 10.6298L16.5335 10.6299C16.6353 10.6341 16.7323 10.6671 16.8053 10.7347C16.88 10.8039 16.9181 10.8994 16.9154 11.0024L16.2147 10.6287ZM16.2147 10.6287L16.2029 10.6296M16.2147 10.6287L16.2029 10.6296M16.2029 10.6296C16.1669 10.6325 16.1298 10.635 16.0923 10.6376C16.0243 10.6422 15.9552 10.647 15.8893 10.6536L15.8893 10.6536L15.8879 10.6538C15.3212 10.7161 14.7683 10.8581 14.2616 11.1623C14.1726 11.2157 14.1046 11.2939 14.0757 11.39C14.0463 11.4875 14.0616 11.5897 14.1152 11.6774L14.1153 11.6777C14.1675 11.7627 14.2473 11.82 14.3448 11.8372C14.4378 11.8536 14.5315 11.831 14.6153 11.7893L14.6156 11.7892C14.6428 11.7756 14.6696 11.762 14.696 11.7487C14.8209 11.6855 14.9383 11.6262 15.0606 11.5792M16.2029 10.6296L14.5485 11.655M14.5485 11.655C14.5744 11.6421 14.6003 11.629 14.6262 11.6159C14.7513 11.5526 14.8768 11.4891 15.0069 11.4392M14.5485 11.655C14.4193 11.7193 14.3058 11.7013 14.2432 11.5992L14.5485 11.655ZM15.0069 11.4392L15.0606 11.5792M15.0069 11.4392C15.4923 11.2532 15.9977 11.1872 16.5155 11.2013M15.0069 11.4392L16.5155 11.2013M15.0606 11.5792C15.524 11.4017 16.0092 11.3376 16.5114 11.3513L16.5155 11.2013M15.0606 11.5792L16.5155 11.2013" fill="white" stroke="white" stroke-width="0.3"/>
<path d="M8.28496 11.0066C8.27545 10.886 8.35373 10.7862 8.48289 10.7823L10.7759 11.1553C10.7758 11.1553 10.7758 11.1553 10.7757 11.1553C10.0579 10.7456 9.28035 10.6087 8.47845 10.6324L8.47831 10.6324C8.37416 10.6356 8.28149 10.6786 8.21776 10.7534C8.15495 10.8271 8.12788 10.9225 8.13542 11.0183L8.28496 11.0066ZM8.28496 11.0066L8.13542 11.0184L8.49575 11.2028C8.37442 11.1966 8.29502 11.1351 8.28496 11.0066ZM10.8072 11.5922C10.744 11.701 10.6249 11.7252 10.4924 11.6503L10.8072 11.5922Z" fill="white" stroke="white" stroke-width="0.3"/>
<path d="M9.55684 13.552C9.23367 13.5531 8.92335 13.4872 8.6259 13.362M9.55684 13.552L9.55581 13.702C9.55607 13.702 9.55633 13.702 9.55659 13.702C9.55685 13.702 9.55711 13.702 9.55737 13.702L9.55684 13.552ZM9.55684 13.552C9.88449 13.5542 10.1998 13.4906 10.5018 13.3615C10.66 13.2933 10.7193 13.1828 10.6673 13.0583C10.6169 12.9376 10.5062 12.9044 10.3474 12.9703L8.6259 13.362M8.6259 13.362C8.46319 13.2933 8.4084 13.1856 8.46263 13.0583L8.6259 13.362ZM10.8057 13.0005C10.7662 12.9059 10.6944 12.8297 10.5887 12.8C10.4901 12.7722 10.3861 12.7919 10.29 12.8318L10.8057 13.0005ZM10.8057 13.0005L10.6673 13.0583L10.8057 13.0005C10.8057 13.0005 10.8057 13.0005 10.8057 13.0005Z" fill="white" stroke="white" stroke-width="0.3"/>
<path d="M14.6531 12.968L14.7109 12.8295C14.6174 12.7906 14.5161 12.7733 14.4198 12.8008C14.3182 12.83 14.2459 12.9025 14.2057 12.9952L14.2057 12.9953C14.1646 13.0903 14.1596 13.195 14.2076 13.2918C14.2534 13.3841 14.337 13.4483 14.4317 13.4909L14.4318 13.4909C14.7529 13.635 15.0898 13.7007 15.4371 13.7019H15.4376C15.7903 13.7019 16.1316 13.635 16.4568 13.4906L16.4569 13.4906C16.5485 13.4498 16.6291 13.3881 16.6753 13.3005C16.7236 13.2089 16.7244 13.1077 16.688 13.0137M14.6531 12.968L14.7106 12.8294C15.2015 13.033 15.6848 13.0348 16.1737 12.8281L16.1738 12.8281C16.2708 12.7872 16.3764 12.7714 16.4754 12.8039C16.5787 12.8378 16.6503 12.9163 16.688 13.0137M14.6531 12.968C15.1804 13.1867 15.7054 13.1889 16.2321 12.9663C16.3831 12.9026 16.4999 12.9432 16.548 13.0678M14.6531 12.968L16.3959 13.3535M16.688 13.0137L16.548 13.0678M16.688 13.0137C16.6879 13.0136 16.6879 13.0136 16.6879 13.0135L16.548 13.0678M16.548 13.0678C16.5933 13.1844 16.5391 13.2898 16.3959 13.3535M16.3959 13.3535C16.0912 13.4888 15.7708 13.5519 15.4376 13.5519L16.3959 13.3535Z" fill="white" stroke="white" stroke-width="0.3"/>
<path d="M11.5004 15.1808C11.4523 15.266 11.4377 15.3637 11.4691 15.4592C11.4995 15.5515 11.5669 15.624 11.6492 15.6766L11.6493 15.6767C11.8936 15.8327 12.1684 15.9135 12.3357 15.9184L12.3357 15.9184L12.3382 15.9184C12.7711 15.9238 13.0574 15.8437 13.3222 15.6809L13.3223 15.6808C13.4108 15.6263 13.4794 15.548 13.5079 15.451C13.537 15.352 13.5193 15.2499 13.4644 15.163L13.3376 15.2431M11.5004 15.1808C11.5505 15.0918 11.6311 15.0274 11.7321 15.0061C11.8311 14.9852 11.932 15.0091 12.0214 15.0611L12.0218 15.0613L12.0218 15.0613C12.1841 15.1565 12.3387 15.1997 12.4885 15.1992C12.6384 15.1987 12.7933 15.1543 12.9559 15.059L12.956 15.059C13.0421 15.0086 13.1391 14.9842 13.2354 15.0025C13.3337 15.0211 13.4129 15.0809 13.4647 15.1635L13.3376 15.2431M11.5004 15.1808C11.5004 15.1808 11.5005 15.1807 11.5005 15.1807L11.6311 15.2544M11.5004 15.1808C11.5004 15.1809 11.5004 15.1809 11.5003 15.1809L11.6311 15.2544M13.3376 15.2431C13.4052 15.3502 13.3717 15.4742 13.2436 15.5531M13.3376 15.2431C13.2733 15.1406 13.157 15.1152 13.0317 15.1885C12.6688 15.401 12.3093 15.4038 11.9459 15.1907C11.8162 15.1152 11.6932 15.144 11.6311 15.2544M13.2436 15.5531L11.6311 15.2544M13.2436 15.5531C13.0071 15.6985 12.7499 15.7735 12.3401 15.7684L13.2436 15.5531Z" fill="white" stroke="white" stroke-width="0.3"/>
</svg>
