<svg width="27" height="27" viewBox="0 0 27 27" fill="none" xmlns="http://www.w3.org/2000/svg">
<path d="M13.5017 1.98654H13.5017C10.5467 1.98616 7.68402 2.97384 5.41107 4.77931C3.13799 6.58488 1.59799 9.09465 1.06051 11.8734C0.523008 14.6523 1.02246 17.5228 2.47121 19.9858C3.91985 22.4486 6.22559 24.3477 8.98653 25.3548C11.7474 26.3619 14.7903 26.4139 17.5871 25.502C20.384 24.5901 22.7594 22.7712 24.2995 20.3597C25.8397 17.948 26.4467 15.0966 26.0139 12.301C25.5846 9.52785 24.1593 6.98542 21.985 5.10739V2.13654C21.985 1.94375 21.9047 1.76036 21.7642 1.62627C21.624 1.49241 21.4352 1.41836 21.2397 1.41836C21.0443 1.41836 20.8555 1.49241 20.7153 1.62627C20.5748 1.76036 20.4945 1.94375 20.4945 2.13654V8.95466C20.4945 9.14744 20.5748 9.33084 20.7153 9.46493C20.8555 9.59879 21.0443 9.67284 21.2397 9.67284C21.4352 9.67284 21.624 9.59879 21.7642 9.46493C21.9047 9.33084 21.985 9.14745 21.985 8.95466V7.15501C23.6252 8.98608 24.5681 11.2965 24.654 13.7093C24.7443 16.246 23.8814 18.7309 22.2195 20.7152C20.5575 22.6996 18.2058 24.0526 15.5881 24.528C12.9705 25.0034 10.2613 24.5696 7.9502 23.3055C5.63926 22.0416 3.87966 20.0314 2.98735 17.6396C2.0951 15.2479 2.12819 12.6308 3.08071 10.2604C4.0333 7.88971 5.84331 5.92062 8.18566 4.71022C10.4922 3.51831 13.1643 3.14008 15.7326 3.64016V7.81831C15.7326 8.01109 15.8129 8.19448 15.9534 8.32857C16.0936 8.46243 16.2824 8.53648 16.4778 8.53648C16.6733 8.53648 16.8621 8.46243 17.0023 8.32857C17.1428 8.19448 17.2231 8.01109 17.2231 7.81831V2.13654C17.2231 1.94375 17.1428 1.76036 17.0023 1.62627C16.8621 1.49241 16.6733 1.41836 16.4778 1.41836C16.2824 1.41836 16.0936 1.49241 15.9534 1.62627C15.8129 1.76036 15.7326 1.94375 15.7326 2.13654V2.17381C14.9962 2.04956 14.2497 1.98688 13.5017 1.98654Z" fill="white" stroke="white" stroke-width="0.3"/>
<path d="M11.7146 11.7957C11.7146 11.645 11.6518 11.5005 11.5402 11.394C11.4286 11.2874 11.2772 11.2275 11.1193 11.2275C10.9615 11.2275 10.81 11.2874 10.6984 11.394C10.5868 11.5005 10.5241 11.645 10.5241 11.7957C10.5241 12.5684 9.85741 13.5002 9.03599 13.5002C8.21456 13.5002 7.5479 12.5684 7.5479 11.7957C7.5479 11.645 7.48518 11.5005 7.37355 11.394C7.26193 11.2874 7.11053 11.2275 6.95266 11.2275C6.79479 11.2275 6.64339 11.2874 6.53176 11.394C6.42013 11.5005 6.35742 11.645 6.35742 11.7957C6.35742 13.1366 7.50028 14.6366 9.03599 14.6366C10.5717 14.6366 11.7146 13.1366 11.7146 11.7957Z" fill="white"/>
<path d="M15.8804 11.2275C15.7225 11.2275 15.5711 11.2874 15.4595 11.394C15.3479 11.5005 15.2852 11.645 15.2852 11.7957C15.2852 13.1366 16.428 14.6366 17.9637 14.6366C19.4994 14.6366 20.6423 13.1366 20.6423 11.7957C20.6423 11.645 20.5796 11.5005 20.4679 11.394C20.3563 11.2874 20.2049 11.2275 20.0471 11.2275C19.8892 11.2275 19.7378 11.2874 19.6262 11.394C19.5145 11.5005 19.4518 11.645 19.4518 11.7957C19.4518 12.5684 18.7851 13.5002 17.9637 13.5002C17.1423 13.5002 16.4756 12.5684 16.4756 11.7957C16.4756 11.645 16.4129 11.5005 16.3013 11.394C16.1897 11.2874 16.0383 11.2275 15.8804 11.2275Z" fill="white"/>
<path d="M7.95249 21.4547C8.03043 21.4828 8.11367 21.4949 8.19684 21.4904C8.28002 21.4858 8.36126 21.4646 8.43532 21.4282C8.50938 21.3918 8.5746 21.3409 8.62678 21.2789C8.67895 21.2169 8.71691 21.1452 8.7382 21.0683C9.10854 20.1573 9.76489 19.3778 10.6174 18.8367C11.4698 18.2956 12.4767 18.0193 13.5001 18.0456C14.5235 18.0193 15.5304 18.2956 16.3828 18.8367C17.2353 19.3778 17.8916 20.1573 18.262 21.0683C18.3034 21.1859 18.384 21.2873 18.4915 21.3571C18.599 21.4269 18.7274 21.4611 18.8572 21.4547C18.9205 21.4625 18.9845 21.4625 19.0477 21.4547C19.1282 21.4343 19.2034 21.3981 19.2684 21.3483C19.3333 21.2985 19.3866 21.2363 19.4247 21.1656C19.4629 21.0949 19.4851 21.0173 19.4898 20.9379C19.4946 20.8585 19.4819 20.7791 19.4525 20.7047C18.987 19.5663 18.1665 18.5918 17.1019 17.913C16.0373 17.2342 14.7801 16.8838 13.5001 16.9093C12.2252 16.8897 10.9744 17.2428 9.9158 17.9212C8.85715 18.5996 8.04121 19.5709 7.57749 20.7047C7.54758 20.7772 7.53363 20.8548 7.5365 20.9327C7.53937 21.0106 7.55901 21.0871 7.59418 21.1575C7.62935 21.2278 7.67932 21.2905 7.74096 21.3416C7.8026 21.3928 7.8746 21.4312 7.95249 21.4547Z" fill="white"/>
<path d="M18.8589 8.4863C19.0418 8.4863 19.2182 8.41698 19.3489 8.29222C19.4797 8.16731 19.5541 7.99688 19.5541 7.81812V1.56818C19.5541 1.38942 19.4797 1.21899 19.3489 1.09408C19.2182 0.96932 19.0418 0.9 18.8589 0.9C18.676 0.9 18.4997 0.96932 18.369 1.09408C18.2381 1.21899 18.1637 1.38942 18.1637 1.56818V7.81812C18.1637 7.99688 18.2381 8.16731 18.369 8.29222C18.4997 8.41698 18.676 8.4863 18.8589 8.4863Z" fill="white" stroke="white" stroke-width="0.2"/>
</svg>
