<svg width="31" height="31" viewBox="0 0 31 31" fill="none" xmlns="http://www.w3.org/2000/svg">
<path d="M16.7459 22.5793L16.7941 21.9842C17.1458 21.9205 17.4886 21.8305 17.8222 21.7154C17.7845 22.5966 17.667 23.1411 17.5208 23.4384C17.4867 23.5077 17.4574 23.5499 17.4375 23.5741C17.4185 23.5971 17.4074 23.6046 17.4053 23.606C17.4038 23.607 17.3997 23.6099 17.3865 23.6136C17.3719 23.6177 17.3378 23.625 17.2766 23.625C17.1563 23.625 17.1025 23.5966 17.0738 23.5778C17.0355 23.5526 16.9785 23.4996 16.918 23.3917C16.7825 23.1497 16.7276 22.8056 16.7459 22.5793ZM20.4016 13.3489C20.3765 13.3489 20.263 13.3328 20.1284 13.1742C20.0003 13.0232 19.875 12.7587 19.875 12.375C19.875 12.0009 20.0006 11.7362 20.1342 11.5803C20.2782 11.4122 20.3951 11.4011 20.4016 11.4011C20.4267 11.4011 20.5401 11.4172 20.6747 11.5758C20.8029 11.7268 20.9282 11.9913 20.9282 12.375C20.9282 12.7563 20.8028 13.0209 20.6733 13.1731C20.5364 13.334 20.422 13.3489 20.4016 13.3489ZM10.5984 13.3489C10.5733 13.3489 10.4599 13.3328 10.3253 13.1742C10.1971 13.0232 10.0718 12.7587 10.0718 12.375C10.0718 12.0009 10.1974 11.7362 10.331 11.5803C10.475 11.4122 10.5919 11.4011 10.5984 11.4011C10.6235 11.4011 10.737 11.4172 10.8716 11.5758C10.9997 11.7268 11.125 11.9913 11.125 12.375C11.125 12.7491 10.9994 13.0138 10.8658 13.1697C10.7218 13.3378 10.6049 13.3489 10.5984 13.3489ZM15.5 29.25C22.8873 29.25 29.25 22.8945 29.25 15.5C29.25 8.1055 22.8873 1.75 15.5 1.75C8.1123 1.75 1.75 8.1123 1.75 15.5C1.75 22.8877 8.1123 29.25 15.5 29.25Z" stroke="white" stroke-width="2.5" stroke-miterlimit="10"/>
</svg>
