<svg width="25" height="25" viewBox="0 0 25 25" fill="none" xmlns="http://www.w3.org/2000/svg">
<path d="M12.5 0C9.18479 0 6.00537 1.31699 3.66116 3.66126C1.31696 6.00553 0 9.18503 0 12.5003C8.54614e-05 14.1419 0.323492 15.7674 0.951755 17.2839C1.58002 18.8005 2.50083 20.1785 3.66163 21.3392C4.82242 22.4999 6.20046 23.4206 7.71706 24.0487C9.23366 24.6768 10.8591 25.0001 12.5007 25C14.1422 24.9999 15.7676 24.6765 17.2841 24.0482C18.8007 23.4199 20.1786 22.4991 21.3393 21.3383C22.5 20.1775 23.4206 18.7994 24.0487 17.2827C24.6768 15.7661 25.0001 14.1406 25 12.499C25 5.5965 19.4023 0 12.5 0ZM12.5 22.3951C11.191 22.4101 9.89202 22.1653 8.67831 21.6747C7.4646 21.1842 6.36029 20.4577 5.42933 19.5373C4.49836 18.6169 3.75926 17.521 3.25483 16.3129C2.75039 15.1049 2.49066 13.8088 2.49066 12.4997C2.49066 11.1905 2.75039 9.89443 3.25483 8.6864C3.75926 7.47837 4.49836 6.38243 5.42933 5.46206C6.36029 4.5417 7.4646 3.81519 8.67831 3.32464C9.89202 2.83408 11.191 2.58922 12.5 2.60423C13.809 2.58922 15.108 2.83408 16.3217 3.32464C17.5354 3.81519 18.6397 4.5417 19.5707 5.46206C20.5016 6.38243 21.2407 7.47837 21.7452 8.6864C22.2496 9.89443 22.5093 11.1905 22.5093 12.4997C22.5093 13.8088 22.2496 15.1049 21.7452 16.3129C21.2407 17.521 20.5016 18.6169 19.5707 19.5373C18.6397 20.4577 17.5354 21.1842 16.3217 21.6747C15.108 22.1653 13.809 22.4101 12.5 22.3951ZM9.24609 12.1748C10.3242 12.1748 11.1979 11.1552 11.1979 9.89609C11.1979 8.63694 10.3229 7.61739 9.24479 7.61739C8.16667 7.61739 7.29167 8.63694 7.29167 9.89609C7.29167 11.1552 8.16667 12.1748 9.24609 12.1748ZM15.7552 12.1748C16.8346 12.1748 17.7083 11.1552 17.7083 9.89609C17.7083 8.63694 16.8333 7.61739 15.7552 7.61739C14.6771 7.61739 13.8021 8.63825 13.8021 9.89609C13.8021 11.1539 14.6771 12.1748 15.7552 12.1748ZM18.1523 14.24C17.9225 14.124 17.6564 14.1027 17.4111 14.1806C17.1658 14.2585 16.9607 14.4294 16.8398 14.6566C16.7956 14.7426 15.7083 16.7309 12.5013 16.7309C9.3099 16.7309 8.21615 14.7608 8.16146 14.6579C8.04439 14.4267 7.84027 14.2515 7.59401 14.1708C7.34774 14.0901 7.07951 14.1105 6.84831 14.2276C6.61711 14.3447 6.44188 14.5488 6.36118 14.795C6.28047 15.0413 6.3009 15.3096 6.41797 15.5408C6.48307 15.6697 8.04297 18.6841 12.5013 18.6841C16.9609 18.6841 18.5182 15.6684 18.582 15.5395C18.6968 15.3101 18.716 15.0445 18.6354 14.801C18.5549 14.5575 18.3812 14.3557 18.1523 14.24Z" fill="white"/>
</svg>
