<svg width="26" height="29" viewBox="0 0 26 29" fill="none" xmlns="http://www.w3.org/2000/svg">
<mask id="path-1-outside-1" maskUnits="userSpaceOnUse" x="0" y="-0.0185547" width="26" height="29" fill="black">
<rect fill="white" y="-0.0185547" width="26" height="29"/>
<path d="M14.9461 6.8026C15.0448 6.45973 15.1419 6.12748 15.2435 5.77551C14.67 5.63442 14.1072 5.49485 13.5292 5.35224C14.0328 3.88671 14.532 2.43635 15.0326 0.981445C15.0918 0.992065 15.1343 0.998132 15.1752 1.00875C16.1447 1.24087 17.1156 1.47147 18.1184 1.71118C17.4949 2.55924 16.8835 3.3891 16.2645 4.2311C16.747 4.52542 17.2157 4.81215 17.6967 5.10799C17.0322 5.86199 16.3783 6.60537 15.7153 7.35938C16.2782 7.82665 16.7485 8.35915 17.1475 8.9751C17.9834 8.5139 18.8133 8.05725 19.6568 7.59149C19.3534 7.08933 19.0545 6.59627 18.7435 6.08197C20.1286 5.40534 21.5061 4.73326 22.9034 4.05056C23.4511 4.94262 23.9988 5.83165 24.5631 6.75102C23.5254 6.91031 22.5105 7.06506 21.4712 7.22284C21.6017 7.769 21.7292 8.29999 21.8627 8.85525C20.3258 8.95234 18.8057 9.04944 17.2613 9.14805C17.3189 9.25425 17.3644 9.33921 17.4115 9.42265C18.0137 10.5241 18.3384 11.712 18.5083 12.9484C18.704 14.3669 18.6873 15.7884 18.5827 17.2115C18.4385 19.1868 18.5478 21.1378 19.1288 23.0417C19.2274 23.3664 19.3776 23.6789 19.5324 23.9824C19.7918 24.4906 19.9602 25.0079 19.8221 25.5859C19.7448 25.9091 19.59 26.1943 19.3458 26.4113C18.522 27.144 17.5708 27.5309 16.4526 27.3959C15.9626 27.3367 15.5393 27.1152 15.1798 26.7754C15.1449 26.742 15.113 26.7041 15.0797 26.6676C15.0736 26.6616 15.0766 26.6479 15.0751 26.6419C15.4422 26.5205 15.8109 26.4097 16.172 26.2777C16.5679 26.1336 16.9427 25.9485 17.2764 25.683C17.9364 25.1566 17.6223 24.2099 17.0337 23.8974C16.8076 24.213 16.5907 24.5331 16.3525 24.8365C16.2114 25.0155 16.0385 25.1703 15.8746 25.328C15.6167 25.5784 15.3042 25.6557 14.9537 25.6011C14.5016 25.5313 14.1102 25.325 13.7355 25.0671C13.9904 24.8471 14.2498 24.6453 14.4804 24.4162C14.6973 24.2023 14.8931 23.9672 15.0827 23.729C15.2147 23.5636 15.2617 23.3619 15.2602 23.1464C15.2541 22.5244 15.2587 21.9024 15.2587 21.2804C15.2587 21.2288 15.2587 21.1757 15.2587 21.1347C12.0378 23.462 8.83523 23.462 5.61289 21.1363C5.61289 21.1818 5.61289 21.2379 5.61289 21.2956C5.61289 21.8903 5.62199 22.485 5.60833 23.0797C5.60227 23.3755 5.67205 23.641 5.8708 23.8489C6.22428 24.2175 6.60052 24.5664 6.96766 24.9214C7.01773 24.97 7.0769 25.0079 7.14669 25.0641C6.70976 25.3538 6.27283 25.5905 5.75246 25.6178C5.49759 25.6315 5.27002 25.5571 5.06976 25.3933C4.60704 25.0155 4.25507 24.5452 3.94862 24.0385C3.91827 23.9884 3.88793 23.9368 3.85911 23.8868C3.26136 24.2008 2.92305 25.146 3.59513 25.683C4.00627 26.0122 4.48415 26.2095 4.9757 26.3794C5.24726 26.4735 5.52489 26.5493 5.845 26.6479C5.66902 26.7905 5.52489 26.9286 5.36104 27.0378C4.79061 27.4156 4.15798 27.5081 3.495 27.3868C2.86388 27.2715 2.28283 27.0242 1.77308 26.6312C1.04335 26.0699 0.824883 25.2992 1.14044 24.4314C1.1814 24.3192 1.22085 24.2023 1.28457 24.1022C1.68964 23.4802 1.84742 22.7702 2.00216 22.0632C2.35717 20.446 2.40875 18.812 2.2889 17.1645C2.15236 15.2908 2.16601 13.4233 2.62873 11.586C2.95794 10.2829 3.50562 9.08737 4.41285 8.07697C5.38987 6.9892 6.61721 6.31409 8.01144 5.91812C8.72751 5.71483 9.45876 5.58587 10.1991 5.53581C10.8955 5.48878 11.5797 5.62684 12.2578 5.76793C13.1711 5.95908 14.0389 6.27768 14.846 6.75102C14.8733 6.7677 14.9022 6.77984 14.9461 6.8026ZM6.96918 13.2442C7.00711 13.2655 7.05414 13.2913 7.10269 13.3171C7.94317 13.7692 8.78213 14.2228 9.62413 14.6734C9.80466 14.7689 9.93362 14.8964 9.94272 15.1133C9.95486 15.4046 9.76522 15.5988 9.43449 15.6367C8.76848 15.7126 8.10095 15.79 7.43494 15.8643C6.99649 15.9128 6.55805 15.969 6.11657 16.0039C5.80404 16.0297 5.60075 15.8173 5.60682 15.5032C5.61137 15.2271 5.76915 15.0663 6.08622 15.0284C6.51405 14.9768 6.94339 14.9343 7.37122 14.8858C7.51079 14.8706 7.65036 14.8494 7.78842 14.8311C7.78842 14.8205 7.78842 14.8084 7.78842 14.7978C7.33936 14.5565 6.89029 14.3153 6.43819 14.0711C6.39723 14.1272 6.36385 14.1712 6.33199 14.2152C5.81163 14.9434 5.20478 15.5912 4.5054 16.148C4.37644 16.2512 4.34306 16.3437 4.3734 16.503C4.96356 19.6343 7.79146 21.7977 10.9668 21.5428C13.7234 21.3213 16.0536 19.1807 16.5164 16.4484C16.5361 16.3346 16.5179 16.2633 16.4208 16.1859C15.6941 15.6079 15.0645 14.9389 14.5274 14.1833C14.5001 14.1454 14.4683 14.1105 14.4394 14.0741C14.2012 14.2015 13.9752 14.3229 13.7507 14.4443C13.5307 14.5626 13.3107 14.6825 13.0892 14.8023C13.244 14.8524 13.3896 14.8706 13.5352 14.8873C13.9843 14.9389 14.4349 14.9844 14.884 15.0466C15.1267 15.08 15.2647 15.2468 15.2769 15.4774C15.2966 15.8446 15.0599 16.0433 14.6458 15.9978C13.5732 15.878 12.4991 15.7566 11.4265 15.6337C11.1549 15.6018 10.9926 15.4638 10.9501 15.2377C10.9046 14.995 11.0001 14.816 11.2505 14.681C11.6297 14.4761 12.009 14.2728 12.3883 14.068C12.9011 13.7919 13.4139 13.5143 13.91 13.2473C13.6885 12.6844 13.4746 12.1322 13.2546 11.5815C13.1726 11.3797 13.0831 11.1795 12.9845 10.9868C12.6219 10.2813 12.1486 9.67601 11.472 9.23756C10.7832 8.79153 10.1066 8.77788 9.42387 9.23453C9.27974 9.33162 9.1341 9.43175 9.00211 9.54401C8.45292 10.0083 8.0615 10.5908 7.77932 11.2432C7.49259 11.8955 7.24226 12.5646 6.96918 13.2442Z"/>
</mask>
<path d="M14.9461 6.8026C15.0448 6.45973 15.1419 6.12748 15.2435 5.77551C14.67 5.63442 14.1072 5.49485 13.5292 5.35224C14.0328 3.88671 14.532 2.43635 15.0326 0.981445C15.0918 0.992065 15.1343 0.998132 15.1752 1.00875C16.1447 1.24087 17.1156 1.47147 18.1184 1.71118C17.4949 2.55924 16.8835 3.3891 16.2645 4.2311C16.747 4.52542 17.2157 4.81215 17.6967 5.10799C17.0322 5.86199 16.3783 6.60537 15.7153 7.35938C16.2782 7.82665 16.7485 8.35915 17.1475 8.9751C17.9834 8.5139 18.8133 8.05725 19.6568 7.59149C19.3534 7.08933 19.0545 6.59627 18.7435 6.08197C20.1286 5.40534 21.5061 4.73326 22.9034 4.05056C23.4511 4.94262 23.9988 5.83165 24.5631 6.75102C23.5254 6.91031 22.5105 7.06506 21.4712 7.22284C21.6017 7.769 21.7292 8.29999 21.8627 8.85525C20.3258 8.95234 18.8057 9.04944 17.2613 9.14805C17.3189 9.25425 17.3644 9.33921 17.4115 9.42265C18.0137 10.5241 18.3384 11.712 18.5083 12.9484C18.704 14.3669 18.6873 15.7884 18.5827 17.2115C18.4385 19.1868 18.5478 21.1378 19.1288 23.0417C19.2274 23.3664 19.3776 23.6789 19.5324 23.9824C19.7918 24.4906 19.9602 25.0079 19.8221 25.5859C19.7448 25.9091 19.59 26.1943 19.3458 26.4113C18.522 27.144 17.5708 27.5309 16.4526 27.3959C15.9626 27.3367 15.5393 27.1152 15.1798 26.7754C15.1449 26.742 15.113 26.7041 15.0797 26.6676C15.0736 26.6616 15.0766 26.6479 15.0751 26.6419C15.4422 26.5205 15.8109 26.4097 16.172 26.2777C16.5679 26.1336 16.9427 25.9485 17.2764 25.683C17.9364 25.1566 17.6223 24.2099 17.0337 23.8974C16.8076 24.213 16.5907 24.5331 16.3525 24.8365C16.2114 25.0155 16.0385 25.1703 15.8746 25.328C15.6167 25.5784 15.3042 25.6557 14.9537 25.6011C14.5016 25.5313 14.1102 25.325 13.7355 25.0671C13.9904 24.8471 14.2498 24.6453 14.4804 24.4162C14.6973 24.2023 14.8931 23.9672 15.0827 23.729C15.2147 23.5636 15.2617 23.3619 15.2602 23.1464C15.2541 22.5244 15.2587 21.9024 15.2587 21.2804C15.2587 21.2288 15.2587 21.1757 15.2587 21.1347C12.0378 23.462 8.83523 23.462 5.61289 21.1363C5.61289 21.1818 5.61289 21.2379 5.61289 21.2956C5.61289 21.8903 5.62199 22.485 5.60833 23.0797C5.60227 23.3755 5.67205 23.641 5.8708 23.8489C6.22428 24.2175 6.60052 24.5664 6.96766 24.9214C7.01773 24.97 7.0769 25.0079 7.14669 25.0641C6.70976 25.3538 6.27283 25.5905 5.75246 25.6178C5.49759 25.6315 5.27002 25.5571 5.06976 25.3933C4.60704 25.0155 4.25507 24.5452 3.94862 24.0385C3.91827 23.9884 3.88793 23.9368 3.85911 23.8868C3.26136 24.2008 2.92305 25.146 3.59513 25.683C4.00627 26.0122 4.48415 26.2095 4.9757 26.3794C5.24726 26.4735 5.52489 26.5493 5.845 26.6479C5.66902 26.7905 5.52489 26.9286 5.36104 27.0378C4.79061 27.4156 4.15798 27.5081 3.495 27.3868C2.86388 27.2715 2.28283 27.0242 1.77308 26.6312C1.04335 26.0699 0.824883 25.2992 1.14044 24.4314C1.1814 24.3192 1.22085 24.2023 1.28457 24.1022C1.68964 23.4802 1.84742 22.7702 2.00216 22.0632C2.35717 20.446 2.40875 18.812 2.2889 17.1645C2.15236 15.2908 2.16601 13.4233 2.62873 11.586C2.95794 10.2829 3.50562 9.08737 4.41285 8.07697C5.38987 6.9892 6.61721 6.31409 8.01144 5.91812C8.72751 5.71483 9.45876 5.58587 10.1991 5.53581C10.8955 5.48878 11.5797 5.62684 12.2578 5.76793C13.1711 5.95908 14.0389 6.27768 14.846 6.75102C14.8733 6.7677 14.9022 6.77984 14.9461 6.8026ZM6.96918 13.2442C7.00711 13.2655 7.05414 13.2913 7.10269 13.3171C7.94317 13.7692 8.78213 14.2228 9.62413 14.6734C9.80466 14.7689 9.93362 14.8964 9.94272 15.1133C9.95486 15.4046 9.76522 15.5988 9.43449 15.6367C8.76848 15.7126 8.10095 15.79 7.43494 15.8643C6.99649 15.9128 6.55805 15.969 6.11657 16.0039C5.80404 16.0297 5.60075 15.8173 5.60682 15.5032C5.61137 15.2271 5.76915 15.0663 6.08622 15.0284C6.51405 14.9768 6.94339 14.9343 7.37122 14.8858C7.51079 14.8706 7.65036 14.8494 7.78842 14.8311C7.78842 14.8205 7.78842 14.8084 7.78842 14.7978C7.33936 14.5565 6.89029 14.3153 6.43819 14.0711C6.39723 14.1272 6.36385 14.1712 6.33199 14.2152C5.81163 14.9434 5.20478 15.5912 4.5054 16.148C4.37644 16.2512 4.34306 16.3437 4.3734 16.503C4.96356 19.6343 7.79146 21.7977 10.9668 21.5428C13.7234 21.3213 16.0536 19.1807 16.5164 16.4484C16.5361 16.3346 16.5179 16.2633 16.4208 16.1859C15.6941 15.6079 15.0645 14.9389 14.5274 14.1833C14.5001 14.1454 14.4683 14.1105 14.4394 14.0741C14.2012 14.2015 13.9752 14.3229 13.7507 14.4443C13.5307 14.5626 13.3107 14.6825 13.0892 14.8023C13.244 14.8524 13.3896 14.8706 13.5352 14.8873C13.9843 14.9389 14.4349 14.9844 14.884 15.0466C15.1267 15.08 15.2647 15.2468 15.2769 15.4774C15.2966 15.8446 15.0599 16.0433 14.6458 15.9978C13.5732 15.878 12.4991 15.7566 11.4265 15.6337C11.1549 15.6018 10.9926 15.4638 10.9501 15.2377C10.9046 14.995 11.0001 14.816 11.2505 14.681C11.6297 14.4761 12.009 14.2728 12.3883 14.068C12.9011 13.7919 13.4139 13.5143 13.91 13.2473C13.6885 12.6844 13.4746 12.1322 13.2546 11.5815C13.1726 11.3797 13.0831 11.1795 12.9845 10.9868C12.6219 10.2813 12.1486 9.67601 11.472 9.23756C10.7832 8.79153 10.1066 8.77788 9.42387 9.23453C9.27974 9.33162 9.1341 9.43175 9.00211 9.54401C8.45292 10.0083 8.0615 10.5908 7.77932 11.2432C7.49259 11.8955 7.24226 12.5646 6.96918 13.2442Z" stroke="white" stroke-width="1.6" stroke-miterlimit="10" mask="url(#path-1-outside-1)"/>
<path d="M8.6 17.6H9H9.00614H9.01228H9.01843H9.02457H9.03071H9.03685H9.04299H9.04913H9.05527H9.06141H9.06756H9.0737H9.07984H9.08598H9.09211H9.09825H9.10439H9.11053H9.11667H9.12281H9.12895H9.13509H9.14122H9.14736H9.1535H9.15964H9.16577H9.17191H9.17805H9.18419H9.19032H9.19646H9.20259H9.20873H9.21487H9.221H9.22714H9.23327H9.23941H9.24554H9.25168H9.25781H9.26395H9.27008H9.27622H9.28235H9.28848H9.29462H9.30075H9.30688H9.31302H9.31915H9.32528H9.33142H9.33755H9.34368H9.34981H9.35594H9.36208H9.36821H9.37434H9.38047H9.3866H9.39273H9.39886H9.40499H9.41113H9.41726H9.42339H9.42952H9.43565H9.44178H9.44791H9.45404H9.46016H9.46629H9.47242H9.47855H9.48468H9.49081H9.49694H9.50307H9.5092H9.51532H9.52145H9.52758H9.53371H9.53984H9.54596H9.55209H9.55822H9.56434H9.57047H9.5766H9.58273H9.58885H9.59498H9.6011H9.60723H9.61336H9.61948H9.62561H9.63173H9.63786H9.64399H9.65011H9.65624H9.66236H9.66849H9.67461H9.68074H9.68686H9.69299H9.69911H9.70524H9.71136H9.71748H9.72361H9.72973H9.73586H9.74198H9.7481H9.75423H9.76035H9.76647H9.7726H9.77872H9.78484H9.79097H9.79709H9.80321H9.80934H9.81546H9.82158H9.8277H9.83383H9.83995H9.84607H9.85219H9.85831H9.86444H9.87056H9.87668H9.8828H9.88892H9.89504H9.90117H9.90729H9.91341H9.91953H9.92565H9.93177H9.93789H9.94401H9.95013H9.95626H9.96238H9.9685H9.97462H9.98074H9.98686H9.99298H9.9991H10.0052H10.0113H10.0175H10.0236H10.0297H10.0358H10.0419H10.0481H10.0542H10.0603H10.0664H10.0725H10.0787H10.0848H10.0909H10.097H10.1031H10.1093H10.1154H10.1215H10.1276H10.1337H10.1398H10.146H10.1521H10.1582H10.1643H10.1704H10.1766H10.1827H10.1888H10.1949H10.201H10.2072H10.2133H10.2194H10.2255H10.2316H10.2377H10.2439H10.25H10.2561H10.2622H10.2683H10.2745H10.2806H10.2867H10.2928H10.2989H10.3051H10.3112H10.3173H10.3234H10.3295H10.3356H10.3418H10.3479H10.354H10.3601H10.3662H10.3723H10.3785H10.3846H10.3907H10.3968H10.4029H10.4091H10.4152H10.4213H10.4274H10.4335H10.4396H10.4458H10.4519H10.458H10.4641H10.4702H10.4764H10.4825H10.4886H10.4947H10.5008H10.5069H10.5131H10.5192H10.5253H10.5314H10.5375H10.5437H10.5498H10.5559H10.562H10.5681H10.5742H10.5804H10.5865H10.5926H10.5987H10.6048H10.6109H10.6171H10.6232H10.6293H10.6354H10.6415H10.6477H10.6538H10.6599H10.666H10.6721H10.6783H10.6844H10.6905H10.6966H10.7027H10.7088H10.715H10.7211H10.7272H10.7333H10.7394H10.7456H10.7517H10.7578H10.7639H10.77H10.7762H10.7823H10.7884H10.7945H10.8006H10.8067H10.8129H10.819H10.8251H10.8312H10.8373H10.8435H10.8496H10.8557H10.8618H10.8679H10.8741H10.8802H10.8863H10.8924H10.8985H10.9047H10.9108H10.9169H10.923H10.9291H10.9353H10.9414H10.9475H10.9536H10.9598H10.9659H10.972H10.9781H10.9842H10.9904H10.9965H11.0026H11.0087H11.0148H11.021H11.0271H11.0332H11.0393H11.0455H11.0516H11.0577H11.0638H11.0699H11.0761H11.0822H11.0883H11.0944H11.1006H11.1067H11.1128H11.1189H11.125H11.1312H11.1373H11.1434H11.1495H11.1557H11.1618H11.1679H11.174H11.1802H11.1863H11.1924H11.1985H11.2047H11.2108H11.2169H11.223H11.2292H11.2353H11.2414H11.2475H11.2537H11.2598H11.2659H11.272H11.2782H11.2843H11.2904H11.2965H11.3027H11.3088H11.3149H11.3211H11.3272H11.3333H11.3394H11.3456H11.3517H11.3578H11.3639H11.3701H11.3762H11.3823H11.3885H11.3946H11.4007H11.4068H11.413H11.4191H11.4252H11.4314H11.4375H11.4436H11.4497H11.4559H11.462H11.4681H11.4743H11.4804H11.4865H11.4927H11.4988H11.5049H11.511H11.5172H11.5233H11.5294H11.5356H11.5417H11.5478H11.554H11.5601H11.5662H11.5724H11.5785H11.5846H11.5908H11.5969H11.603H11.6092H11.6153H11.6214H11.6276H11.6337H11.6398H11.646H11.6521H11.6582H11.6644H11.6705H11.6766H11.6828H11.6889H11.6951H11.7012H11.7073H11.7135H11.7196H11.7257H11.7319H11.738H11.7442H11.7503H11.7564H11.7626H11.7687H11.7748H11.781H11.7871H11.7933H11.7994H11.8055H11.8117H11.8178H11.824H11.8301H11.8362H11.8424H11.8485H11.8547H11.8608H11.8669H11.8731H11.8792H11.8854H11.8915H11.8977H11.9038H11.9099H11.9161H11.9222H11.9284H11.9345H11.9407H11.9468H11.9529H11.9591H11.9652H11.9714H11.9775H11.9837H11.9898H11.996H12.0021H12.0083H12.0144H12.0205H12.0267H12.0328H12.039H12.0451H12.0513H12.0574H12.0636H12.0697H12.0759H12.082H12.0882H12.0943H12.1005H12.1066H12.1128H12.1189H12.1251H12.1312H12.1374H12.5374V18V18.0025V18.0051V18.0076V18.0102V18.0127V18.0153V18.0178V18.0203V18.0229V18.0254V18.028V18.0305V18.033V18.0356V18.0381V18.0407V18.0432V18.0457V18.0483V18.0508V18.0534V18.0559V18.0584V18.061V18.0635V18.0661V18.0686V18.0711V18.0737V18.0762V18.0788V18.0813V18.0838V18.0864V18.0889V18.0915V18.094V18.0965V18.0991V18.1016V18.1042V18.1067V18.1092V18.1118V18.1143V18.1168V18.1194V18.1219V18.1245V18.127V18.1295V18.1321V18.1346V18.1372V18.1397V18.1422V18.1448V18.1473V18.1498V18.1524V18.1549V18.1575V18.16V18.1625V18.1651V18.1676V18.1701V18.1727V18.1752V18.1778V18.1803V18.1828V18.1854V18.1879V18.1904V18.193V18.1955V18.198V18.2006V18.2031V18.2057V18.2082V18.2107V18.2133V18.2158V18.2183V18.2209V18.2234V18.2259V18.2285V18.231V18.2336V18.2361V18.2386V18.2412V18.2437V18.2462V18.2488V18.2513V18.2538V18.2564V18.2589V18.2614V18.264V18.2665V18.2691V18.2716V18.2741V18.2767V18.2792V18.2817V18.2843V18.2868V18.2893V18.2919V18.2944V18.2969V18.2995V18.302V18.3045V18.3071V18.3096V18.3122V18.3147V18.3172V18.3198V18.3223V18.3248V18.3274V18.3299V18.3324V18.335V18.3375V18.34V18.3426V18.3451V18.3476V18.3502V18.3527V18.3552V18.3578V18.3603V18.3629V18.3654V18.3679V18.3705V18.373V18.3755V18.3781V18.3806V18.3831V18.3857V18.3882V18.3907V18.3933V18.3958V18.3983V18.4009V18.4034V18.406V18.4085V18.411V18.4136V18.4161V18.4186V18.4212V18.4237V18.4262V18.4288V18.4313V18.4338V18.4364V18.4389V18.4414V18.444V18.4465V18.4491V18.4516V18.4541V18.4567V18.4592V18.4617V18.4643V18.4668V18.4693V18.4719V18.4744V18.4769V18.4795V18.482V18.4846V18.4871V18.4896V18.4922V18.4947V18.4972V18.4998V18.5023V18.5048V18.5074V18.5099V18.5125V18.515V18.5175V18.5201V18.5226V18.5251V18.5277V18.5302V18.5327V18.5353V18.5378V18.5404V18.5429V18.5454V18.548V18.5505V18.553V18.5556V18.5581V18.5607V18.5632V18.5657V18.5683V18.5708V18.5733V18.5759V18.5784V18.581V18.5835V18.586V18.5886V18.5911V18.5937V18.5962V18.5987V18.6013V18.6038V18.6063V18.6089V18.6114V18.614V18.6165V18.619V18.6216V18.6241V18.6267V18.6292V18.6317V18.6343V18.6368V18.6394V18.6419V18.6444V18.647V18.6495V18.6521V18.6546V18.6571V18.6597V18.6622V18.6648V18.6673V18.6698V18.6724V18.6749V18.6775V18.68V18.6825V18.6851V18.6876V18.6902V18.6927V18.6953V18.6978V18.7003V18.7029V18.7054V18.708V18.7105V18.713V18.7156V18.7181V18.7207V18.7232V18.7258V18.7283V18.7308V18.7334V18.7359V18.7385V18.741V18.7436V18.7461V18.7487V18.7512V18.7537V18.7563V18.7588V18.7614V18.7639V18.7665V18.769V18.7716V18.7741V18.7766V18.7792V18.7817V18.7843V18.7868V18.7894V18.7919V18.7945V18.797V18.7996V18.8021V18.8047V18.8072V18.8097V18.8123V18.8148V18.8174V18.8199V18.8225V18.825V18.8276V18.8301V18.8327V18.8352V18.8378V18.8403V18.8429V18.8454V18.848V18.8505V18.8531V18.8556V18.8582V18.8607V18.8633V18.8658V18.8684V18.8709V18.8735V18.876V18.8786V18.8811V18.8837V18.8862V18.8888V18.8913V18.8939V18.8964V18.899V18.9015V18.9041V18.9066V18.9092V18.9117V18.9143V18.9168V18.9194V18.922V18.9245V18.9271V18.9296V18.9322V18.9347V18.9373V18.9398V18.9424V18.9449V18.9475V18.9501V18.9526V18.9552V18.9577V18.9603V18.9628V18.9654V18.968V18.9705V18.9731V18.9756V18.9782V18.9807V18.9833V18.9859V18.9884V18.991V18.9935V18.9961V18.9986V19.0012V19.0038V19.0063V19.0089V19.0114V19.014V19.0166V19.0191V19.0217V19.0242V19.0268V19.0294V19.0319V19.0345V19.0371V19.0396V19.0422V19.0447V19.0473V19.0499V19.0524V19.055V19.0576V19.0601V19.0627V19.0652V19.0678V19.0704V19.0729V19.0755V19.0781V19.0806V19.0832V19.0858V19.0883V19.0909V19.0935V19.096V19.0986V19.1012V19.1037V19.1063V19.1089V19.1114V19.114V19.1166V19.1191V19.1217V19.1243V19.1268V19.1294V19.132V19.1346V19.1371V19.1397V19.1423V19.1448V19.1474V19.15V19.1526V19.1551V19.1577V19.1603V19.1628V19.1654V19.168V19.1706V19.1731V19.1757V19.1783V19.1809V19.1834V19.186V19.1886V19.1912V19.1937V19.1963V19.1989V19.2015V19.204V19.2066V19.2092V19.2118V19.2143V19.2169V19.2195V19.2221V19.2247V19.2272V19.2298V19.2324V19.235V19.2376V19.2401V19.2427V19.2453V19.2479V19.2505V19.253V19.2556V19.2582V19.2608V19.2634V19.2659V19.2685V19.2711V19.2737V19.2763V19.2789V19.2814V19.284V19.2866V19.2892V19.2918V19.2944V19.297V19.2995V19.3021V19.3047V19.7047H12.1374H12.1313H12.1252H12.1191H12.113H12.1069H12.1008H12.0947H12.0886H12.0825H12.0764H12.0703H12.0642H12.0581H12.052H12.0459H12.0398H12.0337H12.0276H12.0215H12.0154H12.0093H12.0032H11.9971H11.991H11.9849H11.9788H11.9727H11.9666H11.9605H11.9544H11.9483H11.9422H11.9361H11.93H11.9239H11.9178H11.9117H11.9056H11.8995H11.8934H11.8873H11.8812H11.8751H11.869H11.8629H11.8568H11.8507H11.8446H11.8385H11.8324H11.8263H11.8202H11.8141H11.808H11.8019H11.7958H11.7897H11.7836H11.7775H11.7714H11.7653H11.7592H11.7531H11.747H11.7409H11.7348H11.7287H11.7226H11.7165H11.7104H11.7043H11.6982H11.6921H11.686H11.6799H11.6738H11.6677H11.6616H11.6555H11.6494H11.6433H11.6372H11.6311H11.625H11.6189H11.6128H11.6067H11.6006H11.5945H11.5884H11.5823H11.5762H11.57H11.5639H11.5578H11.5517H11.5456H11.5395H11.5334H11.5273H11.5212H11.5151H11.509H11.5029H11.4968H11.4907H11.4846H11.4785H11.4724H11.4663H11.4602H11.4541H11.448H11.4419H11.4358H11.4296H11.4235H11.4174H11.4113H11.4052H11.3991H11.393H11.3869H11.3808H11.3747H11.3686H11.3625H11.3564H11.3503H11.3442H11.3381H11.332H11.3258H11.3197H11.3136H11.3075H11.3014H11.2953H11.2892H11.2831H11.277H11.2709H11.2648H11.2587H11.2526H11.2464H11.2403H11.2342H11.2281H11.222H11.2159H11.2098H11.2037H11.1976H11.1915H11.1854H11.1793H11.1731H11.167H11.1609H11.1548H11.1487H11.1426H11.1365H11.1304H11.1243H11.1182H11.112H11.1059H11.0998H11.0937H11.0876H11.0815H11.0754H11.0693H11.0632H11.057H11.0509H11.0448H11.0387H11.0326H11.0265H11.0204H11.0143H11.0081H11.002H10.9959H10.9898H10.9837H10.9776H10.9715H10.9654H10.9592H10.9531H10.947H10.9409H10.9348H10.9287H10.9226H10.9164H10.9103H10.9042H10.8981H10.892H10.8859H10.8798H10.8736H10.8675H10.8614H10.8553H10.8492H10.8431H10.8369H10.8308H10.8247H10.8186H10.8125H10.8064H10.8002H10.7941H10.788H10.7819H10.7758H10.7697H10.7635H10.7574H10.7513H10.7452H10.7391H10.7329H10.7268H10.7207H10.7146H10.7085H10.7024H10.6962H10.6901H10.684H10.6779H10.6718H10.6656H10.6595H10.6534H10.6473H10.6412H10.635H10.6289H10.6228H10.6167H10.6105H10.6044H10.5983H10.5922H10.5861H10.5799H10.5738H10.5677H10.5616H10.5554H10.5493H10.5432H10.5371H10.531H10.5248H10.5187H10.5126H10.5065H10.5003H10.4942H10.4881H10.482H10.4758H10.4697H10.4636H10.4575H10.4513H10.4452H10.4391H10.433H10.4268H10.4207H10.4146H10.4084H10.4023H10.3962H10.3901H10.3839H10.3778H10.3717H10.3656H10.3594H10.3533H10.3472H10.341H10.3349H10.3288H10.3227H10.3165H10.3104H10.3043H10.2981H10.292H10.2859H10.2797H10.2736H10.2675H10.2613H10.2552H10.2491H10.243H10.2368H10.2307H10.2246H10.2184H10.2123H10.2062H10.2H10.1939H10.1878H10.1816H10.1755H10.1694H10.1632H10.1571H10.151H10.1448H10.1387H10.1326H10.1264H10.1203H10.1142H10.108H10.1019H10.0957H10.0896H10.0835H10.0773H10.0712H10.0651H10.0589H10.0528H10.0466H10.0405H10.0344H10.0282H10.0221H10.016H10.0098H10.0037H9.99754H9.9914H9.98526H9.97912H9.97298H9.96684H9.9607H9.95456H9.94842H9.94228H9.93614H9.92999H9.92385H9.91771H9.91157H9.90543H9.89928H9.89314H9.887H9.88086H9.87471H9.86857H9.86243H9.85628H9.85014H9.84399H9.83785H9.8317H9.82556H9.81941H9.81327H9.80712H9.80098H9.79483H9.78868H9.78254H9.77639H9.77024H9.7641H9.75795H9.7518H9.74565H9.73951H9.73336H9.72721H9.72106H9.71491H9.70876H9.70261H9.69646H9.69031H9.68416H9.67801H9.67186H9.66571H9.65956H9.65341H9.64726H9.64111H9.63495H9.6288H9.62265H9.6165H9.61034H9.60419H9.59804H9.59189H9.58573H9.57958H9.57342H9.56727H9.56111H9.55496H9.5488H9.54265H9.53649H9.53034H9.52418H9.51803H9.51187H9.50571H9.49955H9.4934H9.48724H9.48108H9.47492H9.46877H9.46261H9.45645H9.45029H9.44413H9.43797H9.43181H9.42565H9.41949H9.41333H9.40717H9.40101H9.39485H9.38869H9.38253H9.37636H9.3702H9.36404H9.35788H9.35171H9.34555H9.33939H9.33322H9.32706H9.3209H9.31473H9.30857H9.3024H9.29624H9.29007H9.28391H9.27774H9.27157H9.26541H9.25924H9.25307H9.24691H9.24074H9.23457H9.2284H9.22223H9.21607H9.2099H9.20373H9.19756H9.19139H9.18522H9.17905H9.17288H9.16671H9.16054H9.15437H9.14819H9.14202H9.13585H9.12968H9.12351H9.11733H9.11116H9.10499H9.09881H9.09264H9.08647H9.08029H9.07412H9.06794H9.06177H9.05559H9.04942H9.04324H9.03706H9.03089H9.02471H9.01853H9.01236H9.00618H9H8.6V19.3047V17.6ZM8.6 17.6V18M8.6 17.6V18M8.6 18V18.0026M8.6 18V18.0026M8.6 18.0026V18.0053M8.6 18.0026V18.0053M8.6 18.0053V18.0079M8.6 18.0053V18.0079M8.6 18.0079V18.0105M8.6 18.0079V18.0105M8.6 18.0105V18.0132M8.6 18.0105V18.0132M8.6 18.0132V18.0158M8.6 18.0132V18.0158M8.6 18.0158V18.0184M8.6 18.0158V18.0184M8.6 18.0184V18.021M8.6 18.0184V18.021M8.6 18.021V18.0237M8.6 18.021V18.0237M8.6 18.0237V18.0263M8.6 18.0237V18.0263M8.6 18.0263V18.0289M8.6 18.0263V18.0289M8.6 18.0289V18.0315M8.6 18.0289V18.0315M8.6 18.0315V18.0342M8.6 18.0315V18.0342M8.6 18.0342V18.0368M8.6 18.0342V18.0368M8.6 18.0368V18.0394M8.6 18.0368V18.0394M8.6 18.0394V18.042M8.6 18.0394V18.042M8.6 18.042V18.0447M8.6 18.042V18.0447M8.6 18.0447V18.0473M8.6 18.0447V18.0473M8.6 18.0473V18.0499M8.6 18.0473V18.0499M8.6 18.0499V18.0525M8.6 18.0499V18.0525M8.6 18.0525V18.0552M8.6 18.0525V18.0552M8.6 18.0552V18.0578M8.6 18.0552V18.0578M8.6 18.0578V18.0604M8.6 18.0578V18.0604M8.6 18.0604V18.063M8.6 18.0604V18.063M8.6 18.063V18.0656M8.6 18.063V18.0656M8.6 18.0656V18.0683M8.6 18.0656V18.0683M8.6 18.0683V18.0709M8.6 18.0683V18.0709M8.6 18.0709V18.0735M8.6 18.0709V18.0735M8.6 18.0735V18.0761M8.6 18.0735V18.0761M8.6 18.0761V18.0787M8.6 18.0761V18.0787M8.6 18.0787V18.0813M8.6 18.0787V18.0813M8.6 18.0813V18.084M8.6 18.0813V18.084M8.6 18.084V18.0866M8.6 18.084V18.0866M8.6 18.0866V18.0892M8.6 18.0866V18.0892M8.6 18.0892V18.0918M8.6 18.0892V18.0918M8.6 18.0918V18.0944M8.6 18.0918V18.0944M8.6 18.0944V18.097M8.6 18.0944V18.097M8.6 18.097V18.0996M8.6 18.097V18.0996M8.6 18.0996V18.1023M8.6 18.0996V18.1023M8.6 18.1023V18.1049M8.6 18.1023V18.1049M8.6 18.1049V18.1075M8.6 18.1049V18.1075M8.6 18.1075V18.1101M8.6 18.1075V18.1101M8.6 18.1101V18.1127M8.6 18.1101V18.1127M8.6 18.1127V18.1153M8.6 18.1127V18.1153M8.6 18.1153V18.1179M8.6 18.1153V18.1179M8.6 18.1179V18.1205M8.6 18.1179V18.1205M8.6 18.1205V18.1231M8.6 18.1205V18.1231M8.6 18.1231V18.1258M8.6 18.1231V18.1258M8.6 18.1258V18.1284M8.6 18.1258V18.1284M8.6 18.1284V18.131M8.6 18.1284V18.131M8.6 18.131V18.1336M8.6 18.131V18.1336M8.6 18.1336V18.1362M8.6 18.1336V18.1362M8.6 18.1362V18.1388M8.6 18.1362V18.1388M8.6 18.1388V18.1414M8.6 18.1388V18.1414M8.6 18.1414V18.144M8.6 18.1414V18.144M8.6 18.144V18.1466M8.6 18.144V18.1466M8.6 18.1466V18.1492M8.6 18.1466V18.1492M8.6 18.1492V18.1518M8.6 18.1492V18.1518M8.6 18.1518V18.1544M8.6 18.1518V18.1544M8.6 18.1544V18.157M8.6 18.1544V18.157M8.6 18.157V18.1596M8.6 18.157V18.1596M8.6 18.1596V18.1622M8.6 18.1596V18.1622M8.6 18.1622V18.1648M8.6 18.1622V18.1648M8.6 18.1648V18.1674M8.6 18.1648V18.1674M8.6 18.1674V18.17M8.6 18.1674V18.17M8.6 18.17V18.1726M8.6 18.17V18.1726M8.6 18.1726V18.1752M8.6 18.1726V18.1752M8.6 18.1752V18.1779M8.6 18.1752V18.1779M8.6 18.1779V18.1805M8.6 18.1779V18.1805M8.6 18.1805V18.183M8.6 18.1805V18.183M8.6 18.183V18.1856M8.6 18.183V18.1856M8.6 18.1856V18.1882M8.6 18.1856V18.1882M8.6 18.1882V18.1908M8.6 18.1882V18.1908M8.6 18.1908V18.1934M8.6 18.1908V18.1934M8.6 18.1934V18.196M8.6 18.1934V18.196M8.6 18.196V18.1986M8.6 18.196V18.1986M8.6 18.1986V18.2012M8.6 18.1986V18.2012M8.6 18.2012V18.2038M8.6 18.2012V18.2038M8.6 18.2038V18.2064M8.6 18.2038V18.2064M8.6 18.2064V18.209M8.6 18.2064V18.209M8.6 18.209V18.2116M8.6 18.209V18.2116M8.6 18.2116V18.2142M8.6 18.2116V18.2142M8.6 18.2142V18.2168M8.6 18.2142V18.2168M8.6 18.2168V18.2194M8.6 18.2168V18.2194M8.6 18.2194V18.222M8.6 18.2194V18.222M8.6 18.222V18.2246M8.6 18.222V18.2246M8.6 18.2246V18.2272M8.6 18.2246V18.2272M8.6 18.2272V18.2298M8.6 18.2272V18.2298M8.6 18.2298V18.2324M8.6 18.2298V18.2324M8.6 18.2324V18.235M8.6 18.2324V18.235M8.6 18.235V18.2375M8.6 18.235V18.2375M8.6 18.2375V18.2401M8.6 18.2375V18.2401M8.6 18.2401V18.2427M8.6 18.2401V18.2427M8.6 18.2427V18.2453M8.6 18.2427V18.2453M8.6 18.2453V18.2479M8.6 18.2453V18.2479M8.6 18.2479V18.2505M8.6 18.2479V18.2505M8.6 18.2505V18.2531M8.6 18.2505V18.2531M8.6 18.2531V18.2557M8.6 18.2531V18.2557M8.6 18.2557V18.2583M8.6 18.2557V18.2583M8.6 18.2583V18.2609M8.6 18.2583V18.2609M8.6 18.2609V18.2634M8.6 18.2609V18.2634M8.6 18.2634V18.266M8.6 18.2634V18.266M8.6 18.266V18.2686M8.6 18.266V18.2686M8.6 18.2686V18.2712M8.6 18.2686V18.2712M8.6 18.2712V18.2738M8.6 18.2712V18.2738M8.6 18.2738V18.2764M8.6 18.2738V18.2764M8.6 18.2764V18.279M8.6 18.2764V18.279M8.6 18.279V18.2815M8.6 18.279V18.2815M8.6 18.2815V18.2841M8.6 18.2815V18.2841M8.6 18.2841V18.2867M8.6 18.2841V18.2867M8.6 18.2867V18.2893M8.6 18.2867V18.2893M8.6 18.2893V18.2919M8.6 18.2893V18.2919M8.6 18.2919V18.2945M8.6 18.2919V18.2945M8.6 18.2945V18.297M8.6 18.2945V18.297M8.6 18.297V18.2996M8.6 18.297V18.2996M8.6 18.2996V18.3022M8.6 18.2996V18.3022M8.6 18.3022V18.3048M8.6 18.3022V18.3048M8.6 18.3048V18.3074M8.6 18.3048V18.3074M8.6 18.3074V18.3099M8.6 18.3074V18.3099M8.6 18.3099V18.3125M8.6 18.3099V18.3125M8.6 18.3125V18.3151M8.6 18.3125V18.3151M8.6 18.3151V18.3177M8.6 18.3151V18.3177M8.6 18.3177V18.3203M8.6 18.3177V18.3203M8.6 18.3203V18.3228M8.6 18.3203V18.3228M8.6 18.3228V18.3254M8.6 18.3228V18.3254M8.6 18.3254V18.328M8.6 18.3254V18.328M8.6 18.328V18.3306M8.6 18.328V18.3306M8.6 18.3306V18.3331M8.6 18.3306V18.3331M8.6 18.3331V18.3357M8.6 18.3331V18.3357M8.6 18.3357V18.3383M8.6 18.3357V18.3383M8.6 18.3383V18.3409M8.6 18.3383V18.3409M8.6 18.3409V18.3435M8.6 18.3409V18.3435M8.6 18.3435V18.346M8.6 18.3435V18.346M8.6 18.346V18.3486M8.6 18.346V18.3486M8.6 18.3486V18.3512M8.6 18.3486V18.3512M8.6 18.3512V18.3538M8.6 18.3512V18.3538M8.6 18.3538V18.3563M8.6 18.3538V18.3563M8.6 18.3563V18.3589M8.6 18.3563V18.3589M8.6 18.3589V18.3615M8.6 18.3589V18.3615M8.6 18.3615V18.364M8.6 18.3615V18.364M8.6 18.364V18.3666M8.6 18.364V18.3666M8.6 18.3666V18.3692M8.6 18.3666V18.3692M8.6 18.3692V18.3718M8.6 18.3692V18.3718M8.6 18.3718V18.3743M8.6 18.3718V18.3743M8.6 18.3743V18.3769M8.6 18.3743V18.3769M8.6 18.3769V18.3795M8.6 18.3769V18.3795M8.6 18.3795V18.382M8.6 18.3795V18.382M8.6 18.382V18.3846M8.6 18.382V18.3846M8.6 18.3846V18.3872M8.6 18.3846V18.3872M8.6 18.3872V18.3898M8.6 18.3872V18.3898M8.6 18.3898V18.3923M8.6 18.3898V18.3923M8.6 18.3923V18.3949M8.6 18.3923V18.3949M8.6 18.3949V18.3975M8.6 18.3949V18.3975M8.6 18.3975V18.4M8.6 18.3975V18.4M8.6 18.4V18.4026M8.6 18.4V18.4026M8.6 18.4026V18.4052M8.6 18.4026V18.4052M8.6 18.4052V18.4077M8.6 18.4052V18.4077M8.6 18.4077V18.4103M8.6 18.4077V18.4103M8.6 18.4103V18.4129M8.6 18.4103V18.4129M8.6 18.4129V18.4154M8.6 18.4129V18.4154M8.6 18.4154V18.418M8.6 18.4154V18.418M8.6 18.418V18.4206M8.6 18.418V18.4206M8.6 18.4206V18.4231M8.6 18.4206V18.4231M8.6 18.4231V18.4257M8.6 18.4231V18.4257M8.6 18.4257V18.4282M8.6 18.4257V18.4282M8.6 18.4282V18.4308M8.6 18.4282V18.4308M8.6 18.4308V18.4334M8.6 18.4308V18.4334M8.6 18.4334V18.4359M8.6 18.4334V18.4359M8.6 18.4359V18.4385M8.6 18.4359V18.4385M8.6 18.4385V18.4411M8.6 18.4385V18.4411M8.6 18.4411V18.4436M8.6 18.4411V18.4436M8.6 18.4436V18.4462M8.6 18.4436V18.4462M8.6 18.4462V18.4487M8.6 18.4462V18.4487M8.6 18.4487V18.4513M8.6 18.4487V18.4513M8.6 18.4513V18.4539M8.6 18.4513V18.4539M8.6 18.4539V18.4564M8.6 18.4539V18.4564M8.6 18.4564V18.459M8.6 18.4564V18.459M8.6 18.459V18.4616M8.6 18.459V18.4616M8.6 18.4616V18.4641M8.6 18.4616V18.4641M8.6 18.4641V18.4667M8.6 18.4641V18.4667M8.6 18.4667V18.4692M8.6 18.4667V18.4692M8.6 18.4692V18.4718M8.6 18.4692V18.4718M8.6 18.4718V18.4743M8.6 18.4718V18.4743M8.6 18.4743V18.4769M8.6 18.4743V18.4769M8.6 18.4769V18.4795M8.6 18.4769V18.4795M8.6 18.4795V18.482M8.6 18.4795V18.482M8.6 18.482V18.4846M8.6 18.482V18.4846M8.6 18.4846V18.4871M8.6 18.4846V18.4871M8.6 18.4871V18.4897M8.6 18.4871V18.4897M8.6 18.4897V18.4922M8.6 18.4897V18.4922M8.6 18.4922V18.4948M8.6 18.4922V18.4948M8.6 18.4948V18.4974M8.6 18.4948V18.4974M8.6 18.4974V18.4999M8.6 18.4974V18.4999M8.6 18.4999V18.5025M8.6 18.4999V18.5025M8.6 18.5025V18.505M8.6 18.5025V18.505M8.6 18.505V18.5076M8.6 18.505V18.5076M8.6 18.5076V18.5101M8.6 18.5076V18.5101M8.6 18.5101V18.5127M8.6 18.5101V18.5127M8.6 18.5127V18.5152M8.6 18.5127V18.5152M8.6 18.5152V18.5178M8.6 18.5152V18.5178M8.6 18.5178V18.5203M8.6 18.5178V18.5203M8.6 18.5203V18.5229M8.6 18.5203V18.5229M8.6 18.5229V18.5254M8.6 18.5229V18.5254M8.6 18.5254V18.528M8.6 18.5254V18.528M8.6 18.528V18.5306M8.6 18.528V18.5306M8.6 18.5306V18.5331M8.6 18.5306V18.5331M8.6 18.5331V18.5357M8.6 18.5331V18.5357M8.6 18.5357V18.5382M8.6 18.5357V18.5382M8.6 18.5382V18.5408M8.6 18.5382V18.5408M8.6 18.5408V18.5433M8.6 18.5408V18.5433M8.6 18.5433V18.5459M8.6 18.5433V18.5459M8.6 18.5459V18.5484M8.6 18.5459V18.5484M8.6 18.5484V18.551M8.6 18.5484V18.551M8.6 18.551V18.5535M8.6 18.551V18.5535M8.6 18.5535V18.5561M8.6 18.5535V18.5561M8.6 18.5561V18.5586M8.6 18.5561V18.5586M8.6 18.5586V18.5612M8.6 18.5586V18.5612M8.6 18.5612V18.5637M8.6 18.5612V18.5637M8.6 18.5637V18.5662M8.6 18.5637V18.5662M8.6 18.5662V18.5688M8.6 18.5662V18.5688M8.6 18.5688V18.5713M8.6 18.5688V18.5713M8.6 18.5713V18.5739M8.6 18.5713V18.5739M8.6 18.5739V18.5764M8.6 18.5739V18.5764M8.6 18.5764V18.579M8.6 18.5764V18.579M8.6 18.579V18.5815M8.6 18.579V18.5815M8.6 18.5815V18.5841M8.6 18.5815V18.5841M8.6 18.5841V18.5866M8.6 18.5841V18.5866M8.6 18.5866V18.5892M8.6 18.5866V18.5892M8.6 18.5892V18.5917M8.6 18.5892V18.5917M8.6 18.5917V18.5943M8.6 18.5917V18.5943M8.6 18.5943V18.5968M8.6 18.5943V18.5968M8.6 18.5968V18.5993M8.6 18.5968V18.5993M8.6 18.5993V18.6019M8.6 18.5993V18.6019M8.6 18.6019V18.6044M8.6 18.6019V18.6044M8.6 18.6044V18.607M8.6 18.6044V18.607M8.6 18.607V18.6095M8.6 18.607V18.6095M8.6 18.6095V18.6121M8.6 18.6095V18.6121M8.6 18.6121V18.6146M8.6 18.6121V18.6146M8.6 18.6146V18.6171M8.6 18.6146V18.6171M8.6 18.6171V18.6197M8.6 18.6171V18.6197M8.6 18.6197V18.6222M8.6 18.6197V18.6222M8.6 18.6222V18.6248M8.6 18.6222V18.6248M8.6 18.6248V18.6273M8.6 18.6248V18.6273M8.6 18.6273V18.6299M8.6 18.6273V18.6299M8.6 18.6299V18.6324M8.6 18.6299V18.6324M8.6 18.6324V18.6349M8.6 18.6324V18.6349M8.6 18.6349V18.6375M8.6 18.6349V18.6375M8.6 18.6375V18.64M8.6 18.6375V18.64M8.6 18.64V18.6426M8.6 18.64V18.6426M8.6 18.6426V18.6451M8.6 18.6426V18.6451M8.6 18.6451V18.6476M8.6 18.6451V18.6476M8.6 18.6476V18.6502M8.6 18.6476V18.6502M8.6 18.6502V18.6527M8.6 18.6502V18.6527M8.6 18.6527V18.6552M8.6 18.6527V18.6552M8.6 18.6552V18.6578M8.6 18.6552V18.6578M8.6 18.6578V18.6603M8.6 18.6578V18.6603M8.6 18.6603V18.6629M8.6 18.6603V18.6629M8.6 18.6629V18.6654M8.6 18.6629V18.6654M8.6 18.6654V18.6679M8.6 18.6654V18.6679M8.6 18.6679V18.6705M8.6 18.6679V18.6705M8.6 18.6705V18.673M8.6 18.6705V18.673M8.6 18.673V18.6755M8.6 18.673V18.6755M8.6 18.6755V18.6781M8.6 18.6755V18.6781M8.6 18.6781V18.6806M8.6 18.6781V18.6806M8.6 18.6806V18.6832M8.6 18.6806V18.6832M8.6 18.6832V18.6857M8.6 18.6832V18.6857M8.6 18.6857V18.6882M8.6 18.6857V18.6882M8.6 18.6882V18.6908M8.6 18.6882V18.6908M8.6 18.6908V18.6933M8.6 18.6908V18.6933M8.6 18.6933V18.6958M8.6 18.6933V18.6958M8.6 18.6958V18.6984M8.6 18.6958V18.6984M8.6 18.6984V18.7009M8.6 18.6984V18.7009M8.6 18.7009V18.7034M8.6 18.7009V18.7034M8.6 18.7034V18.706M8.6 18.7034V18.706M8.6 18.706V18.7085M8.6 18.706V18.7085M8.6 18.7085V18.711M8.6 18.7085V18.711M8.6 18.711V18.7136M8.6 18.711V18.7136M8.6 18.7136V18.7161M8.6 18.7136V18.7161M8.6 18.7161V18.7186M8.6 18.7161V18.7186M8.6 18.7186V18.7212M8.6 18.7186V18.7212M8.6 18.7212V18.7237M8.6 18.7212V18.7237M8.6 18.7237V18.7262M8.6 18.7237V18.7262M8.6 18.7262V18.7288M8.6 18.7262V18.7288M8.6 18.7288V18.7313M8.6 18.7288V18.7313M8.6 18.7313V18.7338M8.6 18.7313V18.7338M8.6 18.7338V18.7364M8.6 18.7338V18.7364M8.6 18.7364V18.7389M8.6 18.7364V18.7389M8.6 18.7389V18.7414M8.6 18.7389V18.7414M8.6 18.7414V18.7439M8.6 18.7414V18.7439M8.6 18.7439V18.7465M8.6 18.7439V18.7465M8.6 18.7465V18.749M8.6 18.7465V18.749M8.6 18.749V18.7515M8.6 18.749V18.7515M8.6 18.7515V18.7541M8.6 18.7515V18.7541M8.6 18.7541V18.7566M8.6 18.7541V18.7566M8.6 18.7566V18.7591M8.6 18.7566V18.7591M8.6 18.7591V18.7617M8.6 18.7591V18.7617M8.6 18.7617V18.7642M8.6 18.7617V18.7642M8.6 18.7642V18.7667M8.6 18.7642V18.7667M8.6 18.7667V18.7692M8.6 18.7667V18.7692M8.6 18.7692V18.7718M8.6 18.7692V18.7718M8.6 18.7718V18.7743M8.6 18.7718V18.7743M8.6 18.7743V18.7768M8.6 18.7743V18.7768M8.6 18.7768V18.7794M8.6 18.7768V18.7794M8.6 18.7794V18.7819M8.6 18.7794V18.7819M8.6 18.7819V18.7844M8.6 18.7819V18.7844M8.6 18.7844V18.7869M8.6 18.7844V18.7869M8.6 18.7869V18.7895M8.6 18.7869V18.7895M8.6 18.7895V18.792M8.6 18.7895V18.792M8.6 18.792V18.7945M8.6 18.792V18.7945M8.6 18.7945V18.797M8.6 18.7945V18.797M8.6 18.797V18.7996M8.6 18.797V18.7996M8.6 18.7996V18.8021M8.6 18.7996V18.8021M8.6 18.8021V18.8046M8.6 18.8021V18.8046M8.6 18.8046V18.8071M8.6 18.8046V18.8071M8.6 18.8071V18.8097M8.6 18.8071V18.8097M8.6 18.8097V18.8122M8.6 18.8097V18.8122M8.6 18.8122V18.8147M8.6 18.8122V18.8147M8.6 18.8147V18.8172M8.6 18.8147V18.8172M8.6 18.8172V18.8198M8.6 18.8172V18.8198M8.6 18.8198V18.8223M8.6 18.8198V18.8223M8.6 18.8223V18.8248M8.6 18.8223V18.8248M8.6 18.8248V18.8273M8.6 18.8248V18.8273M8.6 18.8273V18.8299M8.6 18.8273V18.8299M8.6 18.8299V18.8324M8.6 18.8299V18.8324M8.6 18.8324V18.8349M8.6 18.8324V18.8349M8.6 18.8349V18.8374M8.6 18.8349V18.8374M8.6 18.8374V18.84M8.6 18.8374V18.84M8.6 18.84V18.8425M8.6 18.84V18.8425M8.6 18.8425V18.845M8.6 18.8425V18.845M8.6 18.845V18.8475M8.6 18.845V18.8475M8.6 18.8475V18.85M8.6 18.8475V18.85M8.6 18.85V18.8526M8.6 18.85V18.8526M8.6 18.8526V18.8551M8.6 18.8526V18.8551M8.6 18.8551V18.8576M8.6 18.8551V18.8576M8.6 18.8576V18.8601M8.6 18.8576V18.8601M8.6 18.8601V18.8627M8.6 18.8601V18.8627M8.6 18.8627V18.8652M8.6 18.8627V18.8652M8.6 18.8652V18.8677M8.6 18.8652V18.8677M8.6 18.8677V18.8702M8.6 18.8677V18.8702M8.6 18.8702V18.8727M8.6 18.8702V18.8727M8.6 18.8727V18.8753M8.6 18.8727V18.8753M8.6 18.8753V18.8778M8.6 18.8753V18.8778M8.6 18.8778V18.8803M8.6 18.8778V18.8803M8.6 18.8803V18.8828M8.6 18.8803V18.8828M8.6 18.8828V18.8853M8.6 18.8828V18.8853M8.6 18.8853V18.8879M8.6 18.8853V18.8879M8.6 18.8879V18.8904M8.6 18.8879V18.8904M8.6 18.8904V18.8929M8.6 18.8904V18.8929M8.6 18.8929V18.8954M8.6 18.8929V18.8954M8.6 18.8954V18.8979M8.6 18.8954V18.8979M8.6 18.8979V18.9005M8.6 18.8979V18.9005M8.6 18.9005V18.903M8.6 18.9005V18.903M8.6 18.903V18.9055M8.6 18.903V18.9055M8.6 18.9055V18.908M8.6 18.9055V18.908M8.6 18.908V18.9105M8.6 18.908V18.9105M8.6 18.9105V18.9131M8.6 18.9105V18.9131M8.6 18.9131V18.9156M8.6 18.9131V18.9156M8.6 18.9156V18.9181M8.6 18.9156V18.9181M8.6 18.9181V18.9206M8.6 18.9181V18.9206M8.6 18.9206V18.9231M8.6 18.9206V18.9231M8.6 18.9231V18.9256M8.6 18.9231V18.9256M8.6 18.9256V18.9282M8.6 18.9256V18.9282M8.6 18.9282V18.9307M8.6 18.9282V18.9307M8.6 18.9307V18.9332M8.6 18.9307V18.9332M8.6 18.9332V18.9357M8.6 18.9332V18.9357M8.6 18.9357V18.9382M8.6 18.9357V18.9382M8.6 18.9382V18.9407M8.6 18.9382V18.9407M8.6 18.9407V18.9433M8.6 18.9407V18.9433M8.6 18.9433V18.9458M8.6 18.9433V18.9458M8.6 18.9458V18.9483M8.6 18.9458V18.9483M8.6 18.9483V18.9508M8.6 18.9483V18.9508M8.6 18.9508V18.9533M8.6 18.9508V18.9533M8.6 18.9533V18.9558M8.6 18.9533V18.9558M8.6 18.9558V18.9584M8.6 18.9558V18.9584M8.6 18.9584V18.9609M8.6 18.9584V18.9609M8.6 18.9609V18.9634M8.6 18.9609V18.9634M8.6 18.9634V18.9659M8.6 18.9634V18.9659M8.6 18.9659V18.9684M8.6 18.9659V18.9684M8.6 18.9684V18.9709M8.6 18.9684V18.9709M8.6 18.9709V18.9735M8.6 18.9709V18.9735M8.6 18.9735V18.976M8.6 18.9735V18.976M8.6 18.976V18.9785M8.6 18.976V18.9785M8.6 18.9785V18.981M8.6 18.9785V18.981M8.6 18.981V18.9835M8.6 18.981V18.9835M8.6 18.9835V18.986M8.6 18.9835V18.986M8.6 18.986V18.9885M8.6 18.986V18.9885M8.6 18.9885V18.9911M8.6 18.9885V18.9911M8.6 18.9911V18.9936M8.6 18.9911V18.9936M8.6 18.9936V18.9961M8.6 18.9936V18.9961M8.6 18.9961V18.9986M8.6 18.9961V18.9986M8.6 18.9986V19.0011M8.6 18.9986V19.0011M8.6 19.0011V19.0036M8.6 19.0011V19.0036M8.6 19.0036V19.0061M8.6 19.0036V19.0061M8.6 19.0061V19.0087M8.6 19.0061V19.0087M8.6 19.0087V19.0112M8.6 19.0087V19.0112M8.6 19.0112V19.0137M8.6 19.0112V19.0137M8.6 19.0137V19.0162M8.6 19.0137V19.0162M8.6 19.0162V19.0187M8.6 19.0162V19.0187M8.6 19.0187V19.0212M8.6 19.0187V19.0212M8.6 19.0212V19.0237M8.6 19.0212V19.0237M8.6 19.0237V19.0262M8.6 19.0237V19.0262M8.6 19.0262V19.0288M8.6 19.0262V19.0288M8.6 19.0288V19.0313M8.6 19.0288V19.0313M8.6 19.0313V19.0338M8.6 19.0313V19.0338M8.6 19.0338V19.0363M8.6 19.0338V19.0363M8.6 19.0363V19.0388M8.6 19.0363V19.0388M8.6 19.0388V19.0413M8.6 19.0388V19.0413M8.6 19.0413V19.0438M8.6 19.0413V19.0438M8.6 19.0438V19.0463M8.6 19.0438V19.0463M8.6 19.0463V19.0489M8.6 19.0463V19.0489M8.6 19.0489V19.0514M8.6 19.0489V19.0514M8.6 19.0514V19.0539M8.6 19.0514V19.0539M8.6 19.0539V19.0564M8.6 19.0539V19.0564M8.6 19.0564V19.0589M8.6 19.0564V19.0589M8.6 19.0589V19.0614M8.6 19.0589V19.0614M8.6 19.0614V19.0639M8.6 19.0614V19.0639M8.6 19.0639V19.0664M8.6 19.0639V19.0664M8.6 19.0664V19.0689M8.6 19.0664V19.0689M8.6 19.0689V19.0715M8.6 19.0689V19.0715M8.6 19.0715V19.074M8.6 19.0715V19.074M8.6 19.074V19.0765M8.6 19.074V19.0765M8.6 19.0765V19.079M8.6 19.0765V19.079M8.6 19.079V19.0815M8.6 19.079V19.0815M8.6 19.0815V19.084M8.6 19.0815V19.084M8.6 19.084V19.0865M8.6 19.084V19.0865M8.6 19.0865V19.089M8.6 19.0865V19.089M8.6 19.089V19.0915M8.6 19.089V19.0915M8.6 19.0915V19.0941M8.6 19.0915V19.0941M8.6 19.0941V19.0966M8.6 19.0941V19.0966M8.6 19.0966V19.0991M8.6 19.0966V19.0991M8.6 19.0991V19.1016M8.6 19.0991V19.1016M8.6 19.1016V19.1041M8.6 19.1016V19.1041M8.6 19.1041V19.1066M8.6 19.1041V19.1066M8.6 19.1066V19.1091M8.6 19.1066V19.1091M8.6 19.1091V19.1116M8.6 19.1091V19.1116M8.6 19.1116V19.1141M8.6 19.1116V19.1141M8.6 19.1141V19.1166M8.6 19.1141V19.1166M8.6 19.1166V19.1191M8.6 19.1166V19.1191M8.6 19.1191V19.1217M8.6 19.1191V19.1217M8.6 19.1217V19.1242M8.6 19.1217V19.1242M8.6 19.1242V19.1267M8.6 19.1242V19.1267M8.6 19.1267V19.1292M8.6 19.1267V19.1292M8.6 19.1292V19.1317M8.6 19.1292V19.1317M8.6 19.1317V19.1342M8.6 19.1317V19.1342M8.6 19.1342V19.1367M8.6 19.1342V19.1367M8.6 19.1367V19.1392M8.6 19.1367V19.1392M8.6 19.1392V19.1417M8.6 19.1392V19.1417M8.6 19.1417V19.1442M8.6 19.1417V19.1442M8.6 19.1442V19.1467M8.6 19.1442V19.1467M8.6 19.1467V19.1493M8.6 19.1467V19.1493M8.6 19.1493V19.1518M8.6 19.1493V19.1518M8.6 19.1518V19.1543M8.6 19.1518V19.1543M8.6 19.1543V19.1568M8.6 19.1543V19.1568M8.6 19.1568V19.1593M8.6 19.1568V19.1593M8.6 19.1593V19.1618M8.6 19.1593V19.1618M8.6 19.1618V19.1643M8.6 19.1618V19.1643M8.6 19.1643V19.1668M8.6 19.1643V19.1668M8.6 19.1668V19.1693M8.6 19.1668V19.1693M8.6 19.1693V19.1718M8.6 19.1693V19.1718M8.6 19.1718V19.1743M8.6 19.1718V19.1743M8.6 19.1743V19.1768M8.6 19.1743V19.1768M8.6 19.1768V19.1794M8.6 19.1768V19.1794M8.6 19.1794V19.1819M8.6 19.1794V19.1819M8.6 19.1819V19.1844M8.6 19.1819V19.1844M8.6 19.1844V19.1869M8.6 19.1844V19.1869M8.6 19.1869V19.1894M8.6 19.1869V19.1894M8.6 19.1894V19.1919M8.6 19.1894V19.1919M8.6 19.1919V19.1944M8.6 19.1919V19.1944M8.6 19.1944V19.1969M8.6 19.1944V19.1969M8.6 19.1969V19.1994M8.6 19.1969V19.1994M8.6 19.1994V19.2019M8.6 19.1994V19.2019M8.6 19.2019V19.2044M8.6 19.2019V19.2044M8.6 19.2044V19.2069M8.6 19.2044V19.2069M8.6 19.2069V19.2094M8.6 19.2069V19.2094M8.6 19.2094V19.212M8.6 19.2094V19.212M8.6 19.212V19.2145M8.6 19.212V19.2145M8.6 19.2145V19.217M8.6 19.2145V19.217M8.6 19.217V19.2195M8.6 19.217V19.2195M8.6 19.2195V19.222M8.6 19.2195V19.222M8.6 19.222V19.2245M8.6 19.222V19.2245M8.6 19.2245V19.227M8.6 19.2245V19.227M8.6 19.227V19.2295M8.6 19.227V19.2295M8.6 19.2295V19.232M8.6 19.2295V19.232M8.6 19.232V19.2345M8.6 19.232V19.2345M8.6 19.2345V19.237M8.6 19.2345V19.237M8.6 19.237V19.2395M8.6 19.237V19.2395M8.6 19.2395V19.242M8.6 19.2395V19.242M8.6 19.242V19.2446M8.6 19.242V19.2446M8.6 19.2446V19.2471M8.6 19.2446V19.2471M8.6 19.2471V19.2496V19.2471Z" stroke="white" stroke-width="0.8" stroke-miterlimit="10"/>
</svg>
