<svg width="25" height="25" viewBox="0 0 25 25" fill="none" xmlns="http://www.w3.org/2000/svg">
<path d="M12.4925 25C5.56778 24.9922 -0.0100335 19.3859 1.35518e-05 12.4439C0.0100607 5.56723 5.637 -0.0128159 12.5488 2.21078e-05C19.4328 0.0128601 25.0078 5.62863 25 12.5416C24.9922 19.4121 19.3747 25.0078 12.4925 25ZM23.2194 12.493C23.211 6.56859 18.4169 1.7778 12.4997 1.78059C6.55407 1.78338 1.77612 6.5831 1.78002 12.5494C1.78393 18.456 6.60989 23.2289 12.5695 23.2205C18.4364 23.2116 23.2278 18.3851 23.2194 12.493Z" fill="white"/>
<path d="M12.4491 12.5037C14.382 12.4758 16.1654 12.8325 17.8076 13.7758C18.7157 14.2971 19.4988 14.9563 20.062 15.8522C20.4689 16.4985 20.6459 17.2024 20.4963 17.957C20.2267 19.3184 18.9607 20.0201 17.6769 19.4909C17.2215 19.3034 16.7772 19.0321 16.4054 18.7095C15.3081 17.7561 14.0589 17.3023 12.6059 17.2917C11.3177 17.2822 10.136 17.5513 9.0889 18.3187C8.90192 18.4561 8.73 18.614 8.55306 18.7647C8.04903 19.194 7.4942 19.5076 6.82495 19.6087C5.53837 19.8029 4.51077 18.9445 4.45775 17.6394C4.41868 16.6721 4.81163 15.8868 5.43008 15.1924C6.52522 13.9628 7.93181 13.2589 9.49693 12.8414C10.4815 12.5779 11.4885 12.4819 12.4491 12.5037ZM18.7576 17.4061C18.757 16.9814 18.5075 16.6749 18.2457 16.3858C17.596 15.6674 16.7844 15.1896 15.8913 14.838C14.4362 14.2647 12.9202 14.205 11.3886 14.3234C9.99035 14.4311 8.68367 14.8391 7.55505 15.6881C7.13865 16.0018 6.77584 16.4025 6.44931 16.8122C6.3053 16.9931 6.27013 17.2934 6.26343 17.5418C6.2545 17.8633 6.38009 17.9509 6.6843 17.8248C6.96952 17.7064 7.24805 17.5373 7.48137 17.3347C8.28737 16.6347 9.18881 16.1179 10.2125 15.8176C10.9778 15.5932 11.7614 15.5552 12.5557 15.5413C14.4568 15.5078 16.1124 16.0995 17.538 17.3565C17.7305 17.5267 17.9493 17.683 18.1815 17.7896C18.608 17.9844 18.7553 17.8728 18.7576 17.4061Z" fill="white"/>
<path d="M17.7547 10.4167C18.2012 10.5267 18.5863 10.6277 18.9743 10.7165C19.4911 10.8342 19.8043 11.2311 19.7485 11.7111C19.6926 12.19 19.2986 12.5434 18.7666 12.4864C18.2542 12.4317 17.7502 12.2888 17.2462 12.1688C16.4965 11.9902 15.7503 11.7988 15.0034 11.6107C14.558 11.4985 14.3063 11.2244 14.2639 10.8136C14.2242 10.4284 14.4179 10.1047 14.8198 9.90265C15.9066 9.35676 16.995 8.81421 18.0829 8.26944C18.166 8.22813 18.2503 8.1885 18.329 8.13994C18.7739 7.86476 19.303 7.97696 19.5659 8.40563C19.8355 8.84547 19.6921 9.40085 19.2277 9.65147C18.8029 9.88088 18.3675 10.0902 17.9366 10.309C17.8964 10.3297 17.859 10.3548 17.7547 10.4167Z" fill="white"/>
<path d="M7.2233 10.4167C6.76281 10.184 6.34529 9.96461 5.92053 9.76032C5.50636 9.56049 5.31658 9.12735 5.46841 8.69365C5.62079 8.25939 6.08184 8.00542 6.51498 8.12376C6.61266 8.15055 6.70643 8.1952 6.79741 8.24041C7.89422 8.78687 8.99103 9.33443 10.0867 9.88256C10.5299 10.1047 10.7403 10.4245 10.7041 10.8147C10.6644 11.2367 10.3932 11.5147 9.8869 11.6419C8.82469 11.9087 7.76249 12.1766 6.69862 12.4351C6.52056 12.4786 6.33246 12.4959 6.14826 12.4965C5.67939 12.4987 5.30207 12.1605 5.25016 11.71C5.19713 11.2484 5.49911 10.8337 5.97076 10.7265C6.32353 10.6461 6.67796 10.5719 7.03073 10.4921C7.08208 10.4804 7.12897 10.4541 7.2233 10.4167Z" fill="white"/>
<path d="M10.5701 8.92335C8.68457 8.88763 6.85433 7.47657 6.3503 5.66865C6.20015 5.13057 6.42844 4.66617 6.92131 4.50765C7.39408 4.35583 7.83894 4.59863 8.04323 5.1088C8.53443 6.33399 9.43253 7.02333 10.7532 7.14445C11.2577 7.19078 11.6217 7.58374 11.6027 8.07046C11.5826 8.59291 11.1684 8.93507 10.5701 8.92335Z" fill="white"/>
<path d="M14.4949 8.92244C13.7 8.93918 13.2273 8.38269 13.4477 7.75084C13.5772 7.37909 13.8513 7.17927 14.2392 7.14745C15.585 7.03749 16.5026 6.3515 17.0033 5.10231C17.2143 4.5754 17.6999 4.3365 18.1849 4.52739C18.6555 4.71215 18.8788 5.22734 18.6678 5.72858C18.0008 7.31323 16.9358 8.46306 15.1848 8.83704C15.0307 8.86997 14.8733 8.88783 14.717 8.90737C14.6249 8.91853 14.5317 8.91965 14.4949 8.92244Z" fill="white"/>
</svg>
