<svg width="22" height="23" viewBox="0 0 22 23" fill="none" xmlns="http://www.w3.org/2000/svg">
<path d="M17.3571 20.9646C17.256 21.5402 17.1672 22.0544 17.0758 22.5676C17.0283 22.832 16.8446 22.997 16.6055 22.997C16.3796 22.997 16.1862 22.8365 16.1484 22.6037C16.1361 22.5289 16.1457 22.4477 16.1589 22.3719C16.289 21.6195 16.4244 20.8681 16.5492 20.1148C16.5624 20.0373 16.5404 19.9299 16.4947 19.8695C15.2069 18.1997 13.913 16.5335 12.6208 14.8673C12.605 14.8466 12.5909 14.8258 12.576 14.806C12.3131 15.0116 12.067 15.2137 11.8103 15.4014C11.6504 15.5186 11.4745 15.6133 11.3058 15.718C11.108 15.8407 10.9058 15.8497 10.7115 15.7189C10.287 15.4338 9.86679 15.1415 9.42287 14.8384C9.41408 14.8493 9.37101 14.8926 9.33321 14.9413C7.94082 16.7356 6.55018 18.5298 5.15603 20.3223C5.07779 20.4225 5.05318 20.5136 5.07779 20.6426C5.18767 21.219 5.29052 21.7982 5.38721 22.3773C5.44435 22.7228 5.26766 22.9754 4.97143 22.997C4.71475 23.016 4.524 22.8545 4.47038 22.564C4.40621 22.2176 4.34643 21.8712 4.27435 21.4644C4.13019 21.6556 4.00273 21.8036 3.89988 21.9669C3.39355 22.7661 2.52331 23.1477 1.64076 22.9474C0.78809 22.7544 0.146393 22.0417 0.0224486 21.1252C-0.0522696 20.5731 0.0558526 20.0598 0.402193 19.6133C1.68735 17.9579 2.96986 16.2998 4.25941 14.6472C4.37017 14.5047 4.40093 14.3874 4.34907 14.2088C4.00185 13.0108 3.93592 11.7812 3.98778 10.5399C4.05811 8.8557 4.29017 7.19764 4.78243 5.58468C4.80705 5.50349 4.83078 5.4223 4.85979 5.34292C4.95824 5.075 5.20613 4.94509 5.45402 5.02809C5.70455 5.11198 5.82849 5.36187 5.75201 5.64152C5.62807 6.10069 5.48039 6.55444 5.37842 7.01812C4.98549 8.80068 4.8176 10.6031 4.97143 12.428C5.00044 12.7699 5.06636 13.1091 5.12086 13.4862C5.18064 13.4285 5.21404 13.4032 5.23953 13.3707C5.54984 12.9729 5.84871 12.5651 6.17395 12.1809C6.28031 12.0546 6.45524 11.9896 6.59941 11.8967C6.61435 11.9129 6.62841 11.9292 6.64336 11.9454C6.6627 11.8056 6.6794 11.6648 6.70049 11.525C6.76642 11.1001 6.90883 10.7032 7.14089 10.3451C7.20682 10.2431 7.19979 10.1656 7.15583 10.0609C6.66885 8.88637 6.51326 7.66222 6.64248 6.39657C6.69082 5.92838 7.00464 5.75608 7.41251 5.96717C8.54032 6.55174 9.75954 6.3199 10.6843 5.32488C10.9111 5.08041 11.1053 4.80166 11.2935 4.52291C11.5203 4.18733 11.82 4.13861 12.1066 4.42819C12.5813 4.90721 13.1201 5.26895 13.7926 5.35284C14.073 5.38712 14.3639 5.36547 14.6461 5.3357C15.0144 5.29781 15.2122 5.4187 15.2781 5.78405C15.541 7.23372 15.4267 8.64642 14.8703 10.0122C14.8096 10.1619 14.8158 10.2648 14.9019 10.4019C15.1401 10.7799 15.2729 11.2021 15.33 11.6486C15.3423 11.7451 15.3537 11.8408 15.3669 11.9526C15.7625 11.9201 15.8899 12.2566 16.0851 12.493C16.3277 12.7871 16.5545 13.0938 16.7892 13.3951C16.8068 13.4185 16.8314 13.4357 16.8956 13.4961C16.9571 13.0135 17.0441 12.5787 17.0635 12.1403C17.1654 9.84711 16.9993 7.58194 16.3128 5.38081C16.0095 4.40925 15.5691 3.50624 14.9239 2.72051C14.0712 1.68219 12.9724 1.13191 11.6671 0.996595C10.4513 0.870301 9.30244 1.06606 8.28364 1.80217C8.00938 2.00063 7.76237 2.24059 7.5136 2.47334C7.29121 2.68082 7.00728 2.70427 6.81389 2.51032C6.61874 2.31547 6.62841 2.02499 6.84466 1.79676C8.17024 0.396697 9.80174 -0.141857 11.6697 0.0313466C14.0422 0.251459 15.6438 1.58928 16.6697 3.73087C17.3114 5.07139 17.6463 6.50393 17.8326 7.97525C18.0137 9.40959 18.113 10.8521 17.9891 12.2963C17.9337 12.9431 17.7843 13.5827 17.6568 14.2214C17.6243 14.3838 17.6322 14.4938 17.7368 14.6273C19.0149 16.2638 20.2746 17.9155 21.565 19.542C22.0933 20.2078 22.154 21.2605 21.6723 22.0138C20.8257 23.3362 18.9648 23.3173 18.1218 21.9867C17.9056 21.6448 17.6384 21.3363 17.3571 20.9646ZM8.5245 14.4208C7.74215 14.3107 7.20946 13.8885 6.87366 13.1867C6.79807 13.0279 6.70049 13.036 6.58446 13.1858C4.76485 15.5322 2.94525 17.8794 1.12828 20.2276C1.07026 20.3025 1.02367 20.3927 0.994663 20.4838C0.81534 21.0467 1.07466 21.6592 1.5968 21.9181C2.12159 22.1788 2.75977 21.9948 3.07974 21.4941C3.14215 21.3958 3.20544 21.2975 3.27664 21.2064C4.98461 19.0025 6.69434 16.7996 8.40231 14.5958C8.44099 14.5462 8.47439 14.4929 8.5245 14.4208ZM13.4867 14.4217C13.5332 14.4884 13.5596 14.5317 13.5904 14.5723C14.7041 16.0094 15.8205 17.4437 16.9316 18.8826C17.619 19.7729 18.3003 20.6696 18.9815 21.5654C19.3806 22.0904 20.1049 22.1888 20.6174 21.79C21.1378 21.385 21.1844 20.5893 20.8143 20.1184C19.0061 17.8208 17.2234 15.5024 15.432 13.1921C15.3045 13.0279 15.2122 13.0288 15.1234 13.2129C14.7903 13.9021 14.2593 14.3089 13.4867 14.4217ZM14.4184 6.34967C13.433 6.4092 12.5777 6.09437 11.8235 5.46921C10.7054 6.89724 9.33849 7.58464 7.53646 7.08127C7.52767 7.92383 7.64458 8.71949 7.93818 9.49349C8.1008 9.39877 8.23442 9.31036 8.37682 9.24C9.09323 8.88638 9.84129 8.71497 10.6096 9.00545C10.8961 9.1137 11.1115 9.11641 11.3989 9.00635C12.1382 8.72129 12.8652 8.87735 13.5631 9.20482C13.7337 9.2851 13.8945 9.38885 14.0791 9.49169C14.4439 8.4678 14.5573 7.43309 14.4184 6.34967ZM10.8065 10.862C10.8109 10.1863 10.5551 9.89853 10.0241 9.84441C9.62681 9.80381 9.25322 9.89763 8.89369 10.0582C7.9962 10.4596 7.50745 11.3094 7.59096 12.2774C7.6059 12.4488 7.69556 12.5137 7.81511 12.5787C8.22474 12.8015 8.64053 13.0144 9.04137 13.2525C9.20927 13.3527 9.3376 13.3428 9.49319 13.2408C10.3854 12.6526 10.6588 11.7271 10.8065 10.862ZM11.6011 9.91748C11.8253 10.6022 11.7374 11.2336 11.5457 11.8606C11.5299 11.912 11.5247 11.9797 11.544 12.0275C11.7576 12.5534 12.0767 12.9882 12.5716 13.2706C12.6929 13.3401 12.7922 13.3527 12.9223 13.2769C13.2862 13.0631 13.6607 12.8701 14.0299 12.6644C14.4378 12.438 14.4861 12.3387 14.4211 11.8624C14.4035 11.7334 14.3824 11.6044 14.3464 11.4799C14.0598 10.4993 13.1579 9.81915 12.1532 9.83448C11.9747 9.83809 11.7972 9.88681 11.6011 9.91748ZM11.0069 13.1145C10.7071 13.4185 10.3968 13.7325 10.054 14.0798C10.3371 14.2927 10.6359 14.5191 10.9383 14.741C10.9673 14.7618 11.0324 14.7672 11.0588 14.7482C11.3655 14.5245 11.6679 14.2945 11.9545 14.0789C11.6099 13.7289 11.3005 13.414 11.0069 13.1145Z" fill="white"/>
<path d="M11.493 2.99999C11.2283 2.9981 11.0028 2.76981 11 2.50189C10.9972 2.22455 11.2217 2.00286 11.508 2.00003C11.7764 1.9972 11.9981 2.22077 12 2.49435C12.0028 2.76887 11.768 3.00188 11.493 2.99999Z" fill="white"/>
</svg>
