<svg width="25" height="25" viewBox="0 0 25 25" fill="none" xmlns="http://www.w3.org/2000/svg">
<path d="M13.7695 25C12.9395 25 12.1094 25 11.2793 25C10.9521 24.9492 10.623 24.9087 10.2979 24.8457C7.1123 24.2266 4.51709 22.6421 2.54492 20.0625C1.23828 18.3535 0.435058 16.4258 0.140136 14.2915C0.0869138 13.9067 0.0463867 13.5205 0 13.1348C0 12.728 0 12.3208 0 11.9141C0.0146484 11.835 0.0327151 11.7563 0.042969 11.6768C0.115723 11.1226 0.149414 10.5601 0.264648 10.0146C0.897949 7.02588 2.41504 4.57324 4.8125 2.67871C6.56152 1.29639 8.54639 0.446777 10.7583 0.140137C11.1426 0.086914 11.5288 0.0463867 11.9136 0C12.3203 0 12.7275 0 13.1343 0C13.2051 0.0141602 13.2749 0.0375977 13.3462 0.0410156C14.3154 0.0883789 15.2686 0.248535 16.1846 0.558594C20.7637 2.10889 23.6396 5.22949 24.7637 9.94238C24.8687 10.3818 24.9224 10.8335 25 11.2793C25 12.1094 25 12.9395 25 13.7695C24.9854 13.8237 24.9678 13.8774 24.9565 13.9321C24.8086 14.6611 24.7329 15.4136 24.502 16.1152C22.9844 20.7275 19.8574 23.6191 15.1294 24.7588C14.6826 24.8662 14.2231 24.9209 13.7695 25ZM12.5303 1.8623C6.67285 1.86035 1.86816 6.65332 1.8623 12.5059C1.85596 18.3765 6.65283 23.1841 12.5181 23.186C18.3755 23.188 23.1797 18.395 23.186 12.5425C23.1924 6.67188 18.396 1.86426 12.5303 1.8623Z" fill="white"/>
<path d="M16.4448 17.0703C15.9146 18.8193 14.5195 20.1382 12.5151 20.1367C10.4941 20.1357 9.10938 18.7939 8.59668 17.061C9.17041 16.875 9.74512 16.689 10.3472 16.4941C10.7095 17.5317 11.3145 18.2715 12.5244 18.2725C13.729 18.2734 14.3232 17.5312 14.7007 16.4839C15.2915 16.6826 15.8687 16.8765 16.4448 17.0703Z" fill="white"/>
<path d="M9.35889 5.59326C9.65186 6.1543 9.92871 6.68506 10.2188 7.24121C8.30371 8.25439 6.67188 9.60449 5.31885 11.3203C4.82373 10.9341 4.3457 10.561 3.85352 10.1768C5.36133 8.26025 7.18604 6.74023 9.35889 5.59326Z" fill="white"/>
<path d="M19.7285 11.3208C18.3716 9.604 16.7515 8.25976 14.8291 7.24316C15.1152 6.69385 15.3979 6.15137 15.6885 5.59375C17.8599 6.73681 19.6831 8.25878 21.1943 10.1758C20.7046 10.5581 20.2266 10.9316 19.7285 11.3208Z" fill="white"/>
<path d="M5.40234 13.9316C5.66797 13.398 5.93506 12.8618 6.22021 12.2891C7.56885 12.9668 8.92725 12.9761 10.2881 12.2871C10.5718 12.8535 10.8428 13.3955 11.1128 13.936C9.73438 14.875 6.67383 14.8735 5.40234 13.9316Z" fill="white"/>
<path d="M13.9336 13.9404C14.2061 13.394 14.4731 12.8579 14.7573 12.2886C16.1094 12.9678 17.4663 12.9746 18.8252 12.2866C19.1064 12.8496 19.3774 13.3911 19.647 13.9302C18.4043 14.8696 15.4385 14.8769 13.9336 13.9404Z" fill="white"/>
</svg>
