<svg width="32" height="22" viewBox="0 0 32 22" fill="none" xmlns="http://www.w3.org/2000/svg">
<path fill-rule="evenodd" clip-rule="evenodd" d="M15.9151 0.00558736C17.7337 0.00558736 19.5522 0.00426131 21.3707 0.00611738C22.415 0.00717799 23.4591 0.0183141 24.5034 0.0140716C24.8355 0.0127459 25.1023 0.134983 25.3505 0.342863C26.0464 0.925668 26.5906 1.62594 26.9968 2.43492C27.2368 2.91246 27.4157 3.41134 27.5576 3.92826C27.8172 4.87419 27.8083 5.83603 27.7482 6.79787C27.7147 7.33428 27.5725 7.85544 27.4022 8.36957C27.1654 9.08521 26.8234 9.74067 26.3798 10.3461C25.836 11.0884 25.1608 11.6842 24.3446 12.1062C24.1764 12.1932 24.1118 12.2998 24.0758 12.4565C23.9562 12.9758 23.8392 13.4956 23.7185 14.0147C23.6706 14.2203 23.6271 14.4279 23.5611 14.6278C23.4164 15.0669 23.0889 15.2924 22.624 15.2923C19.5113 15.2912 16.3988 15.2899 13.286 15.2897C11.9975 15.2895 10.709 15.2915 9.42049 15.293C8.85346 15.2936 8.53541 14.9565 8.41781 14.471C8.27012 13.861 8.14219 13.2463 8.00365 12.634C7.97687 12.5156 7.95141 12.3947 7.90448 12.2839C7.87743 12.2201 7.81857 12.1534 7.75679 12.1228C6.70413 11.6018 5.87407 10.8314 5.24606 9.84793C4.93928 9.36747 4.71005 8.84578 4.51715 8.30447C4.15959 7.30127 4.10577 6.26995 4.14276 5.22181C4.17047 4.43642 4.34905 3.68339 4.63435 2.95912C5.00517 2.0181 5.54687 1.18128 6.28824 0.485647C6.61212 0.181649 6.98056 -0.00210305 7.45332 1.81681e-05C10.2739 0.0123478 13.0944 0.00611738 15.915 0.00611738C15.9151 0.00611738 15.9151 0.00585252 15.9151 0.00558736ZM22.0821 12.7292C21.6224 12.6482 21.1766 12.5767 20.7336 12.4892C20.1857 12.3813 19.7015 12.1192 19.2388 11.8213C18.6965 11.4721 18.2327 11.0321 17.8291 10.5288C17.4595 10.0679 17.1611 9.5609 16.9157 9.02701C16.7689 8.70737 16.6592 8.36731 16.5653 8.02752C16.4631 7.6579 16.3595 7.28111 16.3271 6.90141C16.2813 6.36461 16.291 5.82211 16.2955 5.28226C16.2979 5.01565 16.3235 4.74997 16.4747 4.50775C16.7868 4.00741 17.464 3.96869 17.8151 4.2711C18.1357 4.54726 18.2151 4.90084 18.1631 5.28849C18.0963 5.78685 18.1216 6.28069 18.1882 6.77335C18.271 7.38492 18.4515 7.96813 18.737 8.51845C19.2928 9.58953 20.0735 10.3875 21.2769 10.7228C21.8805 10.8912 22.463 10.8489 23.0366 10.657C23.8355 10.3898 24.4558 9.86901 24.9396 9.18849C25.4443 8.47868 25.7625 7.68388 25.8749 6.82373C25.9874 5.96476 25.9715 5.10421 25.7286 4.25957C25.5044 3.48028 25.1409 2.7771 24.5985 2.17334C24.4615 2.02088 24.3405 1.82228 24.1008 1.81062C23.8547 1.79855 23.6079 1.79842 23.3616 1.79961C23.0679 1.8012 22.7742 1.80942 22.4807 1.81578C22.3664 1.8183 22.2519 1.82957 22.1379 1.82613C21.9657 1.82082 21.7937 1.79895 21.6214 1.79656C21.2792 1.79179 20.937 1.79563 20.5947 1.79563C20.2329 1.79577 19.8711 1.7955 19.5092 1.79563C19.1739 1.79577 18.8383 1.7963 18.503 1.79709C18.3561 1.79736 18.2091 1.79762 18.0622 1.79961C17.7687 1.80346 17.4752 1.81194 17.1815 1.81207C16.8951 1.81207 16.6086 1.80107 16.3223 1.80054C16.1491 1.80027 15.9761 1.81088 15.803 1.81618C15.6781 1.8199 15.5531 1.82851 15.4283 1.8252C15.2578 1.82082 15.0876 1.79948 14.9172 1.79935C14.6237 1.79921 14.3301 1.81486 14.0365 1.81459C13.7483 1.81433 13.4601 1.7963 13.1719 1.79709C12.7647 1.79829 12.3577 1.81499 11.9507 1.81499C11.5401 1.81499 11.1295 1.80014 10.7189 1.79603C10.3626 1.79245 10.0061 1.79205 9.64971 1.7955C9.24628 1.79934 8.84285 1.81075 8.43929 1.81552C8.28179 1.81751 8.12403 1.81552 7.96692 1.8069C7.732 1.79391 7.53128 1.83024 7.35694 2.02367C6.61862 2.84285 6.19318 3.80695 6.03674 4.88625C5.97562 5.30785 5.99193 5.74177 5.98769 6.17026C5.98212 6.73185 6.11589 7.27183 6.30097 7.79564C6.50633 8.37699 6.78554 8.92572 7.20898 9.38126C7.45929 9.65052 7.72152 9.92138 8.02221 10.1277C8.31374 10.3277 8.65049 10.4789 8.98763 10.5898C9.27837 10.6855 9.59934 10.7399 9.90413 10.7294C10.2354 10.718 10.5679 10.6279 10.8917 10.5412C11.3919 10.4071 11.8085 10.1202 12.1825 9.76758C12.6066 9.36773 12.9456 8.90849 13.2002 8.38243C13.4018 7.96614 13.5578 7.53659 13.6453 7.08358C13.6913 6.84587 13.7336 6.60524 13.7494 6.36408C13.7722 6.01634 13.7943 5.66514 13.7689 5.31885C13.7504 5.06881 13.7165 4.82713 13.807 4.58623C13.9192 4.28807 14.126 4.08682 14.437 4.01708C14.7719 3.94204 15.0722 4.00873 15.3196 4.27097C15.5555 4.52087 15.6093 4.82752 15.6179 5.14862C15.6427 6.05319 15.6308 6.95193 15.3764 7.83528C15.1717 8.54589 14.9016 9.22561 14.5043 9.8462C14.0116 10.6158 13.3967 11.2744 12.6162 11.7654C12.0841 12.0999 11.5186 12.3592 10.8981 12.4751C10.5781 12.5349 10.2521 12.5622 9.90028 12.6079C9.98116 12.9233 10.0558 13.2451 10.1475 13.5617C10.208 13.7701 10.282 13.8139 10.4952 13.8139C14.1751 13.8145 17.8551 13.8143 21.5349 13.8139C21.7672 13.8139 21.8624 13.7361 21.913 13.5129C21.9341 13.4201 21.9573 13.3277 21.9771 13.2345C22.0154 13.0553 22.0518 12.876 22.0821 12.7292Z" fill="white"/>
<path fill-rule="evenodd" clip-rule="evenodd" d="M31.276 18.2492C30.6307 18.2504 29.8968 17.663 29.8333 16.8122C29.8247 16.6961 29.8109 16.5801 29.7927 16.4651C29.7063 15.9133 29.2362 15.5698 28.6808 15.6538C28.5343 15.6759 28.3897 15.7105 28.2436 15.7362C27.289 15.9046 26.4483 15.244 26.3822 14.2719C26.3565 13.8935 26.2578 13.5419 26.0241 13.236C25.9953 13.1984 25.9723 13.1558 25.9513 13.1132C25.8107 12.8286 25.841 12.539 26.0248 12.3985C26.2836 12.2005 26.6694 12.219 26.9059 12.4295C27.2003 12.6916 27.3291 13.0299 27.3806 13.4075C27.3972 13.5282 27.416 13.6489 27.4241 13.7702C27.4588 14.2862 28.047 14.6596 28.4839 14.5698C28.6603 14.5336 28.8384 14.505 29.017 14.4817C29.9844 14.3556 30.736 14.9581 30.8315 15.9326C30.8382 16.0012 30.8556 16.0693 30.8564 16.1377C30.8621 16.5705 31.1177 16.828 31.4571 17.0458C31.6034 17.1397 31.7534 17.2687 31.8331 17.4184C32.0232 17.7758 31.8649 18.2936 31.276 18.2492Z" fill="white"/>
<path fill-rule="evenodd" clip-rule="evenodd" d="M3.87131 15.6742C3.70996 15.6449 3.46615 15.5948 3.22036 15.5573C2.67812 15.4745 2.20575 15.8234 2.11865 16.3643C2.06761 16.6818 2.0745 17.0116 1.91302 17.3054C1.62626 17.8271 1.20294 18.1387 0.593357 18.1534C0.37275 18.1587 0.164605 18.1116 0.0658351 17.8788C-0.0375744 17.6353 -0.0284268 17.3905 0.159964 17.1975C0.313355 17.0403 0.495913 16.9078 0.679001 16.7843C0.905441 16.6314 1.00355 16.4178 1.03895 16.1594C1.06917 15.9395 1.08402 15.7137 1.1458 15.5023C1.37834 14.7073 2.05024 14.2783 2.87221 14.3845C3.06127 14.4089 3.24979 14.4395 3.43686 14.4762C3.8676 14.5608 4.43463 14.188 4.4911 13.6821C4.5261 13.3698 4.5908 13.0536 4.69474 12.7574C4.82983 12.3719 5.1577 12.157 5.49749 12.1642C5.9212 12.1734 6.15984 12.5325 6.00088 12.9258C5.97132 12.9989 5.93698 13.0732 5.88965 13.1355C5.64558 13.4563 5.55132 13.8236 5.52692 14.2188C5.47774 15.0161 4.73849 15.6993 3.87131 15.6742Z" fill="white"/>
<path fill-rule="evenodd" clip-rule="evenodd" d="M26.3786 19.5585C26.4124 19.4098 26.4522 19.2028 26.5072 19.0001C26.5765 18.7452 26.692 18.4954 26.6113 18.2243C26.4836 17.7949 26.1846 17.5547 25.7486 17.4787C25.3775 17.414 25.0254 17.3087 24.7515 17.0291C24.2949 16.5627 24.1499 16.0099 24.3488 15.3925C24.477 14.995 24.5599 14.6054 24.4597 14.1924C24.4523 14.1618 24.4507 14.1294 24.4488 14.0977C24.4305 13.7749 24.5791 13.5168 24.8127 13.4643C25.1259 13.3937 25.4675 13.5624 25.5961 13.8425C25.7603 14.2005 25.7412 14.5632 25.6367 14.9296C25.6017 15.0519 25.5659 15.1741 25.5232 15.2937C25.3506 15.7765 25.7227 16.3453 26.156 16.4478C26.3466 16.4929 26.537 16.5416 26.7244 16.599C27.6206 16.8737 28.0599 17.7331 27.7643 18.6259C27.746 18.6813 27.7346 18.7394 27.7115 18.7927C27.526 19.2191 27.6283 19.5955 27.8963 19.952C28.0158 20.111 28.0835 20.2945 28.0652 20.5018C28.0277 20.9294 27.6751 21.1513 27.2836 20.9794C26.6956 20.7214 26.447 20.2346 26.3786 19.5585Z" fill="white"/>
<path fill-rule="evenodd" clip-rule="evenodd" d="M7.46412 13.9344C7.46412 13.9448 7.46624 13.956 7.46386 13.966C7.34122 14.4812 7.47049 14.9636 7.60346 15.4623C7.82181 16.2807 7.28315 17.1134 6.46277 17.3159C6.30328 17.3552 6.14141 17.3855 5.98377 17.4311C5.45533 17.5839 5.17188 18.0953 5.32288 18.6256C5.41979 18.966 5.56298 19.2975 5.50782 19.6644C5.42536 20.2132 5.16843 20.6414 4.64767 20.8761C4.45318 20.9637 4.24808 21.0048 4.06645 20.8389C3.87488 20.6641 3.78035 20.4399 3.86772 20.1942C3.94819 19.9678 4.07653 19.7566 4.19704 19.5463C4.30456 19.359 4.32418 19.1676 4.27234 18.9639C4.24212 18.8458 4.21202 18.7273 4.17265 18.6121C3.80952 17.5508 4.34195 16.6613 5.4422 16.431C5.57159 16.404 5.70085 16.3709 5.82521 16.3264C6.24946 16.1753 6.50652 15.7044 6.40298 15.2664C6.34584 15.0244 6.2647 14.7878 6.21618 14.5445C6.16447 14.2853 6.19192 14.0282 6.30169 13.782C6.41611 13.5252 6.61298 13.3822 6.88808 13.3583C7.24352 13.3273 7.46187 13.5514 7.46412 13.9344Z" fill="white"/>
<path fill-rule="evenodd" clip-rule="evenodd" d="M2.35683 13.2981C2.05667 13.281 1.73053 13.2049 1.45849 12.9749C1.30483 12.8449 1.16523 12.6962 1.00216 12.5799C0.858049 12.477 0.694715 12.3971 0.531647 12.3255C0.329865 12.2367 0.16958 12.1232 0.153273 11.8823C0.139087 11.6719 0.20299 11.4856 0.382101 11.3706C0.623124 11.2158 0.891855 11.2174 1.1415 11.3387C1.30046 11.4159 1.4398 11.5391 1.57661 11.6551C1.84601 11.8835 2.13144 12.0334 2.50412 11.9702C2.74607 11.929 2.92028 11.809 3.07208 11.626C3.27386 11.3826 3.46742 11.1261 3.70354 10.9195C3.94589 10.7076 4.24299 10.5783 4.58596 10.6776C4.82076 10.7456 4.98051 10.9218 4.99669 11.1291C5.01883 11.4151 4.90282 11.6856 4.66246 11.756C4.22005 11.8854 3.98022 12.2253 3.74159 12.5679C3.41372 13.0378 2.97304 13.282 2.35683 13.2981Z" fill="white"/>
<path fill-rule="evenodd" clip-rule="evenodd" d="M29.5169 13.3915C28.9396 13.3791 28.493 13.1336 28.1665 12.6551C28.0414 12.4718 27.9054 12.2906 27.7459 12.1382C27.6316 12.0291 27.4769 11.9518 27.3276 11.8916C27.0348 11.7732 26.8728 11.5106 26.9189 11.1838C26.9523 10.9473 27.2144 10.7456 27.507 10.7427C27.8664 10.739 28.1476 10.9224 28.3889 11.1598C28.5534 11.3218 28.6981 11.5097 28.8256 11.703C29.1252 12.1572 29.8128 12.1704 30.1402 11.8985C30.2951 11.7699 30.4553 11.6477 30.613 11.5229C30.8246 11.3556 31.0668 11.3275 31.321 11.3774C31.5701 11.4262 31.7305 11.6093 31.7578 11.8592C31.7849 12.1072 31.6939 12.2951 31.4419 12.3826C31.12 12.4943 30.868 12.6935 30.6306 12.923C30.3202 13.2231 29.9523 13.3872 29.5169 13.3915Z" fill="white"/>
<path fill-rule="evenodd" clip-rule="evenodd" d="M22.98 8.60112C23.0458 9.0471 22.527 9.5314 22.0632 9.53512C21.5899 9.53883 21.0979 9.04975 21.1157 8.58057C21.1333 8.11522 21.5433 7.66526 22.0688 7.66406C22.5267 7.66314 23.042 8.09149 22.98 8.60112Z" fill="white"/>
<path fill-rule="evenodd" clip-rule="evenodd" d="M8.74604 8.60291C8.68797 8.1776 9.18142 7.68628 9.6693 7.69145C10.1597 7.69662 10.6033 8.14777 10.5951 8.62691C10.5867 9.11903 10.1822 9.54553 9.66148 9.55017C9.16989 9.55441 8.68757 9.08509 8.74604 8.60291Z" fill="white"/>
</svg>
