<svg width="236" height="236" viewBox="0 0 236 236" fill="none" xmlns="http://www.w3.org/2000/svg">
<path d="M78.044 108.768L73.004 112.908L70.484 109.92L78.44 103.512H82.364V129H78.044V108.768ZM110.313 116.256C110.313 118.32 110.109 120.18 109.701 121.836C109.317 123.492 108.741 124.896 107.973 126.048C107.229 127.2 106.293 128.088 105.165 128.712C104.061 129.336 102.789 129.648 101.349 129.648C99.9087 129.648 98.6247 129.336 97.4967 128.712C96.3687 128.088 95.4207 127.2 94.6527 126.048C93.8847 124.896 93.2967 123.492 92.8887 121.836C92.5047 120.18 92.3127 118.32 92.3127 116.256C92.3127 114.192 92.5047 112.332 92.8887 110.676C93.2967 109.02 93.8847 107.616 94.6527 106.464C95.4207 105.312 96.3687 104.424 97.4967 103.8C98.6247 103.176 99.9087 102.864 101.349 102.864C102.789 102.864 104.061 103.176 105.165 103.8C106.293 104.424 107.229 105.312 107.973 106.464C108.741 107.616 109.317 109.02 109.701 110.676C110.109 112.332 110.313 114.192 110.313 116.256ZM105.885 116.256C105.885 115.368 105.825 114.36 105.705 113.232C105.609 112.104 105.393 111.036 105.057 110.028C104.745 109.02 104.289 108.18 103.689 107.508C103.089 106.812 102.309 106.464 101.349 106.464C100.365 106.464 99.5727 106.812 98.9727 107.508C98.3727 108.18 97.9047 109.02 97.5687 110.028C97.2567 111.036 97.0407 112.104 96.9207 113.232C96.8007 114.36 96.7407 115.368 96.7407 116.256C96.7407 117.144 96.8007 118.152 96.9207 119.28C97.0407 120.408 97.2567 121.464 97.5687 122.448C97.9047 123.432 98.3727 124.272 98.9727 124.968C99.5727 125.64 100.365 125.976 101.349 125.976C102.309 125.976 103.089 125.64 103.689 124.968C104.289 124.272 104.745 123.432 105.057 122.448C105.393 121.464 105.609 120.408 105.705 119.28C105.825 118.152 105.885 117.144 105.885 116.256ZM132.645 116.256C132.645 118.32 132.441 120.18 132.033 121.836C131.649 123.492 131.073 124.896 130.305 126.048C129.561 127.2 128.625 128.088 127.497 128.712C126.393 129.336 125.121 129.648 123.681 129.648C122.241 129.648 120.957 129.336 119.829 128.712C118.701 128.088 117.753 127.2 116.985 126.048C116.217 124.896 115.629 123.492 115.221 121.836C114.837 120.18 114.645 118.32 114.645 116.256C114.645 114.192 114.837 112.332 115.221 110.676C115.629 109.02 116.217 107.616 116.985 106.464C117.753 105.312 118.701 104.424 119.829 103.8C120.957 103.176 122.241 102.864 123.681 102.864C125.121 102.864 126.393 103.176 127.497 103.8C128.625 104.424 129.561 105.312 130.305 106.464C131.073 107.616 131.649 109.02 132.033 110.676C132.441 112.332 132.645 114.192 132.645 116.256ZM128.217 116.256C128.217 115.368 128.157 114.36 128.037 113.232C127.941 112.104 127.725 111.036 127.389 110.028C127.077 109.02 126.621 108.18 126.021 107.508C125.421 106.812 124.641 106.464 123.681 106.464C122.697 106.464 121.905 106.812 121.305 107.508C120.705 108.18 120.237 109.02 119.901 110.028C119.589 111.036 119.373 112.104 119.253 113.232C119.133 114.36 119.073 115.368 119.073 116.256C119.073 117.144 119.133 118.152 119.253 119.28C119.373 120.408 119.589 121.464 119.901 122.448C120.237 123.432 120.705 124.272 121.305 124.968C121.905 125.64 122.697 125.976 123.681 125.976C124.641 125.976 125.421 125.64 126.021 124.968C126.621 124.272 127.077 123.432 127.389 122.448C127.725 121.464 127.941 120.408 128.037 119.28C128.157 118.152 128.217 117.144 128.217 116.256ZM153.646 122.736C153.646 121.8 153.814 120.936 154.15 120.144C154.51 119.328 154.99 118.62 155.59 118.02C156.214 117.396 156.922 116.916 157.714 116.58C158.53 116.22 159.406 116.04 160.342 116.04C161.278 116.04 162.142 116.22 162.934 116.58C163.75 116.916 164.458 117.396 165.058 118.02C165.682 118.62 166.162 119.328 166.498 120.144C166.858 120.936 167.038 121.8 167.038 122.736C167.038 123.672 166.858 124.548 166.498 125.364C166.162 126.156 165.682 126.864 165.058 127.488C164.458 128.088 163.75 128.568 162.934 128.928C162.142 129.264 161.278 129.432 160.342 129.432C159.406 129.432 158.53 129.264 157.714 128.928C156.922 128.568 156.214 128.088 155.59 127.488C154.99 126.864 154.51 126.156 154.15 125.364C153.814 124.548 153.646 123.672 153.646 122.736ZM163.582 122.736C163.582 121.824 163.27 121.056 162.646 120.432C162.022 119.808 161.254 119.496 160.342 119.496C159.43 119.496 158.662 119.808 158.038 120.432C157.414 121.056 157.102 121.824 157.102 122.736C157.102 123.648 157.414 124.416 158.038 125.04C158.662 125.664 159.43 125.976 160.342 125.976C161.254 125.976 162.022 125.664 162.646 125.04C163.27 124.416 163.582 123.648 163.582 122.736ZM136.438 109.776C136.438 108.84 136.606 107.976 136.942 107.184C137.302 106.368 137.782 105.66 138.382 105.06C139.006 104.436 139.714 103.956 140.506 103.62C141.322 103.26 142.198 103.08 143.134 103.08C144.07 103.08 144.934 103.26 145.726 103.62C146.542 103.956 147.25 104.436 147.85 105.06C148.474 105.66 148.954 106.368 149.29 107.184C149.65 107.976 149.83 108.84 149.83 109.776C149.83 110.712 149.65 111.588 149.29 112.404C148.954 113.196 148.474 113.904 147.85 114.528C147.25 115.128 146.542 115.608 145.726 115.968C144.934 116.304 144.07 116.472 143.134 116.472C142.198 116.472 141.322 116.304 140.506 115.968C139.714 115.608 139.006 115.128 138.382 114.528C137.782 113.904 137.302 113.196 136.942 112.404C136.606 111.588 136.438 110.712 136.438 109.776ZM146.374 109.776C146.374 108.864 146.062 108.096 145.438 107.472C144.814 106.848 144.046 106.536 143.134 106.536C142.222 106.536 141.454 106.848 140.83 107.472C140.206 108.096 139.894 108.864 139.894 109.776C139.894 110.688 140.206 111.456 140.83 112.08C141.454 112.704 142.222 113.016 143.134 113.016C144.046 113.016 144.814 112.704 145.438 112.08C146.062 111.456 146.374 110.688 146.374 109.776ZM157.714 102.36L160.702 103.728L145.726 130.152L142.738 128.784L157.714 102.36Z" fill="#25282B"/>
<path d="M236 118C236 183.17 183.17 236 118 236C52.8304 236 0 183.17 0 118C0 52.8304 52.8304 0 118 0C183.17 0 236 52.8304 236 118ZM23.8794 118C23.8794 169.981 66.0186 212.121 118 212.121C169.981 212.121 212.121 169.981 212.121 118C212.121 66.0186 169.981 23.8794 118 23.8794C66.0186 23.8794 23.8794 66.0186 23.8794 118Z" fill="#9A3995"/>
</svg>
