<svg width="38" height="38" viewBox="0 0 38 38" fill="none" xmlns="http://www.w3.org/2000/svg">
<path d="M19 0C29.4937 0 38 8.5063 38 19C38 29.4937 29.4937 38 19 38C8.5063 38 0 29.4937 0 19C0 8.5063 8.5063 0 19 0ZM19 21.8367C17.4821 21.835 15.9792 22.1373 14.58 22.7257C13.1807 23.314 11.9134 24.1765 10.8528 25.2624C10.5945 25.5335 10.4533 25.8953 10.4597 26.2696C10.4661 26.644 10.6195 27.0008 10.8869 27.2629C11.1543 27.525 11.514 27.6714 11.8884 27.6704C12.2628 27.6693 12.6218 27.521 12.8877 27.2574C13.683 26.4422 14.6337 25.7947 15.6836 25.3531C16.7334 24.9116 17.8611 24.685 19 24.6867C21.3275 24.6867 23.503 25.6177 25.1009 27.246C25.2313 27.3827 25.3875 27.4922 25.5606 27.568C25.7336 27.6438 25.92 27.6844 26.1089 27.6875C26.2978 27.6906 26.4854 27.6561 26.6609 27.586C26.8363 27.5159 26.9961 27.4117 27.1308 27.2793C27.2656 27.1469 27.3727 26.9891 27.4459 26.8149C27.5191 26.6407 27.557 26.4538 27.5573 26.2648C27.5576 26.0759 27.5203 25.8888 27.4476 25.7145C27.3749 25.5401 27.2683 25.3819 27.1339 25.2491C26.0737 24.1672 24.8081 23.3081 23.4113 22.7221C22.0145 22.1361 20.5147 21.8351 19 21.8367ZM11.8161 8.854L11.6413 8.7343C11.3462 8.56301 10.9994 8.50332 10.664 8.56606C10.3286 8.62881 10.0268 8.80983 9.81354 9.07622C9.60029 9.34261 9.48971 9.67668 9.50191 10.0177C9.5141 10.3587 9.64826 10.684 9.88 10.9345L10.0339 11.0789L12.4222 12.9865C12.0211 13.146 11.6711 13.4118 11.4098 13.7554C11.1485 14.0989 10.9857 14.5071 10.939 14.9362C10.8922 15.3653 10.9633 15.799 11.1446 16.1907C11.3259 16.5825 11.6105 16.9174 11.9678 17.1595C12.3251 17.4016 12.7417 17.5418 13.1727 17.5649C13.6037 17.5881 14.0328 17.4933 14.414 17.2908C14.7952 17.0884 15.1141 16.7859 15.3362 16.4158C15.5584 16.0457 15.6755 15.6221 15.675 15.1905C15.9527 15.1914 16.2245 15.111 16.4571 14.9593C16.6896 14.8076 16.8727 14.5912 16.9838 14.3367C17.0949 14.0823 17.1291 13.8008 17.0822 13.5272C17.0353 13.2535 16.9094 12.9995 16.72 12.7965L16.5642 12.654L11.8142 8.854L11.6413 8.7343L11.8161 8.854ZM28.1884 9.0763C27.9751 8.80941 27.673 8.62805 27.3371 8.56528C27.0013 8.5025 26.654 8.56249 26.3587 8.7343L26.1839 8.854L21.4377 12.654L21.2819 12.7965C21.1059 12.9868 20.9852 13.2214 20.9327 13.4752C20.8802 13.729 20.8979 13.9923 20.9838 14.2368C21.0698 14.4813 21.2209 14.6977 21.4207 14.8627C21.6205 15.0278 21.8616 15.1352 22.1179 15.1734L22.3269 15.1886C22.3263 15.6102 22.4379 16.0245 22.6503 16.3887C22.8627 16.7529 23.1683 17.054 23.5356 17.2611C23.9029 17.4682 24.3187 17.5737 24.7403 17.5669C25.1618 17.5601 25.574 17.4412 25.9344 17.2223C26.2949 17.0035 26.5905 16.6927 26.7911 16.3218C26.9916 15.9509 27.0898 15.5333 27.0755 15.1119C27.0613 14.6905 26.9351 14.2805 26.7099 13.924C26.4848 13.5675 26.1688 13.2774 25.7944 13.0834L25.5797 12.9865L27.9661 11.0789L28.12 10.9345C28.3517 10.684 28.4859 10.3587 28.4981 10.0177C28.5103 9.67674 28.3997 9.34269 28.1865 9.0763H28.1884Z" fill="#FF9B90"/>
</svg>
