<svg width="119" height="85" viewBox="0 0 119 85" fill="none" xmlns="http://www.w3.org/2000/svg">
<path d="M55.4786 44.1534C53.5355 45.0309 52.0066 46.2803 51.4528 48.4281C51.0901 49.8363 51.1389 51.2487 51.7025 52.5858C52.453 54.3631 53.8493 55.515 55.6391 56.1432C57.4553 56.7797 59.206 56.4705 60.8423 55.4481C60.9692 56.0944 59.1488 58.1531 57.32 58.8843C53.827 60.2814 50.4205 59.3328 48.1969 56.7407C45.7167 53.8477 45.8925 49.9296 47.8259 47.2052C49.8249 44.393 53.2927 43.6311 55.4786 44.1534Z" fill="white"/>
<path d="M58.4426 51.8092C58.2194 52.2224 58.044 52.5954 57.8122 52.9339C57.7673 52.9988 57.4832 52.9726 57.347 52.9132C56.1746 52.3937 55.0124 51.8548 53.8429 51.3271C53.598 51.2165 53.5531 51.0715 53.6473 50.8297C53.8096 50.4138 54.069 50.1154 54.4878 49.8985C55.3413 49.4563 56.1732 48.9755 57.0093 48.5044C57.1064 48.4491 57.176 48.3524 57.2586 48.275C57.1774 48.2032 57.1064 48.1079 57.0108 48.0637C56.6499 47.8923 56.2804 47.7404 55.9167 47.5773C55.6384 47.4516 55.537 47.2609 55.6862 46.9805C55.7587 46.8437 55.8181 46.7 55.8833 46.5577C56.1268 46.0161 56.2688 45.9663 56.8166 46.2109C57.8412 46.6696 58.8643 47.1311 59.8946 47.5746C60.1149 47.6685 60.2192 47.8094 60.1207 47.989C59.9454 48.3096 59.7859 48.7033 59.4961 48.8899C58.6005 49.4619 57.6441 49.9468 56.7166 50.4732C56.6398 50.5174 56.5456 50.6238 56.5528 50.6929C56.5615 50.7703 56.6601 50.8656 56.7441 50.9043C57.1818 51.1019 57.6325 51.2732 58.0672 51.4777C58.2035 51.5384 58.3005 51.6794 58.4426 51.8092Z" fill="white"/>
<path d="M60.6579 53.0534C61.0686 53.0874 61.3997 53.0977 61.7237 53.1465C61.8929 53.1717 62.1792 53.2456 62.1922 53.3329C62.237 53.6169 62.2168 53.9276 62.1431 54.2071C62.1199 54.2944 61.8394 54.3639 61.6846 54.3506C60.8965 54.2811 60.1098 54.1938 59.326 54.0873C59.1322 54.0607 58.8025 53.9601 58.7909 53.8625C58.7591 53.5992 58.788 53.2604 58.9341 53.0578C59.3549 52.4691 59.848 51.9351 60.3065 51.373C60.3976 51.262 60.454 51.123 60.5277 50.9958C60.4005 50.9395 60.2761 50.8759 60.146 50.8316C60.0447 50.7975 59.929 50.8064 59.8307 50.7665C59.6355 50.6866 59.3029 50.6082 59.2855 50.4899C59.245 50.2147 59.3434 49.9115 59.4214 49.629C59.4374 49.5698 59.6065 49.5121 59.6977 49.5225C60.5783 49.6186 61.4576 49.7207 62.3339 49.8479C62.4308 49.8612 62.5899 50.055 62.574 50.1378C62.5176 50.4366 62.4655 50.7754 62.2934 51.0032C61.8394 51.6022 61.3217 52.151 60.8343 52.7235C60.7736 52.7915 60.7446 52.8847 60.6579 53.0534Z" fill="white"/>
<path d="M63.8604 53.2034C64.0481 53.2145 64.1854 53.1937 64.2861 53.2368C64.428 53.2979 64.6462 53.4105 64.6447 53.4981C64.6431 53.6232 64.4906 53.8303 64.367 53.8553C63.9276 53.9429 63.4744 53.9944 63.0259 54.0069C62.739 54.0152 62.6322 53.7622 62.7817 53.4828C62.9236 53.2159 63.0884 52.9587 63.2486 52.6988C63.3768 52.4903 63.3234 52.3638 63.0533 52.3777C62.7863 52.3916 62.5529 52.3151 62.5758 52.0719C62.588 51.9481 62.8336 51.7883 63.006 51.741C63.3295 51.6534 63.6728 51.6145 64.0115 51.5937C64.3258 51.5742 64.5241 51.6868 64.3715 52.019C64.2861 52.2067 64.19 52.3902 64.1076 52.5792C64.0267 52.7697 63.9566 52.9629 63.8604 53.2034Z" fill="white"/>
<path d="M10.0086 58.1792C17.1634 33.2274 43.4399 18.8714 68.6988 26.1143C85.0986 30.8169 97.0372 43.4681 101.436 58.5933" stroke="white" stroke-width="20"/>
</svg>
