<svg width="18" height="39" viewBox="0 0 18 39" fill="none" xmlns="http://www.w3.org/2000/svg">
<path d="M10.2137 38.0551C9.9994 38.0551 9.80107 37.9025 9.77056 37.673C9.77056 37.6577 9.43424 35.5337 9.08266 33.8673C9.03689 33.669 9.14368 33.47 9.31219 33.3785C9.46475 33.3022 9.63326 33.2259 9.78582 33.1337C11.8336 32.1247 13.6067 31.2537 14.2024 27.464C14.4625 25.8136 14.0193 24.3463 12.9036 23.0779C12.0479 22.1154 11.0999 21.6411 11.0999 21.6411C10.9626 21.5801 10.8704 21.4428 10.8551 21.2895C10.8399 21.1363 10.8856 20.999 11.0077 20.8922C11.9092 20.1127 12.3218 19.4554 12.2913 18.8749C12.2302 17.9735 11.0534 17.1177 9.81564 16.323C7.6916 14.9784 7.18677 12.2733 7.18677 11.8302C7.18677 11.6776 7.18677 11.4023 8.51611 9.96548C8.60765 9.87395 8.73039 9.81292 8.85243 9.82818C8.97448 9.82818 9.09722 9.8892 9.18876 9.99599C9.18876 10.0113 9.95294 10.9127 10.8849 11.1728C12.2601 10.7907 13.2995 9.2013 13.5901 8.17707C13.6511 7.93228 13.9112 7.81024 14.14 7.87126C14.3848 7.93228 14.5068 8.19233 14.4458 8.42117C14.1095 9.59795 12.8564 11.6457 10.9765 12.0736C10.9155 12.0888 10.8392 12.0888 10.7781 12.0736C9.93769 11.8905 9.23453 11.3246 8.83718 10.9426C8.50086 11.3246 8.16453 11.722 8.073 11.9051C8.13402 12.2872 8.53137 14.4882 10.274 15.6032C11.9397 16.6732 13.086 17.6205 13.1622 18.843C13.2233 19.6072 12.8412 20.3714 12.0312 21.1966C12.4286 21.4567 13.009 21.8998 13.5443 22.4954C14.8432 23.9475 15.3632 25.72 15.0727 27.6304C14.4153 31.8792 12.2607 32.9485 10.1672 33.9727C10.1062 34.0033 10.0604 34.0338 9.9994 34.049C10.3357 35.6689 10.6263 37.5336 10.6263 37.5489C10.672 37.7937 10.5042 38.0225 10.2594 38.053C10.2601 38.0551 10.2289 38.0551 10.2137 38.0551Z" fill="#9A3995"/>
<path d="M1.18264 37.0009C1.01483 37.0009 0.846316 36.9093 0.770037 36.7408C0.22013 35.5335 -0.0856808 34.6015 0.0211106 33.379C0.127902 32.1411 0.647992 30.7043 1.77832 28.5803C3.33719 25.631 2.9551 24.2552 2.1604 21.5501C1.8851 20.5723 1.56404 19.4565 1.25892 18.0502C0.770036 15.7729 0.968362 13.8472 1.83934 12.3348C2.5425 11.097 3.47449 10.5006 3.87184 10.2413C3.91761 10.2108 3.94812 10.1955 3.97864 10.1803C4.34547 9.92021 5.369 8.51459 5.49175 8.23929C5.56803 8.00975 5.81281 7.88771 6.04165 7.94873C6.28644 8.00975 6.40848 8.2698 6.34746 8.49864C6.24067 8.86547 5.03337 10.5311 4.49803 10.9132C4.46752 10.9437 4.42175 10.959 4.36073 11.0048C2.20618 12.3799 1.4725 14.6877 2.14446 17.8665C2.43501 19.2416 2.75608 20.3421 3.03069 21.3053C3.42804 22.7116 3.7491 23.8114 3.7491 24.9882C3.7491 26.226 3.38227 27.4638 2.57231 29.0074C0.448275 33.0267 0.616093 34.2797 1.5786 36.374C1.68539 36.6035 1.5786 36.8629 1.36432 36.9703C1.30469 36.9856 1.24366 37.0009 1.18264 37.0009Z" fill="#9A3995"/>
<path d="M5.21655 28.1981C5.18604 28.1981 5.14027 28.1981 5.10976 28.1828C4.8192 28.1066 4.48288 27.8618 4.03977 26.4714C3.76447 25.6157 3.50511 24.4542 3.30609 23.2011C2.81721 20.2518 2.67921 17.3629 2.96977 15.4837C3.00028 15.2389 3.22981 15.0711 3.47391 15.1016C3.718 15.1321 3.88651 15.3616 3.856 15.6057C3.59596 17.3172 3.70344 19.9918 4.14656 22.758C4.32963 23.9348 4.57442 25.0505 4.8192 25.9062C5.07925 26.823 5.27757 27.1593 5.35385 27.2814C6.80594 27.083 9.57211 25.1878 10.5346 24.4389C10.6567 24.3474 10.8404 24.3169 10.993 24.3931C10.993 24.3931 11.1761 24.4847 12.1088 24.8973C12.6892 25.1421 13.1177 25.2031 13.3008 25.0498C13.4998 24.882 13.4998 24.4382 13.4534 24.1483C13.1781 23.9341 12.3986 23.3994 11.3598 23.2469C10.0915 23.7663 6.97375 25.1726 6.92799 25.1878C6.79068 25.2489 6.63743 25.2336 6.50013 25.1573C6.37808 25.081 6.3018 24.9278 6.3018 24.7905C6.3018 24.76 6.3018 22.1464 6.65338 19.1361C7.14226 15.0558 6.3018 14.1384 5.79766 13.5885C5.76715 13.558 5.7519 13.5274 5.72138 13.4969C5.55357 13.3139 5.56883 13.0233 5.7519 12.8701C5.93497 12.7022 6.22552 12.7175 6.37877 12.9006C6.40929 12.9311 6.42454 12.9463 6.45505 12.9768C6.74561 13.2827 7.15821 13.7563 7.43282 14.7341C7.73863 15.8193 7.76914 17.3012 7.53961 19.2422C7.29482 21.2899 7.21854 23.1394 7.20329 24.1019C8.22751 23.6435 10.2295 22.7573 11.131 22.3904C11.192 22.3599 11.2683 22.3599 11.3453 22.3599C12.9957 22.543 14.1114 23.552 14.1572 23.5977C14.2182 23.6588 14.264 23.735 14.2945 23.8273C14.325 23.9646 14.5698 25.1566 13.8667 25.753C13.393 26.1503 12.6746 26.1351 11.7426 25.7377C11.7426 25.7377 11.7426 25.7377 11.7274 25.7377C11.2995 25.5394 11.0242 25.4167 10.8564 25.3404C10.5048 25.6004 9.78639 26.1046 8.93067 26.6392C7.31077 27.6482 6.07296 28.1676 5.2325 28.2134C5.2318 28.1981 5.23181 28.1981 5.21655 28.1981Z" fill="#9A3995"/>
<path d="M2.66463 12.3651C2.54259 12.3651 2.41985 12.3193 2.32831 12.2125C2.1605 12.0295 2.17575 11.7389 2.35882 11.5857C3.06198 10.9588 3.71868 9.33888 3.81091 8.04005C3.81091 7.96377 3.82616 7.88749 3.82616 7.81052C3.9177 6.16011 4.17774 1.77403 8.80861 0.306689C11.3758 -0.503262 13.0574 0.443993 14.0199 1.37668C14.7993 2.12561 15.2272 2.98133 15.395 3.37868C15.8839 3.577 16.3887 4.03607 16.7243 4.61649C17.1217 5.28913 17.2437 6.0228 17.0607 6.6795C16.7854 7.62675 16.1897 8.23838 15.2265 8.52894C14.4471 8.77372 13.5151 8.77372 12.6129 8.77372C11.4819 8.77372 10.3203 8.78898 9.63243 9.29312C9.47987 9.41516 9.25034 9.41516 9.09778 9.29312C9.00624 9.23209 8.96047 9.14056 8.92996 9.04833C8.07424 9.87354 7.37108 10.775 7.26429 11.9213C7.24904 12.1196 7.11173 12.2729 6.92797 12.3186C6.7449 12.3644 6.54588 12.2881 6.43909 12.1203C5.85867 11.1731 5.29281 7.8868 5.52235 6.78699C5.56811 6.5422 5.8129 6.38964 6.05699 6.43541C6.30178 6.48117 6.45434 6.72596 6.40857 6.97006C6.28653 7.56642 6.48486 9.20158 6.77541 10.4089C7.32532 9.26261 8.33429 8.36112 9.25103 7.55117C9.44935 7.3681 9.64837 7.19959 9.83145 7.03178C10.0145 6.86396 10.2746 6.87922 10.4583 7.04703C10.6261 7.21485 10.6261 7.49014 10.4736 7.67391C10.4278 7.73493 10.3363 7.88819 10.244 8.08651C10.9777 7.90344 11.8182 7.90344 12.6281 7.90344C14.6149 7.88819 15.8374 7.79665 16.2195 6.45136C16.3721 5.90145 16.128 5.36611 15.9747 5.0915C15.6689 4.58736 15.2411 4.25104 14.981 4.19001C14.8285 4.1595 14.7057 4.05271 14.6599 3.89946C14.6599 3.8842 14.2779 2.85997 13.4069 2.01951C12.2606 0.934262 10.8238 0.6444 9.11234 1.19431C5.07784 2.47788 4.84831 6.26828 4.75677 7.88819C4.75677 7.97972 4.74152 8.056 4.74152 8.13298C4.63473 9.6766 3.87055 11.4948 2.99957 12.2895C2.87891 12.3193 2.77212 12.3651 2.66463 12.3651Z" fill="#9A3995"/>
</svg>
