<svg width="32" height="21" viewBox="0 0 32 21" fill="none" xmlns="http://www.w3.org/2000/svg">
<mask id="path-1-outside-1" maskUnits="userSpaceOnUse" x="0" y="-0.090332" width="32" height="21" fill="black">
<rect fill="white" y="-0.090332" width="32" height="21"/>
<path d="M18.2219 5.45994C18.3554 5.29973 18.3661 5.14665 18.2771 5.01136C18.1347 4.79597 17.987 4.5788 17.8107 4.39367C16.821 3.35766 15.8064 2.34656 14.6813 1.45296C14.6724 1.44584 14.6618 1.43872 14.6529 1.4316C14.1171 0.940295 13.4905 0.829928 12.7927 0.959875C11.9934 1.10762 11.2173 1.32835 10.4679 1.64165C10.1866 1.75913 9.9463 1.9318 9.72735 2.14007C9.14526 2.69546 8.64684 3.32383 8.16622 3.96644C7.7835 4.47733 7.42392 5.00602 7.04298 5.5169C6.88811 5.72695 6.81513 5.9548 6.76885 6.2058C6.53566 7.48034 6.27754 8.75132 5.95 10.0063C5.77734 10.6649 5.4142 11.2203 5.0742 11.7917C4.95494 11.9929 4.81075 12.0659 4.5829 12.0854C3.34396 12.1994 2.10501 12.3293 0.866072 12.4592C0.657803 12.4806 0.682724 12.445 0.682724 12.6604C0.682724 15.2237 0.682724 17.7853 0.682724 20.3486C0.682724 20.4002 0.682724 20.4501 0.682724 20.5213C0.80555 20.5052 0.914135 20.4928 1.02272 20.4768C2.56962 20.2454 4.11651 20.0139 5.66163 19.7808C6.30424 19.6846 6.94686 19.5867 7.59125 19.4888C7.63397 19.4817 7.67847 19.4692 7.71407 19.4461C9.05626 18.6059 10.3913 17.7532 11.6463 16.7831C12.3281 16.2562 12.8478 15.5851 13.3445 14.8926C14.0654 13.8851 14.6956 12.8224 15.2777 11.7294C15.324 11.6422 15.3809 11.5585 15.445 11.4838C15.8971 10.9569 16.3493 10.4299 16.8068 9.90838C16.9171 9.78199 17.0506 9.67875 17.1646 9.55592C17.3657 9.33875 17.5437 9.10378 17.6345 8.81363C17.6381 8.80295 17.6398 8.78871 17.647 8.77981C17.7965 8.63562 17.7057 8.50567 17.622 8.3775C17.558 8.2796 17.4868 8.18348 17.4031 8.06243C17.4672 8.06243 17.5099 8.06243 17.5508 8.06243C18.4605 8.06243 19.3701 8.06065 20.2815 8.06421C20.3527 8.06421 20.4381 8.08023 20.4933 8.12117C20.8458 8.37572 21.2338 8.43091 21.6628 8.42913C24.2814 8.41489 26.8999 8.42201 29.5184 8.42201C30.1966 8.42201 30.7644 8.00013 30.93 7.34505C31.0261 6.96234 31.0261 6.56537 30.9122 6.18444C30.7306 5.58099 30.177 5.17869 29.5291 5.17691C28.0961 5.17513 26.6631 5.18581 25.2301 5.18937C23.977 5.19293 22.7238 5.20183 21.4706 5.19293C21.152 5.19114 20.8582 5.23565 20.5717 5.38161C20.4702 5.43324 20.3438 5.4546 20.2281 5.4546C19.614 5.46172 18.9981 5.45816 18.3839 5.45816C18.3412 5.45994 18.2949 5.45994 18.2219 5.45994ZM1.18293 19.9481C1.18293 19.8804 1.18293 19.8253 1.18293 19.7719C1.18293 18.0469 1.18293 16.3238 1.18293 14.5989C1.18293 14.0809 1.18471 13.5611 1.18115 13.0431C1.18115 12.9594 1.20251 12.9238 1.29329 12.9149C1.98041 12.8491 2.66752 12.7797 3.35464 12.7102C3.92249 12.6533 4.49033 12.5945 5.05818 12.5394C5.14896 12.5305 5.21305 12.5002 5.25933 12.4183C5.34121 12.2777 5.43556 12.1424 5.52457 12.0053C5.94111 11.3716 6.29356 10.7148 6.47869 9.9689C6.79733 8.6908 7.05722 7.40024 7.29931 6.10611C7.31178 6.04203 7.33848 5.97617 7.37764 5.92276C7.74612 5.4012 8.11281 4.87785 8.49375 4.36696C8.95835 3.74215 9.4372 3.1298 9.99081 2.57797C10.1759 2.39463 10.3717 2.22552 10.6156 2.12227C11.3686 1.80364 12.1465 1.57578 12.9529 1.4405C13.4744 1.35327 13.9301 1.44762 14.3307 1.8072C14.8754 2.2985 15.445 2.76488 15.9755 3.27043C16.5504 3.81692 17.0951 4.39545 17.6487 4.96507C17.7876 5.10748 17.7698 5.168 17.6042 5.28193C17.5775 5.29973 17.5508 5.31931 17.5224 5.33177C17.1094 5.50444 16.7035 5.56496 16.3137 5.27303C16.246 5.22319 16.1748 5.17868 16.1072 5.12884C15.2955 4.53251 14.5496 3.85786 13.8251 3.15829C13.7682 3.1031 13.7201 3.07996 13.6364 3.10844C12.96 3.34697 12.2818 3.58017 11.6036 3.81514C11.2992 3.92016 11.0553 4.09995 10.8809 4.37587C10.4536 5.04874 10.0228 5.72161 9.59029 6.39093C9.53154 6.48171 9.51018 6.56893 9.53866 6.67218C9.67217 7.12788 9.78432 7.58892 9.94097 8.03573C10.0941 8.46829 10.2881 8.88483 10.6245 9.21771C11.0678 9.65917 11.5555 10.0419 12.0611 10.4086C12.0931 10.4317 12.1536 10.4406 12.1928 10.4299C12.4811 10.3516 12.7713 10.2751 13.0543 10.1825C13.9106 9.90304 14.6689 9.48828 15.1068 8.64808C15.1228 8.61604 15.1459 8.58578 15.1709 8.56263C15.3026 8.43625 15.4325 8.3063 15.5678 8.18525C15.6728 8.09269 15.7975 8.05175 15.9434 8.06421C16.0698 8.07489 16.2015 8.08201 16.3261 8.06243C16.6021 8.01971 16.7925 8.14965 16.9616 8.33834C17.0044 8.3864 17.04 8.43981 17.0862 8.48431C17.1806 8.57509 17.1806 8.68012 17.1129 8.77624C16.983 8.96137 16.8441 9.14116 16.7 9.31561C16.6252 9.40818 16.5237 9.4776 16.4454 9.56838C15.9933 10.0899 15.5411 10.6115 15.0943 11.1384C14.9875 11.2648 14.8896 11.4037 14.8095 11.5496C14.2363 12.6052 13.624 13.6394 12.9262 14.6185C12.4046 15.3483 11.8403 16.0354 11.1087 16.5748C9.94275 17.4364 8.72872 18.225 7.50046 18.9922C7.4524 19.0224 7.3901 19.0367 7.33136 19.0456C6.63356 19.1506 5.93398 19.2538 5.23619 19.3571C4.20908 19.5084 3.18375 19.6579 2.15664 19.8092C1.84156 19.852 1.52292 19.8982 1.18293 19.9481ZM25.3886 5.67711C25.8799 5.67711 26.3712 5.67711 26.8607 5.67711C27.7436 5.67711 28.6248 5.67533 29.5077 5.67711C30.0275 5.67889 30.4244 6.03135 30.4778 6.53333C30.4903 6.65616 30.485 6.78076 30.485 6.90359C30.485 7.52662 30.0898 7.92358 29.4703 7.92358C26.8999 7.92358 24.3294 7.91646 21.759 7.9307C21.3478 7.93248 20.9829 7.87196 20.6464 7.63343C20.5806 7.58715 20.4844 7.56756 20.4008 7.56578C19.2188 7.56222 18.0368 7.564 16.8566 7.56222C16.7943 7.56222 16.7284 7.5551 16.6697 7.53552C16.36 7.42694 16.052 7.4305 15.7423 7.53196C15.6871 7.54976 15.6266 7.564 15.5678 7.564C14.9537 7.56578 14.3378 7.56934 13.7236 7.56222C13.5581 7.56044 13.389 7.53374 13.2288 7.49102C12.9689 7.42338 12.855 7.25783 12.8532 6.99259C12.8532 6.86799 12.8514 6.74516 12.8532 6.62056C12.8567 6.3304 12.9974 6.11679 13.2768 6.03847C13.4477 5.99041 13.6293 5.96548 13.8055 5.9637C14.6635 5.95302 15.5215 5.95302 16.3795 5.95124C16.4383 5.95124 16.5042 5.94234 16.5576 5.96193C16.7427 6.03135 16.9243 6.01889 17.1112 5.97794C17.193 5.96014 17.2767 5.94768 17.3604 5.94768C18.302 5.94234 19.2437 5.93522 20.1872 5.94234C20.4488 5.94412 20.6945 5.91564 20.9223 5.78392C21.079 5.69313 21.2481 5.67533 21.4279 5.67533C22.7469 5.67889 24.0677 5.67711 25.3886 5.67711ZM14.9074 8.06421C14.7472 8.2974 14.5995 8.50745 14.4553 8.72284C14.304 8.94891 14.1099 9.1287 13.8767 9.26755C13.3854 9.5577 12.8496 9.74105 12.3014 9.88702C12.2569 9.89948 12.1892 9.88168 12.1518 9.8532C11.8136 9.58084 11.4701 9.31205 11.1479 9.0219C10.9805 8.87237 10.8239 8.69614 10.7117 8.50389C10.3878 7.94494 10.1955 7.33081 10.0585 6.70066C10.0478 6.6526 10.0584 6.58674 10.0834 6.54401C10.4892 5.90496 10.9004 5.26769 11.3081 4.63042C11.4095 4.47377 11.5448 4.36697 11.7211 4.30466C12.3085 4.09817 12.8941 3.89168 13.478 3.67985C13.5706 3.64603 13.6275 3.66561 13.697 3.73147C14.3057 4.31356 14.9306 4.87785 15.6052 5.38161C15.6283 5.39942 15.6657 5.39942 15.696 5.40832C15.6817 5.42612 15.6657 5.44392 15.6515 5.46172C15.6088 5.46172 15.5643 5.46172 15.5215 5.46172C14.9466 5.46172 14.3716 5.45816 13.7984 5.4635C13.64 5.46528 13.4798 5.47952 13.3231 5.50622C12.7838 5.60235 12.4349 5.93878 12.3637 6.43543C12.3387 6.60454 12.3512 6.77721 12.3494 6.94987C12.3494 7.51416 12.6253 7.87018 13.1736 7.99301C13.3659 8.03573 13.567 8.05531 13.7664 8.06065C14.1438 8.07133 14.5194 8.06421 14.9074 8.06421Z"/>
</mask>
<path d="M18.2219 5.45994C18.3554 5.29973 18.3661 5.14665 18.2771 5.01136C18.1347 4.79597 17.987 4.5788 17.8107 4.39367C16.821 3.35766 15.8064 2.34656 14.6813 1.45296C14.6724 1.44584 14.6618 1.43872 14.6529 1.4316C14.1171 0.940295 13.4905 0.829928 12.7927 0.959875C11.9934 1.10762 11.2173 1.32835 10.4679 1.64165C10.1866 1.75913 9.9463 1.9318 9.72735 2.14007C9.14526 2.69546 8.64684 3.32383 8.16622 3.96644C7.7835 4.47733 7.42392 5.00602 7.04298 5.5169C6.88811 5.72695 6.81513 5.9548 6.76885 6.2058C6.53566 7.48034 6.27754 8.75132 5.95 10.0063C5.77734 10.6649 5.4142 11.2203 5.0742 11.7917C4.95494 11.9929 4.81075 12.0659 4.5829 12.0854C3.34396 12.1994 2.10501 12.3293 0.866072 12.4592C0.657803 12.4806 0.682724 12.445 0.682724 12.6604C0.682724 15.2237 0.682724 17.7853 0.682724 20.3486C0.682724 20.4002 0.682724 20.4501 0.682724 20.5213C0.80555 20.5052 0.914135 20.4928 1.02272 20.4768C2.56962 20.2454 4.11651 20.0139 5.66163 19.7808C6.30424 19.6846 6.94686 19.5867 7.59125 19.4888C7.63397 19.4817 7.67847 19.4692 7.71407 19.4461C9.05626 18.6059 10.3913 17.7532 11.6463 16.7831C12.3281 16.2562 12.8478 15.5851 13.3445 14.8926C14.0654 13.8851 14.6956 12.8224 15.2777 11.7294C15.324 11.6422 15.3809 11.5585 15.445 11.4838C15.8971 10.9569 16.3493 10.4299 16.8068 9.90838C16.9171 9.78199 17.0506 9.67875 17.1646 9.55592C17.3657 9.33875 17.5437 9.10378 17.6345 8.81363C17.6381 8.80295 17.6398 8.78871 17.647 8.77981C17.7965 8.63562 17.7057 8.50567 17.622 8.3775C17.558 8.2796 17.4868 8.18348 17.4031 8.06243C17.4672 8.06243 17.5099 8.06243 17.5508 8.06243C18.4605 8.06243 19.3701 8.06065 20.2815 8.06421C20.3527 8.06421 20.4381 8.08023 20.4933 8.12117C20.8458 8.37572 21.2338 8.43091 21.6628 8.42913C24.2814 8.41489 26.8999 8.42201 29.5184 8.42201C30.1966 8.42201 30.7644 8.00013 30.93 7.34505C31.0261 6.96234 31.0261 6.56537 30.9122 6.18444C30.7306 5.58099 30.177 5.17869 29.5291 5.17691C28.0961 5.17513 26.6631 5.18581 25.2301 5.18937C23.977 5.19293 22.7238 5.20183 21.4706 5.19293C21.152 5.19114 20.8582 5.23565 20.5717 5.38161C20.4702 5.43324 20.3438 5.4546 20.2281 5.4546C19.614 5.46172 18.9981 5.45816 18.3839 5.45816C18.3412 5.45994 18.2949 5.45994 18.2219 5.45994ZM1.18293 19.9481C1.18293 19.8804 1.18293 19.8253 1.18293 19.7719C1.18293 18.0469 1.18293 16.3238 1.18293 14.5989C1.18293 14.0809 1.18471 13.5611 1.18115 13.0431C1.18115 12.9594 1.20251 12.9238 1.29329 12.9149C1.98041 12.8491 2.66752 12.7797 3.35464 12.7102C3.92249 12.6533 4.49033 12.5945 5.05818 12.5394C5.14896 12.5305 5.21305 12.5002 5.25933 12.4183C5.34121 12.2777 5.43556 12.1424 5.52457 12.0053C5.94111 11.3716 6.29356 10.7148 6.47869 9.9689C6.79733 8.6908 7.05722 7.40024 7.29931 6.10611C7.31178 6.04203 7.33848 5.97617 7.37764 5.92276C7.74612 5.4012 8.11281 4.87785 8.49375 4.36696C8.95835 3.74215 9.4372 3.1298 9.99081 2.57797C10.1759 2.39463 10.3717 2.22552 10.6156 2.12227C11.3686 1.80364 12.1465 1.57578 12.9529 1.4405C13.4744 1.35327 13.9301 1.44762 14.3307 1.8072C14.8754 2.2985 15.445 2.76488 15.9755 3.27043C16.5504 3.81692 17.0951 4.39545 17.6487 4.96507C17.7876 5.10748 17.7698 5.168 17.6042 5.28193C17.5775 5.29973 17.5508 5.31931 17.5224 5.33177C17.1094 5.50444 16.7035 5.56496 16.3137 5.27303C16.246 5.22319 16.1748 5.17868 16.1072 5.12884C15.2955 4.53251 14.5496 3.85786 13.8251 3.15829C13.7682 3.1031 13.7201 3.07996 13.6364 3.10844C12.96 3.34697 12.2818 3.58017 11.6036 3.81514C11.2992 3.92016 11.0553 4.09995 10.8809 4.37587C10.4536 5.04874 10.0228 5.72161 9.59029 6.39093C9.53154 6.48171 9.51018 6.56893 9.53866 6.67218C9.67217 7.12788 9.78432 7.58892 9.94097 8.03573C10.0941 8.46829 10.2881 8.88483 10.6245 9.21771C11.0678 9.65917 11.5555 10.0419 12.0611 10.4086C12.0931 10.4317 12.1536 10.4406 12.1928 10.4299C12.4811 10.3516 12.7713 10.2751 13.0543 10.1825C13.9106 9.90304 14.6689 9.48828 15.1068 8.64808C15.1228 8.61604 15.1459 8.58578 15.1709 8.56263C15.3026 8.43625 15.4325 8.3063 15.5678 8.18525C15.6728 8.09269 15.7975 8.05175 15.9434 8.06421C16.0698 8.07489 16.2015 8.08201 16.3261 8.06243C16.6021 8.01971 16.7925 8.14965 16.9616 8.33834C17.0044 8.3864 17.04 8.43981 17.0862 8.48431C17.1806 8.57509 17.1806 8.68012 17.1129 8.77624C16.983 8.96137 16.8441 9.14116 16.7 9.31561C16.6252 9.40818 16.5237 9.4776 16.4454 9.56838C15.9933 10.0899 15.5411 10.6115 15.0943 11.1384C14.9875 11.2648 14.8896 11.4037 14.8095 11.5496C14.2363 12.6052 13.624 13.6394 12.9262 14.6185C12.4046 15.3483 11.8403 16.0354 11.1087 16.5748C9.94275 17.4364 8.72872 18.225 7.50046 18.9922C7.4524 19.0224 7.3901 19.0367 7.33136 19.0456C6.63356 19.1506 5.93398 19.2538 5.23619 19.3571C4.20908 19.5084 3.18375 19.6579 2.15664 19.8092C1.84156 19.852 1.52292 19.8982 1.18293 19.9481ZM25.3886 5.67711C25.8799 5.67711 26.3712 5.67711 26.8607 5.67711C27.7436 5.67711 28.6248 5.67533 29.5077 5.67711C30.0275 5.67889 30.4244 6.03135 30.4778 6.53333C30.4903 6.65616 30.485 6.78076 30.485 6.90359C30.485 7.52662 30.0898 7.92358 29.4703 7.92358C26.8999 7.92358 24.3294 7.91646 21.759 7.9307C21.3478 7.93248 20.9829 7.87196 20.6464 7.63343C20.5806 7.58715 20.4844 7.56756 20.4008 7.56578C19.2188 7.56222 18.0368 7.564 16.8566 7.56222C16.7943 7.56222 16.7284 7.5551 16.6697 7.53552C16.36 7.42694 16.052 7.4305 15.7423 7.53196C15.6871 7.54976 15.6266 7.564 15.5678 7.564C14.9537 7.56578 14.3378 7.56934 13.7236 7.56222C13.5581 7.56044 13.389 7.53374 13.2288 7.49102C12.9689 7.42338 12.855 7.25783 12.8532 6.99259C12.8532 6.86799 12.8514 6.74516 12.8532 6.62056C12.8567 6.3304 12.9974 6.11679 13.2768 6.03847C13.4477 5.99041 13.6293 5.96548 13.8055 5.9637C14.6635 5.95302 15.5215 5.95302 16.3795 5.95124C16.4383 5.95124 16.5042 5.94234 16.5576 5.96193C16.7427 6.03135 16.9243 6.01889 17.1112 5.97794C17.193 5.96014 17.2767 5.94768 17.3604 5.94768C18.302 5.94234 19.2437 5.93522 20.1872 5.94234C20.4488 5.94412 20.6945 5.91564 20.9223 5.78392C21.079 5.69313 21.2481 5.67533 21.4279 5.67533C22.7469 5.67889 24.0677 5.67711 25.3886 5.67711ZM14.9074 8.06421C14.7472 8.2974 14.5995 8.50745 14.4553 8.72284C14.304 8.94891 14.1099 9.1287 13.8767 9.26755C13.3854 9.5577 12.8496 9.74105 12.3014 9.88702C12.2569 9.89948 12.1892 9.88168 12.1518 9.8532C11.8136 9.58084 11.4701 9.31205 11.1479 9.0219C10.9805 8.87237 10.8239 8.69614 10.7117 8.50389C10.3878 7.94494 10.1955 7.33081 10.0585 6.70066C10.0478 6.6526 10.0584 6.58674 10.0834 6.54401C10.4892 5.90496 10.9004 5.26769 11.3081 4.63042C11.4095 4.47377 11.5448 4.36697 11.7211 4.30466C12.3085 4.09817 12.8941 3.89168 13.478 3.67985C13.5706 3.64603 13.6275 3.66561 13.697 3.73147C14.3057 4.31356 14.9306 4.87785 15.6052 5.38161C15.6283 5.39942 15.6657 5.39942 15.696 5.40832C15.6817 5.42612 15.6657 5.44392 15.6515 5.46172C15.6088 5.46172 15.5643 5.46172 15.5215 5.46172C14.9466 5.46172 14.3716 5.45816 13.7984 5.4635C13.64 5.46528 13.4798 5.47952 13.3231 5.50622C12.7838 5.60235 12.4349 5.93878 12.3637 6.43543C12.3387 6.60454 12.3512 6.77721 12.3494 6.94987C12.3494 7.51416 12.6253 7.87018 13.1736 7.99301C13.3659 8.03573 13.567 8.05531 13.7664 8.06065C14.1438 8.07133 14.5194 8.06421 14.9074 8.06421Z" fill="#9A3995"/>
<path d="M18.2219 5.45994C18.3554 5.29973 18.3661 5.14665 18.2771 5.01136C18.1347 4.79597 17.987 4.5788 17.8107 4.39367C16.821 3.35766 15.8064 2.34656 14.6813 1.45296C14.6724 1.44584 14.6618 1.43872 14.6529 1.4316C14.1171 0.940295 13.4905 0.829928 12.7927 0.959875C11.9934 1.10762 11.2173 1.32835 10.4679 1.64165C10.1866 1.75913 9.9463 1.9318 9.72735 2.14007C9.14526 2.69546 8.64684 3.32383 8.16622 3.96644C7.7835 4.47733 7.42392 5.00602 7.04298 5.5169C6.88811 5.72695 6.81513 5.9548 6.76885 6.2058C6.53566 7.48034 6.27754 8.75132 5.95 10.0063C5.77734 10.6649 5.4142 11.2203 5.0742 11.7917C4.95494 11.9929 4.81075 12.0659 4.5829 12.0854C3.34396 12.1994 2.10501 12.3293 0.866072 12.4592C0.657803 12.4806 0.682724 12.445 0.682724 12.6604C0.682724 15.2237 0.682724 17.7853 0.682724 20.3486C0.682724 20.4002 0.682724 20.4501 0.682724 20.5213C0.80555 20.5052 0.914135 20.4928 1.02272 20.4768C2.56962 20.2454 4.11651 20.0139 5.66163 19.7808C6.30424 19.6846 6.94686 19.5867 7.59125 19.4888C7.63397 19.4817 7.67847 19.4692 7.71407 19.4461C9.05626 18.6059 10.3913 17.7532 11.6463 16.7831C12.3281 16.2562 12.8478 15.5851 13.3445 14.8926C14.0654 13.8851 14.6956 12.8224 15.2777 11.7294C15.324 11.6422 15.3809 11.5585 15.445 11.4838C15.8971 10.9569 16.3493 10.4299 16.8068 9.90838C16.9171 9.78199 17.0506 9.67875 17.1646 9.55592C17.3657 9.33875 17.5437 9.10378 17.6345 8.81363C17.6381 8.80295 17.6398 8.78871 17.647 8.77981C17.7965 8.63562 17.7057 8.50567 17.622 8.3775C17.558 8.2796 17.4868 8.18348 17.4031 8.06243C17.4672 8.06243 17.5099 8.06243 17.5508 8.06243C18.4605 8.06243 19.3701 8.06065 20.2815 8.06421C20.3527 8.06421 20.4381 8.08023 20.4933 8.12117C20.8458 8.37572 21.2338 8.43091 21.6628 8.42913C24.2814 8.41489 26.8999 8.42201 29.5184 8.42201C30.1966 8.42201 30.7644 8.00013 30.93 7.34505C31.0261 6.96234 31.0261 6.56537 30.9122 6.18444C30.7306 5.58099 30.177 5.17869 29.5291 5.17691C28.0961 5.17513 26.6631 5.18581 25.2301 5.18937C23.977 5.19293 22.7238 5.20183 21.4706 5.19293C21.152 5.19114 20.8582 5.23565 20.5717 5.38161C20.4702 5.43324 20.3438 5.4546 20.2281 5.4546C19.614 5.46172 18.9981 5.45816 18.3839 5.45816C18.3412 5.45994 18.2949 5.45994 18.2219 5.45994ZM1.18293 19.9481C1.18293 19.8804 1.18293 19.8253 1.18293 19.7719C1.18293 18.0469 1.18293 16.3238 1.18293 14.5989C1.18293 14.0809 1.18471 13.5611 1.18115 13.0431C1.18115 12.9594 1.20251 12.9238 1.29329 12.9149C1.98041 12.8491 2.66752 12.7797 3.35464 12.7102C3.92249 12.6533 4.49033 12.5945 5.05818 12.5394C5.14896 12.5305 5.21305 12.5002 5.25933 12.4183C5.34121 12.2777 5.43556 12.1424 5.52457 12.0053C5.94111 11.3716 6.29356 10.7148 6.47869 9.9689C6.79733 8.6908 7.05722 7.40024 7.29931 6.10611C7.31178 6.04203 7.33848 5.97617 7.37764 5.92276C7.74612 5.4012 8.11281 4.87785 8.49375 4.36696C8.95835 3.74215 9.4372 3.1298 9.99081 2.57797C10.1759 2.39463 10.3717 2.22552 10.6156 2.12227C11.3686 1.80364 12.1465 1.57578 12.9529 1.4405C13.4744 1.35327 13.9301 1.44762 14.3307 1.8072C14.8754 2.2985 15.445 2.76488 15.9755 3.27043C16.5504 3.81692 17.0951 4.39545 17.6487 4.96507C17.7876 5.10748 17.7698 5.168 17.6042 5.28193C17.5775 5.29973 17.5508 5.31931 17.5224 5.33177C17.1094 5.50444 16.7035 5.56496 16.3137 5.27303C16.246 5.22319 16.1748 5.17868 16.1072 5.12884C15.2955 4.53251 14.5496 3.85786 13.8251 3.15829C13.7682 3.1031 13.7201 3.07996 13.6364 3.10844C12.96 3.34697 12.2818 3.58017 11.6036 3.81514C11.2992 3.92016 11.0553 4.09995 10.8809 4.37587C10.4536 5.04874 10.0228 5.72161 9.59029 6.39093C9.53154 6.48171 9.51018 6.56893 9.53866 6.67218C9.67217 7.12788 9.78432 7.58892 9.94097 8.03573C10.0941 8.46829 10.2881 8.88483 10.6245 9.21771C11.0678 9.65917 11.5555 10.0419 12.0611 10.4086C12.0931 10.4317 12.1536 10.4406 12.1928 10.4299C12.4811 10.3516 12.7713 10.2751 13.0543 10.1825C13.9106 9.90304 14.6689 9.48828 15.1068 8.64808C15.1228 8.61604 15.1459 8.58578 15.1709 8.56263C15.3026 8.43625 15.4325 8.3063 15.5678 8.18525C15.6728 8.09269 15.7975 8.05175 15.9434 8.06421C16.0698 8.07489 16.2015 8.08201 16.3261 8.06243C16.6021 8.01971 16.7925 8.14965 16.9616 8.33834C17.0044 8.3864 17.04 8.43981 17.0862 8.48431C17.1806 8.57509 17.1806 8.68012 17.1129 8.77624C16.983 8.96137 16.8441 9.14116 16.7 9.31561C16.6252 9.40818 16.5237 9.4776 16.4454 9.56838C15.9933 10.0899 15.5411 10.6115 15.0943 11.1384C14.9875 11.2648 14.8896 11.4037 14.8095 11.5496C14.2363 12.6052 13.624 13.6394 12.9262 14.6185C12.4046 15.3483 11.8403 16.0354 11.1087 16.5748C9.94275 17.4364 8.72872 18.225 7.50046 18.9922C7.4524 19.0224 7.3901 19.0367 7.33136 19.0456C6.63356 19.1506 5.93398 19.2538 5.23619 19.3571C4.20908 19.5084 3.18375 19.6579 2.15664 19.8092C1.84156 19.852 1.52292 19.8982 1.18293 19.9481ZM25.3886 5.67711C25.8799 5.67711 26.3712 5.67711 26.8607 5.67711C27.7436 5.67711 28.6248 5.67533 29.5077 5.67711C30.0275 5.67889 30.4244 6.03135 30.4778 6.53333C30.4903 6.65616 30.485 6.78076 30.485 6.90359C30.485 7.52662 30.0898 7.92358 29.4703 7.92358C26.8999 7.92358 24.3294 7.91646 21.759 7.9307C21.3478 7.93248 20.9829 7.87196 20.6464 7.63343C20.5806 7.58715 20.4844 7.56756 20.4008 7.56578C19.2188 7.56222 18.0368 7.564 16.8566 7.56222C16.7943 7.56222 16.7284 7.5551 16.6697 7.53552C16.36 7.42694 16.052 7.4305 15.7423 7.53196C15.6871 7.54976 15.6266 7.564 15.5678 7.564C14.9537 7.56578 14.3378 7.56934 13.7236 7.56222C13.5581 7.56044 13.389 7.53374 13.2288 7.49102C12.9689 7.42338 12.855 7.25783 12.8532 6.99259C12.8532 6.86799 12.8514 6.74516 12.8532 6.62056C12.8567 6.3304 12.9974 6.11679 13.2768 6.03847C13.4477 5.99041 13.6293 5.96548 13.8055 5.9637C14.6635 5.95302 15.5215 5.95302 16.3795 5.95124C16.4383 5.95124 16.5042 5.94234 16.5576 5.96193C16.7427 6.03135 16.9243 6.01889 17.1112 5.97794C17.193 5.96014 17.2767 5.94768 17.3604 5.94768C18.302 5.94234 19.2437 5.93522 20.1872 5.94234C20.4488 5.94412 20.6945 5.91564 20.9223 5.78392C21.079 5.69313 21.2481 5.67533 21.4279 5.67533C22.7469 5.67889 24.0677 5.67711 25.3886 5.67711ZM14.9074 8.06421C14.7472 8.2974 14.5995 8.50745 14.4553 8.72284C14.304 8.94891 14.1099 9.1287 13.8767 9.26755C13.3854 9.5577 12.8496 9.74105 12.3014 9.88702C12.2569 9.89948 12.1892 9.88168 12.1518 9.8532C11.8136 9.58084 11.4701 9.31205 11.1479 9.0219C10.9805 8.87237 10.8239 8.69614 10.7117 8.50389C10.3878 7.94494 10.1955 7.33081 10.0585 6.70066C10.0478 6.6526 10.0584 6.58674 10.0834 6.54401C10.4892 5.90496 10.9004 5.26769 11.3081 4.63042C11.4095 4.47377 11.5448 4.36697 11.7211 4.30466C12.3085 4.09817 12.8941 3.89168 13.478 3.67985C13.5706 3.64603 13.6275 3.66561 13.697 3.73147C14.3057 4.31356 14.9306 4.87785 15.6052 5.38161C15.6283 5.39942 15.6657 5.39942 15.696 5.40832C15.6817 5.42612 15.6657 5.44392 15.6515 5.46172C15.6088 5.46172 15.5643 5.46172 15.5215 5.46172C14.9466 5.46172 14.3716 5.45816 13.7984 5.4635C13.64 5.46528 13.4798 5.47952 13.3231 5.50622C12.7838 5.60235 12.4349 5.93878 12.3637 6.43543C12.3387 6.60454 12.3512 6.77721 12.3494 6.94987C12.3494 7.51416 12.6253 7.87018 13.1736 7.99301C13.3659 8.03573 13.567 8.05531 13.7664 8.06065C14.1438 8.07133 14.5194 8.06421 14.9074 8.06421Z" stroke="#9A3995" stroke-width="0.2" mask="url(#path-1-outside-1)"/>
<path d="M24.5823 7.41463C24.2957 7.31138 24.1177 7.01233 24.1622 6.72573C24.2103 6.40888 24.4542 6.17746 24.7692 6.16678C24.9634 6.1565 25.1594 6.15828 25.3552 6.16007C25.4139 6.1606 25.4724 6.16114 25.531 6.16135V6.16144H25.581V6.20966C25.5976 6.20966 25.6143 6.20968 25.631 6.2097M24.5823 7.41463L24.5985 7.36731C24.5986 7.36736 24.5988 7.3674 24.5989 7.36745M24.5823 7.41463L24.5993 7.36759C24.5991 7.36754 24.599 7.36749 24.5989 7.36745M24.5823 7.41463C24.6553 7.43955 24.7372 7.45379 24.8155 7.45379C25.0781 7.45557 25.3411 7.45557 25.6043 7.45557C25.8676 7.45557 26.131 7.45557 26.3945 7.45735L26.4744 6.27513M24.5989 7.36745C24.3343 7.27192 24.1709 6.99546 24.2116 6.7334L24.2117 6.73323C24.2564 6.43832 24.4818 6.22656 24.7709 6.21675L24.7719 6.21672L24.7719 6.21671C24.9644 6.20652 25.158 6.20828 25.3533 6.21006C25.4289 6.21075 25.5048 6.21144 25.581 6.21144H25.631V6.2097M24.5989 7.36745C24.6668 7.39058 24.7431 7.40379 24.8155 7.40379L24.8159 7.40379C25.0782 7.40557 25.3411 7.40557 25.6043 7.40557H25.6044C25.8676 7.40557 26.1312 7.40557 26.3948 7.40735L26.3954 7.40736C26.4423 7.40821 26.457 7.40029 26.4621 7.39538C26.4667 7.3909 26.4753 7.37722 26.4744 7.33007L26.4744 7.32994C26.4691 6.97694 26.4708 6.62585 26.4744 6.27513M25.631 6.2097C25.6928 6.20979 25.7546 6.21002 25.8165 6.21024C26.0132 6.21097 26.2102 6.2117 26.4079 6.20787L26.4079 6.20787C26.4495 6.20704 26.4605 6.21467 26.4635 6.21772C26.4669 6.22121 26.4744 6.23309 26.4744 6.27513M25.631 6.2097L26.4744 6.27513M27.5936 7.40557L27.5932 7.40558C27.5524 7.40643 27.5387 7.39985 27.534 7.39571C27.531 7.39314 27.5224 7.38323 27.5232 7.34262L27.5232 7.34214C27.5268 6.98401 27.5268 6.6241 27.5232 6.26419L27.4732 6.26469H27.5232C27.5232 6.22569 27.5315 6.21823 27.5331 6.21695C27.5371 6.21357 27.5495 6.20788 27.5889 6.20788L27.5936 7.40557ZM27.5936 7.40557C27.7943 7.4029 27.9951 7.40323 28.1955 7.40357C28.2621 7.40368 28.3287 7.40379 28.3953 7.40379C28.4803 7.40379 28.5652 7.40398 28.6501 7.40418C28.8199 7.40458 28.9896 7.40497 29.1603 7.40379C29.5065 7.40044 29.7731 7.13806 29.7747 6.80915L29.7747 6.80914M27.5936 7.40557L29.7747 6.80914M29.7747 6.80914C29.7763 6.4845 29.5174 6.21638 29.1778 6.21144L29.7747 6.80914ZM29.1805 7.87761L29.1804 7.87761C28.6937 7.87879 28.2062 7.8784 27.719 7.878C27.4755 7.8778 27.2321 7.87761 26.989 7.87761C26.6259 7.87761 26.2624 7.87805 25.899 7.8785H25.899C25.5356 7.87894 25.1725 7.87939 24.8102 7.87939L24.81 7.87939C24.2099 7.87752 23.735 7.40724 23.7313 6.81683C23.7276 6.21604 24.1948 5.73949 24.8029 5.73763L24.8029 5.73763C25.8966 5.73496 26.9892 5.73529 28.0823 5.73562C28.4464 5.73573 28.8106 5.73584 29.175 5.73584C29.3668 5.73584 29.5482 5.7825 29.7146 5.87974L29.7146 5.87975C30.1327 6.12421 30.3344 6.60978 30.2131 7.07653L30.2131 7.07657C30.0899 7.54879 29.6714 7.87574 29.1805 7.87761ZM27.5942 7.45557C27.5088 7.45735 27.4714 7.43243 27.4732 7.34164L27.5942 7.45557ZM27.1357 6.2078L27.1357 6.2078L27.175 7.39695C27.1761 7.396 27.1828 7.38914 27.1829 7.3579C27.1811 6.98748 27.1811 6.61707 27.1829 6.24665L27.2329 6.24689H27.1829C27.1829 6.23304 27.1812 6.22506 27.1797 6.22077C27.1785 6.21727 27.1775 6.21644 27.1772 6.21617L27.1771 6.21614C27.1748 6.2142 27.1659 6.20953 27.1357 6.2078ZM26.8659 7.40383C26.9544 7.40022 27.0446 7.40021 27.1331 7.40381L26.7629 7.35054L26.8129 7.35165C26.8129 7.3518 26.8129 7.35195 26.8129 7.3521C26.8122 7.38792 26.8194 7.39624 26.8207 7.39748C26.8222 7.3989 26.8308 7.40546 26.8656 7.40384L26.8659 7.40383ZM27.7191 7.828C28.2063 7.8284 28.6937 7.82879 29.1803 7.82761L23.7813 6.81652C23.7848 7.37903 24.237 7.82761 24.8102 7.82939C25.1722 7.82939 25.5351 7.82894 25.8983 7.8285C26.2618 7.82805 26.6256 7.82761 26.989 7.82761C27.2322 7.82761 27.4756 7.8278 27.7191 7.828Z" fill="#9A3995" stroke="#9A3995" stroke-width="0.1"/>
</svg>
