<svg width="19" height="22" viewBox="0 0 19 22" fill="none" xmlns="http://www.w3.org/2000/svg">
<path d="M13.8757 15.5392C13.8654 15.4434 13.8447 15.3476 13.8239 15.2624C13.7411 14.9644 13.6686 14.6664 13.5754 14.3683C13.4822 14.0703 13.3786 13.7829 13.244 13.5062C13.099 13.1869 12.7261 12.9314 12.3222 13.0166C12.0012 13.0804 11.7733 13.2933 11.6594 13.6126C11.6283 13.6978 11.6076 13.7829 11.5765 13.8681C11.3383 14.5067 11.0484 15.1134 10.6962 15.6882C10.282 16.3587 9.80556 16.9867 9.26702 17.5508C8.62491 18.2427 7.9103 18.8388 7.13355 19.371C6.88499 19.5413 6.61572 19.7009 6.3568 19.8606C6.28431 19.9032 6.22217 19.9457 6.16003 19.9989C5.91147 20.2118 5.97361 20.5844 6.20145 20.7121C6.24288 20.7334 6.27395 20.7547 6.31538 20.776C6.45001 20.8505 6.58465 20.925 6.71928 20.9995C7.12319 21.2124 7.5271 21.4039 7.95173 21.553C8.20028 21.6381 8.44884 21.7339 8.71812 21.7658C8.88382 21.8403 9.05988 21.8297 9.22559 21.8723C9.42237 21.9148 9.6295 21.9148 9.82628 21.9468C9.96091 21.9574 10.0955 21.9787 10.2302 22C10.458 22 10.6755 22 10.9034 22C11.0276 21.9787 11.1519 21.9681 11.2658 21.9468C11.3591 21.9255 11.4626 21.9042 11.5558 21.8936C11.8251 21.8616 12.0737 21.7871 12.3222 21.6807C12.8401 21.4572 13.244 21.0953 13.4615 20.5418C13.5443 20.3289 13.6168 20.116 13.6893 19.9032C13.8032 19.5625 13.8757 19.2219 13.9068 18.8601C13.9379 18.6046 13.9793 18.3598 13.9793 18.1043C13.9793 18.0085 13.9896 17.9127 13.9896 17.8169C13.9896 17.5615 14 17.2954 14 17.0399C14 16.8164 13.9689 16.5929 13.9689 16.3694C13.9793 16.082 13.9171 15.8159 13.8757 15.5392Z" fill="#9A3995"/>
<path d="M5.65566 4.80857C5.87774 5.30901 6.12097 5.79857 6.3642 6.28813C6.70261 6.96264 7.08332 7.62627 7.52748 8.2355C7.83416 8.67066 8.17257 9.08407 8.57442 9.4322C8.7965 9.62802 9.02916 9.80209 9.30412 9.92176C9.43102 9.97616 9.55792 10.0088 9.68482 9.99792C9.9492 9.97616 10.1924 9.88912 10.3828 9.68242C10.6683 9.38869 10.7952 9.04055 10.7318 8.61627C10.7 8.43132 10.6789 8.24638 10.6895 8.05055C10.6895 7.7677 10.6895 7.47396 10.6895 7.1911C10.6895 6.87561 10.7423 6.57099 10.7635 6.26638C10.7741 6.05967 10.8269 5.85297 10.8692 5.65714C10.9221 5.40692 10.9539 5.14583 11.0279 4.89561C11.1654 4.37341 11.3346 3.86209 11.5461 3.36165C11.8633 2.58923 12.2652 1.84945 12.7199 1.15319C12.7939 1.0444 12.868 0.946484 12.9314 0.826814C13.1218 0.511319 12.8785 0.184945 12.6565 0.130549C12.4978 0.0979118 12.3498 0.0543956 12.1912 0.0543956C12.1383 0.0543956 12.0748 0.0543966 12.0219 0.0435175C11.7999 0.0108801 11.5672 0 11.3451 0C11.0702 0 10.8058 0 10.5308 0C10.4251 0 10.3193 0.0108788 10.2136 0.0217579C9.93863 0.0543953 9.66367 0.0543953 9.38872 0.130549C9.28297 0.163187 9.16664 0.163187 9.05031 0.184945C8.80708 0.23934 8.55327 0.282857 8.31004 0.348132C8.10911 0.402527 7.90819 0.467803 7.71783 0.522198C7.4323 0.609231 7.14677 0.718023 6.87181 0.848572C6.50168 1.02264 6.16327 1.22934 5.81429 1.44692C5.57106 1.58835 5.38071 1.79506 5.23266 2.04528C5.0846 2.30637 5.01058 2.58923 5 2.86121C5.01058 3.07879 5.0423 3.25286 5.10575 3.42692C5.27496 3.89473 5.45474 4.36253 5.65566 4.80857Z" fill="#9A3995"/>
<path d="M6.66828 17.6977C7.18502 17.3749 7.6793 17.0187 8.13987 16.6291C8.88127 16.0058 9.53281 15.2935 10.0945 14.492C10.409 14.0357 10.6899 13.5571 10.9258 13.0673C11.0493 12.8113 11.0156 12.5776 10.8471 12.3549C10.7797 12.277 10.7011 12.1991 10.6112 12.1435C10.3978 11.9876 10.1619 11.9542 9.91475 12.0655C9.58898 12.2102 9.24074 12.3327 8.89251 12.4329C8.54427 12.533 8.19603 12.6332 7.8478 12.6889C7.69053 12.7111 7.53326 12.7445 7.37599 12.7668C7.26366 12.789 7.14009 12.8002 7.01652 12.8113C6.98282 12.8113 6.93789 12.8113 6.89295 12.8224C6.67952 12.867 6.45485 12.8892 6.23018 12.8781C6.17401 12.8781 6.11785 12.8781 6.07291 12.8781C5.52247 12.9003 4.97204 12.9003 4.43283 12.8447C4.17446 12.8224 3.92732 12.789 3.68019 12.7556C3.45552 12.7223 3.23085 12.6889 3.00618 12.6443C2.72535 12.5887 2.45574 12.5219 2.18614 12.4551C1.89407 12.3772 1.59077 12.2882 1.2987 12.1991C1.11896 12.1435 0.939229 12.0878 0.770728 12.0322C0.68086 11.9988 0.590993 12.0099 0.501126 12.0322C0.310157 12.0878 0.175355 12.1991 0.0854877 12.3549C0.0180871 12.4774 -0.0268465 12.6221 0.0180873 12.7779C0.063021 12.9115 0.0854881 13.0562 0.119188 13.2009C0.175356 13.5014 0.265223 13.7908 0.355091 14.0802C0.523592 14.5922 0.725794 15.1042 0.961697 15.594C1.30993 16.2952 1.71434 16.9519 2.19738 17.5753C2.36588 17.7867 2.52315 17.9982 2.69165 18.1986C2.83768 18.3767 2.99495 18.5548 3.17468 18.7106C3.39935 18.8998 3.65772 18.9777 3.96102 19C4.18569 18.9777 4.39913 18.9221 4.61257 18.8442C5.0619 18.6772 5.47754 18.4546 5.88194 18.2208C6.14031 18.0316 6.40992 17.8647 6.66828 17.6977Z" fill="#9A3995"/>
<path d="M1.93394 10.9788C2.2005 11.2035 2.49782 11.3566 2.83615 11.4485C3.02069 11.4996 3.21548 11.5405 3.41028 11.5711C3.58457 11.6017 3.75886 11.6324 3.93315 11.663C4.10744 11.6936 4.28173 11.7243 4.45602 11.7447C4.68157 11.7753 4.90712 11.7855 5.12242 11.8264C5.40949 11.8775 5.69655 11.8775 5.97337 11.9183C6.15791 11.9489 6.34245 11.9387 6.51674 11.9489C6.80381 11.9694 7.09087 11.9796 7.31642 12C7.54198 11.9898 7.69576 11.9898 7.8598 11.9796C8.03409 11.9694 8.19813 11.9592 8.37242 11.9387C8.44418 11.9387 8.51595 11.9285 8.58771 11.9183C8.82352 11.8877 9.05932 11.857 9.29513 11.7958C9.42841 11.7651 9.56169 11.7345 9.67446 11.6732C10.0128 11.4996 10.1256 11.0911 9.82825 10.7847C9.77699 10.7337 9.70522 10.6826 9.63346 10.652C8.82352 10.2741 8.0956 9.78395 7.41895 9.20186C6.85507 8.71168 6.36296 8.18064 5.91185 7.58834C5.27621 6.75094 4.75334 5.85227 4.34324 4.89232C4.27148 4.7085 4.18946 4.5349 4.11769 4.35108C4.06643 4.21832 3.97416 4.12641 3.85113 4.06514C3.73835 4.00386 3.61533 3.98344 3.48204 4.01408C3.34876 4.05492 3.24624 4.13662 3.15397 4.23874C2.71312 4.67787 2.35429 5.17826 2.05697 5.71951C1.79041 6.20969 1.56486 6.7203 1.39057 7.25134C1.30855 7.49643 1.24703 7.74152 1.17527 7.98661C1.11375 8.19086 1.06249 8.3951 1.03173 8.60956C1.02148 8.68104 1.01123 8.75253 1.00098 8.82401C1.00098 8.8955 1.00098 8.96698 1.00098 9.04868C0.990724 9.33462 1.06249 9.62056 1.15476 9.88608C1.3188 10.3354 1.58536 10.6826 1.93394 10.9788Z" fill="#9A3995"/>
<path d="M18.1083 12.9656C17.4704 12.4908 16.7843 12.0822 16.0621 11.7288C15.6529 11.5301 15.2196 11.3534 14.7863 11.1988C14.5817 11.1325 14.377 11.0773 14.1724 11.0221C14.1122 11 14.04 11 13.9798 11C13.7512 11.0331 13.5345 11.0994 13.354 11.2429C13.0531 11.4969 12.8605 11.9828 13.1253 12.3914C13.1493 12.4245 13.1734 12.4687 13.1975 12.5129C13.4503 12.9215 13.6669 13.3411 13.8595 13.7718C14.04 14.1914 14.1965 14.611 14.3289 15.0417C14.4132 15.3178 14.4733 15.6049 14.5456 15.881C14.5817 16.0356 14.6057 16.1902 14.6298 16.3448C14.678 16.654 14.7261 16.9742 14.7381 17.2834C14.7381 17.2945 14.7381 17.2945 14.7381 17.3055C14.7502 17.427 14.7622 17.5595 14.7742 17.681C14.7742 18.1006 14.7742 18.5202 14.7742 18.9509C14.7742 19.1055 14.7502 19.2491 14.7381 19.4037C14.7261 19.492 14.7141 19.5914 14.7261 19.6798C14.7261 19.8564 14.9066 20 15.0992 20C15.1955 20 15.2798 19.9558 15.352 19.9006C15.8696 19.5141 16.3269 19.0834 16.7482 18.6196C17.2176 18.1006 17.6269 17.5374 17.9639 16.9411C18.2046 16.5215 18.4213 16.0908 18.6018 15.6491C18.7462 15.2847 18.8786 14.9202 18.9268 14.5337C18.9508 14.3791 18.9749 14.2245 18.999 14.0699C19.011 13.827 18.9147 13.6282 18.7222 13.4736C18.5055 13.2969 18.3129 13.1202 18.1083 12.9656Z" fill="#9A3995"/>
<path d="M18.9299 11.1686C18.8715 10.9371 18.8715 10.7056 18.8247 10.4846C18.7546 10.2005 18.7196 9.90582 18.6495 9.62169C18.5677 9.32703 18.4742 9.03237 18.3807 8.73771C18.2872 8.47462 18.1704 8.22206 18.0302 7.96949C17.8899 7.72745 17.738 7.49593 17.5043 7.31703C17.2239 7.08552 16.8967 6.95923 16.5111 7.01185C16.3826 7.0329 16.2541 7.05395 16.1255 7.08552C15.7867 7.16971 15.4595 7.29599 15.144 7.43279C14.7467 7.60117 14.3728 7.80112 13.9989 8.01159C13.8002 8.12735 13.6016 8.24311 13.4029 8.35886C13.1926 8.48515 13.0758 8.65352 13.0173 8.87452C12.9823 9.02185 13.0057 9.16918 13.0407 9.30598C13.1576 9.72692 13.4847 9.95844 13.8937 10.0005C14.0456 10.0216 14.2092 10.0532 14.3611 10.0847C14.513 10.1163 14.6532 10.1584 14.8051 10.19C15.179 10.2636 15.5413 10.3689 15.9035 10.4846C16.2073 10.5793 16.5111 10.7056 16.8032 10.8214C17.5511 11.1265 18.2405 11.5054 18.8948 11.9579C18.9182 11.9684 18.9416 11.979 19 12C18.9883 11.779 18.9766 11.5791 18.9649 11.3896C18.9416 11.316 18.9416 11.2423 18.9299 11.1686Z" fill="#9A3995"/>
<path d="M13.138 7.29778C13.0546 7.36889 13.0129 7.44889 13.0025 7.55556C12.9712 7.76 13.2423 8 13.482 8C13.628 8 13.7427 7.95556 13.8573 7.87556C14.0033 7.76889 14.1492 7.66222 14.3056 7.56444C14.733 7.28 15.1709 7.01333 15.6609 6.80889C15.9736 6.67556 16.2968 6.55111 16.6513 6.48889C16.7242 6.48 16.7972 6.46222 16.8702 6.45333C16.9327 6.44444 16.9849 6.4 16.9953 6.34667C17.0161 6.29333 16.964 6.25778 16.9119 6.23111C16.8806 6.21333 16.8598 6.20444 16.8285 6.18667C16.547 6.07111 16.2551 6.01778 15.9215 6C15.8381 6.00889 15.7339 6.02667 15.6296 6.03556C15.2334 6.08 14.879 6.20444 14.535 6.36444C14.1492 6.54222 13.8052 6.76445 13.482 7.01333C13.3569 7.09333 13.2423 7.2 13.138 7.29778Z" fill="#9A3995"/>
</svg>
