<svg width="38" height="38" viewBox="0 0 38 38" fill="none" xmlns="http://www.w3.org/2000/svg">
<path d="M19 38C13.9609 38 9.12816 35.9982 5.56497 32.435C2.00178 28.8718 0 24.0391 0 19C0 13.9609 2.00178 9.12816 5.56497 5.56497C9.12816 2.00178 13.9609 0 19 0C24.0391 0 28.8718 2.00178 32.435 5.56497C35.9982 9.12816 38 13.9609 38 19C38 24.0391 35.9982 28.8718 32.435 32.435C28.8718 35.9982 24.0391 38 19 38ZM12.35 17.1C13.1059 17.1 13.8308 16.7997 14.3653 16.2653C14.8997 15.7308 15.2 15.0059 15.2 14.25C15.2 13.4941 14.8997 12.7692 14.3653 12.2347C13.8308 11.7003 13.1059 11.4 12.35 11.4C11.5941 11.4 10.8692 11.7003 10.3347 12.2347C9.80027 12.7692 9.5 13.4941 9.5 14.25C9.5 15.0059 9.80027 15.7308 10.3347 16.2653C10.8692 16.7997 11.5941 17.1 12.35 17.1ZM25.65 17.1C26.4059 17.1 27.1308 16.7997 27.6653 16.2653C28.1997 15.7308 28.5 15.0059 28.5 14.25C28.5 13.4941 28.1997 12.7692 27.6653 12.2347C27.1308 11.7003 26.4059 11.4 25.65 11.4C24.8941 11.4 24.1692 11.7003 23.6347 12.2347C23.1003 12.7692 22.8 13.4941 22.8 14.25C22.8 15.0059 23.1003 15.7308 23.6347 16.2653C24.1692 16.7997 24.8941 17.1 25.65 17.1ZM29.754 22.8H8.246C9.02933 25.0268 10.4846 26.9555 12.4109 28.3198C14.3372 29.6842 16.6395 30.4169 19 30.4169C21.3605 30.4169 23.6628 29.6842 25.5891 28.3198C27.5154 26.9555 28.9707 25.0268 29.754 22.8Z" fill="#FF9B90"/>
</svg>
