<svg width="38" height="38" viewBox="0 0 38 38" fill="none" xmlns="http://www.w3.org/2000/svg">
<path d="M19 0C15.2422 0 11.5687 1.11433 8.44417 3.20208C5.31964 5.28982 2.88436 8.25722 1.4463 11.729C0.0082324 15.2008 -0.368031 19.0211 0.365088 22.7067C1.09821 26.3924 2.90778 29.7778 5.56498 32.435C8.22218 35.0922 11.6077 36.9018 15.2933 37.6349C18.9789 38.368 22.7992 37.9918 26.271 36.5537C29.7428 35.1156 32.7102 32.6804 34.7979 29.5558C36.8857 26.4313 38 22.7578 38 19C37.9942 13.9627 35.9906 9.13331 32.4286 5.57138C28.8667 2.00944 24.0373 0.00580227 19 0ZM12.4231 13.1538C12.8567 13.1538 13.2805 13.2824 13.6411 13.5233C14.0016 13.7642 14.2826 14.1066 14.4485 14.5072C14.6144 14.9078 14.6579 15.3486 14.5733 15.7738C14.4887 16.1991 14.2799 16.5897 13.9733 16.8963C13.6667 17.2029 13.276 17.4117 12.8508 17.4963C12.4255 17.5809 11.9847 17.5375 11.5841 17.3716C11.1835 17.2056 10.8411 16.9247 10.6002 16.5641C10.3594 16.2036 10.2308 15.7797 10.2308 15.3462C10.2308 14.7647 10.4618 14.2071 10.8729 13.796C11.284 13.3848 11.8416 13.1538 12.4231 13.1538ZM26.3077 26.3077H11.6923C11.3047 26.3077 10.9329 26.1537 10.6589 25.8796C10.3848 25.6055 10.2308 25.2338 10.2308 24.8461C10.2308 24.4585 10.3848 24.0868 10.6589 23.8127C10.9329 23.5386 11.3047 23.3846 11.6923 23.3846H26.3077C26.6953 23.3846 27.0671 23.5386 27.3412 23.8127C27.6153 24.0868 27.7692 24.4585 27.7692 24.8461C27.7692 25.2338 27.6153 25.6055 27.3412 25.8796C27.0671 26.1537 26.6953 26.3077 26.3077 26.3077ZM25.5769 17.5385C25.1433 17.5385 24.7195 17.4099 24.3589 17.169C23.9984 16.9281 23.7174 16.5857 23.5515 16.1851C23.3856 15.7845 23.3422 15.3437 23.4267 14.9185C23.5113 14.4932 23.7201 14.1026 24.0267 13.796C24.3333 13.4894 24.724 13.2806 25.1492 13.196C25.5745 13.1114 26.0153 13.1548 26.4159 13.3207C26.8165 13.4867 27.1589 13.7676 27.3998 14.1282C27.6407 14.4887 27.7692 14.9126 27.7692 15.3462C27.7692 15.9276 27.5383 16.4852 27.1271 16.8963C26.716 17.3075 26.1584 17.5385 25.5769 17.5385Z" fill="#FF9B90"/>
</svg>
