<svg width="20" height="21" viewBox="0 0 20 21" fill="none" xmlns="http://www.w3.org/2000/svg">
<path d="M4.375 10.8562L12.25 2.9812C12.75 2.4812 13.5 2.1062 14.375 2.1062C15.25 2.1062 16 2.4812 16.625 2.9812C17.875 4.2312 17.875 6.2312 16.625 7.3562L13.125 10.8562H14.875L17.375 8.3562C19.125 6.6062 19.125 3.8562 17.375 2.2312C16.5 1.3562 15.375 0.981201 14.25 0.981201C13.125 0.981201 12.125 1.2312 11.25 2.1062L3.375 10.1062C3 10.3562 2.75 10.7312 2.5 11.2312C3.125 10.9812 3.75 10.8562 4.375 10.8562Z" fill="#9A3995"/>
<path d="M9.125 7.8562L6.125 10.8562H12L9.125 7.8562Z" fill="#9A3995"/>
<path d="M15.625 12.1062H4.375C2 12.1062 0 14.1062 0 16.4812C0 18.8562 2 20.8562 4.375 20.8562H15.625C18 20.8562 20 18.8562 20 16.4812C20 14.1062 18 12.1062 15.625 12.1062ZM15.625 19.6062H10V14.6062H4.375C3 14.6062 1.875 15.3562 1.25 16.1062C1.5 14.6062 2.75 13.3562 4.375 13.3562H15.625C17.375 13.3562 18.75 14.7312 18.75 16.4812C18.75 18.2312 17.375 19.6062 15.625 19.6062Z" fill="#9A3995"/>
</svg>
