<svg width="38" height="38" viewBox="0 0 38 38" fill="none" xmlns="http://www.w3.org/2000/svg">
<path d="M19 0C15.2422 0 11.5687 1.11433 8.44417 3.20208C5.31964 5.28982 2.88436 8.25722 1.4463 11.729C0.00823234 15.2008 -0.368031 19.0211 0.365088 22.7067C1.09821 26.3923 2.90778 29.7778 5.56498 32.435C8.22218 35.0922 11.6077 36.9018 15.2933 37.6349C18.9789 38.368 22.7992 37.9918 26.271 36.5537C29.7428 35.1156 32.7102 32.6804 34.7979 29.5558C36.8857 26.4313 38 22.7578 38 19C38 13.9609 35.9982 9.12816 32.435 5.56497C28.8718 2.00178 24.0391 0 19 0ZM29.6875 14.5825C29.6875 15.0053 29.5621 15.4185 29.3273 15.77C29.0924 16.1215 28.7586 16.3955 28.368 16.5573C27.9774 16.7191 27.5476 16.7614 27.133 16.6789C26.7184 16.5964 26.3375 16.3929 26.0386 16.0939C25.7396 15.795 25.5361 15.4141 25.4536 14.9995C25.3711 14.5849 25.4134 14.1551 25.5752 13.7645C25.737 13.3739 26.011 13.0401 26.3625 12.8052C26.714 12.5704 27.1272 12.445 27.55 12.445C28.1169 12.445 28.6606 12.6702 29.0614 13.0711C29.4623 13.4719 29.6875 14.0156 29.6875 14.5825ZM11.2219 16.72C10.7991 16.72 10.3859 16.5946 10.0344 16.3598C9.68284 16.1249 9.40887 15.7911 9.24709 15.4005C9.08531 15.0099 9.04298 14.5801 9.12545 14.1655C9.20793 13.7509 9.41151 13.37 9.71044 13.0711C10.0094 12.7721 10.3902 12.5685 10.8049 12.4861C11.2195 12.4036 11.6493 12.4459 12.0399 12.6077C12.4304 12.7695 12.7643 13.0435 12.9991 13.395C13.234 13.7465 13.3594 14.1597 13.3594 14.5825C13.3595 14.8672 13.3026 15.1491 13.1923 15.4116C13.0819 15.6741 12.9202 15.9119 12.7166 16.111C12.5131 16.3101 12.2718 16.4665 12.007 16.5711C11.7421 16.6757 11.4591 16.7263 11.1744 16.72H11.2219ZM27.8469 25.6619C28.0358 25.9138 28.117 26.2305 28.0724 26.5423C28.0279 26.8541 27.8613 27.1354 27.6094 27.3244C27.3574 27.5133 27.0407 27.5945 26.7289 27.5499C26.4172 27.5054 26.1358 27.3388 25.9469 27.0869C25.1633 26.0381 24.1431 25.1893 22.9693 24.6095C21.7955 24.0297 20.5014 23.7353 19.1923 23.7504C17.8833 23.7654 16.5963 24.0895 15.4361 24.6961C14.276 25.3027 13.2755 26.1748 12.5163 27.2412C12.3336 27.4979 12.0564 27.6715 11.7458 27.7239C11.4351 27.7762 11.1164 27.703 10.8597 27.5203C10.603 27.3376 10.4294 27.0605 10.3771 26.7498C10.3247 26.4392 10.398 26.1204 10.5806 25.8637C11.5566 24.4927 12.8426 23.3715 14.3339 22.5915C15.8252 21.8114 17.4796 21.3946 19.1625 21.3749C20.8453 21.3553 22.509 21.7333 24.0181 22.4782C25.5272 23.2232 26.8391 24.314 27.8469 25.6619Z" fill="#FF9B90"/>
</svg>
