<svg width="19" height="16" viewBox="0 0 19 16" fill="none" xmlns="http://www.w3.org/2000/svg">
<path d="M9.12317 0.153412C7.17999 1.03092 5.65111 2.28031 5.09731 4.42811C4.73462 5.83629 4.78344 7.24866 5.34701 8.58581C6.0975 10.3631 7.49386 11.515 9.28359 12.1432C11.0998 12.7797 12.8505 12.4705 14.4868 11.4481C14.6137 12.0944 12.7933 14.1531 10.9645 14.8843C7.47154 16.2814 4.06504 15.3328 1.84147 12.7407C-0.638779 9.84774 -0.463014 5.92962 1.4704 3.20518C3.46939 0.392985 6.93727 -0.368911 9.12317 0.153412Z" fill="#9A3995"/>
<path d="M12.0871 7.80925C11.8639 8.22236 11.6886 8.5954 11.4567 8.9339C11.4118 8.99883 11.1277 8.97258 10.9915 8.91317C9.81915 8.39368 8.65691 7.85484 7.48743 7.32706C7.24252 7.21653 7.1976 7.07146 7.2918 6.82967C7.4541 6.4138 7.7135 6.11537 8.13231 5.89846C8.98587 5.45634 9.8177 4.97553 10.6539 4.50439C10.751 4.44913 10.8205 4.35241 10.9031 4.27504C10.822 4.2032 10.751 4.10787 10.6553 4.06365C10.2945 3.89233 9.92494 3.74035 9.5612 3.57732C9.28295 3.45159 9.18151 3.26093 9.33078 2.98046C9.40324 2.84367 9.46265 2.69999 9.52786 2.55768C9.77133 2.01608 9.91334 1.96634 10.4611 2.21089C11.4857 2.66959 12.5088 3.13105 13.5392 3.57456C13.7594 3.66851 13.8638 3.80943 13.7652 3.98905C13.5899 4.30958 13.4305 4.70335 13.1406 4.88987C12.2451 5.46186 11.2886 5.94681 10.3611 6.47321C10.2843 6.51743 10.1901 6.62381 10.1974 6.69289C10.2061 6.77026 10.3046 6.8656 10.3887 6.90428C10.8263 7.10186 11.277 7.27318 11.7118 7.47766C11.848 7.53845 11.9451 7.67938 12.0871 7.80925Z" fill="#9A3995"/>
<path d="M14.3024 9.05335C14.7131 9.08737 15.0443 9.09773 15.3682 9.14654C15.5374 9.17169 15.8237 9.24565 15.8368 9.33292C15.8816 9.61693 15.8613 9.92757 15.7876 10.2071C15.7644 10.2944 15.4839 10.3639 15.3292 10.3506C14.541 10.2811 13.7543 10.1938 12.9705 10.0873C12.7767 10.0607 12.447 9.96011 12.4355 9.86248C12.4036 9.59918 12.4326 9.26044 12.5786 9.05779C12.9995 8.46906 13.4926 7.93506 13.951 7.37296C14.0421 7.26201 14.0985 7.12297 14.1723 6.99576C14.045 6.93955 13.9206 6.87594 13.7905 6.83156C13.6893 6.79754 13.5736 6.80642 13.4752 6.76648C13.28 6.6866 12.9474 6.6082 12.93 6.48986C12.8895 6.21473 12.9879 5.91149 13.066 5.62896C13.0819 5.56979 13.2511 5.5121 13.3422 5.52245C14.2229 5.6186 15.1021 5.72067 15.9785 5.84788C16.0754 5.86119 16.2344 6.05497 16.2185 6.13781C16.1621 6.43661 16.1101 6.77535 15.938 7.00315C15.4839 7.60224 14.9662 8.15103 14.4788 8.72348C14.4181 8.79153 14.3892 8.88472 14.3024 9.05335Z" fill="#9A3995"/>
<path d="M17.505 9.20339C17.6926 9.21451 17.8299 9.19366 17.9306 9.23676C18.0725 9.29792 18.2907 9.41052 18.2892 9.49809C18.2877 9.6232 18.1351 9.83032 18.0115 9.85535C17.5721 9.94292 17.119 9.99435 16.6704 10.0069C16.3836 10.0152 16.2768 9.76221 16.4263 9.4828C16.5682 9.2159 16.7329 8.95874 16.8931 8.69879C17.0213 8.49028 16.9679 8.36378 16.6979 8.37768C16.4309 8.39158 16.1974 8.31513 16.2203 8.07186C16.2325 7.94814 16.4782 7.78828 16.6506 7.74102C16.974 7.65344 17.3173 7.61452 17.656 7.59367C17.9703 7.57421 18.1687 7.68681 18.0161 8.01904C17.9306 8.2067 17.8345 8.39019 17.7521 8.57924C17.6713 8.76969 17.6011 8.96291 17.505 9.20339Z" fill="#9A3995"/>
</svg>
