<svg width="21" height="19" viewBox="0 0 21 19" fill="none" xmlns="http://www.w3.org/2000/svg">
<path d="M10.5 1.22673C8.05279 1.22686 5.70587 2.16325 3.97553 3.82991C2.24519 5.49657 1.27317 7.75697 1.27331 10.1139C1.27344 12.4707 2.24572 14.731 3.97625 16.3975C5.70679 18.064 8.05382 19.0001 10.501 19C11.7128 18.9999 12.9126 18.77 14.0321 18.3234C15.1516 17.8767 16.1687 17.2221 17.0255 16.3968C17.8823 15.5716 18.5619 14.5919 19.0255 13.5137C19.4892 12.4355 19.7278 11.2799 19.7277 10.1129C19.7277 8.94586 19.4889 7.79029 19.0251 6.71214C18.5614 5.63399 17.8816 4.65437 17.0248 3.82921C16.1679 3.00406 15.1507 2.34953 14.0311 1.90299C12.9116 1.45646 11.7117 1.22666 10.5 1.22673V1.22673ZM14.0882 13.5686C13.9933 13.6601 13.8807 13.7327 13.7566 13.7823C13.6326 13.8318 13.4997 13.8573 13.3654 13.8573C13.2311 13.8573 13.0982 13.8318 12.9742 13.7823C12.8501 13.7327 12.7375 13.6601 12.6426 13.5686L9.78237 10.8139C9.6855 10.7224 9.60844 10.6134 9.55564 10.4931C9.50285 10.3727 9.47538 10.2435 9.47481 10.1129V6.16347C9.47481 5.62043 9.93615 5.17612 10.5 5.17612C11.0639 5.17612 11.5252 5.62043 11.5252 6.16347V9.70806L14.0882 12.1764C14.488 12.5615 14.488 13.1835 14.0882 13.5686ZM3.20066 0.288744L0.299376 3.08294C0.204462 3.17435 0.129172 3.28287 0.0778054 3.40231C0.0264384 3.52174 1.00008e-09 3.64975 0 3.77902C-1.00008e-09 3.9083 0.0264384 4.03631 0.0778054 4.15574C0.129172 4.27517 0.204462 4.38369 0.299376 4.4751C0.39429 4.56652 0.506969 4.63903 0.63098 4.6885C0.754991 4.73797 0.887906 4.76343 1.02213 4.76343C1.15636 4.76343 1.28928 4.73797 1.41329 4.6885C1.5373 4.63903 1.64998 4.56652 1.74489 4.4751L4.64617 1.68091C4.74109 1.5895 4.81638 1.48098 4.86775 1.36154C4.91911 1.24211 4.94555 1.1141 4.94555 0.984826C4.94555 0.855551 4.91911 0.727543 4.86775 0.608109C4.81638 0.488675 4.74109 0.380155 4.64617 0.288744C4.55126 0.197334 4.43858 0.124823 4.31457 0.0753516C4.19056 0.0258805 4.05765 0.000418073 3.92342 0.000418075C3.78919 0.000418076 3.65627 0.0258805 3.53226 0.0753516C3.40825 0.124823 3.29557 0.197334 3.20066 0.288744ZM16.3538 0.288744C16.2588 0.380088 16.1834 0.488586 16.1319 0.608029C16.0805 0.727472 16.054 0.855514 16.054 0.984826C16.054 1.11414 16.0805 1.24218 16.1319 1.36162C16.1834 1.48107 16.2588 1.58956 16.3538 1.68091L19.2551 4.4751C19.35 4.56652 19.4627 4.63903 19.5867 4.6885C19.7107 4.73797 19.8436 4.76343 19.9779 4.76343C20.1121 4.76343 20.245 4.73797 20.369 4.6885C20.493 4.63903 20.6057 4.56652 20.7006 4.4751C20.7955 4.38369 20.8708 4.27517 20.9222 4.15574C20.9736 4.03631 21 3.9083 21 3.77902C21 3.64975 20.9736 3.52174 20.9222 3.40231C20.8708 3.28287 20.7955 3.17435 20.7006 3.08294L17.7993 0.288744C17.7045 0.197214 17.5918 0.124596 17.4678 0.0750498C17.3438 0.0255032 17.2109 0 17.0766 0C16.9423 0 16.8094 0.0255032 16.6853 0.0750498C16.5613 0.124596 16.4487 0.197214 16.3538 0.288744Z" fill="#9A3995"/>
</svg>
