<svg width="38" height="38" viewBox="0 0 38 38" fill="none" xmlns="http://www.w3.org/2000/svg">
<path d="M19 0C8.50403 0 0 8.50403 0 19C0 29.496 8.50403 38 19 38C29.496 38 38 29.496 38 19C38 8.50403 29.496 0 19 0ZM21.5895 14.5335L27.7185 10.856C28.6073 10.3274 29.5573 11.446 28.8984 12.2351L26.3242 15.3226L28.8984 18.4101C29.5649 19.2069 28.5996 20.3101 27.7185 19.7891L21.5895 16.1117C20.9996 15.7516 20.9996 14.8935 21.5895 14.5335ZM9.10161 12.2351C8.44274 11.446 9.39274 10.3274 10.2815 10.856L16.4105 14.5335C17.0081 14.8935 17.0081 15.7516 16.4105 16.1117L10.2815 19.7891C9.4004 20.3101 8.44274 19.2069 9.10161 18.4101L11.6758 15.3226L9.10161 12.2351ZM19 21.4516C22.9762 21.4516 27.8335 24.8073 28.4387 29.6262C28.569 30.6681 27.8258 31.5109 27.0827 31.1891C25.0984 30.3387 22.1488 29.8561 19 29.8561C15.8512 29.8561 12.9016 30.3387 10.9173 31.1891C10.1665 31.5109 9.43105 30.6528 9.56129 29.6262C10.1665 24.8073 15.0238 21.4516 19 21.4516Z" fill="#FF9B90"/>
</svg>
