<svg width="22" height="22" viewBox="0 0 22 22" fill="none" xmlns="http://www.w3.org/2000/svg">
<path d="M8.83205 15.5628L8.81504 15.4138C8.78409 15.4173 8.75252 15.4238 8.72782 15.4294C8.71845 15.4311 8.70769 15.4326 8.6931 15.4345L8.68983 15.4349C8.67916 15.4363 8.6665 15.4379 8.65324 15.44H8.65305H8.65271H8.65237H8.65204H8.6517H8.65136H8.65102H8.65068H8.65034H8.65H8.64966H8.64933H8.64899H8.64865H8.64831H8.64797H8.64763H8.64729H8.64696H8.64662H8.64628H8.64594H8.6456H8.64527H8.64493H8.64459H8.64425H8.64391H8.64358H8.64324H8.6429H8.64256H8.64222H8.64189H8.64155H8.64121H8.64087H8.64054H8.6402H8.63986H8.63952H8.63919H8.63885H8.63851H8.63818H8.63784H8.6375H8.63716H8.63683H8.63649H8.63615H8.63582H8.63548H8.63514H8.63481H8.63447H8.63413H8.6338H8.63346H8.63312H8.63279H8.63245H8.63211H8.63178H8.63144H8.63111H8.63077H8.63043H8.6301H8.62976H8.62942H8.62909H8.62875H8.62842H8.62808H8.62774H8.62741H8.62707H8.62674H8.6264H8.62607H8.62573H8.62539H8.62506H8.62472H8.62439H8.62405H8.62372H8.62338H8.62304H8.62271H8.62237H8.62204H8.6217H8.62137H8.62103H8.6207H8.62036H8.62003H8.61969H8.61936H8.61902H8.61869H8.61835H8.61802H8.61768H8.61735H8.61701H8.61668H8.61634H8.61601H8.61567H8.61534H8.615H8.61467H8.61433H8.614H8.61366H8.61333H8.61299H8.61266H8.61232H8.61199H8.61165H8.61132H8.61099H8.61065H8.61032H8.60998H8.60965H8.60931H8.60898H8.60864H8.60831H8.60798H8.60764H8.60731H8.60697H8.60664H8.6063H8.60597H8.60564H8.6053H8.60497H8.60463H8.6043H8.60397H8.60363H8.6033H8.60296H8.60263H8.60229H8.60196H8.60163H8.60129H8.60096H8.60063H8.60029H8.59996H8.59962H8.59929H8.59896H8.59862H8.59829H8.59795H8.59762H8.59729H8.59695H8.59662H8.59629H8.59595H8.59562H8.59528H8.59495H8.59462H8.59428H8.59395H8.59362H8.59328H8.59295H8.59261H8.59228H8.59195H8.59161H8.59128H8.59095H8.59061H8.59028H8.58995H8.58961H8.58928H8.58894H8.58861H8.58828H8.58794H8.58761H8.58728H8.58694H8.58661H8.58628H8.58594H8.58561H8.58528H8.58494H8.58461H8.58428H8.58394H8.58361H8.58328H8.58294H8.58261H8.58228H8.58194H8.58161H8.58127H8.58094H8.58061H8.58027H8.57994H8.57961H8.57927H8.57894H8.57861H8.57827H8.57794H8.57761H8.57727H8.57694H8.57661H8.57627H8.57594H8.57561H8.57527H8.57494H8.57461H8.57427H8.57394H8.57361H8.57327H8.57294H8.5726H8.57227H8.57194H8.5716H8.57127H8.57094H8.5706H8.57027H8.56994H8.5696H8.56927H8.56894H8.5686H8.56827H8.56794H8.5676H8.56727H8.56693H8.5666H8.56627H8.56593H8.5656H8.56527H8.56493H8.5646H8.56427H8.56393H8.5636H8.56326H8.56293H8.5626H8.56226H8.56193H8.5616H8.56126H8.56093H8.56059H8.56026H8.55993H8.55959H8.55926H8.55892H8.55859H8.55826H8.55792H8.55759H8.55725H8.55692H8.55659H8.55625H8.55592H8.55558H8.55525H8.55492H8.55458H8.55425H8.55391H8.55358H8.55325H8.55291H8.55258H8.55224H8.55191H8.55158H8.55124H8.55091H8.55057H8.55024H8.5499H8.54957H8.54923H8.5489H8.54857H8.54823H8.5479H8.54756H8.54723H8.54689H8.54656H8.54622H8.54589H8.54555H8.54522H8.54489H8.54455H8.54422H8.54388H8.54355H8.54321H8.54288H8.54254H8.54221H8.54187H8.54154H8.5412H8.54087H8.54053H8.5402H8.53986H8.53953H8.53919H8.53886H8.53852H8.53819H8.53785H8.53752H8.53718H8.53684H8.53651H8.53617H8.53584H8.5355H8.53517H8.53483H8.5345H8.53416H8.53383H8.53349H8.53315H8.53282H8.53248H8.53215H8.53181H8.53148H8.53114H8.5308H8.53047H8.53013H8.5298H8.52946H8.52912H8.52879H8.52845H8.52811H8.52778H8.52744H8.52711H8.52677H8.52643H8.5261H8.52576H8.52542H8.52509H8.52475H8.52441H8.52408H8.52374H8.5234H8.52307H8.52273H8.52239H8.52206H8.52172H8.52138H8.52105H8.52071H8.52037H8.52003H8.5197H8.51936H8.51902H8.51869H8.51835H8.51801H8.51767H8.51734H8.517H8.51666H8.51632H8.51599H8.51565H8.51531H8.51497H8.51463H8.5143H8.51396H8.51362H8.51328H8.51294H8.51261H8.51227H8.51193H8.51159H8.51125H8.51092H8.51058H8.51024H8.5099H8.50956H8.50922H8.50888H8.50855H8.50821H8.50787H8.50753H8.50719H8.50685H8.50651H8.50617H8.50583H8.50549H8.50516H8.50502C8.47581 15.4354 8.44228 15.4303 8.40784 15.4274C8.38247 15.4235 8.35695 15.4212 8.33677 15.4194C8.33336 15.4191 8.33011 15.4188 8.32704 15.4185C8.30268 15.4163 8.28529 15.4143 8.27031 15.4112C8.25367 15.4071 8.2383 15.4045 8.22587 15.4027L8.20731 15.4002L8.19247 15.3983C8.17399 15.3957 8.16944 15.3938 8.16831 15.3933L8.14732 15.3839L8.12446 15.3812C8.08192 15.3761 8.04264 15.3626 7.98592 15.3429C7.97769 15.3401 7.9691 15.3371 7.96008 15.334C7.86184 15.2995 7.76641 15.2545 7.66722 15.2023L7.5955 15.1626C7.6043 15.1572 7.61329 15.1517 7.62241 15.1461C7.67543 15.1137 7.73309 15.0785 7.7866 15.0418C7.9926 14.9007 8.18376 14.7415 8.35631 14.5557C8.5015 14.4035 8.6293 14.2348 8.73997 14.0557L8.74027 14.0552C8.83571 13.8994 8.91393 13.7356 8.97789 13.5641L8.97789 13.5641L8.97826 13.5631C8.98366 13.5483 8.98799 13.534 8.9911 13.5238L8.99145 13.5226C8.99494 13.5112 8.9971 13.5042 8.99944 13.4978L8.99944 13.4978L8.9998 13.4968C9.01317 13.4593 9.03242 13.4461 9.05719 13.4411L9.05719 13.4412L9.05887 13.4408C9.07003 13.4384 9.08228 13.4401 9.09571 13.4478C9.11035 13.4563 9.12159 13.4694 9.12692 13.4812L9.12688 13.4812L9.12862 13.4848C9.15848 13.5462 9.18238 13.6118 9.20504 13.6843C9.22002 13.7322 9.2321 13.7776 9.24507 13.8263C9.25181 13.8516 9.25878 13.8778 9.26653 13.9057C9.27103 13.9244 9.2743 13.9407 9.27583 13.9549L9.27571 13.9549L9.27662 13.961C9.28007 13.984 9.28341 14.004 9.28642 14.022C9.29463 14.0711 9.30034 14.1053 9.29888 14.1455L9.29879 14.1455V14.1509C9.29879 14.1847 9.30108 14.2177 9.30298 14.245L9.30312 14.247C9.30517 14.2765 9.30673 14.2998 9.30673 14.3223C9.30673 14.3532 9.3061 14.385 9.30543 14.4186L9.30542 14.4194C9.30477 14.4522 9.30408 14.4868 9.30408 14.5209C9.30408 14.5284 9.30368 14.5366 9.30298 14.5495L9.30291 14.5508C9.30229 14.5623 9.30143 14.578 9.30143 14.5943C9.30143 14.6349 9.29657 14.6721 9.29026 14.7203C9.28828 14.7354 9.28616 14.7516 9.284 14.7694L9.28391 14.7694L9.28346 14.7747C9.27658 14.8547 9.26062 14.93 9.23519 15.0061C9.21659 15.0608 9.19913 15.1119 9.1794 15.1626C9.14074 15.2609 9.07034 15.3267 8.96848 15.3707L9.02793 15.5084M8.83205 15.5628L8.81439 15.4138C8.86617 15.4077 8.9157 15.3933 8.96888 15.3705L9.02793 15.5084M8.83205 15.5628C8.90087 15.5546 8.9644 15.5356 9.02793 15.5084M8.83205 15.5628C8.80823 15.5655 8.78176 15.5709 8.75794 15.5764C8.74251 15.5793 8.72634 15.5814 8.70982 15.5836C8.69516 15.5855 8.68023 15.5874 8.6653 15.59L9.43291 14.7875M9.02793 15.5084C9.16027 15.4513 9.2635 15.3588 9.31909 15.2173C9.34026 15.1629 9.35879 15.1085 9.37732 15.0541L9.37732 15.0541C9.40644 14.967 9.42497 14.88 9.43291 14.7875M9.43291 14.7875C9.43462 14.7734 9.43645 14.7595 9.43827 14.7456C9.44492 14.6951 9.45143 14.6456 9.45143 14.5943C9.45143 14.5821 9.4521 14.5699 9.45276 14.5576C9.45342 14.5454 9.45408 14.5331 9.45408 14.5209C9.45408 14.4883 9.45474 14.4549 9.4554 14.4216C9.45607 14.3883 9.45673 14.355 9.45673 14.3223C9.45673 14.2937 9.45474 14.2652 9.45276 14.2366C9.45077 14.2081 9.44879 14.1795 9.44879 14.1509L9.43291 14.7875ZM8.85852 13.4464C8.85455 13.4572 8.85124 13.4681 8.84794 13.479C8.84463 13.4899 8.84132 13.5008 8.83735 13.5117C8.77647 13.6749 8.70236 13.8299 8.61236 13.9768C8.50648 14.1482 8.38473 14.3087 8.24709 14.4529C8.08298 14.6297 7.90034 14.7821 7.70182 14.9181C7.65186 14.9523 7.59863 14.9848 7.54599 15.017C7.53169 15.0258 7.51744 15.0345 7.5033 15.0432C7.48477 15.0541 7.46889 15.065 7.45301 15.0786C7.38948 15.133 7.40536 15.2282 7.4636 15.2608C7.46889 15.2636 7.47352 15.2663 7.47815 15.269C7.48279 15.2717 7.48742 15.2744 7.49271 15.2772L7.59594 15.3343C7.69917 15.3887 7.8024 15.4377 7.91093 15.4757C7.9192 15.4786 7.92748 15.4815 7.93576 15.4843C7.99109 15.5036 8.04694 15.523 8.1068 15.5301C8.13277 15.5418 8.15973 15.5453 8.18647 15.5488C8.20334 15.551 8.22012 15.5531 8.2365 15.5573C8.26515 15.5635 8.29466 15.5662 8.32405 15.5689C8.34625 15.5709 8.36838 15.5729 8.39002 15.5764C8.42443 15.5791 8.45884 15.5846 8.49325 15.59L8.85852 13.4464ZM8.85852 13.4464C8.88764 13.3648 8.94587 13.3103 9.02793 13.294C9.13116 13.2723 9.22645 13.3376 9.2635 13.4192C9.29791 13.4899 9.32438 13.5633 9.3482 13.6395C9.36409 13.6903 9.37762 13.7411 9.39114 13.7918C9.39791 13.8172 9.40467 13.8426 9.41173 13.868L8.85852 13.4464Z" stroke="#BABABA" stroke-width="0.3"/>
<path d="M8.6563 11.4131L8.50968 11.3815C8.50833 11.3877 8.5068 11.3945 8.50515 11.4019C8.49578 11.4435 8.48268 11.5019 8.47955 11.5596C8.47776 11.5849 8.47513 11.6093 8.47216 11.6368C8.47101 11.6475 8.4698 11.6587 8.46858 11.6706C8.46439 11.7111 8.46035 11.7569 8.46035 11.8052V11.8056V11.806V11.8064V11.8069V11.8073V11.8077V11.8081V11.8086V11.809V11.8094V11.8098V11.8103V11.8107V11.8111V11.8115V11.812V11.8124V11.8128V11.8132V11.8137V11.8141V11.8145V11.8149V11.8154V11.8158V11.8162V11.8166V11.8171V11.8175V11.8179V11.8183V11.8188V11.8192V11.8196V11.82V11.8205V11.8209V11.8213V11.8217V11.8222V11.8226V11.823V11.8234V11.8239V11.8243V11.8247V11.8251V11.8256V11.826V11.8264V11.8268V11.8273V11.8277V11.8281V11.8286V11.829V11.8294V11.8298V11.8303V11.8307V11.8311V11.8315V11.832V11.8324V11.8328V11.8333V11.8337V11.8341V11.8345V11.835V11.8354V11.8358V11.8362V11.8367V11.8371V11.8375V11.838V11.8384V11.8388V11.8392V11.8397V11.8401V11.8405V11.8409V11.8414V11.8418V11.8422V11.8427V11.8431V11.8435V11.8439V11.8444V11.8448V11.8452V11.8457V11.8461V11.8465V11.8469V11.8474V11.8478V11.8482V11.8487V11.8491V11.8495V11.8499V11.8504V11.8508V11.8512V11.8517V11.8521V11.8525V11.853V11.8534V11.8538V11.8542V11.8547V11.8551V11.8555V11.856V11.8564V11.8568V11.8572V11.8577V11.8581V11.8585V11.859V11.8594V11.8598V11.8603V11.8607V11.8611V11.8615V11.862V11.8624V11.8628V11.8633V11.8637V11.8641V11.8645V11.865V11.8654V11.8658V11.8663V11.8667V11.8671V11.8676V11.868V11.8684V11.8689V11.8693V11.8697V11.8701V11.8706V11.871V11.8714V11.8719V11.8723V11.8727V11.8732V11.8736V11.874V11.8744V11.8749V11.8753V11.8757V11.8762V11.8766V11.877V11.8775V11.8779V11.8783V11.8788V11.8792V11.8796V11.88V11.8805V11.8809V11.8813V11.8818V11.8822V11.8826V11.8831V11.8835V11.8839V11.8844V11.8848V11.8852V11.8857V11.8861V11.8865V11.8869V11.8874V11.8878V11.8882V11.8887V11.8891V11.8895V11.89V11.8904V11.8908V11.8913V11.8917V11.8921V11.8926V11.893V11.8934V11.8938V11.8943V11.8947V11.8951V11.8956V11.896V11.8964V11.8969V11.8973V11.8977V11.8982V11.8986V11.899V11.8995V11.8999V11.9003V11.9008V11.9012V11.9016V11.902V11.9025V11.9029V11.9033V11.9038V11.9042V11.9046V11.9051V11.9055V11.9059V11.9064V11.9068V11.9072V11.9077V11.9081V11.9085V11.909V11.9094V11.9098V11.9102V11.9107V11.9111V11.9115V11.912V11.9124V11.9128V11.9133V11.9137V11.9141V11.9146V11.915V11.9154V11.9159V11.9163V11.9167V11.9172V11.9176V11.918V11.9184V11.9189V11.9193V11.9197V11.9202V11.9206V11.921V11.9215V11.9219V11.9223V11.9228V11.9232V11.9236V11.9241V11.9245V11.9249V11.9254V11.9258V11.9262V11.9267V11.9271V11.9275V11.9279V11.9284V11.9288V11.9292V11.9297V11.9301V11.9305V11.931V11.9314V11.9318V11.9323V11.9327V11.9331V11.9336V11.934V11.9344V11.9349V11.9353V11.9357V11.9361V11.9366V11.937V11.9374V11.9379V11.9383V11.9387V11.9392V11.9396V11.94V11.9405V11.9409V11.9413V11.9418V11.9422V11.9426V11.943V11.9435V11.9439V11.9443V11.9448V11.9452V11.9456V11.9461V11.9465V11.9469V11.9474V11.9478V11.9482V11.9487V11.9491V11.9495V11.9499V11.9504V11.9508V11.9512V11.9517V11.9521V11.9525V11.953V11.9534V11.9538V11.9543V11.9547V11.9551V11.9555V11.956V11.9564V11.9568V11.9573V11.9577V11.9581V11.9586V11.959V11.9594V11.9598V11.9603V11.9607V11.9611V11.9616V11.962V11.9624V11.9629V11.9633V11.9637V11.9642V11.9646V11.965V11.9654V11.9659V11.9663V11.9667V11.9672V11.9676V11.968V11.9685V11.9689V11.9693V11.9697V11.9702V11.9706V11.971V11.9715V11.9719V11.9723V11.9727V11.9732V11.9736V11.974V11.9745V11.9749V11.9753V11.9758V11.9762V11.9766V11.977V11.9775V11.9779V11.9783V11.9788V11.9792V11.9796V11.98V11.9805V11.9809V11.9813V11.9818V11.9822V11.9826V11.983V11.9835V11.9839V11.9843V11.9848V11.9852V11.9856V11.986V11.9865V11.9869V11.9873V11.9878V11.9882V11.9886V11.989V11.9895V11.9899V11.9903V11.9908V11.9912V11.9916V11.992V11.9925V11.9929V11.9933V11.9937V11.9942V11.9946V11.995V11.9955V11.9959V11.9963V11.9967V11.9972V11.9976V11.998V11.9984V11.9989V11.9993V11.9997V12.0002V12.0006V12.001V12.0014V12.0019V12.0023V12.0027V12.0031V12.0036V12.004V12.0044V12.0048V12.0053V12.0057V12.0061V12.0066V12.007V12.0074V12.0078V12.0083V12.0087V12.0091V12.0095V12.01V12.0104V12.0108V12.0112V12.0117V12.0121V12.0125V12.0129V12.0134V12.0138V12.0142V12.0146V12.0151V12.0155V12.0159V12.0163V12.0168V12.0172V12.0176V12.018V12.0185V12.0189V12.0193V12.0197V12.0202V12.0206V12.021V12.0211C8.45736 12.0845 8.46435 12.1421 8.47301 12.193C8.48144 12.2515 8.46651 12.294 8.42441 12.3373L8.42437 12.3373L8.42163 12.3403C8.40532 12.358 8.38275 12.3696 8.34128 12.373L8.341 12.3731L8.34097 12.3731C8.34046 12.373 8.33334 12.3729 8.31574 12.3653C8.26604 12.3436 8.22019 12.3106 8.169 12.2654L8.169 12.2654L8.16801 12.2646C8.0779 12.1865 7.99938 12.0915 7.92483 11.9857L7.92484 11.9857L7.92342 11.9837C7.81628 11.8368 7.72318 11.6749 7.63911 11.5074C7.57675 11.3819 7.51611 11.2597 7.46093 11.1354L7.46093 11.1354L7.46059 11.1346C7.41147 11.0256 7.367 10.9101 7.32433 10.7921L7.32433 10.7921L7.32421 10.7918C7.3147 10.7657 7.30885 10.7382 7.30644 10.6981C7.30909 10.6538 7.3216 10.6078 7.34553 10.5652C7.37288 10.5193 7.40428 10.4874 7.43976 10.4668L7.4398 10.4668L7.44373 10.4644C7.53296 10.4087 7.61275 10.3602 7.69848 10.3199L7.69848 10.3199L7.69898 10.3197C7.76177 10.2898 7.8274 10.2648 7.89339 10.2446C7.91847 10.2374 7.93973 10.231 7.96004 10.2248C7.98663 10.2167 8.0116 10.2091 8.04142 10.201L8.00222 10.0563M8.6563 11.4131L8.50954 11.3821C8.51233 11.3689 8.51542 11.3519 8.51891 11.3326C8.52728 11.2864 8.53796 11.2275 8.55232 11.1782C8.58888 11.0397 8.63407 10.9031 8.69081 10.7688C8.77593 10.5617 8.88321 10.3645 9.0037 10.18L9.00525 10.1776L9.00527 10.1776C9.01198 10.1678 9.01763 10.1596 9.02254 10.1526C9.02661 10.1467 9.03017 10.1416 9.03339 10.1369C9.01557 10.1329 9.0064 10.1312 8.99415 10.1312C8.99349 10.1312 8.99273 10.1312 8.99187 10.1312C8.9808 10.1312 8.95362 10.1313 8.9262 10.1264C8.87983 10.1198 8.8292 10.1173 8.77792 10.1173H8.77751H8.7771H8.77669H8.77628H8.77586H8.77545H8.77504H8.77463H8.77422H8.77381H8.7734H8.77299H8.77257H8.77216H8.77175H8.77134H8.77093H8.77052H8.77011H8.7697H8.76929H8.76888H8.76847H8.76806H8.76765H8.76724H8.76683H8.76642H8.76601H8.7656H8.76519H8.76478H8.76437H8.76396H8.76355H8.76314H8.76273H8.76232H8.76191H8.7615H8.76109H8.76068H8.76027H8.75986H8.75945H8.75904H8.75863H8.75823H8.75782H8.75741H8.757H8.75659H8.75618H8.75577H8.75536H8.75495H8.75455H8.75414H8.75373H8.75332H8.75291H8.7525H8.75209H8.75169H8.75128H8.75087H8.75046H8.75005H8.74965H8.74924H8.74883H8.74842H8.74801H8.74761H8.7472H8.74679H8.74638H8.74597H8.74557H8.74516H8.74475H8.74434H8.74394H8.74353H8.74312H8.74271H8.74231H8.7419H8.74149H8.74109H8.74068H8.74027H8.73986H8.73946H8.73905H8.73864H8.73824H8.73783H8.73742H8.73702H8.73661H8.7362H8.7358H8.73539H8.73498H8.73458H8.73417H8.73376H8.73336H8.73295H8.73254H8.73214H8.73173H8.73132H8.73092H8.73051H8.73011H8.7297H8.72929H8.72889H8.72848H8.72808H8.72767H8.72726H8.72686H8.72645H8.72605H8.72564H8.72523H8.72483H8.72442H8.72402H8.72361H8.72321H8.7228H8.72239H8.72199H8.72158H8.72118H8.72077H8.72037H8.71996H8.71956H8.71915H8.71875H8.71834H8.71794H8.71753H8.71712H8.71672H8.71631H8.71591H8.7155H8.7151H8.71469H8.71429H8.71388H8.71348H8.71307H8.71267H8.71226H8.71186H8.71145H8.71105H8.71064H8.71024H8.70983H8.70943H8.70903H8.70862H8.70822H8.70781H8.70741H8.707H8.7066H8.70619H8.70579H8.70538H8.70498H8.70457H8.70417H8.70377H8.70336H8.70296H8.70255H8.70215H8.70174H8.70134H8.70093H8.70053H8.70013H8.69972H8.69932H8.69891H8.69851H8.6981H8.6977H8.6973H8.69689H8.69649H8.69608H8.69568H8.69527H8.69487H8.69447H8.69406H8.69366H8.69325H8.69285H8.69245H8.69204H8.69164H8.69123H8.69083H8.69042H8.69002H8.68962H8.68921H8.68881H8.6884H8.688H8.6876H8.68719H8.68679H8.68639H8.68598H8.68558H8.68517H8.68477H8.68437H8.68396H8.68356H8.68315H8.68275H8.68235H8.68194H8.68154H8.68113H8.68073H8.68033H8.67992H8.67952H8.67911H8.67871H8.67831H8.6779H8.6775H8.6771H8.67669H8.67629H8.67588H8.67548H8.67508H8.67467H8.67427H8.67386H8.67346H8.67306H8.67265H8.67225H8.67185H8.67144H8.67104H8.67063H8.67023H8.66983H8.66942H8.66902H8.66861H8.66821H8.66781H8.6674H8.667H8.6666H8.66619H8.66579H8.66538H8.66498H8.66458H8.66417H8.66377H8.66336H8.66296H8.66256H8.66215H8.66175H8.66134H8.66094H8.66054H8.66013H8.65973H8.65932H8.65892H8.65852H8.65811H8.65771H8.6573H8.6569H8.6565H8.65609H8.65569H8.65528H8.65488H8.65448H8.65407H8.65367H8.65326H8.65286H8.65246H8.65205H8.65165H8.65124H8.65084H8.65043H8.65003H8.64963H8.64922H8.64882H8.64841H8.64801H8.6476H8.6472H8.6468H8.64639H8.64599H8.64558H8.64518H8.64477H8.64437H8.64396H8.64356H8.64316H8.64275H8.64235H8.64194H8.64154H8.64113H8.64073H8.64032H8.63992H8.63951H8.63911H8.6387H8.6383H8.6379H8.63749H8.63709H8.63668H8.63628H8.63587H8.63547H8.63506H8.63466H8.63425H8.63385H8.63344H8.63304H8.63263H8.63223H8.63182H8.63142H8.63101H8.63061H8.6302H8.62979H8.62939H8.62898H8.62858H8.62817H8.62777H8.62736H8.62696H8.62655H8.62615H8.62574H8.62534H8.62493H8.62452H8.62412H8.62371H8.62331H8.6229H8.6225H8.62209H8.62168H8.62128H8.62087H8.62047H8.62006H8.61965H8.61925H8.61884H8.61844H8.61803H8.61762H8.61722H8.61681H8.61641H8.616H8.61559H8.61519H8.61478H8.61437H8.61397H8.61356H8.61315H8.61275H8.61234H8.61193H8.61153H8.61112H8.61071H8.61031H8.6099H8.60949H8.60909H8.60868H8.60827H8.60787H8.60746H8.60705H8.60664H8.60624H8.60583H8.60542H8.60502H8.60461H8.6042H8.60379H8.60339H8.60298H8.60257H8.60216H8.60176H8.60135H8.60094H8.60053H8.60012H8.59972H8.59931H8.5989H8.59849H8.59808H8.59768H8.59727H8.59686H8.59645H8.59604H8.59564H8.59523H8.59482H8.59441H8.594H8.59359H8.59318H8.59278H8.59237H8.59196H8.59155H8.59114H8.59073H8.59032H8.58991H8.5895H8.5891H8.58869H8.58828H8.58787H8.58746H8.58705H8.58664H8.58623H8.58582H8.58541H8.585H8.58459H8.58418H8.58377H8.58336H8.58295H8.58254H8.58213H8.58172H8.58131H8.5809H8.58049H8.58008H8.57967H8.57926H8.57885H8.57844H8.57803H8.57762H8.57721H8.5768H8.57639H8.57598H8.57557H8.57516H8.57474H8.57433H8.57392H8.57351H8.5731H8.57269H8.57228H8.57187H8.57145H8.57104H8.57063H8.57022H8.56981C8.55201 10.1173 8.53294 10.1191 8.50521 10.1219C8.47165 10.1259 8.44517 10.128 8.4224 10.1298C8.3828 10.133 8.35442 10.1353 8.31949 10.1448C8.29325 10.1526 8.26884 10.1557 8.25349 10.1576C8.24783 10.1583 8.24326 10.1588 8.23943 10.1592C8.23111 10.1602 8.22625 10.1607 8.22111 10.1616C8.19439 10.1676 8.17065 10.1724 8.14835 10.1769C8.11095 10.1845 8.07762 10.1913 8.0411 10.2011L8.00222 10.0563M8.6563 11.4131C8.66093 11.3912 8.66493 11.3689 8.66895 11.3466C8.67665 11.3037 8.68441 11.2605 8.69684 11.2185L8.61035 11.8052C8.61035 11.7544 8.61572 11.7047 8.62104 11.6554C8.62416 11.6264 8.62727 11.5976 8.62927 11.5688C8.63154 11.5245 8.6414 11.4802 8.6509 11.4376C8.65273 11.4294 8.65455 11.4212 8.6563 11.4131ZM8.00222 10.0563C7.97212 10.0644 7.94202 10.0735 7.91246 10.0825C7.8916 10.0888 7.871 10.095 7.85087 10.1007L8.27791 10.0007C8.26146 10.0057 8.244 10.0077 8.22616 10.0097C8.21469 10.0111 8.20305 10.0124 8.19142 10.0146C8.16948 10.0195 8.14721 10.024 8.12484 10.0286C8.08381 10.037 8.04245 10.0455 8.00222 10.0563Z" stroke="#BABABA" stroke-width="0.3"/>
<path d="M7.50369 14.3632L7.5037 14.3632C7.6302 14.2841 7.75064 14.1973 7.8624 14.1028L7.86274 14.1025C8.042 13.9518 8.19958 13.7795 8.33565 13.5855C8.41182 13.4749 8.47951 13.3594 8.53614 13.2419L8.5362 13.2418C8.53904 13.2359 8.53988 13.2324 8.54012 13.2311C8.54019 13.2307 8.54023 13.2305 8.54024 13.2303C8.53993 13.2291 8.53863 13.2254 8.53412 13.2189C8.52323 13.2068 8.51587 13.2008 8.51192 13.1984L8.50219 13.1923L8.50244 13.192C8.49266 13.1848 8.48781 13.1843 8.48736 13.1842L8.48734 13.1842C8.48688 13.1842 8.48605 13.1841 8.48447 13.1844C8.4828 13.1847 8.47952 13.1854 8.47449 13.1877L8.47378 13.188L8.47378 13.188C8.3832 13.2283 8.28756 13.2618 8.1931 13.289L8.18911 13.2901C8.10278 13.3149 8.00637 13.3427 7.9083 13.3584L7.90565 13.3588L7.90565 13.3588C7.88855 13.3612 7.871 13.3643 7.85047 13.3679L7.84941 13.3681C7.83111 13.3713 7.81029 13.375 7.78897 13.3781C7.75364 13.3848 7.71707 13.3881 7.6888 13.3906L7.68563 13.3909L7.67217 13.3921V13.3915C7.67114 13.3915 7.67032 13.3915 7.66967 13.3915C7.60618 13.4047 7.53778 13.4117 7.4677 13.4086M7.50369 14.3632L7.43396 13.4086H7.43389H7.43382H7.43375H7.43368H7.43361H7.43354H7.43347H7.4334H7.43333H7.43326H7.43319H7.43312H7.43305H7.43298H7.43291H7.43285H7.43278H7.43271H7.43264H7.43257H7.4325H7.43243H7.43236H7.4323H7.43223H7.43216H7.43209H7.43202H7.43195H7.43189H7.43182H7.43175H7.43168H7.43161H7.43155H7.43148H7.43141H7.43134H7.43127H7.43121H7.43114H7.43107H7.43101V13.2586L7.43707 13.4085C7.43605 13.4085 7.43503 13.4086 7.43402 13.4086M7.50369 14.3632L7.50176 14.3644C7.48982 14.3721 7.47745 14.38 7.46476 14.3882C7.41282 14.4214 7.3555 14.4581 7.30032 14.4982C7.20175 14.5549 7.10637 14.6053 7.00594 14.6426C6.96494 14.6576 6.92695 14.6676 6.88931 14.6725C6.84077 14.6674 6.81152 14.655 6.78765 14.6351C6.75156 14.6037 6.7179 14.5661 6.68282 14.5233L6.68283 14.5233L6.68163 14.5219C6.65564 14.491 6.63258 14.4613 6.60742 14.4289C6.59223 14.4093 6.57629 14.3888 6.55847 14.3664C6.44201 14.216 6.34414 14.0573 6.25944 13.8868C6.20264 13.7688 6.15361 13.6448 6.11253 13.5201C6.08931 13.4453 6.06923 13.38 6.05682 13.3135L6.05696 13.3135L6.05546 13.3071C6.05427 13.302 6.0528 13.2949 6.05104 13.2865C6.04619 13.2633 6.03923 13.23 6.0305 13.2004L7.50369 14.3632ZM7.4677 13.4086C7.46639 13.4085 7.46508 13.4085 7.46378 13.4084L7.4712 13.2586V13.4086H7.47112H7.47103H7.47095H7.47086H7.47078H7.47069H7.47061H7.47053H7.47044H7.47036H7.47027H7.47019H7.47011H7.47002H7.46994H7.46985H7.46977H7.46969H7.4696H7.46952H7.46943H7.46935H7.46927H7.46918H7.4691H7.46901H7.46893H7.46884H7.46876H7.46868H7.46859H7.46851H7.46842H7.46834H7.46826H7.46817H7.46809H7.468H7.46792H7.46784H7.46775H7.4677ZM7.4677 13.4086H7.46767H7.46758H7.4675H7.46742H7.46733H7.46725H7.46716H7.46708H7.467H7.46691H7.46683H7.46674H7.46666H7.46658H7.46649H7.46641H7.46633H7.46624H7.46616H7.46607H7.46599H7.46591H7.46582H7.46574H7.46565H7.46557H7.46549H7.4654H7.46532H7.46524H7.46515H7.46507H7.46498H7.4649H7.46482H7.46473H7.46465H7.46457H7.46448H7.4644H7.46431H7.46423H7.46415H7.46406H7.46398H7.4639H7.46381H7.46373H7.46364H7.46356H7.46348H7.46339H7.46331H7.46323H7.46314H7.46306H7.46298H7.46289H7.46281H7.46273H7.46264H7.46256H7.46248H7.46239H7.46231H7.46223H7.46214H7.46206H7.46198H7.46189H7.46181H7.46173H7.46164H7.46156H7.46148H7.46139H7.46131H7.46123H7.46114H7.46106H7.46098H7.46089H7.46081H7.46073H7.46064H7.46056H7.46048H7.46039H7.46031H7.46023H7.46015H7.46006H7.45998H7.4599H7.45981H7.45973H7.45965H7.45957H7.45948H7.4594H7.45932H7.45923H7.45915H7.45907H7.45899H7.4589H7.45882H7.45874H7.45865H7.45857H7.45849H7.45841H7.45832H7.45824H7.45816H7.45808H7.45799H7.45791H7.45783H7.45775H7.45766H7.45758H7.4575H7.45742H7.45733H7.45725H7.45717H7.45709H7.45701H7.45692H7.45684H7.45676H7.45668H7.45659H7.45651H7.45643H7.45635H7.45627H7.45618H7.4561H7.45602H7.45594H7.45586H7.45577H7.45569H7.45561H7.45553H7.45545H7.45536H7.45528H7.4552H7.45512H7.45504H7.45496H7.45487H7.45479H7.45471H7.45463H7.45455H7.45447H7.45439H7.4543H7.45422H7.45414H7.45406H7.45398H7.4539H7.45382H7.45373H7.45365H7.45357H7.45349H7.45341H7.45333H7.45325H7.45317H7.45308H7.453H7.45292H7.45284H7.45276H7.45268H7.4526H7.45252H7.45244H7.45236H7.45228H7.45219H7.45211H7.45203H7.45195H7.45187H7.45179H7.45171H7.45163H7.45155H7.45147H7.45139H7.45131H7.45123H7.45115H7.45107H7.45099H7.45091H7.45083H7.45075H7.45067H7.45059H7.45051H7.45043H7.45035H7.45027H7.45019H7.45011H7.45003H7.44995H7.44987H7.44979H7.44971H7.44963H7.44955H7.44947H7.44939H7.44931H7.44923H7.44915H7.44907H7.44899H7.44891H7.44883H7.44875H7.44867H7.44859H7.44851H7.44843H7.44835H7.44828H7.4482H7.44812H7.44804H7.44796H7.44788H7.4478H7.44772H7.44764H7.44756H7.44749H7.44741H7.44733H7.44725H7.44717H7.44709H7.44701H7.44694H7.44686H7.44678H7.4467H7.44662H7.44654H7.44647H7.44639H7.44631H7.44623H7.44615H7.44607H7.446H7.44592H7.44584H7.44576H7.44568H7.44561H7.44553H7.44545H7.44537H7.44529H7.44522H7.44514H7.44506H7.44498H7.44491H7.44483H7.44475H7.44467H7.4446H7.44452H7.44444H7.44437H7.44429H7.44421H7.44413H7.44406H7.44398H7.4439H7.44383H7.44375H7.44367H7.4436H7.44352H7.44344H7.44337H7.44329H7.44321H7.44314H7.44306H7.44298H7.44291H7.44283H7.44275H7.44268H7.4426H7.44252H7.44245H7.44237H7.4423H7.44222H7.44214H7.44207H7.44199H7.44192H7.44184H7.44177H7.44169H7.44161H7.44154H7.44146H7.44139H7.44131H7.44124H7.44116H7.44109H7.44101H7.44094H7.44086H7.44079H7.44071H7.44064H7.44056H7.44049H7.44041H7.44034H7.44026H7.44019H7.44011H7.44004H7.43996H7.43989H7.43981H7.43974H7.43966H7.43959H7.43952H7.43944H7.43937H7.43929H7.43922H7.43915H7.43907H7.439H7.43892H7.43885H7.43878H7.4387H7.43863H7.43856H7.43848H7.43841H7.43833H7.43826H7.43819H7.43811H7.43804H7.43797H7.43789H7.43782H7.43775H7.43768H7.4376H7.43753H7.43746H7.43738H7.43731H7.43724H7.43717H7.43709H7.43702H7.43695H7.43688H7.4368H7.43673H7.43666H7.43659H7.43652H7.43644H7.43637H7.4363H7.43623H7.43616H7.43608H7.43601H7.43594H7.43587H7.4358H7.43573H7.43565H7.43558H7.43551H7.43544H7.43537H7.4353H7.43523H7.43516H7.43509H7.43501H7.43494H7.43487H7.4348H7.43473H7.43466H7.43459H7.43452H7.43445H7.43438H7.43431H7.43424H7.43417H7.4341H7.43403H7.43402M7.43402 13.4086C7.2911 13.4143 7.14401 13.4144 6.9977 13.3994C6.9285 13.3934 6.86273 13.3845 6.80086 13.3762L6.79939 13.376L6.79743 13.3757L6.79743 13.3757L6.79584 13.3754C6.73945 13.3671 6.67903 13.3581 6.61806 13.346C6.54281 13.3311 6.47103 13.3133 6.40306 13.2965L6.40157 13.2961L6.39897 13.2955L6.39897 13.2954C6.32198 13.2749 6.24262 13.2516 6.16708 13.2285L6.16646 13.2284L6.16646 13.2284L6.16572 13.2281C6.12466 13.2154 6.08228 13.2023 6.04172 13.1891M7.43402 13.4086L6.03727 13.1463L6.03928 13.1532L6.04895 13.1864C6.04835 13.1866 6.04777 13.1868 6.04722 13.1869M6.04172 13.1891C6.04296 13.1885 6.04447 13.1879 6.0463 13.1872M6.04172 13.1891C6.03741 13.1876 6.03311 13.1862 6.02884 13.1848L6.02361 13.1831L6.02364 13.183C6.02544 13.1837 6.02719 13.1842 6.02888 13.1847C6.03438 13.1862 6.0392 13.1868 6.04279 13.187M6.04172 13.1891L6.04279 13.187M6.0463 13.1872C6.04773 13.1869 6.04837 13.1868 6.04837 13.1868C6.04836 13.1868 6.04796 13.1869 6.04722 13.1869M6.0463 13.1872C6.04548 13.1874 6.04441 13.1877 6.04305 13.188L6.04279 13.187M6.0463 13.1872C6.0466 13.1871 6.0469 13.187 6.04722 13.1869M6.04722 13.1869L6.04279 13.187M6.03138 13.1987C6.03162 13.1982 6.03188 13.1977 6.03216 13.1972L6.02902 13.1955M6.03138 13.1987L6.01611 13.1884L6.0257 13.1852C6.02683 13.1885 6.02794 13.192 6.02902 13.1955M6.03138 13.1987C6.03116 13.199 6.03093 13.1994 6.0307 13.1998L6.03025 13.1996C6.02984 13.1982 6.02943 13.1968 6.02902 13.1955M6.03138 13.1987L6.02766 13.1914C6.02801 13.1927 6.02829 13.1939 6.02849 13.1952L6.02902 13.1955" stroke="#BABABA" stroke-width="0.3"/>
<path d="M7.7491 13.0341C7.77507 13.0329 7.79731 13.0323 7.81775 13.0317C7.84269 13.031 7.86494 13.0303 7.88798 13.0289C7.93252 13.0263 7.97444 13.0237 8.01899 13.0185C8.03733 13.0185 8.05567 13.0159 8.07401 13.0132L8.07401 13.0132L8.07403 13.0132C8.13429 13.0054 8.19455 12.9976 8.25481 12.9819C8.28888 12.9741 8.32294 12.9663 8.35176 12.9506C8.43823 12.9062 8.46706 12.8018 8.39107 12.7235M7.7491 13.0341L7.76263 12.8847C7.75927 12.8844 7.75582 12.8841 7.75227 12.8838M7.7491 13.0341C7.71612 13.0311 7.678 13.029 7.63767 13.0267C7.60751 13.0251 7.57612 13.0233 7.54472 13.0211L7.7491 13.0341ZM7.75227 12.8838C7.77971 12.8827 7.79968 12.8821 7.81707 12.8817C7.83849 12.8811 7.85598 12.8806 7.87866 12.8792L7.8792 12.8792C7.92381 12.8765 7.9618 12.8741 8.00153 12.8695L8.01023 12.8685H8.01899C8.02491 12.8685 8.03268 12.8676 8.05288 12.8647L8.05469 12.8645L8.05469 12.8645C8.11635 12.8565 8.16737 12.8497 8.21709 12.8367L8.2212 12.8357L8.22121 12.8357C8.24827 12.8295 8.26269 12.8257 8.27149 12.8225M7.75227 12.8838C7.71989 12.8812 7.68002 12.8789 7.64069 12.8767C7.61076 12.875 7.58114 12.8733 7.55537 12.8714L7.55537 12.8714L7.55349 12.8713C7.53553 12.8703 7.51463 12.8699 7.49787 12.8696C7.49129 12.8694 7.48535 12.8693 7.48047 12.8692C7.45943 12.8686 7.44387 12.8675 7.43041 12.8653L7.43042 12.8652L7.42774 12.8648C7.39065 12.8594 7.35317 12.8564 7.3212 12.8538C7.31744 12.8535 7.31376 12.8533 7.31016 12.853C7.27417 12.8501 7.24407 12.8473 7.21537 12.8422M7.75227 12.8838L8.34128 12.6896M8.27149 12.8225C8.27361 12.8235 8.27574 12.8245 8.27787 12.8255L8.27783 12.8256L8.28166 12.8272C8.28189 12.8274 8.28235 12.8277 8.28299 12.8281C8.28374 12.8286 8.28432 12.8291 8.28471 12.8294C8.28715 12.8322 8.2866 12.8326 8.28581 12.83C8.28575 12.8298 8.28569 12.8296 8.28563 12.8294L8.28581 12.8292L8.28823 12.8268L8.39107 12.7235M8.27149 12.8225C8.27521 12.8212 8.27792 12.82 8.28015 12.8188L8.2813 12.8182L8.28326 12.8171L8.28328 12.8171C8.28657 12.8155 8.28757 12.8142 8.28754 12.8142C8.2875 12.8142 8.28621 12.8157 8.28541 12.8196C8.28532 12.82 8.28525 12.8204 8.28519 12.8209C8.28518 12.8209 8.28517 12.821 8.28516 12.8211C8.28492 12.8229 8.28491 12.8247 8.28508 12.8264L8.28705 12.8245L8.39107 12.7235M8.27149 12.8225C8.05295 12.7198 7.85756 12.5876 7.67748 12.4327L7.67689 12.4322C7.52466 12.2998 7.39195 12.1566 7.27079 11.9975L7.27065 11.9973C7.10081 11.7736 6.96096 11.5332 6.85128 11.2765L6.84943 11.2721L6.84949 11.2721C6.84141 11.2514 6.8326 11.2309 6.82261 11.2077L6.8222 11.2067C6.81458 11.189 6.80625 11.1697 6.79807 11.1494C6.79759 11.15 6.79708 11.1505 6.79657 11.1511L6.79128 11.1569L6.79113 11.1568C6.69018 11.2574 6.60673 11.3732 6.53653 11.5009C6.47238 11.6189 6.41854 11.741 6.37711 11.8672L6.37683 11.8681L6.37683 11.8681C6.364 11.9064 6.35413 11.9419 6.34321 11.9811C6.33719 12.0027 6.33085 12.0255 6.32352 12.0505L6.32319 12.0516L6.32319 12.0516C6.30876 12.0995 6.2978 12.144 6.29136 12.1889L6.28502 12.2331V12.2331V12.2332V12.2334V12.2335V12.2336V12.2337V12.2338V12.2339V12.234V12.2341V12.2342V12.2343V12.2344V12.2345V12.2346V12.2348V12.2349V12.235V12.2351V12.2352V12.2353V12.2354V12.2355V12.2356V12.2357V12.2358V12.2359V12.236V12.2362V12.2363V12.2364V12.2365V12.2366V12.2367V12.2368V12.2369V12.237V12.2371V12.2372V12.2373V12.2375V12.2376V12.2377V12.2378V12.2379V12.238V12.2381V12.2382V12.2383V12.2384V12.2385V12.2386V12.2388V12.2389V12.239V12.2391V12.2392V12.2393V12.2394V12.2395V12.2396V12.2397V12.2398V12.2399V12.2401V12.2402V12.2403V12.2404V12.2405V12.2406V12.2407V12.2408V12.2409V12.241V12.2411V12.2412V12.2414V12.2415V12.2416V12.2417V12.2418V12.2419V12.242V12.2421V12.2422V12.2423V12.2424V12.2426V12.2427V12.2428V12.2429V12.243V12.2431V12.2432V12.2433V12.2434V12.2435V12.2436V12.2438V12.2439V12.244V12.2441V12.2442V12.2443V12.2444V12.2445V12.2446V12.2447V12.2449V12.245V12.2451V12.2452V12.2453V12.2454V12.2455V12.2456V12.2457V12.2458V12.2459V12.2461V12.2462V12.2463V12.2464V12.2465V12.2466V12.2467V12.2468V12.2469V12.247V12.2472V12.2473V12.2474V12.2475V12.2476V12.2477V12.2478V12.2479V12.248V12.2482V12.2483V12.2484V12.2485V12.2486V12.2487V12.2488V12.2489V12.249V12.2491V12.2493V12.2494V12.2495V12.2496V12.2497V12.2498V12.2499V12.25V12.2501V12.2503V12.2504V12.2505V12.2506V12.2507V12.2508V12.2509V12.251V12.2511V12.2513V12.2514V12.2515V12.2516V12.2517V12.2518V12.2519V12.252V12.2521V12.2523V12.2524V12.2525V12.2526V12.2527V12.2528V12.2529V12.253V12.2531V12.2533V12.2534V12.2535V12.2536V12.2537V12.2538V12.2539V12.254V12.2542V12.2543V12.2544V12.2545V12.2546V12.2547V12.2548V12.2549V12.2551V12.2552V12.2553V12.2554V12.2555V12.2556V12.2557V12.2558V12.256V12.2561V12.2562V12.2563V12.2564V12.2565V12.2566V12.2567V12.2569V12.257V12.2571V12.2572V12.2573V12.2574V12.2575V12.2576V12.2578V12.2579V12.258V12.2581V12.2582V12.2583V12.2584V12.2585V12.2587V12.2588V12.2589V12.259V12.2591V12.2592V12.2593V12.2595V12.2596V12.2597V12.2598V12.2599V12.26V12.2601V12.2603V12.2604V12.2605V12.2606V12.2607V12.2608V12.2609V12.2611V12.2612V12.2613V12.2614V12.2615V12.2616V12.2617V12.2619V12.262V12.2621V12.2622V12.2623V12.2624V12.2625V12.2627V12.2628V12.2629V12.263V12.2631V12.2632V12.2633V12.2635V12.2636V12.2637V12.2638V12.2639V12.264V12.2642V12.2643V12.2644V12.2645V12.2646V12.2647V12.2649V12.265V12.2651V12.2652V12.2653V12.2654V12.2655V12.2657V12.2658V12.2659V12.266V12.2661V12.2662V12.2664V12.2665V12.2666V12.2667V12.2668V12.2669V12.2671V12.2672V12.2673V12.2674V12.2675V12.2676V12.2678V12.2679V12.268V12.2681V12.2682V12.2683V12.2685V12.2686V12.2687V12.2688V12.2689V12.269V12.2692V12.2693V12.2694V12.2695V12.2696V12.2698V12.2699V12.27V12.2701V12.2702V12.2703V12.2705V12.2706V12.2707V12.2708V12.2709V12.2711V12.2712V12.2713V12.2714V12.2715V12.2716V12.2718V12.2719V12.272V12.2721V12.2722V12.2724V12.2725V12.2726V12.2727V12.2728V12.2729V12.2731V12.2732V12.2733V12.2734V12.2735V12.2737V12.2738V12.2739V12.274V12.2741V12.2743V12.2744V12.2745V12.2746V12.2747V12.2749V12.275V12.2751V12.2752V12.2753V12.2755V12.2756V12.2757V12.2758V12.2759V12.2761V12.2762V12.2763V12.2764V12.2765V12.2767V12.2768V12.2769V12.277V12.2772V12.2773V12.2774V12.2775V12.2776V12.2778V12.2779V12.278V12.2781V12.2782V12.2784V12.2785V12.2786V12.2787V12.2789V12.279V12.2791V12.2792V12.2793V12.2795V12.2796V12.2797V12.2798V12.2852L6.28492 12.2852C6.28328 12.3308 6.29469 12.383 6.31561 12.4435C6.34727 12.5296 6.39823 12.5973 6.47035 12.6586C6.52113 12.7014 6.57731 12.7305 6.64337 12.7484L6.64404 12.7486C6.68505 12.76 6.7292 12.7693 6.77408 12.7763L6.77675 12.7767L6.77675 12.7768L6.91038 12.8003C6.95566 12.8082 6.99595 12.8153 7.0355 12.8199L7.03824 12.8202L7.03823 12.8202C7.05799 12.8229 7.0772 12.8248 7.09914 12.8271C7.10568 12.8277 7.11246 12.8284 7.11956 12.8291C7.14845 12.8321 7.18158 12.8358 7.21537 12.8422M8.39107 12.7235C8.37797 12.7105 8.35962 12.6974 8.34128 12.6896M8.34128 12.6896C8.13428 12.593 7.94824 12.4678 7.7753 12.319C7.63119 12.1937 7.50542 12.058 7.39012 11.9066L8.34128 12.6896ZM7.21537 12.8422C7.21569 12.8423 7.21601 12.8423 7.21632 12.8424L7.18836 12.9898M7.21537 12.8422C7.21513 12.8422 7.21488 12.8421 7.21463 12.8421L7.18836 12.9898M7.18836 12.9898C7.22876 12.9969 7.26916 13.0002 7.30912 13.0034C7.34174 13.006 7.37406 13.0085 7.40585 13.0132L6.17432 12.4939C6.21624 12.6087 6.28437 12.6974 6.37346 12.7731C6.44159 12.8305 6.51757 12.8697 6.60404 12.8932C6.65121 12.9062 6.70099 12.9167 6.75078 12.9245L6.88441 12.948L6.88444 12.948C6.92897 12.9558 6.97351 12.9637 7.01805 12.9689C7.04065 12.9719 7.06325 12.9742 7.0857 12.9765C7.1205 12.98 7.15491 12.9834 7.18836 12.9898ZM6.98922 11.2176C6.98005 11.1941 6.97023 11.1712 6.9604 11.1484C6.95057 11.1256 6.94075 11.1027 6.93158 11.0792C6.91848 11.0453 6.89489 11.0218 6.86345 11.0061L6.98922 11.2176ZM6.13502 12.2224V12.2798L6.17956 12.0084C6.16384 12.0606 6.15074 12.1128 6.14288 12.1676L6.13502 12.2224Z" stroke="#BABABA" stroke-width="0.3"/>
<path d="M9.54081 13.8115C9.50697 13.7015 9.46698 13.5942 9.42084 13.487C9.37162 13.3769 9.31625 13.2696 9.25165 13.1652L9.38336 13.0934C9.38302 13.0928 9.38265 13.0922 9.38226 13.0914C9.382 13.091 9.38174 13.0905 9.38146 13.09M9.54081 13.8115L9.38146 13.09M9.54081 13.8115C9.5547 13.8571 9.56603 13.9037 9.57728 13.9501M9.54081 13.8115L9.57728 13.9501M9.38146 13.09C9.44911 13.1997 9.50681 13.3118 9.55777 13.4257L9.55864 13.4277L9.55863 13.4277C9.6067 13.5394 9.64862 13.6518 9.68419 13.7675L9.68428 13.7678C9.6993 13.817 9.71279 13.8724 9.72477 13.9216C9.73064 13.9457 9.73615 13.9684 9.7413 13.9881L9.7423 13.9919L9.74225 13.9919C9.75277 14.0369 9.75965 14.0812 9.76559 14.1193L9.76593 14.1215C9.7781 14.1996 9.79182 14.2897 9.79529 14.3786L9.79549 14.3839L9.79935 14.4239L9.8039 14.4713L9.80463 14.4787V14.4861V14.4867V14.4873V14.488V14.4886V14.4892V14.4898V14.4905V14.4911V14.4917V14.4924V14.493V14.4936V14.4942V14.4949V14.4955V14.4961V14.4968V14.4974V14.498V14.4986V14.4993V14.4999V14.5005V14.5012V14.5018V14.5024V14.503V14.5037V14.5043V14.5049V14.5056V14.5062V14.5068V14.5074V14.5081V14.5087V14.5093V14.51V14.5106V14.5112V14.5118V14.5125V14.5131V14.5137V14.5144V14.515V14.5156V14.5162V14.5169V14.5175V14.5181V14.5188V14.5194V14.52V14.5206V14.5213V14.5219V14.5225V14.5232V14.5238V14.5244V14.525V14.5257V14.5263V14.5269V14.5276V14.5282V14.5288V14.5294V14.5301V14.5307V14.5313V14.532V14.5326V14.5332V14.5338V14.5345V14.5351V14.5357V14.5364V14.537V14.5376V14.5382V14.5389V14.5395V14.5401V14.5408V14.5414V14.542V14.5426V14.5433V14.5439V14.5445V14.5452V14.5458V14.5464V14.547V14.5477V14.5483V14.5489V14.5496V14.5502V14.5508V14.5514V14.5521V14.5527V14.5533V14.554V14.5546V14.5552V14.5559V14.5565V14.5571V14.5577V14.5584V14.559V14.5596V14.5603V14.5609V14.5615V14.5621V14.5628V14.5634V14.564V14.5647V14.5653V14.5659V14.5666V14.5672V14.5678V14.5684V14.5691V14.5697V14.5703V14.571V14.5716V14.5722V14.5728V14.5735V14.5741V14.5747V14.5754V14.576V14.5766V14.5773V14.5779V14.5785V14.5791V14.5798V14.5804V14.581V14.5817V14.5823V14.5829V14.5836V14.5842V14.5848V14.5854V14.5861V14.5867V14.5873V14.588V14.5886V14.5892V14.5899V14.5905V14.5911V14.5917V14.5924V14.593V14.5936V14.5943V14.5949V14.5955V14.5962V14.5968V14.5974V14.598V14.5987V14.5993V14.5999V14.6006V14.6012V14.6018V14.6025V14.6031V14.6037V14.6044V14.605V14.6056V14.6062V14.6069V14.6075V14.6081V14.6088V14.6094V14.61V14.6107V14.6113V14.6119V14.6126V14.6132V14.6138V14.6144V14.6151V14.6157V14.6163V14.617V14.6176V14.6182V14.6189V14.6195V14.6201V14.6208V14.6214V14.622V14.6227V14.6233V14.6239V14.6245V14.6252V14.6258V14.6264V14.6271V14.6277V14.6283V14.629V14.6296V14.6302V14.6309V14.6315V14.6321V14.6328V14.6334V14.634V14.6347V14.6353V14.6359V14.6365V14.6372V14.6378V14.6384V14.6391V14.6397V14.6403V14.641V14.6416V14.6422V14.6429V14.6435V14.6441V14.6448V14.6454V14.646V14.6467V14.6473V14.6479V14.6486V14.6492V14.6498V14.6505V14.6511V14.6517V14.6524V14.653V14.6536V14.6543V14.6549V14.6555V14.6562V14.6568V14.6574V14.6581V14.6587V14.6593V14.66V14.6606V14.6612V14.6619V14.6625V14.6631V14.6638V14.6644V14.665V14.6657V14.6663V14.6669V14.6676V14.6682V14.6688V14.6695V14.6701V14.6707V14.6714V14.672V14.6726V14.6733V14.6739V14.6745V14.6752V14.6758V14.6764V14.6771V14.6777V14.6783V14.679V14.6796V14.6802V14.6809V14.6815V14.6821V14.6828V14.6834V14.684V14.6847V14.6853V14.6859V14.6866V14.6872V14.6879V14.6885V14.6891V14.6898V14.6904V14.691V14.6917V14.6923V14.6929V14.6936V14.6942V14.6948V14.6955V14.6961V14.6967V14.6974V14.698V14.6987V14.6993V14.6999V14.7006V14.7012V14.7018V14.7025V14.7031V14.7037V14.7044V14.705V14.7056V14.7063V14.7069V14.7076V14.7082V14.7088V14.7095V14.7101V14.7107V14.7114V14.712V14.7126V14.7133V14.7139V14.7146V14.7152V14.7158V14.7165V14.7171V14.7177V14.7184V14.719V14.7196V14.7203V14.7209V14.7216V14.7222V14.7228V14.7235V14.7241V14.7247V14.7254V14.726V14.7267V14.7273V14.7279V14.7286V14.7292V14.7298V14.7305V14.7311V14.7318V14.7324V14.733V14.7337V14.7343V14.735V14.7356V14.7362V14.7369V14.7375V14.7381V14.7388V14.7394V14.7401V14.7407V14.7413V14.742V14.7426V14.7433V14.7439V14.7445V14.7452V14.7458V14.7464V14.7471V14.7477V14.7484V14.749V14.7496V14.7503V14.7509V14.7516V14.7522V14.7528V14.7535V14.7541V14.7548V14.7554V14.756V14.7567V14.7573V14.758V14.7586V14.7592V14.7599V14.7605V14.7612V14.7618V14.7624V14.7631V14.7637V14.7644V14.765V14.7656V14.7663V14.7669V14.7676V14.7682V14.7688V14.7695V14.7701V14.7708V14.7714V14.7721V14.7727V14.7733V14.774V14.7746V14.7753V14.7759V14.7765V14.7772V14.7778V14.7785V14.7791V14.7798V14.7804V14.781V14.7817V14.7823V14.783V14.7836V14.7842V14.7849V14.7855V14.7862V14.7868V14.7875V14.7881V14.7887V14.7894V14.79V14.7907V14.7913V14.792V14.7926V14.7932V14.7939V14.7945V14.7952V14.7958V14.7965V14.7971V14.7978V14.7984V14.799V14.7997V14.8003V14.801V14.8016V14.8023V14.8029V14.8035V14.8042V14.8048V14.8055V14.8061V14.8068V14.8074V14.8081V14.8087V14.8093V14.81V14.8106C9.80463 14.8269 9.80363 14.8449 9.80226 14.8623C9.89008 14.7891 9.97116 14.7098 10.048 14.6252C10.1608 14.5004 10.2588 14.3655 10.3392 14.2232L10.3397 14.2223L10.3397 14.2223C10.3984 14.12 10.4506 14.0162 10.4937 13.9107C10.5302 13.8188 10.5574 13.7412 10.5671 13.6632L10.5676 13.6586L10.5677 13.6586L10.5769 13.5994L10.5846 13.5503C10.5843 13.5456 10.5833 13.5433 10.5828 13.5422C10.582 13.5404 10.5792 13.5353 10.5697 13.5277L10.5688 13.527L10.5688 13.527C10.5412 13.5045 10.519 13.4855 10.4987 13.4681C10.4706 13.4441 10.4462 13.4232 10.4167 13.4009C10.2621 13.2859 10.0951 13.1863 9.91805 13.0997C9.82001 13.0521 9.71527 13.0092 9.60941 12.9714C9.56191 12.9561 9.51383 12.9431 9.46174 12.929L9.46128 12.9289C9.42493 12.9353 9.40232 12.9449 9.38673 12.9567C9.37127 12.9704 9.35847 12.9905 9.35345 13.01C9.34916 13.0267 9.35096 13.0392 9.35803 13.0509C9.36808 13.0655 9.37662 13.0811 9.38146 13.09ZM9.57728 13.9501C9.58347 13.9756 9.58963 14.001 9.59618 14.026L9.57728 13.9501ZM9.46374 12.9288C9.46378 12.9288 9.46378 12.9288 9.46374 12.9288L9.46374 12.9288ZM10.6014 13.3585C10.5696 13.3314 10.5387 13.3051 10.5067 13.2809L10.7344 13.5632C10.7375 13.5011 10.7128 13.4503 10.6636 13.4108C10.6421 13.3932 10.6216 13.3757 10.6014 13.3585Z" stroke="#BABABA" stroke-width="0.3"/>
<path d="M10.5531 12.75C10.5528 12.7476 10.5525 12.7453 10.5523 12.743C10.5492 12.716 10.5471 12.6976 10.5435 12.6801C10.5338 12.6401 10.5266 12.6003 10.5202 12.5654L10.5199 12.5635C10.5131 12.5265 10.5073 12.4948 10.4999 12.4644C10.4802 12.3936 10.4577 12.3225 10.4342 12.2484C10.4137 12.1911 10.3879 12.1352 10.3563 12.0781C10.3226 12.0201 10.296 11.9831 10.2612 11.9565L10.2568 11.9531L10.2569 11.953C10.2113 11.9154 10.1689 11.9016 10.1205 11.9078C10.0878 11.9131 10.0614 11.9176 10.0358 11.9239L9.99998 11.7782L10.0362 11.9238C9.96114 11.9424 9.88616 11.971 9.8088 12.0046L9.80766 12.0051L9.80766 12.0051C9.71425 12.0447 9.62475 12.0923 9.53101 12.1451L9.38068 12.2327C9.3637 12.243 9.35674 12.2522 9.35138 12.271C9.35121 12.2723 9.35101 12.2749 9.35138 12.2795C9.35191 12.286 9.35339 12.2946 9.35648 12.3069C9.36776 12.346 9.3935 12.3687 9.44494 12.374L9.45018 12.3745L9.45017 12.3746C9.49403 12.3807 9.53974 12.3896 9.57956 12.3979C9.60209 12.4026 9.62335 12.4079 9.64133 12.4125L9.64246 12.4127C9.6613 12.4175 9.67678 12.4214 9.69238 12.4246C9.6926 12.4247 9.69282 12.4247 9.69304 12.4248L10.5531 12.75ZM10.5531 12.75C10.4496 12.692 10.3422 12.64 10.2299 12.5941L10.2299 12.5941L10.2285 12.5936C10.2176 12.5892 10.2063 12.5847 10.1948 12.5802C10.1315 12.5548 10.0598 12.5262 9.9884 12.5039L10.5531 12.75Z" stroke="#BABABA" stroke-width="0.3"/>
<mask id="path-7-inside-1" fill="white">
<path d="M9.23644 11.8324C9.21513 11.8506 9.20447 11.871 9.2018 11.8983C9.19381 11.9505 9.26309 12.0119 9.32437 12.0119C9.36167 12.0119 9.39098 12.0005 9.42029 11.9801C9.45759 11.9528 9.49489 11.9256 9.53486 11.9006C9.6441 11.8279 9.756 11.7597 9.88123 11.7075C9.96116 11.6734 10.0438 11.6416 10.1344 11.6257C10.153 11.6234 10.1717 11.6189 10.1903 11.6166C10.2063 11.6143 10.2196 11.603 10.2223 11.5893C10.2276 11.5757 10.2143 11.5666 10.201 11.5598C10.193 11.5553 10.1876 11.553 10.1796 11.5484C10.1077 11.5189 10.0331 11.5053 9.94784 11.5007C9.92653 11.503 9.89988 11.5075 9.87324 11.5098C9.77199 11.5212 9.6814 11.553 9.59347 11.5939C9.49489 11.6393 9.40697 11.6961 9.32437 11.7597C9.29239 11.7802 9.26309 11.8074 9.23644 11.8324Z"/>
</mask>
<path d="M9.23644 11.8324L9.43109 12.0607L9.43649 12.0561L9.44167 12.0512L9.23644 11.8324ZM9.2018 11.8983L9.49835 11.9437L9.49959 11.9356L9.50038 11.9275L9.2018 11.8983ZM9.42029 11.9801L9.59197 12.2262L9.5973 12.2223L9.42029 11.9801ZM9.53486 11.9006L9.69397 12.155L9.70106 12.1503L9.53486 11.9006ZM9.88123 11.7075L9.99676 11.9843L9.99888 11.9834L9.88123 11.7075ZM10.1344 11.6257L10.0981 11.3279L10.0902 11.3288L10.0825 11.3302L10.1344 11.6257ZM10.1903 11.6166L10.2266 11.9145L10.2325 11.9136L10.1903 11.6166ZM10.2223 11.5893L9.94287 11.4801L9.93303 11.5053L9.92785 11.5318L10.2223 11.5893ZM10.201 11.5598L10.0526 11.8209L10.0643 11.8269L10.201 11.5598ZM10.1796 11.5484L10.3279 11.2876L10.3113 11.2782L10.2936 11.2709L10.1796 11.5484ZM9.94784 11.5007L9.96381 11.2012L9.93988 11.1999L9.91605 11.2024L9.94784 11.5007ZM9.87324 11.5098L9.84774 11.2108L9.83979 11.2117L9.87324 11.5098ZM9.59347 11.5939L9.71905 11.8663L9.71999 11.8659L9.59347 11.5939ZM9.32437 11.7597L9.48599 12.0125L9.49703 12.0054L9.50742 11.9974L9.32437 11.7597ZM9.0418 11.6041C8.96206 11.6721 8.91354 11.7636 8.90323 11.8691L9.50038 11.9275C9.49855 11.9462 9.49277 11.9728 9.47778 12.0013C9.46286 12.0298 9.44457 12.0492 9.43109 12.0607L9.0418 11.6041ZM8.90525 11.8529C8.87931 12.0225 8.97751 12.144 9.03497 12.1964C9.09972 12.2554 9.20141 12.3119 9.32437 12.3119V11.7119C9.38605 11.7119 9.42245 11.7377 9.43924 11.753C9.45023 11.763 9.46592 11.7803 9.47909 11.8076C9.49225 11.8348 9.50766 11.8828 9.49835 11.9437L8.90525 11.8529ZM9.32437 12.3119C9.43403 12.3119 9.5221 12.2748 9.59193 12.2261L9.24864 11.734C9.25121 11.7322 9.26126 11.7256 9.27756 11.72C9.29473 11.7141 9.31123 11.7119 9.32437 11.7119V12.3119ZM9.5973 12.2223C9.63594 12.1941 9.66463 12.1732 9.69391 12.1549L9.37581 11.6462C9.32515 11.6779 9.27924 11.7116 9.24327 11.7379L9.5973 12.2223ZM9.70106 12.1503C9.80457 12.0814 9.89783 12.0256 9.99675 11.9843L9.76571 11.4306C9.61418 11.4938 9.48363 11.5743 9.36865 11.6508L9.70106 12.1503ZM9.99888 11.9834C10.074 11.9514 10.1308 11.9309 10.1862 11.9212L10.0825 11.3302C9.95674 11.3523 9.84829 11.3954 9.76358 11.4315L9.99888 11.9834ZM10.1706 11.9235C10.1903 11.9211 10.2084 11.9177 10.2162 11.9163C10.2271 11.9143 10.2276 11.9143 10.2266 11.9144L10.154 11.3188C10.1343 11.3212 10.1162 11.3246 10.1084 11.326C10.0976 11.328 10.097 11.328 10.0981 11.3279L10.1706 11.9235ZM10.2325 11.9136C10.3481 11.8972 10.4847 11.8107 10.5167 11.6469L9.92785 11.5318C9.94162 11.4613 9.97966 11.4105 10.0166 11.3789C10.0541 11.347 10.0996 11.3265 10.1481 11.3196L10.2325 11.9136ZM10.5017 11.6986C10.5239 11.6417 10.5309 11.5754 10.5144 11.5082C10.4988 11.4449 10.467 11.3997 10.442 11.3717C10.3978 11.3225 10.3474 11.2978 10.3376 11.2927L10.0643 11.8269C10.0624 11.8259 10.0546 11.8219 10.0444 11.8151C10.0349 11.8087 10.0156 11.795 9.99528 11.7723C9.97451 11.7492 9.94593 11.7092 9.93176 11.6516C9.91663 11.5902 9.92332 11.5301 9.94287 11.4801L10.5017 11.6986ZM10.3492 11.299C10.3389 11.2931 10.3302 11.2887 10.3269 11.287C10.3236 11.2853 10.3255 11.2863 10.3279 11.2876L10.0314 11.8092C10.0418 11.8151 10.0504 11.8195 10.0537 11.8212C10.0571 11.8229 10.0551 11.822 10.0527 11.8206L10.3492 11.299ZM10.2936 11.2709C10.1821 11.2252 10.0724 11.2069 9.96381 11.2012L9.93188 11.8003C9.9938 11.8036 10.0333 11.8126 10.0657 11.826L10.2936 11.2709ZM9.91605 11.2024C9.89998 11.2041 9.88157 11.2067 9.87251 11.208C9.86061 11.2096 9.85336 11.2104 9.84775 11.2109L9.89873 11.8087C9.91976 11.8069 9.93916 11.8044 9.95257 11.8026C9.96882 11.8004 9.97439 11.7996 9.97964 11.799L9.91605 11.2024ZM9.83979 11.2117C9.69545 11.2279 9.5724 11.2728 9.46696 11.3219L9.71999 11.8659C9.7904 11.8331 9.84853 11.8145 9.90669 11.8079L9.83979 11.2117ZM9.4679 11.3214C9.34428 11.3784 9.23715 11.4482 9.14132 11.522L9.50742 11.9974C9.57678 11.944 9.6455 11.9002 9.71905 11.8663L9.4679 11.3214ZM9.16274 11.507C9.10373 11.5447 9.05499 11.5913 9.03121 11.6136L9.44167 12.0512C9.45531 12.0384 9.4645 12.0299 9.47305 12.0226C9.48138 12.0155 9.48536 12.0129 9.48599 12.0125L9.16274 11.507Z" fill="#BABABA" mask="url(#path-7-inside-1)"/>
<path d="M9.50561 20.0063C6.85588 20.0063 4.20615 20.0072 1.55642 20.0058C0.858356 20.0054 0.28506 19.5994 0.0774167 18.9478C0.0273273 18.7903 0.00410352 18.6174 0.00364816 18.4517C-0.000450066 14.6613 -0.00136073 10.8714 0.00228214 7.08097C0.00319286 6.17853 0.669383 5.52913 1.57236 5.52822C1.93209 5.52776 2.29182 5.53186 2.6511 5.52458C2.7144 5.52321 2.77951 5.4818 2.83916 5.4504C2.90292 5.41672 2.95847 5.36757 3.02222 5.33435C6.3008 3.62278 9.58029 1.91211 12.8593 0.200994C12.9522 0.152755 13.0447 0.103605 13.138 0.0562766C13.3488 -0.0515786 13.5037 -0.00561522 13.6139 0.204634C13.929 0.804436 14.2418 1.4056 14.5555 2.00632C14.8565 2.58291 15.1598 3.15859 15.4571 3.737C15.5031 3.8262 15.5573 3.85806 15.6575 3.86033C15.9617 3.86579 16.2731 3.84531 16.5678 3.90539C17.2645 4.04692 17.7394 4.65628 17.7444 5.36939C17.7453 5.49955 17.7786 5.5537 17.9124 5.59056C18.5763 5.7726 19.0203 6.37058 19.0226 7.0746C19.0262 8.1759 19.0253 9.27675 19.0212 10.3781C19.0208 10.5064 19.0449 10.5615 19.1902 10.5869C19.6036 10.6598 19.9037 11.0297 19.906 11.4511C19.9105 12.3295 19.911 13.2073 19.906 14.0856C19.9037 14.5175 19.5909 14.8839 19.1624 14.9553C19.0408 14.9753 19.0212 15.0245 19.0217 15.1314C19.0249 16.2373 19.0253 17.3427 19.0231 18.4485C19.0212 19.2158 18.5294 19.8224 17.7799 19.9799C17.6565 20.0058 17.5267 20.0058 17.3997 20.0058C14.7686 20.0067 12.1371 20.0063 9.50561 20.0063ZM9.50925 19.4065C12.1499 19.4065 14.7905 19.4074 17.4311 19.406C18.0349 19.4056 18.4224 19.0156 18.4229 18.4149C18.4238 17.3227 18.4211 16.2309 18.4256 15.1387C18.4261 15.0067 18.3869 14.9699 18.2558 14.9708C17.2676 14.9758 16.28 14.974 15.2918 14.9735C14.6411 14.9731 14.2737 14.6081 14.2732 13.9614C14.2728 13.165 14.2873 12.3686 14.2687 11.5727C14.2545 10.9797 14.6871 10.5451 15.2796 10.5574C16.2763 10.5774 17.2736 10.561 18.2708 10.5656C18.3919 10.566 18.4256 10.5287 18.4252 10.4099C18.4211 9.30406 18.4243 8.19866 18.4224 7.0928C18.4215 6.52895 18.0217 6.12756 17.4584 6.12756C12.159 6.12665 6.85952 6.12665 1.56006 6.12756C1.00134 6.12756 0.6029 6.52258 0.6029 7.08233C0.601078 10.8727 0.601078 14.6627 0.605632 18.4531C0.605632 18.5942 0.635686 18.7475 0.696248 18.874C0.874293 19.2486 1.18758 19.4092 1.6015 19.4088C4.23711 19.4051 6.87318 19.4065 9.50925 19.4065ZM4.02856 5.49454C4.03266 5.50273 4.0363 5.51092 4.0404 5.51912C7.92096 5.51912 11.802 5.51912 15.6998 5.51912C15.6794 5.46997 15.6666 5.43219 15.6488 5.39761C14.8538 3.87353 14.0569 2.35081 13.2641 0.82537C13.2104 0.722066 13.1644 0.71706 13.0665 0.768029C10.0876 2.32533 7.10724 3.87944 4.12692 5.43447C4.09322 5.45222 4.06135 5.47452 4.02856 5.49454ZM17.0869 14.3732C17.697 14.3732 18.3072 14.3737 18.9174 14.3732C19.1965 14.3728 19.3095 14.2622 19.3099 13.9878C19.3104 13.1732 19.3104 12.3586 19.3099 11.5444C19.3099 11.2746 19.1993 11.1617 18.9292 11.1617C17.7043 11.1603 16.4799 11.1603 15.255 11.1617C14.9863 11.1622 14.8743 11.2769 14.8738 11.5463C14.8729 12.3609 14.8729 13.1755 14.8738 13.9896C14.8743 14.2567 14.9909 14.3723 15.2568 14.3728C15.8665 14.3742 16.4767 14.3732 17.0869 14.3732ZM15.8483 4.47743C15.9621 4.69587 16.0673 4.90066 16.1752 5.10408C16.2472 5.2406 16.2914 5.4281 16.4052 5.49591C16.5245 5.5669 16.7126 5.52549 16.8706 5.52685C17.1725 5.52958 17.1989 5.49318 17.1292 5.19009C17.1274 5.18144 17.1247 5.17234 17.1224 5.16369C16.984 4.63489 16.4771 4.35319 15.8483 4.47743Z" fill="#BABABA"/>
<path d="M8.34203 8.17847C10.8351 8.17847 12.8537 10.1936 12.8528 12.6815C12.8519 15.1727 10.8351 17.1914 8.34749 17.1919C5.85942 17.1923 3.8349 15.1718 3.83398 12.6865C3.83353 10.1986 5.85395 8.17847 8.34203 8.17847ZM8.35615 8.77918C6.19866 8.7769 4.43961 10.5194 4.43551 12.6624C4.43141 14.8304 6.1809 16.5907 8.34021 16.5921C10.4982 16.5934 12.2522 14.8414 12.2522 12.6852C12.2522 10.5308 10.5073 8.78145 8.35615 8.77918Z" fill="#BABABA"/>
</svg>
