<svg width="216" height="64" viewBox="0 0 216 64" fill="none" xmlns="http://www.w3.org/2000/svg">
<path d="M39.2227 44.9473C39.1913 44.6649 39.1285 44.3824 39.0658 44.1313C38.8147 43.2524 38.5949 42.3735 38.3125 41.4947C38.03 40.6158 37.7161 39.7683 37.308 38.9522C36.8686 38.0106 35.7386 37.2573 34.5145 37.5084C33.5415 37.6967 32.851 38.3245 32.5057 39.2661C32.4115 39.5172 32.3487 39.7683 32.2546 40.0194C31.5327 41.9027 30.6538 43.6918 29.5866 45.3868C28.3311 47.3642 26.8872 49.2161 25.2551 50.8797C23.309 52.9199 21.1433 54.6776 18.7892 56.247C18.0358 56.7492 17.2198 57.22 16.4351 57.6908C16.2153 57.8164 16.027 57.9419 15.8387 58.0989C15.0854 58.7266 15.2737 59.8252 15.9642 60.2019C16.0898 60.2647 16.184 60.3274 16.3095 60.3902C16.7176 60.6099 17.1256 60.8296 17.5336 61.0494C18.7578 61.6771 19.9819 62.2421 21.2688 62.6815C22.0221 62.9326 22.7754 63.2151 23.5915 63.3093C24.0937 63.529 24.6273 63.4976 25.1295 63.6232C25.7259 63.7487 26.3537 63.7487 26.95 63.8429C27.3581 63.8743 27.7661 63.937 28.1742 63.9998C28.8647 63.9998 29.5238 63.9998 30.2144 63.9998C30.591 63.937 30.9677 63.9057 31.3129 63.8429C31.5954 63.7801 31.9093 63.7173 32.1918 63.6859C33.0079 63.5918 33.7612 63.3721 34.5145 63.0582C36.0839 62.399 37.308 61.3318 37.9672 59.6997C38.2183 59.0719 38.438 58.4442 38.6577 57.8164C39.003 56.812 39.2227 55.8076 39.3169 54.7404C39.411 53.9871 39.5366 53.2651 39.5366 52.5118C39.5366 52.2293 39.568 51.9469 39.568 51.6644C39.568 50.911 39.5994 50.1264 39.5994 49.373C39.5994 48.7139 39.5052 48.0548 39.5052 47.3956C39.5366 46.5481 39.3483 45.7634 39.2227 44.9473Z" fill="#9A3995"/>
<path d="M213.112 22.5678C213.551 22.4736 214.022 22.4736 214.462 22.5364C214.775 22.5678 215.089 22.5992 215.403 22.5992C215.403 21.3751 215.403 20.1195 215.403 18.8954C214.995 18.864 214.587 18.864 214.179 18.8326C213.049 18.7385 211.951 18.7699 210.821 19.021C208.686 19.5232 207.18 21.2181 206.96 23.3839C206.897 23.9803 206.928 24.5766 206.897 25.173C206.897 25.3299 206.928 25.4869 206.74 25.6124C206.458 25.6124 206.144 25.6124 205.83 25.6124C205.516 25.6124 205.233 25.6124 204.92 25.6124C204.606 25.6124 204.292 25.581 203.947 25.6438C203.884 26.0205 203.915 26.3657 203.915 26.711C203.915 27.0563 203.915 27.4329 203.915 27.7782C203.915 28.1235 203.884 28.4687 203.947 28.8454C204.166 28.8454 204.355 28.8768 204.543 28.8768C205.202 28.8768 205.861 28.8768 206.52 28.8768C206.615 28.8768 206.74 28.9082 206.866 28.9396C206.866 29.1593 206.866 29.379 206.866 29.5673C206.866 31.7331 206.866 33.9302 206.866 36.096C206.866 38.3559 206.866 40.5845 206.866 42.8444C206.866 43.0641 206.834 43.2525 206.928 43.4408C207.368 43.5036 210.224 43.5349 211.48 43.4722C211.574 43.4722 211.668 43.4408 211.794 43.4408C211.794 43.1897 211.825 42.97 211.825 42.7502C211.825 38.4187 211.825 34.0558 211.825 29.7243C211.825 29.5673 211.825 29.379 211.825 29.222C211.825 29.1279 211.856 29.0023 211.888 28.8768C212.453 28.8768 212.986 28.8768 213.52 28.8768C214.053 28.8768 214.587 28.9082 215.152 28.8454C215.152 28.7512 215.183 28.6884 215.183 28.6257C215.183 27.684 215.183 26.7424 215.183 25.8008C215.183 25.738 215.152 25.7066 215.121 25.6124C214.932 25.6124 214.775 25.6124 214.587 25.6124C213.802 25.6124 213.018 25.6124 212.233 25.6124C212.107 25.6124 211.982 25.5811 211.856 25.5811C211.794 24.9219 211.794 24.3255 211.919 23.6978C212.076 23.0386 212.453 22.662 213.112 22.5678Z" fill="#9A3995"/>
<path d="M187.154 34.558C187.248 31.7959 186.244 29.6301 185.365 28.406C184.235 26.868 182.76 25.8636 180.908 25.3928C179.527 25.0475 178.114 25.0161 176.733 25.2986C174.473 25.7066 172.621 26.868 171.24 28.6885C170.205 30.0696 169.671 31.639 169.483 33.3025C169.326 34.8719 169.42 36.4413 169.922 37.9793C170.895 40.9612 172.872 42.8758 175.917 43.6605C176.953 43.943 178.02 43.9744 179.087 43.943C179.903 43.943 180.719 43.8175 181.536 43.5664C183.042 43.1269 184.36 42.405 185.365 41.1495C186.055 40.2706 186.558 39.2976 186.903 38.2304C186.934 38.1676 186.934 38.0735 186.934 38.0107C186.526 37.9165 183.262 37.9165 182.666 37.9793C182.634 38.0107 182.603 38.0421 182.603 38.0735C182.038 39.1721 181.127 39.8312 179.935 40.1137C178.962 40.3334 177.989 40.302 177.047 40.0195C175.917 39.6743 175.164 38.9523 174.787 37.8538C174.567 37.2888 174.473 36.6924 174.442 36.096C174.442 36.0019 174.473 35.8763 174.473 35.7822C174.975 35.7194 186.526 35.688 187.248 35.7822C187.154 35.4055 187.154 34.9661 187.154 34.558ZM182.226 32.5492C181.787 32.6434 178.585 32.6434 174.819 32.612C174.662 32.612 174.536 32.5806 174.348 32.5806C174.41 31.7017 174.63 30.9484 175.164 30.2893C175.854 29.4104 176.765 28.9396 177.863 28.8768C178.46 28.8454 179.056 28.8454 179.652 29.0024C180.343 29.1907 180.908 29.536 181.316 30.1323C181.787 30.8229 182.069 31.5762 182.226 32.3923C182.257 32.455 182.226 32.4864 182.226 32.5492Z" fill="#9A3995"/>
<path d="M15.6817 13.8735C16.3409 15.3173 17.0628 16.7298 17.7847 18.1422C18.7891 20.0883 19.9191 22.0029 21.2374 23.7607C22.1476 25.0162 23.152 26.2089 24.3448 27.2133C25.0039 27.7783 25.6945 28.2805 26.5105 28.6258C26.8872 28.7827 27.2639 28.8769 27.6405 28.8455C28.4252 28.7827 29.1471 28.5316 29.7121 27.9353C30.5596 27.0878 30.9362 26.0834 30.7479 24.8592C30.6538 24.3256 30.591 23.7921 30.6224 23.2271C30.6224 22.411 30.6224 21.5635 30.6224 20.7474C30.6224 19.8372 30.7793 18.9583 30.8421 18.0795C30.8735 17.4831 31.0304 16.8867 31.156 16.3217C31.3129 15.5998 31.4071 14.8465 31.6268 14.1246C32.0348 12.6179 32.537 11.1427 33.1648 9.69887C34.1064 7.47033 35.2992 5.33595 36.6489 3.32712C36.8686 3.01324 37.0883 2.73075 37.2766 2.38548C37.8416 1.47523 37.1197 0.533594 36.4605 0.376654C35.9897 0.28249 35.5503 0.15694 35.0795 0.15694C34.9225 0.15694 34.7342 0.156943 34.5772 0.125555C33.9181 0.0313908 33.2276 0 32.5684 0C31.7523 0 30.9676 0 30.1515 0C29.8377 0 29.5238 0.031387 29.2099 0.0627749C28.3938 0.156939 27.5777 0.156939 26.7617 0.376654C26.4478 0.470818 26.1025 0.470818 25.7572 0.533594C25.0353 0.690534 24.282 0.816085 23.5601 1.00441C22.9637 1.16135 22.3673 1.34968 21.8024 1.50662C20.9549 1.75773 20.1074 2.0716 19.2913 2.44826C18.1927 2.95047 17.1883 3.54684 16.1525 4.1746C15.4306 4.58264 14.8656 5.17901 14.4262 5.90093C13.9868 6.65424 13.767 7.47033 13.7357 8.25503C13.767 8.88279 13.8612 9.38499 14.0495 9.8872C14.5517 11.2369 15.0853 12.5866 15.6817 13.8735Z" fill="#9A3995"/>
<path d="M18.6322 52.0412C20.076 51.131 21.4571 50.1266 22.744 49.028C24.8156 47.2703 26.6361 45.2615 28.2055 43.0015C29.0844 41.7146 29.8691 40.3649 30.5282 38.9839C30.8735 38.2619 30.7793 37.6028 30.3085 36.975C30.1202 36.7553 29.9005 36.5356 29.6494 36.3787C29.053 35.9392 28.3939 35.8451 27.7033 36.1589C26.7931 36.567 25.82 36.9123 24.847 37.1948C23.874 37.4772 22.901 37.7597 21.9279 37.9167C21.4885 37.9794 21.0491 38.0736 20.6096 38.1364C20.2958 38.1992 19.9505 38.2306 19.6052 38.2619C19.5111 38.2619 19.3855 38.2619 19.26 38.2933C18.6636 38.4189 18.0358 38.4817 17.4081 38.4503C17.2511 38.4503 17.0942 38.4503 16.9686 38.4503C15.4306 38.513 13.8926 38.513 12.386 38.3561C11.6641 38.2933 10.9735 38.1992 10.283 38.105C9.65525 38.0108 9.02749 37.9167 8.39973 37.7911C7.61503 37.6342 6.86172 37.4458 6.10841 37.2575C5.29233 37.0378 4.44485 36.7867 3.62876 36.5356C3.12656 36.3787 2.62435 36.2217 2.15353 36.0648C1.90243 35.9706 1.65132 36.002 1.40022 36.0648C0.866626 36.2217 0.489969 36.5356 0.238866 36.975C0.050538 37.3203 -0.0750132 37.7283 0.0505385 38.1678C0.17609 38.5444 0.238867 38.9525 0.33303 39.3605C0.48997 40.208 0.741073 41.0241 0.992177 41.8402C1.463 43.284 2.02798 44.7279 2.68713 46.1089C3.66015 48.0864 4.79012 49.9382 6.1398 51.696C6.61062 52.2923 7.05005 52.8887 7.52087 53.4537C7.92891 53.9559 8.36834 54.4581 8.87055 54.8975C9.49831 55.4311 10.2202 55.6509 11.0677 55.7136C11.6955 55.6509 12.2918 55.4939 12.8882 55.2742C14.1437 54.8034 15.3051 54.1756 16.435 53.5165C17.157 52.9829 17.9103 52.5121 18.6322 52.0412Z" fill="#9A3995"/>
<path d="M3.18931 32.1726C4.0054 32.8632 4.91565 33.334 5.95145 33.6165C6.51643 33.7734 7.1128 33.899 7.70917 33.9931C8.24277 34.0873 8.77636 34.1814 9.30996 34.2756C9.84355 34.3698 10.3771 34.4639 10.9107 34.5267C11.6013 34.6209 12.2918 34.6523 12.951 34.7778C13.8298 34.9348 14.7087 34.9348 15.5562 35.0603C16.1211 35.1545 16.6861 35.1231 17.2197 35.1545C18.0986 35.2172 18.9774 35.2486 19.668 35.3114C20.3585 35.28 20.8293 35.28 21.3315 35.2486C21.8651 35.2172 22.3673 35.1859 22.9009 35.1231C23.1207 35.1231 23.3404 35.0917 23.5601 35.0603C24.282 34.9661 25.0039 34.872 25.7259 34.6837C26.1339 34.5895 26.5419 34.4953 26.8872 34.307C27.923 33.7734 28.2683 32.5179 27.358 31.5762C27.2011 31.4193 26.9814 31.2624 26.7617 31.1682C24.282 30.0068 22.0535 28.5002 19.9819 26.7111C18.2555 25.2045 16.7489 23.5723 15.3678 21.7518C13.4218 19.178 11.821 16.4159 10.5655 13.4654C10.3458 12.9004 10.0947 12.3668 9.87494 11.8018C9.718 11.3938 9.43551 11.1113 9.05885 10.923C8.71359 10.7347 8.33693 10.6719 7.92889 10.766C7.52085 10.8916 7.20697 11.1427 6.92448 11.4566C5.57479 12.8063 4.47621 14.3443 3.56596 16.0078C2.74988 17.5144 2.05934 19.0838 1.52575 20.716C1.27464 21.4693 1.08632 22.2226 0.866601 22.9759C0.678274 23.6037 0.521334 24.2315 0.42717 24.8906C0.395782 25.1103 0.364395 25.33 0.333007 25.5498C0.333007 25.7695 0.333007 25.9892 0.333007 26.2403C0.301619 27.1192 0.521335 27.998 0.803827 28.8141C1.30603 30.1952 2.12212 31.2624 3.18931 32.1726Z" fill="#9A3995"/>
<path d="M168.196 39.1092C168.133 38.199 168.102 37.2888 167.976 36.3785C167.85 35.5938 167.662 34.8405 167.285 34.15C166.752 33.1455 165.999 32.3922 164.931 32.0156C164.837 31.9842 164.743 31.9214 164.617 31.89C164.743 31.7017 164.931 31.6703 165.088 31.6075C166.752 30.7914 167.756 29.5045 168.196 27.7154C168.384 26.9935 168.447 26.2402 168.415 25.4869C168.321 22.8189 167.097 20.8415 164.743 19.6173C163.644 19.0524 162.452 18.8326 161.228 18.8326C156.99 18.8326 152.721 18.8326 148.484 18.8326C148.39 18.8326 148.296 18.8326 148.202 18.8326C148.107 18.8326 147.982 18.864 147.856 18.8954C147.856 27.0563 147.856 35.1858 147.856 43.3152C147.856 43.378 147.888 43.4722 147.888 43.5663C148.484 43.5663 149.08 43.5663 149.677 43.5663C150.273 43.5663 150.87 43.5663 151.466 43.5663C152.062 43.5663 152.659 43.6291 153.286 43.5349C153.286 43.3152 153.318 43.0955 153.318 42.9072C153.318 40.1451 153.318 37.4143 153.318 34.6522C153.318 34.4324 153.286 34.2127 153.381 33.9616C153.538 33.9616 153.694 33.9302 153.883 33.9302C155.421 33.9302 156.959 33.9302 158.497 33.9302C158.936 33.9302 159.407 33.9616 159.846 34.0244C161.039 34.1813 161.95 34.7777 162.389 35.9705C162.514 36.2843 162.64 36.6296 162.703 36.9749C162.828 37.791 162.954 38.607 163.048 39.4231C163.142 40.2392 163.174 41.0553 163.299 41.8714C163.362 42.4364 163.488 43.0014 163.739 43.5663C163.833 43.5977 163.864 43.5977 163.927 43.5977C165.59 43.5977 167.254 43.5977 168.918 43.5977C168.98 43.5977 169.075 43.5977 169.106 43.4722C168.761 42.9386 168.572 42.3108 168.478 41.6517C168.321 40.7414 168.258 39.9253 168.196 39.1092ZM162.797 27.7782C162.546 28.7198 161.981 29.379 161.071 29.6615C160.725 29.787 160.38 29.8498 160.035 29.8812C159.564 29.944 159.062 29.944 158.56 29.944C157.022 29.944 155.484 29.944 153.946 29.944C153.757 29.944 153.538 29.9754 153.349 29.8812C153.286 29.4732 153.255 23.7292 153.318 23.0386C153.412 23.0072 153.506 22.9758 153.632 22.9758C155.609 22.9758 157.587 22.9758 159.595 22.9758C160.003 22.9758 160.411 23.07 160.82 23.1642C161.981 23.4781 162.64 24.2 162.86 25.3613C163.017 26.2088 163.017 26.9935 162.797 27.7782Z" fill="#9A3995"/>
<path d="M138.942 42.0283C138.848 41.2122 138.785 40.3962 138.754 39.5487C138.722 36.5354 138.754 33.5222 138.754 30.5089C138.754 30.1637 138.754 29.8184 138.722 29.5045C138.628 28.6571 138.346 27.9038 137.781 27.276C137.216 26.6168 136.525 26.1774 135.709 25.8635C134.768 25.4555 133.763 25.2986 132.759 25.2044C131.346 25.0788 129.934 25.0788 128.49 25.2985C127.423 25.4555 126.356 25.7694 125.414 26.303C124.41 26.868 123.625 27.6213 123.091 28.5943C123.029 28.6884 123.029 28.814 122.84 28.8768C122.84 28.4687 122.84 28.0921 122.84 27.7154C122.84 27.3074 122.84 26.9307 122.84 26.5227C122.84 26.1146 122.84 25.738 122.84 25.3299C122.401 25.1102 121.961 25.1102 121.49 25.1102C120.361 25.173 119.325 25.5183 118.383 26.1146C117.473 26.6796 116.782 27.4643 116.28 28.406C116.217 28.5001 116.217 28.6571 115.998 28.6571C115.998 28.4687 115.998 28.2804 115.998 28.0921C115.998 27.4015 115.998 26.711 115.998 26.0205C115.998 25.8949 115.966 25.7694 115.966 25.6438C115.872 25.6438 115.809 25.6124 115.715 25.6124C114.303 25.6124 112.859 25.6124 111.446 25.6124C111.446 25.6124 111.415 25.6124 111.384 25.6438C111.352 25.6438 111.352 25.6752 111.321 25.7066C111.321 25.8949 111.321 26.1146 111.321 26.3344C111.321 31.7959 111.321 37.2887 111.321 42.7502C111.321 42.8758 111.321 43.0014 111.321 43.1583C111.321 43.2525 111.352 43.378 111.352 43.4722C111.446 43.4722 111.541 43.5036 111.603 43.5036C113.11 43.5036 114.585 43.5036 116.092 43.4722C116.123 43.4722 116.123 43.4722 116.155 43.4722C116.186 43.4722 116.186 43.4408 116.217 43.378C116.217 43.2211 116.217 43.0014 116.217 42.813C116.217 40.5217 116.217 38.199 116.217 35.9077C116.217 35.4996 116.217 35.123 116.249 34.7149C116.28 33.993 116.406 33.2711 116.657 32.5806C117.19 31.1053 118.195 30.1637 119.733 29.8498C120.643 29.6615 121.553 29.6929 122.464 29.8498C122.495 29.8498 122.558 29.9126 122.589 29.944C122.558 30.1323 122.526 30.3206 122.526 30.5089C122.526 30.6973 122.432 30.917 122.495 31.1367C124.127 31.1367 125.728 31.1367 127.36 31.1367C127.391 30.9484 127.423 30.7914 127.454 30.6345C127.705 29.4731 128.364 28.814 129.526 28.5629C130.373 28.3746 131.252 28.406 132.1 28.5943C133.198 28.8454 133.638 29.5359 133.732 30.2892C133.763 30.5717 133.763 30.8542 133.763 31.1367C133.763 31.5134 133.575 31.8272 133.292 32.047C133.104 32.2039 132.884 32.3294 132.665 32.3922C132.288 32.5178 131.88 32.6433 131.472 32.7061C130.656 32.8317 129.84 32.9572 129.024 33.02C127.956 33.1455 126.921 33.3339 125.885 33.585C125.163 33.7733 124.504 34.0244 123.876 34.4638C122.934 35.0916 122.307 35.9704 122.055 37.069C121.867 37.8851 121.836 38.7012 121.93 39.5173C122.15 41.2122 122.997 42.4364 124.504 43.2211C125.288 43.6291 126.136 43.8174 126.983 43.9116C128.145 44.0058 129.306 43.943 130.436 43.6919C131.66 43.4094 132.759 42.9386 133.669 42.0911C133.732 42.0283 133.795 41.9655 133.92 41.8714C134.108 42.4364 134.077 42.97 134.328 43.5036C134.862 43.5036 135.395 43.5036 135.96 43.5036C136.525 43.5036 137.059 43.5036 137.593 43.5036C138.126 43.5036 138.66 43.5349 139.225 43.4722C139.193 43.3466 139.162 43.2524 139.131 43.1897C139.099 42.813 138.974 42.4364 138.942 42.0283ZM133.795 37.1946C133.795 37.6968 133.669 38.1676 133.481 38.607C133.01 39.7056 132.194 40.3648 131.032 40.5845C130.248 40.7414 129.463 40.7414 128.678 40.5845C128.584 40.5531 128.49 40.5531 128.396 40.5217C127.297 40.2078 126.795 39.4231 126.858 38.2932C126.889 37.3515 127.36 36.661 128.208 36.2843C128.835 36.0018 129.494 35.8763 130.154 35.7507C130.719 35.6566 131.252 35.5938 131.817 35.4996C132.476 35.4055 133.135 35.2171 133.732 34.8719C133.763 34.966 133.795 34.9974 133.795 35.0288C133.795 35.7507 133.795 36.4727 133.795 37.1946Z" fill="#464646"/>
<path d="M85.8652 33.9933C85.8025 34.3072 85.7397 34.5896 85.6769 34.8721C85.4258 35.9393 85.0178 36.9124 84.3272 37.7284C83.7309 38.4504 83.0089 38.9526 82.1301 39.2037C81.2826 39.4548 80.4037 39.4862 79.5249 39.4234C77.5474 39.2665 76.0408 38.3562 74.9736 36.724C74.5342 36.0335 74.2203 35.3116 74.0006 34.5269C73.4042 32.3297 73.4356 30.1639 73.9692 27.9668C74.2203 26.9624 74.597 26.0207 75.2247 25.1733C76.0408 24.0747 77.108 23.29 78.4577 22.9761C79.0854 22.8192 79.7132 22.7564 80.341 22.7564C81.3768 22.7564 82.3498 23.0389 83.2287 23.5725C84.4842 24.3572 85.3316 25.393 85.6455 26.8682C85.6455 26.931 85.7083 26.9624 85.7083 26.9938C86.1477 27.0566 89.4435 27.0879 90.6676 27.0565C90.7618 27.0565 90.8559 27.0252 90.9815 26.9938C90.9187 26.6171 90.8873 26.2405 90.7931 25.8638C90.2909 23.6353 89.1924 21.8148 87.3719 20.4023C85.5828 18.9899 83.5111 18.3307 81.2512 18.1738C80.0585 18.0796 78.8657 18.1424 77.673 18.3935C75.3503 18.8643 73.3415 19.9001 71.6779 21.595C70.1713 23.1644 69.1982 25.0163 68.6646 27.0879C68.2252 28.7829 68.0683 30.4778 68.1938 32.2042C68.288 33.648 68.5391 35.0605 69.0727 36.4102C70.8304 40.9614 74.1889 43.4724 79.0541 43.9746C80.0899 44.0688 81.1571 44.0688 82.1929 43.9119C83.6053 43.7235 84.9236 43.3155 86.1477 42.5936C89.3179 40.6789 90.8245 37.7598 91.2012 34.1502C91.2012 34.0874 91.1698 34.0247 91.1698 33.9619C90.542 33.9305 86.4302 33.9305 85.8652 33.9933Z" fill="#464646"/>
<path d="M51.4326 38.2306C49.769 36.8809 47.9799 35.7196 46.0967 34.7152C45.0295 34.1502 43.8995 33.648 42.7695 33.2085C42.2359 33.0202 41.7024 32.8633 41.1688 32.7063C41.0118 32.6435 40.8235 32.6436 40.6665 32.6436C40.0702 32.7377 39.5052 32.926 39.0344 33.3341C38.2497 34.056 37.7475 35.4371 38.438 36.5984C38.5008 36.6926 38.5636 36.8181 38.6263 36.9437C39.2855 38.1051 39.8505 39.2978 40.3527 40.5219C40.8235 41.7147 41.2315 42.9074 41.5768 44.1315C41.7965 44.9162 41.9535 45.7323 42.1418 46.517C42.2359 46.9564 42.2987 47.3959 42.3615 47.8353C42.4871 48.7142 42.6126 49.6244 42.644 50.5033C42.644 50.5347 42.644 50.5347 42.644 50.5661C42.6754 50.9113 42.7068 51.288 42.7382 51.6333C42.7382 52.826 42.7382 54.0187 42.7382 55.2429C42.7382 55.6823 42.6754 56.0903 42.644 56.5298C42.6126 56.7809 42.5812 57.0634 42.6126 57.3145C42.6126 57.8167 43.0834 58.2247 43.5856 58.2247C43.8367 58.2247 44.0564 58.0992 44.2448 57.9422C45.5945 56.8436 46.7872 55.6195 47.8858 54.3012C49.1099 52.826 50.1771 51.2252 51.056 49.5303C51.6837 48.3375 52.2487 47.1134 52.7195 45.8579C53.0962 44.8221 53.4414 43.7863 53.567 42.6877C53.6298 42.2483 53.6925 41.8088 53.7553 41.3694C53.7867 40.6789 53.5356 40.1139 53.0334 39.6745C52.4684 39.1722 51.9662 38.67 51.4326 38.2306Z" fill="#9A3995"/>
<path d="M104.29 25.6126C103.191 25.2359 102.061 25.1104 100.837 25.079C100.052 25.1104 99.205 25.1418 98.3575 25.3615C95.4071 26.1148 93.3041 27.8411 92.2683 30.7288C91.4208 33.1143 91.3894 35.5312 92.1427 37.948C93.0844 40.8985 95.0932 42.8132 98.1064 43.5979C99.8642 44.0687 101.685 44.0687 103.442 43.6606C106.487 42.9701 108.59 41.1496 109.594 38.1677C110.442 35.7195 110.411 33.2084 109.563 30.7916C108.684 28.2178 106.895 26.5228 104.29 25.6126ZM104.918 37.1947C104.761 37.6969 104.572 38.1678 104.258 38.6072C103.568 39.6116 102.595 40.1766 101.402 40.2393C100.869 40.2707 100.304 40.2707 99.77 40.1452C98.8911 39.9255 98.2006 39.4547 97.667 38.7327C97.259 38.1677 97.0079 37.5714 96.8509 36.9122C96.4743 35.2801 96.4743 33.6479 96.9137 32.0157C97.1648 31.0113 97.6984 30.1638 98.5459 29.5361C99.1108 29.128 99.7386 28.9083 100.429 28.8769C100.931 28.8455 101.434 28.8455 101.936 28.9397C103.034 29.1908 103.819 29.8186 104.384 30.7602C104.761 31.388 104.98 32.0785 105.075 32.8318C105.169 33.4282 105.2 34.0245 105.263 34.6209C105.263 35.4684 105.137 36.3473 104.918 37.1947Z" fill="#464646"/>
<path d="M54.0064 33.8048C53.8495 33.1143 53.8495 32.4237 53.7239 31.7646C53.5356 30.9171 53.4414 30.0383 53.2531 29.1908C53.0334 28.3119 52.7823 27.4331 52.5312 26.5542C52.2801 25.7695 51.9662 25.0162 51.5895 24.2629C51.2129 23.5409 50.8048 22.8504 50.1771 22.3168C49.4238 21.6263 48.5449 21.2496 47.5091 21.4066C47.1638 21.4693 46.8186 21.5321 46.4733 21.6263C45.563 21.8774 44.6842 22.254 43.8367 22.6621C42.7695 23.1643 41.7651 23.7607 40.7607 24.3884C40.2271 24.7337 39.6935 25.079 39.1599 25.4242C38.5949 25.8009 38.281 26.3031 38.1241 26.9622C38.0299 27.4017 38.0927 27.8411 38.1869 28.2491C38.5007 29.5047 39.3796 30.1952 40.4782 30.3207C40.8862 30.3835 41.3257 30.4777 41.7337 30.5719C42.1418 30.666 42.5184 30.7916 42.9265 30.8857C43.9309 31.1054 44.9039 31.4193 45.8769 31.7646C46.693 32.0471 47.5091 32.4237 48.2938 32.769C50.3026 33.6793 52.1545 34.8092 53.9122 36.1589C53.975 36.1903 54.0378 36.2217 54.1947 36.2845C54.1633 35.6253 54.1319 35.0289 54.1006 34.464C54.0378 34.2442 54.0378 34.0245 54.0064 33.8048Z" fill="#9A3995"/>
<path d="M145.502 18.8013C145.408 18.8013 145.377 18.7699 145.314 18.7699C143.839 18.7699 142.395 18.7699 140.92 18.7699C140.825 18.7699 140.763 18.8013 140.637 18.8327C140.637 19.0838 140.637 19.3035 140.637 19.5232C140.637 27.276 140.637 35.0289 140.637 42.7817C140.637 42.9072 140.637 43.0328 140.637 43.1897C140.637 43.2839 140.668 43.4094 140.7 43.5036C142.332 43.5036 143.901 43.5036 145.565 43.5036C145.565 43.1897 145.565 42.97 145.565 42.7189C145.565 35.0288 145.565 27.3388 145.565 19.6488C145.565 19.4918 145.565 19.3035 145.565 19.1466C145.534 18.9896 145.502 18.8955 145.502 18.8013Z" fill="#464646"/>
<path d="M36.3977 21.8774C36.1466 22.1285 36.0211 22.411 35.9897 22.7877C35.8955 23.5096 36.7116 24.3571 37.4335 24.3571C37.873 24.3571 38.2182 24.2001 38.5635 23.9177C39.0029 23.541 39.4424 23.1643 39.9132 22.8191C41.2001 21.8147 42.5184 20.873 43.9936 20.1511C44.9353 19.6803 45.9083 19.2408 46.9755 19.0211C47.1952 18.9897 47.4149 18.927 47.6346 18.8956C47.8229 18.8642 47.9799 18.7073 48.0113 18.5189C48.074 18.3306 47.9171 18.205 47.7602 18.1109C47.666 18.0481 47.6032 18.0167 47.5091 17.9539C46.6616 17.5459 45.7827 17.3576 44.7783 17.2948C44.5272 17.3262 44.2133 17.389 43.8994 17.4203C42.7067 17.5773 41.6395 18.0167 40.6037 18.5817C39.4424 19.2095 38.4066 19.9942 37.4335 20.873C37.0569 21.1555 36.7116 21.5322 36.3977 21.8774Z" fill="#9A3995"/>
<path d="M62.3242 10.2326C62.2301 10.2326 62.1673 10.2012 62.0731 10.2326C62.0104 10.2326 61.9476 10.264 61.8534 10.264C61.8534 10.3895 61.822 10.4523 61.822 10.5151C61.822 24.4199 61.822 38.3248 61.822 52.1982C61.822 52.1982 61.822 52.2296 61.8534 52.261C61.8534 52.261 61.8848 52.2924 61.9162 52.3238C62.0417 52.3238 62.1673 52.3238 62.3556 52.3238C62.3556 52.0413 62.3556 51.8216 62.3556 51.5705C62.3556 38.0423 62.3556 24.5141 62.3556 10.9859C62.3556 10.8289 62.3556 10.672 62.3556 10.5465C62.387 10.4209 62.3556 10.3267 62.3242 10.2326Z" fill="#464646"/>
<path d="M204.951 33.02C204.731 31.5134 204.26 30.0696 203.413 28.7827C202.252 26.9935 200.619 25.8322 198.548 25.33C198.046 25.2044 197.543 25.1731 197.041 25.1103C196.79 25.0789 196.57 25.0789 196.319 25.0789C193.683 24.9533 191.423 25.9577 189.791 27.7155C188.221 29.4104 187.28 31.7959 187.154 34.5267C187.123 34.9347 187.154 35.3741 187.185 35.7822H187.217C187.248 35.9077 187.28 36.0647 187.311 36.1902C187.374 36.7552 187.499 37.3516 187.688 37.8852C187.939 38.7012 188.284 39.4232 188.692 40.0823C189.414 41.1495 190.324 42.0598 191.423 42.7189C192.867 43.5978 194.562 44.0372 196.351 43.943C196.57 43.943 196.79 43.943 196.978 43.943C197.889 43.9117 198.799 43.7547 199.678 43.4722C200.965 43.0642 202.095 42.3736 202.974 41.3378C203.758 40.3962 204.292 39.329 204.669 38.199C204.7 38.1363 204.669 38.1049 204.7 38.0421C204.292 37.9479 201.153 37.9479 200.431 38.0107C200.4 38.0421 200.368 38.0735 200.368 38.1049C199.803 39.2348 198.893 39.8626 197.7 40.1451C197.261 40.2393 196.79 40.302 196.351 40.302C195.849 40.302 195.346 40.2079 194.844 40.0509C193.683 39.7057 192.961 38.9524 192.553 37.8538C192.364 37.2888 192.27 36.6924 192.208 36.0961C192.208 36.0019 192.208 35.9077 192.239 35.8136C192.49 35.7508 192.71 35.7508 192.929 35.7508C194.091 35.7508 195.221 35.7508 196.382 35.7508C199.019 35.7508 201.687 35.7508 204.355 35.7508C204.512 35.7508 204.669 35.7508 204.794 35.7508C204.888 35.7508 205.014 35.7194 205.108 35.688C205.108 35.5311 205.139 35.4055 205.139 35.28C205.077 34.4953 205.077 33.7733 204.951 33.02ZM196.319 32.6434C194.938 32.6434 193.463 32.6434 192.521 32.612C192.427 32.612 192.302 32.5806 192.176 32.5806C192.27 31.482 192.616 30.5404 193.463 29.7871C194.122 29.2221 194.875 28.9082 195.754 28.8768C195.943 28.8768 196.131 28.8768 196.351 28.8768C196.727 28.8768 197.104 28.9082 197.481 29.0024C198.171 29.1907 198.736 29.5674 199.144 30.1637C199.646 30.8857 199.929 31.6704 200.086 32.5806C199.741 32.5806 198.108 32.612 196.319 32.6434Z" fill="#9B3A95"/>
</svg>
