<svg width="328" height="347" viewBox="0 0 328 347" fill="none" xmlns="http://www.w3.org/2000/svg">
<mask id="mask0" mask-type="alpha" maskUnits="userSpaceOnUse" x="0" y="0" width="328" height="347">
<rect width="328" height="347" rx="16" fill="white"/>
</mask>
<g mask="url(#mask0)">
<path d="M244.232 329.591C249.771 337.32 255.265 345.072 260.325 353.313C259.473 351.035 258.657 348.737 257.877 346.418C254.668 338.254 251.183 330.131 246.775 322.95C243.263 317.216 239.394 311.903 235.91 306.163C235.876 306.134 235.849 306.079 235.821 306.023C234.457 303.77 233.14 301.443 231.943 299C228.145 291.263 225.267 282.97 222.242 274.737C221.687 273.219 221.082 271.491 220.119 270.308C219.965 270.121 219.402 269.537 218.868 269.218C219.058 269.644 219.207 270.129 219.317 270.413C219.99 272.138 220.61 273.9 221.194 275.683C222.489 279.641 223.677 283.674 225.036 287.604C227.211 293.907 230.235 299.894 233.459 305.387C237.204 311.772 241.822 317.215 245.862 323.293C246.025 323.539 245.823 324.345 245.533 324.092C242.865 321.779 240.749 318.912 238.58 315.884C236.597 313.133 234.67 310.357 232.941 307.348C229.733 301.764 226.675 295.549 224.473 289.203C223.137 285.355 222.006 281.383 220.805 277.464C220.218 275.533 219.66 273.595 219.037 271.684C218.82 271.004 218.569 269.699 218.157 269.016C218.054 269.041 217.965 269.1 217.904 269.214C217.504 269.93 217.678 271.378 217.74 272.194C217.837 273.573 218.012 274.958 218.232 276.32C219.837 286.209 222.721 295.667 227.225 304.029C232.162 313.218 238.369 321.382 244.232 329.591Z" fill="#F7E9F6"/>
<path d="M235.948 382.098C237.319 384.201 238.74 386.242 240.209 388.222C243.355 391.599 246.548 394.903 249.834 398.047C256.71 404.611 264.352 410.036 270.79 417.325C274.119 421.092 277.046 425.366 279.371 430.106C277.562 424.77 275.323 419.687 272.704 414.93C270.832 411.545 268.772 408.329 266.627 405.208C265.69 404.13 264.775 403.01 263.828 401.934C261.418 399.187 259.01 396.452 256.617 393.689C251.862 388.179 247.154 382.584 242.925 376.414C234.854 364.653 228.955 350.793 221.479 338.442C211.505 321.963 198.376 308.437 181.803 305.281C179.29 304.805 176.764 304.505 174.221 304.682C172.997 304.764 170.972 304.755 169.642 305.57C171.774 306.498 173.924 307.483 176.094 308.079C178.914 308.853 181.687 309.9 184.454 310.911C191.555 313.525 198.757 316.498 205.05 321.552C212.217 327.314 217.469 335.409 221.833 344.537C224.072 349.223 226.108 354.058 228.189 358.857C230.311 363.745 232.392 368.942 235.112 373.327C237.678 377.463 240.856 381.13 244.15 384.323C245.877 386.005 247.649 387.59 249.433 389.197C251.128 390.726 252.66 392.467 254.308 394.07C254.604 394.358 254.257 395.571 253.899 395.322C251.175 393.419 248.548 391.643 246.03 389.282C243.602 387.01 241.278 384.578 239.137 381.878C233.119 374.264 229.275 364.242 225.21 354.894C221.027 345.276 216.465 335.464 209.816 328.262C203.816 321.761 196.636 317.752 189.21 314.72C182.613 312.023 175.775 309.806 169.422 306.194C169.716 306.669 170.071 307.093 170.437 307.464C171.896 308.913 173.561 310.039 175.229 311.054C178.804 313.248 182.643 314.734 186.389 316.378C193.975 319.706 201.356 323.493 207.386 330.459C213.442 337.468 217.502 346.185 221.537 355.131C225.808 364.554 230.479 373.719 235.948 382.098Z" fill="#F7E9F6"/>
<path d="M236.803 293.229C237.109 288.837 237.277 284.429 237.316 280.015C237.396 271.384 237.116 262.69 236.033 254.164C235.338 248.66 234.079 243.031 231.491 238.416C231.188 237.88 230.861 237.314 230.477 236.823C231.084 238.563 231.368 240.753 231.646 242.176C232.398 246.016 232.844 249.966 233.297 253.891C233.855 258.733 234.387 263.457 234.401 268.367C234.416 271.441 234.344 274.511 234.292 277.589C234.235 280.506 234.273 283.463 233.931 286.362C233.905 286.579 233.605 287.048 233.531 286.619C233.042 283.895 233.21 281.013 233.279 278.242C233.353 275.382 233.445 272.506 233.451 269.65C233.467 264.745 233.153 259.906 232.63 255.043C232.223 251.232 231.743 247.451 231.241 243.65C230.997 241.798 230.732 239.938 230.291 238.133C230.139 237.499 229.96 236.748 229.715 236.075C229.493 235.892 229.495 235.904 229.453 236.15C228.94 239.264 229.089 242.653 229.224 245.81C229.6 254.294 230.636 262.707 231.281 271.164C231.817 278.096 232.236 285.888 230.958 292.858C232.465 296.145 234.047 299.351 235.777 302.435C235.993 299.343 236.587 296.247 236.803 293.229Z" fill="#F7E9F6"/>
<path d="M202.295 359.75C194.661 354.77 186.095 352.521 177.788 350.173C173.267 348.888 168.703 347.303 164.025 347.458C161.933 347.526 159.666 347.798 157.687 348.695C157.003 349.008 156.236 349.353 155.7 350.003C155.626 350.096 155.565 350.147 155.529 350.168C155.541 350.178 155.555 350.212 155.561 350.248C155.575 350.281 155.59 350.315 155.606 350.361C162.788 351.478 169.981 352.407 177.128 353.88C180.852 354.649 184.564 355.532 188.216 356.74C190.109 357.365 192.001 358.052 193.851 358.849C195.38 359.512 197.108 360.077 198.44 361.259C198.632 361.436 198.431 362.055 198.199 361.999C196.318 361.582 194.46 360.341 192.636 359.587C190.928 358.893 189.199 358.253 187.454 357.705C183.789 356.549 180.082 355.628 176.361 354.883C169.521 353.51 162.64 352.519 155.832 350.902C155.915 351.068 156.008 351.232 156.104 351.358C160.805 357.824 168.986 355.487 175.118 355.889C178.783 356.126 182.472 356.593 185.994 357.968C189.36 359.282 192.573 361.265 195.679 363.386C197.92 364.92 200.349 366.744 202.76 368.834C201.701 365.812 201.219 362.614 202.28 359.778C202.28 359.778 202.288 359.764 202.295 359.75Z" fill="#F7E9F6"/>
<path d="M284.404 278.115C283.919 277.139 283.488 276.263 282.674 275.564C282.719 275.603 282.033 275.309 282.18 275.311C282.082 275.31 281.851 275.39 281.887 275.369C281.634 275.504 281.372 275.641 281.164 275.878C280.972 276.097 280.816 276.358 280.673 276.641C281.826 281.687 283.218 286.639 284.582 291.598C286.105 297.102 287.181 302.75 288.427 308.358C290.927 319.633 293.065 331.02 295.352 342.371C299.877 364.862 302.641 387.949 303.657 411.134C304.632 433.31 303.23 455.871 300.085 477.697C299.985 478.404 299.288 478.757 299.381 477.804C301.265 456.864 302.887 435.926 302.322 414.817C301.692 391.416 298.688 367.952 294.252 345.266C291.967 333.604 289.776 321.92 287.519 310.251C286.37 304.31 285.131 298.415 283.741 292.557C282.535 287.486 281.218 282.516 280.415 277.335C280.073 278.448 280.012 279.815 280.011 281.13C280.023 284.379 280.428 287.582 280.936 290.761C281.993 297.27 283.578 303.591 284.728 310.065C288.503 331.433 292.31 352.756 294.734 374.46C297.149 396.18 298.259 418.15 298.332 440.084C298.403 458.643 297.02 478.818 288.253 494.337C287.357 495.917 286.726 493.686 287.226 492.586C292.143 481.85 294.739 470.021 295.617 457.699C296.253 448.749 296.142 439.754 295.88 430.783C295.85 430.778 295.827 430.758 295.815 430.674C293.048 413.569 290.804 396.313 285.382 380.143C279.663 363.076 270.579 348.208 265.621 330.697C259.6 309.41 258.625 286.836 258.286 264.42C258.214 259.709 258.48 254.98 258.466 250.267C258.451 244.364 258.593 238.002 257.394 232.246C257.219 231.395 256.616 228.363 255.459 228.963C255.333 229.031 255.212 229.134 255.099 229.224C255.141 229.251 255.173 229.33 255.184 229.476C255.75 237.53 256.272 245.818 255.955 253.898C255.638 262.102 254.587 270.222 254.389 278.447C254.18 287.121 254.171 296.095 255.807 304.55C257.496 313.29 259.769 321.84 262.501 330.131C266.063 340.953 270.289 351.454 274.513 361.881C278.585 371.935 282.853 382.128 285.786 392.84C291.3 412.996 292.997 434.925 291.465 456.14C291.43 456.632 290.854 457.143 290.83 456.392C290.437 440.466 290.247 424.467 287.467 408.853C284.546 392.418 278.851 377.169 273.166 362.055C265.243 341.001 257.279 319.472 253.691 296.409C253.282 293.765 252.697 291.188 252.598 288.469C252.499 285.751 252.465 283.016 252.531 280.295C252.66 274.705 253.079 269.169 253.622 263.616C254.156 258.127 254.466 252.642 254.86 247.137C255.27 241.405 254.856 235.499 254.749 229.754C254.749 229.692 254.759 229.628 254.78 229.573C253.892 230.68 253.433 232.713 253.099 234.01C251.601 239.817 251.011 246.176 250.375 252.222C248.616 269.062 248.39 287.32 250.653 304.646C252.03 315.161 254.146 325.548 257.07 335.542C260.206 346.243 264.135 356.58 268.034 366.849C272.071 377.457 276.232 388.048 279.643 399.03C281.313 404.412 282.838 409.866 284.059 415.442C285.308 421.136 286.109 426.962 287.089 432.745C287.216 433.471 286.378 435.05 286.094 433.852C284.867 428.699 284.224 423.419 283.1 418.241C282.524 415.587 281.891 412.947 281.203 410.332C279.837 408.985 279.101 406.308 278.183 404.506C277.131 402.45 275.984 400.48 274.933 398.436C272.632 393.988 269.518 390.231 266.596 386.453C263.664 382.677 260.754 378.785 257.596 375.324C254.633 372.064 251.642 368.675 248.964 365.037C243.467 357.596 239.46 348.444 236.546 338.981C235.294 334.914 234.317 330.669 233.702 326.362C233.291 323.445 232.991 320.291 233.469 317.334C230.885 313.537 228.426 309.598 226.259 305.465C225.747 310.44 225.146 315.535 225.697 320.528C226.386 326.778 228.246 332.921 230.233 338.673C234.427 350.807 240.229 361.835 246.781 372.076C252.621 381.184 259.011 389.664 265.516 398.004C267.832 400.972 270.012 404.073 272.05 407.331C272.113 407.427 272.176 407.524 272.248 407.618C272.26 407.628 272.265 407.664 272.267 407.676C274.833 411.812 277.135 416.199 279.094 420.903C285.924 437.318 288.957 457.412 283.445 475.14C283.366 475.395 283.113 475.456 283.168 475.108C283.414 473.41 283.61 471.701 283.785 469.984C284.525 456.665 282.76 442.259 276.712 431.278C269.586 418.334 258.043 411.141 248.367 401.824C247.958 401.426 247.566 401.011 247.158 400.625C246.369 399.958 245.603 399.249 244.867 398.483C244.257 397.847 243.666 397.207 243.074 396.555C237.645 390.959 232.414 385.055 227.207 379.12C222.844 374.15 218.833 368.536 213.953 364.347C211.857 362.542 209.211 360.509 206.575 360.584C206.07 360.593 204.135 360.599 203.946 361.364C203.934 361.417 203.941 361.465 203.929 361.517C206.229 363.645 208.214 366.544 210.228 369.051C212.458 371.829 214.674 374.647 216.963 377.361C219.251 380.075 221.617 382.721 224.128 385.096C226.527 387.375 229.117 389.296 231.54 391.532C231.731 391.709 231.528 392.441 231.277 392.327C228.464 391.067 225.915 388.763 223.57 386.459C221.078 384.017 218.714 381.383 216.447 378.614C214.17 375.848 211.984 372.972 209.804 370.071C207.853 367.462 205.684 364.967 203.863 362.191C203.888 362.954 204.104 363.82 204.269 364.476C205.418 368.903 207.588 372.861 210.125 376.397C210.766 377.186 211.393 378.003 211.982 378.83C213.401 380.599 214.889 382.239 216.342 383.777C222.699 390.453 229.844 395.736 237.062 400.729C244.217 405.687 251.526 410.372 258.08 416.604C264.759 422.955 270.969 430.808 274.545 440.534C275.879 444.172 277.714 449.217 277.048 453.347C276.881 454.392 276.355 455.971 275.371 456.095C274.092 456.266 272.828 454.956 271.842 454.076C265.686 448.568 262.129 439.432 257.216 432.385C252.055 424.975 246.07 418.383 239.265 413.552C233.077 409.143 226.221 405.814 219.229 404.204C218.815 404.105 218.362 404.002 217.872 403.909C217.619 404.305 217.188 404.421 217.132 403.777C214.817 403.389 212.084 403.338 210.572 405.29C209.885 406.174 209.694 407.188 209.806 408.216C211.819 408.068 213.885 408.949 215.707 409.951C217.93 411.167 220.224 412.068 222.556 412.898C225.033 413.792 227.539 414.618 229.977 415.707C232.144 416.676 234.583 417.704 236.222 419.842C236.344 420.011 236.231 420.559 236.014 420.475C233.672 419.511 231.53 417.854 229.183 416.854C226.886 415.866 224.549 415.063 222.215 414.221C219.88 413.367 217.611 412.435 215.398 411.154C213.633 410.139 211.824 408.898 209.868 408.635C210.284 410.856 211.974 413.081 213.14 414.253C218.529 419.71 225.768 422.004 232.329 423.929C236.377 425.116 240.631 426.043 244.503 428.016C248.042 429.835 251.375 432.311 254.205 435.59C257.151 439.002 259.405 443.065 261.798 447.081C264.338 451.373 266.89 455.674 269.07 460.288C271.194 464.792 273.083 469.612 274.055 474.752C275.131 480.4 274.714 485.886 274.53 491.626C274.511 492.226 273.591 493.837 273.443 492.569C273.406 492.255 273.386 491.925 273.35 491.611C273.234 491.552 273.159 491.372 273.207 491.037C273.234 490.894 273.241 490.744 273.26 490.603C273.079 488.127 273.031 485.62 272.888 483.135C272.628 481.77 272.293 480.424 271.926 479.122C270.89 475.4 269.656 471.651 267.994 468.302C264.864 461.993 260.265 457.141 254.56 455.148C247.867 452.796 240.506 454.092 233.666 454.432C226.739 454.779 219.807 454.694 213.045 452.533C206.231 450.347 199.861 445.895 195.29 438.989C191.783 433.688 189.239 427.524 187.796 420.846C186.5 414.829 185.326 408.72 183.542 402.894C182.844 400.605 182.095 397.968 180.78 396.112C180.573 395.827 180.387 395.623 180.206 395.456C181.171 402.459 181.948 409.506 183.31 416.426C184.729 423.606 187.063 430.652 190.247 436.861C194.098 444.363 199.534 450.602 205.846 454.596C212.029 458.51 218.777 460.711 225.613 461.726C232.587 462.756 239.575 462.295 246.567 462.787C249.694 463.005 252.877 463.469 255.827 464.858C257.364 465.581 258.915 466.462 260.252 467.679C261.681 468.987 262.694 470.642 263.678 472.491C263.855 472.833 263.559 473.735 263.198 473.462C258.848 470.163 254.554 467.186 249.45 466.364C244.546 465.581 239.596 466 234.671 465.731C221.201 465.006 206.906 462.308 196.296 450.685C190.619 444.466 186.329 436.164 183.891 427.157C181.122 416.964 180.139 405.821 179.519 395.087C178.942 395.064 178.509 395.826 178.206 397.202C177.575 400.046 177.527 403.023 177.385 405.949C177.114 411.374 177.708 417.114 178.501 422.421C179.9 431.838 182.353 441.276 187.333 448.642C195.787 461.156 208.741 465.119 221.082 467.033C227.904 468.087 234.798 468.306 241.602 469.44C248.536 470.592 255.614 473.248 260.702 479.695C263.599 483.368 265.773 487.747 268.005 492.063C269.231 494.437 270.486 496.803 271.975 498.915C273.216 500.665 274.731 502.82 276.425 503.878C280.799 506.612 285.27 505.849 289.487 503.099C289.601 502.811 289.738 502.555 289.922 502.349C293.776 497.863 296.99 492.537 299.794 486.937C307.513 471.508 312.712 453.843 316.379 436.21C319.355 421.883 320.438 407.254 320.668 392.456C320.904 376.901 320.488 361.216 318.95 345.776C318.409 340.397 317.809 334.944 316.61 329.722C316.262 328.218 315.886 326.658 315.247 325.297C314.894 324.551 314.561 324.01 314.003 324.057C313.677 324.086 313.445 324.228 313.248 324.412C314.692 330.506 315.325 336.844 315.925 343.152C316.522 349.375 316.835 355.653 317.039 361.92C317.25 368.36 317.268 374.82 317.255 381.264C317.235 387.461 317.418 393.845 316.671 399.993C316.642 400.198 316.323 400.672 316.278 400.236C315.583 394.273 315.981 388.06 315.991 382.063C316.012 375.606 315.946 369.157 315.792 362.704C315.646 356.236 315.327 349.786 314.863 343.345C314.424 337.134 313.585 330.982 312.918 324.814C312.809 325.001 312.71 325.186 312.616 325.408C312.116 326.632 311.746 328.347 311.508 329.967C310.748 335.175 310.623 340.529 310.606 345.819C310.56 357.78 311.216 369.746 312.086 381.649C312.71 390.235 313.603 398.793 313.546 407.444C313.521 410.378 313.466 413.37 312.904 416.222C312.601 417.797 311.856 420.395 310.296 420.447C308.775 420.49 308.067 418.066 307.69 416.568C306.939 413.584 306.654 410.402 306.391 407.3C305.716 399.359 305.585 391.35 304.807 383.434C304.312 378.365 303.577 373.318 302.874 368.287C300.979 354.782 298.857 341.319 296.473 327.931C294.184 315.054 291.796 302.101 288.35 289.626C287.295 285.71 286.152 281.654 284.404 278.115Z" fill="#F7E9F6"/>
<path d="M18.9491 440.429C19.3783 439.453 19.8097 438.464 20.2494 437.491C23.1986 430.94 26.2359 424.454 29.118 417.844C37.8955 397.741 45.7599 376.649 50.0485 354.193C52.1789 343.053 53.1962 331.832 53.733 320.402C53.8943 316.862 53.9908 313.249 53.9653 309.646C53.5746 323.65 51.3961 337.622 48.5973 351.098C46.6441 360.514 44.3719 369.806 41.9444 379.043C39.1537 389.664 35.4756 399.886 31.4601 409.825C25.1617 425.429 17.9953 440.445 11.5418 455.925C13.8425 450.628 16.3277 445.476 18.9491 440.429Z" fill="#F7E9F6"/>
<path d="M12.8046 443.988C21.1027 424.012 29.1127 403.445 32.7622 381.158C34.9408 367.869 35.2732 354.435 34.7528 341.002C33.8515 355.738 31.6482 370.344 28.5088 384.651C23.6073 406.905 16.7482 428.343 10.0214 449.774C9.68648 450.844 9.33887 451.924 9.00391 452.994C10.2708 449.992 11.5587 446.996 12.8046 443.988Z" fill="#F7E9F6"/>
<path d="M120.591 346.339C124.688 343.418 128.807 340.558 132.828 337.492C127.403 338.534 122.446 342.807 118.285 347.091C118.154 347.224 118.044 347.363 117.924 347.499C118.806 347.045 119.698 346.664 120.591 346.339Z" fill="#F7E9F6"/>
<path d="M42.5575 411.179C44.2166 408.39 45.97 405.696 47.9745 403.346C50.0717 400.895 52.4243 398.761 54.7955 396.715C56.0186 395.082 57.2312 393.446 58.4187 391.762C69.9733 375.35 80.6176 357.726 89.283 338.598C94.8218 326.379 99.6127 313.435 102.907 299.935C100.702 307.307 98.1811 314.526 95.2746 321.562C86.8343 342.017 76.4841 361.154 64.8334 378.85C61.9323 383.253 59.0291 387.669 55.8978 391.803C52.7769 395.939 49.5388 399.92 46.4284 404.059C43.7208 407.662 40.9121 411.35 38.5563 415.351C38.4212 415.581 38.2861 415.81 38.1594 416.056C39.2259 414.786 40.3176 413.565 41.4176 412.36C41.7969 411.97 42.1866 411.584 42.5575 411.179Z" fill="#F7E9F6"/>
<path d="M117.142 296.306C112.047 299.664 107.881 304.867 104.486 310.786C108.46 305.617 112.925 301.147 117.142 296.306Z" fill="#F7E9F6"/>
<path d="M79.2132 323.768C78.2102 325.598 77.3894 327.587 76.8624 329.722C76.8412 329.786 76.6938 329.887 76.7026 329.764C77.0868 326.881 78.2966 324.031 79.8937 321.631C81.6914 315.924 83.3402 310.122 84.8086 304.218C84.6669 304.557 84.5274 304.883 84.3856 305.223C79.764 316.287 76.8139 328.315 73.4044 340.071C75.4847 334.716 77.4245 329.283 79.2132 323.768Z" fill="#F7E9F6"/>
<path d="M-0.329136 477.259C1.70513 468.156 3.43736 458.891 5.63742 449.846C11.3726 426.206 15.8091 402.005 17.9612 377.391C18.5019 371.203 18.9229 365.012 19.1717 358.805C19.4044 353.108 19.7608 347.458 19.712 341.745C19.6831 337.89 19.5323 334.045 19.3164 330.198C18.9063 353.899 16.3557 377.587 13.0437 400.84C10.0082 422.157 6.23805 443.284 2.15728 464.301C1.25336 468.931 0.341089 473.544 -0.583821 478.168C-0.490504 477.858 -0.409819 477.558 -0.329136 477.259Z" fill="#F7E9F6"/>
<path d="M103.185 361.604C104.613 359.648 106.212 357.917 107.893 356.292C110.199 353.56 112.424 350.724 114.529 347.745C118.473 342.15 122.173 335.962 124.632 329.06C121.713 334.392 118.615 339.552 115.171 344.343C110.25 351.19 104.622 357.197 98.7601 362.684C85.0435 375.522 69.8982 385.535 55.9476 397.922C55.8339 398.018 55.7307 398.117 55.617 398.212C55.0076 399.016 54.4003 399.806 53.7931 400.595C53.9826 400.436 54.1721 400.276 54.3616 400.116C61.3331 394.528 68.7449 389.946 76.0315 385.054C83.2235 380.206 90.0597 374.917 96.4809 368.531C98.7414 366.289 100.979 363.986 103.162 361.612C103.183 361.618 103.183 361.618 103.185 361.604Z" fill="#F7E9F6"/>
<path d="M137.422 346.507C136.89 345.797 135.768 345.296 135.029 345.062C133.757 344.675 132.519 344.423 131.197 344.413C128.924 344.408 126.682 344.689 124.458 345.197C128.167 342.58 131.889 339.952 135.495 337.084C135.923 336.736 136.641 335.459 135.653 335.481C129.975 335.579 124.731 339.386 120.238 343.486C119.457 344.203 118.682 344.949 117.923 345.728C119.157 343.888 120.337 341.979 121.439 340.007C121.344 340.261 121.238 340.513 121.172 340.788C121.115 341.01 121.325 340.995 121.418 340.894C123.966 338.086 125.861 334.369 128.285 331.376C131.076 327.934 134.252 325.025 137.596 322.507C137.979 322.23 138.012 321.472 137.478 321.807C134.005 323.971 130.824 326.642 127.957 329.938C126.537 331.576 125.229 333.396 124.001 335.265C123.858 335.479 123.725 335.695 123.581 335.909C125.827 331.294 127.619 326.379 128.701 321.113C128.997 319.671 127.082 320.845 126.822 321.377C121.904 331.012 116.586 340.348 110.088 348.373C109.502 349.099 108.897 349.806 108.293 350.513C110.267 346.775 111.557 342.399 112.546 338.126C112.578 337.995 112.602 337.848 112.633 337.717C114.462 332.296 115.737 326.439 115.302 320.541C115.217 319.432 113.703 320.766 113.627 321.444C113.03 326.892 112.281 332.328 111.138 337.634C110.763 338.75 110.369 339.846 109.965 340.939C110.134 339.812 110.217 338.677 110.201 337.544C110.183 335.058 109.722 332.61 108.621 330.54C107.436 328.308 105.469 327.824 103.51 328.109C103.409 328.125 103.074 328.442 103.276 328.55C106.734 330.439 108.272 335.049 108.156 339.605C108.12 341.059 107.908 342.384 107.552 343.657C107.454 343.102 107.267 342.565 107.039 342.144C105.93 340.057 103.807 339.045 101.891 339.745C101.821 339.769 101.543 340.073 101.717 340.146C103.008 340.691 104.047 341.714 105.09 342.849C105.798 343.619 106.655 344.957 106.488 346.21C106.477 346.277 106.54 346.293 106.584 346.291C106.466 346.553 106.368 346.82 106.239 347.079C104.986 349.653 103.99 352.125 103.481 355.102C103.293 355.527 103.095 355.949 102.917 356.376C98.6293 360.767 94.0929 364.8 89.5317 368.646C82.391 374.678 75.0143 380.202 67.7524 385.966C65.1227 388.056 62.5201 390.18 59.9321 392.351C64.6946 385.672 69.2478 378.73 73.5998 371.61C80.9763 359.52 87.7667 346.721 93.5087 333.23C93.5506 333.241 93.62 333.217 93.6706 333.174C93.6282 333.303 93.5858 333.431 93.5434 333.559C93.357 334.11 94.0196 333.795 94.1547 333.565C96.2174 329.962 97.5709 326.076 99.2332 322.174C100.718 318.699 102.63 315.628 104.72 312.743C106.472 311.08 108.313 309.621 110.06 308.333C111.807 307.045 113.621 306.095 115.488 305.354C118.739 305.67 122.032 307.572 125.241 307.808C125.327 307.816 125.607 307.568 125.448 307.471C122.925 306.02 120.345 304.792 117.703 304.564C122.145 303.169 126.8 302.707 131.349 301.674C131.519 301.635 131.825 301.157 131.506 301.171C125.072 301.408 118.789 302.213 112.957 305.323C112.946 305.32 112.944 305.334 112.934 305.331C112.934 305.331 112.934 305.331 112.932 305.345C111.558 306.074 110.205 306.949 108.874 307.955C108.476 308.256 108.074 308.583 107.661 308.908C111.894 303.764 116.577 299.226 120.774 294.031C121.249 293.457 121.088 292.412 120.32 292.77C113.549 296.013 108.166 302.056 103.833 309.334C102.292 311.93 100.904 314.663 99.6037 317.461C99.9235 316.555 100.256 315.638 100.565 314.728C103.131 307.019 105.267 299.058 106.83 290.92C108.334 288.899 109.89 286.962 111.705 285.385C114.205 283.22 117.33 282.068 120.306 281.573C120.44 281.552 120.649 281.203 120.418 281.212C117.359 281.336 114.546 282.11 111.933 284.232C110.476 285.414 109.186 286.849 108.005 288.424C112.042 281.431 117.662 276.021 123.633 271.497C123.942 271.27 123.98 270.695 123.536 270.942C118.625 273.623 114.294 277.877 110.587 282.739C109.48 284.193 108.418 285.771 107.452 287.443C108.097 283.68 108.614 279.898 108.994 276.08C109.137 274.57 107.178 275.747 106.982 276.63C104.581 287.965 101.729 299.169 97.9595 309.897C96.9703 312.734 95.912 315.525 94.8243 318.295C94.9009 317.953 94.9775 317.61 95.052 317.281C95.2116 316.556 95.3419 315.809 95.4827 315.065C95.8609 315.024 96.2044 314.653 96.3484 314.231C96.4077 314.065 96.3599 313.885 96.213 313.847C96.5195 313.913 96.501 313.755 96.5613 313.241C96.6195 312.74 96.7511 312.259 96.8617 311.772C97.1042 310.734 97.3486 309.752 97.4546 308.678C97.8585 304.783 97.9307 300.843 98.03 296.938C98.0369 296.759 98.031 296.59 98.0357 296.424C98.407 292.185 98.5789 287.895 98.3473 283.667C99.4255 278.358 101.932 273.755 103.864 268.78C103.976 268.488 103.592 268.639 103.526 268.775C101.793 271.823 100.143 274.893 98.8585 278.28C98.5939 278.978 98.3334 279.719 98.0896 280.492C97.852 278.353 97.5136 276.23 97.0027 274.159C96.7079 272.926 95.1847 274.453 95.2158 275.353C95.379 279.257 95.6767 283.14 95.9303 287.025C95.9012 286.934 95.8637 286.826 95.8345 286.735C94.2122 281.769 91.3775 275.428 87.1332 273.53C86.9192 273.432 86.3256 273.863 86.56 274.175C89.5003 278.076 92.1105 282.128 93.9598 287.042C94.2579 287.844 94.5286 288.681 94.7846 289.543C94.5334 289.198 94.2781 288.881 94.0058 288.601C91.6119 286.069 88.7517 285.701 85.928 287.295C85.6987 287.43 85.5816 287.957 85.9391 287.841C88.5612 286.962 91.176 287.907 93.1841 290.186C94.6833 291.886 95.4251 294.016 96.0699 296.275C96.1105 296.773 96.1384 297.282 96.158 297.775C95.9931 299.628 95.7966 301.473 95.5814 303.299C95.0905 307.464 94.5388 311.6 93.901 315.727C93.2825 319.734 92.6334 324.137 90.7771 327.543C90.699 327.69 90.7808 327.725 90.8712 327.707C88.9154 332.147 86.8715 336.521 84.7627 340.824C75.0851 360.539 63.7131 379.228 50.8725 395.751C48.8484 398.36 46.8264 400.957 44.8483 403.62C42.9377 406.204 41.2741 409.089 39.3572 411.643C38.0793 413.345 37.0899 415.569 36.0969 417.541C35.6173 418.49 35.1605 419.569 34.6597 420.582C34.067 421.418 33.4932 422.272 32.9466 423.161C36.6978 416.039 40.5852 409.021 44.4684 402.03C48.8731 394.102 53.3199 386.184 57.5633 378.102C60.395 372.97 63.1115 367.739 65.5743 362.316C66.5531 360.159 67.4522 357.954 68.3114 355.724C68.5187 355.248 68.7237 354.786 68.931 354.31C69.6396 352.613 70.3272 350.91 71.0169 349.194C71.4689 348.349 71.9208 347.505 72.3916 346.68C73.1813 345.296 73.9709 343.913 74.7898 342.551C75.8607 342.007 77.0187 341.806 78.1892 341.664C78.2901 341.649 78.6546 341.284 78.4406 341.186C77.4462 340.705 76.4353 340.874 75.5116 341.386C76.0878 340.449 76.6556 339.495 77.2423 338.561C80.4981 333.511 84.0326 328.702 87.5481 323.943C87.7295 323.698 87.5052 323.528 87.3345 323.707C83.2406 327.98 79.5553 332.639 76.1877 337.84C75.447 338.986 74.7253 340.15 74.0223 341.333C76.3682 334.932 78.4917 328.418 80.4139 321.795C81.6502 319.942 83.0834 318.294 84.6377 316.914C84.7661 316.794 84.7269 316.561 84.5543 316.683C83.2514 317.585 81.9811 318.829 80.8404 320.289C82.4107 314.773 83.8488 309.195 85.1149 303.531C85.1699 303.392 85.2228 303.266 85.2883 303.13C85.3919 302.892 85.1334 302.936 85.0658 303.086C80.6161 312.048 77.5211 321.837 74.5351 331.696C75.0933 328.955 75.5907 326.185 75.96 323.396C76.5269 319.097 76.7998 314.722 76.7325 310.355C77.0636 309.173 77.4345 308.015 78.0112 306.868C78.9535 305.009 80.2661 303.636 81.512 302.134C81.6342 301.984 81.5845 301.748 81.4078 301.828C79.6769 302.535 78.2789 304.373 77.215 306.173C77.0229 306.486 76.8306 306.868 76.6279 307.247C76.53 305.466 76.3754 303.697 76.1557 301.925C76.0201 300.859 74.4832 302.062 74.4705 302.825C74.3916 311.321 73.7856 319.764 72.6231 328.132C71.8381 333.796 70.6313 339.294 69.4455 344.798C69.6483 343.666 69.8406 342.532 69.9993 341.402C71.0472 334.161 71.2245 326.485 69.7787 319.321C69.7103 318.997 69.2681 319.369 69.2653 319.592C69.2052 326.671 69.1935 333.721 68.3773 340.743C68.3578 340.933 68.3195 341.104 68.3001 341.294C68.0416 338.398 67.0499 335.505 64.6739 334.776C64.4872 334.713 64.0869 335.097 64.2311 335.357C65.1026 336.95 66.0697 338.15 66.5852 340.054C67.0821 341.87 67.026 343.862 66.9219 345.745C66.8112 347.737 66.5199 349.697 66.2937 351.659C65.5071 354.939 64.647 358.2 63.9191 361.523C63.8808 361.695 64.0596 361.602 64.0934 361.527C64.1737 361.366 64.2561 361.193 64.3364 361.032C63.9243 361.901 63.5227 362.772 63.1106 363.641C61.1433 367.673 59.1216 371.636 57.0495 375.571C54.995 379.26 52.8734 382.89 50.7709 386.469C45.8164 394.896 40.6546 403.115 35.5682 411.41C33.3226 415.063 31.1064 418.738 28.9278 422.45C32.4818 414.51 35.8869 406.475 39.0257 398.259C43.6418 386.203 47.6289 373.706 50.5604 360.836C51.3343 359.072 51.8124 357.175 52.3473 355.265C53.0306 352.837 53.7538 350.432 54.4897 348.017C55.9678 343.146 57.4962 338.303 58.924 333.405C59.7493 330.568 60.5347 327.705 61.2593 324.813C61.2867 324.779 61.3141 324.744 61.3415 324.709C62.4021 323.34 63.404 321.928 64.4813 320.591C64.6309 320.407 64.5835 320.088 64.3374 320.192C63.3489 320.631 62.5118 321.696 61.7885 322.665C63.1854 316.798 64.2634 310.805 64.7703 304.693C64.879 303.397 63.1135 304.457 63.0268 305.41C62.2273 314.653 59.5804 323.484 57.0181 332.129C56.0211 335.494 55.0535 338.88 53.9979 342.202C54.382 339.389 54.7157 336.548 54.9843 333.705C55.7296 325.758 56.1331 317.625 56.0992 309.63C56.0873 307.173 55.9723 304.746 55.7671 302.337C55.8278 300.931 55.9641 299.531 56.1634 298.147C57.9575 295.198 60.622 293.438 63.6412 293.29C63.7399 293.287 63.9592 293.01 63.785 292.937C60.931 291.916 58.1103 293.9 56.3752 296.822C56.4265 296.501 56.4884 296.182 56.5481 295.877C57.5329 290.878 59.7072 286.44 62.8214 283.166C63.0721 282.896 63.0061 282.489 62.6463 282.688C58.7854 284.82 56.5062 289.914 55.2843 294.824C55.1718 295.254 55.0928 295.68 55.0012 296.116C54.4564 292.685 53.7266 289.317 52.7614 285.985C52.5076 285.111 51.2799 286.157 51.3912 286.897C52.9912 296.722 52.8114 306.739 51.9911 316.66C51.9802 316.796 51.961 316.916 51.9501 317.053C51.6804 314.362 51.1754 311.708 50.5841 309.115C49.3975 303.886 47.8048 298.119 45.1155 293.809C44.5509 292.896 42.9856 294.482 43.3966 295.467C46.1129 302.07 47.8927 309.265 49.0336 316.559C49.6277 320.366 49.9633 324.217 50.0993 328.085C50.1459 329.435 50.1715 330.78 50.1739 332.133C49.3986 337.326 48.4785 342.467 47.4745 347.586C43.4647 368.023 38.1935 388.076 30.7955 406.934C23.3426 425.932 14.4807 443.964 6.92083 462.878C9.95663 454.691 13.5147 446.793 16.8084 438.771C20.906 428.797 24.8086 418.675 28.1093 408.215C32.9384 392.912 36.4282 376.549 37.0174 360.004C37.0538 359.023 37.0566 358.048 37.0803 357.079C37.0782 357.092 37.0887 357.095 37.0887 357.095C37.2661 357.49 37.915 356.85 37.8425 356.483C37.5648 355.142 37.6361 352.986 37.6654 351.572C37.7536 351.567 37.9579 351.383 37.8636 351.289C37.6228 351.017 37.8318 349.915 37.8748 349.577C37.9651 348.876 38.0741 348.193 38.1749 347.495C38.1898 347.401 38.207 347.294 38.2324 347.203C38.8505 344.088 39.6156 341.012 40.2756 337.908C41.6617 331.424 42.6091 324.813 43.3444 318.16C43.4783 316.912 41.8952 318.062 41.7418 318.816C40.5356 324.859 39.4195 330.952 38.4441 337.055C38.0912 339.263 37.7171 341.535 37.4649 343.797C37.3288 344.375 37.2032 344.956 37.0797 345.523C36.938 339.228 36.6115 332.926 36.1631 326.635C36.3626 325.934 36.562 325.233 36.772 324.535C37.9023 320.814 39.2499 317.513 41.311 314.467C41.4819 314.219 41.2826 314.097 41.1057 314.246C38.5176 316.486 36.9984 319.562 35.9165 323.253C35.4972 317.805 35.0211 312.371 34.5198 306.957C34.3974 305.671 32.3786 307.153 32.4761 308.322C33.1972 316.942 33.3953 325.552 33.1376 334.141C32.8147 332.468 32.3551 330.829 31.782 329.217C31.088 327.266 30.0594 325.563 28.9949 323.878C28.1909 322.205 27.2942 320.634 26.296 319.287C25.7372 318.542 24.3175 319.901 24.7456 320.779C25.5768 322.487 26.5765 324.029 27.5384 325.604C28.8453 328.439 29.8574 331.546 30.7041 334.456C31.4385 336.975 32.4993 340.666 32.6283 344.031C32.5517 345.126 32.4667 346.205 32.3795 347.298C32.1966 348.1 31.9339 348.854 31.5224 349.514C31.4359 349.645 31.585 349.67 31.6608 349.606C31.8672 349.408 32.0548 349.192 32.2341 348.96C31.3403 358.861 29.8879 368.701 27.9737 378.42C23.5275 400.904 16.7581 422.533 10.0018 444.011C8.82311 447.761 7.61078 451.516 6.4068 455.287C6.55166 454.586 6.70915 453.874 6.854 453.173C8.55603 444.918 10.6526 436.793 12.3547 428.538C13.8522 421.289 15.1629 413.977 16.3266 406.628C16.495 406.532 16.6699 406.327 16.6956 406.166C18.1063 397.682 19.9368 389.307 22.1366 381.083C22.9513 380.501 23.8118 380.042 24.7057 379.647C24.8361 379.583 25.1608 379.194 24.8795 379.107C24.1114 378.851 23.3654 378.936 22.6398 379.235C24.7286 371.638 27.0082 364.146 29.076 356.544C29.3776 355.41 28.1384 356.049 27.8661 356.522C24.6125 362.241 22.0822 368.496 20.198 375.087C20.7564 368.584 21.1741 362.071 21.4092 355.539C21.7164 347.256 21.9813 339.101 21.5828 330.787C21.1804 322.361 20.301 313.978 19.0117 305.697C18.7972 304.303 16.8975 305.998 16.9553 307.072C17.4152 315.959 17.4654 324.879 17.2341 333.782C15.9336 330.154 13.7796 326.736 10.9829 325.493C10.7878 325.414 10.3143 325.709 10.4268 326.031C11.1787 328.304 12.4635 330.046 13.6071 331.988C14.5081 333.533 15.2322 335.226 15.788 337.016C14.6405 336.466 13.2076 336.54 12.1121 336.896C9.65829 337.68 7.4097 339.436 5.50882 341.548C5.20539 341.874 5.27494 342.533 5.72765 342.163C7.35733 340.858 9.0391 339.707 10.8565 338.869C11.8935 338.4 12.9783 338.111 14.0788 338.202C14.963 338.279 15.6674 338.797 16.3884 339.346C16.4092 339.422 16.43 339.497 16.4403 339.569C16.8567 341.615 16.5374 343.818 16.542 345.91C16.5386 346.341 16.5259 347.104 16.6291 347.759C16.2403 354.432 15.7318 361.102 15.0974 367.739C14.508 374.025 13.8033 380.282 13.0333 386.535C13.0456 382.97 12.9403 379.388 12.7635 375.844C12.296 365.909 10.8133 354.735 4.59586 347.876C3.89016 347.093 2.30419 348.535 2.77372 349.632C6.00192 357.205 7.56528 365.891 8.52161 374.545C8.18465 373.37 7.78665 372.235 7.35288 371.119C5.60092 366.69 2.17635 363.151 -1.44325 366.851C-1.62655 367.041 -1.68236 367.458 -1.3564 367.334C3.01333 365.78 5.46121 372.216 6.7327 376.435C7.36116 378.522 7.58049 380.433 7.82429 382.601C7.8408 382.703 7.85731 382.805 7.87169 382.921C7.16598 382.138 6.21788 381.64 5.34399 381.636C2.81057 381.618 0.557413 384.977 -0.519171 387.54C-0.726399 388.016 -0.259905 387.97 -0.0680479 387.727C1.24347 386.019 2.92454 383.641 5.0037 383.833C6.72795 383.989 7.05259 386.541 8.46291 387.019C8.54687 387.041 8.65223 386.929 8.67769 386.838C8.95511 386.06 8.96351 385.323 8.78901 384.637C8.96744 384.683 9.17562 384.612 9.41354 384.423C9.42965 384.664 9.44577 384.905 9.46403 385.133C10.0159 392.692 9.81352 400.32 9.16598 407.859C8.65325 413.803 7.62601 419.683 7.30647 425.65C6.97942 427.628 6.63974 429.616 6.30219 431.591C3.57631 447.483 0.537689 463.28 -2.61424 479.034C-4.12089 486.545 -5.64853 494.051 -7.19503 501.538C-8.43277 507.573 -9.87421 513.582 -10.7782 519.717C-11.4468 521.369 -11.5948 523.184 -11.8043 525.179C-11.9575 526.616 -12.0634 528.373 -11.1526 529.446C-10.0953 530.697 -8.2599 530.91 -6.92927 531.339C-4.80738 532.017 -2.53306 532.288 -0.362127 531.974C0.209524 531.886 0.948754 531.228 1.03297 530.427C1.03511 530.414 1.04988 530.39 1.05201 530.377C1.1226 529.935 1.20368 529.496 1.27426 529.055C1.27426 529.055 1.27426 529.055 1.2764 529.041C1.51706 528.63 1.60301 527.955 1.74299 527.49C2.10576 526.246 2.43919 524.981 2.74113 523.707C3.74066 519.437 4.822 515.202 6.14048 511.057C9.35814 500.98 14.0465 492.303 20.8153 485.588C22.4648 483.954 24.1748 482.49 25.937 481.108C28.2588 480.193 30.5431 479.17 32.9751 478.66C35.7708 478.063 38.6603 477.699 41.4983 477.726C41.5877 478.056 41.6771 478.386 41.7455 478.711C41.7033 478.769 41.6821 478.834 41.6819 478.903C41.7243 479.528 41.8675 480.136 42.0674 480.732C42.671 486.395 40.9792 492.534 39.3304 497.583C39.2435 497.853 39.58 497.732 39.6455 497.595C41.447 493.506 43.322 487.93 43.0549 482.898C43.4646 483.618 43.9017 484.304 44.297 484.908C44.481 485.193 44.6904 485.457 44.8849 485.744C45.298 488.221 45.5072 490.743 45.6281 493.269C45.7131 495.131 45.9849 497.056 45.948 498.928C45.9338 499.496 46.5298 498.982 46.6229 498.741C47.7125 496.028 47.8945 492.632 47.6393 489.304C47.8696 489.573 48.0873 489.853 48.3197 490.108C51.17 493.205 54.5968 495.226 58.4257 494.73C58.5476 494.72 58.9521 494.31 58.7109 494.177C55.3925 492.436 52.2718 490.621 49.5454 487.57C48.6177 486.534 47.7702 485.407 46.95 484.246C46.7926 483.453 46.6331 482.672 46.4628 481.959C46.1432 480.607 45.7166 479.172 45.0963 477.924C50.4832 478.419 55.8557 479.551 61.2451 478.458C61.7075 478.369 63.3461 476.872 62.3794 476.286C57.3779 473.243 51.3033 472.262 45.8092 472.506C41.8572 472.676 37.9109 473.838 34.1833 475.615C43.1284 470.4 52.7663 466.802 61.6919 461.778C63.3499 460.843 64.985 459.847 66.6077 458.791C66.9486 458.574 68.0323 457.197 67.2457 456.783C63.6463 454.885 59.5509 455.269 55.7966 456.119C50.6927 457.272 45.7789 459.562 41.0468 462.22C41.7151 461.391 42.3208 460.405 42.8929 459.425C43.4051 458.819 43.8547 458.058 44.254 457.27C45.4439 455.503 46.6504 453.767 47.8592 452.019C47.9731 451.853 48.0996 451.677 48.2157 451.498C51.477 448.193 55.706 446.631 59.6695 445.362C59.7725 445.333 60.0552 444.932 59.8095 444.896C56.5379 444.436 53.3952 445.904 50.5889 448.004C52.2957 445.465 53.9437 442.883 55.4808 440.174C56.1226 439.031 54.7865 439.046 54.3225 439.692C51.6377 443.426 49.0805 447.319 46.4584 451.139C47.0195 448.859 47.3415 446.434 47.1716 444.146C47.1434 443.706 46.5601 444.21 46.5049 444.418C45.747 447.176 45.2977 450.056 44.5608 452.82C44.3995 453.419 44.2045 454.023 44.0033 454.598C40.8503 458.935 37.4527 462.888 33.8269 466.559C33.7763 466.602 33.7887 466.661 33.8307 466.672C26.1798 471.86 18.9391 478.312 12.89 486.064C12.3671 486.736 11.8504 487.438 11.3443 488.143C12.9236 483.87 14.6707 479.711 16.575 475.662C16.725 475.339 16.8982 475.007 17.0483 474.684C17.1053 474.601 17.1517 474.516 17.2003 474.417C26.452 458.94 38.485 446.375 51.2224 435.833C55.4043 432.376 59.6927 429.143 64.0687 426.113C64.0368 426.244 64.0343 426.397 64.1538 426.47C64.3593 426.621 64.5756 426.635 64.7984 426.61C64.7562 426.669 64.7056 426.711 64.6613 426.783C64.5896 426.89 64.6798 426.941 64.7451 426.875C64.8988 426.734 65.0588 426.622 65.2188 426.51C65.3702 426.452 65.5216 426.394 65.6752 426.322C65.9234 426.206 66.1841 426.148 66.4385 426.061C66.4953 426.048 66.5499 426.048 66.6045 426.048C67.6184 427.775 68.8049 429.38 69.6208 431.321C70.4323 433.289 70.9426 435.568 71.1149 437.773C71.1392 438.1 71.552 437.706 71.5944 437.577C72.4268 435.173 72.4554 432.532 71.5105 430.168C71.0641 429.062 70.5164 428.111 69.8341 427.251C71.551 428.478 73.1506 430.371 74.128 431.643C76.5893 434.848 78.3279 438.813 80.2752 442.498C80.3839 442.707 80.6453 442.371 80.6667 442.237C81.6459 437 77.5231 431.537 74.7801 428.384C73.7374 427.179 72.4927 426.074 71.1965 425.361C72.6209 425.341 74.047 425.447 75.4645 425.607C79.7213 426.059 83.943 427.074 88.2283 427.143C88.7408 427.151 90.0811 425.673 89.2675 425.155C83.7465 421.6 76.8303 420.345 70.5007 421.848C75.4086 418.706 80.3936 415.766 85.4326 413.034C86.0427 412.705 86.847 410.614 85.636 410.941C78.894 412.699 72.3224 415.102 65.9626 418.368C69.0656 413.865 72.7999 409.72 75.2011 404.546C75.6851 403.501 74.6384 403.689 74.2359 404.156C71.6224 407.17 69.1848 410.383 66.7429 413.623C66.1609 414.391 65.5789 415.16 64.9864 415.926C64.8289 414.449 64.0952 413.157 63.3592 411.948C63.1083 411.534 62.432 412.209 62.5169 412.635C62.7715 413.984 62.8873 415.38 63.085 416.741C63.153 417.205 63.1998 417.733 63.1815 418.258C62.4499 419.211 61.7287 420.166 61.0159 421.138C54.2167 425.237 47.9037 430.537 41.9859 436.441C31.4292 446.951 22.3929 459.849 15.3707 474.373C14.786 475.364 14.1719 476.333 13.606 477.343C10.6184 482.629 7.99117 488.26 5.77284 494.137C5.96668 493.198 6.16053 492.258 6.36273 491.335C6.56279 490.426 6.78385 489.521 6.99442 488.614C7.30581 488.444 7.64287 488.114 7.72121 487.897C9.6293 482.525 11.0633 476.905 13.0532 471.568C14.9584 466.488 17.1698 461.543 19.4293 456.709C23.1197 448.804 27.506 441.47 32.5036 434.825C41.9001 422.34 53.443 412.979 65.6753 405.665C71.7315 402.041 77.9607 398.908 84.2752 396.062C84.2705 396.228 84.35 396.347 84.5918 396.27C86.8609 395.411 88.9561 394.408 91.3267 394.077C92.1421 393.969 92.9699 393.919 93.7913 393.91C94.7546 394.244 95.7496 394.517 96.6916 394.915C97.3673 395.202 98.0197 395.498 98.6679 395.82C101.054 398.81 101.51 402.664 102.484 406.555C102.56 406.896 102.973 406.502 102.997 406.285C103.329 403.388 103.052 399.72 101.562 397.478C101.642 397.527 101.722 397.576 101.789 397.635C105.206 400.057 107.136 403.849 109.541 407.611C109.734 407.912 110.233 407.456 110.238 407.151C110.213 401.973 106.978 398.274 103.714 395.78C103.209 395.384 102.664 395.033 102.108 394.679C105.85 395.276 109.576 396.037 113.358 396.044C113.719 396.041 114.752 394.846 114.129 394.572C114.089 394.548 114.047 394.537 113.994 394.523C107.727 391.876 100.598 390.788 93.8326 391.941C99.7762 389.501 105.772 387.213 111.736 384.918C112.424 384.65 113.577 382.497 112.213 382.686C107.588 383.309 102.974 384.06 98.3961 385.072C98.4214 385.05 98.4488 385.016 98.4741 384.994C99.0446 384.571 99.6701 384.009 100.306 383.38C101.142 382.664 101.955 381.886 102.785 381.14C104.651 379.451 106.545 377.796 108.525 376.346C112.601 373.35 116.857 371.753 121.557 371.624C121.71 371.622 122.004 371.224 121.766 371.134C117.461 369.485 112.814 371.747 109.061 374.367C107.966 375.127 106.903 375.966 105.865 376.853C108.157 373.727 110.284 370.406 112.587 367.283C113.232 366.392 112.29 366.063 111.79 366.727C108.597 371.11 105.28 376.199 101.5 380.359C101.8 379.712 102.079 379.06 102.331 378.443C103.848 374.697 104.666 370.533 105.573 366.504C105.685 366.004 105.143 366.322 105.047 366.576C103.802 369.919 102.776 373.401 101.581 376.77C100.745 379.131 99.7558 381.216 98.5403 383.144C98.3445 383.274 98.1571 383.42 97.9635 383.537C97.3322 383.931 96.7351 384.11 96.3253 384.895C96.2788 384.981 96.266 385.061 96.2532 385.141C95.9311 385.378 95.6028 385.586 95.2723 385.806C92.243 386.566 89.2386 387.443 86.2588 388.508C78.3142 391.361 70.4872 394.915 62.9128 399.078C56.6301 402.545 50.5348 406.619 44.8323 411.45C45.7828 410.359 46.7543 409.274 47.6882 408.15C48.5034 407.359 49.327 406.583 50.1484 405.821C56.8359 399.616 64.2589 394.828 71.5789 390C78.8127 385.233 86.0551 380.412 92.6938 374.375C98.7027 368.926 104.442 362.837 109.803 356.383C112.859 353.749 115.946 351.193 119.175 348.841C119.35 348.705 119.533 348.586 119.705 348.463C119.752 348.447 119.798 348.432 119.834 348.413C121.674 348.46 123.498 348.739 125.254 349.516C127.869 350.67 130.339 352.791 132.567 354.861C132.757 355.036 133.204 354.567 133.049 354.304C130.758 350.307 127.606 347.731 124.131 347.106C126.126 346.663 128.162 346.44 130.175 346.433C131.399 346.431 132.652 346.395 133.868 346.516C134.945 346.615 136.123 346.838 137.207 346.757C137.274 346.886 137.539 346.663 137.422 346.507ZM132.839 337.495C128.818 340.561 124.698 343.42 120.602 346.341C119.708 346.666 118.814 347.061 117.935 347.501C118.055 347.365 118.175 347.229 118.295 347.093C122.457 342.809 127.414 338.537 132.839 337.495ZM105.677 350.46C105.058 351.734 104.441 352.995 103.841 354.289C104.311 352.92 104.96 351.667 105.677 350.46ZM107.288 350.642C107.102 351.192 106.928 351.733 106.741 352.284C106.503 352.542 106.276 352.804 106.037 353.062C106.473 352.255 106.884 351.457 107.288 350.642ZM117.142 296.306C112.935 301.15 108.461 305.617 104.486 310.786C107.881 304.867 112.036 299.661 117.142 296.306ZM38.5651 415.367C40.921 411.366 43.7297 407.678 46.4373 404.075C49.5476 399.936 52.7878 395.942 55.9066 391.819C59.0401 387.672 61.9411 383.269 64.8422 378.866C76.4929 361.17 86.841 342.047 95.2834 321.579C98.192 314.529 100.71 307.323 102.916 299.951C99.6215 313.452 94.8306 326.395 89.2919 338.615C80.6264 357.743 69.9738 375.351 58.4276 391.778C57.24 393.462 56.0253 395.112 54.8044 396.732C52.4331 398.777 50.0805 400.911 47.9833 403.363C45.981 405.699 44.2171 408.391 42.5663 411.195C42.1849 411.598 41.8057 411.987 41.4348 412.392C40.3369 413.584 39.2431 414.819 38.1765 416.089C38.2949 415.827 38.43 415.597 38.5651 415.367ZM36.2768 422.229C34.5224 425.272 32.5958 428.297 30.312 430.616C32.1418 427.649 34.1141 424.817 36.2768 422.229ZM84.8062 304.231C83.3482 310.139 81.6994 315.94 79.8912 321.645C78.292 324.058 77.0844 326.895 76.7001 329.778C76.6809 329.898 76.8387 329.8 76.8599 329.735C77.387 327.601 78.1972 325.609 79.2108 323.782C77.422 329.296 75.4823 334.73 73.402 340.085C76.8114 328.329 79.7594 316.314 84.3832 305.236C84.5249 304.897 84.6666 304.557 84.8062 304.231ZM67.7995 352.566C67.393 353.673 66.9781 354.764 66.5528 355.852C67.2283 353.951 67.8137 351.998 68.3089 349.995C68.1279 350.854 67.9595 351.702 67.7995 352.566ZM31.4595 409.825C35.4772 399.872 39.1553 389.65 41.9438 379.043C44.3713 369.806 46.6435 360.514 48.5968 351.098C51.3956 337.622 53.574 323.65 53.9648 309.646C53.9881 313.262 53.8938 316.862 53.7324 320.402C53.1956 331.832 52.1784 343.053 50.0479 354.193C45.7614 376.635 37.8949 397.741 29.1174 417.844C26.2374 424.441 23.1897 430.924 20.2488 437.491C19.8091 438.464 19.3882 439.456 18.9485 440.428C16.3376 445.478 13.8419 450.628 11.5286 455.936C17.9947 440.445 25.1611 425.429 31.4595 409.825ZM-0.959315 490.225C1.05342 483.514 3.39775 476.918 5.7858 470.458C5.9806 469.923 6.19424 469.407 6.38689 468.886C3.53439 476.884 1.09491 485.17 -1.3086 493.368C-1.83468 495.155 -2.33141 496.963 -2.80714 498.777C-2.21919 495.919 -1.61024 493.067 -0.959315 490.225ZM28.5106 384.637C31.6626 370.319 33.8554 355.71 34.7546 340.988C35.2624 354.431 34.9404 367.868 32.764 381.144C29.1145 403.431 21.1045 423.998 12.8064 443.974C11.55 446.979 10.2726 449.978 9.00568 452.98C9.35328 451.899 9.68825 450.83 10.0232 449.76C16.7605 428.332 23.6069 406.904 28.5106 384.637ZM19.2774 384.061C19.286 384.008 19.2967 383.941 19.3074 383.874C19.556 383.618 19.8046 383.362 20.0449 383.09C19.6265 384.682 19.2207 386.263 18.8338 387.863C18.9824 386.591 19.1415 385.322 19.2774 384.061ZM19.7107 381.693C21.1504 374.805 23.333 368.194 26.2179 362.115C24.3999 368.291 22.4307 374.455 20.6987 380.709C20.3681 381 20.0415 381.333 19.7107 381.693ZM9.24644 383.348C9.26858 383.688 9.29285 384.015 9.31499 384.355C9.26699 384.245 9.24291 383.849 9.24644 383.348ZM8.6923 361.849C9.80188 366.124 10.3371 370.71 10.6563 375.142C10.2111 370.677 9.59157 366.209 8.6923 361.849ZM13.0556 400.828C16.3676 377.576 18.9182 353.888 19.3283 330.187C19.5463 334.021 19.695 337.879 19.7239 341.733C19.7727 347.447 19.4058 353.095 19.1836 358.794C18.9348 365.001 18.5117 371.206 17.9731 377.38C15.821 401.994 11.3929 426.211 5.64931 449.835C3.44924 458.88 1.717 468.145 -0.317268 477.248C-0.397949 477.547 -0.478632 477.847 -0.559315 478.147C0.365597 473.523 1.27788 468.909 2.1818 464.279C6.24993 443.272 10.0201 422.146 13.0556 400.828ZM-9.87105 524.985C-9.78544 523.697 -9.62422 522.414 -9.45465 521.148C-8.98478 519.918 -8.62763 518.436 -8.47503 517.96C-8.4517 517.883 -8.42837 517.805 -8.40718 517.741C-8.47975 518.879 -8.53133 520.022 -8.54928 521.161C-8.66438 521.744 -8.83624 522.34 -9.1251 522.711C-9.56149 523.253 -9.02701 523.671 -8.62036 523.247C-8.58246 523.215 -8.56341 523.164 -8.52337 523.119C-8.5164 523.623 -8.53041 524.121 -8.51081 524.614C-8.45783 525.924 -8.27249 527.226 -8.06402 528.521C-8.43118 528.356 -8.79618 528.177 -9.12116 527.953C-10.0228 527.37 -9.94556 526.066 -9.87105 524.985ZM-4.94501 529.458C-5.45095 529.34 -5.99673 529.198 -6.54038 529.043C-6.37807 528.848 -6.24297 528.619 -6.17298 528.386C-5.97669 528.799 -5.412 528.207 -5.36903 527.87C-4.67985 522.669 -4.64376 517.382 -3.84534 512.181C-3.00629 506.726 -1.69706 501.407 -0.249454 496.18C2.49724 486.246 5.5172 476.243 9.01063 466.697C16.0801 447.363 26.0343 430.089 36.277 413.336C36.4268 413.083 36.5872 412.832 36.7371 412.578C35.47 414.897 34.2156 417.205 32.9674 419.543C24.4814 435.428 16.5483 451.889 10.5423 469.563C6.34117 481.963 3.44327 494.827 1.32186 507.963C0.742106 510.154 0.202204 512.37 -0.255878 514.62C-0.944164 518.037 -1.51352 521.736 -1.05502 525.229C-1.15421 526.123 -1.26389 527.014 -1.36521 527.922C-1.46012 528.789 -0.808779 528.75 -0.219421 528.345C-0.208925 528.348 -0.198427 528.351 -0.198427 528.351C-0.322638 528.444 -0.434409 528.596 -0.487286 528.722C-0.698795 529.224 -0.853151 529.575 -0.98651 529.93C-2.28491 529.983 -3.61826 529.775 -4.94501 529.458ZM41.7078 477.92C41.9321 478.09 42.15 478.3 42.3572 478.577C42.5455 478.835 42.7212 479.104 42.8821 479.397C42.6411 479.195 42.3811 479.043 42.1294 478.908C41.998 478.567 41.8645 478.24 41.7078 477.92ZM52.0419 475.507C53.7173 475.831 55.3673 476.246 56.9811 476.82C52.3364 476.81 47.6884 475.796 43.0441 475.647C42.1069 475.013 40.9953 475.128 40.0105 475.681C39.4579 475.718 38.9032 475.769 38.3463 475.833C40.2362 475.363 42.149 474.955 44.1031 474.836C46.7673 474.651 49.4049 474.974 52.0419 475.507ZM39.6924 462.008C39.555 462.32 39.4491 462.641 39.3641 462.968C39.3301 463.112 39.334 463.225 39.3652 463.302C38.3047 463.919 37.2525 464.551 36.2045 465.226C37.4277 464.276 38.5946 463.199 39.6924 462.008ZM24.9352 475.885C33.9131 468.003 44.4031 460.989 55.2246 458.535C58.0393 457.887 61.1452 457.538 63.9722 458.454C51.1756 466.221 37.0994 470.365 24.9406 479.887C18.2938 485.086 12.6047 491.816 8.51346 500.314C7.31734 502.804 6.25533 505.413 5.30236 508.093C5.81058 505.939 6.34814 503.807 6.94033 501.675C7.35851 500.153 7.80819 498.639 8.27886 497.13C12.0078 488.232 18.4635 481.562 24.9352 475.885ZM81.8057 424.441C79.7479 424.114 77.6923 423.775 75.6258 423.572C74.8067 423.498 73.9833 423.451 73.1557 423.431C76.0678 423.269 78.9994 423.599 81.8057 424.441ZM64.8256 417.821C65.1819 417.37 65.5382 416.92 65.8966 416.455C65.462 417.123 65.0671 417.815 64.7415 418.552C64.621 418.828 64.6247 419.01 64.7042 419.128C64.5611 419.202 64.4159 419.29 64.2602 419.375C64.5283 418.929 64.7021 418.389 64.8256 417.821ZM46.7841 434.19C56.0242 425.693 66.1814 419.735 77.0133 415.848C58.197 426.942 39.8675 441.145 25.2538 459.938C31.4976 450.216 38.774 441.557 46.7841 434.19ZM5.37223 500.542C4.3813 504.006 3.50156 507.527 2.76875 511.086C2.9531 509.796 3.15007 508.495 3.35754 507.197C3.97948 504.947 4.67488 502.716 5.37223 500.542ZM82.4861 392.14C89.0309 389.563 95.6615 387.817 102.402 386.546C79.2096 395.609 55.7797 406.088 37.2705 426.614C30.6681 433.929 24.8984 442.394 20.0676 451.69C18.1602 455.347 16.4246 459.161 14.7582 463.021C15.1859 461.85 15.6241 460.681 16.0728 459.516C18.369 453.562 20.8917 447.764 23.5402 442.069C25.2501 439.168 26.9704 436.271 28.6636 433.338C28.862 432.985 29.0794 432.651 29.2862 432.315C33.9905 429.078 37.4344 422.921 40.5882 417.552C46.2719 411.95 52.564 407.398 59.0517 403.468C66.5916 398.906 74.4944 395.288 82.4861 392.14ZM96.4896 368.546C90.0684 374.932 83.2322 380.221 76.0402 385.069C68.7641 389.965 61.3523 394.546 54.3703 400.131C54.1808 400.291 53.9913 400.451 53.8018 400.611C54.409 399.821 55.0289 399.02 55.6257 398.228C55.7394 398.132 55.8426 398.033 55.9563 397.937C69.8964 385.548 85.0522 375.537 98.7688 362.699C104.631 357.213 110.259 351.205 115.179 344.359C118.624 339.568 121.722 334.408 124.641 329.076C122.182 335.977 118.482 342.165 114.537 347.76C112.432 350.739 110.208 353.576 107.902 356.307C106.211 357.93 104.619 359.677 103.194 361.62C103.192 361.633 103.192 361.633 103.19 361.647C100.988 364.001 98.7522 366.291 96.4896 368.546Z" fill="#F7E9F6"/>
</g>
<path opacity="0.8" d="M34.721 219.447C34.721 219.447 36.8376 219.345 37.626 217.37C38.4157 215.405 40.486 206.781 46.6226 205.613C52.7699 204.445 50.5661 204.934 48.2822 207.062C46.0091 209.189 48.2877 210.57 49.7556 212.536C51.2234 214.502 51.9151 216.186 51.9151 216.186L56.0381 212.604L56.0207 216.989L57.4868 221.211C57.4868 221.211 54.3258 218.675 53.2459 219.17C52.1768 219.665 51.6466 221.731 51.8713 222.699C52.1079 223.677 52.8638 227.233 53.924 227.743C54.9842 228.253 51.3467 228.273 49.3275 226.993C47.3083 225.713 45.501 225.285 45.5814 226.021C45.6631 226.768 48.8846 228.672 48.8846 228.672C48.8846 228.672 46.8637 229.648 45.0759 228.214C43.2882 226.779 42.0941 224.945 41.1606 224.507C38.7806 223.386 39.1839 221.345 37.9179 221.224C36.653 221.114 32.912 221.275 35.694 220.345C35.694 220.345 33.6004 219.57 34.721 219.447Z" fill="#F7E9F6"/>
<path opacity="0.8" d="M53.8105 235.787C53.8105 235.787 55.927 235.685 56.7155 233.71C57.5051 231.745 59.5755 223.121 65.7121 221.953C71.8593 220.785 69.6555 221.274 67.3717 223.402C65.0985 225.529 67.3772 226.909 68.845 228.875C70.3129 230.841 71.0046 232.525 71.0046 232.525L75.1276 228.944L75.1102 233.329L76.5763 237.551C76.5763 237.551 73.4152 235.014 72.3354 235.51C71.2662 236.005 70.7361 238.071 70.9608 239.039C71.1973 240.017 71.9533 243.572 73.0135 244.082C74.0737 244.593 70.4361 244.613 68.4169 243.333C66.3977 242.053 64.5904 241.625 64.6709 242.361C64.7525 243.107 67.974 245.011 67.974 245.011C67.974 245.011 65.9531 245.988 64.1654 244.553C62.3777 243.119 61.1835 241.285 60.25 240.847C57.8701 239.726 58.2734 237.685 57.0073 237.564C55.7424 237.454 52.0015 237.615 54.7835 236.685C54.7823 236.674 52.7005 235.908 53.8105 235.787Z" fill="#F7E9F6"/>
<path d="M118.903 282.415C118.903 282.415 120.914 278.773 125.567 278.264C130.22 277.755 129.005 277.608 129.005 277.608C129.005 277.608 132.194 274.668 132.522 275.097C132.849 275.525 132.686 277.486 132.686 277.486C132.686 277.486 140.412 279.696 141.195 279.146C141.966 278.598 144.46 276.015 144.549 276.836C144.639 277.658 143.674 279.793 143.674 279.793C143.674 279.793 144.961 283.074 144.684 283.104C144.406 283.134 141.711 281.303 141.232 281.171C140.754 281.04 135.307 282.003 134.001 282.696C134.001 282.696 135.402 283.655 134.771 283.81C134.141 283.976 132.27 282.972 132.27 282.972C132.27 282.972 121.193 285.575 118.903 282.415Z" fill="#F7E9F6"/>
<path d="M135.523 294.922C135.523 294.922 137.533 291.28 142.186 290.771C146.85 290.261 145.625 290.115 145.625 290.115C145.625 290.115 148.813 287.175 149.141 287.604C149.469 288.032 149.305 289.993 149.305 289.993C149.305 289.993 157.031 292.203 157.814 291.653C158.596 291.104 161.079 288.522 161.168 289.344C161.258 290.165 160.293 292.3 160.293 292.3C160.293 292.3 161.58 295.581 161.303 295.611C161.025 295.642 158.33 293.81 157.852 293.679C157.373 293.547 151.927 294.51 150.62 295.203C150.62 295.203 152.021 296.162 151.39 296.317C150.76 296.483 148.89 295.479 148.89 295.479C148.89 295.479 137.813 298.093 135.523 294.922Z" fill="#F7E9F6"/>
<path d="M148.973 271.56C148.973 271.56 150.415 268.941 153.756 268.576C157.107 268.21 156.232 268.111 156.232 268.111C156.232 268.111 158.529 266.003 158.757 266.313C158.985 266.623 158.88 268.027 158.88 268.027C158.88 268.027 164.432 269.611 164.982 269.216C165.533 268.821 167.329 266.973 167.393 267.56C167.458 268.147 166.762 269.691 166.762 269.691C166.762 269.691 167.679 272.052 167.487 272.073C167.295 272.094 165.359 270.783 165.013 270.681C164.667 270.578 160.758 271.276 159.819 271.778C159.819 271.778 160.823 272.467 160.371 272.581C159.919 272.695 158.577 271.978 158.577 271.978C158.577 271.978 150.615 273.831 148.973 271.56Z" fill="#F7E9F6"/>
<path d="M300.948 212.898C300.948 212.898 298.974 210.653 295.634 211.018C292.293 211.383 293.115 211.099 293.115 211.099C293.115 211.099 290.417 209.537 290.261 209.889C290.105 210.241 290.512 211.589 290.512 211.589C290.512 211.589 285.434 214.335 284.81 214.069C284.187 213.802 282.034 212.386 282.099 212.973C282.163 213.56 283.175 214.917 283.175 214.917C283.175 214.917 282.79 217.42 282.982 217.399C283.174 217.378 284.781 215.681 285.097 215.506C285.413 215.331 289.38 215.167 290.405 215.454C290.405 215.454 289.574 216.344 290.04 216.358C290.506 216.372 291.661 215.382 291.661 215.382C291.661 215.382 299.837 215.481 300.948 212.898Z" fill="#F7E9F6"/>
</svg>
