<svg id="Capa_1" enable-background="new 0 0 512 512" height="512" viewBox="0 0 512 512" width="512" xmlns="http://www.w3.org/2000/svg"><g><g><path d="m11.771 395.278c-16.548 17.467-15.521 45.12 2.276 61.312.634.577 1.284 1.124 1.942 1.656l39.253-20.356 10.791-36.267-32.371-29.452z" fill="#9a3995"/><path d="m74.135 454.36 23.083-24.365-31.184-28.372-50.044 56.623c17.301 13.98 42.652 12.468 58.145-3.886z" fill="#c9b2ff"/></g><path d="m37.69 323.579c-20.621 22.724-18.938 57.987 3.766 78.643l13.787 11.611 37.82-24.517 20.222-41.156-54.631-48.057z" fill="#c9b2ff"/><path d="m66.617 423.413c10.658 9.696 24.08 14.478 37.466 14.478 15.151 0 30.255-6.129 41.231-18.193l21.726-24.251-53.755-47.286-58.042 65.672z" fill="#9a3995"/><path d="m65.962 266.595c-21.874 24.105-20.089 61.512 3.995 83.425l23.106 21.021 48.587-29.284 13.014-40.414-66.464-59.65z" fill="#9a3995"/><g><path d="m350.569 69.714c-21.462-17.973-48.422-26.958-75.916-25.285-28.117 1.705-53.455 14.41-71.347 35.774l84.808 70.144 46.301-28.309 21.217-48.084z" fill="#c9b2ff"/><path d="m382.683 96.61-27.052-22.656-67.517 76.393 77.091 63.761 60.108-24.578c1.11-35.967-14.029-68.967-42.63-92.92z" fill="#9a3995"/></g><path d="m116.65 392.5c11.305 10.286 25.544 15.358 39.743 15.358 16.073 0 32.094-6.502 43.738-19.299l23.047-25.726-68.515-61.491-61.6 69.699z" fill="#c9b2ff"/><path d="m92.475 200.526c-19.508 21.533-17.867 54.803 3.666 74.312l45.509 41.23 73.584-54.107 49.499-85.157-82.802-75.017z" fill="#c9b2ff"/><path d="m188.466 358.483c21.533 19.508 54.803 17.867 74.312-3.666l89.456-98.739-87.502-79.275-123.083 139.264z" fill="#9a3995"/><path d="m225.769 78.739c-11.571-10.527-26.549-15.994-42.186-15.453-15.633.564-30.181 7.114-40.964 18.447l-.229.245c-20.235 22.242-30.598 51.031-29.18 81.066 1.419 30.035 14.448 57.72 36.689 77.954l32.202 29.297 82.63-50.187 30.674-78.013z" fill="#9a3995"/><path d="m489.753 121.65-11.932 13.114c-47.565 52.279-128.796 56.116-181.075 8.552l-1.341-1.22-113.304 128.201 12.725 11.577c26.062 23.712 59.333 36.555 94.329 36.555 2.252 0 4.513-.054 6.779-.161 37.462-1.769 71.992-18.02 97.229-45.76l118.837-130.617z" fill="#c9b2ff"/></g></svg>