<svg width="48" height="48" viewBox="0 0 48 48" fill="none" xmlns="http://www.w3.org/2000/svg">
<rect width="48" height="48" rx="10" fill="#F7E9F6"/>
<path d="M22.7323 17.8674C21.7664 18.2571 20.8545 18.5657 20.2415 19.3764C20.3451 18.8556 20.5956 18.4216 20.9513 18.0449C21.5501 17.4096 22.2895 16.9954 23.1097 16.7237C24.3312 16.3181 25.5681 15.9556 26.7782 15.5205C27.332 15.3214 27.846 15.0048 28.3652 14.7178C28.7152 14.5243 28.8131 14.1941 28.7311 13.814C28.586 13.1429 28.2616 12.5819 27.6889 12.1814C27.4117 11.9874 27.1129 11.921 26.7737 11.9976C25.6831 12.2443 24.6904 12.6857 23.8446 13.4283C23.7984 13.4691 23.7478 13.5049 23.6846 13.5225C24.3096 12.507 25.3097 12.0146 26.4595 11.6288C25.5487 11.2714 24.7126 11.2504 23.8793 11.5931C22.7187 12.0707 21.8341 12.8808 21.1551 13.9167C20.1504 15.449 19.6587 17.1486 19.575 18.9662C19.5442 19.6317 19.5699 20.3005 19.5699 20.9955C19.3962 20.4758 19.2272 19.9709 19.0411 19.4144C17.3574 21.3761 17.2834 23.6277 17.5925 25.9865C17.5389 25.839 17.4797 25.6927 17.4336 25.5429C17.3836 25.3806 17.3323 25.2173 17.3033 25.0505C16.8821 22.6531 17.1934 20.4021 18.6711 18.3944C18.8356 18.1709 18.831 17.9457 18.8117 17.6972C18.6489 15.626 19.193 13.7596 20.5193 12.153C21.5211 10.9401 22.8029 10.1737 24.3972 10.0171C25.2841 9.93034 26.0889 10.1726 26.772 10.7592C26.9939 10.9498 27.2023 11.0683 27.5307 11.0258C27.7607 10.9957 28.0464 11.0944 28.2507 11.2238C29.0966 11.7582 29.5633 12.5416 29.6407 13.5395C29.6772 14.0126 29.5662 14.2492 29.1643 14.6792C29.2377 14.7558 29.314 14.8335 29.3886 14.9118C29.7631 15.3066 29.8229 15.6572 29.6003 16.1536C29.5576 16.2483 29.5195 16.3453 29.4705 16.4372C29.2622 16.8287 29.2844 17.1974 29.5895 17.5497C29.2861 17.4731 29.0886 17.2309 29.0715 16.8604C29.0539 16.4747 29.0818 16.0866 29.0818 15.6992C29.0818 15.5931 29.051 15.487 28.9736 15.3843C28.9412 15.6544 28.9554 15.9408 28.866 16.1905C28.6993 16.6568 28.4807 17.1055 28.2661 17.5531C28.1961 17.6995 28.0344 17.8107 28.1614 17.9984C27.8779 18.0733 27.9752 18.3348 27.9252 18.5113C27.5876 19.7066 26.4082 20.684 25.275 20.6261C24.8913 20.6069 24.5156 20.4418 24.136 20.3436C24.1309 20.3136 24.1257 20.2829 24.1206 20.2529C24.0443 20.3782 23.9567 20.4979 23.8946 20.6295C23.6618 21.1254 23.5708 21.6529 23.5634 22.1976C23.556 22.7444 23.7444 23.2227 24.1997 23.5222C24.7188 23.8631 25.2772 24.1462 25.8299 24.4333C26.3581 24.7078 26.9285 24.9109 27.4311 25.2235C28.5644 25.9281 28.6492 27.2822 27.6536 28.1927C27.5853 28.2551 27.5148 28.3147 27.4288 28.3902C28.6315 28.8468 29.5827 29.611 30.3739 30.5793C30.9641 31.3015 31.3654 32.1179 31.5288 33.0414C31.7291 34.1726 31.4109 35.1523 30.6516 36.0004C30.0676 36.6528 29.3465 37.1038 28.5018 37.3948C28.5638 37.3217 28.6247 37.2479 28.6879 37.1764C30.494 35.1347 30.5389 32.4945 28.8091 30.3808C28.1506 29.5764 27.3406 28.966 26.3729 28.4815C26.5022 28.3226 26.62 28.1831 26.7321 28.0384C27.044 27.6362 27.3981 27.2607 27.4994 26.7325C27.5671 26.3791 27.4738 26.1136 27.1681 25.9009C26.3991 25.3648 25.6341 24.8219 24.8833 24.2614C24.5663 24.0242 24.2732 23.7502 23.9954 23.4672C23.2964 22.7552 23.0773 21.9031 23.3021 20.9353C23.3317 20.8065 23.3522 20.6738 23.3989 20.5513C23.5753 20.0912 23.688 19.6407 23.3863 19.1801C23.3141 19.07 23.3135 18.9135 23.2788 18.7762C23.2486 18.787 23.2247 18.7881 23.219 18.7983C22.627 19.9522 21.6884 20.7538 20.5796 21.3823C20.3571 21.5083 20.143 21.6541 19.9085 21.7522C19.1475 22.0716 18.8561 22.7087 18.7792 23.4547C18.7183 24.0447 18.6762 24.65 18.7388 25.2366C18.872 26.4857 18.613 27.6754 18.3592 28.8803C18.1634 29.8107 18.0006 30.7552 17.9288 31.7015C17.8446 32.8083 18.2704 33.7715 19.024 34.589C21.4647 37.2366 24.5037 38.3751 28.0805 38.1533C28.6207 38.1198 29.0539 37.8674 29.4148 37.4771C29.865 36.9904 30.3147 36.5042 30.7683 36.0209C30.8822 35.8995 31.0091 35.7911 31.1764 35.7122C31.0006 35.997 30.8218 36.2801 30.6488 36.566C30.4575 36.8814 30.2674 37.1969 30.0836 37.5162C29.5884 38.3763 28.8387 38.8715 27.8574 38.9424C24.8583 39.1591 22.1056 38.4682 19.7503 36.5479C19.0069 35.9414 18.3501 35.2198 17.7114 34.4999C17.1291 33.8436 17.0568 32.9904 17.013 32.1536C16.9322 30.5958 17.2384 29.0919 17.6465 27.5988C17.7615 27.1778 17.7945 26.7274 17.8122 26.2889C17.8435 25.5162 17.7831 24.7379 17.8537 23.9698C17.9397 23.0315 18.4741 22.3536 19.2966 21.8878C20.6952 21.0964 21.7761 20.001 22.4603 18.5374C22.5491 18.345 22.6208 18.1425 22.7323 17.8674ZM28.6048 15.0559C28.1232 15.6583 27.5148 16.0781 26.83 16.364C25.9159 16.7453 24.9801 17.0754 24.0483 17.4124C23.5645 17.5871 23.2628 18.05 23.4353 18.534C23.5713 18.9157 23.7689 19.2975 24.0239 19.6101C24.4223 20.0986 24.9807 20.2432 25.5903 20.052C26.4395 19.7854 27.0503 19.2283 27.4123 18.4228C27.4988 18.231 27.4647 17.9871 27.5011 17.7698C27.517 17.6773 27.5489 17.5673 27.6132 17.5054C28.3116 16.836 28.4932 15.9618 28.6048 15.0559Z" fill="#9A3995"/>
<path d="M19.6074 33.3664C19.8755 33.2961 20.1436 33.2263 20.4219 33.1531C20.2905 31.1341 21.163 29.3358 21.6509 27.4552C21.878 26.5787 22.1899 25.7215 22.2053 24.8031C22.2104 24.5018 22.203 24.1972 22.1626 23.8994C22.0988 23.4263 21.8689 23.0291 21.5273 22.6621C21.6173 22.6888 21.7118 22.7058 21.7971 22.7432C22.5331 23.0717 22.8263 23.6815 22.8638 24.4429C22.9122 25.4299 22.6982 26.3756 22.3863 27.3032C21.8967 28.7605 21.3919 30.2134 20.9137 31.6747C20.7589 32.1479 20.6667 32.6408 20.5398 33.1497C20.6821 33.19 20.7982 33.2223 20.9132 33.2552C21.586 33.4475 22.1398 33.8407 22.6538 34.2945C23.2708 34.8397 23.8736 35.4013 24.4912 35.9459C25.2516 36.6165 26.0491 37.232 27.0588 37.5031C27.0486 37.536 27.0383 37.5689 27.0281 37.6013C26.604 37.4946 26.1692 37.4175 25.7571 37.2751C24.9596 36.9988 24.2806 36.5121 23.6283 35.9902C22.9259 35.4285 22.236 34.8516 21.5268 34.2991C20.9633 33.86 20.3628 33.4833 19.6097 33.4521C19.6091 33.4243 19.608 33.3953 19.6074 33.3664Z" fill="#9A3995"/>
<path d="M25.6636 17.1213C25.9635 17.2416 26.2003 17.3278 26.4291 17.4316C26.5464 17.485 26.6494 17.5706 26.7371 17.6801C26.3523 17.7204 26.0148 17.6296 25.7154 17.4226C25.5366 17.2995 25.5469 17.2206 25.6636 17.1213Z" fill="#9A3995"/>
</svg>
