<svg width="48" height="48" viewBox="0 0 48 48" fill="none" xmlns="http://www.w3.org/2000/svg">
<rect width="48" height="48" rx="10" fill="#F7E9F6"/>
<path d="M18.375 23.875L26.25 16C26.75 15.5 27.5 15.125 28.375 15.125C29.25 15.125 30 15.5 30.625 16C31.875 17.25 31.875 19.25 30.625 20.375L27.125 23.875H28.875L31.375 21.375C33.125 19.625 33.125 16.875 31.375 15.25C30.5 14.375 29.375 14 28.25 14C27.125 14 26.125 14.25 25.25 15.125L17.375 23.125C17 23.375 16.75 23.75 16.5 24.25C17.125 24 17.75 23.875 18.375 23.875Z" fill="#9A3995"/>
<path d="M23.125 20.8751L20.125 23.8751H26L23.125 20.8751Z" fill="#9A3995"/>
<path d="M29.625 25.1249H18.375C16 25.1249 14 27.1249 14 29.4999C14 31.8749 16 33.8749 18.375 33.8749H29.625C32 33.8749 34 31.8749 34 29.4999C34 27.1249 32 25.1249 29.625 25.1249ZM29.625 32.6249H24V27.6249H18.375C17 27.6249 15.875 28.3749 15.25 29.1249C15.5 27.6249 16.75 26.3749 18.375 26.3749H29.625C31.375 26.3749 32.75 27.7499 32.75 29.4999C32.75 31.2499 31.375 32.6249 29.625 32.6249Z" fill="#9A3995"/>
</svg>
