<svg width="375" height="232" viewBox="0 0 375 232" fill="none" xmlns="http://www.w3.org/2000/svg">
<mask id="mask0" mask-type="alpha" maskUnits="userSpaceOnUse" x="0" y="0" width="375" height="232">
<rect width="375" height="232" fill="#9A3995"/>
</mask>
<g mask="url(#mask0)">
<g opacity="0.15">
<path opacity="0.2" d="M-57.3438 134.148C-57.3438 134.148 -57.1694 134.257 -56.8354 134.475C-56.5521 134.649 -56.1744 134.881 -55.6951 135.164C-54.7364 135.723 -53.3855 136.471 -51.6279 137.335C-48.1199 139.07 -42.9924 141.313 -36.2452 143.316C-29.5125 145.312 -21.1167 147.062 -11.3845 147.505C-1.67403 147.962 9.38003 147.047 20.79 143.969C22.2135 143.592 23.6443 143.178 25.0823 142.728C25.8013 142.51 26.5204 142.271 27.2321 142.031C27.8785 141.814 28.5249 141.596 29.1713 141.378C29.8322 141.16 30.4931 140.935 31.154 140.718C31.4881 140.609 31.8222 140.492 32.1491 140.384L33.0714 140.101C33.6888 139.912 34.3061 139.716 34.9235 139.527L35.8604 139.237L36.8336 138.961C42.0265 137.458 47.4664 136.173 53.1242 135.172C58.7747 134.155 64.6503 133.495 70.7003 133.125C76.7502 132.791 82.9745 132.769 89.3295 133.125C102.054 133.793 115.28 135.905 128.897 138.576C130.604 138.91 132.311 139.251 134.025 139.585L134.773 139.73L135.419 139.846L136.727 140.086L138.237 140.326L138.993 140.442L139.719 140.536C141.651 140.812 143.605 140.964 145.558 141.08C147.512 141.175 149.48 141.211 151.434 141.153C155.349 141.044 159.242 140.616 163.04 139.934C166.839 139.251 170.543 138.308 174.13 137.219C181.313 135.041 188.032 132.297 194.575 129.771C201.112 127.238 207.503 124.922 213.945 123.333C220.38 121.736 226.852 120.872 233.308 120.879C239.758 120.879 246.156 121.736 252.359 123.216C265.083 126.272 277.212 130.395 288.854 134.192C294.679 136.086 300.402 137.894 306.038 139.404C311.667 140.914 317.216 142.126 322.605 142.902C328.001 143.679 333.238 144.013 338.205 143.926C343.173 143.853 347.865 143.338 352.208 142.583C360.902 141.051 368.165 138.547 373.968 136.188C379.771 133.814 384.15 131.571 387.106 130.011C388.588 129.227 389.706 128.61 390.462 128.189C391.217 127.768 391.602 127.55 391.602 127.55L391.13 126.664C391.13 126.664 390.73 126.86 389.961 127.238C389.191 127.623 388.05 128.174 386.54 128.871C383.526 130.265 379.081 132.254 373.249 134.293C367.424 136.311 360.19 138.38 351.736 139.411C347.509 139.919 342.984 140.173 338.235 139.992C333.485 139.825 328.517 139.244 323.397 138.228C318.276 137.219 313.018 135.774 307.629 134.025C302.24 132.275 296.72 130.207 291.041 128.022C279.674 123.645 267.603 118.81 254.574 114.941C247.914 112.974 240.847 111.631 233.577 111.239C226.314 110.84 218.877 111.435 211.65 112.836C204.409 114.23 197.386 116.378 190.595 118.6C183.797 120.821 177.195 123.1 170.673 124.704C164.151 126.323 157.709 127.223 151.376 127.049C149.793 127.005 148.217 126.897 146.655 126.737C145.094 126.548 143.532 126.352 141.985 126.047C139.247 125.568 135.565 124.523 132.195 123.703C118.512 120.262 104.603 117.235 90.7457 115.769C83.8242 115.014 76.9245 114.665 70.1555 114.68C63.3793 114.731 56.7338 115.123 50.2989 115.928C43.8713 116.72 37.6543 117.838 31.7206 119.224C31.3501 119.311 30.9797 119.391 30.6093 119.478C30.2317 119.572 29.854 119.667 29.4836 119.761C28.7355 119.95 27.9802 120.139 27.2394 120.327C26.869 120.422 26.4986 120.516 26.1209 120.61C25.7795 120.705 25.4454 120.799 25.1041 120.894C24.4286 121.082 23.7605 121.264 23.0923 121.452C22.4168 121.641 21.7414 121.83 21.0732 122.011C20.4777 122.178 19.8894 122.338 19.2938 122.483C18.11 122.788 16.9407 123.057 15.7713 123.303C6.4531 125.285 -2.24779 125.525 -9.80115 124.763C-17.369 124.008 -23.8039 122.302 -28.8952 120.494C-33.9937 118.68 -37.7558 116.77 -40.1526 115.42C-41.351 114.745 -42.2007 114.208 -42.7164 113.867C-42.9706 113.7 -43.1376 113.577 -43.2248 113.518C-43.2393 113.504 -43.2611 113.497 -43.2684 113.482C-43.2756 113.475 -43.2974 113.46 -43.2684 113.475C-43.2538 113.482 -43.232 113.497 -43.2393 113.489C-43.2538 113.482 -43.2538 113.475 -43.2538 113.475L-57.3438 134.148Z" fill="url(#paint0_linear)"/>
<path opacity="0.2" d="M-56.2734 104.176C-56.2734 104.176 -56.2662 104.176 -56.2516 104.184C-56.2226 104.198 -56.1863 104.227 -56.1282 104.256C-56.0846 104.278 -56.0265 104.314 -55.9611 104.35C-55.903 104.38 -55.8449 104.416 -55.7723 104.452C-55.4891 104.605 -55.1114 104.793 -54.6248 105.026C-53.6588 105.483 -52.2789 106.1 -50.5067 106.811C-46.9552 108.219 -41.8058 110.041 -35.1458 111.537C-28.5076 113.054 -20.3296 114.23 -11.0332 114.215C-8.70904 114.208 -6.31956 114.121 -3.86472 113.939C-1.41714 113.765 1.08854 113.511 3.6378 113.141C6.18706 112.778 8.7799 112.284 11.409 111.704C14.0382 111.13 16.6891 110.433 19.3619 109.62C20.6982 109.214 22.0346 108.778 23.3782 108.307C24.0537 108.082 24.7219 107.827 25.39 107.588C26.0364 107.356 26.6756 107.116 27.3292 106.884C27.9829 106.644 28.6365 106.405 29.2974 106.165C29.6243 106.042 29.9584 105.926 30.2852 105.802L31.2512 105.476C32.5512 105.047 33.8367 104.576 35.1949 104.169C37.8821 103.312 40.6348 102.514 43.46 101.817C44.1645 101.643 44.8763 101.461 45.588 101.287C46.307 101.128 47.0261 100.961 47.7451 100.801C49.1831 100.46 50.6502 100.184 52.1246 99.8863C52.8581 99.7338 53.6062 99.6104 54.347 99.4725C55.0951 99.3419 55.8432 99.2185 56.5912 99.0878C58.1019 98.8773 59.6126 98.6232 61.1523 98.449C61.9222 98.3547 62.692 98.2603 63.4619 98.1659C64.2317 98.0716 65.0089 98.0135 65.7933 97.9336C67.3475 97.7739 68.9235 97.6796 70.4996 97.5562C76.8255 97.1715 83.3258 97.1424 89.9277 97.5417C103.146 98.2821 116.713 100.627 130.367 103.581C132.074 103.951 133.788 104.321 135.502 104.699L138.095 105.243C138.974 105.396 139.86 105.577 140.739 105.701C142.496 105.991 144.276 106.165 146.055 106.31C147.842 106.434 149.628 106.499 151.422 106.492C155.003 106.463 158.591 106.158 162.128 105.592C165.672 105.026 169.165 104.227 172.615 103.291C179.515 101.396 186.197 98.8918 192.864 96.5327C199.524 94.1736 206.22 92.0104 213.004 90.5659C216.396 89.8545 219.809 89.2956 223.223 88.998C226.636 88.6786 230.05 88.6132 233.427 88.7366C240.189 88.998 246.82 90.1376 253.146 91.9451C259.515 93.767 265.71 95.8068 271.724 97.9699C277.738 100.133 283.584 102.383 289.315 104.539C295.038 106.71 300.645 108.786 306.186 110.557C311.721 112.343 317.19 113.845 322.557 114.898C327.924 115.95 333.175 116.596 338.208 116.778C343.241 116.966 348.049 116.749 352.531 116.233C357.012 115.711 361.166 114.941 364.957 114.034C368.741 113.112 372.177 112.11 375.241 111.094C381.364 109.061 386.027 107.102 389.172 105.715C389.956 105.367 390.653 105.062 391.256 104.793C391.852 104.517 392.353 104.292 392.759 104.104C393.566 103.733 393.987 103.545 393.987 103.545L388.809 93.8542C388.809 93.8542 388.438 94.0719 387.719 94.5002C387 94.9285 385.94 95.5673 384.531 96.3585C381.705 97.9264 377.544 100.198 372.031 102.579C366.519 104.938 359.648 107.421 351.463 108.953C349.422 109.345 347.294 109.642 345.093 109.889C342.893 110.136 340.619 110.288 338.281 110.339C333.596 110.441 328.643 110.179 323.501 109.439C318.359 108.706 313.013 107.559 307.53 106.071C302.047 104.583 296.418 102.79 290.629 100.873C284.848 98.9426 278.9 96.9029 272.77 94.943C266.64 92.9831 260.336 91.0667 253.836 89.4117C247.292 87.764 240.458 86.7042 233.507 86.5808C226.556 86.4428 219.526 87.2558 212.641 88.7947C198.82 91.8652 185.841 98.0208 172.238 101.824C165.447 103.741 158.438 104.902 151.437 104.902C149.686 104.902 147.943 104.83 146.2 104.699C144.464 104.539 142.729 104.365 141.015 104.075C137.608 103.567 134.18 102.63 130.767 101.875C117.127 98.7249 103.56 95.9302 90.1892 94.5365C83.5074 93.8179 76.8909 93.4622 70.3906 93.4331C63.8977 93.4331 57.5209 93.7453 51.3329 94.3986C49.7859 94.5728 48.2462 94.718 46.7283 94.943C45.9657 95.0446 45.2103 95.1462 44.455 95.2479C43.6997 95.364 42.9516 95.4874 42.2035 95.6035C40.7074 95.8286 39.2258 96.0972 37.7587 96.373C36.2843 96.6125 34.839 96.9247 33.3937 97.2078C31.9557 97.4763 30.5176 97.832 29.0941 98.1442C28.7382 98.224 28.3823 98.3039 28.0265 98.3837C27.6851 98.4708 27.3437 98.5506 27.0024 98.6378C26.3197 98.8047 25.6442 98.9717 24.9688 99.1386C24.2933 99.3056 23.6179 99.4725 22.9497 99.6395C22.3106 99.7992 21.6715 99.9516 21.0323 100.09C19.7613 100.373 18.4903 100.619 17.2339 100.837C14.7209 101.28 12.2588 101.614 9.84753 101.839C7.43627 102.064 5.07584 102.158 2.78078 102.173C0.485722 102.187 -1.73671 102.115 -3.89377 101.955C-6.04358 101.781 -8.12801 101.541 -10.1253 101.229C-18.1217 100.002 -24.7745 97.7304 -29.9601 95.4439C-35.1458 93.121 -38.8862 90.7837 -41.2393 89.1141C-42.4159 88.2793 -43.2439 87.6115 -43.7523 87.176C-44.0065 86.9582 -44.1735 86.8058 -44.2534 86.7114C-44.2752 86.6896 -44.297 86.6679 -44.3043 86.6606C-44.3115 86.6461 -44.3333 86.6316 -44.3115 86.6388C-44.3043 86.6388 -44.2825 86.6534 -44.297 86.6388C-44.3043 86.6316 -44.3115 86.6243 -44.3115 86.6243L-56.2734 104.176Z" fill="white"/>
<path opacity="0.2" d="M-16.0586 214.01C-16.0586 214.01 -16.0513 214.01 -16.0368 214.018C-16.0078 214.032 -15.9714 214.061 -15.9133 214.09C-15.8698 214.112 -15.8117 214.148 -15.7463 214.185C-15.6882 214.214 -15.6301 214.25 -15.5575 214.286C-15.2815 214.439 -14.8965 214.635 -14.4172 214.867C-13.4512 215.332 -12.0858 215.949 -10.3209 216.667C-6.78394 218.09 -1.65637 219.941 5.01093 221.487C11.6564 223.055 19.878 224.296 29.2398 224.325C31.5784 224.333 33.9897 224.253 36.4518 224.079C38.9139 223.912 41.4341 223.665 43.9979 223.302C46.5617 222.946 49.1618 222.46 51.791 221.886C54.4201 221.313 57.0783 220.631 59.7365 219.818C60.4047 219.622 61.0656 219.404 61.7338 219.186C62.402 218.976 63.0702 218.743 63.7311 218.511C64.3993 218.286 65.0674 218.039 65.7356 217.792C66.3748 217.56 67.0139 217.328 67.653 217.088C68.2994 216.856 68.9458 216.616 69.5995 216.377L70.5799 216.021L71.5386 215.695C72.1778 215.477 72.8242 215.259 73.4706 215.041L74.4438 214.707L75.4388 214.395C78.097 213.546 80.8278 212.747 83.6313 212.058C84.3358 211.884 85.0403 211.702 85.7448 211.528C86.4565 211.368 87.1683 211.209 87.8873 211.049C89.3181 210.708 90.7779 210.432 92.2378 210.142C92.9713 209.989 93.7049 209.866 94.4529 209.735C95.1937 209.604 95.9418 209.481 96.6899 209.35C98.1933 209.147 99.704 208.9 101.229 208.726C101.992 208.632 102.762 208.545 103.532 208.45C104.301 208.363 105.078 208.298 105.848 208.218C107.403 208.051 108.964 207.957 110.54 207.84C116.844 207.448 123.337 207.441 129.925 207.84C143.114 208.603 156.63 210.969 170.219 213.938C171.918 214.308 173.625 214.686 175.325 215.056C176.204 215.244 177.039 215.426 177.91 215.593C178.789 215.745 179.668 215.92 180.547 216.043C184.062 216.587 187.643 216.834 191.23 216.812C193.024 216.783 194.811 216.704 196.598 216.544C198.384 216.377 200.156 216.152 201.929 215.869C205.458 215.288 208.937 214.482 212.365 213.531C219.221 211.622 225.831 209.125 232.425 206.781C239.02 204.436 245.658 202.287 252.413 200.85C255.79 200.139 259.182 199.587 262.588 199.297C265.987 198.985 269.393 198.927 272.763 199.05C279.503 199.34 286.105 200.487 292.373 202.309C298.692 204.138 304.836 206.171 310.784 208.327C316.74 210.483 322.521 212.718 328.193 214.853C333.851 217.008 339.414 219.07 344.912 220.834C350.41 222.605 355.85 224.108 361.217 225.153C366.577 226.205 371.843 226.837 376.891 227.011C381.938 227.193 386.761 226.946 391.249 226.416C395.73 225.864 399.892 225.095 403.669 224.173C407.453 223.251 410.859 222.22 413.895 221.19C419.974 219.135 424.579 217.183 427.687 215.803C428.464 215.455 429.154 215.15 429.742 214.889C430.331 214.62 430.825 214.388 431.224 214.206C432.023 213.836 432.43 213.648 432.43 213.648L426.779 204.465C426.779 204.465 426.416 204.683 425.719 205.104C425.014 205.525 423.983 206.156 422.596 206.926C419.829 208.465 415.761 210.715 410.336 213.06C404.903 215.368 398.134 217.872 390.022 219.418C385.969 220.166 381.59 220.718 376.927 220.805C372.271 220.914 367.34 220.645 362.227 219.905C357.114 219.172 351.805 218.025 346.365 216.537C340.925 215.049 335.347 213.256 329.609 211.354C323.879 209.43 317.989 207.39 311.91 205.43C305.831 203.471 299.578 201.547 293.121 199.885C286.613 198.215 279.786 197.134 272.829 196.974C265.871 196.821 258.84 197.613 251.977 199.152C238.199 202.208 225.402 208.305 211.908 212.138C205.175 214.069 198.195 215.266 191.209 215.295C187.722 215.303 184.236 215.041 180.815 214.497C177.424 213.996 174.017 213.074 170.626 212.312C157.051 209.154 143.543 206.36 130.186 204.966C123.512 204.247 116.895 203.906 110.395 203.87C103.895 203.855 97.5179 204.211 91.3372 204.879C89.7902 205.053 88.2577 205.213 86.7398 205.43C85.9772 205.532 85.2219 205.641 84.4665 205.743C83.7112 205.866 82.9631 205.982 82.2223 206.106C80.7261 206.331 79.2518 206.614 77.792 206.882C76.3176 207.129 74.8796 207.441 73.4415 207.732L72.3666 207.949L71.2917 208.196C70.5727 208.363 69.8609 208.523 69.1492 208.682C68.7933 208.762 68.4374 208.842 68.0888 208.929L67.072 209.183C66.3965 209.35 65.7211 209.524 65.0529 209.691C64.3775 209.858 63.7093 210.033 63.0484 210.2C62.4165 210.367 61.7846 210.512 61.1455 210.642C60.5136 210.78 59.889 210.918 59.2572 211.042C58.6326 211.165 58.0079 211.296 57.3833 211.397C54.8922 211.84 52.4446 212.174 50.0551 212.406C47.6584 212.631 45.3198 212.726 43.0465 212.747C40.7732 212.762 38.5653 212.697 36.43 212.537C34.2947 212.37 32.2394 212.123 30.2639 211.826C22.3546 210.613 15.8181 208.356 10.7486 206.113C5.67912 203.826 2.06222 201.54 -0.196531 199.914C-1.32954 199.101 -2.12118 198.455 -2.59327 198.034C-2.83294 197.823 -2.98546 197.678 -3.06535 197.591C-3.08714 197.569 -3.10167 197.555 -3.10894 197.54C-3.1162 197.526 -3.13799 197.511 -3.10894 197.526C-3.06536 197.547 -3.10167 197.518 -3.10167 197.518L-16.0586 214.01Z" fill="url(#paint1_linear)"/>
<path opacity="0.2" d="M624 186.224C624 186.224 623.811 186.136 623.426 185.977C623.034 185.81 622.526 185.599 621.85 185.331C620.506 184.794 618.553 184.06 616.011 183.189C610.927 181.462 603.468 179.219 593.815 177.215C584.17 175.219 572.31 173.462 558.634 172.853C544.973 172.236 529.474 172.787 512.9 175.357C510.83 175.691 508.738 175.996 506.64 176.417C504.584 176.809 502.507 177.201 500.415 177.6C498.36 177.992 496.239 178.428 494.213 178.769C492.165 179.132 490.109 179.509 487.989 179.836C479.549 181.215 470.768 182.347 461.704 183.182C452.64 184.017 443.286 184.503 433.706 184.677C428.92 184.735 424.068 184.757 419.18 184.641C416.733 184.612 414.271 184.503 411.801 184.431C409.332 184.322 406.848 184.227 404.357 184.075C399.375 183.806 394.341 183.443 389.279 183.001C384.217 182.572 379.118 182.05 373.991 181.469C363.728 180.315 353.35 178.885 342.87 177.346C340.248 176.954 337.619 176.562 334.989 176.17L332.963 175.865L330.98 175.589L329.985 175.451L328.939 175.321L326.848 175.067C321.342 174.471 315.786 174.101 310.223 174.065C299.089 173.942 287.955 175.045 277.112 176.889C266.254 178.718 255.679 181.237 245.235 183.618C234.798 186.006 224.456 188.22 214.114 189.679C203.772 191.152 193.436 191.878 183.203 191.711C172.977 191.566 162.882 190.55 153.055 188.873C143.17 187.153 133.467 185.142 124.004 183.044C114.533 180.946 105.287 178.732 96.2596 176.627C87.2319 174.522 78.4148 172.512 69.8083 170.82C61.2091 169.129 52.8278 167.757 44.7224 166.821C36.6171 165.884 28.8023 165.383 21.3578 165.282C13.9207 165.202 6.86119 165.485 0.266529 166.073C-6.32814 166.639 -12.4652 167.496 -18.0939 168.461C-23.7299 169.427 -28.8575 170.515 -33.4549 171.604C-42.6569 173.796 -49.7527 175.952 -54.568 177.477C-55.7736 177.861 -56.834 178.202 -57.7491 178.5C-58.6642 178.805 -59.4268 179.059 -60.0442 179.27C-61.2788 179.683 -61.918 179.894 -61.918 179.894L-61.6783 180.547C-61.6783 180.547 -61.0392 180.351 -59.79 179.966C-59.1654 179.778 -58.3955 179.538 -57.4804 179.255C-56.558 178.986 -55.4904 178.667 -54.2847 178.311C-49.4477 176.91 -42.3155 174.936 -33.1135 172.969C-23.9115 171.023 -12.6105 169.114 0.462627 168.28C6.99193 167.851 13.9643 167.742 21.2997 167.997C28.6279 168.272 36.3193 168.947 44.2794 170.065C52.2467 171.176 60.4828 172.729 68.9513 174.609C77.4198 176.482 86.1279 178.689 95.083 181.004C112.993 185.657 131.906 190.71 151.9 194.687C161.967 196.655 172.396 197.961 183.022 198.36C193.64 198.796 204.44 198.288 215.174 197.018C225.916 195.762 236.585 193.736 247.138 191.588C257.698 189.446 268.171 187.225 278.644 185.715C289.117 184.191 299.605 183.422 310.005 183.777C315.205 183.937 320.369 184.402 325.49 185.084L327.371 185.36L328.308 185.498L329.295 185.657L331.271 185.984L333.188 186.318C335.817 186.775 338.446 187.233 341.068 187.683C351.57 189.476 362.044 191.181 372.466 192.604C377.673 193.323 382.866 193.976 388.037 194.542C393.208 195.116 398.358 195.617 403.478 196.009C406.035 196.226 408.591 196.379 411.133 196.553C413.682 196.691 416.21 196.858 418.737 196.952C423.785 197.192 428.804 197.293 433.764 197.351C443.685 197.409 453.417 197.141 462.859 196.495C472.301 195.856 481.466 194.891 490.291 193.664C492.492 193.381 494.699 193.025 496.878 192.691C499.093 192.365 501.142 191.994 503.226 191.646C505.274 191.305 507.308 190.971 509.32 190.637C511.281 190.296 513.241 190.056 515.181 189.795C530.68 187.77 545.053 187.603 557.668 188.474C570.298 189.345 581.171 191.225 589.944 193.257C598.725 195.297 605.414 197.489 609.83 199.115C612.038 199.928 613.679 200.596 614.74 201.046C615.27 201.271 615.669 201.453 615.88 201.547C616.105 201.649 616.221 201.707 616.221 201.707L624 186.224Z" fill="white"/>
<path opacity="0.4" d="M391.14 66.9022C391.031 66.8224 389.564 65.7771 386.775 64.2527C383.986 62.7211 379.81 60.7249 374.247 58.8449C368.691 56.9866 361.675 55.3461 353.511 54.867C345.362 54.3952 336.073 55.2808 326.624 58.1045C326.029 58.2787 325.44 58.4602 324.852 58.6562C324.257 58.8449 323.668 59.0409 323.08 59.2514C322.484 59.4546 321.896 59.6651 321.308 59.8902C320.741 60.1007 320.168 60.3184 319.594 60.5289C319.02 60.7467 318.439 60.9572 317.858 61.175C317.277 61.3927 316.696 61.6178 316.122 61.8065C314.967 62.1912 313.834 62.6195 312.636 62.9824C307.893 64.5286 302.867 65.7989 297.638 66.8006C292.409 67.8168 286.94 68.4193 281.326 68.7242C275.712 69 269.945 68.8984 264.098 68.4121C258.252 67.9548 252.325 67.0982 246.37 65.9876C240.414 64.877 234.422 63.5196 228.402 62.0243C226.891 61.6468 225.373 61.2693 223.855 60.8919L222.715 60.6233C222.337 60.5289 221.952 60.4418 221.545 60.3692L220.347 60.1297L219.156 59.9265C218.364 59.7813 217.558 59.7014 216.759 59.5853C215.953 59.5127 215.154 59.4038 214.341 59.3675C212.728 59.2441 211.101 59.2151 209.482 59.2369C202.982 59.3385 196.576 60.7249 190.518 62.7066C184.439 64.6738 178.636 67.1563 172.848 69.4864C167.067 71.8237 161.256 73.9579 155.308 75.3733C152.338 76.0847 149.338 76.6073 146.331 76.9195C143.324 77.2171 140.318 77.2897 137.333 77.1445C131.37 76.8469 125.545 75.6709 120.054 73.8635C108.877 70.2776 98.52 65.7408 88.5481 61.5379C83.5875 59.4328 78.6778 57.4367 73.8117 55.6945C68.9456 53.9451 64.1013 52.4861 59.3006 51.4699C49.7063 49.4083 40.3518 49.2922 32.3481 50.519C28.339 51.1214 24.6495 51.9998 21.3086 52.9579C17.9604 53.9234 14.9609 54.9904 12.3027 56.0357C6.979 58.148 2.98443 60.1224 0.28265 61.5016C-1.06824 62.1912 -2.0923 62.7356 -2.78227 63.1058C-3.47224 63.476 -3.82812 63.6648 -3.82812 63.6648L1.40113 71.2793C1.40113 71.2793 1.71343 71.0688 2.32351 70.6696C2.93359 70.2631 3.83419 69.6606 5.03255 68.9202C5.62811 68.5427 6.30355 68.1362 7.04436 67.6862C7.78517 67.2361 8.60588 66.7643 9.49194 66.2562C10.378 65.7408 11.344 65.2254 12.3753 64.6665C13.4211 64.1293 14.5251 63.5631 15.7162 62.997C20.4588 60.7467 26.4071 58.2859 33.5901 56.8051C37.1779 56.072 41.0563 55.5639 45.1889 55.4695C49.3214 55.3679 53.6864 55.7018 58.2111 56.4567C62.7359 57.2116 67.4132 58.3948 72.2066 59.8756C77.0001 61.3637 81.888 63.1857 86.9284 65.102C96.9802 68.971 107.628 73.2828 119.045 76.709C124.819 78.4584 130.941 79.6198 137.209 79.8375C143.477 80.0553 149.839 79.3149 155.969 77.7905C162.121 76.2807 168.033 74.0232 173.85 71.6786C179.668 69.334 185.413 66.8514 191.339 64.9569C197.251 63.0623 203.374 61.7847 209.525 61.7194C212.598 61.6831 215.662 61.9299 218.662 62.4671L219.788 62.6703L220.892 62.9026C221.255 62.9752 221.633 63.0623 222.01 63.1639L223.143 63.447C224.647 63.839 226.15 64.231 227.646 64.6302C233.674 66.1909 239.688 67.6862 245.709 68.9275C248.716 69.5517 251.73 70.1034 254.737 70.5825C257.736 71.0761 260.743 71.4753 263.735 71.802C269.713 72.4553 275.654 72.7021 281.478 72.6222C287.296 72.4988 292.99 72.027 298.481 71.1995C303.971 70.3865 309.244 69.2178 314.285 67.8677C315.548 67.5483 316.798 67.149 318.04 66.7933C318.671 66.6191 319.26 66.4231 319.848 66.2344C320.436 66.0457 321.025 65.857 321.613 65.6682C322.201 65.4795 322.782 65.2908 323.363 65.1093C323.922 64.9278 324.474 64.7536 325.034 64.5939C325.586 64.427 326.145 64.2673 326.697 64.1221C327.249 63.9696 327.801 63.8245 328.353 63.6938C332.761 62.6122 337.076 61.9444 341.186 61.7339C345.297 61.5089 349.197 61.6613 352.814 62.0823C360.062 62.9098 366.127 64.8552 370.87 66.8224C375.627 68.7968 379.055 70.8946 381.27 72.3536C383.492 73.8417 384.458 74.72 384.349 74.6329L391.14 66.9022Z" fill="url(#paint2_linear)"/>
</g>
<g opacity="0.2">
<path opacity="0.6" d="M389.824 31.3772C389.824 31.3772 389.817 31.3772 389.802 31.37C389.788 31.3627 389.722 31.3264 389.664 31.2974C389.584 31.2538 389.548 31.2393 389.483 31.2103C389.424 31.1812 389.352 31.1522 389.272 31.1159C388.96 30.9853 388.538 30.8183 388.008 30.6296C386.955 30.2448 385.466 29.7512 383.578 29.1923C379.809 28.0744 374.419 26.688 367.636 25.5919C360.852 24.5249 352.667 23.7264 343.451 24.024C334.249 24.3143 324.03 25.7153 313.462 28.8294C312.141 29.2068 310.811 29.6278 309.482 30.0706C308.814 30.2811 308.146 30.5062 307.485 30.7457C306.839 30.9707 306.185 31.1958 305.531 31.4208C304.878 31.6458 304.217 31.8636 303.549 32.0886C303.215 32.1975 302.888 32.3136 302.554 32.4225C302.227 32.5241 301.9 32.6258 301.566 32.7274C300.244 33.1339 298.922 33.5549 297.549 33.9178C292.095 35.4349 286.35 36.6327 280.387 37.4021C274.425 38.1933 268.244 38.4401 261.954 38.3095C255.657 38.1135 249.259 37.5037 242.817 36.4439C229.911 34.3969 216.932 30.7675 203.51 27.276C201.825 26.8404 200.14 26.4049 198.448 25.9694C197.555 25.7589 196.661 25.5484 195.768 25.3378L194.265 25.033L193.509 24.8878L192.783 24.7644C188.934 24.0893 184.983 23.7772 181.032 23.799C173.122 23.857 165.329 25.2943 158.081 27.3703C150.804 29.4319 144.02 32.0886 137.455 34.5131C130.896 36.952 124.527 39.1224 118.179 40.6396C111.839 42.1494 105.498 42.9188 99.2012 42.8608C92.9261 42.8317 86.68 41.9607 80.6083 40.4726C68 37.4094 55.9364 33.3008 44.2505 29.5407C38.4111 27.6462 32.6372 25.875 26.9431 24.3942C21.2563 22.8989 15.6276 21.7229 10.1441 21.0043C-0.830036 19.4945 -11.1505 20.0171 -19.9023 21.752C-28.6903 23.4505 -35.9386 26.2017 -41.7199 28.6987C-44.6177 29.9472 -47.1234 31.2175 -49.295 32.3354C-51.4593 33.4678 -53.2678 34.4695 -54.7204 35.3043C-56.1802 36.1318 -57.2696 36.8069 -58.0104 37.2569C-58.7512 37.707 -59.1289 37.9393 -59.1289 37.9393L-58.6568 38.8248C-58.6568 38.8248 -58.2501 38.6434 -57.4657 38.2949C-57.0735 38.1207 -56.5869 37.903 -56.0059 37.6489C-55.4249 37.4021 -54.7494 37.1117 -53.9868 36.7851C-50.9364 35.4858 -46.4117 33.6783 -40.5578 31.791C-37.6309 30.8619 -34.3626 29.9327 -30.7748 29.127C-28.9808 28.7423 -27.107 28.3575 -25.1606 28.0454C-23.2141 27.7115 -21.1878 27.4429 -19.1034 27.2252C-17.0117 27.0001 -14.8473 26.884 -12.6322 26.8187C-10.4097 26.7533 -8.12919 26.7678 -5.79056 26.8985C-1.12055 27.1453 3.76009 27.7841 8.78597 28.8439C13.8191 29.9037 18.9903 31.3845 24.3212 33.1557C29.6521 34.9341 35.1211 37.0319 40.7933 39.2241C52.1234 43.6447 64.2523 48.4864 77.3981 52.3481C84.1888 54.3153 91.4081 55.6509 98.8307 55.9993C106.246 56.3478 113.821 55.6582 121.142 54.1701C128.478 52.7038 135.523 50.41 142.299 48.0944C149.075 45.7788 155.612 43.4197 162.039 41.6921C168.467 39.9645 174.815 38.9555 181.082 38.9845C182.651 38.9773 184.213 39.0571 185.774 39.1442C186.551 39.2168 187.336 39.2604 188.113 39.3547L189.282 39.4781L190.444 39.6378L191.025 39.7177L191.57 39.8048L192.667 39.9717L195.143 40.4363C196.872 40.7775 198.608 41.1186 200.344 41.438C203.815 42.0913 207.309 42.643 210.788 43.1874C214.281 43.681 217.774 44.1529 221.268 44.5013C224.754 44.8787 228.247 45.1401 231.712 45.3288C235.176 45.5248 238.633 45.6337 242.054 45.6554C248.896 45.699 255.614 45.4232 262.143 44.8715C265.411 44.6029 268.622 44.2545 271.788 43.848C273.371 43.6593 274.94 43.4197 276.502 43.2092C278.056 42.9624 279.603 42.7446 281.135 42.4833C287.258 41.4598 293.163 40.2476 298.842 38.8829C300.266 38.5708 301.675 38.1643 303.077 37.8304C303.425 37.7433 303.774 37.6562 304.13 37.5691C304.471 37.4747 304.805 37.3803 305.146 37.2932C305.822 37.1117 306.497 36.923 307.166 36.7415C307.841 36.5601 308.509 36.3859 309.177 36.2044C309.824 36.0302 310.463 35.8632 311.109 35.7108C311.748 35.5511 312.395 35.4059 313.034 35.2752C313.673 35.1373 314.305 34.9994 314.944 34.8833C325.112 32.9306 334.648 33.1847 342.71 34.6945C350.793 36.1971 357.432 38.8539 362.472 41.5905C367.527 44.3198 371.035 47.0854 373.163 49.0526C374.223 50.0398 374.95 50.831 375.364 51.3391C375.567 51.6005 375.698 51.7819 375.749 51.8908C375.763 51.9199 375.778 51.9416 375.778 51.9561C375.778 51.9707 375.799 51.9924 375.763 51.9779C375.749 51.9779 375.72 51.9634 375.727 51.9779C375.734 51.9852 375.741 51.9924 375.741 51.9924L389.824 31.3772Z" fill="white"/>
<path opacity="0.2" d="M355.674 1.38351L372.204 3.36518L344.431 7.32853C344.431 7.32853 326.579 11.2919 342.448 17.9047C358.318 24.5103 380.796 24.5103 380.796 18.5653C380.796 12.6203 383.44 -2.57983 383.44 -2.57983L355.674 1.38351Z" fill="white"/>
<path opacity="0.2" d="M305.424 6.67524C305.424 6.67524 329.224 16.5909 320.632 21.2148C312.04 25.8387 263.771 39.0571 245.258 29.1415C226.745 19.2258 258.484 19.2258 239.31 4.69357C220.129 -9.84596 305.424 6.67524 305.424 6.67524Z" fill="white"/>
<path opacity="0.2" d="M222.11 6.00774C222.11 6.00774 248.554 10.6316 239.962 17.2445C231.37 23.8501 196.988 31.1234 193.676 12.6206C190.364 -5.8823 222.11 6.00774 222.11 6.00774Z" fill="white"/>
<path opacity="0.2" d="M232.693 24.5175C240.217 23.102 241.953 31.1231 236.659 31.7836C231.371 32.4442 211.188 26.2233 232.693 24.5175Z" fill="white"/>
<path opacity="0.2" d="M331.509 23.1528C323.854 23.3778 323.396 15.1825 328.727 15.3567C334.058 15.531 353.014 24.8296 331.509 23.1528Z" fill="white"/>
<path opacity="0.2" d="M179.136 7.33554C179.136 7.33554 195.005 9.97777 186.406 17.2512C177.814 24.5173 147.397 20.5467 130.867 31.1229C114.337 41.6918 82.5982 23.1889 89.8756 6.00717C97.1457 -11.1673 179.136 7.33554 179.136 7.33554Z" fill="white"/>
<path opacity="0.2" d="M87.2337 24.5177C87.2337 24.5177 107.729 34.4334 102.442 38.3967C97.1547 42.3601 72.6862 37.0756 70.7034 33.1123C68.7207 29.1417 70.7034 23.1894 87.2337 24.5177Z" fill="white"/>
<path opacity="0.2" d="M79.9565 4.02564C79.9565 4.02564 88.5484 16.5835 79.9565 19.2257C71.3645 21.868 64.0871 37.068 40.9477 22.5285C17.8083 7.99624 31.6948 -0.598267 31.6948 -0.598267L75.9909 3.36508" fill="white"/>
<path opacity="0.2" d="M334.437 8.36658C334.437 8.36658 327.515 15.5093 323.942 14.3914C320.369 13.2736 318.582 8.36658 318.582 8.36658H334.437Z" fill="white"/>
</g>
<g opacity="0.15">
<g opacity="0.4">
<g opacity="0.4">
<g opacity="0.4">
<path opacity="0.4" d="M332.029 84.7224C333.199 84.7224 333.199 82.9077 332.029 82.9077C330.86 82.9077 330.86 84.7224 332.029 84.7224Z" fill="white"/>
</g>
</g>
<g opacity="0.4">
<g opacity="0.4">
<path opacity="0.4" d="M298.31 83.648C300.648 83.648 300.648 80.0186 298.31 80.0186C295.978 80.0186 295.971 83.648 298.31 83.648Z" fill="white"/>
</g>
</g>
<g opacity="0.4">
<g opacity="0.4">
<path opacity="0.4" d="M298.311 51.0196C299.48 51.0196 299.48 49.2048 298.311 49.2048C297.141 49.2048 297.141 51.0196 298.311 51.0196Z" fill="white"/>
</g>
</g>
<g opacity="0.4">
<g opacity="0.4">
<path opacity="0.4" d="M332.031 51.2663C334.37 51.2663 334.37 47.6368 332.031 47.6368C329.693 47.6368 329.693 51.2663 332.031 51.2663Z" fill="white"/>
</g>
</g>
<g opacity="0.4">
<g opacity="0.4">
<path opacity="0.4" d="M330.051 192.684C332.389 192.684 332.389 189.054 330.051 189.054C327.712 189.054 327.712 192.684 330.051 192.684Z" fill="white"/>
</g>
</g>
<g opacity="0.4">
<g opacity="0.4">
<path opacity="0.4" d="M291.041 222.83C292.21 222.83 292.21 221.015 291.041 221.015C289.872 221.015 289.872 222.83 291.041 222.83Z" fill="white"/>
</g>
</g>
<g opacity="0.4">
<g opacity="0.4">
<path opacity="0.4" d="M312.854 227.461C314.023 227.461 314.023 225.646 312.854 225.646C311.684 225.646 311.684 227.461 312.854 227.461Z" fill="white"/>
</g>
</g>
<g opacity="0.4">
<g opacity="0.4">
<path opacity="0.4" d="M259.965 153.689C262.304 153.689 262.304 150.06 259.965 150.06C257.626 150.06 257.626 153.689 259.965 153.689Z" fill="white"/>
</g>
</g>
<g opacity="0.4">
<g opacity="0.4">
<path opacity="0.4" d="M252.689 158.074C253.859 158.074 253.859 156.259 252.689 156.259C251.52 156.259 251.52 158.074 252.689 158.074Z" fill="white"/>
</g>
</g>
<g opacity="0.4">
<g opacity="0.4">
<path opacity="0.4" d="M79.459 79.4307C80.6283 79.4307 80.6283 77.616 79.459 77.616C78.2897 77.616 78.2897 79.4307 79.459 79.4307Z" fill="white"/>
</g>
</g>
<g opacity="0.4">
<g opacity="0.4">
<path opacity="0.4" d="M141.614 94.631C142.783 94.631 142.783 92.8163 141.614 92.8163C140.445 92.8163 140.438 94.631 141.614 94.631Z" fill="white"/>
</g>
</g>
<g opacity="0.4">
<g opacity="0.4">
<path opacity="0.4" d="M158.804 88.9323C161.142 88.9323 161.142 85.3029 158.804 85.3029C156.465 85.3029 156.458 88.9323 158.804 88.9323Z" fill="white"/>
</g>
</g>
<g opacity="0.4">
<g opacity="0.4">
<path opacity="0.4" d="M127.064 58.2853C128.234 58.2853 128.234 56.4706 127.064 56.4706C125.895 56.4706 125.895 58.2853 127.064 58.2853Z" fill="white"/>
</g>
</g>
<g opacity="0.4">
<g opacity="0.4">
<path opacity="0.4" d="M285.755 53.0009C286.924 53.0009 286.924 51.1862 285.755 51.1862C284.585 51.1862 284.578 53.0009 285.755 53.0009Z" fill="white"/>
</g>
</g>
<g opacity="0.4">
<g opacity="0.4">
<path opacity="0.4" d="M289.719 45.9745C292.057 45.9745 292.057 42.3451 289.719 42.3451C287.38 42.3451 287.38 45.9745 289.719 45.9745Z" fill="white"/>
</g>
</g>
<g opacity="0.4">
<g opacity="0.4">
<path opacity="0.4" d="M319.468 45.0672C320.637 45.0672 320.637 43.2524 319.468 43.2524C318.306 43.2524 318.299 45.0672 319.468 45.0672Z" fill="white"/>
</g>
</g>
<g opacity="0.4">
<g opacity="0.4">
<path opacity="0.4" d="M324.762 96.1984C327.1 96.1984 327.1 92.569 324.762 92.569C322.423 92.569 322.423 96.1984 324.762 96.1984Z" fill="white"/>
</g>
</g>
<g opacity="0.4">
<g opacity="0.4">
<path opacity="0.4" d="M275.174 207.63C276.343 207.63 276.343 205.815 275.174 205.815C274.005 205.815 274.005 207.63 275.174 207.63Z" fill="white"/>
</g>
</g>
<g opacity="0.4">
<g opacity="0.4">
<path opacity="0.4" d="M307.572 218.206C308.742 218.206 308.742 216.391 307.572 216.391C306.403 216.391 306.403 218.206 307.572 218.206Z" fill="white"/>
</g>
</g>
<g opacity="0.4">
<g opacity="0.4">
<path opacity="0.4" d="M236.162 228.122C237.331 228.122 237.331 226.307 236.162 226.307C234.993 226.307 234.993 228.122 236.162 228.122Z" fill="white"/>
</g>
</g>
<g opacity="0.4">
<g opacity="0.4">
<path opacity="0.4" d="M208.115 205.931C209.285 205.931 209.285 204.116 208.115 204.116C206.946 204.116 206.946 205.931 208.115 205.931Z" fill="white"/>
</g>
</g>
<g opacity="0.4">
<g opacity="0.4">
<path opacity="0.4" d="M239.465 155.678C241.804 155.678 241.804 152.049 239.465 152.049C237.126 152.049 237.126 155.678 239.465 155.678Z" fill="white"/>
</g>
</g>
<g opacity="0.4">
<g opacity="0.4">
<path opacity="0.4" d="M100.616 193.264C99.7231 193.279 99.0912 193.954 99.0476 194.832C99.0258 195.319 99.4834 195.74 99.9555 195.74C100.471 195.74 100.842 195.326 100.863 194.832C100.856 194.883 100.842 194.927 100.805 194.97C100.856 194.883 100.849 194.89 100.783 194.999C100.754 195.021 100.725 195.043 100.696 195.072C100.783 195.028 100.762 195.036 100.624 195.094C100.667 195.086 100.711 195.072 100.754 195.065C100.449 195.115 100.544 195.086 100.616 195.086C101.786 195.057 101.793 193.243 100.616 193.264Z" fill="white"/>
</g>
</g>
<g opacity="0.4">
<g opacity="0.4">
<path opacity="0.4" d="M79.459 162.037C80.6283 162.037 80.6283 160.222 79.459 160.222C78.2897 160.222 78.2897 162.037 79.459 162.037Z" fill="white"/>
</g>
</g>
<g opacity="0.4">
<g opacity="0.4">
<path opacity="0.4" d="M105.249 225.058C107.588 225.058 107.588 221.429 105.249 221.429C102.91 221.429 102.903 225.058 105.249 225.058Z" fill="white"/>
</g>
</g>
<g opacity="0.4">
<g opacity="0.4">
<path opacity="0.4" d="M103.257 89.3461C104.426 89.3461 104.426 87.5314 103.257 87.5314C102.095 87.5314 102.088 89.3461 103.257 89.3461Z" fill="white"/>
</g>
</g>
<g opacity="0.4">
<g opacity="0.4">
<path opacity="0.4" d="M92.6837 194.665C95.0223 194.665 95.0223 191.036 92.6837 191.036C90.345 191.036 90.345 194.665 92.6837 194.665Z" fill="white"/>
</g>
</g>
<g opacity="0.4">
<g opacity="0.4">
<path opacity="0.4" d="M95.9903 226.14C97.1596 226.14 97.1596 224.325 95.9903 224.325C94.821 224.325 94.821 226.14 95.9903 226.14Z" fill="white"/>
</g>
</g>
<g opacity="0.4">
<g opacity="0.4">
<path opacity="0.4" d="M190.514 144.035C191.683 144.035 191.683 142.22 190.514 142.22C189.344 142.22 189.344 144.035 190.514 144.035Z" fill="white"/>
</g>
</g>
<g opacity="0.4">
<g opacity="0.4">
<path opacity="0.4" d="M238.806 223.076C239.023 223.076 239.249 223.076 239.466 223.076C240.418 223.076 241.326 222.241 241.282 221.261C241.239 220.282 240.483 219.447 239.466 219.447C239.249 219.447 239.023 219.447 238.806 219.447C237.854 219.447 236.946 220.282 236.99 221.261C237.033 222.249 237.789 223.076 238.806 223.076Z" fill="white"/>
</g>
</g>
<g opacity="0.4">
<g opacity="0.4">
<path opacity="0.4" d="M293.023 211.187C295.362 211.187 295.362 207.557 293.023 207.557C290.685 207.557 290.685 211.187 293.023 211.187Z" fill="white"/>
</g>
</g>
<g opacity="0.4">
<g opacity="0.4">
<path opacity="0.4" d="M335.995 201.024C337.165 201.024 337.165 199.209 335.995 199.209C334.833 199.209 334.826 201.024 335.995 201.024Z" fill="white"/>
</g>
</g>
<g opacity="0.4">
<g opacity="0.4">
<path opacity="0.4" d="M335.995 97.9334C337.165 97.9334 337.165 96.1187 335.995 96.1187C334.833 96.1187 334.826 97.9334 335.995 97.9334Z" fill="white"/>
</g>
</g>
<g opacity="0.4">
<g opacity="0.4">
<path opacity="0.4" d="M269.221 61.5885C270.39 61.5885 270.39 59.7738 269.221 59.7738C268.051 59.7738 268.051 61.5885 269.221 61.5885Z" fill="white"/>
</g>
</g>
<g opacity="0.4">
<g opacity="0.4">
<path opacity="0.4" d="M291.041 92.6489C292.21 92.6489 292.21 90.8342 291.041 90.8342C289.872 90.8342 289.872 92.6489 291.041 92.6489Z" fill="white"/>
</g>
</g>
<g opacity="0.4">
<g opacity="0.4">
<path opacity="0.4" d="M237.486 97.9334C238.656 97.9334 238.656 96.1187 237.486 96.1187C236.317 96.1187 236.317 97.9334 237.486 97.9334Z" fill="white"/>
</g>
</g>
<g opacity="0.4">
<g opacity="0.4">
<path opacity="0.4" d="M181.945 86.9507C184.284 86.9507 184.284 83.3213 181.945 83.3213C179.607 83.3213 179.607 86.9507 181.945 86.9507Z" fill="white"/>
</g>
</g>
<g opacity="0.4">
<g opacity="0.4">
<path opacity="0.4" d="M121.778 68.2014C122.947 68.2014 122.947 66.3867 121.778 66.3867C120.609 66.3867 120.602 68.2014 121.778 68.2014Z" fill="white"/>
</g>
</g>
<g opacity="0.4">
<g opacity="0.4">
<path opacity="0.4" d="M222.247 109.918C224.586 109.918 224.586 106.288 222.247 106.288C219.916 106.288 219.909 109.918 222.247 109.918Z" fill="white"/>
</g>
</g>
<g opacity="0.4">
<g opacity="0.4">
<path opacity="0.4" d="M102.597 160.055C103.766 160.055 103.766 158.241 102.597 158.241C101.435 158.241 101.428 160.055 102.597 160.055Z" fill="white"/>
</g>
</g>
<g opacity="0.4">
<g opacity="0.4">
<path opacity="0.4" d="M95.9884 160.302C98.327 160.302 98.327 156.673 95.9884 156.673C93.6497 156.673 93.6497 160.302 95.9884 160.302Z" fill="white"/>
</g>
</g>
<g opacity="0.4">
<g opacity="0.4">
<path opacity="0.4" d="M98.6309 166.661C99.8002 166.661 99.8002 164.846 98.6309 164.846C97.4616 164.846 97.4616 166.661 98.6309 166.661Z" fill="white"/>
</g>
</g>
<g opacity="0.4">
<g opacity="0.4">
<path opacity="0.4" d="M213.654 107.689C214.824 107.689 214.824 105.875 213.654 105.875C212.485 105.875 212.485 107.689 213.654 107.689Z" fill="white"/>
</g>
</g>
<g opacity="0.4">
<g opacity="0.4">
<path opacity="0.4" d="M193.82 109.257C196.159 109.257 196.159 105.628 193.82 105.628C191.482 105.628 191.482 109.257 193.82 109.257Z" fill="white"/>
</g>
</g>
<g opacity="0.4">
<g opacity="0.4">
<path opacity="0.4" d="M187.204 103.973C189.543 103.973 189.543 100.344 187.204 100.344C184.873 100.344 184.866 103.973 187.204 103.973Z" fill="white"/>
</g>
</g>
<g opacity="0.4">
<g opacity="0.4">
<path opacity="0.4" d="M214.975 154.611C216.144 154.611 216.144 152.796 214.975 152.796C213.805 152.796 213.805 154.611 214.975 154.611Z" fill="white"/>
</g>
</g>
<g opacity="0.4">
<g opacity="0.4">
<path opacity="0.4" d="M231.506 131.484C232.675 131.484 232.675 129.669 231.506 129.669C230.337 129.669 230.337 131.484 231.506 131.484Z" fill="white"/>
</g>
</g>
<g opacity="0.4">
<g opacity="0.4">
<path opacity="0.4" d="M211.672 133.713C214.011 133.713 214.011 130.083 211.672 130.083C209.333 130.083 209.333 133.713 211.672 133.713Z" fill="white"/>
</g>
</g>
<g opacity="0.4">
<g opacity="0.4">
<path opacity="0.4" d="M222.936 186.485C224.105 186.485 224.105 184.67 222.936 184.67C221.766 184.67 221.766 186.485 222.936 186.485Z" fill="white"/>
</g>
</g>
<g opacity="0.4">
<g opacity="0.4">
<path opacity="0.4" d="M320.794 191.776C321.963 191.776 321.963 189.961 320.794 189.961C319.624 189.961 319.617 191.776 320.794 191.776Z" fill="white"/>
</g>
</g>
<g opacity="0.4">
<g opacity="0.4">
<path opacity="0.4" d="M328.066 201.271C330.405 201.271 330.405 197.641 328.066 197.641C325.728 197.641 325.728 201.271 328.066 201.271Z" fill="white"/>
</g>
</g>
<g opacity="0.4">
<g opacity="0.4">
<path opacity="0.4" d="M328.064 225.472C329.234 225.472 329.234 223.657 328.064 223.657C326.895 223.657 326.895 225.472 328.064 225.472Z" fill="white"/>
</g>
</g>
<g opacity="0.4">
<g opacity="0.4">
<path opacity="0.4" d="M332.691 73.7326C335.03 73.7326 335.03 70.1031 332.691 70.1031C330.353 70.1031 330.353 73.7326 332.691 73.7326Z" fill="white"/>
</g>
</g>
<g opacity="0.4">
<g opacity="0.4">
<path opacity="0.4" d="M332.693 39.7827C333.863 39.7827 333.863 37.968 332.693 37.968C331.524 37.968 331.524 39.7827 332.693 39.7827Z" fill="white"/>
</g>
</g>
<g opacity="0.4">
<g opacity="0.4">
<path opacity="0.4" d="M320.134 51.68C321.303 51.68 321.303 49.8652 320.134 49.8652C318.964 49.8652 318.957 51.68 320.134 51.68Z" fill="white"/>
</g>
</g>
<g opacity="0.4">
<g opacity="0.4">
<path opacity="0.4" d="M109.877 64.2378C111.046 64.2378 111.046 62.4231 109.877 62.4231C108.708 62.4231 108.708 64.2378 109.877 64.2378Z" fill="white"/>
</g>
</g>
</g>
<g opacity="0.4">
<g opacity="0.4">
<g opacity="0.4">
<path opacity="0.4" d="M270.042 170.225C272.38 170.225 272.38 166.595 270.042 166.595C267.703 166.595 267.696 170.225 270.042 170.225Z" fill="white"/>
</g>
</g>
<g opacity="0.4">
<g opacity="0.4">
<path opacity="0.4" d="M145.231 215.781C147.569 215.781 147.569 212.152 145.231 212.152C142.892 212.152 142.892 215.781 145.231 215.781Z" fill="white"/>
</g>
</g>
</g>
</g>
<path d="M357.223 203.595C362.132 208.21 367.005 212.843 371.546 217.817C370.739 216.409 369.959 214.985 369.208 213.545C366.185 208.506 362.938 203.511 358.983 199.176C355.829 195.716 352.405 192.547 349.275 189.08C349.246 189.063 349.22 189.029 349.195 188.995C347.969 187.634 346.779 186.223 345.68 184.73C342.196 180.001 339.438 174.859 336.563 169.764C336.035 168.825 335.456 167.754 334.61 167.054C334.475 166.944 333.986 166.604 333.533 166.433C333.709 166.694 333.855 166.996 333.959 167.172C334.593 168.236 335.186 169.329 335.751 170.436C337.003 172.895 338.171 175.409 339.474 177.846C341.56 181.755 344.326 185.409 347.231 188.733C350.606 192.598 354.65 195.804 358.252 199.453C358.397 199.601 358.271 200.13 358.021 199.986C355.726 198.667 353.854 196.959 351.932 195.151C350.176 193.509 348.463 191.847 346.902 190.023C344.006 186.64 341.201 182.842 339.091 178.907C337.81 176.521 336.692 174.043 335.519 171.603C334.945 170.4 334.394 169.191 333.792 168.004C333.581 167.581 333.312 166.76 332.942 166.347C332.858 166.37 332.789 166.413 332.744 166.49C332.451 166.974 332.664 167.892 332.755 168.412C332.901 169.291 333.111 170.168 333.358 171.028C335.151 177.273 337.971 183.163 342.063 188.249C346.55 193.838 352.026 198.691 357.223 203.595Z" fill="#E5E9FA"/>
<path d="M352.992 237.794C354.216 239.058 355.478 240.28 356.777 241.459C359.515 243.431 362.289 245.352 365.131 247.166C371.077 250.952 377.595 253.958 383.218 258.236C386.126 260.447 388.729 263.007 390.862 265.905C389.122 262.593 387.043 259.471 384.669 256.581C382.973 254.525 381.13 252.59 379.223 250.72C378.404 250.087 377.601 249.425 376.773 248.793C374.668 247.18 372.564 245.575 370.471 243.95C366.312 240.71 362.187 237.412 358.426 233.715C351.249 226.669 345.749 218.143 339.03 210.682C330.067 200.727 318.665 192.863 304.948 191.864C302.868 191.714 300.786 191.679 298.713 191.949C297.715 192.078 296.057 192.197 295.008 192.803C296.798 193.266 298.606 193.765 300.411 194.013C302.757 194.335 305.077 194.835 307.39 195.312C313.329 196.549 319.368 198.011 324.764 200.863C330.909 204.116 335.601 208.984 339.616 214.57C341.676 217.438 343.577 220.414 345.513 223.364C347.488 226.369 349.442 229.573 351.881 232.218C354.183 234.713 356.962 236.869 359.813 238.713C361.308 239.685 362.835 240.593 364.374 241.513C365.835 242.389 367.173 243.411 368.6 244.337C368.856 244.504 368.631 245.303 368.326 245.166C366.004 244.114 363.768 243.137 361.592 241.778C359.495 240.471 357.474 239.055 355.591 237.455C350.296 232.943 346.664 226.752 342.883 221.006C338.992 215.095 334.782 209.082 328.991 204.873C323.764 201.074 317.693 198.947 311.468 197.461C305.938 196.14 300.234 195.141 294.859 193.217C295.122 193.503 295.433 193.753 295.751 193.969C297.016 194.808 298.433 195.428 299.847 195.975C302.879 197.161 306.094 197.877 309.24 198.7C315.61 200.365 321.835 202.338 327.108 206.433C332.405 210.555 336.151 215.896 339.888 221.385C343.841 227.166 348.109 232.757 352.992 237.794Z" fill="#E5E9FA"/>
<path d="M349.378 180.727C349.415 177.89 349.338 175.052 349.156 172.217C348.802 166.675 348.151 161.115 346.851 155.712C346.015 152.224 344.711 148.69 342.369 145.89C342.095 145.565 341.8 145.222 341.462 144.93C342.043 146.009 342.382 147.397 342.678 148.292C343.48 150.709 344.037 153.216 344.598 155.706C345.29 158.778 345.955 161.776 346.204 164.925C346.366 166.896 346.456 168.87 346.563 170.848C346.658 172.723 346.832 174.618 346.694 176.499C346.683 176.64 346.459 176.959 346.379 176.688C345.846 174.971 345.844 173.112 345.765 171.33C345.687 169.49 345.622 167.64 345.49 165.807C345.264 162.659 344.772 159.574 344.108 156.487C343.59 154.067 343.014 151.671 342.418 149.263C342.129 148.09 341.822 146.913 341.373 145.783C341.218 145.386 341.035 144.915 340.801 144.498C340.611 144.395 340.613 144.402 340.591 144.562C340.322 146.592 340.609 148.757 340.872 150.774C341.592 156.194 342.849 161.527 343.786 166.913C344.562 171.327 345.283 176.299 344.575 180.851C345.968 182.866 347.419 184.825 348.984 186.696C349.011 184.699 349.347 182.676 349.378 180.727Z" fill="#E5E9FA"/>
<path d="M324.365 225.54C317.875 222.818 310.755 221.906 303.842 220.914C300.08 220.369 296.267 219.635 292.446 220.025C290.737 220.198 288.895 220.512 287.318 221.21C286.774 221.454 286.163 221.723 285.756 222.173C285.7 222.237 285.653 222.274 285.624 222.289C285.634 222.295 285.648 222.316 285.654 222.338C285.667 222.359 285.681 222.38 285.697 222.408C291.629 222.68 297.561 222.83 303.482 223.333C306.567 223.595 309.648 223.932 312.696 224.481C314.276 224.765 315.858 225.089 317.41 225.485C318.693 225.816 320.135 226.072 321.283 226.747C321.449 226.849 321.315 227.259 321.122 227.237C319.562 227.086 317.981 226.404 316.452 226.034C315.02 225.694 313.574 225.391 312.119 225.147C309.064 224.633 305.984 224.271 302.903 224.024C297.238 223.567 291.558 223.357 285.908 222.741C285.984 222.843 286.067 222.942 286.152 223.017C290.314 226.874 296.896 224.868 301.934 224.746C304.945 224.671 307.988 224.742 310.937 225.407C313.756 226.041 316.481 227.115 319.126 228.283C321.035 229.128 323.112 230.148 325.186 231.339C324.173 229.466 323.624 227.445 324.354 225.56C324.354 225.56 324.36 225.55 324.365 225.54Z" fill="#E5E9FA"/>
<path d="M387.604 168.083C387.16 167.487 386.765 166.951 386.065 166.553C386.104 166.575 385.528 166.429 385.648 166.421C385.568 166.426 385.383 166.492 385.411 166.477C385.211 166.579 385.003 166.683 384.844 166.848C384.698 167.001 384.583 167.178 384.479 167.368C385.668 170.534 387.048 173.625 388.405 176.721C389.919 180.158 391.074 183.715 392.366 187.236C394.959 194.315 397.261 201.488 399.685 208.628C404.48 222.777 407.863 237.418 409.82 252.229C411.694 266.396 411.642 280.957 410.128 295.155C410.08 295.614 409.527 295.884 409.556 295.267C410.082 281.716 410.393 268.182 408.906 254.675C407.255 239.701 403.657 224.833 398.924 210.554C396.488 203.214 394.128 195.853 391.714 188.507C390.486 184.766 389.185 181.061 387.763 177.389C386.53 174.21 385.211 171.103 384.302 167.829C384.076 168.564 384.093 169.445 384.156 170.289C384.324 172.372 384.81 174.402 385.38 176.41C386.562 180.521 388.165 184.478 389.421 188.56C393.548 202.035 397.699 215.479 400.736 229.254C403.768 243.038 405.743 257.065 406.867 271.132C407.826 283.035 407.673 296.063 401.251 306.563C400.595 307.632 399.97 306.24 400.326 305.503C403.829 298.311 405.379 290.561 405.5 282.602C405.586 276.82 405.059 271.056 404.408 265.317C404.383 265.316 404.364 265.304 404.35 265.251C401.255 254.449 398.581 243.517 393.358 233.479C387.848 222.884 379.692 213.907 374.784 202.98C368.823 189.696 366.929 175.274 365.563 160.914C365.276 157.896 365.264 154.845 365.024 151.823C364.725 148.037 364.532 143.946 363.271 140.328C363.087 139.792 362.447 137.884 361.529 138.341C361.429 138.392 361.335 138.466 361.246 138.531C361.283 138.545 361.312 138.594 361.329 138.687C362.182 143.819 363.012 149.104 363.145 154.308C363.283 159.591 362.818 164.865 363.055 170.154C363.305 175.732 363.733 181.49 365.483 186.813C367.289 192.316 369.565 197.66 372.203 202.81C375.644 209.532 379.612 216.008 383.576 222.435C387.397 228.633 391.384 234.909 394.305 241.599C399.796 254.189 402.25 268.153 402.026 281.858C402.021 282.176 401.574 282.54 401.519 282.059C400.424 271.866 399.492 261.613 396.458 251.769C393.27 241.405 387.868 231.975 382.482 222.631C374.975 209.614 367.411 196.295 363.356 181.721C362.892 180.05 362.289 178.433 362.075 176.695C361.862 174.957 361.702 173.205 361.624 171.455C361.458 167.861 361.532 164.283 361.708 160.687C361.878 157.132 361.865 153.594 361.921 150.038C361.978 146.335 361.353 142.571 360.985 138.893C360.983 138.853 360.988 138.811 361.003 138.775C360.33 139.539 360.053 140.873 359.842 141.725C358.897 145.544 358.723 149.659 358.496 153.578C357.874 164.491 358.575 176.219 361.269 187.194C362.906 193.854 365.142 200.387 368.021 206.618C371.107 213.289 374.824 219.677 378.514 226.024C382.333 232.58 386.253 239.117 389.578 245.951C391.206 249.3 392.718 252.705 393.989 256.207C395.287 259.782 396.226 263.47 397.308 267.12C397.447 267.578 396.838 268.643 396.548 267.892C395.293 264.662 394.511 261.314 393.34 258.062C392.739 256.395 392.093 254.741 391.404 253.106C390.22 252.326 389.488 250.654 388.649 249.554C387.688 248.301 386.653 247.108 385.694 245.862C383.595 243.151 380.864 240.933 378.288 238.69C375.706 236.449 373.135 234.132 370.382 232.107C367.799 230.2 365.187 228.211 362.818 226.042C357.958 221.609 354.234 215.986 351.39 210.095C350.168 207.563 349.162 204.9 348.449 202.175C347.971 200.329 347.573 198.324 347.821 196.398C345.521 194.122 343.317 191.747 341.343 189.23C341.166 192.453 340.921 195.759 341.615 198.928C342.482 202.895 344.302 206.721 346.208 210.288C350.23 217.813 355.514 224.529 361.373 230.693C366.595 236.175 372.237 241.22 377.966 246.168C380.006 247.929 381.94 249.783 383.766 251.747C383.822 251.805 383.879 251.863 383.942 251.919C383.952 251.924 383.958 251.947 383.96 251.955C386.261 254.45 388.358 257.121 390.19 260.018C396.577 270.126 400.035 282.83 396.385 294.545C396.332 294.713 396.127 294.768 396.156 294.541C396.275 293.437 396.352 292.328 396.412 291.215C396.371 282.625 394.228 273.492 388.744 266.821C382.283 258.958 372.487 255.058 364.115 249.681C363.761 249.45 363.42 249.209 363.068 248.986C362.39 248.607 361.728 248.2 361.088 247.754C360.559 247.384 360.044 247.01 359.527 246.628C354.812 243.374 350.244 239.91 345.695 236.425C341.882 233.507 338.327 230.153 334.129 227.768C332.326 226.74 330.063 225.6 327.909 225.811C327.496 225.848 325.912 225.972 325.794 226.474C325.787 226.509 325.795 226.539 325.788 226.573C327.774 227.796 329.539 229.533 331.309 231.017C333.269 232.661 335.22 234.332 337.225 235.931C339.229 237.531 341.294 239.082 343.465 240.45C345.539 241.763 347.752 242.836 349.843 244.12C350.009 244.222 349.878 244.703 349.667 244.646C347.303 244.012 345.105 242.691 343.074 241.359C340.916 239.946 338.853 238.403 336.863 236.767C334.866 235.133 332.937 233.424 331.012 231.697C329.288 230.144 327.392 228.678 325.767 227.009C325.825 227.498 326.043 228.04 326.21 228.45C327.365 231.219 329.334 233.625 331.581 235.736C332.145 236.202 332.697 236.688 333.22 237.182C334.467 238.229 335.764 239.189 337.028 240.085C342.555 243.975 348.659 246.922 354.809 249.678C360.906 252.416 367.116 254.969 372.783 258.561C378.557 262.222 384.021 266.876 387.42 272.894C388.689 275.145 390.435 278.268 390.091 280.959C390.005 281.64 389.651 282.685 388.851 282.826C387.813 283.015 386.715 282.253 385.865 281.749C380.559 278.597 377.205 272.956 372.841 268.739C368.257 264.305 363.039 260.446 357.235 257.768C351.956 255.323 346.183 253.612 340.383 253.012C340.039 252.974 339.664 252.936 339.258 252.907C339.07 253.176 338.723 253.277 338.646 252.868C336.732 252.763 334.493 252.899 333.35 254.245C332.83 254.855 332.723 255.517 332.865 256.169C334.505 255.95 336.239 256.387 337.779 256.917C339.658 257.559 341.579 257.996 343.527 258.384C345.598 258.804 347.69 259.178 349.738 259.726C351.559 260.214 353.605 260.722 355.05 261.992C355.158 262.093 355.092 262.452 354.91 262.411C352.947 261.938 351.113 261.007 349.143 260.511C347.216 260.02 345.264 259.649 343.313 259.253C341.36 258.85 339.458 258.393 337.585 257.708C336.09 257.166 334.55 256.482 332.936 256.435C333.384 257.834 334.876 259.156 335.887 259.836C340.562 263.003 346.598 264.027 352.062 264.855C355.433 265.366 358.959 265.697 362.225 266.724C365.209 267.671 368.057 269.053 370.532 270.982C373.109 272.988 375.151 275.455 377.305 277.884C379.592 280.48 381.89 283.081 383.898 285.907C385.855 288.664 387.635 291.64 388.68 294.877C389.835 298.434 389.76 301.979 389.888 305.673C389.902 306.059 389.226 307.15 389.044 306.346C388.998 306.147 388.966 305.936 388.921 305.737C388.824 305.706 388.753 305.595 388.776 305.378C388.792 305.284 388.79 305.187 388.798 305.096C388.531 303.519 388.369 301.913 388.132 300.328C387.853 299.468 387.513 298.625 387.15 297.813C386.121 295.489 384.929 293.16 383.406 291.115C380.538 287.261 376.538 284.433 371.772 283.507C366.181 282.413 360.219 283.7 354.637 284.342C348.984 284.994 343.306 285.368 337.667 284.401C331.984 283.42 326.555 280.958 322.478 276.811C319.351 273.627 316.969 269.83 315.464 265.636C314.111 261.855 312.854 258.009 311.111 254.382C310.429 252.956 309.688 251.311 308.521 250.202C308.337 250.032 308.176 249.912 308.02 249.816C309.149 254.249 310.127 258.722 311.578 263.078C313.088 267.596 315.34 271.972 318.247 275.758C321.763 280.332 326.515 283.999 331.875 286.17C337.126 288.298 342.756 289.293 348.4 289.52C354.158 289.749 359.855 289.02 365.602 288.904C368.172 288.849 370.799 288.95 373.281 289.658C374.574 290.027 375.886 290.496 377.04 291.194C378.273 291.945 379.182 292.944 380.077 294.069C380.238 294.278 380.041 294.875 379.731 294.722C376.011 292.875 372.352 291.231 368.135 291.02C364.083 290.821 360.052 291.396 356.008 291.528C344.949 291.898 333.117 291.052 323.869 284.252C318.921 280.614 315.007 275.554 312.574 269.926C309.813 263.558 308.468 256.47 307.44 249.622C306.966 249.643 306.649 250.159 306.467 251.06C306.089 252.924 306.194 254.837 306.22 256.723C306.262 260.22 307.026 263.866 307.933 267.221C309.535 273.176 312.001 279.079 316.434 283.497C323.961 291.002 334.756 292.742 344.949 293.205C350.584 293.46 356.237 293.173 361.861 293.479C367.592 293.788 373.514 295.054 377.991 298.875C380.54 301.052 382.532 303.727 384.569 306.358C385.688 307.805 386.829 309.245 388.15 310.508C389.251 311.554 390.596 312.843 392.033 313.416C395.746 314.9 399.369 314.133 402.687 312.108C402.766 311.916 402.866 311.743 403.006 311.6C405.942 308.483 408.315 304.867 410.338 301.101C415.906 290.724 419.304 279.069 421.449 267.53C423.19 258.153 423.365 248.701 422.836 239.193C422.274 229.199 421.172 219.162 419.163 209.352C418.46 205.934 417.704 202.473 416.47 199.197C416.111 198.253 415.728 197.276 415.139 196.442C414.813 195.985 414.515 195.659 414.061 195.724C413.795 195.762 413.612 195.868 413.46 195.998C414.937 199.818 415.763 203.845 416.561 207.855C417.351 211.811 417.912 215.819 418.384 219.827C418.868 223.945 419.197 228.089 419.499 232.224C419.784 236.201 420.243 240.285 419.93 244.276C419.917 244.409 419.678 244.733 419.621 244.456C418.762 240.673 418.786 236.663 418.504 232.815C418.207 228.671 417.84 224.537 417.401 220.407C416.967 216.267 416.393 212.148 415.701 208.045C415.04 204.088 414.054 200.193 413.209 196.277C413.129 196.404 413.057 196.529 412.991 196.676C412.641 197.493 412.421 198.616 412.305 199.67C411.936 203.058 412.094 206.501 412.336 209.896C412.879 217.572 413.997 225.209 415.287 232.791C416.215 238.261 417.361 243.696 417.734 249.25C417.857 251.134 417.957 253.056 417.635 254.921C417.464 255.95 416.98 257.663 415.706 257.793C414.463 257.915 413.765 256.404 413.384 255.466C412.624 253.598 412.237 251.574 411.871 249.601C410.933 244.548 410.438 239.417 409.416 234.387C408.765 231.166 407.919 227.973 407.099 224.789C404.892 216.242 402.502 207.736 399.901 199.295C397.402 191.175 394.819 183.013 391.393 175.223C390.34 172.776 389.207 170.245 387.604 168.083Z" fill="#E5E9FA"/>
<path d="M43.8028 288.797C43.6009 288.106 43.394 287.407 43.1994 286.712C41.8822 282.033 40.6453 277.332 39.2624 272.666C35.0635 258.469 29.885 244.362 22.0267 231.737C18.1296 225.473 13.5561 219.824 8.61086 214.364C7.07624 212.676 5.47094 210.993 3.8003 209.385C10.013 215.919 15.1838 223.487 19.7704 231.195C22.9768 236.579 25.9427 242.095 28.7944 247.677C32.0732 254.095 34.6593 260.853 36.9216 267.683C40.4766 278.401 43.2627 289.363 46.6716 300.117C45.5579 296.383 44.617 292.606 43.8028 288.797Z" fill="#E5E9FA"/>
<path d="M31.4787 220.594C31.1805 220.106 30.8873 219.625 30.5892 219.137C31.2259 220.33 31.7944 221.547 32.273 222.804C32.0172 222.065 31.754 221.33 31.4787 220.594Z" fill="#E5E9FA"/>
<path d="M58.9329 186.834C59.9429 183.117 60.9945 179.414 61.8947 175.676C59.258 179.327 58.3745 184.157 57.9538 188.525C57.94 188.662 57.9408 188.789 57.9344 188.921C58.2321 188.199 58.569 187.505 58.9329 186.834Z" fill="#E5E9FA"/>
<path d="M52.9742 200.232C52.7294 199.305 52.4991 198.368 52.2688 197.431C52.4042 198.4 52.6077 199.344 52.9742 200.232Z" fill="#E5E9FA"/>
<path d="M43.918 261.784C43.5893 259.556 43.358 257.315 43.4291 255.082C43.5068 252.748 43.8772 250.408 44.2988 248.097C44.2506 246.644 44.195 245.197 44.1028 243.742C43.1956 229.578 41.2083 215.402 37.3929 201.71C34.9575 192.961 31.7596 184.324 27.4465 176.314C29.5679 180.927 31.4389 185.655 33.0036 190.527C37.5582 204.685 40.4095 219.369 41.8522 234.168C42.2098 237.851 42.5722 241.542 42.6738 245.239C42.7827 248.931 42.7526 252.622 42.8688 256.309C42.9698 259.519 43.0518 262.826 43.5378 266.009C43.5658 266.192 43.5938 266.374 43.634 266.559C43.6629 265.362 43.7285 264.172 43.8062 262.984C43.8452 262.587 43.8913 262.184 43.918 261.784Z" fill="#E5E9FA"/>
<path d="M33.9561 166.334C32.5732 170.833 32.572 175.619 33.3429 180.274C33.2498 175.616 33.7591 170.986 33.9561 166.334Z" fill="#E5E9FA"/>
<path d="M53.2746 196.571C53.4174 197.175 53.553 197.783 53.669 198.394C53.6869 198.138 53.6975 197.887 53.7154 197.631C53.5692 197.274 53.4158 196.921 53.2746 196.571Z" fill="#E5E9FA"/>
<path d="M24.7947 200.938C25.0597 202.35 25.5025 203.727 26.1811 204.997C26.1984 205.038 26.1603 205.17 26.1087 205.11C25.0042 203.586 24.3893 201.594 24.2033 199.577C22.6124 195.954 20.8927 192.375 19.0221 188.856C19.0967 189.091 19.1664 189.32 19.2411 189.556C21.6723 197.247 25.5067 204.392 28.9521 211.684C27.6854 208.053 26.3021 204.47 24.7947 200.938Z" fill="#E5E9FA"/>
<path d="M46.0127 279.093C46.0535 279.373 46.0821 279.651 46.1252 279.918C46.4887 282.229 46.8398 284.538 47.196 286.853C48.2926 290.97 49.5085 295.06 50.9264 299.087C51.2045 299.875 51.4899 300.657 51.7826 301.436C50.9655 298.721 50.2166 295.981 49.6236 293.221C48.1256 286.203 47.5482 279.009 47.9779 271.844C49.1858 251.752 57.8209 233.289 66.9682 215.614C63.6763 220.131 60.6706 224.805 58.1011 229.811C54.9655 235.909 52.0772 242.169 49.8463 248.664C47.9265 254.238 46.4052 259.977 45.716 265.832C46.3746 270.086 47.2341 274.872 46.0127 279.093Z" fill="#E5E9FA"/>
<path d="M55.9554 203.913C55.8762 202.195 55.9993 200.478 56.2175 198.761C56.2864 196.179 56.2602 193.598 56.0999 191.022C55.7935 186.19 55.0743 181.235 53.3142 176.686C54.089 180.798 54.681 184.938 54.9052 189.114C55.2261 195.082 54.7548 201.087 53.9099 206.994C51.9331 220.817 47.8371 234.206 45.5184 247.963C45.4972 248.073 45.4832 248.178 45.462 248.288C45.4812 249.006 45.4955 249.718 45.5098 250.43C45.5452 250.247 45.5806 250.064 45.616 249.881C47.0514 243.277 49.2024 236.868 51.1384 230.393C53.0408 223.993 54.536 217.603 55.2885 210.963C55.5564 208.628 55.7828 206.279 55.9458 203.931C55.9603 203.921 55.9603 203.921 55.9554 203.913Z" fill="#E5E9FA"/>
<path d="M68.6784 177.041C68.0469 177.033 67.1719 177.465 66.64 177.793C65.7318 178.365 64.9043 178.978 64.1412 179.748C62.8331 181.079 61.6744 182.52 60.6309 184.053C61.558 180.7 62.4874 177.334 63.241 173.929C63.3261 173.521 63.1515 172.525 62.5945 173.114C59.3782 176.488 58.1165 181.277 57.421 185.757C57.3016 186.538 57.1994 187.328 57.1216 188.124C56.9849 186.572 56.7848 185.02 56.5117 183.487C56.5737 183.657 56.6285 183.832 56.7173 183.995C56.7864 184.128 56.9002 183.998 56.9069 183.898C57.0794 181.14 56.4594 178.356 56.4759 175.586C56.497 172.4 56.9839 169.228 57.7468 166.134C57.8397 165.785 57.5106 165.424 57.3576 165.888C56.3576 168.898 55.7579 171.967 55.627 175.132C55.5638 176.702 55.6496 178.288 55.8034 179.85C55.8192 180.03 55.8422 180.205 55.858 180.386C55.0269 176.991 53.7967 173.728 51.9977 170.722C51.5048 169.9 50.9448 171.551 51.0399 171.943C52.644 179.164 53.8806 186.486 53.8377 193.909C53.8347 194.579 53.8122 195.252 53.7897 195.925C53.2059 193.084 51.9352 190.358 50.5393 187.855C50.4973 187.777 50.4432 187.697 50.4012 187.619C48.9598 184.107 46.9999 180.722 44.0393 178.322C43.4805 177.872 43.2243 179.361 43.4922 179.71C45.6533 182.513 47.7222 185.4 49.5045 188.459C49.8017 189.181 50.0794 189.905 50.3498 190.635C49.929 190.028 49.4549 189.468 48.925 188.967C47.772 187.859 46.3818 187.028 44.7977 186.741C43.0914 186.431 41.7393 187.367 40.7454 188.644C40.6946 188.71 40.648 189.049 40.8134 188.979C43.6682 187.802 46.6698 188.976 48.6972 191.095C49.3452 191.77 49.8326 192.491 50.213 193.273C49.9021 193.08 49.5478 192.949 49.2231 192.892C47.6267 192.604 45.9421 193.393 45.1638 194.832C45.1349 194.883 45.1148 195.183 45.2485 195.114C46.24 194.602 47.307 194.454 48.4279 194.353C49.1881 194.285 50.2957 194.384 50.7754 195.046C50.8 195.083 50.8437 195.053 50.8679 195.026C50.9203 195.214 50.9872 195.391 51.0324 195.583C51.4955 197.477 52.0598 199.174 53.1357 200.812C53.223 201.114 53.303 201.421 53.3975 201.717C52.9532 206.208 52.2015 210.684 51.3495 215.09C50.0208 221.992 48.3235 228.805 46.8019 235.658C46.2521 238.141 45.734 240.624 45.2452 243.118C44.9108 237.319 44.335 231.524 43.5619 225.767C42.2415 215.998 40.258 206.254 37.3549 196.814C37.384 196.794 37.4129 196.742 37.4224 196.694C37.457 196.776 37.4917 196.859 37.5263 196.942C37.6725 197.299 37.908 196.768 37.8801 196.586C37.4085 193.754 36.3999 191.211 35.5608 188.479C34.8163 186.044 34.5028 183.541 34.377 181.016C34.6192 179.24 35.0056 177.504 35.4172 175.9C35.8287 174.295 36.4336 172.804 37.1657 171.376C39.1781 169.611 41.9434 168.537 43.8948 166.761C43.9481 166.714 43.9951 166.439 43.8589 166.488C41.743 167.315 39.6962 168.274 38.0743 169.721C39.9847 166.488 42.4456 163.551 44.5833 160.418C44.663 160.301 44.6191 159.906 44.4423 160.1C40.8562 163.979 37.6173 168.026 35.6975 172.846C35.6903 172.851 35.6952 172.858 35.6879 172.863C35.6879 172.863 35.6879 172.863 35.6928 172.87C35.2393 174.004 34.8641 175.192 34.5623 176.425C34.472 176.793 34.3915 177.177 34.3038 177.565C34.3707 172.767 34.974 167.978 34.9971 163.178C35.0058 162.642 34.4329 162.265 34.1564 162.877C31.7578 168.307 31.4442 174.184 32.3006 180.002C32.6088 182.074 33.068 184.119 33.6076 186.14C33.3746 185.545 33.144 184.937 32.9037 184.346C30.8336 179.371 28.4012 174.534 25.5583 169.954C25.4932 168.163 25.4965 166.378 25.8143 164.604C26.2547 162.163 27.5197 159.812 29.0017 157.844C29.0694 157.756 29.0286 157.476 28.9003 157.616C27.2005 159.466 25.9406 161.463 25.4152 163.951C25.1217 165.338 25.0404 166.74 25.0859 168.141C24.1901 162.626 24.9313 156.895 26.2808 151.357C26.3546 151.074 26.1114 150.793 25.9699 151.164C24.3819 155.251 23.8496 159.706 23.9555 164.068C23.9882 165.372 24.104 166.705 24.3172 168.025C22.9581 165.952 21.5165 163.946 19.9803 162.004C19.3683 161.24 18.7841 162.919 19.0775 163.432C22.908 169.943 26.4203 176.659 29.1863 183.699C29.9222 185.556 30.5974 187.434 31.2458 189.318C31.1323 189.119 31.0189 188.92 30.9104 188.728C30.6688 188.308 30.4004 187.896 30.1393 187.478C30.3377 187.238 30.3646 186.87 30.2531 186.595C30.211 186.486 30.1009 186.433 29.999 186.502C30.2053 186.352 30.122 186.291 29.9203 186.024C29.7236 185.765 29.5779 185.471 29.4176 185.187C29.0797 184.577 28.7687 183.992 28.3361 183.447C26.7777 181.456 25.0082 179.64 23.2704 177.824C23.1918 177.739 23.1109 177.666 23.0372 177.589C21.3023 175.463 19.4291 173.431 17.3527 171.663C15.5316 168.641 14.8556 165.099 13.6783 161.726C13.6088 161.529 13.4571 161.822 13.4821 161.922C13.8875 164.311 14.3511 166.66 15.1702 168.938C15.339 169.408 15.5298 169.894 15.7451 170.385C14.6256 169.561 13.4553 168.804 12.2103 168.171C11.4739 167.789 11.3012 169.37 11.7327 169.757C13.6207 171.418 15.5764 172.992 17.5079 174.592C17.4492 174.568 17.3783 174.542 17.3197 174.518C14.1053 173.233 9.56274 172.041 6.25241 173.675C6.08469 173.757 5.94187 174.299 6.21984 174.302C9.70172 174.334 13.0634 174.628 16.384 175.755C16.924 175.942 17.4643 176.16 18.007 176.397C17.7047 176.39 17.4121 176.397 17.1271 176.43C14.5882 176.694 12.7765 178.206 11.8871 180.579C11.8177 180.774 11.9927 181.08 12.1447 180.818C13.2466 178.885 15.1827 177.777 17.3834 177.625C19.026 177.512 20.4313 178.036 21.8397 178.675C22.0921 178.875 22.3422 179.088 22.58 179.298C23.3369 180.229 24.072 181.175 24.7875 182.123C26.4203 184.286 28.0044 186.472 29.5352 188.704C31.0216 190.87 32.6727 193.233 33.1722 195.855C33.1949 195.967 33.258 195.935 33.3015 195.874C34.2188 199.019 35.0559 202.187 35.8222 205.361C39.326 219.911 41.385 234.993 41.6049 249.962C41.6419 252.323 41.674 254.678 41.7622 257.037C41.8524 259.32 42.2228 261.595 42.2958 263.868C42.3445 265.384 42.7984 266.966 43.1345 268.436C43.295 269.144 43.529 269.898 43.7069 270.648C43.7505 271.371 43.8137 272.092 43.9085 272.813C42.789 267.407 41.7961 261.968 40.813 256.544C39.6985 250.391 38.6132 244.22 37.3355 238.093C36.6031 234.122 35.7587 230.174 34.6806 226.288C34.2514 224.744 33.754 223.223 33.2226 221.716C33.123 221.38 33.0282 221.052 32.9286 220.716C32.5553 219.536 32.1675 218.366 31.7747 217.189C31.6463 216.544 31.5178 215.899 31.4088 215.251C31.2264 214.165 31.0439 213.08 30.8882 211.986C31.2532 211.113 31.8261 210.344 32.4333 209.594C32.4841 209.528 32.5256 209.15 32.3579 209.231C31.5654 209.597 31.0625 210.266 30.7675 211.039C30.6676 210.279 30.5555 209.517 30.4628 208.752C30.0119 204.569 29.8312 200.332 29.663 196.128C29.6543 195.911 29.4474 195.966 29.4315 196.147C29.0446 200.471 29.0693 204.73 29.526 209.046C29.6272 209.996 29.7478 210.943 29.8879 211.888C28.293 207.631 26.5182 203.453 24.578 199.344C24.4364 197.785 24.5019 196.202 24.7603 194.67C24.779 194.541 24.6493 194.459 24.6064 194.615C24.2725 195.785 24.115 197.09 24.1308 198.416C22.4975 195.012 20.7596 191.658 18.8832 188.365C18.8509 188.27 18.8235 188.183 18.7984 188.083C18.7486 187.915 18.6205 188.087 18.6504 188.194C20.2142 194.838 22.9359 201.059 25.7525 207.249C24.8136 205.688 23.826 204.149 22.756 202.677C21.1056 200.409 19.2512 198.279 17.2055 196.353C16.8522 195.626 16.5329 194.887 16.3373 194.033C16.0237 192.643 16.1465 191.255 16.1716 189.849C16.1732 189.71 16.0362 189.633 15.9712 189.772C15.3019 191.105 15.3441 192.753 15.5605 194.187C15.5938 194.44 15.6591 194.725 15.717 195.015C14.8418 194.27 13.94 193.565 12.9995 192.896C12.4313 192.495 12.1016 193.938 12.4452 194.289C16.3051 198.16 19.8377 202.316 23.0162 206.765C25.1688 209.776 27.0031 212.959 28.852 216.132C28.4481 215.503 28.037 214.88 27.6089 214.278C24.8827 210.404 21.4563 206.844 17.3329 204.467C17.1444 204.361 17.0618 204.788 17.1624 204.89C20.3819 208.112 23.6156 211.293 26.3745 214.933C26.4507 215.03 26.5074 215.129 26.5836 215.226C25.1036 214.074 23.2045 213.353 21.5046 214.418C21.3686 214.499 21.3151 214.907 21.5177 214.939C22.7503 215.145 23.857 215.118 25.0285 215.673C26.1485 216.199 27.0322 217.129 27.8377 218.038C28.6899 219 29.4231 220.053 30.1952 221.069C31.2511 223.007 32.256 224.979 33.3655 226.902C33.4222 227.002 33.4822 226.855 33.4672 226.801C33.4396 226.682 33.4072 226.556 33.3796 226.436C33.5421 227.069 33.7119 227.697 33.8744 228.329C34.598 231.298 35.2582 234.268 35.877 237.255C36.3927 240.12 36.8426 242.998 37.2801 245.842C38.3079 252.541 39.1213 259.268 40.0126 265.985C40.4021 268.947 40.8184 271.901 41.2736 274.85C39.6649 269.191 37.9273 263.577 35.9536 258.037C33.0637 249.903 29.6092 241.939 25.3773 234.426C25.011 233.178 24.4137 232.044 23.843 230.87C23.1191 229.376 22.4292 227.87 21.7417 226.351C20.352 223.291 19.0035 220.215 17.5724 217.173C16.742 215.411 15.8774 213.662 14.9643 211.935C14.9641 211.903 14.9639 211.872 14.9637 211.84C14.9436 210.602 14.87 209.378 14.8743 208.145C14.8756 207.974 14.7018 207.858 14.6079 208.049C14.2423 208.827 14.2509 209.797 14.2808 210.657C12.3862 207.197 10.2511 203.867 7.7325 200.818C7.1993 200.171 6.67254 201.683 7.06083 202.163C10.85 206.793 13.3893 212.321 15.8911 217.715C16.8652 219.815 17.866 221.907 18.7864 224.021C17.7139 222.529 16.6 221.055 15.4473 219.617C12.2228 215.603 8.71629 211.705 5.02158 208.125C3.8857 207.026 2.70398 206.001 1.47875 205.037C0.867379 204.368 0.302065 203.658 -0.219547 202.918C-0.544378 200.538 0.17691 198.184 1.84263 196.346C1.89833 196.287 1.89673 196.034 1.76308 196.103C-0.345494 197.317 -1.05337 199.864 -0.706897 202.197C-0.825042 202.022 -0.935919 201.843 -1.04186 201.67C-2.77393 198.843 -3.56526 195.569 -3.28156 192.269C-3.26133 192.001 -3.48656 191.856 -3.60167 192.157C-4.83918 195.381 -3.80661 199.011 -2.2519 201.937C-2.11858 202.197 -1.96834 202.435 -1.82045 202.685C-3.71053 201.46 -5.67777 200.371 -7.76347 199.438C-8.31118 199.193 -8.53519 200.384 -8.13118 200.652C-2.69624 204.137 1.80478 208.752 5.89344 213.699C5.94995 213.767 5.99424 213.832 6.05075 213.9C4.65916 212.847 3.14908 211.948 1.61756 211.127C-1.46753 209.469 -5.03295 207.807 -8.5584 207.443C-9.30254 207.363 -9.47254 208.995 -8.78369 209.198C-4.18873 210.577 0.140796 212.773 4.14874 215.388C6.23963 216.753 8.20241 218.29 10.0587 219.952C10.7061 220.533 11.3389 221.123 11.9621 221.731C13.9036 224.523 15.7382 227.377 17.5146 230.27C24.6053 241.822 30.7951 253.941 35.2145 266.769C39.6661 279.692 42.8646 293.007 47.2164 305.955C45.1969 300.489 43.6102 294.847 41.8145 289.304C39.5835 282.411 37.1724 275.565 34.2603 268.921C29.9997 259.2 24.4831 249.787 17.2164 241.993C16.7867 241.53 16.3402 241.089 15.9082 240.639C15.9131 240.646 15.9204 240.641 15.9204 240.641C16.2037 240.715 16.2823 240.047 16.0719 239.924C15.2962 239.483 14.3461 238.471 13.7129 237.817C13.7613 237.763 13.7942 237.56 13.6967 237.573C13.4335 237.592 13.0468 236.973 12.9164 236.796C12.6459 236.427 12.3948 236.056 12.1316 235.682C12.0971 235.632 12.0577 235.573 12.0305 235.517C10.9538 233.753 9.97903 231.919 8.93143 230.134C6.74741 226.403 4.25259 222.871 1.61702 219.445C1.12043 218.804 0.73956 220.25 0.998306 220.68C3.08286 224.107 5.24281 227.505 7.48759 230.825C8.29985 232.026 9.12941 233.268 10.0243 234.434C10.2118 234.774 10.4066 235.109 10.5964 235.437C7.62136 232.686 4.53728 230.04 1.38785 227.471C1.18029 227.038 0.972723 226.606 0.772441 226.169C-0.288445 223.831 -1.03199 221.554 -1.24838 218.974C-1.26436 218.762 -1.43463 218.824 -1.46768 218.995C-1.92456 221.521 -1.3834 223.797 -0.308145 226.093C-3.05296 223.886 -5.82434 221.719 -8.60044 219.576C-9.26198 219.069 -9.74021 220.92 -9.14719 221.388C-4.77058 224.847 -0.699266 228.607 3.10064 232.624C2.14616 232.061 1.12891 231.592 0.0585117 231.202C-1.23671 230.731 -2.61044 230.567 -3.99617 230.433C-5.22679 230.152 -6.46411 229.97 -7.6565 229.949C-8.31973 229.941 -8.51044 231.386 -7.86098 231.53C-6.59865 231.811 -5.3155 231.919 -4.03942 232.064C-1.98568 232.574 0.0236246 233.379 1.84768 234.193C3.42722 234.897 5.73303 235.936 7.35384 237.375C7.8132 237.913 8.26038 238.449 8.71246 238.992C8.97633 239.461 9.1721 239.954 9.23892 240.492C9.24938 240.602 9.34641 240.526 9.36057 240.453C9.38849 240.243 9.39691 240.035 9.39314 239.826C13.4308 244.807 17.1193 250.089 20.4873 255.587C28.2683 268.316 34.3219 282.023 40.3141 295.654C41.3607 298.034 42.3903 300.435 43.4321 302.839C43.193 302.438 42.9563 302.025 42.7172 301.625C39.9003 296.91 37.3701 292.023 34.5532 287.309C32.0813 283.167 29.4733 279.107 26.7635 275.115C26.8162 274.974 26.8223 274.779 26.7632 274.691C23.6736 270.044 20.8754 265.201 18.3591 260.209C18.5592 259.469 18.8424 258.757 19.1743 258.055C19.22 257.95 19.2274 257.585 19.0258 257.71C18.4672 258.046 18.0777 258.521 17.7984 259.081C15.5062 254.436 13.372 249.727 11.0652 245.092C10.717 244.404 10.2992 245.419 10.3601 245.791C11.1202 250.274 12.5423 254.574 14.4895 258.646C11.8209 255.391 9.06746 252.214 6.20005 249.135C2.56907 245.226 -1.02723 241.399 -5.07745 237.89C-9.18162 234.333 -13.5399 231.074 -18.0865 228.102C-18.8504 227.601 -19.1627 229.477 -18.6356 229.927C-14.2865 233.658 -10.1577 237.645 -6.19849 241.788C-8.61294 240.918 -11.421 240.642 -13.5987 241.722C-13.7469 241.801 -13.8833 242.212 -13.6707 242.291C-12.1943 242.873 -10.6556 242.904 -9.1061 243.108C-7.87864 243.275 -6.68425 243.612 -5.54257 244.092C-6.45416 244.518 -7.24341 245.391 -7.70885 246.194C-8.75801 247.985 -9.24193 250.095 -9.36284 252.16C-9.38759 252.485 -9.04463 252.741 -8.95474 252.309C-8.61837 250.766 -8.1818 249.261 -7.52295 247.818C-7.14295 246.999 -6.65288 246.233 -5.97893 245.628C-5.43587 245.145 -4.79337 244.965 -4.12643 244.789C-4.07997 244.811 -4.0335 244.833 -3.99432 244.859C-2.81481 245.536 -1.98564 246.715 -1.02145 247.654C-0.82515 247.85 -0.481538 248.201 -0.121637 248.435C2.72237 251.668 5.49611 254.969 8.18246 258.329C10.7335 261.504 13.2045 264.734 15.6367 268.001C14.005 266.389 12.2982 264.838 10.5673 263.346C5.73246 259.147 -0.255396 254.986 -6.97869 255.544C-7.74388 255.606 -7.99223 257.185 -7.21794 257.404C-1.88334 258.92 3.00719 261.913 7.53418 265.249C6.80062 264.917 6.05034 264.64 5.28805 264.391C2.24638 263.425 -1.34726 263.84 -1.72538 267.628C-1.74365 267.821 -1.58376 268.042 -1.45368 267.795C0.341931 264.533 4.70581 265.995 7.37564 267.149C8.69588 267.72 9.70018 268.451 10.8368 269.285C10.8931 269.321 10.9494 269.357 11.0107 269.4C10.2455 269.462 9.47226 269.794 8.96838 270.304C7.50517 271.782 7.75488 274.615 8.31486 276.4C8.41453 276.736 8.66134 276.442 8.65992 276.22C8.62816 274.682 8.50045 272.626 9.783 271.493C10.8449 270.552 12.2042 271.51 13.2341 270.899C13.2923 270.859 13.3014 270.747 13.2742 270.691C13.0759 270.178 12.7421 269.842 12.3263 269.635C12.4501 269.551 12.5369 269.397 12.5867 269.173C12.7068 269.272 12.8269 269.371 12.9421 269.463C16.7335 272.542 20.1233 276.095 23.217 279.869C25.6547 282.846 27.7674 286.095 30.3262 288.968C31.0475 290.051 31.7664 291.145 32.4804 292.232C38.2196 300.985 43.7354 309.879 49.1662 318.819C51.7535 323.084 54.3262 327.359 56.8794 331.637C58.9421 335.079 60.8763 338.63 63.177 341.922C63.5524 343.058 64.3018 343.962 65.0982 344.982C65.671 345.72 66.4177 346.572 67.4341 346.522C68.6162 346.465 69.7681 345.484 70.7298 344.897C72.2599 343.958 73.6906 342.746 74.7934 341.332C75.0812 340.957 75.2033 340.228 74.8837 339.818C74.8788 339.811 74.8762 339.791 74.8713 339.784C74.7089 339.544 74.5537 339.299 74.3913 339.058C74.3913 339.058 74.3912 339.058 74.3863 339.051C74.3355 338.725 74.0748 338.371 73.9413 338.079C73.5779 337.306 73.1878 336.541 72.7758 335.791C71.3871 333.282 70.0617 330.742 68.9135 328.102C66.1296 321.679 64.8339 315.023 65.6353 308.031C65.8317 306.329 66.1405 304.666 66.5176 303.011C67.4303 301.237 68.2722 299.438 69.4344 297.782C70.7656 295.874 72.2581 294.016 73.9006 292.364C74.1036 292.46 74.3066 292.556 74.495 292.662C74.4977 292.713 74.5151 292.754 74.547 292.786C74.8583 293.042 75.2203 293.232 75.6089 293.383C78.5585 295.579 80.4087 299.335 81.7825 302.574C81.8568 302.747 81.9941 302.495 81.9691 302.395C81.1241 299.498 79.6381 295.888 77.1719 293.779C77.7381 293.863 78.3041 293.915 78.809 293.956C79.0457 293.976 79.287 293.972 79.5309 293.987C80.9067 294.86 82.1859 295.873 83.4167 296.939C84.3214 297.728 85.3621 298.435 86.2015 299.299C86.4543 299.563 86.5603 298.983 86.5032 298.82C85.8818 296.959 84.4255 295.324 82.7492 293.975C83.0051 293.961 83.2587 293.959 83.5097 293.938C86.5702 293.661 89.467 292.561 91.4384 290.093C91.5037 290.017 91.5473 289.595 91.3479 289.677C88.6417 290.839 86.015 291.851 83.0467 292.076C82.0378 292.154 81.0332 292.144 80.0284 292.102C79.5733 291.837 79.123 291.579 78.6974 291.358C77.8925 290.937 76.9879 290.541 76.0577 290.343C79.3792 287.407 82.9854 284.766 85.5783 281.114C85.803 280.803 86.0559 279.168 85.2313 279.471C80.9599 281.034 77.0203 284.154 73.9768 287.486C71.7855 289.88 70.053 292.717 68.7286 295.702C71.4694 288.11 75.3509 280.838 78.1679 273.343C78.6905 271.95 79.1716 270.542 79.6184 269.116C79.714 268.817 79.7036 267.562 79.0617 267.837C76.122 269.093 73.9465 271.668 72.1807 274.252C69.7796 277.764 68.0101 281.676 66.514 285.648C66.5165 284.882 66.4114 284.083 66.2894 283.307C66.3053 282.734 66.2136 282.127 66.0806 281.538C65.9516 280.045 65.847 278.556 65.7375 277.06C65.7269 276.919 65.7186 276.766 65.703 276.617C66.0568 273.216 67.7676 270.033 69.4607 267.138C69.5065 267.064 69.4848 266.718 69.3271 266.846C67.2364 268.557 66.1064 271.061 65.4598 273.652C65.273 271.508 65.0327 269.379 64.6705 267.259C64.5136 266.368 63.7531 267.158 63.7835 267.721C63.9579 270.976 64.2785 274.228 64.5285 277.486C63.803 276.13 62.8732 274.85 61.7238 273.919C61.5056 273.738 61.402 274.306 61.4662 274.433C62.2986 276.119 63.3643 277.679 64.2113 279.355C64.394 279.719 64.5598 280.106 64.7085 280.483C64.8913 284.284 64.7569 288.056 64.3616 291.835C64.3522 291.883 64.3864 291.903 64.4156 291.883C62.4062 298.705 61.2133 305.856 61.3021 312.893C61.3108 313.502 61.3367 314.121 61.3699 314.735C60.313 311.885 59.4046 308.988 58.6373 306.049C58.5749 305.815 58.5221 305.565 58.4597 305.331C58.4543 305.26 58.4417 305.195 58.4242 305.122C56.6238 292.729 57.7593 280.016 60.2292 267.801C61.0423 263.793 62.0191 259.823 63.1399 255.893C63.1819 255.97 63.2506 256.041 63.3527 256.003C63.5401 255.951 63.671 255.831 63.7871 255.688C63.7899 255.739 63.7805 255.788 63.7882 255.847C63.7961 255.937 63.8714 255.907 63.8783 255.839C63.9017 255.685 63.9423 255.541 63.9828 255.397C64.043 255.282 64.1032 255.167 64.1585 255.045C64.2475 254.847 64.3707 254.668 64.4767 254.479C64.5033 254.44 64.5348 254.408 64.5663 254.376C65.9426 254.559 67.3618 254.586 68.7223 254.982C70.0928 255.391 71.4335 256.118 72.5461 257.01C72.7103 257.143 72.7662 256.723 72.7315 256.641C72.1046 255.07 70.9071 253.865 69.2776 253.354C68.5129 253.118 67.7613 253.011 66.9739 253.024C68.5241 252.57 70.3131 252.484 71.4591 252.484C74.3458 252.483 77.1668 253.249 79.9788 253.766C80.1375 253.796 80.1331 253.492 80.0839 253.419C78.239 250.487 73.36 250.445 70.3355 250.634C69.1827 250.703 67.9602 250.935 66.8878 251.374C67.6967 250.53 68.5646 249.742 69.4521 248.982C72.1048 246.69 74.9957 244.671 77.4887 242.189C77.7867 241.892 77.8774 240.441 77.1719 240.685C72.367 242.322 67.8178 245.812 64.8737 250.201C66.2482 245.909 67.7596 241.662 69.3982 237.477C69.5973 236.971 69.0982 235.558 68.5526 236.415C65.4889 241.16 62.8189 246.096 60.6675 251.295C60.3797 247.448 60.6195 243.393 59.6204 239.655C59.4181 238.901 58.9032 239.599 58.8866 240.046C58.7709 242.935 58.8478 245.811 58.9345 248.701C58.9535 249.389 58.9725 250.076 58.9843 250.768C58.215 250.196 57.1998 250.044 56.2214 249.932C55.8871 249.892 55.8087 250.593 56.0534 250.735C56.8195 251.193 57.5277 251.753 58.2672 252.25C58.5194 252.419 58.7889 252.629 59.0197 252.876C59.0373 253.734 59.0623 254.587 59.0995 255.443C57.0789 261.275 55.8889 267.363 55.2039 273.491C53.9716 284.413 54.7105 295.519 57.3532 306.175C57.4729 306.964 57.5657 307.76 57.7049 308.547C58.4188 312.678 59.4981 316.754 60.9252 320.701C60.6048 320.164 60.2844 319.628 59.9763 319.093C59.673 318.567 59.3843 318.03 59.0883 317.498C59.1891 317.239 59.2308 316.892 59.1762 316.749C57.8029 313.212 56.043 309.84 54.7329 306.271C53.4921 302.867 52.4894 299.344 51.565 295.843C50.0509 290.12 49.1991 284.246 49.015 278.324C48.6733 267.193 50.9999 256.21 54.6635 245.745C56.4761 240.562 58.6138 235.499 60.9323 230.515C61.006 230.592 61.106 230.599 61.2097 230.423C62.1179 228.705 62.8606 227.026 64.0698 225.486C64.4883 224.959 64.941 224.452 65.4084 223.966C66.1153 223.551 66.8121 223.091 67.5363 222.718C68.0563 222.451 68.5668 222.201 69.087 221.966C71.8321 221.913 73.8651 223.381 76.2132 224.562C76.4139 224.67 76.4697 224.25 76.3837 224.139C75.2428 222.64 73.3973 221.151 71.5118 221.016C71.5799 220.991 71.648 220.966 71.7138 220.953C74.7898 220.04 77.6412 220.615 80.7516 220.898C81.0005 220.921 81.0778 220.423 80.9403 220.283C78.5459 217.966 74.9877 218.198 71.967 218.989C71.4947 219.107 71.0203 219.269 70.5386 219.435C72.9621 217.51 75.4518 215.667 77.6272 213.453C77.8331 213.24 77.877 212.096 77.3933 212.339C77.3592 212.351 77.3301 212.371 77.2937 212.395C72.4771 214.878 67.8828 218.569 64.5273 223.055C66.8192 218.471 69.2113 213.926 71.5815 209.395C71.8537 208.871 71.5262 207.226 70.8296 208.111C68.4594 211.103 66.1552 214.147 63.9907 217.287C63.9954 217.262 63.9952 217.231 63.9999 217.206C64.1331 216.681 64.234 216.061 64.3102 215.405C64.4611 214.592 64.5704 213.765 64.7042 212.943C64.9995 211.088 65.3266 209.233 65.7978 207.419C66.7614 203.68 68.4719 200.465 71.1116 197.651C71.1987 197.56 71.1843 197.209 71.007 197.308C67.7756 199.09 66.1464 202.834 65.1952 206.214C64.9162 207.198 64.6909 208.199 64.5023 209.207C64.3824 206.456 64.0772 203.713 63.9645 200.957C63.9254 200.177 63.2331 200.582 63.2515 201.174C63.4321 205.019 63.8663 209.256 63.6071 213.345C63.4822 212.878 63.3428 212.421 63.2035 211.995C62.3532 209.419 60.9094 207.065 59.5779 204.719C59.4127 204.428 59.2474 204.89 59.3094 205.06C60.1307 207.295 61.1418 209.464 62.0044 211.682C62.6092 213.235 62.9993 214.753 63.1873 216.334C63.1348 216.508 63.0945 216.683 63.037 216.85C62.8552 217.397 62.5946 217.828 62.7203 218.422C62.7329 218.487 62.7625 218.531 62.792 218.575C62.7159 218.87 62.6226 219.156 62.5343 219.449C61.1434 221.567 59.8211 223.724 58.5992 225.951C55.348 231.894 52.4861 238.083 50.0493 244.399C48.0347 249.644 46.4064 255.052 45.3518 260.571C45.3963 259.523 45.4553 258.464 45.4754 257.411C45.5798 256.577 45.6964 255.745 45.8179 254.92C46.8064 248.205 48.869 241.697 50.8539 235.23C52.8172 228.843 54.7609 222.425 55.7988 215.815C56.7457 209.838 57.2431 203.731 57.3557 197.683C57.8999 194.705 58.4978 191.744 59.2714 188.791C59.3094 188.628 59.3595 188.467 59.4024 188.31C59.4217 188.276 59.441 188.242 59.453 188.212C60.5312 187.154 61.7077 186.21 63.0736 185.53C65.1055 184.517 67.499 184.023 69.73 183.649C69.9199 183.616 69.9608 183.143 69.7509 183.115C66.5979 182.659 63.6034 183.348 61.3203 185.104C62.2624 183.735 63.3294 182.44 64.4824 181.257C65.1849 180.538 65.8872 179.787 66.6412 179.129C67.3055 178.542 68.0844 177.951 68.6702 177.279C68.7678 177.298 68.8174 177.042 68.6784 177.041ZM61.9038 175.671C61.0036 179.409 59.952 183.112 58.9419 186.829C58.578 187.499 58.2461 188.201 57.9434 188.915C57.9499 188.783 57.9564 188.652 57.9628 188.52C58.3836 184.151 59.267 179.321 61.9038 175.671ZM52.2632 197.435C52.4935 198.372 52.7189 199.301 52.9687 200.236C52.6095 199.344 52.4059 198.399 52.2632 197.435ZM53.272 196.572C53.4181 196.93 53.5667 197.275 53.7128 197.632C53.6949 197.888 53.6843 198.139 53.6665 198.395C53.5455 197.777 53.4148 197.176 53.272 196.572ZM33.9566 166.332C33.7668 170.98 33.2502 175.615 33.3434 180.272C32.5725 175.617 32.5663 170.837 33.9566 166.332ZM43.553 266.01C43.067 262.827 42.9849 259.52 42.884 256.31C42.7678 252.623 42.7929 248.925 42.689 245.24C42.5824 241.535 42.2249 237.852 41.8673 234.169C40.4246 219.37 37.5783 204.693 33.0187 190.527C31.4491 185.648 29.583 180.927 27.4617 176.315C31.7747 184.325 34.9726 192.961 37.408 201.71C41.2234 215.403 43.1985 229.577 44.1179 243.743C44.2101 245.197 44.2706 246.652 44.3139 248.098C43.8923 250.409 43.522 252.749 43.4442 255.083C43.3682 257.309 43.5922 259.555 43.9332 261.785C43.8992 262.19 43.8603 262.588 43.8336 262.988C43.7509 264.168 43.6903 265.365 43.6614 266.562C43.609 266.375 43.581 266.192 43.553 266.01ZM45.3928 270.441C45.7836 272.839 46.0677 275.331 45.822 277.714C45.5092 275.306 45.34 272.874 45.3928 270.441ZM19.0277 188.861C20.9056 192.376 22.6254 195.955 24.209 199.583C24.3999 201.607 25.0099 203.592 26.1143 205.116C26.1586 205.181 26.2041 205.044 26.1867 205.003C25.5082 203.733 25.0581 202.361 24.8004 200.944C26.3077 204.476 27.6911 208.059 28.9577 211.69C25.5124 204.398 21.6828 197.26 19.2468 189.562C19.1721 189.326 19.0975 189.09 19.0277 188.861ZM31.4771 220.594C31.7524 221.331 32.0156 222.065 32.2714 222.805C31.7855 221.553 31.2243 220.33 30.5876 219.138C30.8785 219.631 31.1717 220.111 31.4771 220.594ZM36.9245 267.681C34.6573 260.845 32.0712 254.086 28.7973 247.675C25.9456 242.093 22.9798 236.578 19.7733 231.193C15.1868 223.485 10.0159 215.918 3.80321 209.384C5.47877 210.998 7.07915 212.674 8.61377 214.363C13.5591 219.823 18.1325 225.471 22.0296 231.736C29.883 244.353 35.0664 258.468 39.2653 272.665C40.6433 277.323 41.8729 282.029 43.2023 286.71C43.3969 287.406 43.6111 288.099 43.8057 288.795C44.6272 292.6 45.5608 296.381 46.6721 300.128C43.2656 289.362 40.4795 278.4 36.9245 267.681ZM55.2607 322.887C53.3321 318.686 51.6465 314.341 50.0488 310.033C49.9149 309.678 49.8004 309.32 49.6714 308.973C51.7092 314.246 54.117 319.407 56.5048 324.507C57.0239 325.62 57.5697 326.725 58.1302 327.821C57.1543 326.189 56.1929 324.548 55.2607 322.887ZM23.6533 258.071C18.8826 249.777 13.427 241.914 7.17621 234.759C13.6472 240.513 19.6386 246.751 24.4904 254.004C32.6384 266.178 37.4917 280.134 41.9078 293.993C42.5673 296.082 43.2122 298.182 43.8643 300.276C43.5673 299.586 43.268 298.908 42.9686 298.23C36.9889 284.632 31.0721 270.971 23.6533 258.071ZM18.0858 263.226C18.0661 263.197 18.0415 263.16 18.0169 263.124C18.042 262.863 18.0672 262.602 18.0801 262.339C18.5714 263.301 19.0651 264.25 19.5783 265.197C19.0792 264.538 18.5873 263.873 18.0858 263.226ZM17.2459 261.906C14.9069 257.96 13.1219 253.704 11.9843 249.276C13.7789 253.122 15.4814 257.052 17.3613 260.883C17.3049 261.208 17.2705 261.549 17.2459 261.906ZM11.9966 268.787C12.1658 268.927 12.33 269.06 12.4991 269.2C12.4209 269.179 12.2248 269.014 11.9966 268.787ZM1.79665 259.433C4.39898 260.707 6.81416 262.458 9.03467 264.266C6.72677 262.517 4.31712 260.868 1.79665 259.433ZM22.2192 274.423C13.4334 262.012 4.0103 249.852 -6.64823 238.942C-4.76065 240.54 -2.90199 242.19 -1.11361 243.908C1.5407 246.452 3.92573 249.209 6.41766 251.905C9.12815 254.846 11.7369 257.887 14.2655 260.983C24.3432 273.326 32.9311 286.825 40.491 300.828C43.3852 306.191 46.6488 311.377 49.6645 316.668C49.7558 316.85 49.8472 317.033 49.9386 317.215C48.3444 314.591 46.7478 311.979 45.139 309.365C37.8196 297.522 30.2743 285.8 22.2192 274.423ZM66.1194 343.762C65.5765 343.131 65.0797 342.46 64.5951 341.79C64.2997 340.961 63.8235 340.084 63.6924 339.78C63.6701 339.732 63.6479 339.683 63.6305 339.642C64.112 340.197 64.6079 340.742 65.1208 341.265C65.3229 341.595 65.4983 341.964 65.5029 342.301C65.5012 342.8 66.0003 342.675 66.039 342.246C66.0461 342.209 66.0337 342.175 66.0358 342.131C66.2713 342.354 66.4922 342.586 66.73 342.797C67.3626 343.356 68.0679 343.833 68.7828 344.294C68.496 344.435 68.2042 344.569 67.9147 344.658C67.1289 344.925 66.5738 344.292 66.1194 343.762ZM71.0047 342.887C70.66 343.131 70.2813 343.387 69.8977 343.636C69.9014 343.453 69.8734 343.27 69.8066 343.124C70.1094 343.195 70.1617 342.598 70.0313 342.421C68.0365 339.675 65.6269 337.273 63.695 334.464C61.6696 331.516 59.9768 328.354 58.4057 325.152C55.4167 319.069 52.5533 312.794 50.1722 306.449C45.3456 293.599 43.1228 279.985 41.3053 266.437C41.2747 266.235 41.2515 266.028 41.2209 265.826C41.5591 267.613 41.8995 269.388 42.2571 271.172C44.6849 283.299 47.695 295.362 52.369 306.841C55.6558 314.887 59.9046 322.377 64.7242 329.535C65.3982 330.862 66.1064 332.175 66.8777 333.457C68.0531 335.399 69.4263 337.398 71.295 338.702C71.649 339.163 71.9958 339.628 72.3547 340.096C72.6989 340.542 73.0547 340.143 73.2074 339.615C73.2147 339.61 73.222 339.605 73.222 339.605C73.1934 339.72 73.1992 339.854 73.2266 339.942C73.3361 340.292 73.4084 340.54 73.4952 340.778C72.7737 341.563 71.9125 342.252 71.0047 342.887ZM74.1101 292.328C74.317 292.273 74.5386 292.24 74.7849 292.243C75.0117 292.249 75.2361 292.267 75.4631 292.304C75.2318 292.355 75.0129 292.439 74.8062 292.526C74.5741 292.449 74.3469 292.38 74.1101 292.328ZM78.9359 285.182C80.0472 284.345 81.1857 283.565 82.376 282.877C79.7041 285.596 76.5685 287.865 73.8328 290.521C73.003 290.785 72.4175 291.489 72.1058 292.315C71.8057 292.656 71.5104 293.004 71.2201 293.36C72.0894 292.04 73.0003 290.734 74.0679 289.535C75.5129 287.889 77.1766 286.488 78.9359 285.182ZM65.6383 286.346C65.7031 286.567 65.7898 286.774 65.891 286.971C65.9379 287.056 65.9918 287.104 66.0456 287.121C65.7197 288.02 65.4061 288.922 65.1145 289.84C65.3803 288.695 65.5556 287.526 65.6383 286.346ZM63.5415 301.247C65.075 292.434 67.8755 283.125 72.9627 275.675C74.2815 273.733 75.9049 271.754 77.9499 270.509C74.1702 281.509 67.9907 291.629 65.3841 303.046C63.9561 309.284 63.7822 315.65 65.3384 321.874C65.7962 323.697 66.3856 325.494 67.0697 327.259C66.3717 325.992 65.7004 324.717 65.0605 323.41C64.6011 322.479 64.1635 321.534 63.7405 320.579C61.7919 314.386 62.4337 307.598 63.5415 301.247ZM72.558 244.739C71.2262 245.799 69.8895 246.851 68.6093 247.972C68.105 248.419 67.6106 248.88 67.126 249.357C68.7238 247.576 70.5595 246.006 72.558 244.739ZM59.7632 251.716C59.7606 251.304 59.758 250.892 59.7504 250.473C59.8076 251.028 59.8989 251.571 60.0509 252.094C60.1082 252.289 60.1941 252.369 60.2941 252.375C60.2461 252.493 60.203 252.617 60.1526 252.747C60.1016 252.389 59.9531 252.044 59.7632 251.716ZM56.9252 269.664C58.3266 260.421 61.4216 251.782 65.8561 243.681C60.1483 259.709 56.1494 276.851 56.3946 293.881C55.5119 285.843 55.7109 277.678 56.9252 269.664ZM63.6393 323.819C64.6623 325.96 65.7753 328.061 66.9903 330.092C66.5031 329.404 66.0184 328.702 65.5409 327.996C64.864 326.619 64.2381 325.207 63.6393 323.819ZM58.102 229.798C60.6764 224.8 63.6821 220.126 66.9691 215.601C57.8145 233.281 49.1745 251.738 47.9788 271.832C47.5491 278.997 48.1265 286.191 49.6245 293.209C50.2102 295.974 50.9664 298.708 51.7834 301.423C51.4908 300.645 51.2054 299.862 50.9273 299.074C49.5094 295.047 48.2935 290.958 47.1969 286.841C46.8457 284.533 46.5017 282.219 46.1261 279.906C46.078 279.631 46.0495 279.353 46.0136 279.081C47.2277 274.865 46.3755 270.073 45.7192 265.807C46.4084 259.952 47.9298 254.213 49.8496 248.64C52.083 242.164 54.9591 235.902 58.102 229.798ZM55.2998 210.965C54.5473 217.605 53.0521 223.995 51.1497 230.395C49.221 236.865 47.07 243.274 45.6273 249.883C45.5919 250.066 45.5565 250.249 45.5211 250.432C45.5068 249.72 45.4949 248.996 45.4733 248.289C45.4945 248.18 45.5085 248.075 45.5297 247.965C47.8411 234.213 51.9444 220.819 53.9213 206.996C54.7662 201.089 55.2374 195.084 54.9165 189.116C54.6924 184.94 54.1003 180.8 53.3255 176.688C55.0856 181.237 55.8048 186.192 56.1112 191.024C56.2715 193.6 56.2977 196.181 56.2289 198.763C56.0033 200.485 55.8924 202.205 55.9667 203.915C55.9716 203.923 55.9716 203.923 55.9766 203.93C55.7941 206.281 55.5628 208.623 55.2998 210.965Z" fill="#E5E9FA"/>
</g>
<defs>
<linearGradient id="paint0_linear" x1="-57.3406" y1="129.386" x2="391.611" y2="129.386" gradientUnits="userSpaceOnUse">
<stop stop-color="#E4FFFF"/>
<stop offset="1" stop-color="white" stop-opacity="0.4"/>
</linearGradient>
<linearGradient id="paint1_linear" x1="-16.0619" y1="212.033" x2="432.434" y2="212.033" gradientUnits="userSpaceOnUse">
<stop stop-color="#E4FFFF"/>
<stop offset="1" stop-color="white" stop-opacity="0.4"/>
</linearGradient>
<linearGradient id="paint2_linear" x1="-3.82602" y1="64.8026" x2="391.141" y2="64.8026" gradientUnits="userSpaceOnUse">
<stop stop-color="#E4FFFF"/>
<stop offset="1" stop-color="white" stop-opacity="0.4"/>
</linearGradient>
</defs>
</svg>
