<svg width="45" height="45" viewBox="0 0 45 45" fill="none" xmlns="http://www.w3.org/2000/svg">
<path d="M10.0117 3C10.0117 1.34315 11.3549 0 13.0117 0H15.204V20.7692H10.0117V3Z" fill="#D6D9E0"/>
<path d="M29.0508 0H31.2431C32.8999 0 34.2431 1.34315 34.2431 3V20.7692H29.0508V0Z" fill="#D6D9E0"/>
<rect x="19.5312" width="5.19231" height="20.7692" fill="#D6D9E0"/>
<path fill-rule="evenodd" clip-rule="evenodd" d="M22.128 45.0001C31.6868 45.0001 39.4357 37.2512 39.4357 27.6925C39.4357 18.1337 31.6868 10.3848 22.128 10.3848C12.5692 10.3848 4.82031 18.1337 4.82031 27.6925C4.82031 37.2512 12.5692 45.0001 22.128 45.0001Z" fill="#F6B191"/>
<path fill-rule="evenodd" clip-rule="evenodd" d="M22.1271 39.8079C28.8182 39.8079 34.2425 34.3837 34.2425 27.6925C34.2425 21.0014 28.8182 15.5771 22.1271 15.5771C15.436 15.5771 10.0117 21.0014 10.0117 27.6925C10.0117 34.3837 15.436 39.8079 22.1271 39.8079Z" fill="#DE7F65"/>
<path d="M21.6782 33.4322C20.5232 33.4322 19.5538 33.2524 18.77 32.893C17.9863 32.5335 17.4088 32.0886 17.0375 31.5582C16.6663 31.0279 16.4689 30.4975 16.4453 29.9672C16.4453 29.8611 16.4836 29.7727 16.5602 29.702C16.6368 29.6313 16.7282 29.5959 16.8342 29.5959H19.2739C19.4153 29.5959 19.5273 29.6224 19.6098 29.6755C19.6923 29.7285 19.7689 29.8139 19.8396 29.9318C20.0635 30.5093 20.6823 30.798 21.6958 30.798C22.2733 30.798 22.7212 30.6625 23.0394 30.3914C23.3576 30.1204 23.5167 29.755 23.5167 29.2954C23.5167 28.4114 22.9275 27.9695 21.7489 27.9695H19.7689C19.6392 27.9695 19.5302 27.9253 19.4418 27.8369C19.3534 27.7485 19.3092 27.6395 19.3092 27.5098V26.4668C19.3092 26.1957 19.4094 25.9954 19.6098 25.8657L22.456 23.5322H17.5767C17.4589 23.5322 17.3558 23.488 17.2674 23.3996C17.179 23.3112 17.1348 23.2081 17.1348 23.0902V21.34C17.1348 21.2104 17.176 21.1014 17.2585 21.013C17.341 20.9246 17.4471 20.8804 17.5767 20.8804H25.815C25.9446 20.8804 26.0507 20.9246 26.1332 21.013C26.2157 21.1014 26.2569 21.2104 26.2569 21.34V22.9134C26.2569 23.1114 26.1966 23.2755 26.0759 23.4056L23.3576 25.8834L23.4814 25.9188C24.5421 26.072 25.3848 26.4373 26.0094 27.0148C26.6341 27.5923 26.9464 28.4232 26.9464 29.5075C26.9464 30.2972 26.7195 30.9896 26.2658 31.5847C25.812 32.1799 25.1874 32.6366 24.3918 32.9548C23.5963 33.2731 22.6917 33.4322 21.6782 33.4322Z" fill="white"/>
</svg>
