<svg width="96" height="107" viewBox="0 0 96 107" fill="none" xmlns="http://www.w3.org/2000/svg">
<circle cx="48" cy="48" r="48" fill="#FFF8FF"/>
<mask id="mask0" mask-type="alpha" maskUnits="userSpaceOnUse" x="0" y="0" width="96" height="96">
<circle cx="48" cy="48" r="48" fill="#FFF8FF"/>
</mask>
<g mask="url(#mask0)">
<path d="M56.432 47.185C56.8229 47.185 57.1975 47.2665 57.5477 47.3968C60.9923 34.017 64.4289 20.6291 67.8736 7.24126C68.3785 5.27053 68.8834 3.29981 69.3964 1.32908C69.6081 0.506593 68.9892 -0.340332 68.126 -0.340332C67.7026 -0.340332 67.2791 -0.340332 66.8556 -0.340332C62.0021 -0.340332 57.1242 -0.340332 52.2707 -0.340332C52.0915 -0.340332 51.9286 -0.307758 51.7902 -0.250753C51.7576 -0.24261 51.7413 -0.234465 51.7169 -0.218179C51.7088 -0.226322 51.7088 -0.218179 51.7088 -0.218179C51.3749 -0.0960262 51.098 0.180855 50.9921 0.63689C50.0638 4.44804 49.1354 8.27548 48.2152 12.0866C47.2869 8.27548 46.3585 4.44804 45.4464 0.63689C45.308 0.0831329 44.7379 -0.332187 44.176 -0.332187C39.3144 -0.332187 34.4527 -0.332187 29.5911 -0.332187C29.1676 -0.332187 28.736 -0.332187 28.3125 -0.332187C27.4412 -0.332187 26.8304 0.514738 27.0422 1.33723C30.6579 15.3033 34.2736 29.2531 37.8893 43.2192C38.2476 44.6036 38.6059 45.9961 38.9642 47.3805C39.29 47.2665 39.6401 47.1932 40.0066 47.1932H56.432V47.185Z" fill="#9A3995"/>
</g>
<path fill-rule="evenodd" clip-rule="evenodd" d="M29 82.9961C29 72.5215 37.5136 64 47.9961 64C58.4785 64 67 72.5215 67 82.9961C67 93.4707 58.4785 102 47.9961 102C37.5214 102 29 93.4786 29 82.9961Z" fill="#9A3995"/>
<path d="M57 90.7064C56.1402 91.7198 55.0793 92.5268 53.8171 93.1273C52.5549 93.7091 51.1006 94 49.4543 94C47.9543 94 46.564 93.7466 45.2835 93.2399C44.0213 92.7332 42.9238 92.0201 41.9909 91.1005C41.0579 90.1622 40.3262 89.0456 39.7957 87.7507C39.2652 86.4558 39 85.0295 39 83.4718C39 81.8767 39.2652 80.4316 39.7957 79.1367C40.3445 77.8418 41.0945 76.744 42.0457 75.8432C42.997 74.9236 44.1128 74.2198 45.3933 73.7319C46.6738 73.244 48.0549 73 49.5366 73C50.9085 73 52.253 73.2534 53.5701 73.7601C54.9055 74.248 55.9848 74.9705 56.8079 75.9276L53.625 79.193C53.186 78.5737 52.6098 78.1139 51.8963 77.8137C51.1829 77.5134 50.4512 77.3633 49.7012 77.3633C48.878 77.3633 48.1189 77.5228 47.4238 77.8418C46.747 78.1421 46.1616 78.5643 45.6677 79.1086C45.1738 79.6528 44.7896 80.3003 44.5152 81.0509C44.2409 81.7828 44.1037 82.5898 44.1037 83.4718C44.1037 84.3727 44.2409 85.1984 44.5152 85.9491C44.7896 86.6997 45.1646 87.3472 45.6402 87.8914C46.1341 88.4169 46.7195 88.8298 47.3963 89.13C48.0732 89.4303 48.814 89.5804 49.6189 89.5804C50.5518 89.5804 51.3659 89.3928 52.061 89.0174C52.7561 88.6421 53.314 88.1542 53.7348 87.5536L57 90.7064Z" fill="white"/>
</svg>
