<svg width="133" height="117" viewBox="0 0 133 117" fill="none" xmlns="http://www.w3.org/2000/svg">
<path d="M108.062 16.7155V0H24.9375V16.7155H4.60998e-08V33.431C-0.000238018 37.3679 0.921565 41.2495 2.69078 44.7616C4.45999 48.2737 7.0269 51.3175 10.1837 53.6467C13.3404 55.9759 16.9984 57.525 20.8613 58.1685C24.7242 58.812 28.6835 58.5319 32.4188 57.3508C38.5195 66.1378 47.7446 72.2326 58.1875 74.3755V100.285H49.875C45.4658 100.285 41.2371 102.046 38.1194 105.18C35.0016 108.315 33.25 112.567 33.25 117H99.75C99.75 112.567 97.9984 108.315 94.8806 105.18C91.7629 102.046 87.5342 100.285 83.125 100.285H74.8125V74.3755C85.2544 72.2302 94.4787 66.136 100.581 57.3508C104.316 58.5319 108.276 58.812 112.139 58.1685C116.002 57.525 119.66 55.9759 122.816 53.6467C125.973 51.3175 128.54 48.2737 130.309 44.7616C132.078 41.2495 133 37.3679 133 33.431V16.7155H108.062ZM24.9375 48.5835C20.9419 48.5791 17.1112 46.9813 14.2859 44.1406C11.4605 41.2999 9.87134 37.4483 9.86694 33.431V25.0732H24.9375V33.431C24.9375 38.6796 25.9017 43.7026 27.6557 48.3245C26.7746 48.4833 25.8602 48.5752 24.9375 48.5752V48.5835ZM123.133 33.431C123.13 35.6512 122.642 37.8437 121.704 39.8535C120.766 41.8634 119.4 43.6418 117.703 45.063C116.007 46.4842 114.021 47.5136 111.885 48.0786C109.75 48.6436 107.517 48.7304 105.344 48.3328C107.146 43.5765 108.067 38.5289 108.062 33.4393V25.0816H123.133V33.4393V33.431Z" fill="#8E6DDB"/>
</svg>
