<svg width="79" height="69" viewBox="0 0 79 69" fill="none" xmlns="http://www.w3.org/2000/svg">
<path d="M64.1875 9.85785V0H14.8125V9.85785H2.73826e-08V19.7157C-0.000141379 22.0374 0.547396 24.3266 1.59828 26.3978C2.64917 28.4691 4.17387 30.2642 6.04894 31.6378C7.92402 33.0114 10.0968 33.925 12.3913 34.3045C14.6858 34.684 17.0376 34.5188 19.2563 33.8223C22.88 39.0044 28.3596 42.5987 34.5625 43.8625V59.1422H29.625C27.006 59.1422 24.4942 60.1807 22.6423 62.0294C20.7904 63.8782 19.75 66.3855 19.75 69H59.25C59.25 66.3855 58.2096 63.8782 56.3577 62.0294C54.5058 60.1807 51.994 59.1422 49.375 59.1422H44.4375V43.8625C50.6399 42.5973 56.1189 39.0033 59.7438 33.8223C61.9624 34.5188 64.3142 34.684 66.6087 34.3045C68.9032 33.925 71.076 33.0114 72.9511 31.6378C74.8261 30.2642 76.3508 28.4691 77.4017 26.3978C78.4526 24.3266 79.0001 22.0374 79 19.7157V9.85785H64.1875ZM14.8125 28.6518C12.4392 28.6492 10.1638 27.7069 8.48559 26.0316C6.80739 24.3563 5.86343 22.0849 5.86081 19.7157V14.7868H14.8125V19.7157C14.8125 22.8111 15.3852 25.7733 16.4271 28.499C15.9037 28.5927 15.3606 28.6469 14.8125 28.6469V28.6518ZM73.1392 19.7157C73.1373 21.0251 72.8474 22.3181 72.2902 23.5034C71.7329 24.6887 70.9218 25.7374 69.9141 26.5756C68.9063 27.4137 67.7266 28.0208 66.4581 28.354C65.1897 28.6873 63.8634 28.7384 62.5729 28.504C63.6431 25.6989 64.1903 22.7222 64.1875 19.7206V14.7917H73.1392V19.7206V19.7157Z" fill="#CF72CA"/>
</svg>
