<svg width="7" height="15" viewBox="0 0 7 15" fill="none" xmlns="http://www.w3.org/2000/svg">
<path d="M3.4674 2.40356C4.13113 2.40356 4.66918 1.8655 4.66918 1.20178C4.66918 0.538055 4.13113 0 3.4674 0C2.80368 0 2.26562 0.538055 2.26562 1.20178C2.26562 1.8655 2.80368 2.40356 3.4674 2.40356Z" fill="#CACCCF"/>
<path d="M6.39128 9.17755L4.66975 4.44706L4.65984 4.39841C4.65984 4.32936 4.71782 4.27342 4.79007 4.27342C4.85155 4.27342 4.90311 4.3145 4.91681 4.36927L6.08712 7.42951C6.16491 7.60461 6.4848 7.72085 6.69515 7.72085C6.97629 7.72085 7.00543 7.16876 6.99931 7.13817L5.82899 4.12076C5.72732 3.44456 5.04441 2.76807 4.26508 2.76807H2.73991C1.96058 2.76807 1.22698 3.44456 1.1253 4.12076L0.00743177 7.13817C-0.0179148 7.19615 0.00743156 7.72085 0.311299 7.72085C0.547576 7.72085 0.861933 7.6384 0.919327 7.42951L2.04827 4.35616C2.05791 4.33156 2.0748 4.31046 2.09671 4.29568C2.11861 4.2809 2.1445 4.27314 2.17092 4.27342C2.24289 4.27342 2.30086 4.32936 2.30086 4.39812L2.2927 4.44269L0.615459 9.17755C0.612254 9.19154 0.615459 9.45462 0.615459 9.46889C0.615459 9.5697 0.858728 9.76023 0.964485 9.76023H2.04652V13.5753C2.04652 13.8783 2.31339 14.1303 2.6292 14.1303C2.94502 14.1303 3.21188 13.878 3.21188 13.5753V9.75761C3.21188 9.67516 3.79456 9.67778 3.79456 9.76023V13.5477C3.79456 13.8507 4.06172 14.1303 4.37724 14.1303C4.69364 14.1303 4.95993 13.8504 4.95993 13.5477V9.76023H6.08712C6.19259 9.76023 6.39128 9.5697 6.39128 9.46889C6.39128 9.44559 6.39973 9.19766 6.39128 9.17755Z" fill="#CACCCF"/>
</svg>
