<svg width="66" height="66" viewBox="0 0 66 66" fill="none" xmlns="http://www.w3.org/2000/svg">
<circle cx="33" cy="33" r="33" fill="#9A3995"/>
<path d="M15.1838 28.088H21.5818V29.628H16.9478V32.344H21.3158V33.828H16.9478V38H15.1838V28.088ZM22.9071 31.28H24.5871V38H22.9071V31.28ZM22.6691 28.998C22.6691 28.7273 22.7671 28.494 22.9631 28.298C23.1684 28.0927 23.4251 27.99 23.7331 27.99C24.0411 27.99 24.2978 28.088 24.5031 28.284C24.7178 28.4707 24.8251 28.7087 24.8251 28.998C24.8251 29.2873 24.7178 29.53 24.5031 29.726C24.2978 29.9127 24.0411 30.006 23.7331 30.006C23.4251 30.006 23.1684 29.908 22.9631 29.712C22.7671 29.5067 22.6691 29.2687 22.6691 28.998ZM26.6252 31.28H28.2212V32.358H28.2492C28.3985 32.022 28.6552 31.728 29.0192 31.476C29.3925 31.2147 29.8312 31.084 30.3352 31.084C30.7739 31.084 31.1472 31.1633 31.4552 31.322C31.7725 31.4713 32.0292 31.672 32.2252 31.924C32.4305 32.176 32.5799 32.4653 32.6732 32.792C32.7665 33.1187 32.8132 33.4547 32.8132 33.8V38H31.1332V34.276C31.1332 34.08 31.1192 33.8747 31.0912 33.66C31.0632 33.4453 31.0025 33.254 30.9092 33.086C30.8159 32.9087 30.6852 32.764 30.5172 32.652C30.3585 32.54 30.1439 32.484 29.8732 32.484C29.6025 32.484 29.3692 32.54 29.1732 32.652C28.9772 32.7547 28.8139 32.89 28.6832 33.058C28.5619 33.226 28.4685 33.422 28.4032 33.646C28.3379 33.8607 28.3052 34.08 28.3052 34.304V38H26.6252V31.28ZM34.8016 31.28H36.4816V38H34.8016V31.28ZM34.5636 28.998C34.5636 28.7273 34.6616 28.494 34.8576 28.298C35.063 28.0927 35.3196 27.99 35.6276 27.99C35.9356 27.99 36.1923 28.088 36.3976 28.284C36.6123 28.4707 36.7196 28.7087 36.7196 28.998C36.7196 29.2873 36.6123 29.53 36.3976 29.726C36.1923 29.9127 35.9356 30.006 35.6276 30.006C35.3196 30.006 35.063 29.908 34.8576 29.712C34.6616 29.5067 34.5636 29.2687 34.5636 28.998ZM42.2017 33.072C42.0524 32.876 41.8471 32.708 41.5857 32.568C41.3244 32.4187 41.0397 32.344 40.7317 32.344C40.4611 32.344 40.2137 32.4 39.9897 32.512C39.7657 32.624 39.6537 32.8107 39.6537 33.072C39.6537 33.3333 39.7751 33.52 40.0177 33.632C40.2697 33.7347 40.6337 33.842 41.1097 33.954C41.3617 34.01 41.6137 34.0847 41.8657 34.178C42.1271 34.2713 42.3604 34.3973 42.5657 34.556C42.7804 34.7053 42.9531 34.8967 43.0837 35.13C43.2144 35.354 43.2797 35.6293 43.2797 35.956C43.2797 36.3667 43.2004 36.7167 43.0417 37.006C42.8924 37.286 42.6871 37.5147 42.4257 37.692C42.1737 37.8693 41.8751 37.9953 41.5297 38.07C41.1937 38.154 40.8437 38.196 40.4797 38.196C39.9571 38.196 39.4484 38.1027 38.9537 37.916C38.4591 37.72 38.0484 37.4447 37.7217 37.09L38.8277 36.054C39.0144 36.2967 39.2571 36.4973 39.5557 36.656C39.8544 36.8147 40.1857 36.894 40.5497 36.894C40.6711 36.894 40.7924 36.88 40.9137 36.852C41.0444 36.824 41.1611 36.782 41.2637 36.726C41.3757 36.6607 41.4644 36.5767 41.5297 36.474C41.5951 36.3713 41.6277 36.2453 41.6277 36.096C41.6277 35.816 41.4971 35.6153 41.2357 35.494C40.9837 35.3727 40.6011 35.2513 40.0877 35.13C39.8357 35.074 39.5884 35.004 39.3457 34.92C39.1124 34.8267 38.9024 34.71 38.7157 34.57C38.5291 34.4207 38.3797 34.2387 38.2677 34.024C38.1557 33.8093 38.0997 33.5433 38.0997 33.226C38.0997 32.8527 38.1744 32.5307 38.3237 32.26C38.4824 31.9893 38.6877 31.77 38.9397 31.602C39.1917 31.4247 39.4764 31.294 39.7937 31.21C40.1111 31.126 40.4377 31.084 40.7737 31.084C41.2591 31.084 41.7304 31.168 42.1877 31.336C42.6544 31.504 43.0231 31.7607 43.2937 32.106L42.2017 33.072ZM48.4784 31.084C48.9171 31.084 49.2904 31.1633 49.5984 31.322C49.9158 31.4713 50.1724 31.672 50.3684 31.924C50.5738 32.176 50.7231 32.4653 50.8164 32.792C50.9098 33.1187 50.9564 33.4547 50.9564 33.8V38H49.2764V34.304C49.2764 34.108 49.2624 33.9073 49.2344 33.702C49.2064 33.4873 49.1458 33.296 49.0524 33.128C48.9684 32.9507 48.8424 32.806 48.6744 32.694C48.5158 32.582 48.3011 32.526 48.0304 32.526C47.7598 32.526 47.5264 32.5773 47.3304 32.68C47.1344 32.7827 46.9711 32.9227 46.8404 33.1C46.7098 33.268 46.6118 33.4593 46.5464 33.674C46.4811 33.8887 46.4484 34.108 46.4484 34.332V38H44.7684V27.416H46.4484V32.218H46.4764C46.5418 32.078 46.6351 31.9427 46.7564 31.812C46.8871 31.672 47.0364 31.5507 47.2044 31.448C47.3724 31.336 47.5638 31.2473 47.7784 31.182C47.9931 31.1167 48.2264 31.084 48.4784 31.084Z" fill="white"/>
</svg>
