<svg width="46" height="46" viewBox="0 0 46 46" fill="none" xmlns="http://www.w3.org/2000/svg">
<circle cx="23" cy="23" r="23" fill="#FFE2DF"/>
<path fill-rule="evenodd" clip-rule="evenodd" d="M23.3778 36.6504C17.3733 36.5168 13 32.6128 13 27.6499C13 23.4309 15.1676 20.5946 18.4235 17.2169C20.5491 15.0117 21.3566 12.9522 21.8927 11.5849C22.1777 10.858 22.386 10.3267 22.6749 10.0734C23.5071 9.34366 27.9718 14.2537 29.1977 16.0289C32.2753 20.4856 33.3714 22.5499 33.4148 27.4306C33.4582 32.3114 29.3823 36.784 23.3778 36.6504ZM24.4461 26.9297L24.4458 26.9294C23.7559 26.041 23.0538 25.137 22.5906 24.176C22.1518 24.7813 21.6741 25.5058 21.2232 26.3229C20.0913 28.3741 19.5174 30.2974 19.5174 32.0394C19.5174 34.2597 21.1842 36.0661 23.233 36.0661C25.2819 36.0661 26.9487 34.2597 26.9487 32.0394C26.9487 30.1521 25.6765 28.514 24.4461 26.9297Z" fill="#FF9B90"/>
</svg>
