<svg width="47" height="47" viewBox="0 0 47 47" fill="none" xmlns="http://www.w3.org/2000/svg">
<circle cx="23.5" cy="23.5" r="23.5" fill="#F7E9F6"/>
<path d="M16.4978 30.0912C15.7986 30.1942 14.6476 30.386 13.8819 29.5126C13.1161 28.6392 12.454 26.5301 12.1629 24.6452C11.7335 21.8672 12.1597 19.5259 13.3619 18.053C14.0704 17.1856 15.0002 16.6832 16.0509 16.6032C16.9507 16.5336 18.2952 16.8876 19.5934 18.9697C20.4065 20.2744 21.0251 22.0075 21.2905 23.7242C21.611 25.7965 21.9232 28.0079 20.8305 28.8008C20.2141 29.2485 19.7716 29.4035 18.7258 29.6539C17.8658 29.8594 17.1976 29.9876 16.4978 30.0912Z" fill="#9A3995"/>
<path d="M15.0487 31.4678L21.0928 30.2055C21.6035 30.0987 22.0132 30.3831 22.203 31.2351C22.8258 34.0318 21.9332 37.378 19.1379 37.378C16.4908 37.378 14.7268 34.3229 14.4387 32.6807C14.3071 31.936 14.4948 31.583 15.0487 31.4678Z" fill="#9A3995"/>
<path d="M27.6552 24.0574C26.6094 23.8081 26.1668 23.6519 25.5505 23.2043C24.4578 22.4115 24.77 20.2003 25.0905 18.1282C25.3559 16.4117 25.9745 14.6766 26.7876 13.3743C28.0847 11.2923 29.4292 10.9384 30.33 11.008C31.3797 11.0885 32.31 11.5898 33.0185 12.4571C34.2218 13.9298 34.648 16.2709 34.2174 19.0486C33.9259 20.9334 33.2659 23.035 32.4958 23.9155C31.7257 24.7959 30.5813 24.597 29.8799 24.494C29.1785 24.391 28.5147 24.2623 27.6552 24.0574Z" fill="#9A3995"/>
<path d="M31.3349 26.5288L25.2908 25.4067C24.7801 25.3118 24.3705 25.5646 24.1806 26.322C23.5584 28.8079 24.451 31.7823 27.2463 31.7823C29.8934 31.7823 31.6574 29.0666 31.9455 27.6069C32.0765 26.9449 31.8889 26.6312 31.3349 26.5288Z" fill="#9A3995"/>
</svg>
