<svg width="29" height="33" viewBox="0 0 29 33" fill="none" xmlns="http://www.w3.org/2000/svg">
<path d="M5.83014 23.8842C4.95537 24.013 3.51537 24.253 2.55742 23.1603C1.59947 22.0676 0.771063 19.4291 0.406973 17.071C-0.130298 13.5955 0.402882 10.6664 1.90697 8.82379C2.79333 7.73864 3.95651 7.11004 5.27105 7.00996C6.39673 6.9229 8.07877 7.36573 9.70285 9.97062C10.7201 11.6028 11.494 13.771 11.826 15.9187C12.2269 18.5112 12.6176 21.2779 11.2506 22.2698C10.4794 22.8299 9.92581 23.0239 8.6174 23.3371C7.5415 23.5942 6.70559 23.7546 5.83014 23.8842Z" fill="white"/>
<path d="M4.01666 25.606L11.5782 24.0268C12.217 23.8932 12.7295 24.249 12.967 25.3149C13.7461 28.8136 12.6295 33 9.13244 33C5.82076 33 3.6139 29.1779 3.2535 27.1233C3.08892 26.1917 3.32363 25.7502 4.01666 25.606Z" fill="white"/>
<path d="M19.7888 16.3354C18.4804 16.0236 17.9268 15.8282 17.1557 15.2682C15.7886 14.2764 16.1793 11.51 16.5802 8.91775C16.9123 6.77031 17.6861 4.59957 18.7034 2.97031C20.3261 0.365695 22.0081 -0.0770895 23.1351 0.00995956C24.4483 0.110717 25.6122 0.737882 26.4985 1.82291C28.004 3.66533 28.5371 6.59416 27.9985 10.0693C27.6337 12.4271 26.8081 15.0564 25.8447 16.1579C24.8813 17.2594 23.4495 17.0106 22.572 16.8817C21.6945 16.7529 20.864 16.5918 19.7888 16.3354Z" fill="white"/>
<path d="M24.3892 19.4276L16.8277 18.0238C16.1889 17.9051 15.6764 18.2213 15.4389 19.1688C14.6605 22.2788 15.7771 26 19.2742 26C22.5858 26 24.7927 22.6025 25.1531 20.7763C25.317 19.9482 25.0823 19.5557 24.3892 19.4276Z" fill="white"/>
</svg>
