<svg width="66" height="66" viewBox="0 0 66 66" fill="none" xmlns="http://www.w3.org/2000/svg">
<circle cx="33" cy="33" r="33" fill="#9A3995"/>
<path d="M33.0855 37.482C32.5815 37.7247 32.0261 37.9113 31.4195 38.042C30.8221 38.182 30.1315 38.252 29.3475 38.252C28.5448 38.252 27.8121 38.126 27.1495 37.874C26.4868 37.6127 25.9175 37.2533 25.4415 36.796C24.9655 36.3293 24.5921 35.7787 24.3215 35.144C24.0601 34.5 23.9295 33.7907 23.9295 33.016C23.9295 32.2227 24.0648 31.5087 24.3355 30.874C24.6155 30.23 24.9935 29.684 25.4695 29.236C25.9548 28.788 26.5241 28.4427 27.1775 28.2C27.8308 27.9573 28.5401 27.836 29.3055 27.836C30.0988 27.836 30.8221 27.9527 31.4755 28.186C32.1381 28.41 32.6701 28.7087 33.0715 29.082L31.8535 30.398C31.6015 30.118 31.2468 29.88 30.7895 29.684C30.3415 29.488 29.8515 29.39 29.3195 29.39C28.7968 29.39 28.3208 29.4833 27.8915 29.67C27.4715 29.8567 27.1121 30.1133 26.8135 30.44C26.5148 30.7667 26.2815 31.1493 26.1135 31.588C25.9548 32.0267 25.8755 32.5027 25.8755 33.016C25.8755 33.548 25.9548 34.038 26.1135 34.486C26.2815 34.9247 26.5148 35.3073 26.8135 35.634C27.1215 35.9607 27.4901 36.2173 27.9195 36.404C28.3581 36.5813 28.8528 36.67 29.4035 36.67C30.1595 36.67 30.8175 36.5533 31.3775 36.32V33.8H29.2915V32.344H33.0855V37.482ZM34.7576 34.612C34.7576 34.08 34.8509 33.5993 35.0376 33.17C35.2336 32.7313 35.4949 32.358 35.8216 32.05C36.1483 31.742 36.5356 31.504 36.9836 31.336C37.4316 31.168 37.9076 31.084 38.4116 31.084C38.9156 31.084 39.3916 31.168 39.8396 31.336C40.2876 31.504 40.6749 31.742 41.0016 32.05C41.3283 32.358 41.5849 32.7313 41.7716 33.17C41.9676 33.5993 42.0656 34.08 42.0656 34.612C42.0656 35.144 41.9676 35.6293 41.7716 36.068C41.5849 36.5067 41.3283 36.8847 41.0016 37.202C40.6749 37.51 40.2876 37.7527 39.8396 37.93C39.3916 38.1073 38.9156 38.196 38.4116 38.196C37.9076 38.196 37.4316 38.1073 36.9836 37.93C36.5356 37.7527 36.1483 37.51 35.8216 37.202C35.4949 36.8847 35.2336 36.5067 35.0376 36.068C34.8509 35.6293 34.7576 35.144 34.7576 34.612ZM36.4656 34.612C36.4656 34.8733 36.5029 35.1347 36.5776 35.396C36.6616 35.6573 36.7829 35.8907 36.9416 36.096C37.1003 36.3013 37.3009 36.4693 37.5436 36.6C37.7863 36.7307 38.0756 36.796 38.4116 36.796C38.7476 36.796 39.0369 36.7307 39.2796 36.6C39.5223 36.4693 39.7229 36.3013 39.8816 36.096C40.0403 35.8907 40.1569 35.6573 40.2316 35.396C40.3156 35.1347 40.3576 34.8733 40.3576 34.612C40.3576 34.3507 40.3156 34.094 40.2316 33.842C40.1569 33.5807 40.0403 33.3473 39.8816 33.142C39.7229 32.9367 39.5223 32.7733 39.2796 32.652C39.0369 32.5213 38.7476 32.456 38.4116 32.456C38.0756 32.456 37.7863 32.5213 37.5436 32.652C37.3009 32.7733 37.1003 32.9367 36.9416 33.142C36.7829 33.3473 36.6616 33.5807 36.5776 33.842C36.5029 34.094 36.4656 34.3507 36.4656 34.612Z" fill="white"/>
</svg>
