<svg width="45" height="45" viewBox="0 0 45 45" fill="none" xmlns="http://www.w3.org/2000/svg">
<path d="M10.0117 3C10.0117 1.34315 11.3549 0 13.0117 0H15.204V20.7692H10.0117V3Z" fill="#D6D9E0"/>
<path d="M29.0508 0H31.2431C32.8999 0 34.2431 1.34315 34.2431 3V20.7692H29.0508V0Z" fill="#D6D9E0"/>
<rect x="19.5312" width="5.19231" height="20.7692" fill="#D6D9E0"/>
<path fill-rule="evenodd" clip-rule="evenodd" d="M22.128 45.0001C31.6868 45.0001 39.4357 37.2512 39.4357 27.6925C39.4357 18.1337 31.6868 10.3848 22.128 10.3848C12.5692 10.3848 4.82031 18.1337 4.82031 27.6925C4.82031 37.2512 12.5692 45.0001 22.128 45.0001Z" fill="#FFE609"/>
<path fill-rule="evenodd" clip-rule="evenodd" d="M22.1271 39.8079C28.8182 39.8079 34.2425 34.3837 34.2425 27.6925C34.2425 21.0014 28.8182 15.5771 22.1271 15.5771C15.436 15.5771 10.0117 21.0014 10.0117 27.6925C10.0117 34.3837 15.436 39.8079 22.1271 39.8079Z" fill="#FFBD20"/>
<path d="M21.4422 33.2554C21.3244 33.2554 21.2213 33.2112 21.1329 33.1228C21.0445 33.0344 21.0003 32.9313 21.0003 32.8134V24.5398L18.6313 26.3607C18.5371 26.4197 18.4487 26.4491 18.3662 26.4491C18.2247 26.4491 18.101 26.3784 17.9949 26.237L16.8988 24.8227C16.8517 24.7402 16.8281 24.6518 16.8281 24.5575C16.8281 24.3925 16.8929 24.2629 17.0226 24.1686L21.124 21.0041C21.2419 20.9216 21.3774 20.8804 21.5306 20.8804H23.8642C23.9938 20.8804 24.1029 20.9216 24.1912 21.0041C24.2796 21.0866 24.3238 21.1927 24.3238 21.3223V32.8134C24.3238 32.9431 24.2796 33.0491 24.1912 33.1316C24.1029 33.2141 23.9938 33.2554 23.8642 33.2554H21.4422Z" fill="white"/>
</svg>
