<svg width="78" height="78" viewBox="0 0 78 78" fill="none" xmlns="http://www.w3.org/2000/svg">
<circle cx="39" cy="39" r="39" fill="#9A3995"/>
<path d="M25.241 34.9275C25.3967 34.616 25.6303 34.3824 25.9029 34.1877C26.0197 34.1098 26.0976 34.0709 26.2144 33.993L25.3578 37.8479C25.202 38.5877 25.3578 39.4054 25.7861 40.0284C26.1755 40.6125 26.8374 41.0408 27.5383 41.1965L25.5525 50.2691L29.1737 49.2567L30.7701 41.7417L32.717 42.0532L33.6126 45.8302L33.8073 45.5965C34.1967 45.1293 34.7029 44.7788 35.2869 44.5841L36.6498 44.1558L35.9099 40.9629C35.6374 39.8337 34.7418 38.9771 33.6126 38.8213L31.51 38.4709L32.2887 34.8107C32.3666 34.9275 32.4445 35.0054 32.5224 35.1222C33.0675 35.901 33.9241 36.4461 34.8976 36.5629L37.8179 36.9523C38.1294 36.9913 38.4409 36.9134 38.7135 36.7966C39.1029 36.5629 39.3754 36.2125 39.4533 35.7063C39.5701 34.9275 39.025 34.1877 38.2073 34.0709L35.2869 33.6815C35.1312 33.6426 34.9754 33.5647 34.8976 33.4479C32.4055 29.9046 31.8993 29.7099 31.1595 29.6709L28.7843 29.5541C28.3171 29.5152 27.8887 29.5152 24.3454 31.6568C23.6056 32.0851 22.9826 32.747 22.5932 33.5258L21.1525 36.5629C20.802 37.2638 21.0746 38.1205 21.7755 38.5098C22.4764 38.8603 23.3719 38.5877 23.7224 37.8868L25.241 34.9275Z" fill="white"/>
<path d="M33.6858 26.0617C33.8573 24.3066 32.5735 22.7448 30.8184 22.5733C29.0633 22.4019 27.5015 23.6856 27.33 25.4408C27.1585 27.1959 28.4423 28.7577 30.1974 28.9291C31.9525 29.1006 33.5143 27.8168 33.6858 26.0617Z" fill="white"/>
<path d="M57.9097 54.7468L54.9504 45.6742C54.9115 45.5574 54.8726 45.4406 54.7947 45.3238L49.5381 37.3805C49.4602 37.2247 49.3434 37.1468 49.1876 37.03V22.8566C49.1876 22.3894 48.7983 22 48.331 22C47.8638 22 47.4744 22.3894 47.4744 22.8566V23.3239H42.2178C41.7505 23.3239 41.4001 23.6743 41.4001 24.1416V28.4248C41.4001 28.892 41.7505 29.2424 42.2178 29.2424H47.5133V37.069C47.3965 37.1468 47.3186 37.2247 47.2407 37.3415L42.4514 43.922C42.2567 44.1557 42.0231 44.3503 41.7116 44.4282L35.793 46.2583C35.5204 46.3362 35.2868 46.4919 35.0921 46.7256L32.639 49.8017C32.4443 50.0353 32.2107 50.191 31.9382 50.2689L25.5134 52.0601C25.124 52.1769 24.8125 52.4494 24.6178 52.7999L23.7612 54.591C23.2939 55.5255 23.9948 56.6158 25.0072 56.6158H56.5858C57.5203 56.5768 58.2212 55.6423 57.9097 54.7468Z" fill="white"/>
</svg>
