<svg width="39" height="39" viewBox="0 0 39 39" fill="none" xmlns="http://www.w3.org/2000/svg">
<circle cx="19.5" cy="19.5" r="19.5" fill="#FFF8FF"/>
<path d="M14.9258 15.3951C14.9517 14.3895 15.3541 13.3773 16.2979 12.6312C17.4945 11.6855 19.096 11.8167 20.1875 12.9293C21.6012 14.3708 21.5616 16.9065 20.1027 18.3004C18.7646 19.5786 16.7445 19.3683 15.6398 17.8336C15.1536 17.1584 14.9273 16.3997 14.9258 15.3951Z" fill="#9A3995"/>
<path d="M19.3872 24.1289C18.8428 24.1289 18.3241 24.1289 17.806 24.1289C16.1538 24.1283 14.5021 24.1289 12.8498 24.1278C12.3297 24.1273 12.0019 23.8065 12.0009 23.2875C11.9999 22.9053 11.9948 22.5211 12.0273 22.141C12.0587 21.7766 12.2643 21.4978 12.5855 21.3234C13.7729 20.6792 14.9628 20.0401 16.1548 19.4045C16.2071 19.3766 16.2994 19.3771 16.3527 19.4045C17.5036 20.0016 18.6499 20 19.7993 19.4009C19.851 19.3741 19.9424 19.3781 19.9952 19.406C20.6224 19.737 21.2465 20.0735 21.8691 20.4136C21.9143 20.4385 21.9686 20.4988 21.9696 20.5439C21.9767 21.0107 21.9742 21.477 21.9742 21.9575C21.9158 21.9611 21.8676 21.9666 21.8189 21.9671C21.3622 21.9676 20.9055 21.9671 20.4488 21.9676C19.8176 21.9681 19.3898 22.3949 19.3877 23.0275C19.3862 23.3863 19.3872 23.7462 19.3872 24.1289Z" fill="#9A3995"/>
<path d="M22.8328 22.8511C22.8328 22.7451 22.8328 22.6676 22.8328 22.5905C22.8323 21.8642 22.8369 21.1379 22.8283 20.4116C22.8262 20.2524 22.878 20.2134 23.0292 20.2159C23.4915 20.2246 23.9538 20.219 24.4161 20.2195C24.4653 20.2195 24.515 20.2256 24.5795 20.2301C24.5795 21.0989 24.5795 21.958 24.5795 22.8358C25.4492 22.8358 26.3027 22.8358 27.1684 22.8358C27.1684 23.4147 27.1684 23.9747 27.1684 24.5546C26.3154 24.5546 25.4619 24.5546 24.5861 24.5546C24.5861 25.4309 24.5861 26.2885 24.5861 27.1567C23.9969 27.1567 23.4296 27.1567 22.8384 27.1567C22.8384 26.2997 22.8384 25.4426 22.8384 24.5672C21.9605 24.5672 21.106 24.5672 20.2383 24.5672C20.2383 23.9894 20.2383 23.4299 20.2383 22.8516C21.0938 22.8511 21.9474 22.8511 22.8328 22.8511Z" fill="#9A3995"/>
</svg>
