<svg width="46" height="46" viewBox="0 0 46 46" fill="none" xmlns="http://www.w3.org/2000/svg">
<circle cx="23" cy="23" r="23" fill="#E1E6FF"/>
<path fill-rule="evenodd" clip-rule="evenodd" d="M22.5562 10.2222C17.1641 10.2222 12.7773 14.4095 12.7773 19.5565C12.7773 25.944 21.5285 35.3212 21.901 35.7173C22.251 36.0894 22.862 36.0887 23.2113 35.7173C23.5839 35.3212 32.335 25.944 32.335 19.5565C32.3349 14.4095 27.9482 10.2222 22.5562 10.2222ZM22.5571 23.523C20.6151 23.523 19.0352 21.9431 19.0352 20.0011C19.0352 18.0591 20.6151 16.4792 22.5571 16.4792C24.4991 16.4792 26.079 18.0591 26.079 20.0011C26.079 21.9431 24.4991 23.523 22.5571 23.523Z" fill="#99A7EB"/>
</svg>
