<svg width="52" height="52" viewBox="0 0 52 52" fill="none" xmlns="http://www.w3.org/2000/svg">
<circle cx="26" cy="26" r="26" fill="#F7E9F6"/>
<path d="M22.9648 32.0666V18.9221L35.0982 16.8999V30.0443" stroke="#9A3995" stroke-width="2" stroke-linecap="round" stroke-linejoin="round"/>
<path d="M19.9318 35.0999C21.607 35.0999 22.9651 33.7418 22.9651 32.0665C22.9651 30.3913 21.607 29.0332 19.9318 29.0332C18.2565 29.0332 16.8984 30.3913 16.8984 32.0665C16.8984 33.7418 18.2565 35.0999 19.9318 35.0999Z" stroke="#9A3995" stroke-width="2" stroke-linecap="round" stroke-linejoin="round"/>
<path d="M32.0646 33.0779C33.7398 33.0779 35.0979 31.7198 35.0979 30.0446C35.0979 28.3693 33.7398 27.0112 32.0646 27.0112C30.3893 27.0112 29.0312 28.3693 29.0312 30.0446C29.0312 31.7198 30.3893 33.0779 32.0646 33.0779Z" stroke="#9A3995" stroke-width="2" stroke-linecap="round" stroke-linejoin="round"/>
</svg>
