<svg width="32" height="36" viewBox="0 0 32 36" fill="none" xmlns="http://www.w3.org/2000/svg">
<path d="M6.85419 25.9097C5.90523 26.0495 4.34313 26.3098 3.30394 25.1244C2.26475 23.9391 1.3661 21.0769 0.971134 18.5188C0.388303 14.7486 0.966697 11.5711 2.59833 9.57219C3.55985 8.39503 4.82167 7.71312 6.24769 7.60456C7.46882 7.51011 9.2935 7.9905 11.0553 10.8163C12.1588 12.5869 12.9983 14.939 13.3585 17.2687C13.7934 20.0811 14.2172 23.0824 12.7343 24.1584C11.8978 24.766 11.2972 24.9764 9.87781 25.3163C8.71067 25.5951 7.80388 25.7691 6.85419 25.9097Z" fill="#9A3995"/>
<path d="M4.88643 27.7774L13.0892 26.0642C13.7822 25.9193 14.3381 26.3053 14.5958 27.4616C15.441 31.257 14.2297 35.7984 10.436 35.7984C6.84352 35.7984 4.44951 31.6521 4.05855 29.4234C3.88002 28.4127 4.13463 27.9337 4.88643 27.7774Z" fill="#9A3995"/>
<path d="M21.9952 17.7207C20.5759 17.3824 19.9753 17.1705 19.1388 16.563C17.6558 15.4871 18.0796 12.4861 18.5145 9.67398C18.8747 7.34444 19.7142 4.98961 20.8177 3.2222C22.5781 0.396707 24.4027 -0.0836267 25.6253 0.0108041C27.0499 0.120106 28.3124 0.800454 29.2739 1.97749C30.907 3.97616 31.4854 7.15335 30.9011 10.9231C30.5054 13.481 29.6097 16.3332 28.5646 17.5281C27.5195 18.723 25.9663 18.4531 25.0144 18.3133C24.0625 18.1735 23.1616 17.9988 21.9952 17.7207Z" fill="#9A3995"/>
<path d="M26.9885 21.075L18.7858 19.5522C18.0928 19.4234 17.5368 19.7665 17.2792 20.7943C16.4348 24.168 17.6461 28.2048 21.4397 28.2048C25.0322 28.2048 27.4262 24.5192 27.8172 22.5381C27.995 21.6398 27.7403 21.214 26.9885 21.075Z" fill="#9A3995"/>
</svg>
