<svg width="193" height="111" viewBox="0 0 193 111" fill="none" xmlns="http://www.w3.org/2000/svg">
<path d="M33.4145 46.2124C27.951 41.1968 28.4141 36.4078 34.6512 33.4037C38.6211 31.4933 42.8536 30.1095 46.5947 28.8886C49.661 27.8877 53.1368 26.7516 53.95 25.992C54.0149 25.9317 54.0347 25.4574 52.8911 24.4093C52.3406 23.9056 51.7081 23.4329 51.1519 23.014C50.6944 22.6717 50.2992 22.3783 49.9857 22.0898L49.918 22.0246C48.5034 20.6766 46.8178 16.0685 50.1015 13.6316C51.8888 12.3064 54.7321 11.8288 57.7109 12.3521C62.6266 13.2176 109.449 23.6676 121.782 28.7272C134.169 33.8112 166.755 60.9363 170.474 64.3479C170.578 64.4441 170.668 64.5288 170.745 64.6022C171.69 65.5101 173.91 67.6357 167.907 77.2397C167.853 77.3228 162.619 85.6587 159.499 87.3686C156.446 89.0394 139.11 93.0492 136.103 93.0019C133.469 92.9612 132.147 91.7485 131.712 91.3507C129.671 89.4779 119.862 76.4247 122.649 72.172C123.341 71.1174 124.69 70.3708 126.455 70.0725C128.028 69.8068 130.072 69.5526 132.441 69.2575C136.673 68.7343 143.069 67.9405 145.485 67.044C145.805 66.925 146.654 66.6104 145.819 65.8443C145.553 65.5998 145.025 65.2526 144.012 64.9738C142.015 64.4245 134.917 64.3104 130.676 64.2387C122.677 64.1067 119.365 64.0529 117.431 62.5549C117.31 62.462 117.171 62.3463 117.019 62.2061C116.92 62.1164 107.605 52.9606 114.54 49.6713C115.788 49.0779 117.519 48.5743 119.354 48.0396C119.842 47.8978 120.486 47.7087 121.135 47.5099C120.712 47.324 120.28 47.1333 119.842 46.9394C117.047 45.7005 111.231 43.1251 109.407 43.826L109.299 43.8651C107.952 44.3623 104.135 46.1912 104.482 47.9304C105.135 51.179 115.904 69.7384 119.086 73.5542C123.623 78.9969 121.796 84.0254 114.074 87.349C110.273 88.9856 96.7064 94.2098 93.0161 94.3744C90.2293 94.4999 89.0604 93.5708 86.2368 91.3312C84.7093 90.1201 82.5465 88.3434 79.8021 86.0483C75.2082 82.2064 68.9089 76.8485 61.0765 70.1231C48.2578 59.1139 35.439 47.9581 34.3689 47.0274C34.191 46.8888 33.8465 46.6085 33.4145 46.2124ZM60.6022 21.6106C64.2501 24.9586 63.2083 27.3466 61.692 28.7598C59.6478 30.6637 55.678 31.9612 51.0784 33.4624C47.6761 34.5724 43.8192 35.8341 40.4846 37.4396C37.1388 39.0517 39.4484 41.8749 41.1227 43.412C41.47 43.7299 41.7157 43.9173 41.7129 43.9189L41.8851 44.0575C59.1198 59.0667 86.4119 82.591 93.9479 88.5292C97.449 87.4273 103.793 85.2121 108.624 83.1338C111.482 81.9048 114.32 79.9635 110.875 75.833C107.888 72.2502 96.3111 52.928 95.4302 48.5368C94.5634 44.2352 100.642 40.7975 104.412 39.4266C111.643 36.6866 119.577 40.2009 125.376 42.7698C126.633 43.3256 127.819 43.8505 128.787 44.2205C129.88 44.6361 130.699 45.0991 131.283 45.6386C132.221 46.4993 132.483 47.505 132.02 48.4667C131.029 50.5221 127.178 51.6468 123.448 52.7341C122.683 52.9574 121.726 53.2361 121.039 53.4627C121.144 54.6673 122.784 57.2932 124.123 58.7993C125.743 58.9004 128.663 58.9493 130.922 58.9852C138.686 59.1123 144.449 59.2769 147.914 60.2272C150.277 60.8776 152.211 61.8507 153.513 63.0455C156.726 65.9959 155.385 69.6161 150.387 71.4678C146.575 72.8794 140.073 73.6863 134.335 74.397C133.237 74.5322 132.173 74.6643 131.227 74.7898C131.746 77.5347 135.691 84.1379 138.269 87.3018C142.792 86.3759 151.096 84.3922 153.137 83.5788C155.839 81.3408 163.621 69.7449 162.791 67.1858C162.777 67.1744 162.765 67.1613 162.751 67.1499C158.242 63.008 126.783 37.2375 116.491 33.0141C106.721 29.0043 68.2539 20.1044 57.3269 17.8354C57.3862 18.4011 57.5556 19.0172 57.7702 19.366C57.9057 19.4736 58.1542 19.6594 58.349 19.8045C58.973 20.2625 59.8172 20.8934 60.6022 21.6106Z" stroke="white" stroke-width="1.6811" stroke-miterlimit="10"/>
<path d="M88.9894 93.6554C88.7381 93.5103 88.4755 93.3424 88.1904 93.1452L88.7043 92.8974C89.2181 93.2527 89.6501 93.5054 90.0737 93.6977L89.6586 94.0026C89.4384 93.9015 89.221 93.789 88.9894 93.6554ZM86.9395 92.2144C86.66 91.9976 86.3636 91.7613 86.0473 91.5103L85.7452 91.2706L86.2873 91.0424L86.5894 91.2821C86.9057 91.5331 87.1993 91.7645 87.476 91.983L86.9395 92.2144ZM91.6153 94.5323L91.7395 94.1509C92.1179 94.1933 92.5273 94.2014 92.9903 94.1818C93.1626 94.1737 93.3659 94.1541 93.6002 94.1199L93.7612 94.4965C93.4873 94.5372 93.2501 94.56 93.0383 94.5682C92.516 94.5926 92.0501 94.5812 91.6153 94.5323ZM84.565 90.322C84.1979 90.0253 83.8111 89.7075 83.396 89.3668L83.9466 89.1435C84.3589 89.4825 84.7485 89.7987 85.1156 90.0954L84.565 90.322ZM82.2327 88.4116C81.8629 88.1068 81.4761 87.7857 81.0751 87.4532L81.6257 87.2331C82.0266 87.5656 82.4106 87.8851 82.7805 88.1899L82.2327 88.4116ZM79.9259 86.4931L78.7768 85.533L79.3274 85.3129L80.4765 86.273L79.9259 86.4931ZM77.6333 84.5697L76.4897 83.6063L77.0431 83.3879L78.1867 84.3512L77.6333 84.5697ZM75.349 82.6446L74.2083 81.6796L74.7617 81.4612L75.8996 82.4246L75.349 82.6446ZM95.7179 94.0906L95.4525 93.7352C95.9918 93.5999 96.6016 93.4337 97.2652 93.2397L97.5701 93.5853C96.8924 93.7809 96.2713 93.9537 95.7179 94.0906ZM73.0705 80.7163L71.9354 79.7513L72.4916 79.5345L73.6267 80.4995L73.0705 80.7163ZM70.7975 78.7847L69.6653 77.8181L70.2215 77.6013L71.3538 78.5679L70.7975 78.7847ZM68.5331 76.8515L67.4008 75.8849L67.9571 75.6681L69.0893 76.6347L68.5331 76.8515ZM66.2686 74.9183L65.1392 73.9501L65.6954 73.7333L66.8248 74.7015L66.2686 74.9183ZM64.007 72.9835L62.8776 72.0153L63.4338 71.7985L64.5632 72.7667L64.007 72.9835ZM99.3658 93.0343L99.0411 92.6937C99.6143 92.5127 100.202 92.3204 100.797 92.1199L101.136 92.4557C100.532 92.6578 99.9418 92.8518 99.3658 93.0343ZM61.751 71.0454L60.6216 70.0772L61.1778 69.8604L62.3072 70.8286L61.751 71.0454ZM59.4922 69.1057L58.3628 68.1342L58.9218 67.9191L60.0512 68.8905L59.4922 69.1057ZM92.8577 87.9862C92.4962 87.696 92.1009 87.3765 91.6802 87.0326L92.228 86.8077C92.6487 87.1516 93.0412 87.4695 93.4026 87.7596L92.8577 87.9862ZM57.2334 67.1627L56.1068 66.1929L56.6658 65.9777L57.7924 66.9476L57.2334 67.1627ZM94.6562 88.529L94.3287 88.1899C94.8623 88.0188 95.4524 87.8248 96.0821 87.6145L96.4209 87.9503C95.7884 88.1622 95.1955 88.3546 94.6562 88.529ZM90.5085 86.0758C90.1386 85.771 89.7518 85.4499 89.348 85.1157L89.8986 84.8957C90.3024 85.2298 90.6864 85.5493 91.0562 85.8541L90.5085 86.0758ZM54.9802 65.223L53.8536 64.2532L54.4127 64.038L55.5393 65.0078L54.9802 65.223ZM88.196 84.1573C87.8233 83.8476 87.4393 83.5248 87.044 83.1956L87.5946 82.9755C87.9899 83.3048 88.3711 83.6259 88.7466 83.9372L88.196 84.1573ZM52.7299 63.2817L51.6061 62.3102L52.1652 62.095L53.2889 63.0665L52.7299 63.2817ZM85.8977 82.2306L84.7542 81.2672L85.3076 81.0488L86.4511 82.0122L85.8977 82.2306ZM102.881 91.8591L102.534 91.5282C103.107 91.3277 103.683 91.1256 104.256 90.9186L104.612 91.2478C104.033 91.4516 103.454 91.6586 102.881 91.8591ZM50.4795 61.3403L49.3558 60.3688L49.9148 60.1537L51.0386 61.1252L50.4795 61.3403ZM83.6106 80.3039L82.4699 79.3389L83.0233 79.1205L84.164 80.0855L83.6106 80.3039ZM48.2348 59.399L47.1111 58.4275L47.6701 58.2123L48.7939 59.1838L48.2348 59.399ZM81.3292 78.374L80.1914 77.4074L80.7448 77.1889L81.8826 78.1555L81.3292 78.374ZM45.9873 57.456L44.8635 56.4845L45.4226 56.2693L46.5464 57.2408L45.9873 57.456ZM79.0535 76.4408L77.9156 75.4742L78.4718 75.2574L79.6097 76.224L79.0535 76.4408ZM98.1687 87.3553L97.8242 87.0228C98.3833 86.8305 98.9593 86.6284 99.5494 86.4181L99.8995 86.7474C99.3094 86.9576 98.7277 87.163 98.1687 87.3553ZM43.7426 55.5114L42.6217 54.5383L43.1807 54.3231L44.3017 55.2962L43.7426 55.5114ZM76.7834 74.5076L75.6483 73.5393L76.2046 73.3226L77.3368 74.2892L76.7834 74.5076ZM41.5007 53.5684L40.3798 52.5953L40.9389 52.3801L42.0598 53.3532L41.5007 53.5684ZM74.5133 72.5711L73.381 71.6045L73.9373 71.3877L75.0695 72.3543L74.5133 72.5711ZM106.326 90.6203L105.964 90.2943C106.54 90.0824 107.108 89.8688 107.661 89.6602L108.031 89.9846C107.475 90.1948 106.905 90.4067 106.326 90.6203ZM39.2589 51.6222L38.1379 50.649L38.697 50.4339L39.8179 51.407L39.2589 51.6222ZM72.2516 70.6363L71.1222 69.6681L71.6785 69.4513L72.8079 70.4195L72.2516 70.6363ZM37.017 49.6759L35.8961 48.7028L36.4551 48.4876L37.5761 49.4608L37.017 49.6759ZM69.99 68.6982L68.8606 67.73L69.4168 67.5132L70.5462 68.4814L69.99 68.6982ZM67.7312 66.7617L66.6046 65.7919L67.1608 65.5751L68.2874 66.545L67.7312 66.7617ZM34.778 47.7281L34.0918 47.1331C33.9987 47.0598 33.8406 46.9326 33.6401 46.7647L34.1963 46.5479C34.3911 46.7126 34.5436 46.8364 34.6424 46.9131L35.337 47.5162L34.778 47.7281ZM101.619 86.1263L101.26 85.7987C101.822 85.5917 102.39 85.3814 102.957 85.1679L103.324 85.4906C102.754 85.709 102.184 85.9209 101.619 86.1263ZM33.1319 46.3148C32.7648 45.9791 32.4175 45.6351 32.0984 45.2977L32.6886 45.1135C32.9991 45.4428 33.338 45.7786 33.6966 46.1095L33.1319 46.3148ZM65.4752 64.8204L64.3486 63.8505L64.9077 63.6354L66.0343 64.6052L65.4752 64.8204ZM63.222 62.8807L62.0926 61.9059L62.6517 61.6908L63.7811 62.6655L63.222 62.8807ZM31.1921 44.2398C30.9097 43.8747 30.65 43.5063 30.4269 43.1428L31.0594 43.0124C31.2768 43.3661 31.5253 43.7247 31.802 44.0801L31.1921 44.2398ZM109.72 89.3391L109.347 89.0163C109.934 88.7881 110.496 88.5681 111.018 88.3611L111.397 88.6806C110.874 88.8876 110.31 89.1093 109.72 89.3391ZM60.9661 60.9361L59.8423 59.9646L60.4013 59.7494L61.5251 60.7209L60.9661 60.9361ZM58.7129 58.9931L57.592 58.0232L58.151 57.8081L59.2719 58.7779L58.7129 58.9931ZM29.8368 42.0067C29.6674 41.6155 29.5375 41.2243 29.4443 40.8412L30.1107 40.7891C30.1954 41.1575 30.3253 41.5356 30.489 41.9138L29.8368 42.0067ZM56.471 57.0566L55.3473 56.0851L55.9063 55.87L57.0301 56.8415L56.471 57.0566ZM105.01 84.8468L104.635 84.5256C105.194 84.3072 105.75 84.0872 106.298 83.8655L106.684 84.1833C106.137 84.405 105.578 84.6267 105.01 84.8468ZM54.2235 55.1137L53.0997 54.1422L53.6588 53.927L54.7826 54.8985L54.2235 55.1137ZM51.9788 53.1691L50.8579 52.1959L51.4169 51.9808L52.5379 52.9539L51.9788 53.1691ZM29.2891 39.6562C29.2806 39.2536 29.3173 38.8543 29.402 38.4663L30.0683 38.5152C29.9865 38.8852 29.9526 39.2667 29.961 39.653L29.2891 39.6562ZM113.066 88.0106L112.676 87.6944C113.142 87.5037 113.543 87.3342 113.873 87.1923C114.014 87.1304 114.155 87.0685 114.297 87.0065L114.709 87.313C114.565 87.3765 114.418 87.4417 114.274 87.5053C113.938 87.6471 113.534 87.8183 113.066 88.0106ZM49.7369 51.2261L48.616 50.253L49.1751 50.0378L50.296 51.0109L49.7369 51.2261ZM47.4922 49.2815L46.3713 48.3083L46.9304 48.0932L48.0513 49.0663L47.4922 49.2815ZM45.2532 47.3369L44.1323 46.3637L44.6913 46.1486L45.8122 47.1217L45.2532 47.3369ZM108.333 83.502L107.935 83.1907L108.429 82.9804C108.827 82.8092 109.175 82.6446 109.494 82.48L109.946 82.7669C109.61 82.9413 109.248 83.1141 108.833 83.2917L108.333 83.502ZM43.0142 45.389L41.8932 44.4159L42.4523 44.2007L43.5732 45.1738L43.0142 45.389ZM29.8086 37.2927C29.9949 36.908 30.2349 36.5315 30.5173 36.1696L31.1272 36.3294C30.8561 36.6717 30.6302 37.0303 30.4552 37.3954L29.8086 37.2927ZM40.761 43.4428C40.3883 43.0939 40.0495 42.7451 39.7615 42.4061L40.3629 42.2349C40.6424 42.5625 40.9671 42.9 41.3285 43.239L40.761 43.4428ZM116.265 86.5387L115.804 86.2567C115.943 86.1801 116.081 86.1035 116.214 86.0269C116.553 85.8313 116.874 85.6292 117.177 85.4287L117.688 85.6813C117.377 85.89 117.041 86.097 116.691 86.3024C116.55 86.3839 116.409 86.4621 116.265 86.5387ZM38.9681 41.3058C38.7309 40.895 38.5728 40.5006 38.4937 40.1322L39.1601 40.0866C39.2335 40.4289 39.3803 40.7972 39.6033 41.1836L38.9681 41.3058ZM110.801 81.6438C111.188 81.3357 111.493 81.0064 111.707 80.6641L112.337 80.7962C112.1 81.1711 111.77 81.5313 111.346 81.8703L110.801 81.6438ZM31.5196 35.1248C31.8952 34.7972 32.3159 34.4793 32.7789 34.1794L33.2815 34.4369C32.841 34.7238 32.4373 35.0254 32.0815 35.3383L31.5196 35.1248ZM38.5643 38.9081C38.7196 38.4891 39.0189 38.111 39.4565 37.7801L39.9902 38.0164C39.6146 38.3017 39.3549 38.6277 39.2193 38.9896L38.5643 38.9081ZM118.385 84.5224C118.758 84.2062 119.102 83.8769 119.401 83.5411L119.997 83.7188C119.684 84.066 119.328 84.4115 118.938 84.7375L118.385 84.5224ZM132.545 92.2829C132.268 92.1231 132.014 91.9471 131.766 91.745L132.313 91.52C132.717 91.8477 133.152 92.1085 133.635 92.3122L133.24 92.6252C133 92.5258 132.765 92.41 132.545 92.2829ZM130.721 90.7115C130.456 90.4084 130.156 90.053 129.832 89.6537L130.441 89.4907C130.76 89.8868 131.057 90.2405 131.32 90.5388L130.721 90.7115ZM135.199 93.1338L135.335 92.7556C135.583 92.7849 135.846 92.8029 136.111 92.8061C136.357 92.811 136.721 92.7833 137.207 92.7246L137.342 93.1028C136.8 93.168 136.391 93.1957 136.094 93.1908C135.786 93.1859 135.487 93.1663 135.199 93.1338ZM112.106 79.5802C112.151 79.2281 112.122 78.8499 112.024 78.4604L112.687 78.4033C112.794 78.8206 112.82 79.2265 112.775 79.6079L112.106 79.5802ZM128.996 88.5811C128.736 88.2421 128.468 87.8818 128.194 87.502L128.815 87.3521C129.089 87.7286 129.354 88.0872 129.611 88.4246L128.996 88.5811ZM34.6904 33.6398L34.2528 33.3448C34.3149 33.3155 34.3742 33.2845 34.4391 33.2535C34.8881 33.0367 35.3596 32.8199 35.8396 32.6048L36.2518 32.9112C35.7775 33.1231 35.3144 33.3383 34.8711 33.5518L34.6904 33.6398ZM41.4076 37.2568L40.9897 36.9537C41.5036 36.7189 42.0513 36.481 42.616 36.2462L43.0085 36.5608C42.4495 36.7923 41.913 37.027 41.4076 37.2568ZM120.201 82.4995C120.429 82.1426 120.618 81.7758 120.768 81.4058L121.423 81.4938C121.268 81.8801 121.07 82.2615 120.833 82.6332L120.201 82.4995ZM111.578 77.3552C111.391 77.0129 111.157 76.6527 110.872 76.2859L111.487 76.1294C111.778 76.5092 112.024 76.8825 112.218 77.2395L111.578 77.3552ZM127.423 86.4181C127.177 86.0644 126.929 85.6993 126.683 85.326L127.313 85.1874C127.559 85.5574 127.804 85.9209 128.05 86.2747L127.423 86.4181ZM139.33 92.8061L139.138 92.4345C139.717 92.335 140.363 92.2161 141.058 92.0824L141.272 92.4508C140.572 92.5844 139.917 92.7051 139.33 92.8061ZM110.033 75.2183C109.802 74.9053 109.539 74.5418 109.257 74.131L109.878 73.9876C110.16 74.3951 110.417 74.7553 110.649 75.065L110.033 75.2183ZM125.972 84.2274C125.743 83.8639 125.514 83.4938 125.294 83.1222L125.927 82.9951C126.15 83.3651 126.373 83.7318 126.604 84.0937L125.972 84.2274ZM108.514 73.0406C108.282 72.695 108.043 72.3282 107.791 71.9452L108.421 71.8099C108.672 72.193 108.909 72.5581 109.138 72.902L108.514 73.0406ZM121.098 80.2794C121.169 79.9062 121.2 79.5231 121.194 79.1384L121.866 79.1352C121.875 79.5345 121.838 79.9339 121.765 80.3218L121.098 80.2794ZM37.8641 32.2217L37.4744 31.9055C38.0109 31.6838 38.5728 31.4605 39.1488 31.2421L39.5215 31.5648C38.9511 31.78 38.3949 32.0033 37.8641 32.2217ZM44.6659 35.9039L44.296 35.5796C44.8325 35.3742 45.4085 35.1623 46.0099 34.9487L46.3657 35.278C45.7671 35.4899 45.1995 35.7002 44.6659 35.9039ZM124.648 82.0122C124.436 81.6389 124.235 81.2656 124.038 80.8907L124.679 80.7782C124.873 81.1483 125.074 81.5215 125.283 81.8899L124.648 82.0122ZM143.19 92.0612L142.961 91.6977C143.574 91.5689 144.209 91.4336 144.853 91.2902L145.093 91.6537C144.446 91.7955 143.808 91.9324 143.19 92.0612ZM107.082 70.8482C106.857 70.4928 106.622 70.1261 106.385 69.7479L107.015 69.6159C107.249 69.9924 107.483 70.3592 107.709 70.7145L107.082 70.8482ZM123.473 79.7627C123.289 79.3764 123.117 78.9934 122.962 78.6266L123.614 78.5337C123.769 78.8972 123.936 79.277 124.12 79.66L123.473 79.7627ZM121.07 77.9942C120.994 77.6209 120.884 77.2411 120.743 76.8629L121.398 76.7814C121.545 77.1726 121.657 77.5639 121.734 77.9502L121.07 77.9942ZM138.104 87.5412L137.975 87.3814C137.884 87.2706 137.791 87.1549 137.698 87.0359L138.308 86.8761C138.356 86.9364 138.404 86.9967 138.452 87.0571C138.768 86.9919 139.101 86.9201 139.448 86.8468L139.683 87.2103C139.225 87.3081 138.793 87.3977 138.39 87.4809L138.104 87.5412ZM105.702 68.646C105.479 68.2858 105.253 67.9174 105.024 67.5441L105.657 67.4137C105.885 67.787 106.111 68.1554 106.334 68.5156L105.702 68.646ZM41.2127 30.934L40.857 30.6048C41.4386 30.3961 42.0175 30.1924 42.5906 29.9951L42.9351 30.3277C42.3619 30.5249 41.7887 30.7254 41.2127 30.934ZM136.89 85.9601C136.642 85.6145 136.385 85.251 136.128 84.8745L136.752 84.7327C137.006 85.1076 137.26 85.4694 137.509 85.8117L136.89 85.9601ZM48.0824 34.6782L47.7407 34.344C48.3308 34.1435 48.9153 33.9495 49.4941 33.7588L49.8273 34.0946C49.2569 34.2837 48.6725 34.4777 48.0824 34.6782ZM122.516 77.4791C122.375 77.0781 122.253 76.6885 122.152 76.3201L122.815 76.2598C122.914 76.6233 123.035 77.0064 123.174 77.3992L122.516 77.4791ZM146.984 91.2234L146.736 90.8648C147.357 90.7213 147.981 90.573 148.605 90.4214L148.865 90.78C148.238 90.93 147.608 91.0783 146.984 91.2234ZM120.234 75.7513C120.04 75.391 119.817 75.0275 119.568 74.6657L120.189 74.5222C120.446 74.8923 120.675 75.2655 120.875 75.6355L120.234 75.7513ZM104.352 66.439C104.132 66.0739 103.912 65.7055 103.686 65.3339L104.321 65.2083C104.541 65.58 104.764 65.9467 104.985 66.3119L104.352 66.439ZM135.4 83.7791C135.165 83.4189 134.934 83.0505 134.702 82.6788L135.335 82.5484C135.563 82.9185 135.795 83.2836 136.026 83.6422L135.4 83.7791ZM141.583 86.7946L141.34 86.4328C141.95 86.2958 142.583 86.1524 143.218 86.0041L143.469 86.3643C142.825 86.5143 142.193 86.6577 141.583 86.7946ZM118.761 73.6094C118.526 73.3274 118.252 72.9639 117.939 72.5287L118.557 72.3804C118.868 72.8107 119.139 73.1661 119.365 73.4432L118.761 73.6094ZM121.903 75.1465C121.838 74.7244 121.81 74.3234 121.818 73.9599L122.49 73.9664C122.482 74.3169 122.507 74.7032 122.569 75.1139L121.903 75.1465ZM103.031 64.2287C102.813 63.862 102.599 63.4936 102.381 63.1236L103.019 62.9997C103.234 63.3681 103.451 63.7381 103.669 64.1048L103.031 64.2287ZM134.036 81.5737C133.816 81.202 133.604 80.832 133.395 80.4636L134.033 80.343C134.239 80.7098 134.451 81.0798 134.671 81.4482L134.036 81.5737ZM44.6716 29.7425L44.3384 29.4067C44.9341 29.2095 45.5214 29.0171 46.0974 28.828L46.4278 29.1655C45.8546 29.3529 45.2673 29.5452 44.6716 29.7425ZM117.177 71.4399C116.942 71.0992 116.702 70.7325 116.445 70.3461L117.072 70.2092C117.323 70.5955 117.569 70.959 117.798 71.2997L117.177 71.4399ZM51.5892 33.5209L51.2588 33.1834C51.8546 32.9895 52.4419 32.7971 53.0122 32.6048L53.3482 32.9389C52.7722 33.1313 52.1877 33.3253 51.5892 33.5209ZM150.728 90.3171L150.457 89.9617C151.084 89.802 151.7 89.6423 152.301 89.4842L152.583 89.8362C151.979 89.996 151.361 90.1573 150.728 90.3171ZM101.74 62.0135C101.529 61.6435 101.314 61.2719 101.105 60.9035L101.743 60.7829C101.952 61.1512 102.164 61.5212 102.379 61.8929L101.74 62.0135ZM132.785 79.3455C132.584 78.9624 132.39 78.5859 132.212 78.2224L132.858 78.1164C133.036 78.4799 133.225 78.8532 133.426 79.233L132.785 79.3455ZM115.737 69.2491C115.511 68.8938 115.276 68.527 115.039 68.1489L115.669 68.0169C115.906 68.395 116.138 68.7601 116.366 69.1139L115.737 69.2491ZM122.013 72.7651C122.092 72.5238 122.202 72.3005 122.332 72.0984C122.442 71.9305 122.569 71.7691 122.713 71.6143L123.306 71.7969C123.177 71.937 123.061 72.0854 122.962 72.237C122.843 72.4163 122.745 72.62 122.674 72.8401L122.013 72.7651ZM145.344 85.9209L145.087 85.564C145.717 85.4124 146.341 85.2608 146.948 85.1092L147.213 85.4645C146.603 85.6178 145.976 85.771 145.344 85.9209ZM100.475 59.7902C100.267 59.4153 100.06 59.0453 99.8543 58.6752L100.492 58.5579C100.696 58.9263 100.902 59.2963 101.114 59.6696L100.475 59.7902ZM131.687 77.0879C131.506 76.6739 131.351 76.2875 131.229 75.9404L131.887 75.8637C132.008 76.2044 132.161 76.5858 132.336 76.9933L131.687 77.0879ZM114.356 67.047C114.133 66.6868 113.907 66.3184 113.681 65.9435L114.316 65.8147C114.545 66.188 114.771 66.5564 114.991 66.915L114.356 67.047ZM48.1897 28.5884L47.8565 28.2526C48.4466 28.0587 49.0311 27.8614 49.5958 27.6658L49.9402 27.9984C49.3727 28.1956 48.7826 28.3928 48.1897 28.5884ZM55.0931 32.3456L54.743 32.0163C55.3699 31.7947 55.9261 31.5909 56.4343 31.3921L56.8098 31.7132C56.2903 31.912 55.7313 32.1207 55.0931 32.3456ZM99.2444 57.5603C99.0383 57.1838 98.8378 56.8105 98.643 56.4437L99.2868 56.3296C99.4816 56.6964 99.6821 57.0697 99.8854 57.4446L99.2444 57.5603ZM154.419 89.3342L154.122 88.987C154.772 88.8044 155.373 88.6268 155.918 88.4589L156.234 88.8012C155.684 88.9691 155.074 89.1484 154.419 89.3342ZM113.012 64.84C112.792 64.4748 112.571 64.1064 112.351 63.7348L112.986 63.6093C113.207 63.9809 113.427 64.3493 113.647 64.7144L113.012 64.84ZM131.379 74.9672L131.229 74.5907C131.845 74.5092 132.514 74.4261 133.208 74.338L133.35 74.7162C132.661 74.801 131.994 74.8857 131.379 74.9672ZM124.464 70.9297L124.009 70.6444C124.537 70.3657 125.145 70.1457 125.814 69.9908L126.062 70.3494C125.469 70.4863 124.933 70.6819 124.464 70.9297ZM149.071 84.9951L148.797 84.6414C149.466 84.467 150.079 84.3023 150.624 84.1507L150.918 84.4996C150.364 84.6528 149.743 84.819 149.071 84.9951ZM98.0501 55.3223C97.8496 54.9392 97.6576 54.5643 97.4741 54.2009L98.1179 54.0933C98.3014 54.4568 98.4934 54.8317 98.691 55.2131L98.0501 55.3223ZM111.696 62.6264C111.482 62.258 111.264 61.888 111.052 61.518L111.688 61.3957C111.905 61.7657 112.117 62.1358 112.334 62.5025L111.696 62.6264ZM51.6654 27.3741L51.2927 27.0513C51.9619 26.7954 52.4814 26.5737 52.8852 26.3732L53.3228 26.6683C52.9021 26.8753 52.36 27.1067 51.6654 27.3741ZM58.4672 31.0204L58.055 30.714C58.6169 30.4613 59.1054 30.2152 59.5571 29.9642L60.0258 30.2413C59.5571 30.5053 59.0489 30.7596 58.4672 31.0204ZM96.915 53.0729C96.7259 52.68 96.5451 52.3019 96.3786 51.9416L97.0252 51.8422C97.1889 52.2008 97.3668 52.5774 97.5588 52.9686L96.915 53.0729ZM158.016 88.2193L157.666 87.89C158.386 87.6373 158.919 87.414 159.255 87.2331L159.716 87.5151C159.343 87.714 158.773 87.9519 158.016 88.2193ZM110.409 60.4063C110.197 60.0363 109.985 59.6663 109.776 59.2979L110.414 59.1773C110.623 59.5457 110.832 59.9141 111.047 60.2857L110.409 60.4063ZM135.326 74.4717L135.185 74.0935C135.837 74.0137 136.495 73.9306 137.159 73.8442L137.305 74.2223C136.642 74.3054 135.981 74.3902 135.326 74.4717ZM127.962 70.0348L127.801 69.6583C128.414 69.5686 129.075 69.4806 129.778 69.391L129.925 69.7691C129.225 69.8571 128.569 69.9452 127.962 70.0348ZM152.73 83.9551L152.397 83.6194C152.598 83.5525 152.77 83.4922 152.908 83.4384C153.094 83.2819 153.312 83.0749 153.549 82.8239L154.139 83.0114C153.871 83.2901 153.634 83.5183 153.428 83.6895L153.394 83.7188L153.343 83.7383C153.176 83.8019 152.979 83.8736 152.73 83.9551ZM95.876 50.8039C95.6981 50.3817 95.5456 49.9938 95.4242 49.6564L96.0793 49.5781C96.2007 49.9123 96.3475 50.2937 96.5254 50.7126L95.876 50.8039ZM109.152 58.1846C108.943 57.8097 108.734 57.4381 108.534 57.0713L109.172 56.9539C109.372 57.3207 109.581 57.6923 109.79 58.0672L109.152 58.1846ZM117.716 63.0404C117.521 62.9279 117.335 62.8041 117.162 62.6688L117.699 62.4373C118.094 62.7438 118.543 62.9801 119.082 63.1708L118.735 63.5017C118.357 63.3713 118.024 63.2181 117.716 63.0404ZM53.5459 25.6104C53.4442 25.418 53.2183 25.0888 52.7101 24.6063L53.2833 24.4058C53.7209 24.8215 54.0259 25.1898 54.1896 25.4996L53.5459 25.6104ZM116.092 61.6402C115.782 61.3012 115.468 60.9475 115.172 60.5872L115.779 60.4194C116.073 60.7747 116.378 61.1235 116.685 61.4577L116.092 61.6402ZM120.683 63.9646L120.858 63.5897C121.415 63.6761 122.047 63.7446 122.798 63.8L122.713 64.1847C121.931 64.1276 121.268 64.0575 120.683 63.9646ZM60.8616 29.1166C61.0592 28.9666 61.2428 28.8117 61.4093 28.6569C61.5844 28.4939 61.7453 28.326 61.8837 28.1548L62.4879 28.3211C62.3355 28.5037 62.166 28.683 61.9797 28.859C61.8046 29.022 61.607 29.1883 61.3981 29.348L60.8616 29.1166ZM51.5835 23.6593C51.3463 23.4767 51.112 23.299 50.8861 23.1328C50.6885 22.9828 50.5134 22.8557 50.3553 22.7318L50.8918 22.5003C51.0499 22.6209 51.2193 22.7481 51.3943 22.8817C51.64 23.0659 51.8772 23.242 52.1172 23.4294L51.5835 23.6593ZM160.455 86.3513C160.774 86.0725 161.116 85.7384 161.475 85.3586L162.062 85.5444C161.695 85.9323 161.342 86.2763 161.014 86.5632L160.455 86.3513ZM107.921 55.9547C107.715 55.575 107.515 55.2017 107.32 54.8382L107.963 54.7241C108.155 55.0892 108.359 55.4609 108.565 55.8406L107.921 55.9547ZM95.0882 48.4844C95.0148 48.0867 94.9979 47.6857 95.0374 47.288L95.7066 47.3091C95.6699 47.6857 95.6868 48.0671 95.7546 48.442L95.0882 48.4844ZM139.282 73.9615L139.127 73.585C139.784 73.4953 140.437 73.4024 141.083 73.3062L141.25 73.6828C140.6 73.7773 139.94 73.8719 139.282 73.9615ZM114.325 59.5147C114.051 59.1479 113.794 58.7812 113.557 58.4226L114.184 58.2857C114.415 58.6377 114.669 58.9996 114.94 59.3615L114.325 59.5147ZM131.893 69.5197L131.752 69.1416L133.728 68.8971L133.869 69.2752L131.893 69.5197ZM49.2569 21.7032C49.0113 21.3854 48.7798 20.9942 48.5793 20.572L49.2287 20.471C49.4207 20.8752 49.6409 21.2468 49.8725 21.5468L49.2569 21.7032ZM154.464 81.7905C154.732 81.4694 155.017 81.1157 155.311 80.7342L155.924 80.8923C155.627 81.2754 155.339 81.634 155.065 81.9584L154.464 81.7905ZM124.744 64.2972L124.789 63.9092C125.41 63.932 126.079 63.9532 126.799 63.9712L126.771 64.3591C125.997 64.3395 125.334 64.3184 124.744 64.2972ZM112.885 57.3109C112.67 56.923 112.478 56.5416 112.32 56.1764L112.97 56.0819C113.125 56.4389 113.311 56.8138 113.523 57.1936L112.885 57.3109ZM106.732 53.7167C106.532 53.3304 106.34 52.9555 106.154 52.5937L106.797 52.4861C106.981 52.8463 107.173 53.2212 107.373 53.6075L106.732 53.7167ZM48.1445 19.4114C48.0344 19.0186 47.9525 18.6225 47.9101 18.2329L48.5793 18.2085C48.6217 18.585 48.6979 18.9681 48.8052 19.3495L48.1445 19.4114ZM95.3198 46.1013C95.4609 45.7199 95.6614 45.3336 95.907 44.957L96.5367 45.0923C96.3023 45.4526 96.116 45.8209 95.9776 46.1844L95.3198 46.1013ZM62.5246 27.097C62.6686 26.7367 62.742 26.3618 62.7505 25.982L63.4225 25.9853C63.4169 26.3928 63.335 26.7954 63.1825 27.1834L62.5246 27.097ZM143.212 73.3747L143.026 73.0031C143.706 72.8906 144.35 72.7765 144.946 72.6608L145.155 73.0292C144.553 73.1449 143.901 73.2606 143.212 73.3747ZM135.851 69.0209L135.704 68.6428C136.354 68.558 137.012 68.4684 137.67 68.3755L137.828 68.7536C137.164 68.8465 136.501 68.9362 135.851 69.0209ZM162.401 84.3284C162.68 84.0008 162.971 83.6471 163.268 83.2771L163.877 83.4401C163.581 83.8133 163.285 84.1703 163.002 84.4996L162.401 84.3284ZM105.592 51.4673C105.397 51.0647 105.216 50.6865 105.055 50.3361L105.705 50.2383C105.866 50.5887 106.043 50.9653 106.238 51.3646L105.592 51.4673ZM111.897 55.0159C111.778 54.6051 111.699 54.2074 111.662 53.8341L112.331 53.8129C112.368 54.1731 112.444 54.5562 112.554 54.9523L111.897 55.0159ZM128.795 64.3999L128.815 64.0135C129.408 64.0233 130.032 64.0347 130.687 64.0445L130.837 64.0461L130.82 64.4341L130.673 64.4308C130.012 64.421 129.388 64.4096 128.795 64.3999ZM156.121 79.6666C156.378 79.3194 156.635 78.9591 156.898 78.5891L157.519 78.7358C157.259 79.1075 156.997 79.471 156.74 79.8182L156.121 79.6666ZM47.8875 17.043C47.9214 16.629 47.9977 16.2297 48.1191 15.8564L48.7798 15.9281C48.6668 16.2834 48.5878 16.6649 48.5567 17.061L47.8875 17.043ZM104.561 49.1934C104.361 48.7028 104.228 48.31 104.166 48.0263L104.829 47.9758C104.891 48.2464 105.021 48.6278 105.213 49.1071L104.561 49.1934ZM62.5783 24.859C62.4653 24.5004 62.2959 24.132 62.07 23.7636L62.7053 23.6348C62.9397 24.0244 63.1204 24.4123 63.2418 24.7889L62.5783 24.859ZM111.693 52.6393C111.764 52.2171 111.899 51.8194 112.097 51.4575L112.735 51.5749C112.549 51.9107 112.425 52.2823 112.36 52.6752L111.693 52.6393ZM96.7513 43.8698C97.0647 43.5291 97.4204 43.1868 97.8129 42.8527L98.3663 43.0711C97.988 43.3939 97.6435 43.7231 97.3414 44.0507L96.7513 43.8698ZM132.833 64.4683L132.856 64.0804C133.511 64.0934 134.191 64.1081 134.88 64.1244L134.852 64.5123C134.166 64.4944 133.488 64.4814 132.833 64.4683ZM139.793 68.4635L139.618 68.0886C140.312 67.981 140.962 67.8734 141.549 67.7691L141.75 68.1391C141.154 68.2451 140.496 68.3543 139.793 68.4635ZM147.078 72.6298L146.832 72.2696C147.493 72.1196 148.105 71.9647 148.656 71.8066L148.952 72.1538C148.385 72.3152 147.755 72.4766 147.078 72.6298ZM164.098 82.2143C164.372 81.854 164.637 81.4954 164.891 81.1434L165.512 81.2933C165.255 81.647 164.987 82.0073 164.713 82.3708L164.098 82.2143ZM61.2936 22.7122C61.0084 22.3846 60.6809 22.0488 60.3166 21.7147C60.2517 21.6543 60.1839 21.5957 60.119 21.5354L60.6809 21.3251C60.7486 21.387 60.8164 21.4457 60.8842 21.5076C61.2597 21.8516 61.5985 22.2004 61.8922 22.5394L61.2936 22.7122ZM123.6 58.61C123.326 58.2824 123.047 57.9222 122.767 57.5326L123.385 57.3843C123.657 57.7657 123.933 58.121 124.201 58.4389L123.6 58.61ZM48.6838 14.7023C48.9492 14.3079 49.2852 13.9476 49.6776 13.6363L50.2226 13.8629C49.864 14.1514 49.5562 14.4823 49.3106 14.8458L48.6838 14.7023ZM125.613 59.0583L125.656 58.672C126.277 58.6948 126.963 58.7127 127.669 58.729L127.643 59.1153C126.926 59.099 126.237 59.0795 125.613 59.0583ZM58.9755 20.5883C58.6621 20.3422 58.3656 20.1221 58.1058 19.9298C57.9844 19.8401 57.863 19.7472 57.7501 19.6625L58.2837 19.4261C58.3967 19.5109 58.5181 19.6038 58.6254 19.682C58.8992 19.8858 59.1957 20.1091 59.5119 20.3569L58.9755 20.5883ZM104.423 46.7892C104.64 46.4452 104.982 46.085 105.431 45.7215L105.976 45.9481C105.561 46.2822 105.247 46.6099 105.05 46.9228L104.423 46.7892ZM157.64 77.5052C157.883 77.1466 158.123 76.7831 158.36 76.4147L158.99 76.55C158.753 76.9184 158.51 77.2835 158.267 77.6453L157.64 77.5052ZM122.033 56.4372C121.79 56.0493 121.573 55.6728 121.389 55.319L122.033 55.2082C122.214 55.557 122.428 55.9254 122.665 56.3068L122.033 56.4372ZM136.871 64.5694L136.91 64.1814C137.599 64.2042 138.28 64.232 138.937 64.2629L138.884 64.6492C138.229 64.6199 137.554 64.5922 136.871 64.5694ZM57.112 18.4693C57.064 18.2655 57.0273 18.0488 57.0075 17.845L56.9764 17.55L57.4536 17.6494C57.736 17.7081 58.0381 17.7716 58.3571 17.8385L58.1256 18.2036C57.9844 18.1743 57.8489 18.1449 57.7162 18.1172C57.7331 18.2183 57.7529 18.321 57.7755 18.4188L57.112 18.4693ZM113.003 50.3605C113.246 50.1519 113.523 49.9563 113.831 49.7786C113.989 49.6873 114.155 49.6009 114.328 49.5178L114.441 49.4657L114.856 49.7705L114.754 49.8194C114.596 49.8944 114.449 49.9726 114.305 50.0557C114.028 50.2155 113.777 50.3931 113.56 50.5806L113.003 50.3605ZM143.687 67.7544L143.444 67.3926C144.181 67.2279 144.779 67.0649 145.214 66.9084L145.564 67.2377C145.09 67.4072 144.46 67.5816 143.687 67.7544ZM99.0553 41.9073C99.4873 41.609 99.9531 41.314 100.439 41.0336L100.913 41.3074C100.442 41.5796 99.987 41.8649 99.5691 42.155L99.0553 41.9073ZM150.745 71.5654L150.373 71.2427C150.923 71.0324 151.434 70.7928 151.897 70.5352L152.363 70.814C151.878 71.0878 151.33 71.3421 150.745 71.5654ZM165.659 80.0643C165.93 79.6763 166.179 79.3112 166.405 78.9787L167.029 79.1205C166.803 79.453 166.551 79.8198 166.277 80.2094L165.659 80.0643ZM120.881 54.1683C120.788 53.8993 120.734 53.6629 120.714 53.469L120.706 53.35L120.884 53.2897C121.11 53.2147 121.367 53.1348 121.635 53.0517L121.951 53.394C121.759 53.4527 121.573 53.5114 121.403 53.5668C121.429 53.7184 121.474 53.8944 121.542 54.0933L120.881 54.1683ZM129.665 59.1545L129.685 58.7682L131.706 58.8007L131.687 59.1871L129.665 59.1545ZM60.023 18.6111L60.2574 18.2476C60.8531 18.3764 61.4856 18.5166 62.1548 18.6616L61.9176 19.0235C61.2512 18.8768 60.6188 18.7399 60.023 18.6111ZM159.055 75.3193C159.284 74.9526 159.507 74.5826 159.721 74.2174L160.357 74.3429C160.139 74.7097 159.916 75.0797 159.687 75.4497L159.055 75.3193ZM140.877 64.7666L140.962 64.3819C141.769 64.4406 142.45 64.5074 142.992 64.5792L142.839 64.9573C142.323 64.8872 141.659 64.8237 140.877 64.7666ZM51.5525 13.0658L51.143 12.7577C51.7106 12.5083 52.3374 12.3127 53.0066 12.1774L53.2296 12.5442C52.631 12.6648 52.0663 12.8409 51.5525 13.0658ZM106.78 44.812C107.399 44.455 107.961 44.186 108.328 44.023L108.74 44.3295C108.39 44.486 107.848 44.7435 107.272 45.076L106.78 44.812ZM63.8093 19.444L64.0522 19.0822C64.6592 19.2175 65.2889 19.3593 65.9439 19.506L65.6983 19.8662C65.046 19.7211 64.4164 19.5793 63.8093 19.444ZM145.739 66.1749C145.688 66.1032 145.621 66.025 145.533 65.9451C145.31 65.7414 144.977 65.5457 144.573 65.3811L144.96 65.0633C145.44 65.2556 145.832 65.4887 146.103 65.7365C146.214 65.8359 146.301 65.9353 146.366 66.0282L145.739 66.1749ZM133.703 59.2262L133.725 58.8382C134.417 58.8529 135.092 58.8676 135.747 58.8839L135.716 59.2702C135.069 59.2555 134.394 59.2409 133.703 59.2262ZM116.493 49.1348L116.152 48.8006C116.646 48.6327 117.216 48.4534 117.942 48.2366L118.25 48.5806C117.538 48.7925 116.979 48.9685 116.493 49.1348ZM123.744 52.8642L123.439 52.5187C124.041 52.3443 124.639 52.1682 125.232 51.9857L125.548 52.328C124.953 52.5089 124.348 52.6882 123.744 52.8642ZM102.381 40.5315L101.949 40.2365C102.486 39.9757 103.034 39.7345 103.581 39.516L103.963 39.8339C103.432 40.0425 102.901 40.2773 102.381 40.5315ZM167.13 77.8882C167.413 77.4546 167.579 77.1922 167.588 77.1743L167.828 76.7912L168.46 76.9216L168.223 77.3063C168.214 77.321 168.048 77.5867 167.76 78.0268L167.13 77.8882ZM67.5787 20.2933L67.8244 19.933C68.4399 20.0732 69.0667 20.2167 69.7105 20.3634L69.4648 20.7236C68.8211 20.5769 68.1943 20.4335 67.5787 20.2933ZM153.165 69.6762C153.538 69.3665 153.857 69.0356 154.117 68.6933L154.732 68.8465C154.455 69.2149 154.111 69.567 153.716 69.8963L153.165 69.6762ZM160.357 73.1139C160.566 72.7357 160.769 72.3641 160.955 72.0022L161.599 72.1131C161.407 72.4782 161.209 72.8531 160.998 73.2329L160.357 73.1139ZM55.1129 12.3404L55.0875 11.9541C55.7736 11.9395 56.4767 11.9802 57.1825 12.0715L57.0329 12.448C56.3835 12.3633 55.7369 12.3258 55.1129 12.3404ZM110.301 43.9008L110.338 43.5145C110.897 43.5308 111.566 43.6432 112.388 43.8568L112.114 44.2105C111.38 44.0181 110.767 43.9155 110.301 43.9008ZM71.3396 21.1572L71.5909 20.797C72.2065 20.9404 72.8361 21.0855 73.4714 21.2338L73.2201 21.594C72.5848 21.4457 71.958 21.299 71.3396 21.1572ZM137.735 59.3338L137.777 58.9475C138.474 58.9719 139.149 58.9996 139.801 59.0306L139.742 59.4169C139.096 59.3859 138.426 59.3582 137.735 59.3338ZM113.867 44.7435L114.209 44.4093C114.74 44.5919 115.319 44.8054 115.934 45.0434L115.559 45.3645C114.957 45.1314 114.387 44.9228 113.867 44.7435ZM58.9303 12.7936L59.1534 12.4268C59.6842 12.5344 60.3279 12.6681 61.0677 12.8246L60.8362 13.1897C60.0992 13.0348 59.4611 12.9012 58.9303 12.7936ZM120.054 48.0508L119.749 47.7052C119.989 47.6351 120.246 47.5585 120.514 47.4787L120.429 47.4428L120.839 47.1347L121.759 47.539L121.296 47.6824C120.864 47.8112 120.435 47.9383 120.054 48.0508ZM75.0949 22.0309L75.349 21.6723C75.9674 21.8173 76.5942 21.964 77.2267 22.114L76.9726 22.4726C76.3373 22.3243 75.7133 22.1759 75.0949 22.0309ZM168.485 75.691C168.706 75.3095 168.915 74.9412 169.112 74.5858L169.753 74.7015C169.558 75.0585 169.349 75.4302 169.124 75.8148L168.485 75.691ZM117.205 46.0345L117.6 45.7215C118.182 45.966 118.732 46.2056 119.229 46.424L118.823 46.7338C118.326 46.5153 117.781 46.279 117.205 46.0345ZM154.715 67.6208C154.851 67.2556 154.924 66.8775 154.933 66.5009L155.602 66.5058C155.593 66.9084 155.517 67.3111 155.37 67.7023L154.715 67.6208ZM105.645 39.2373L105.34 38.8918C105.964 38.7076 106.619 38.5609 107.277 38.4549L107.455 38.8282C106.84 38.926 106.23 39.0662 105.645 39.2373ZM127.327 51.7509L126.98 51.42C127.604 51.2033 128.143 50.993 128.629 50.7811L129.035 51.0908C128.527 51.3092 127.971 51.526 127.327 51.7509ZM141.738 59.5359L141.82 59.1496C142.554 59.2017 143.215 59.2572 143.839 59.324L143.72 59.7054C143.111 59.6435 142.464 59.5864 141.738 59.5359ZM161.509 70.8808C161.692 70.4814 161.859 70.1016 161.994 69.7528L162.649 69.8376C162.511 70.1913 162.344 70.5744 162.155 70.9802L161.509 70.8808ZM78.8389 22.9176L79.093 22.559C79.7142 22.7057 80.3354 22.8557 80.965 23.0073L80.7081 23.3642C80.0812 23.2143 79.4601 23.0643 78.8389 22.9176ZM62.7364 13.5988L62.9708 13.2353C63.5665 13.3641 64.199 13.501 64.8682 13.6493L64.631 14.0112C63.9646 13.8645 63.3293 13.726 62.7364 13.5988ZM82.5772 23.8141L82.837 23.4555C83.4582 23.6055 84.0822 23.7571 84.7062 23.9087L84.4436 24.2656C83.8196 24.114 83.1956 23.9624 82.5772 23.8141ZM154.763 65.3762C154.647 65.0095 154.47 64.6427 154.235 64.289L154.862 64.1488C155.113 64.5254 155.302 64.9149 155.424 65.3045L154.763 65.3762ZM66.5256 14.4301L66.7684 14.0683C67.3754 14.2035 68.0079 14.3437 68.6573 14.4904L68.4145 14.8523C67.7623 14.704 67.1326 14.5654 66.5256 14.4301ZM145.663 59.9564L145.841 59.5832C146.558 59.6973 147.216 59.8293 147.795 59.9776L147.524 60.333C146.976 60.1928 146.349 60.0656 145.663 59.9564ZM169.694 73.4741C169.886 73.096 170.067 72.7178 170.23 72.356L170.88 72.4538C170.713 72.8205 170.53 73.2003 170.338 73.5817L169.694 73.4741ZM109.378 38.6375L109.33 38.2512C110.005 38.2234 110.702 38.2349 111.408 38.2805L111.332 38.6668C110.666 38.6212 110.01 38.6114 109.378 38.6375ZM130.088 50.0264C130.549 49.7379 130.93 49.4331 131.215 49.1217L131.811 49.3027C131.497 49.6433 131.085 49.9759 130.583 50.2888L130.088 50.0264ZM86.3043 24.7204L86.5669 24.3634C87.188 24.5166 87.8092 24.6699 88.4304 24.8231L88.165 25.1784C87.5466 25.0268 86.9254 24.8736 86.3043 24.7204ZM162.375 68.62C162.497 68.1619 162.548 67.7838 162.525 67.4936L163.194 67.4757C163.22 67.7903 163.166 68.1962 163.039 68.677L162.375 68.62ZM153.374 63.2735C153.329 63.2311 153.284 63.1888 153.238 63.1464C152.936 62.8709 152.598 62.6036 152.228 62.3509L152.742 62.0999C153.134 62.3656 153.493 62.6476 153.806 62.9394C153.854 62.9834 153.902 63.0274 153.947 63.073L153.374 63.2735ZM149.257 60.8709L149.616 60.5432C150.203 60.7584 150.762 60.9964 151.279 61.2523L150.841 61.5473C150.353 61.3012 149.819 61.0746 149.257 60.8709ZM70.3006 15.2761L70.5462 14.9159C71.1589 15.0544 71.7914 15.1979 72.4295 15.3446L72.1839 15.7048C71.5401 15.5581 70.9133 15.4146 70.3006 15.2761ZM90.0257 25.643L90.2911 25.2876C90.9094 25.4425 91.5278 25.5973 92.1433 25.7538L91.8722 26.1092C91.2624 25.9527 90.644 25.7978 90.0257 25.643ZM113.266 38.8803L113.441 38.5054C114.074 38.6032 114.731 38.732 115.392 38.8852L115.144 39.2438C114.506 39.0971 113.87 38.9749 113.266 38.8803ZM74.0643 16.1351L74.31 15.7749C74.9283 15.9167 75.5552 16.0601 76.1904 16.2085L75.9391 16.5687C75.3095 16.4204 74.6827 16.2769 74.0643 16.1351ZM161.706 66.5612C161.384 66.2776 161.009 65.9533 160.582 65.5898L161.139 65.373C161.565 65.7397 161.943 66.0657 162.265 66.3493L161.706 66.5612ZM170.713 71.2296C170.866 70.8384 171.001 70.457 171.117 70.0967L171.778 70.1652C171.662 70.532 171.524 70.9183 171.368 71.3144L170.713 71.2296ZM159.445 64.6199C159.083 64.3167 158.702 63.9956 158.295 63.6566L158.846 63.4365C159.253 63.7756 159.634 64.0967 159.998 64.4015L159.445 64.6199ZM93.7273 26.577L93.9983 26.2216C94.6195 26.3814 95.2379 26.5395 95.8477 26.696L95.5739 27.0497C94.964 26.8932 94.3485 26.7367 93.7273 26.577ZM116.954 39.7214L117.258 39.3759C117.834 39.5454 118.436 39.7361 119.046 39.948L118.701 40.2805C118.103 40.0751 117.515 39.8861 116.954 39.7214ZM77.8224 17.0039L78.0737 16.6437C78.6921 16.7887 79.3189 16.9355 79.9514 17.0822L79.6972 17.4408C79.0676 17.2957 78.4408 17.149 77.8224 17.0039ZM157.143 62.6981C156.771 62.3884 156.384 62.0706 155.986 61.7397L156.536 61.5164C156.937 61.8456 157.324 62.1667 157.697 62.4764L157.143 62.6981ZM131.833 48.0801C131.941 47.715 131.946 47.3466 131.839 46.9848L132.5 46.9196C132.616 47.3254 132.618 47.7378 132.494 48.1453L131.833 48.0801ZM154.82 60.7828C154.438 60.4715 154.052 60.1537 153.651 59.8277L154.198 59.6027C154.597 59.9271 154.986 60.2466 155.367 60.5579L154.82 60.7828ZM120.395 40.8999L120.768 40.5772C121.299 40.7826 121.847 41.001 122.44 41.2487L122.047 41.5633C121.463 41.3205 120.921 41.102 120.395 40.8999ZM97.4176 27.5305L97.6943 27.1785C98.3155 27.3415 98.931 27.5012 99.5381 27.6626L99.2557 28.0147C98.6543 27.8533 98.0416 27.6919 97.4176 27.5305ZM123.668 42.2545L124.074 41.9448C124.594 42.1697 125.099 42.3963 125.591 42.6114L125.687 42.6538L125.274 42.9603L125.198 42.926C124.69 42.7044 124.185 42.481 123.668 42.2545ZM152.479 58.8774C152.092 58.566 151.7 58.2482 151.302 57.9271L151.847 57.7005C152.245 58.0216 152.637 58.3395 153.024 58.6508L152.479 58.8774ZM81.5692 17.8857L81.8234 17.5271C82.4445 17.6738 83.0685 17.8222 83.6953 17.9721L83.4412 18.3307C82.8144 18.1808 82.1904 18.0324 81.5692 17.8857ZM126.887 43.6726L127.288 43.3629C127.954 43.6498 128.471 43.8633 128.92 44.0344L128.547 44.3572C128.089 44.1811 127.564 43.9627 126.887 43.6726ZM150.121 56.9784C149.732 56.6654 149.336 56.3492 148.938 56.0314L149.483 55.8048C149.884 56.1243 150.279 56.4405 150.669 56.7535L150.121 56.9784ZM131.221 45.9465C131.156 45.8764 131.085 45.8063 131.012 45.7378C130.749 45.4949 130.439 45.2733 130.072 45.0581L130.549 44.7859C130.944 45.0173 131.291 45.2667 131.579 45.5308C131.661 45.6074 131.74 45.6824 131.814 45.7606L131.221 45.9465ZM101.097 28.5037L101.379 28.1516C102 28.3178 102.61 28.4841 103.211 28.6487L102.926 28.9992C102.328 28.8362 101.715 28.6716 101.097 28.5037ZM171.419 68.9541C171.504 68.5499 171.56 68.1652 171.583 67.8098L172.252 67.8245C172.227 68.1913 172.17 68.5857 172.083 69.0014L171.419 68.9541ZM147.747 55.0859C147.351 54.773 146.953 54.4584 146.552 54.1422L147.095 53.914C147.495 54.2302 147.894 54.5448 148.289 54.8577L147.747 55.0859ZM85.3104 18.7774L85.5673 18.4204C86.1885 18.5704 86.8097 18.7203 87.4365 18.8703L87.1767 19.2289C86.5527 19.0773 85.9316 18.9273 85.3104 18.7774ZM145.355 53.2C144.957 52.8887 144.559 52.5741 144.155 52.2595L144.695 52.0297C145.098 52.3443 145.499 52.6572 145.895 52.9702L145.355 53.2ZM104.75 29.5045L105.044 29.1557C105.665 29.3285 106.272 29.4996 106.865 29.6691L106.569 30.0163C105.979 29.8484 105.371 29.6773 104.75 29.5045ZM142.95 51.3222C142.549 51.0125 142.148 50.6996 141.741 50.3866L142.278 50.1552C142.681 50.4665 143.085 50.7778 143.486 51.0908L142.95 51.3222ZM140.527 49.4542C140.12 49.1413 139.714 48.8316 139.304 48.5202L139.841 48.2855C140.25 48.5969 140.66 48.9082 141.066 49.2212L140.527 49.4542ZM89.0374 19.6804L89.3 19.3234C89.9184 19.475 90.5424 19.6266 91.1635 19.7798L90.901 20.1368C90.2798 19.9836 89.6586 19.8336 89.0374 19.6804ZM108.376 30.5412L108.681 30.1956C109.302 30.3782 109.903 30.5591 110.485 30.7352L110.171 31.0791C109.593 30.9014 108.994 30.7221 108.376 30.5412ZM138.082 47.5895C137.672 47.2782 137.263 46.9701 136.854 46.662L137.387 46.4257C137.797 46.7337 138.209 47.0435 138.618 47.3548L138.082 47.5895ZM171.543 66.6721C171.478 66.2662 171.351 65.8962 171.171 65.5735L171.809 65.4528C172.009 65.8066 172.139 66.1945 172.21 66.6362L171.543 66.6721ZM135.617 45.7394C135.202 45.4314 134.787 45.1233 134.375 44.8169L134.905 44.5789C135.32 44.8837 135.736 45.1918 136.148 45.5015L135.617 45.7394ZM92.7645 20.5997L93.0299 20.2444C93.6511 20.3976 94.2722 20.5541 94.8906 20.7089L94.6252 21.0643C94.004 20.9078 93.3856 20.7529 92.7645 20.5997ZM133.124 43.8992C132.703 43.5911 132.282 43.2863 131.867 42.9847L132.392 42.7435C132.81 43.0467 133.231 43.3515 133.652 43.6595L133.124 43.8992ZM111.945 31.63L112.269 31.2894C112.899 31.4899 113.492 31.6855 114.04 31.8713L113.698 32.2054C113.159 32.0245 112.569 31.8305 111.945 31.63ZM130.602 42.0719C130.173 41.7655 129.75 41.4623 129.326 41.1656L129.846 40.9211C130.266 41.2194 130.696 41.5226 131.125 41.829L130.602 42.0719ZM128.044 40.2659C127.607 39.961 127.175 39.6627 126.748 39.371L127.259 39.1216C127.689 39.415 128.121 39.7133 128.561 40.0197L128.044 40.2659ZM170.315 64.571L170.185 64.4504C169.962 64.2466 169.637 63.9581 169.217 63.5914L169.776 63.3762C170.199 63.7446 170.53 64.0364 170.75 64.2417L170.883 64.364L170.315 64.571ZM115.412 32.8167L115.776 32.4923C116.106 32.6178 116.414 32.7368 116.697 32.8542C116.934 32.952 117.185 33.0612 117.448 33.1834L117.03 33.4866C116.778 33.3709 116.538 33.2649 116.31 33.172C116.03 33.0563 115.731 32.9389 115.412 32.8167ZM125.435 38.4826C124.986 38.1811 124.54 37.8877 124.108 37.6024L124.611 37.3449C125.049 37.6301 125.492 37.9252 125.944 38.2283L125.435 38.4826ZM122.761 36.7336C122.29 36.4353 121.835 36.1501 121.389 35.8795L121.878 35.6138C122.327 35.886 122.787 36.1745 123.261 36.4744L122.761 36.7336ZM96.4717 21.5305L96.7428 21.1751C97.364 21.3316 97.9823 21.4897 98.595 21.6478L98.3211 22.0015C97.7113 21.8451 97.0929 21.6869 96.4717 21.5305ZM118.538 34.2397L118.992 33.9544C119.441 34.194 119.927 34.4646 120.429 34.7548L119.983 35.0449L119.955 35.0286C119.461 34.7434 118.984 34.4777 118.538 34.2397ZM168.093 62.6231C167.743 62.3265 167.365 62.0037 166.955 61.6565L167.509 61.4381C167.921 61.7869 168.302 62.108 168.649 62.4063L168.093 62.6231ZM165.803 60.6916C165.436 60.3851 165.049 60.064 164.651 59.7299L165.202 59.5098C165.605 59.844 165.987 60.1651 166.357 60.4731L165.803 60.6916ZM100.171 22.4791L100.444 22.1254C101.063 22.2868 101.681 22.4482 102.291 22.6079L102.014 22.96C101.404 22.8002 100.792 22.6389 100.171 22.4791ZM163.493 58.7714C163.118 58.4601 162.731 58.1422 162.333 57.8146L162.884 57.5913C163.282 57.9189 163.671 58.2384 164.047 58.5497L163.493 58.7714ZM161.164 56.8594C160.783 56.5481 160.39 56.2302 159.992 55.9058L160.54 55.6809C160.938 56.0053 161.331 56.3231 161.712 56.6345L161.164 56.8594ZM103.852 23.4474L104.135 23.0953C104.753 23.2599 105.366 23.4245 105.973 23.5892L105.688 23.9396C105.083 23.7766 104.471 23.612 103.852 23.4474ZM158.821 54.9555C158.434 54.6442 158.041 54.3264 157.643 54.0052L158.188 53.7787C158.586 54.0998 158.982 54.416 159.366 54.729L158.821 54.9555ZM156.46 53.0582C156.07 52.7452 155.672 52.4306 155.274 52.1128L155.816 51.8846C156.217 52.2041 156.613 52.517 157.005 52.8316L156.46 53.0582ZM107.515 24.44L107.803 24.0912C108.421 24.2624 109.031 24.4319 109.626 24.5998L109.333 24.9486C108.737 24.7807 108.133 24.6112 107.515 24.44ZM154.083 51.1674C153.687 50.8544 153.289 50.5398 152.888 50.2236L153.428 49.9938C153.829 50.31 154.227 50.6246 154.622 50.9376L154.083 51.1674ZM151.688 49.2864C151.29 48.975 150.889 48.6621 150.486 48.3475L151.025 48.1176C151.429 48.4322 151.83 48.7452 152.228 49.0565L151.688 49.2864ZM111.148 25.4653L111.448 25.1198C112.066 25.2974 112.67 25.4735 113.258 25.6495L112.95 25.9934C112.365 25.819 111.764 25.6414 111.148 25.4653ZM149.274 47.4102C148.871 47.0989 148.467 46.7875 148.063 46.4762L148.599 46.2447C149.006 46.5577 149.41 46.869 149.814 47.1804L149.274 47.4102ZM146.84 45.5422C146.434 45.2325 146.024 44.9212 145.618 44.6115L146.151 44.3751C146.561 44.6865 146.97 44.9945 147.377 45.3075L146.84 45.5422ZM144.387 43.6824C143.977 43.3743 143.565 43.0678 143.156 42.7598L143.687 42.5218C144.099 42.8282 144.508 43.1363 144.92 43.446L144.387 43.6824ZM114.743 26.533L115.059 26.1907C115.677 26.3814 116.273 26.5656 116.846 26.7498L116.519 27.0888C115.948 26.9063 115.355 26.7204 114.743 26.533ZM141.913 41.8404C141.498 41.5324 141.08 41.2259 140.663 40.9227L141.191 40.6831C141.606 40.9879 142.023 41.2944 142.441 41.6041L141.913 41.8404ZM139.406 40.0083C138.983 39.7019 138.562 39.3971 138.138 39.0971L138.661 38.8543C139.081 39.1558 139.505 39.459 139.928 39.7654L139.406 40.0083ZM118.269 27.6658L118.611 27.3317C119.235 27.542 119.819 27.749 120.353 27.9429L119.994 28.2706C119.469 28.0782 118.888 27.8761 118.269 27.6658ZM136.868 38.1908C136.436 37.886 136.009 37.5845 135.583 37.2894L136.1 37.0433C136.526 37.3416 136.955 37.6415 137.387 37.9463L136.868 38.1908ZM134.29 36.3929C133.852 36.0914 133.412 35.7947 132.983 35.5046L133.494 35.2519C133.926 35.5437 134.363 35.842 134.807 36.1435L134.29 36.3929ZM121.657 28.9144L122.05 28.5998C122.547 28.8052 123.089 29.053 123.657 29.3317L123.222 29.6284C122.665 29.3529 122.14 29.1149 121.657 28.9144ZM131.656 34.6211C131.201 34.3228 130.758 34.031 130.317 33.7474L130.817 33.4883C131.26 33.7735 131.709 34.0653 132.161 34.3652L131.656 34.6211ZM128.959 32.8851C128.49 32.5917 128.027 32.3081 127.578 32.0359L128.064 31.7686C128.516 32.0424 128.982 32.3277 129.453 32.6227L128.959 32.8851ZM124.718 30.3977L125.176 30.1141C125.639 30.3651 126.133 30.6406 126.638 30.9291L126.164 31.203C125.667 30.9161 125.181 30.6455 124.718 30.3977Z" fill="#52575C"/>
<path d="M90.6222 92.6689C89.9361 92.2728 89.1229 91.6273 87.8806 90.6395C86.3643 89.435 84.21 87.6664 81.4768 85.3811C76.8886 81.5424 70.5922 76.1895 62.7654 69.4673C49.8422 58.3685 36.9218 47.1214 36.0408 46.3553C32.6385 43.7717 28.3101 37.9868 35.9533 34.3046C39.7792 32.461 43.9326 31.1065 47.5947 29.9084C51.1918 28.7348 54.5913 27.6232 55.6784 26.6077C56.949 25.4243 54.2243 23.3884 52.7617 22.293C52.293 21.9409 51.9231 21.6655 51.6549 21.4128C50.4605 20.2734 49.1815 16.2228 51.7029 14.35C52.9678 13.4111 54.9386 13.0916 57.1099 13.4746C61.8336 14.3076 108.712 24.8065 120.594 29.6835C132.831 34.7039 166.493 62.8087 168.992 65.2064C169.652 65.8389 171.657 67.7623 165.985 76.8366C163.873 80.214 160.027 85.4496 158.09 86.5091C155.501 87.9256 138.633 91.8604 136.151 91.8197C134.322 91.7903 133.421 90.8628 132.15 89.3371C131.247 88.2516 130.182 86.7894 129.143 85.2181C127.932 83.3811 125.032 78.7567 124.295 75.4918C124.089 74.5774 123.46 71.7949 127.012 71.1918C128.508 70.9375 130.521 70.6882 132.851 70.3996C137.49 69.8242 143.84 69.037 146.567 68.0263C147.7 67.6074 148.259 67.0174 148.182 66.3246C148.078 65.3645 146.807 64.4387 144.873 63.9057C142.49 63.2504 135.688 63.1379 130.722 63.0581C122.875 62.9293 120.34 62.8413 119.052 61.847C118.12 61.1232 116.353 58.9781 115.209 56.939C113.399 53.7099 113.6 51.6284 115.822 50.5738C116.898 50.0636 118.53 49.5876 120.261 49.0839C121.562 48.7041 123.784 48.057 124.787 47.5827C123.632 47.1377 122.384 46.5868 121.068 46.0032C116.946 44.1776 111.304 41.6771 108.264 42.8426L108.21 42.8638C108.091 42.9062 101.877 45.2257 102.447 48.0619C103.19 51.7474 114.263 70.4893 117.242 74.0607C121.379 79.0208 119.817 83.4039 112.849 86.4031C107.744 88.6004 95.5153 93.0813 92.8499 93.1987C91.9888 93.2427 91.3817 93.1074 90.6222 92.6689ZM55.5683 16.2424C54.9979 16.9368 55.396 19.2693 55.9805 19.923C56.0821 20.0208 56.421 20.2718 56.7513 20.5179C58.804 22.0518 63.0732 25.2433 59.9645 28.1399C58.1941 29.7878 54.4332 31.0169 50.0793 32.4382C46.6036 33.5743 42.662 34.8621 39.1834 36.5345C33.2879 39.3739 39.8159 44.4139 40.0982 44.6258L40.197 44.7057C59.1231 61.1868 87.5728 85.699 93.3666 90.0348C96.5092 89.1399 104.308 86.4569 109.85 84.0722C114.885 81.9059 115.822 79.0436 112.719 75.319C109.571 71.5423 98.2626 52.3782 97.4636 48.3961C96.5403 43.8108 104.83 40.6649 105.519 40.4106C111.547 38.1139 118.829 41.3397 124.149 43.6967C125.433 44.2656 126.647 44.8035 127.678 45.1964C129.892 46.0374 130.278 46.9943 130.213 47.6512C130.03 49.4947 126.393 50.5542 122.545 51.6773C121.198 52.0701 119.809 52.4744 119.126 52.7775C118.95 53.0481 118.857 54.1223 120.241 56.4337C121.175 57.9936 122.291 59.3123 122.841 59.8681C124.222 60.0425 128.031 60.1061 130.88 60.1534C137.188 60.2577 143.713 60.3636 147.056 61.283C150.642 62.2675 153.005 64.1306 153.225 66.142C153.417 67.8992 151.988 69.4771 149.303 70.473C145.805 71.7689 139.492 72.5513 133.924 73.2424C132.148 73.4624 130.456 73.6727 129.174 73.8651C129.045 74.6866 129.55 77.0191 132.272 81.6451C134.24 84.9883 136.225 87.6012 137.264 88.7357C141.417 87.9842 152.912 85.2768 154.606 84.4129C155.402 83.8652 158.449 80.359 161.326 75.7314C165.188 69.5178 165.058 67.1054 164.683 66.6995C161.436 63.5862 128.483 36.4807 117.683 32.0487C106.456 27.4422 60.1424 17.0444 55.6445 16.2506C55.6163 16.2506 55.5908 16.2457 55.5683 16.2424Z" fill="white"/>
<path d="M90.6087 92.6675C89.8097 92.2062 88.7847 91.3928 87.0568 90.0106C85.1085 88.449 82.35 86.1654 78.8573 83.2297C73.1538 78.431 65.2677 71.6876 56.0489 63.7282L60.2362 62.1129C83.9791 82.6103 91.1763 88.4148 93.3532 90.0399C96.4901 89.1483 104.297 86.4604 109.84 84.0757C114.874 81.9094 115.811 79.0471 112.708 75.3225C109.56 71.5458 98.252 52.3817 97.4529 48.3996C96.5296 43.8176 104.814 40.6684 105.508 40.4141C111.537 38.1174 118.818 41.3432 124.138 43.7002C125.423 44.2691 126.637 44.807 127.667 45.1998C129.881 46.0409 130.268 46.9978 130.203 47.6546C130.019 49.4982 126.383 50.5577 122.534 51.6808C121.187 52.0736 119.798 52.4779 119.115 52.781C118.94 53.0516 118.847 54.1258 120.23 56.4372C121.165 57.9971 122.28 59.3158 122.831 59.8716C124.211 60.046 128.02 60.1096 130.869 60.1569C137.177 60.2612 143.702 60.3671 147.045 61.2865C150.631 62.271 152.994 64.1341 153.215 66.1455C153.407 67.9027 151.978 69.4805 149.293 70.4765L146.574 68.0298C147.706 67.6109 148.265 67.0209 148.189 66.3281C148.084 65.368 146.814 64.4422 144.879 63.9092C142.496 63.2539 135.695 63.1414 130.728 63.0615C122.882 62.9328 120.346 62.8448 119.058 61.8504C118.127 61.1267 116.359 58.9816 115.216 56.9425C113.406 53.7134 113.606 51.6319 115.828 50.5773C116.904 50.0671 118.536 49.5911 120.267 49.0874C121.569 48.7076 123.791 48.0605 124.793 47.5862C123.638 47.1412 122.39 46.5902 121.074 46.0067C116.952 44.1811 111.311 41.6806 108.27 42.8461L108.211 42.8673C108.151 42.8885 101.88 45.2145 102.453 48.0654C103.196 51.7509 114.27 70.4928 117.249 74.0641C121.385 79.0243 119.824 83.4074 112.855 86.4066C107.75 88.6039 95.5217 93.0848 92.8563 93.2021C92.0092 93.2413 91.4304 93.1418 90.6087 92.6675Z" fill="#9A3995"/>
<path d="M65.313 60.9466L63.4414 61.6655L64.6867 62.746L66.5584 62.0271L65.313 60.9466Z" fill="#25282B"/>
<path d="M63.4535 61.67L61.582 62.3892L62.8278 63.4696L64.6993 62.7504L63.4535 61.67Z" fill="white"/>
<path d="M61.5748 62.3831L59.7031 63.1021L60.9484 64.1825L62.8201 63.4636L61.5748 62.3831Z" fill="#25282B"/>
<path d="M59.7154 63.0985L57.8438 63.8174L59.0891 64.8979L60.9607 64.179L59.7154 63.0985Z" fill="white"/>
<path d="M55.9766 64.537L57.8457 63.8165L59.0909 64.8972L57.2189 65.6193L55.9766 64.537Z" fill="#25282B"/>
<path d="M55.9729 64.5372L54.1016 65.2563L55.3472 66.3367L57.2185 65.6175L55.9729 64.5372Z" fill="white"/>
<path d="M54.1132 65.2522L52.2422 65.9717L53.4885 67.0518L55.3595 66.3323L54.1132 65.2522Z" fill="#25282B"/>
<path d="M64.0585 59.8723L62.1875 60.5918L63.4338 61.6719L65.3048 60.9525L64.0585 59.8723Z" fill="white"/>
<path d="M62.1988 60.5873L60.3281 61.3071L61.575 62.3871L63.4457 61.6672L62.1988 60.5873Z" fill="#25282B"/>
<path d="M60.3279 61.3009L58.457 62.0205L59.7035 63.1005L61.5743 62.381L60.3279 61.3009Z" fill="white"/>
<path d="M58.4654 62.0169L56.5938 62.7358L57.8391 63.8163L59.7107 63.0974L58.4654 62.0169Z" fill="#25282B"/>
<path d="M56.5937 62.74L54.7227 63.4595L55.9689 64.5396L57.8399 63.8201L56.5937 62.74Z" fill="white"/>
<path d="M54.731 63.4539L52.8594 64.1729L54.1047 65.2534L55.9763 64.5344L54.731 63.4539Z" fill="#25282B"/>
<path d="M52.8668 64.1742L50.9961 64.894L52.243 65.974L54.1137 65.2541L52.8668 64.1742Z" fill="white"/>
<path d="M62.8163 58.7893L60.9453 59.5088L62.1916 60.5889L64.0626 59.8694L62.8163 58.7893Z" fill="#25282B"/>
<path d="M59.082 60.2254L60.9512 59.505L62.1992 60.5841L60.3244 61.3045L59.082 60.2254Z" fill="white"/>
<path d="M59.0784 60.2243L57.207 60.9434L58.4527 62.0237L60.324 61.3046L59.0784 60.2243Z" fill="#25282B"/>
<path d="M57.2307 60.9345L55.3594 61.6538L56.6053 62.7341L58.4767 62.0148L57.2307 60.9345Z" fill="white"/>
<path d="M55.3598 61.6617L53.4883 62.3809L54.7341 63.4613L56.6056 62.7421L55.3598 61.6617Z" fill="#25282B"/>
<path d="M53.4807 62.3746L51.6094 63.0938L52.855 64.1741L54.7263 63.455L53.4807 62.3746Z" fill="white"/>
<path d="M51.6246 63.0936L49.7539 63.8135L51.0008 64.8934L52.8715 64.1736L51.6246 63.0936Z" fill="#25282B"/>
</svg>
