<svg width="52" height="52" viewBox="0 0 52 52" fill="none" xmlns="http://www.w3.org/2000/svg">
<circle cx="26" cy="26" r="26" fill="#F7E9F6"/>
<path d="M34.2147 19.7888C34.2147 19.0226 33.9103 18.2878 33.3685 17.746C32.8268 17.2043 32.092 16.8999 31.3258 16.8999H19.7702C19.1886 16.9033 18.6215 17.0823 18.1433 17.4133C17.665 17.7443 17.2978 18.212 17.0897 18.7552C16.8816 19.2983 16.8423 19.8916 16.9769 20.4575C17.1115 21.0233 17.4139 21.5354 17.8443 21.9266V31.3443C17.8443 32.1105 18.1487 32.8453 18.6904 33.3871C19.2322 33.9289 19.967 34.2332 20.7332 34.2332H30.3628C31.129 34.2332 31.8638 33.9289 32.4056 33.3871C32.9473 32.8453 33.2517 32.1105 33.2517 31.3443V21.9266C33.5527 21.6573 33.794 21.328 33.9598 20.9598C34.1257 20.5915 34.2125 20.1926 34.2147 19.7888ZM19.7702 18.8258H31.3258C31.5812 18.8258 31.8261 18.9273 32.0067 19.1079C32.1873 19.2885 32.2887 19.5334 32.2887 19.7888C32.2887 20.0442 32.1873 20.2891 32.0067 20.4697C31.8261 20.6503 31.5812 20.7518 31.3258 20.7518H19.7702C19.5148 20.7518 19.2699 20.6503 19.0893 20.4697C18.9087 20.2891 18.8073 20.0442 18.8073 19.7888C18.8073 19.5334 18.9087 19.2885 19.0893 19.1079C19.2699 18.9273 19.5148 18.8258 19.7702 18.8258ZM31.3258 31.3443C31.3258 31.5997 31.2243 31.8447 31.0437 32.0253C30.8631 32.2059 30.6182 32.3073 30.3628 32.3073H20.7332C20.4778 32.3073 20.2329 32.2059 20.0523 32.0253C19.8717 31.8447 19.7702 31.5997 19.7702 31.3443V22.6777H31.3258V31.3443Z" fill="#9A3995"/>
<path d="M27.5963 25.5669H23.494C23.0313 25.5669 22.6562 25.942 22.6562 26.4047V26.655C22.6562 27.1177 23.0313 27.4928 23.494 27.4928H27.5963C28.0589 27.4928 28.434 27.1177 28.434 26.655V26.4047C28.434 25.942 28.0589 25.5669 27.5963 25.5669Z" fill="#9A3995"/>
</svg>
