<svg width="52" height="52" viewBox="0 0 52 52" fill="none" xmlns="http://www.w3.org/2000/svg">
<circle cx="26" cy="26" r="26" fill="#F7E9F6"/>
<path d="M26.2978 28.4993C26.6243 28.4993 26.9375 28.3696 27.1685 28.1387C27.3994 27.9078 27.5291 27.5946 27.5291 27.268C27.5291 26.9414 27.3994 26.6282 27.1685 26.3973C26.9375 26.1664 26.6243 26.0366 26.2978 26.0366C25.9712 26.0366 25.658 26.1664 25.4271 26.3973C25.1961 26.6282 25.0664 26.9414 25.0664 27.268C25.0664 27.5946 25.1961 27.9078 25.4271 28.1387C25.658 28.3696 25.9712 28.4993 26.2978 28.4993Z" fill="#9A3995"/>
<path d="M25.7262 35.231L25.3015 34.8085C24.2174 33.7312 23.1338 32.6535 22.0507 31.5752C21.2095 30.7339 20.6367 29.662 20.4046 28.4951C20.1725 27.3282 20.2917 26.1187 20.747 25.0195C21.2024 23.9204 21.9734 22.9809 22.9627 22.3199C23.9519 21.6589 25.1149 21.3062 26.3047 21.3062C27.4944 21.3062 28.6575 21.6589 29.6467 22.3199C30.636 22.9809 31.407 23.9204 31.8623 25.0195C32.3177 26.1187 32.4368 27.3282 32.2048 28.4951C31.9727 29.662 31.3999 30.7339 30.5586 31.5752C30.0727 32.0612 29.1532 32.9762 28.3564 33.7676L26.8832 35.231C26.7294 35.3837 26.5214 35.4694 26.3047 35.4694C26.0879 35.4694 25.88 35.3837 25.7262 35.231ZM23.2131 24.2286C22.393 25.0488 21.9322 26.1613 21.9322 27.3212C21.9322 28.4812 22.393 29.5936 23.2131 30.4139C23.7407 30.9415 24.6579 31.8543 25.4449 32.6358L26.3063 33.4917L27.1995 32.603C27.9974 31.8105 28.9146 30.8988 29.3995 30.4139C29.8056 30.0077 30.1278 29.5255 30.3476 28.9948C30.5673 28.4641 30.6804 27.8953 30.6804 27.3209C30.6803 26.7465 30.5671 26.1777 30.3473 25.647C30.1274 25.1164 29.8052 24.6342 29.399 24.2281C28.9928 23.8219 28.5105 23.4998 27.9798 23.28C27.4491 23.0602 26.8803 22.9472 26.3059 22.9472C25.7315 22.9473 25.1628 23.0604 24.6321 23.2803C24.1014 23.5002 23.6193 23.8224 23.2131 24.2286Z" fill="#9A3995"/>
<path d="M16.7484 17.3796C16.9225 17.2488 17.1415 17.1926 17.357 17.2233C17.5726 17.254 17.7672 17.3691 17.8979 17.5432C18.0287 17.7173 18.0849 17.9363 18.0542 18.1519C18.0235 18.3675 17.9084 18.562 17.7343 18.6928C13.1349 22.1436 11.7991 28.4943 14.6193 33.5051C14.6721 33.5991 14.706 33.7025 14.7189 33.8096C14.7318 33.9166 14.7235 34.0251 14.6944 34.129C14.6654 34.2328 14.6162 34.3299 14.5496 34.4147C14.483 34.4995 14.4004 34.5704 14.3064 34.6233C14.2125 34.6761 14.109 34.71 14.002 34.7229C13.8949 34.7358 13.7864 34.7275 13.6826 34.6984C13.5787 34.6694 13.4816 34.6202 13.3968 34.5536C13.312 34.487 13.2411 34.4044 13.1883 34.3104C9.96371 28.5794 11.4907 21.3238 16.7484 17.3796Z" fill="#9A3995"/>
<path d="M18.8087 20.5787C18.9797 20.4444 19.1971 20.3835 19.413 20.4093C19.6289 20.4351 19.8258 20.5455 19.9604 20.7163C20.0949 20.8871 20.1563 21.1043 20.1309 21.3203C20.1055 21.5363 19.9955 21.7333 19.8249 21.8682C18.4243 22.9767 17.4558 24.5405 17.0875 26.2883C16.7193 28.0361 16.9744 29.8577 17.8087 31.4371C17.9107 31.6294 17.9322 31.8544 17.8684 32.0626C17.8045 32.2708 17.6606 32.445 17.4683 32.5471C17.276 32.6492 17.051 32.6706 16.8428 32.6068C16.6346 32.543 16.4604 32.3991 16.3583 32.2067C15.3438 30.2876 15.0333 28.0738 15.481 25.9496C15.9286 23.8255 17.106 21.9252 18.8087 20.5787Z" fill="#9A3995"/>
<path d="M36.068 17.3796C35.8939 17.2488 35.675 17.1926 35.4594 17.2233C35.2438 17.254 35.0492 17.3691 34.9185 17.5432C34.7877 17.7173 34.7315 17.9363 34.7622 18.1519C34.7929 18.3675 34.908 18.562 35.0821 18.6928C39.6815 22.1436 41.0173 28.4943 38.1971 33.5051C38.1443 33.5991 38.1104 33.7025 38.0975 33.8096C38.0846 33.9166 38.0929 34.0251 38.122 34.129C38.151 34.2328 38.2002 34.3299 38.2668 34.4147C38.3334 34.4995 38.416 34.5704 38.51 34.6233C38.6039 34.6761 38.7074 34.71 38.8144 34.7229C38.9215 34.7358 39.03 34.7275 39.1338 34.6984C39.2377 34.6694 39.3348 34.6202 39.4196 34.5536C39.5044 34.487 39.5753 34.4044 39.6281 34.3104C42.8527 28.5794 41.3257 21.3238 36.068 17.3796Z" fill="#9A3995"/>
<path d="M34.0038 20.5787C33.8328 20.4444 33.6154 20.3835 33.3995 20.4093C33.1836 20.4351 32.9867 20.5455 32.8521 20.7163C32.7176 20.8871 32.6562 21.1043 32.6816 21.3203C32.707 21.5363 32.817 21.7333 32.9876 21.8682C34.3882 22.9767 35.3567 24.5405 35.725 26.2883C36.0932 28.0361 35.8381 29.8577 35.0038 31.4371C34.9018 31.6294 34.8803 31.8544 34.9441 32.0626C35.008 32.2708 35.1519 32.445 35.3442 32.5471C35.5365 32.6492 35.7615 32.6706 35.9697 32.6068C36.1779 32.543 36.3521 32.3991 36.4542 32.2067C37.4687 30.2876 37.7792 28.0738 37.3315 25.9496C36.8839 23.8255 35.7065 21.9252 34.0038 20.5787Z" fill="#9A3995"/>
</svg>
