<svg width="66" height="66" viewBox="0 0 66 66" fill="none" xmlns="http://www.w3.org/2000/svg">
<circle cx="33" cy="33" r="33" fill="#F7E9F6"/>
<path d="M8.32052 28.088H11.7645C12.2312 28.088 12.6838 28.1393 13.1225 28.242C13.5612 28.3353 13.9485 28.494 14.2845 28.718C14.6298 28.942 14.9052 29.236 15.1105 29.6C15.3158 29.964 15.4185 30.4073 15.4185 30.93C15.4185 31.6487 15.2132 32.2367 14.8025 32.694C14.4012 33.142 13.8505 33.4453 13.1505 33.604L15.7965 38H13.6685L11.3725 33.8H10.0845V38H8.32052V28.088ZM11.5265 32.358C11.7785 32.358 12.0305 32.3393 12.2825 32.302C12.5345 32.2647 12.7585 32.1947 12.9545 32.092C13.1598 31.9893 13.3278 31.8447 13.4585 31.658C13.5892 31.462 13.6545 31.2147 13.6545 30.916C13.6545 30.6453 13.5938 30.426 13.4725 30.258C13.3512 30.0807 13.1972 29.9407 13.0105 29.838C12.8238 29.7353 12.6092 29.6653 12.3665 29.628C12.1332 29.5907 11.9045 29.572 11.6805 29.572H10.0845V32.358H11.5265ZM21.6091 33.968C21.6091 33.7533 21.5765 33.548 21.5111 33.352C21.4551 33.156 21.3618 32.9833 21.2311 32.834C21.1005 32.6847 20.9325 32.568 20.7271 32.484C20.5311 32.3907 20.2978 32.344 20.0271 32.344C19.5231 32.344 19.0938 32.498 18.7391 32.806C18.3938 33.1047 18.2025 33.492 18.1651 33.968H21.6091ZM23.2891 34.724C23.2891 34.7987 23.2891 34.8733 23.2891 34.948C23.2891 35.0227 23.2845 35.0973 23.2751 35.172H18.1651C18.1838 35.4147 18.2445 35.6387 18.3471 35.844C18.4591 36.04 18.6038 36.2127 18.7811 36.362C18.9585 36.502 19.1591 36.614 19.3831 36.698C19.6071 36.782 19.8405 36.824 20.0831 36.824C20.5031 36.824 20.8578 36.7493 21.1471 36.6C21.4365 36.4413 21.6745 36.2267 21.8611 35.956L22.9811 36.852C22.3185 37.748 21.3571 38.196 20.0971 38.196C19.5745 38.196 19.0938 38.1167 18.6551 37.958C18.2165 37.79 17.8338 37.5567 17.5071 37.258C17.1898 36.9593 16.9378 36.5953 16.7511 36.166C16.5738 35.7273 16.4851 35.2327 16.4851 34.682C16.4851 34.1407 16.5738 33.6507 16.7511 33.212C16.9378 32.764 17.1898 32.386 17.5071 32.078C17.8245 31.7607 18.1978 31.518 18.6271 31.35C19.0658 31.1727 19.5371 31.084 20.0411 31.084C20.5078 31.084 20.9371 31.1633 21.3291 31.322C21.7305 31.4713 22.0758 31.7 22.3651 32.008C22.6545 32.3067 22.8785 32.6847 23.0371 33.142C23.2051 33.59 23.2891 34.1173 23.2891 34.724ZM28.5982 33.072C28.4489 32.876 28.2435 32.708 27.9822 32.568C27.7209 32.4187 27.4362 32.344 27.1282 32.344C26.8575 32.344 26.6102 32.4 26.3862 32.512C26.1622 32.624 26.0502 32.8107 26.0502 33.072C26.0502 33.3333 26.1715 33.52 26.4142 33.632C26.6662 33.7347 27.0302 33.842 27.5062 33.954C27.7582 34.01 28.0102 34.0847 28.2622 34.178C28.5235 34.2713 28.7569 34.3973 28.9622 34.556C29.1769 34.7053 29.3495 34.8967 29.4802 35.13C29.6109 35.354 29.6762 35.6293 29.6762 35.956C29.6762 36.3667 29.5969 36.7167 29.4382 37.006C29.2889 37.286 29.0835 37.5147 28.8222 37.692C28.5702 37.8693 28.2715 37.9953 27.9262 38.07C27.5902 38.154 27.2402 38.196 26.8762 38.196C26.3535 38.196 25.8449 38.1027 25.3502 37.916C24.8555 37.72 24.4449 37.4447 24.1182 37.09L25.2242 36.054C25.4109 36.2967 25.6535 36.4973 25.9522 36.656C26.2509 36.8147 26.5822 36.894 26.9462 36.894C27.0675 36.894 27.1889 36.88 27.3102 36.852C27.4409 36.824 27.5575 36.782 27.6602 36.726C27.7722 36.6607 27.8609 36.5767 27.9262 36.474C27.9915 36.3713 28.0242 36.2453 28.0242 36.096C28.0242 35.816 27.8935 35.6153 27.6322 35.494C27.3802 35.3727 26.9975 35.2513 26.4842 35.13C26.2322 35.074 25.9849 35.004 25.7422 34.92C25.5089 34.8267 25.2989 34.71 25.1122 34.57C24.9255 34.4207 24.7762 34.2387 24.6642 34.024C24.5522 33.8093 24.4962 33.5433 24.4962 33.226C24.4962 32.8527 24.5709 32.5307 24.7202 32.26C24.8789 31.9893 25.0842 31.77 25.3362 31.602C25.5882 31.4247 25.8729 31.294 26.1902 31.21C26.5075 31.126 26.8342 31.084 27.1702 31.084C27.6555 31.084 28.1269 31.168 28.5842 31.336C29.0509 31.504 29.4195 31.7607 29.6902 32.106L28.5982 33.072ZM37.2689 38H35.6729V36.922H35.6449C35.4956 37.258 35.2342 37.5567 34.8609 37.818C34.4969 38.07 34.0629 38.196 33.5589 38.196C33.1202 38.196 32.7422 38.1213 32.4249 37.972C32.1169 37.8133 31.8602 37.608 31.6549 37.356C31.4589 37.104 31.3142 36.8147 31.2209 36.488C31.1276 36.1613 31.0809 35.8253 31.0809 35.48V31.28H32.7609V35.004C32.7609 35.2 32.7749 35.4053 32.8029 35.62C32.8309 35.8347 32.8916 36.0307 32.9849 36.208C33.0782 36.376 33.2042 36.516 33.3629 36.628C33.5309 36.74 33.7502 36.796 34.0209 36.796C34.2822 36.796 34.5109 36.7447 34.7069 36.642C34.9122 36.53 35.0756 36.39 35.1969 36.222C35.3276 36.054 35.4256 35.8627 35.4909 35.648C35.5562 35.424 35.5889 35.2 35.5889 34.976V31.28H37.2689V38ZM47.3073 31.084C47.746 31.084 48.1193 31.1633 48.4273 31.322C48.7447 31.4713 49.0013 31.672 49.1973 31.924C49.4027 32.176 49.552 32.4653 49.6453 32.792C49.7387 33.1187 49.7853 33.4547 49.7853 33.8V38H48.1053V34.276C48.1053 34.08 48.0913 33.8747 48.0633 33.66C48.0353 33.4453 47.9747 33.254 47.8813 33.086C47.788 32.9087 47.6573 32.764 47.4893 32.652C47.3307 32.54 47.116 32.484 46.8453 32.484C46.584 32.484 46.36 32.54 46.1733 32.652C45.9867 32.764 45.8327 32.9087 45.7113 33.086C45.59 33.2633 45.5013 33.464 45.4453 33.688C45.3893 33.9027 45.3613 34.1173 45.3613 34.332V38H43.6813V33.94C43.6813 33.52 43.5787 33.1747 43.3733 32.904C43.1773 32.624 42.8647 32.484 42.4353 32.484C42.1833 32.484 41.964 32.54 41.7773 32.652C41.5907 32.7547 41.4367 32.89 41.3153 33.058C41.2033 33.226 41.1147 33.422 41.0493 33.646C40.9933 33.8607 40.9653 34.08 40.9653 34.304V38H39.2853V31.28H40.8813V32.358H40.9093C40.984 32.19 41.082 32.0313 41.2033 31.882C41.334 31.7327 41.4833 31.5973 41.6513 31.476C41.8287 31.3547 42.0293 31.2613 42.2533 31.196C42.4773 31.1213 42.7247 31.084 42.9953 31.084C43.518 31.084 43.952 31.2007 44.2973 31.434C44.6427 31.6673 44.9087 31.9753 45.0953 32.358C45.3193 31.9473 45.618 31.6347 45.9913 31.42C46.3647 31.196 46.8033 31.084 47.3073 31.084ZM56.4724 33.968C56.4724 33.7533 56.4398 33.548 56.3744 33.352C56.3184 33.156 56.2251 32.9833 56.0944 32.834C55.9638 32.6847 55.7958 32.568 55.5904 32.484C55.3944 32.3907 55.1611 32.344 54.8904 32.344C54.3864 32.344 53.9571 32.498 53.6024 32.806C53.2571 33.1047 53.0658 33.492 53.0284 33.968H56.4724ZM58.1524 34.724C58.1524 34.7987 58.1524 34.8733 58.1524 34.948C58.1524 35.0227 58.1478 35.0973 58.1384 35.172H53.0284C53.0471 35.4147 53.1078 35.6387 53.2104 35.844C53.3224 36.04 53.4671 36.2127 53.6444 36.362C53.8218 36.502 54.0224 36.614 54.2464 36.698C54.4704 36.782 54.7038 36.824 54.9464 36.824C55.3664 36.824 55.7211 36.7493 56.0104 36.6C56.2998 36.4413 56.5378 36.2267 56.7244 35.956L57.8444 36.852C57.1818 37.748 56.2204 38.196 54.9604 38.196C54.4378 38.196 53.9571 38.1167 53.5184 37.958C53.0798 37.79 52.6971 37.5567 52.3704 37.258C52.0531 36.9593 51.8011 36.5953 51.6144 36.166C51.4371 35.7273 51.3484 35.2327 51.3484 34.682C51.3484 34.1407 51.4371 33.6507 51.6144 33.212C51.8011 32.764 52.0531 32.386 52.3704 32.078C52.6878 31.7607 53.0611 31.518 53.4904 31.35C53.9291 31.1727 54.4004 31.084 54.9044 31.084C55.3711 31.084 55.8004 31.1633 56.1924 31.322C56.5938 31.4713 56.9391 31.7 57.2284 32.008C57.5178 32.3067 57.7418 32.6847 57.9004 33.142C58.0684 33.59 58.1524 34.1173 58.1524 34.724Z" fill="#9A3995"/>
</svg>
