<svg width="12" height="15" viewBox="0 0 12 15" fill="none" xmlns="http://www.w3.org/2000/svg">
<path fill-rule="evenodd" clip-rule="evenodd" d="M7.11519 1.31288C7.11519 2.03796 7.70299 2.62576 8.42807 2.62576C9.15315 2.62576 9.74095 2.03796 9.74095 1.31288C9.74095 0.587796 9.15315 0 8.42807 0C7.70299 0 7.11519 0.587796 7.11519 1.31288ZM3.82938 6.69422C3.52867 7.20766 1.73967 10.2493 0.175109 12.5845C-0.466894 13.4103 0.81575 14.3972 1.45694 13.5729C2.07336 12.7804 2.69007 11.6856 3.30683 10.5907C3.74123 9.81959 4.17565 9.0484 4.61003 8.38271C4.67322 8.53906 4.78707 8.68097 4.96793 8.78393C5.73632 9.22083 6.40883 9.8059 6.9792 10.4784C6.84258 11.0195 6.70587 11.5604 6.56917 12.1011C6.4783 12.4607 6.38743 12.8201 6.29661 13.1796C6.04085 14.1929 7.63455 14.4789 7.88814 13.4722C8.12729 12.5275 8.3659 11.5835 8.60477 10.6378C8.62575 10.555 8.63038 10.4787 8.6282 10.4051C8.68649 10.2082 8.6568 9.98431 8.48356 9.76668C7.86281 8.98631 7.15434 8.30999 6.34346 7.75079C6.71227 7.03388 7.09714 6.32678 7.49128 5.62403C8.142 6.52534 9.00027 7.21011 10.1952 7.55985C11.1455 7.83768 11.5487 6.35946 10.6024 6.08272C9.39359 5.72863 8.67314 4.88016 8.17141 3.79363C8.01398 3.03722 7.14426 2.51371 6.4023 2.71227C6.39342 2.71227 6.38491 2.71178 6.37642 2.71129C6.36303 2.71051 6.34969 2.70974 6.33502 2.71091C5.42485 2.78139 4.51468 2.8521 3.60429 2.92283L3.39057 2.93944C2.66205 2.99601 2.2447 3.99849 1.9254 4.76548C1.84035 4.96976 1.76226 5.15734 1.6871 5.30589C1.24176 6.18514 2.56308 6.96088 3.00951 6.07918C3.1264 5.8485 3.24315 5.61773 3.35991 5.38691C3.52013 5.0702 3.68038 4.75341 3.84109 4.43672C3.93325 4.42957 4.02548 4.42243 4.11775 4.41528C4.42992 4.39109 4.74256 4.36686 5.05455 4.34248C4.67322 5.02643 4.29951 5.71501 3.94215 6.41149C3.89257 6.50655 3.85662 6.60106 3.82938 6.69422Z" fill="#9A3995"/>
</svg>
