<svg width="40" height="48" viewBox="0 0 40 48" fill="none" xmlns="http://www.w3.org/2000/svg">
<path d="M25.2235 8.46166C24.9627 7.60753 24.6566 6.81457 24.4933 5.99442C24.3504 5.27623 24.2756 4.51952 24.3346 3.79453C24.5001 1.80534 26.6024 0.366687 28.2466 0.0789565C30.8932 -0.383225 33.3742 1.22534 34.0205 3.81265C34.7054 6.55402 32.9229 9.34071 30.147 9.81648C29.0154 10.0091 27.9041 9.80969 26.8224 9.44493C26.7113 9.40868 26.6001 9.37696 26.4278 9.40188C26.8337 9.95922 27.2215 10.5347 27.6524 11.0739C28.5142 12.1478 29.1583 13.3214 29.6368 14.6195C29.9384 15.4374 30.4078 16.2123 30.909 16.935C31.451 17.7166 32.0225 17.8231 32.9342 17.5127C32.9841 17.4946 33.0385 17.4878 33.0839 17.4629C33.9842 16.978 34.9685 16.8897 35.9663 16.8466C36.336 16.8308 36.7056 16.7696 37.0753 16.7651C38.2455 16.7515 39.105 17.5354 39.1436 18.7135C39.1572 19.1485 39.0551 19.6061 38.91 20.0207C38.7467 20.4897 38.368 20.7752 37.8668 20.9088C35.5037 21.5455 33.1361 22.1572 30.7004 22.4562C30.3579 22.4993 30.0155 22.5401 29.6731 22.5582C28.936 22.5967 28.3509 22.2886 27.9495 21.6859C27.5095 21.0266 27.1127 20.3379 26.6886 19.6673C25.981 18.5549 25.693 18.505 24.7564 19.4226C23.8765 20.2858 23.0169 21.1671 22.1892 22.0779C21.6109 22.7145 21.5247 23.4894 21.9873 24.2075C22.8106 25.4853 23.6814 26.7337 24.5704 27.9684C25.2508 28.9132 25.9765 29.8285 26.709 30.7347C27.9676 32.2935 27.1694 34.269 25.2984 34.7222C23.153 35.2387 20.9895 35.6805 18.835 36.1654C17.0548 36.5641 15.2859 37.0172 13.4988 37.3706C12.4375 37.5791 11.5054 37.1894 10.8023 36.3647C10.1764 35.6284 10.1855 34.7312 10.7683 33.9609C11.3376 33.211 12.1268 32.8621 13.0226 32.6741C14.8731 32.2844 16.7169 31.8698 18.5629 31.4642C18.6151 31.4529 18.6627 31.4303 18.7126 31.4144C19.3725 31.2128 19.4678 30.9182 18.9824 30.4402C18.3883 29.8534 17.7646 29.2961 17.1523 28.7319C15.6306 27.3295 14.102 25.9385 12.5917 24.527C12.0406 24.0104 11.6755 23.3693 11.5394 22.6103C11.3489 21.5432 11.68 20.5985 12.3218 19.7896C13.1019 18.8064 13.9252 17.8457 14.8073 16.9531C15.9912 15.7569 17.2475 14.6354 18.4722 13.4777C18.674 13.2874 18.8759 13.0925 19.055 12.8796C19.5131 12.3426 19.5131 11.8895 18.9824 11.4273C17.4335 10.077 15.6737 9.52875 13.6893 10.3059C12.4987 10.7726 11.3716 11.4001 10.1968 11.9144C9.46204 12.2361 8.71365 12.5737 7.93578 12.7414C6.35963 13.0835 5.00573 11.8963 5.08964 10.333C5.12819 9.63297 5.52053 9.11415 6.08976 8.79923C7.11709 8.23057 8.17617 7.70948 9.24886 7.23143C11.1085 6.40449 12.9999 5.64779 14.855 4.81178C15.6351 4.46061 16.3019 4.5739 17.0457 4.91374C19.5925 6.07599 22.1642 7.18386 24.7292 8.30986C24.8788 8.37103 25.0353 8.40275 25.2235 8.46166Z" fill="#9A3995"/>
<path d="M14.3828 45.3049C14.5393 44.9061 14.6413 44.4711 14.8636 44.1132C16.1517 42.0333 17.4603 39.9649 18.7802 37.9054C19.4106 36.9222 20.3903 36.494 21.5061 36.324C22.2114 36.2153 22.9213 36.1315 23.622 36.0023C23.9032 35.9502 24.1958 35.8505 24.4316 35.6965C24.8875 35.3974 25.2934 35.5583 25.6994 35.7554C26.0123 35.9072 26.0237 36.1926 25.8989 36.4713C25.8014 36.6865 25.6676 36.8882 25.5293 37.0808C23.2886 40.1982 21.0435 43.3089 18.8051 46.4286C18.372 47.0312 17.8685 47.5002 17.0838 47.575C15.832 47.6905 14.4622 46.5283 14.3828 45.3049Z" fill="#9A3995"/>
<path d="M7.56748 29.1644C5.68517 29.1644 3.80513 29.1735 1.92282 29.1553C1.5577 29.1531 1.18123 29.0896 0.834253 28.9764C0.276363 28.7951 -0.0252595 28.2763 0.0200974 27.7076C0.0654543 27.1412 0.371611 26.7651 0.963518 26.6292C1.26968 26.559 1.59171 26.534 1.90694 26.534C4.9141 26.5204 7.92127 26.5204 10.9284 26.5069C11.6337 26.5046 12.271 26.6926 12.7949 27.1593C13.2484 27.5626 13.6748 27.9999 14.0807 28.453C14.3914 28.7974 14.2984 29.0534 13.8426 29.0851C13.0511 29.1395 12.2574 29.1485 11.4636 29.1553C10.1664 29.1667 8.86696 29.1576 7.56748 29.1576C7.56748 29.1621 7.56748 29.1621 7.56748 29.1644Z" fill="#9A3995"/>
<path d="M12.8117 16.1985C11.9703 17.8592 9.91337 18.9648 8.05147 18.8878C6.10793 18.8085 4.16213 18.8153 2.21632 18.7723C1.81038 18.7632 1.38856 18.7473 1.00076 18.6386C0.263713 18.4302 -0.0832655 17.7641 0.0913581 17.0187C0.200214 16.5497 0.653783 16.2325 1.32506 16.2098C2.06665 16.1849 2.80823 16.194 3.54981 16.194C6.4912 16.194 9.43259 16.1963 12.374 16.1985C12.5055 16.2008 12.637 16.1985 12.8117 16.1985Z" fill="#9A3995"/>
<path d="M5.06874 23.7545C3.84864 23.7545 2.62854 23.7545 1.40844 23.7545C0.898175 23.7545 0.474088 23.5869 0.206483 23.1269C-0.262961 22.3249 0.0930896 21.4867 1.02064 21.3847C2.27022 21.2465 3.52661 21.1491 4.78299 21.1355C5.91918 21.1219 7.0599 21.2261 8.19382 21.3099C9.16446 21.3824 9.82894 22.6602 9.32774 23.4985C9.2393 23.648 8.96035 23.7545 8.76759 23.759C7.53388 23.7817 6.30244 23.7704 5.06874 23.7704C5.06874 23.7658 5.06874 23.759 5.06874 23.7545Z" fill="#9A3995"/>
</svg>
