<svg width="47" height="47" viewBox="0 0 47 47" fill="none" xmlns="http://www.w3.org/2000/svg">
<circle cx="23.5" cy="23.5" r="23.5" fill="#FFE2DF"/>
<path d="M25.7469 15.9413C25.6254 15.5434 25.4828 15.1741 25.4067 14.7921C25.3402 14.4576 25.3053 14.1051 25.3328 13.7674C25.4099 12.8409 26.3891 12.1708 27.155 12.0368C28.3877 11.8215 29.5433 12.5707 29.8443 13.7759C30.1633 15.0527 29.3331 16.3507 28.0401 16.5723C27.513 16.662 26.9955 16.5692 26.4916 16.3993C26.4398 16.3824 26.3881 16.3676 26.3078 16.3792C26.4969 16.6388 26.6775 16.9068 26.8782 17.158C27.2796 17.6582 27.5796 18.2048 27.8025 18.8095C27.943 19.1904 28.1616 19.5513 28.3951 19.888C28.6475 20.252 28.9137 20.3016 29.3384 20.1571C29.3616 20.1486 29.3869 20.1455 29.4081 20.1339C29.8274 19.908 30.2859 19.8669 30.7506 19.8468C30.9228 19.8394 31.095 19.8109 31.2672 19.8088C31.8122 19.8025 32.2126 20.1676 32.2305 20.7164C32.2369 20.919 32.1894 21.1321 32.1217 21.3253C32.0457 21.5437 31.8693 21.6767 31.6358 21.7389C30.5352 22.0354 29.4324 22.3204 28.2979 22.4597C28.1384 22.4797 27.9789 22.4987 27.8194 22.5071C27.4761 22.5251 27.2035 22.3816 27.0166 22.1009C26.8117 21.7938 26.6268 21.473 26.4293 21.1606C26.0997 20.6425 25.9655 20.6193 25.5293 21.0467C25.1194 21.4487 24.7191 21.8592 24.3335 22.2834C24.0642 22.58 24.024 22.9409 24.2395 23.2754C24.623 23.8706 25.0286 24.452 25.4427 25.0271C25.7596 25.4672 26.0976 25.8935 26.4388 26.3156C27.025 27.0416 26.6532 27.9618 25.7817 28.1729C24.7825 28.4135 23.7747 28.6193 22.7712 28.8451C21.942 29.0308 21.1181 29.2419 20.2857 29.4065C19.7914 29.5036 19.3572 29.3221 19.0298 28.938C18.7382 28.595 18.7425 28.1771 19.0139 27.8183C19.2791 27.469 19.6467 27.3065 20.0639 27.2189C20.9259 27.0374 21.7846 26.8443 22.6445 26.6554C22.6688 26.6501 22.691 26.6396 22.7142 26.6322C23.0216 26.5383 23.066 26.4011 22.8399 26.1784C22.5631 25.9051 22.2727 25.6455 21.9875 25.3828C21.2787 24.7295 20.5667 24.0816 19.8632 23.4242C19.6065 23.1836 19.4365 22.8849 19.3731 22.5314C19.2843 22.0344 19.4386 21.5943 19.7375 21.2176C20.1009 20.7596 20.4843 20.3122 20.8952 19.8964C21.4466 19.3392 22.0318 18.8169 22.6022 18.2776C22.6962 18.189 22.7903 18.0982 22.8737 17.999C23.0871 17.7489 23.0871 17.5379 22.8399 17.3226C22.1184 16.6937 21.2987 16.4383 20.3745 16.8003C19.8199 17.0176 19.2949 17.31 18.7477 17.5495C18.4055 17.6993 18.0569 17.8566 17.6946 17.9347C16.9604 18.094 16.3298 17.5411 16.3689 16.8129C16.3869 16.4868 16.5696 16.2452 16.8347 16.0985C17.3133 15.8336 17.8066 15.5909 18.3062 15.3683C19.1724 14.9831 20.0533 14.6306 20.9174 14.2412C21.2808 14.0777 21.5913 14.1304 21.9378 14.2887C23.1241 14.8301 24.3219 15.3461 25.5166 15.8706C25.5863 15.8991 25.6592 15.9138 25.7469 15.9413Z" fill="#FF9B90"/>
<path d="M20.6992 33.1022C20.7721 32.9164 20.8196 32.7138 20.9232 32.5471C21.5231 31.5783 22.1326 30.6149 22.7474 29.6557C23.0411 29.1977 23.4974 28.9982 24.0171 28.9191C24.3456 28.8684 24.6763 28.8294 25.0027 28.7692C25.1336 28.745 25.2699 28.6985 25.3798 28.6268C25.5921 28.4875 25.7812 28.5624 25.9702 28.6542C26.116 28.7249 26.1213 28.8579 26.0632 28.9877C26.0178 29.0879 25.9555 29.1818 25.891 29.2715C24.8474 30.7236 23.8016 32.1725 22.759 33.6256C22.5573 33.9063 22.3228 34.1247 21.9573 34.1595C21.3742 34.2134 20.7362 33.672 20.6992 33.1022Z" fill="#FF9B90"/>
<path d="M17.5253 25.584C16.6486 25.584 15.7729 25.5883 14.8961 25.5798C14.7261 25.5788 14.5507 25.5492 14.3891 25.4964C14.1293 25.412 13.9888 25.1704 14.0099 24.9055C14.031 24.6417 14.1736 24.4665 14.4493 24.4032C14.5919 24.3705 14.7419 24.3589 14.8888 24.3589C16.2894 24.3525 17.6901 24.3525 19.0908 24.3462C19.4193 24.3451 19.7161 24.4327 19.9601 24.6501C20.1714 24.838 20.37 25.0416 20.5591 25.2527C20.7038 25.4131 20.6605 25.5323 20.4481 25.5471C20.0795 25.5724 19.7098 25.5766 19.3401 25.5798C18.7359 25.5851 18.1306 25.5809 17.5253 25.5809C17.5253 25.583 17.5253 25.583 17.5253 25.584Z" fill="#FF9B90"/>
<path d="M19.969 19.5449C19.5771 20.3184 18.6191 20.8333 17.7518 20.7975C16.8466 20.7605 15.9402 20.7637 15.0339 20.7436C14.8448 20.7394 14.6484 20.732 14.4677 20.6814C14.1244 20.5843 13.9628 20.2741 14.0442 19.9269C14.0949 19.7084 14.3061 19.5607 14.6188 19.5501C14.9642 19.5385 15.3096 19.5427 15.655 19.5427C17.0251 19.5427 18.3951 19.5438 19.7652 19.5449C19.8264 19.5459 19.8877 19.5449 19.969 19.5449Z" fill="#FF9B90"/>
<path d="M16.3609 23.0642C15.7926 23.0642 15.2243 23.0642 14.656 23.0642C14.4184 23.0642 14.2208 22.9861 14.0962 22.7719C13.8775 22.3983 14.0434 22.0079 14.4754 21.9604C15.0574 21.896 15.6426 21.8506 16.2278 21.8443C16.757 21.838 17.2884 21.8865 17.8165 21.9256C18.2686 21.9593 18.5781 22.5545 18.3447 22.945C18.3035 23.0146 18.1736 23.0642 18.0838 23.0663C17.5091 23.0769 16.9356 23.0716 16.3609 23.0716C16.3609 23.0695 16.3609 23.0663 16.3609 23.0642Z" fill="#FF9B90"/>
</svg>
