<svg width="13" height="22" viewBox="0 0 13 22" fill="none" xmlns="http://www.w3.org/2000/svg">
<path d="M8.95889 1.6763L8.57422 4.35059L11.1235 4.76645L11.5082 2.09216L8.95889 1.6763Z" fill="#25282B"/>
<path d="M8.58727 4.34793L8.20312 7.02246L10.7526 7.43778L11.1368 4.76325L8.58727 4.34793Z" fill="white"/>
<path d="M8.19326 7.01688L7.80859 9.69116L10.3579 10.107L10.7425 7.43275L8.19326 7.01688Z" fill="#25282B"/>
<path d="M7.81045 9.67825L7.42578 12.3525L9.97505 12.7684L10.3597 10.0941L7.81045 9.67825Z" fill="white"/>
<path d="M7.04451 15.0213L7.425 12.3471L9.97444 12.7634L9.59416 15.4424L7.04451 15.0213Z" fill="#25282B"/>
<path d="M7.04431 15.0269L6.66016 17.7012L9.20938 18.1165L9.59354 15.4422L7.04431 15.0269Z" fill="white"/>
<path d="M6.66462 17.6849L6.28125 20.3594L8.8307 20.7739L9.21407 18.0994L6.66462 17.6849Z" fill="#25282B"/>
<path d="M6.41071 1.27717L6.02734 3.95166L8.5768 4.36616L8.96017 1.69167L6.41071 1.27717Z" fill="white"/>
<path d="M6.03102 3.93587L5.64844 6.6106L8.19812 7.02428L8.5807 4.34955L6.03102 3.93587Z" fill="#25282B"/>
<path d="M5.63702 6.60212L5.25391 9.27661L7.80335 9.69084L8.18647 7.01636L5.63702 6.60212Z" fill="white"/>
<path d="M5.25576 9.26565L4.87109 11.9399L7.42036 12.3558L7.80503 9.68152L5.25576 9.26565Z" fill="#25282B"/>
<path d="M4.87556 11.9444L4.49219 14.6189L7.04165 15.0334L7.42502 12.3589L4.87556 11.9444Z" fill="white"/>
<path d="M4.49405 14.6018L4.10938 17.2761L6.65864 17.692L7.04331 15.0177L4.49405 14.6018Z" fill="#25282B"/>
<path d="M4.11696 17.2718L3.73438 19.9465L6.28405 20.3602L6.66664 17.6855L4.11696 17.2718Z" fill="white"/>
<path d="M3.85993 0.856505L3.47656 3.53101L6.02602 3.94551L6.40939 1.27101L3.85993 0.856505Z" fill="#25282B"/>
<path d="M3.09529 6.19493L3.47579 3.52067L6.02501 3.93216L5.64016 6.61143L3.09529 6.19493Z" fill="white"/>
<path d="M3.09119 6.19512L2.70703 8.86938L5.25627 9.28471L5.64043 6.61044L3.09119 6.19512Z" fill="#25282B"/>
<path d="M2.71201 8.8372L2.32812 11.5117L4.87761 11.9268L5.26149 9.25225L2.71201 8.8372Z" fill="white"/>
<path d="M2.34117 11.521L1.95703 14.1956L4.50651 14.6109L4.89066 11.9363L2.34117 11.521Z" fill="#25282B"/>
<path d="M1.94275 14.1939L1.55859 16.8682L4.10782 17.2835L4.49198 14.6092L1.94275 14.1939Z" fill="white"/>
<path d="M1.57009 16.8531L1.1875 19.5278L3.73718 19.9415L4.11977 17.2668L1.57009 16.8531Z" fill="#25282B"/>
</svg>
