<svg width="142" height="142" viewBox="0 0 142 142" fill="none" xmlns="http://www.w3.org/2000/svg">
<circle cx="71" cy="71" r="71" fill="#9A3995"/>
<path d="M55.8711 70.0481C57.5095 70.0481 58.9755 68.8408 59.0618 67.1161C59.148 65.3052 57.7682 63.8392 55.9573 63.8392H49.7484C49.7484 63.8392 43.8844 59.0963 43.2808 58.6651C42.7634 58.2339 41.8148 57.8027 40.78 57.8027H34.8298C32.6739 57.8027 30.9492 59.5274 30.9492 61.6833V75.5671C30.9492 77.9817 31.6391 80.3963 32.8464 82.4659C34.2261 84.7942 34.916 87.4675 34.7436 90.1408L34.2261 100.317C34.1399 102.386 35.7784 104.197 37.848 104.197C39.7452 104.197 41.2974 102.731 41.4699 100.92L44.6606 67.7197L46.644 69.3582C47.1614 69.7894 47.8512 70.0481 48.6274 70.0481H55.8711Z" fill="white"/>
<path d="M37.9336 55.9056C41.6961 55.9056 44.7462 52.8555 44.7462 49.0931C44.7462 45.3306 41.6961 42.2805 37.9336 42.2805C34.1712 42.2805 31.1211 45.3306 31.1211 49.0931C31.1211 52.8555 34.1712 55.9056 37.9336 55.9056Z" fill="white"/>
<path d="M111.577 37.9683C108.214 37.3647 105.368 38.3995 102.781 39.3481C100.021 40.3829 97.7791 41.2453 95.1921 40.038V38.3995C95.1921 37.4509 94.5022 36.5023 93.4674 36.4161C92.3463 36.3299 91.3977 37.1922 91.3977 38.3133V76.3428H80.1872C79.4973 76.3428 78.8937 76.9465 78.8937 77.6363V84.7938H64.4062C63.7164 84.7938 63.1127 85.3975 63.1127 86.0874V93.2448H48.7115C48.0216 93.2448 47.418 93.8485 47.418 94.5384V102.989C47.418 103.679 48.0216 104.283 48.7115 104.283H106.489C107.179 104.283 107.782 103.679 107.782 102.989V77.5501C107.782 76.8602 107.179 76.2566 106.489 76.2566H95.1921V56.5088C96.0544 56.7675 96.9168 56.8538 97.6929 56.8538C99.935 56.8538 101.918 56.0776 103.902 55.3878C106.23 54.5254 108.472 53.6631 110.973 54.1805C112.008 54.3529 112.87 53.5768 112.87 52.6282V39.5206C112.87 38.7444 112.353 38.0546 111.577 37.9683Z" fill="white"/>
</svg>
