<svg width="375" height="304" viewBox="0 0 375 304" fill="none" xmlns="http://www.w3.org/2000/svg">
<path d="M71.1285 170.39C58.9139 163.903 57.5016 155.043 67.3477 146.694C73.6155 141.382 80.6043 136.898 86.7829 132.938C91.847 129.693 97.5865 126.011 98.6975 124.258C98.7863 124.119 98.5994 123.254 96.0436 121.899C94.8135 121.248 93.4502 120.692 92.2497 120.197C91.2635 119.794 90.4124 119.45 89.7113 119.077L89.5584 118.991C86.3727 117.222 81.1674 109.697 85.9498 103.758C88.5533 100.527 93.4604 98.3304 99.082 97.8764C108.36 97.1309 197.767 94.0108 222.4 97.3525C247.141 100.713 318.684 134.37 326.996 138.781C327.23 138.906 327.433 139.016 327.605 139.113C329.738 140.307 334.741 143.102 328.416 163.252C328.358 163.427 322.824 180.929 317.996 185.479C313.272 189.927 283.866 205.302 278.417 206.628C273.644 207.791 270.69 206.223 269.718 205.709C265.155 203.288 241.325 184.335 244.358 175.352C245.112 173.124 247.197 171.143 250.242 169.776C252.955 168.558 256.525 167.14 260.662 165.495C268.055 162.564 279.224 158.129 283.165 155.377C283.685 155.012 285.071 154.046 283.203 153.055C282.609 152.739 281.493 152.36 279.533 152.333C275.673 152.278 262.809 155.405 255.121 157.266C240.623 160.783 234.621 162.24 230.427 160.445C230.164 160.334 229.86 160.19 229.519 160.009C229.299 159.893 208.19 147.742 219.161 138.551C221.135 136.894 224.022 135.172 227.083 133.346C227.898 132.861 228.971 132.217 230.05 131.554C229.199 131.417 228.329 131.276 227.448 131.131C221.822 130.207 210.116 128.29 207.153 130.411L206.978 130.532C204.781 132.062 198.75 137.154 200.193 140.13C202.895 145.687 231.042 174.126 238.577 179.519C249.32 187.211 248.384 197.144 236.007 206.767C229.917 211.505 207.884 227.302 201.302 229.331C196.331 230.866 193.785 229.738 187.638 227.021C184.313 225.553 179.576 223.362 173.545 220.508C163.451 215.731 149.568 209.018 132.275 200.557C103.973 186.706 75.6016 172.591 73.2334 171.413C72.8473 171.247 72.0941 170.902 71.1285 170.39ZM108.646 113.228C116.801 117.558 116.042 122.357 113.969 125.619C111.174 130.015 104.618 134.22 97.0219 139.088C91.4027 142.689 85.0343 146.776 79.77 151.239C74.4883 155.719 79.9819 159.73 83.7251 161.718C84.5011 162.129 85.0324 162.352 85.0281 162.356L85.404 162.525C123.554 181.522 183.851 211.166 200.239 218.345C206.041 214.713 216.451 207.737 224.194 201.718C228.774 198.159 232.984 193.323 224.828 187.486C217.755 182.422 187.792 152.985 184.141 145.474C180.557 138.117 189.915 129.059 196.074 124.816C207.838 116.477 223.806 119.094 235.479 121.008C238.007 121.422 240.394 121.812 242.315 122.025C244.482 122.262 246.177 122.714 247.486 123.413C249.581 124.526 250.527 126.218 250.143 128.171C249.319 132.346 242.897 136.183 236.676 139.896C235.4 140.659 233.803 141.611 232.671 142.342C233.425 144.467 237.619 148.436 240.741 150.526C243.713 149.947 249.005 148.665 253.099 147.669C267.171 144.254 277.649 141.846 284.347 141.935C288.918 141.999 292.865 142.847 295.775 144.393C302.959 148.209 302.238 155.372 294.088 161.06C287.871 165.397 276.515 169.905 266.494 173.881C264.575 174.641 262.716 175.379 261.068 176.049C263.294 180.759 273.512 190.825 279.65 195.325C287.379 191.53 301.434 184.052 304.736 181.626C308.562 176.319 317.162 151.738 314.463 147.509C314.432 147.495 314.406 147.477 314.375 147.463C304.293 142.105 235.419 110.364 214.863 107.573C195.35 104.922 121.748 106.918 100.963 107.953C101.336 108.946 101.93 109.978 102.482 110.507C102.777 110.637 103.312 110.856 103.732 111.026C105.073 111.56 106.893 112.302 108.646 113.228Z" stroke="white" stroke-width="1.6811" stroke-miterlimit="10"/>
<path d="M193.697 229.925C193.176 229.781 192.623 229.601 192.016 229.379L192.827 228.691C193.921 229.091 194.819 229.344 195.674 229.492L195.068 230.237C194.623 230.158 194.178 230.057 193.697 229.925ZM189.321 228.286C188.715 228.026 188.069 227.739 187.381 227.434L186.723 227.144L187.594 226.477L188.252 226.768C188.94 227.073 189.579 227.352 190.181 227.617L189.321 228.286ZM198.848 230.275L198.893 229.528C199.596 229.427 200.338 229.249 201.165 228.997C201.472 228.901 201.83 228.77 202.237 228.599L202.704 229.203C202.229 229.405 201.811 229.557 201.433 229.671C200.502 229.961 199.656 230.159 198.848 230.275ZM184.148 225.986C183.346 225.623 182.498 225.23 181.59 224.811L182.478 224.149C183.381 224.567 184.233 224.955 185.035 225.318L184.148 225.986ZM179.042 223.633C178.231 223.256 177.382 222.858 176.503 222.446L177.393 221.791C178.273 222.203 179.116 222.599 179.926 222.976L179.042 223.633ZM173.978 221.253L171.453 220.06L172.344 219.404L174.868 220.598L173.978 221.253ZM168.937 218.858L166.421 217.656L167.318 217.002L169.834 218.204L168.937 218.858ZM163.911 216.456L161.4 215.25L162.296 214.596L164.802 215.801L163.911 216.456ZM206.045 227.551L205.399 227.035C206.308 226.537 207.331 225.951 208.438 225.29L209.15 225.77C208.019 226.441 206.979 227.045 206.045 227.551ZM158.894 214.046L156.392 212.837L157.295 212.185L159.796 213.393L158.894 214.046ZM153.885 211.627L151.388 210.414L152.29 209.761L154.787 210.974L153.885 211.627ZM148.891 209.201L146.394 207.988L147.296 207.336L149.793 208.549L148.891 209.201ZM143.897 206.775L141.404 205.558L142.306 204.905L144.799 206.123L143.897 206.775ZM138.907 204.345L136.414 203.128L137.316 202.475L139.809 203.692L138.907 204.345ZM212.132 223.933L211.386 223.47C212.336 222.875 213.305 222.252 214.287 221.61L215.056 222.057C214.06 222.706 213.086 223.333 212.132 223.933ZM133.926 201.906L131.433 200.689L132.335 200.037L134.828 201.254L133.926 201.906ZM128.938 199.466L126.444 198.243L127.352 197.592L129.846 198.815L128.938 199.466ZM198.017 217.877C197.229 217.523 196.365 217.132 195.445 216.709L196.327 216.046C197.248 216.469 198.106 216.859 198.894 217.213L198.017 217.877ZM123.95 197.02L121.461 195.798L122.369 195.147L124.858 196.369L123.95 197.02ZM201.518 218.013L200.768 217.555C201.65 216.995 202.624 216.368 203.662 215.693L204.431 216.14C203.389 216.819 202.409 217.445 201.518 218.013ZM192.881 215.532C192.07 215.156 191.221 214.758 190.336 214.344L191.226 213.689C192.112 214.102 192.955 214.499 193.765 214.875L192.881 215.532ZM118.973 194.577L116.484 193.355L117.392 192.704L119.881 193.926L118.973 194.577ZM187.807 213.155C186.989 212.772 186.144 212.369 185.276 211.961L186.167 211.305C187.035 211.714 187.873 212.114 188.697 212.5L187.807 213.155ZM114 192.129L111.516 190.904L112.424 190.253L114.908 191.479L114 192.129ZM182.754 210.757L180.238 209.555L181.135 208.902L183.651 210.103L182.754 210.757ZM217.925 220.162L217.143 219.728C218.083 219.097 219.028 218.461 219.965 217.819L220.761 218.246C219.812 218.885 218.865 219.531 217.925 220.162ZM109.028 189.682L106.544 188.456L107.452 187.806L109.936 189.031L109.028 189.682ZM177.722 208.354L175.211 207.148L176.107 206.494L178.619 207.7L177.722 208.354ZM104.065 187.232L101.581 186.006L102.489 185.356L104.973 186.581L104.065 187.232ZM172.699 205.942L170.192 204.731L171.088 204.077L173.595 205.288L172.699 205.942ZM99.0972 184.781L96.613 183.555L97.521 182.904L100.005 184.13L99.0972 184.781ZM167.685 203.521L165.177 202.311L166.079 201.658L168.587 202.869L167.685 203.521ZM207.306 214.246L206.528 213.807C207.447 213.198 208.391 212.563 209.358 211.906L210.144 212.336C209.178 212.993 208.225 213.636 207.306 214.246ZM94.1333 182.325L91.6535 181.095L92.5614 180.444L95.0412 181.674L94.1333 182.325ZM162.68 201.098L160.177 199.883L161.079 199.231L163.576 200.444L162.68 201.098ZM89.1752 179.871L86.6954 178.641L87.6034 177.99L90.0831 179.22L89.1752 179.871ZM157.674 198.669L155.177 197.456L156.079 196.803L158.576 198.016L157.674 198.669ZM223.56 216.309L222.755 215.89C223.695 215.237 224.619 214.586 225.52 213.949L226.339 214.361C225.434 215.002 224.504 215.652 223.56 216.309ZM84.2156 177.411L81.7358 176.181L82.6438 175.53L85.1236 176.76L84.2156 177.411ZM152.684 196.238L150.192 195.021L151.094 194.369L153.586 195.586L152.684 196.238ZM79.2561 174.951L76.7763 173.721L77.6842 173.07L80.164 174.3L79.2561 174.951ZM147.693 193.802L145.2 192.585L146.102 191.933L148.595 193.15L147.693 193.802ZM142.707 191.368L140.219 190.146L141.121 189.494L143.609 190.716L142.707 191.368ZM74.3008 172.486L72.7833 171.735C72.5807 171.646 72.2356 171.491 71.795 171.282L72.6971 170.63C73.126 170.835 73.4593 170.987 73.6736 171.079L75.2103 171.842L74.3008 172.486ZM212.956 210.408L212.155 209.985C213.072 209.348 213.997 208.702 214.921 208.05L215.735 208.46C214.808 209.122 213.879 209.772 212.956 210.408ZM70.6666 170.709C69.8466 170.275 69.0583 169.817 68.3241 169.358L69.3027 168.749C70.0178 169.197 70.7869 169.644 71.5894 170.073L70.6666 170.709ZM137.725 188.923L135.236 187.702L136.144 187.051L138.633 188.273L137.725 188.923ZM132.748 186.48L130.252 185.251L131.16 184.601L133.656 185.83L132.748 186.48ZM66.1918 167.874C65.5109 167.348 64.8691 166.805 64.296 166.254L65.3762 165.722C65.9346 166.258 66.5513 166.788 67.2175 167.3L66.1918 167.874ZM229.084 212.404L228.259 211.996C229.212 211.309 230.123 210.648 230.968 210.029L231.801 210.428C230.956 211.047 230.041 211.712 229.084 212.404ZM127.763 184.03L125.279 182.804L126.187 182.153L128.671 183.379L127.763 184.03ZM122.785 181.581L120.307 180.357L121.215 179.706L123.693 180.93L122.785 181.581ZM62.6976 164.48C62.2083 163.854 61.7902 163.209 61.4422 162.561L62.6203 162.154C62.9461 162.779 63.358 163.401 63.8311 164.007L62.6976 164.48ZM117.83 179.139L115.346 177.913L116.254 177.262L118.738 178.488L117.83 179.139ZM218.475 206.507L217.647 206.104C218.553 205.447 219.454 204.789 220.338 204.132L221.185 204.524C220.301 205.181 219.396 205.843 218.475 206.507ZM112.862 176.687L110.378 175.461L111.286 174.811L113.77 176.036L112.862 176.687ZM107.898 174.231L105.418 173.001L106.326 172.351L108.806 173.581L107.898 174.231ZM60.6057 160.496C60.4014 159.773 60.2802 159.035 60.251 158.295L61.4765 158.071C61.5024 158.777 61.6203 159.481 61.8169 160.174L60.6057 160.496ZM234.498 208.435L233.647 208.048C234.398 207.485 235.042 206.991 235.572 206.58C235.797 206.402 236.023 206.223 236.249 206.045L237.136 206.405C236.906 206.587 236.672 206.774 236.442 206.956C235.902 207.37 235.254 207.868 234.498 208.435ZM102.94 171.777L100.46 170.547L101.368 169.896L103.848 171.126L102.94 171.777ZM97.9758 169.321L95.4961 168.091L96.404 167.441L98.8838 168.671L97.9758 169.321ZM93.0221 166.863L90.5423 165.633L91.4503 164.982L93.9301 166.212L93.0221 166.863ZM223.841 202.52L222.977 202.145L223.77 201.534C224.408 201.038 224.957 200.578 225.456 200.131L226.406 200.436C225.881 200.909 225.31 201.39 224.645 201.906L223.841 202.52ZM88.0669 164.399L85.5871 163.169L86.495 162.518L88.9748 163.748L88.0669 164.399ZM60.4338 155.986C60.5895 155.204 60.8459 154.412 61.1856 153.627L62.3613 153.629C62.0328 154.374 61.7935 155.127 61.6489 155.868L60.4338 155.986ZM83.0869 161.944C82.2505 161.489 81.4753 161.019 80.7964 160.542L81.8014 159.951C82.4597 160.411 83.2041 160.868 84.0155 161.31L83.0869 161.944ZM239.581 204.277L238.618 203.984C238.831 203.781 239.045 203.578 239.249 203.377C239.768 202.865 240.254 202.35 240.706 201.846L241.746 202.062C241.284 202.584 240.775 203.116 240.239 203.651C240.023 203.864 239.805 204.071 239.581 204.277ZM78.848 158.929C78.2272 158.299 77.7566 157.661 77.441 157.034L78.6222 156.638C78.9154 157.222 79.3533 157.818 79.9372 158.41L78.848 158.929ZM227.423 198.008C227.976 197.27 228.372 196.533 228.599 195.815L229.797 195.757C229.545 196.545 229.118 197.35 228.513 198.161L227.423 198.008ZM62.5041 151.27C63.028 150.503 63.6381 149.732 64.333 148.973L65.3609 149.202C64.7007 149.926 64.1135 150.66 63.6184 151.392L62.5041 151.27ZM76.9938 154.791C77.0774 153.962 77.44 153.139 78.0745 152.337L79.1486 152.513C78.6047 153.204 78.289 153.914 78.2142 154.631L76.9938 154.791ZM242.461 199.643C242.985 198.897 243.452 198.141 243.835 197.395L244.993 197.436C244.591 198.21 244.111 199 243.561 199.772L242.461 199.643ZM271.659 207.002C271.084 206.843 270.543 206.645 270 206.397L270.883 205.734C271.765 206.135 272.673 206.402 273.64 206.543L273.073 207.293C272.593 207.226 272.116 207.128 271.659 207.002ZM267.629 205.022C267.008 204.599 266.301 204.099 265.528 203.53L266.552 202.95C267.314 203.515 268.015 204.014 268.629 204.429L267.629 205.022ZM276.848 207.291L276.915 206.545C277.377 206.481 277.86 206.391 278.34 206.272C278.786 206.165 279.43 205.944 280.279 205.611L280.701 206.229C279.754 206.602 279.028 206.844 278.49 206.974C277.933 207.11 277.383 207.215 276.848 207.291ZM228.808 193.671C228.725 193.015 228.496 192.346 228.135 191.689L229.306 191.274C229.695 191.977 229.931 192.698 230.029 193.407L228.808 193.671ZM263.516 201.987C262.888 201.497 262.235 200.973 261.562 200.416L262.613 199.854C263.284 200.405 263.931 200.927 264.553 201.416L263.516 201.987ZM67.5295 147.102L66.6012 146.775C66.6995 146.693 66.792 146.609 66.8946 146.523C67.6031 145.921 68.3523 145.308 69.1176 144.695L70.0054 145.054C69.2488 145.659 68.5141 146.265 67.8143 146.858L67.5295 147.102ZM81.35 150.477L80.4535 150.126C81.2708 149.461 82.1476 148.774 83.0566 148.085L83.9125 148.469C83.0123 149.149 82.1543 149.825 81.35 150.477ZM244.788 195.14C245.033 194.388 245.202 193.638 245.299 192.9L246.522 192.751C246.423 193.521 246.246 194.302 245.992 195.084L244.788 195.14ZM226.811 189.904C226.314 189.373 225.722 188.833 225.035 188.305L226.072 187.734C226.776 188.283 227.394 188.841 227.913 189.394L226.811 189.904ZM259.662 198.822C259.053 198.298 258.433 197.756 257.815 197.198L258.886 196.652C259.503 197.205 260.117 197.745 260.726 198.268L259.662 198.822ZM284.149 204.761L283.628 204.18C284.626 203.729 285.737 203.211 286.928 202.644L287.488 203.208C286.287 203.778 285.162 204.303 284.149 204.761ZM223.02 186.772C222.456 186.316 221.811 185.783 221.109 185.175L222.163 184.624C222.863 185.227 223.496 185.756 224.059 186.207L223.02 186.772ZM256.015 195.549C255.431 195 254.845 194.44 254.273 193.873L255.355 193.346C255.931 193.909 256.506 194.467 257.093 195.011L256.015 195.549ZM219.257 183.555C218.677 183.04 218.071 182.491 217.438 181.918L218.511 181.378C219.144 181.951 219.744 182.499 220.318 183.012L219.257 183.555ZM245.366 190.712C245.318 190.005 245.195 189.299 245.004 188.608L246.215 188.286C246.418 189.003 246.539 189.741 246.589 190.476L245.366 190.712ZM72.5913 143.053L71.7397 142.665C72.6038 142.013 73.513 141.346 74.45 140.682L75.2741 141.089C74.3458 141.745 73.4468 142.41 72.5913 143.053ZM86.5953 146.505L85.7755 146.094C86.6473 145.471 87.5874 144.818 88.5725 144.151L89.3691 144.578C88.3883 145.241 87.4628 145.887 86.5953 146.505ZM252.585 192.173C252.028 191.599 251.491 191.019 250.958 190.435L252.062 189.931C252.587 190.508 253.124 191.087 253.674 191.654L252.585 192.173ZM290.766 201.605L290.182 201.056C291.227 200.536 292.31 199.994 293.405 199.433L294.009 199.976C292.908 200.535 291.821 201.082 290.766 201.605ZM215.644 180.27C215.07 179.735 214.475 179.183 213.869 178.612L214.943 178.078C215.543 178.648 216.138 179.2 216.713 179.735L215.644 180.27ZM249.409 188.665C248.897 188.054 248.406 187.443 247.954 186.854L249.087 186.38C249.538 186.963 250.017 187.571 250.528 188.176L249.409 188.665ZM244.243 186.601C243.93 185.963 243.553 185.329 243.12 184.713L244.264 184.258C244.713 184.896 245.1 185.549 245.419 186.21L244.243 186.601ZM279.466 195.834L279.157 195.607C278.942 195.449 278.719 195.284 278.495 195.113L279.521 194.539C279.636 194.625 279.751 194.711 279.866 194.798C280.406 194.531 280.974 194.246 281.566 193.95L282.16 194.496C281.38 194.887 280.642 195.252 279.953 195.592L279.466 195.834ZM212.119 176.944C211.547 176.399 210.966 175.84 210.378 175.274L211.459 174.742C212.047 175.308 212.627 175.867 213.199 176.412L212.119 176.944ZM78.0303 139.157L77.2337 138.73C78.1855 138.08 79.1345 137.441 80.0763 136.816L80.8541 137.254C79.9122 137.879 78.9719 138.51 78.0303 139.157ZM276.533 193.551C275.922 193.044 275.288 192.508 274.648 191.949L275.707 191.401C276.342 191.958 276.97 192.492 277.579 192.993L276.533 193.551ZM92.1857 142.689L91.4123 142.247C92.3832 141.608 93.3469 140.983 94.302 140.368L95.0609 140.817C94.1203 141.426 93.1566 142.051 92.1857 142.689ZM246.61 184.993C246.167 184.335 245.765 183.689 245.408 183.072L246.578 182.652C246.927 183.261 247.325 183.896 247.76 184.54L246.61 184.993ZM297.221 198.311L296.604 197.781C297.658 197.23 298.714 196.67 299.769 196.103L300.406 196.628C299.346 197.193 298.279 197.756 297.221 198.311ZM241.681 182.945C241.161 182.387 240.587 181.835 239.969 181.299L241.023 180.748C241.66 181.296 242.248 181.862 242.784 182.436L241.681 182.945ZM208.647 173.595C208.078 173.039 207.508 172.478 206.925 171.913L208.013 171.388C208.585 171.956 209.16 172.513 209.729 173.068L208.647 173.595ZM272.819 190.315C272.227 189.774 271.636 189.218 271.044 188.656L272.124 188.124C272.71 188.684 273.299 189.235 273.886 189.773L272.819 190.315ZM285.394 192.854L284.786 192.315C285.822 191.782 286.896 191.226 287.973 190.66L288.596 191.192C287.504 191.765 286.43 192.321 285.394 192.854ZM238.016 179.772C237.461 179.373 236.796 178.845 236.026 178.207L237.072 177.649C237.835 178.28 238.491 178.794 239.028 179.188L238.016 179.772ZM244.409 181.071C244.094 180.339 243.854 179.629 243.699 178.969L244.915 178.665C245.064 179.302 245.291 179.987 245.596 180.699L244.409 181.071ZM205.224 170.226C204.66 169.666 204.1 169.102 203.534 168.536L204.627 168.013C205.187 168.577 205.753 169.143 206.318 169.703L205.224 170.226ZM269.322 186.975C268.75 186.407 268.194 185.839 267.644 185.272L268.739 184.755C269.284 185.32 269.839 185.888 270.41 186.45L269.322 186.975ZM83.7132 135.383L82.9543 134.933C83.9369 134.298 84.9065 133.675 85.8573 133.063L86.6118 133.517C85.6654 134.125 84.6958 134.747 83.7132 135.383ZM234.139 176.6C233.556 176.095 232.951 175.546 232.306 174.969L233.373 174.428C234.008 175.007 234.621 175.548 235.194 176.055L234.139 176.6ZM97.9713 138.955L97.2167 138.501C98.2008 137.871 99.1704 137.248 100.109 136.633L100.873 137.079C99.9235 137.696 98.9597 138.321 97.9713 138.955ZM303.552 194.918L302.896 194.404C303.953 193.821 304.988 193.244 306 192.677L306.674 193.179C305.659 193.751 304.619 194.333 303.552 194.918ZM201.856 166.834C201.3 166.266 200.738 165.696 200.188 165.129L201.283 164.612C201.833 165.178 202.389 165.747 202.951 166.317L201.856 166.834ZM266.019 183.54C265.477 182.943 264.949 182.355 264.457 181.783L265.574 181.288C266.066 181.86 266.583 182.445 267.123 183.036L266.019 183.54ZM230.512 173.322C229.937 172.787 229.342 172.235 228.737 171.664L229.811 171.13C230.417 171.701 231.006 172.251 231.585 172.782L230.512 173.322ZM243.49 176.721C243.519 176.249 243.613 175.794 243.753 175.368C243.873 175.013 244.026 174.663 244.213 174.315L245.369 174.367C245.201 174.681 245.061 175.003 244.954 175.323C244.824 175.702 244.742 176.116 244.717 176.546L243.49 176.721ZM291.771 189.512L291.14 188.988C292.205 188.419 293.26 187.853 294.284 187.294L294.93 187.811C293.901 188.374 292.842 188.944 291.771 189.512ZM198.529 163.415C197.976 162.837 197.431 162.266 196.885 161.695L197.981 161.183C198.521 161.753 199.067 162.324 199.624 162.898L198.529 163.415ZM262.977 179.982C262.456 179.319 261.995 178.695 261.613 178.125L262.764 177.678C263.143 178.236 263.597 178.853 264.105 179.506L262.977 179.982ZM226.986 169.996C226.415 169.451 225.834 168.892 225.25 168.321L226.336 167.791C226.924 168.357 227.505 168.916 228.071 169.46L226.986 169.996ZM89.5207 131.649L88.7618 131.199C89.7357 130.572 90.6979 129.942 91.6252 129.324L92.403 129.762C91.4714 130.384 90.499 131.017 89.5207 131.649ZM103.743 135.189L102.957 134.759C103.984 134.065 104.892 133.436 105.716 132.838L106.545 133.242C105.7 133.844 104.789 134.483 103.743 135.189ZM195.261 159.969C194.712 159.386 194.175 158.806 193.651 158.236L194.76 157.728C195.283 158.298 195.82 158.878 196.363 159.459L195.261 159.969ZM309.751 191.412L309.053 190.924C310.139 190.29 311.141 189.687 312.046 189.128L312.777 189.598C311.862 190.159 310.846 190.769 309.751 191.412ZM223.525 166.644C222.956 166.088 222.385 165.527 221.813 164.959L222.901 164.435C223.473 165.002 224.043 165.564 224.612 166.119L223.525 166.644ZM261.426 176.299L260.979 175.69C262.052 175.254 263.22 174.789 264.433 174.305L264.865 174.921C263.661 175.397 262.499 175.863 261.426 176.299ZM247.051 172.258L246.097 171.957C246.919 171.206 247.911 170.524 249.046 169.93L249.663 170.461C248.657 170.986 247.781 171.591 247.051 172.258ZM298.063 186.091L297.403 185.582C298.528 184.953 299.557 184.368 300.469 183.839L301.163 184.33C300.236 184.867 299.193 185.458 298.063 186.091ZM192.055 156.49C191.513 155.893 190.991 155.307 190.489 154.737L191.6 154.241C192.102 154.81 192.624 155.397 193.16 155.992L192.055 156.49ZM220.111 163.267C219.551 162.702 218.985 162.137 218.429 161.568L219.518 161.05C220.084 161.615 220.64 162.184 221.204 162.743L220.111 163.267ZM95.2234 127.826L94.3993 127.418C95.4868 126.642 96.3204 125.998 96.9549 125.447L97.8833 125.774C97.2212 126.345 96.3515 127.017 95.2234 127.826ZM109.211 131.213L108.323 130.854C109.218 130.134 109.984 129.46 110.682 128.795L111.658 129.075C110.936 129.772 110.138 130.47 109.211 131.213ZM188.95 152.964C188.425 152.344 187.921 151.746 187.451 151.174L188.571 150.691C189.035 151.261 189.533 151.857 190.063 152.473L188.95 152.964ZM315.719 187.711L314.933 187.281C316.114 186.487 316.972 185.834 317.493 185.35L318.456 185.642C317.877 186.176 316.96 186.874 315.719 187.711ZM216.745 159.864C216.189 159.296 215.633 158.728 215.083 158.161L216.178 157.644C216.728 158.21 217.278 158.777 217.84 159.347L216.745 159.864ZM268.317 173.552L267.885 172.935C269.024 172.485 270.173 172.026 271.33 171.559L271.772 172.172C270.614 172.634 269.461 173.097 268.317 173.552ZM252.945 169.001L252.478 168.397C253.541 167.948 254.692 167.479 255.919 166.987L256.362 167.6C255.139 168.088 253.998 168.554 252.945 169.001ZM304.179 182.497L303.42 182.047C303.75 181.832 304.033 181.643 304.257 181.481C304.52 181.111 304.815 180.635 305.125 180.071L306.278 180.132C305.925 180.761 305.604 181.284 305.313 181.69L305.265 181.759L305.183 181.818C304.912 182.011 304.589 182.233 304.179 182.497ZM186.01 149.357C185.491 148.678 185.034 148.05 184.656 147.498L185.802 147.049C186.178 147.595 186.622 148.214 187.139 148.887L186.01 149.357ZM213.435 156.445C212.882 155.866 212.33 155.293 211.796 154.726L212.893 154.214C213.427 154.782 213.978 155.355 214.531 155.933L213.435 156.445ZM231.169 161.188C230.765 161.076 230.37 160.94 229.996 160.777L230.856 160.107C231.713 160.475 232.634 160.691 233.697 160.782L233.225 161.542C232.481 161.484 231.808 161.364 231.169 161.188ZM97.7892 123.76C97.5155 123.46 96.9533 122.972 95.8096 122.34L96.7499 121.709C97.7348 122.254 98.4581 122.776 98.899 123.258L97.7892 123.76ZM227.582 159.423C226.862 158.957 226.131 158.466 225.426 157.955L226.443 157.367C227.14 157.87 227.854 158.357 228.566 158.815L227.582 159.423ZM236.959 161.463L237.099 160.704C238.143 160.599 239.317 160.426 240.698 160.173L240.726 160.907C239.287 161.171 238.057 161.356 236.959 161.463ZM112.638 126.653C112.924 126.29 113.183 125.924 113.411 125.567C113.65 125.19 113.862 124.812 114.031 124.438L115.2 124.454C115.01 124.855 114.789 125.259 114.535 125.664C114.296 126.04 114.017 126.433 113.715 126.819L112.638 126.653ZM93.3318 121.16C92.8181 120.942 92.3117 120.731 91.826 120.537C91.3989 120.359 91.0233 120.212 90.6798 120.062L91.5393 119.393C91.8813 119.536 92.2467 119.686 92.6254 119.845C93.1552 120.062 93.6659 120.269 94.187 120.494L93.3318 121.16ZM319.245 183.195C319.69 182.542 320.15 181.779 320.619 180.925L321.766 180.984C321.286 181.857 320.81 182.643 320.354 183.315L319.245 183.195ZM210.166 152.998C209.616 152.409 209.079 151.83 208.557 151.265L209.665 150.757C210.183 151.326 210.724 151.901 211.274 152.49L210.166 152.998ZM183.5 145.54C183.18 144.857 182.962 144.141 182.846 143.405L184.064 143.129C184.174 143.826 184.384 144.506 184.682 145.151L183.5 145.54ZM275.217 170.774L274.76 170.167C275.905 169.697 277.038 169.223 278.16 168.746L278.638 169.347C277.51 169.823 276.362 170.303 275.217 170.774ZM223.394 156.417C222.728 155.884 222.092 155.342 221.496 154.806L222.563 154.265C223.146 154.792 223.774 155.326 224.433 155.851L223.394 156.417ZM259.796 166.226L259.364 165.61L262.816 164.241L263.248 164.857L259.796 166.226ZM88.2148 118.722C87.6222 118.264 87.0208 117.666 86.4608 116.998L87.5854 116.511C88.1216 117.151 88.6935 117.718 89.2522 118.15L88.2148 118.722ZM306.291 177.776C306.625 177.071 306.973 176.299 307.324 175.472L308.504 175.47C308.149 176.301 307.797 177.083 307.455 177.797L306.291 177.776ZM244.442 160.157L244.342 159.436C245.474 159.185 246.691 158.909 247.999 158.604L248.13 159.317C246.725 159.645 245.517 159.918 244.442 160.157ZM219.761 153.116C219.192 152.516 218.666 151.918 218.209 151.333L219.337 150.858C219.785 151.429 220.297 152.018 220.858 152.604L219.761 153.116ZM206.97 149.517C206.427 148.914 205.905 148.328 205.399 147.762L206.51 147.266C207.01 147.83 207.533 148.416 208.076 149.019L206.97 149.517ZM85.1313 115.108C84.7481 114.451 84.4144 113.774 84.1551 113.091L85.3513 112.733C85.6045 113.393 85.9219 114.048 86.2946 114.686L85.1313 115.108ZM182.799 141.131C182.874 140.376 183.055 139.585 183.321 138.79L184.521 138.739C184.267 139.499 184.104 140.251 184.025 140.972L182.799 141.131ZM114.691 122.228C114.782 121.51 114.739 120.799 114.576 120.11L115.79 119.8C115.971 120.538 116.012 121.303 115.919 122.075L114.691 122.228ZM282.034 167.87L281.524 167.287C282.699 166.764 283.807 166.256 284.828 165.768L285.378 166.334C284.347 166.826 283.224 167.341 282.034 167.87ZM266.706 163.468L266.264 162.854C267.396 162.397 268.541 161.926 269.685 161.449L270.148 162.058C268.994 162.537 267.838 163.01 266.706 163.468ZM321.807 178.631C322.157 177.908 322.516 177.133 322.877 176.327L324.055 176.334C323.695 177.147 323.327 177.931 322.972 178.657L321.807 178.631ZM203.856 145.993C203.315 145.358 202.811 144.76 202.357 144.203L203.483 143.722C203.938 144.279 204.435 144.875 204.974 145.504L203.856 145.993ZM216.9 149.438C216.493 148.752 216.164 148.071 215.922 147.415L217.12 147.062C217.356 147.695 217.673 148.351 218.058 149.014L216.9 149.438ZM251.803 158.44L251.657 157.734C252.732 157.473 253.863 157.201 255.05 156.911L255.321 156.844L255.473 157.552L255.206 157.615C254.009 157.907 252.878 158.18 251.803 158.44ZM308.285 173.165C308.586 172.418 308.881 171.647 309.181 170.856L310.371 170.829C310.076 171.622 309.773 172.401 309.473 173.149L308.285 173.165ZM83.5558 110.954C83.4225 110.191 83.3727 109.435 83.4166 108.704L84.6426 108.523C84.6056 109.218 84.642 109.943 84.7719 110.672L83.5558 110.954ZM200.928 142.373C200.336 141.582 199.912 140.935 199.667 140.452L200.841 140.05C201.08 140.509 201.493 141.136 202.065 141.911L200.928 142.373ZM113.738 118.164C113.365 117.57 112.887 116.984 112.306 116.425L113.392 115.895C113.998 116.488 114.506 117.103 114.902 117.726L113.738 118.164ZM215.418 145.244C215.347 144.449 215.405 143.667 215.592 142.922L216.798 142.834C216.62 143.527 216.57 144.256 216.637 144.996L215.418 145.244ZM184.335 136.432C184.74 135.67 185.222 134.885 185.773 134.098L186.875 134.232C186.343 134.992 185.876 135.748 185.485 136.481L184.335 136.432ZM259.122 156.669L258.98 155.958C260.169 155.674 261.404 155.381 262.655 155.087L262.786 155.8C261.539 156.09 260.31 156.385 259.122 156.669ZM273.558 160.612L273.066 160.017C274.269 159.497 275.391 158.998 276.402 158.534L276.937 159.108C275.912 159.579 274.776 160.084 273.558 160.612ZM288.661 164.711L288.048 164.176C289.17 163.595 290.203 163.028 291.123 162.485L291.821 162.972C290.872 163.53 289.812 164.116 288.661 164.711ZM323.877 174.019C324.202 173.24 324.512 172.468 324.806 171.714L325.997 171.693C325.7 172.452 325.385 173.228 325.061 174.012L323.877 174.019ZM110.411 114.892C109.743 114.435 108.994 113.983 108.18 113.551C108.034 113.472 107.885 113.398 107.739 113.32L108.654 112.677C108.806 112.757 108.956 112.831 109.107 112.911C109.946 113.355 110.721 113.826 111.41 114.3L110.411 114.892ZM239.709 150.43C239.061 149.967 238.387 149.449 237.7 148.877L238.746 148.319C239.414 148.88 240.081 149.391 240.714 149.839L239.709 150.43ZM83.894 106.356C84.1878 105.52 84.6251 104.712 85.1872 103.966L86.277 104.119C85.7653 104.808 85.3652 105.549 85.0925 106.321L83.894 106.356ZM243.553 150.294L243.448 149.577C244.579 149.327 245.826 149.037 247.108 148.735L247.243 149.444C245.941 149.751 244.689 150.039 243.553 150.294ZM105.231 112.148C104.55 111.85 103.911 111.593 103.352 111.367C103.091 111.263 102.828 111.152 102.585 111.052L103.437 110.375C103.68 110.475 103.943 110.585 104.173 110.676C104.763 110.915 105.403 111.179 106.09 111.478L105.231 112.148ZM199.55 138.099C199.781 137.376 200.228 136.566 200.868 135.699L201.958 135.852C201.366 136.65 200.954 137.388 200.744 138.046L199.55 138.099ZM310.012 168.551C310.282 167.79 310.545 167.022 310.8 166.245L312 166.194C311.744 166.97 311.478 167.743 311.209 168.51L310.012 168.551ZM235.861 147.244C235.241 146.658 234.671 146.081 234.174 145.529L235.284 145.026C235.774 145.571 236.334 146.135 236.941 146.712L235.861 147.244ZM266.456 154.956L266.345 154.237C267.599 153.955 268.84 153.685 270.042 153.432L270.127 154.155C268.931 154.409 267.7 154.676 266.456 154.956ZM100.873 109.198C100.691 108.853 100.523 108.479 100.391 108.12L100.197 107.603L101.105 107.558C101.642 107.531 102.217 107.504 102.824 107.475L102.577 108.243C102.309 108.256 102.051 108.267 101.798 108.279C101.876 108.453 101.96 108.63 102.047 108.795L100.873 109.198ZM216.712 140.516C217.053 140.026 217.46 139.543 217.932 139.078C218.175 138.839 218.435 138.605 218.707 138.374L218.886 138.227L219.778 138.582L219.618 138.718C219.367 138.927 219.139 139.138 218.918 139.355C218.494 139.773 218.124 140.212 217.819 140.652L216.712 140.516ZM280.252 157.504L279.644 156.965C280.897 156.322 281.901 155.747 282.612 155.26L283.398 155.69C282.622 156.219 281.567 156.829 280.252 157.504ZM187.572 131.808C188.211 131.067 188.913 130.316 189.658 129.582L190.643 129.853C189.92 130.566 189.233 131.294 188.615 132.014L187.572 131.808ZM294.78 161.068L293.956 160.661C294.851 160.023 295.661 159.351 296.376 158.668L297.347 158.953C296.6 159.675 295.73 160.391 294.78 161.068ZM325.685 169.406C325.992 168.578 326.269 167.803 326.521 167.097L327.714 167.06C327.462 167.766 327.181 168.546 326.869 169.377L325.685 169.406ZM232.717 143.69C232.422 143.249 232.215 142.847 232.088 142.507L232.017 142.296L232.309 142.103C232.682 141.862 233.108 141.597 233.553 141.321L234.285 141.791C233.966 141.987 233.657 142.18 233.377 142.36C233.494 142.621 233.658 142.918 233.874 143.245L232.717 143.69ZM250.91 148.566L250.764 147.859L254.428 146.969L254.574 147.676L250.91 148.566ZM106.193 108.088L106.445 107.322C107.581 107.274 108.788 107.23 110.064 107.178L109.806 107.942C108.534 107.99 107.329 108.04 106.193 108.088ZM311.539 163.942C311.78 163.173 312.009 162.401 312.224 161.641L313.43 161.569C313.21 162.333 312.981 163.106 312.742 163.881L311.539 163.942ZM273.779 153.431L273.752 152.697C275.237 152.424 276.496 152.225 277.508 152.1L277.41 152.854C276.445 152.97 275.218 153.167 273.779 153.431ZM88.3029 102.056L87.4194 101.692C88.3266 100.976 89.366 100.328 90.5102 99.7702L91.0849 100.327C90.0613 100.826 89.1248 101.409 88.3029 102.056ZM202.877 133.424C203.825 132.489 204.713 131.74 205.299 131.274L206.187 131.633C205.628 132.08 204.771 132.799 203.887 133.67L202.877 133.424ZM113.417 107.813L113.686 107.046C114.845 107.005 116.048 106.966 117.299 106.923L117.025 107.689C115.779 107.733 114.576 107.773 113.417 107.813ZM283.215 153.69C283.09 153.584 282.931 153.475 282.735 153.372C282.237 153.109 281.544 152.912 280.738 152.805L281.287 152.05C282.244 152.171 283.061 152.408 283.667 152.728C283.912 152.856 284.117 152.994 284.278 153.131L283.215 153.69ZM258.231 146.8L258.089 146.089C259.344 145.791 260.569 145.5 261.759 145.222L261.884 145.934C260.711 146.211 259.486 146.501 258.231 146.8ZM222.435 136.666L221.662 136.223C222.475 135.688 223.42 135.097 224.628 134.365L225.345 134.841C224.16 135.558 223.234 136.138 222.435 136.666ZM237.272 139.993L236.559 139.512C237.563 138.915 238.56 138.317 239.545 137.709L240.276 138.178C239.286 138.784 238.279 139.392 237.272 139.993ZM192.928 127.764L192.01 127.434C192.856 126.712 193.731 126.019 194.617 125.368L195.455 125.763C194.594 126.388 193.747 127.061 192.928 127.764ZM327.319 164.788C327.625 163.873 327.802 163.321 327.809 163.285L328.062 162.481L329.265 162.419L329.018 163.225C329.009 163.255 328.833 163.813 328.52 164.742L327.319 164.788ZM120.619 107.577L120.893 106.811C122.07 106.775 123.268 106.74 124.499 106.702L124.225 107.468C122.994 107.505 121.795 107.541 120.619 107.577ZM298.26 156.523C298.788 155.789 299.208 155.042 299.516 154.303L300.699 154.29C300.373 155.085 299.916 155.882 299.357 156.662L298.26 156.523ZM312.853 159.351C313.053 158.571 313.245 157.805 313.411 157.064L314.625 156.962C314.45 157.711 314.269 158.48 314.066 159.265L312.853 159.351ZM94.3881 99.0756L94.1609 98.3903C95.3922 98.0418 96.6802 97.7853 97.997 97.6187L97.9037 98.3684C96.6919 98.5203 95.5073 98.7562 94.3881 99.0756ZM208.803 130.127L208.688 129.412C209.705 129.179 210.965 129.068 212.548 129.068L212.22 129.835C210.805 129.832 209.651 129.934 208.803 130.127ZM127.812 107.37L128.096 106.602C129.274 106.572 130.479 106.538 131.695 106.508L131.411 107.276C130.194 107.306 128.994 107.336 127.812 107.37ZM265.558 145.101L265.453 144.384C266.723 144.101 267.954 143.834 269.145 143.584L269.22 144.309C268.038 144.556 266.818 144.821 265.558 145.101ZM215.635 129.974L216.095 129.21C217.138 129.29 218.283 129.404 219.506 129.545L218.979 130.3C217.784 130.162 216.657 130.053 215.635 129.974ZM101.49 98.1014L101.721 97.3348C102.729 97.2798 103.954 97.2188 105.362 97.154L105.116 97.9216C103.713 97.9881 102.499 98.0464 101.49 98.1014ZM228.352 133.038L227.639 132.558C228.04 132.319 228.467 132.06 228.914 131.79L228.744 131.765L229.339 131.017L231.19 131.314L230.421 131.79C229.702 132.225 228.987 132.656 228.352 133.038ZM134.999 107.184L135.289 106.418C136.473 106.389 137.674 106.36 138.885 106.333L138.595 107.1C137.379 107.13 136.183 107.156 134.999 107.184ZM328.733 160.186C328.952 159.395 329.156 158.632 329.346 157.898L330.557 157.806C330.373 158.541 330.17 159.31 329.943 160.11L328.733 160.186ZM222.264 130.737L222.83 129.986C223.995 130.155 225.101 130.329 226.1 130.489L225.512 131.239C224.513 131.078 223.418 130.908 222.264 130.737ZM300.093 152.086C300.166 151.363 300.121 150.646 299.96 149.963L301.17 149.658C301.344 150.388 301.395 151.151 301.314 151.925L300.093 152.086ZM198.211 123.896L197.499 123.416C198.539 122.79 199.652 122.218 200.79 121.718L201.286 122.308C200.221 122.773 199.186 123.313 198.211 123.896ZM243.215 136.302L242.433 135.868C243.458 135.183 244.332 134.551 245.109 133.94L245.988 134.308C245.174 134.941 244.272 135.594 243.215 136.302ZM272.878 143.587L272.845 142.851C274.194 142.6 275.412 142.39 276.57 142.218L276.535 142.962C275.405 143.137 274.211 143.337 272.878 143.587ZM313.884 154.78C314.027 153.973 314.15 153.21 314.231 152.517L315.453 152.362C315.369 153.065 315.248 153.835 315.097 154.656L313.884 154.78ZM142.172 107.027L142.463 106.26C143.652 106.234 144.844 106.213 146.051 106.191L145.755 106.956C144.554 106.979 143.362 107 142.172 107.027ZM108.737 97.768L108.989 97.0019C110.125 96.9547 111.331 96.9049 112.608 96.8584L112.35 97.6228C111.078 97.6709 109.867 97.7191 108.737 97.768ZM149.34 106.89L149.64 106.121C150.832 106.1 152.029 106.081 153.226 106.061L152.92 106.829C151.723 106.848 150.525 106.867 149.34 106.89ZM299.126 148.013C298.745 147.405 298.252 146.827 297.663 146.298L298.728 145.751C299.359 146.313 299.883 146.927 300.285 147.573L299.126 148.013ZM115.966 97.4895L116.234 96.7225C117.393 96.6817 118.6 96.6378 119.841 96.5977L119.573 97.3647C118.326 97.4032 117.125 97.4487 115.966 97.4895ZM280.159 142.503L280.304 141.746C281.652 141.615 282.902 141.545 284.016 141.541L283.693 142.309C282.639 142.313 281.448 142.378 280.159 142.503ZM329.873 155.618C330.042 154.846 330.191 154.078 330.317 153.348L331.535 153.22C331.406 153.96 331.253 154.732 331.086 155.51L329.873 155.618ZM204.666 121.061L204.398 120.387C205.603 120.02 206.867 119.713 208.163 119.464L208.206 120.197C206.982 120.427 205.796 120.717 204.666 121.061ZM247.389 131.893C248.085 131.156 248.629 130.427 248.998 129.732L250.158 129.778C249.752 130.54 249.164 131.334 248.404 132.135L247.389 131.893ZM156.492 106.776L156.798 106.009C157.991 105.994 159.184 105.978 160.377 105.963L160.065 106.729C158.877 106.746 157.684 106.761 156.492 106.776ZM314.387 150.293C314.391 149.41 314.305 148.703 314.128 148.19L315.327 147.844C315.521 148.4 315.615 149.157 315.611 150.085L314.387 150.293ZM295.632 144.87C295.531 144.815 295.429 144.759 295.328 144.704C294.653 144.349 293.916 144.025 293.13 143.743L293.94 143.049C294.773 143.344 295.552 143.685 296.255 144.064C296.362 144.121 296.469 144.178 296.572 144.239L295.632 144.87ZM287.075 142.466L287.568 141.707C288.729 141.819 289.85 141.986 290.902 142.206L290.251 142.943C289.254 142.729 288.184 142.57 287.075 142.466ZM123.176 97.2442L123.45 96.4787C124.621 96.4412 125.83 96.4031 127.05 96.3684L126.776 97.1338C125.545 97.1712 124.347 97.2066 123.176 97.2442ZM163.641 106.694L163.953 105.928C165.142 105.917 166.33 105.907 167.514 105.9L167.192 106.669C166.018 106.673 164.829 106.683 163.641 106.694ZM211.797 119.674L211.937 118.916C213.124 118.795 214.372 118.719 215.636 118.685L215.356 119.449C214.136 119.484 212.932 119.561 211.797 119.674ZM130.372 97.0277L130.646 96.2622C131.828 96.2279 133.027 96.1925 134.243 96.162L133.959 96.9301C132.753 96.958 131.554 96.9933 130.372 97.0277ZM312.213 146.892C311.499 146.531 310.669 146.122 309.729 145.666L310.631 145.014C311.572 145.476 312.408 145.886 313.122 146.247L312.213 146.892ZM330.659 151.089C330.751 150.311 330.816 149.559 330.856 148.855L332.081 148.668C332.044 149.385 331.976 150.147 331.881 150.934L330.659 151.089ZM307.22 144.45C306.425 144.073 305.587 143.672 304.694 143.251L305.584 142.595C306.477 143.016 307.316 143.417 308.116 143.796L307.22 144.45ZM170.76 106.642L171.082 105.874C172.278 105.87 173.468 105.865 174.642 105.862L174.314 106.628C173.14 106.632 171.956 106.639 170.76 106.642ZM218.847 119.461L219.235 118.695C220.354 118.73 221.529 118.792 222.729 118.888L222.264 119.65C221.087 119.56 219.938 119.495 218.847 119.461ZM137.562 96.8315L137.846 96.0634C139.03 96.0349 140.23 96.0055 141.441 95.9733L141.15 96.7398C139.946 96.7735 138.746 96.803 137.562 96.8315ZM302.165 142.062C301.347 141.678 300.499 141.286 299.625 140.876L300.514 140.214C301.392 140.62 302.241 141.018 303.059 141.402L302.165 142.062ZM249.625 127.562C249.647 126.852 249.484 126.185 249.121 125.582L250.283 125.154C250.682 125.832 250.881 126.575 250.848 127.369L249.625 127.562ZM297.072 139.696C296.238 139.313 295.39 138.921 294.514 138.521L295.397 137.858C296.268 138.257 297.121 138.65 297.955 139.033L297.072 139.696ZM225.612 119.973L226.133 119.215C227.187 119.337 228.278 119.474 229.465 119.642L228.904 120.394C227.735 120.231 226.654 120.091 225.612 119.973ZM177.867 106.631L178.201 105.865C179.399 105.868 180.585 105.867 181.756 105.874L181.412 106.642C180.251 106.633 179.069 106.629 177.867 106.631ZM232.154 120.881L232.742 120.131C233.785 120.293 234.804 120.465 235.791 120.623L235.984 120.654L235.384 121.401L235.231 121.375C234.209 121.213 233.192 121.047 232.154 120.881ZM291.953 137.356C291.109 136.976 290.251 136.586 289.382 136.194L290.259 135.529C291.128 135.922 291.986 136.311 292.83 136.691L291.953 137.356ZM144.738 96.6641L145.028 95.8977C146.218 95.8708 147.414 95.8456 148.615 95.822L148.325 96.5885C147.123 96.6121 145.928 96.6373 144.738 96.6641ZM238.628 121.929L239.207 121.182C240.544 121.387 241.577 121.53 242.467 121.628L241.946 122.385C241.038 122.282 239.987 122.135 238.628 121.929ZM286.807 135.036C285.957 134.654 285.095 134.269 284.227 133.882L285.104 133.217C285.978 133.606 286.84 133.991 287.69 134.373L286.807 135.036ZM247.518 123.998C247.367 123.902 247.207 123.809 247.043 123.72C246.455 123.405 245.79 123.151 245.027 122.935L245.76 122.219C246.582 122.452 247.326 122.739 247.97 123.08C248.153 123.18 248.331 123.278 248.5 123.385L247.518 123.998ZM184.964 106.66L185.308 105.892C186.507 105.9 187.686 105.914 188.848 105.929L188.498 106.695C187.342 106.682 186.158 106.673 184.964 106.66ZM330.865 146.651C330.828 145.882 330.75 145.161 330.623 144.509L331.838 144.221C331.964 144.895 332.048 145.634 332.085 146.425L330.865 146.651ZM281.633 132.735C280.773 132.356 279.906 131.975 279.034 131.592L279.906 130.926C280.778 131.309 281.644 131.689 282.504 132.069L281.633 132.735ZM151.908 96.5171L152.204 95.7522C153.396 95.7313 154.587 95.7103 155.789 95.6867L155.488 96.4558C154.291 96.4752 153.099 96.4961 151.908 96.5171ZM276.432 130.454C275.567 130.079 274.701 129.698 273.824 129.32L274.69 128.652C275.566 129.03 276.437 129.407 277.297 129.786L276.432 130.454ZM192.027 106.751L192.394 105.984C193.596 106.004 194.772 106.028 195.921 106.055L195.549 106.821C194.405 106.795 193.229 106.771 192.027 106.751ZM271.209 128.195C270.34 127.824 269.469 127.447 268.588 127.073L269.448 126.404C270.323 126.776 271.198 127.148 272.068 127.525L271.209 128.195ZM265.96 125.96C265.079 125.587 264.2 125.218 263.315 124.849L264.173 124.173C265.058 124.543 265.943 124.913 266.823 125.287L265.96 125.96ZM159.058 96.3972L159.365 95.6297C160.552 95.613 161.749 95.5937 162.942 95.5786L162.636 96.3461C161.443 96.3612 160.251 96.3821 159.058 96.3972ZM199.057 106.92L199.445 106.153C200.652 106.191 201.822 106.235 202.954 106.28L202.55 107.048C201.422 106.999 200.258 106.956 199.057 106.92ZM260.671 123.743C259.786 123.373 258.903 123.009 258.019 122.646L258.871 121.969C259.755 122.332 260.644 122.698 261.529 123.068L260.671 123.743ZM330.018 142.474C329.71 141.772 329.307 141.164 328.83 140.666L329.925 140.149C330.453 140.693 330.869 141.333 331.204 142.097L330.018 142.474ZM255.354 121.561C254.461 121.2 253.567 120.839 252.679 120.479L253.525 119.801C254.418 120.156 255.311 120.517 256.201 120.883L255.354 121.561ZM166.216 96.3068L166.528 95.5409C167.721 95.5258 168.916 95.5167 170.104 95.5058L169.792 96.2717C168.598 96.2809 167.409 96.2917 166.216 96.3068ZM249.991 119.41C249.087 119.052 248.185 118.699 247.294 118.35L248.129 117.668C249.025 118.019 249.928 118.372 250.831 118.73L249.991 119.41ZM206.009 107.21L206.435 106.443C207.665 106.509 208.827 106.584 209.903 106.662L209.443 107.425C208.385 107.352 207.229 107.279 206.009 107.21ZM244.583 117.296C243.664 116.945 242.758 116.596 241.854 116.26L242.677 115.575C243.576 115.915 244.493 116.261 245.411 116.613L244.583 117.296ZM239.118 115.238C238.185 114.893 237.266 114.557 236.359 114.231L237.165 113.541C238.077 113.869 238.997 114.205 239.935 114.551L239.118 115.238ZM326.815 139.259L326.524 139.102C326.026 138.839 325.304 138.471 324.373 138.007L325.281 137.356C326.218 137.822 326.951 138.193 327.445 138.461L327.742 138.619L326.815 139.259ZM212.823 107.724L213.329 106.967C213.984 107.039 214.595 107.109 215.16 107.188C215.634 107.254 216.138 107.333 216.67 107.43L216.058 108.173C215.55 108.083 215.067 108.004 214.611 107.944C214.052 107.866 213.457 107.795 212.823 107.724ZM233.573 113.244C232.621 112.911 231.678 112.59 230.765 112.278L231.551 111.578C232.475 111.887 233.413 112.211 234.371 112.547L233.573 113.244ZM227.926 111.343C226.935 111.026 225.981 110.724 225.049 110.445L225.806 109.737C226.744 110.017 227.71 110.322 228.706 110.64L227.926 111.343ZM173.344 96.2462L173.666 95.4777C174.86 95.4685 176.051 95.4636 177.231 95.4613L176.902 96.2282C175.728 96.2321 174.538 96.2371 173.344 96.2462ZM219.132 108.825L219.819 108.097C220.742 108.318 221.745 108.579 222.788 108.866L222.119 109.599L222.061 109.583C221.035 109.3 220.049 109.045 219.132 108.825ZM321.89 136.787C321.119 136.416 320.285 136.011 319.383 135.576L320.279 134.922C321.187 135.358 322.026 135.759 322.793 136.134L321.89 136.787ZM316.851 134.376C316.045 133.995 315.196 133.597 314.321 133.181L315.211 132.525C316.097 132.939 316.935 133.339 317.747 133.722L316.851 134.376ZM180.464 96.222L180.793 95.4551C181.984 95.4561 183.176 95.457 184.352 95.459L184.017 96.2243C182.842 96.2223 181.66 96.2187 180.464 96.222ZM311.782 131.994C310.958 131.609 310.11 131.217 309.238 130.812L310.127 130.151C310.999 130.555 311.852 130.949 312.676 131.335L311.782 131.994ZM306.68 129.637C305.846 129.254 304.988 128.865 304.118 128.466L305.001 127.803C305.871 128.202 306.729 128.591 307.563 128.974L306.68 129.637ZM187.564 96.2411L187.908 95.4731C189.101 95.4799 190.284 95.4894 191.457 95.5016L191.107 96.2679C189.94 96.2574 188.757 96.2479 187.564 96.2411ZM301.557 127.301C300.713 126.921 299.855 126.532 298.986 126.139L299.863 125.474C300.732 125.867 301.594 126.252 302.434 126.637L301.557 127.301ZM296.406 124.985C295.556 124.603 294.69 124.223 293.822 123.836L294.694 123.169C295.567 123.558 296.427 123.937 297.283 124.321L296.406 124.985ZM194.639 96.3135L194.995 95.5488C196.191 95.5674 197.371 95.587 198.525 95.6104L198.159 96.3777C197.005 96.3544 195.835 96.3321 194.639 96.3135ZM291.228 122.689C290.368 122.31 289.502 121.929 288.63 121.546L289.495 120.878C290.367 121.261 291.233 121.642 292.094 122.021L291.228 122.689ZM286.024 120.418C285.159 120.043 284.289 119.666 283.412 119.288L284.278 118.62C285.154 118.999 286.025 119.375 286.889 119.75L286.024 120.418ZM201.678 96.458L202.056 95.6939C203.255 95.7243 204.428 95.7583 205.571 95.8003L205.177 96.5655C204.04 96.5251 202.872 96.4868 201.678 96.458ZM280.786 118.165C279.912 117.793 279.037 117.421 278.162 117.048L279.021 116.379C279.902 116.753 280.777 117.125 281.652 117.497L280.786 118.165ZM275.517 115.937C274.638 115.569 273.753 115.199 272.874 114.831L273.726 114.154C274.611 114.523 275.494 114.887 276.375 115.261L275.517 115.937ZM270.216 113.732C269.332 113.368 268.445 113.009 267.561 112.645L268.407 111.966C269.295 112.326 270.179 112.689 271.068 113.055L270.216 113.732ZM208.666 96.6976L209.076 95.9314C210.282 95.9853 211.443 96.038 212.564 96.1014L212.132 96.867C211.017 96.8053 209.86 96.7483 208.666 96.6976ZM264.887 111.569C263.994 111.208 263.096 110.851 262.199 110.5L263.04 109.82C263.932 110.175 264.83 110.532 265.729 110.894L264.887 111.569ZM259.502 109.439C258.594 109.085 257.692 108.732 256.787 108.39L257.615 107.706C258.516 108.053 259.423 108.402 260.331 108.756L259.502 109.439ZM215.562 97.0866L216.022 96.3232C217.247 96.4098 218.399 96.509 219.453 96.6086L218.96 97.3682C217.922 97.2676 216.777 97.1759 215.562 97.0866ZM254.068 107.351C253.146 107.004 252.235 106.659 251.327 106.327L252.144 105.64C253.053 105.979 253.968 106.318 254.891 106.666L254.068 107.351ZM248.572 105.316C247.641 104.977 246.706 104.649 245.796 104.327L246.599 103.631C247.516 103.955 248.446 104.287 249.387 104.624L248.572 105.316ZM222.263 97.7495L222.824 96.9975C223.817 97.1349 224.912 97.3276 226.067 97.5642L225.421 98.3037C224.288 98.0677 223.229 97.8847 222.263 97.7495ZM242.986 103.355C242.025 103.03 241.089 102.712 240.16 102.407L240.941 101.704C241.875 102.011 242.822 102.327 243.778 102.656L242.986 103.355ZM237.305 101.488C236.321 101.179 235.352 100.884 234.414 100.604L235.165 99.8931C236.109 100.175 237.084 100.471 238.073 100.782L237.305 101.488ZM228.483 98.9897L229.176 98.2631C230.129 98.4988 231.15 98.764 232.198 99.0474L231.47 99.7643C230.439 99.4798 229.435 99.2195 228.483 98.9897Z" fill="#52575C"/>
<path d="M196.183 227.377C194.759 226.984 192.988 226.201 190.282 225.002C186.981 223.54 182.262 221.359 176.257 218.518C166.175 213.744 152.298 207.039 135.018 198.581C106.485 184.617 77.8871 170.385 75.9377 169.415C68.5846 166.35 58.0573 157.942 70.1228 147.708C76.162 142.585 83.0219 138.191 89.0686 134.31C95.0096 130.503 100.623 126.901 102.108 124.558C103.846 121.826 97.9726 119.431 94.8189 118.14C93.8077 117.725 93.0108 117.402 92.4081 117.071C89.7178 115.576 85.508 108.866 89.1793 104.302C91.0214 102.014 94.4282 100.512 98.5266 100.184C107.443 99.4703 196.975 96.4119 220.707 99.6362C245.148 102.952 319.092 137.872 324.727 141.026C326.216 141.858 330.737 144.388 324.76 163.427C322.533 170.514 318.051 181.768 315.053 184.589C311.045 188.361 282.45 203.381 277.952 204.472C274.636 205.278 272.575 204.027 269.566 201.87C267.426 200.335 264.819 198.196 262.206 195.848C259.157 193.101 251.753 186.117 248.891 180.57C248.089 179.017 245.647 174.291 251.774 171.535C254.356 170.373 257.872 168.978 261.94 167.364C270.042 164.148 281.133 159.746 285.581 156.642C287.428 155.355 288.16 154.027 287.697 152.813C287.058 151.129 284.33 150.055 280.589 150.001C275.981 149.937 263.652 152.927 254.652 155.114C240.43 158.565 235.813 159.596 233.023 158.406C231.001 157.537 226.805 154.496 223.784 151.353C219.001 146.375 218.386 142.524 221.901 139.577C223.603 138.152 226.325 136.527 229.212 134.805C231.383 133.509 235.09 131.298 236.676 129.971C234.383 129.71 231.872 129.302 229.224 128.866C220.927 127.507 209.572 125.642 204.631 129.173L204.544 129.236C204.35 129.369 194.223 136.472 196.584 141.323C199.654 147.625 228.437 176.251 235.49 181.298C245.283 188.308 244.523 196.951 233.355 205.635C225.173 211.997 205.207 225.824 200.452 227.288C198.919 227.771 197.759 227.812 196.183 227.377ZM97.0437 105.903C96.3403 107.424 98.1537 111.447 99.5154 112.352C99.7447 112.481 100.474 112.775 101.186 113.064C105.61 114.869 114.813 118.625 110.563 125.311C108.141 129.116 101.931 133.1 94.7404 137.709C89.0009 141.391 82.4918 145.565 76.999 150.216C67.6922 158.108 81.8393 164.14 82.4483 164.39L82.6641 164.487C124.557 185.347 187.408 216.23 199.899 221.335C205.151 218.245 217.966 209.742 226.849 202.836C234.918 196.564 235.266 190.958 227.917 185.693C220.463 180.354 191.058 151.077 187.747 144.265C183.928 136.424 197.412 126.855 198.536 126.072C208.338 119.098 222.994 121.501 233.7 123.258C236.286 123.681 238.73 124.082 240.774 124.307C245.164 124.786 246.311 126.331 246.502 127.547C247.036 130.96 240.97 134.58 234.552 138.413C232.306 139.754 229.989 141.136 228.898 142.004C228.709 142.574 229.045 144.557 232.627 148.079C235.046 150.455 237.678 152.312 238.932 153.056C241.506 152.723 248.41 151.05 253.574 149.798C265.006 147.025 276.832 144.153 283.297 144.243C290.231 144.336 295.37 146.589 296.712 150.116C297.883 153.197 296.046 156.715 291.667 159.773C285.962 163.754 274.935 168.13 265.211 171.991C262.109 173.222 259.155 174.395 256.932 175.344C257.084 176.888 259.091 180.86 266.174 187.931C271.296 193.041 276.104 196.824 278.512 198.384C285.655 195.078 305.129 184.796 307.781 182.442C308.96 181.08 312.813 173.322 315.833 163.62C319.887 150.593 318.52 146.3 317.652 145.744C310.33 141.649 238.135 108.2 216.563 105.271C194.141 102.228 105.675 105.203 97.1851 105.882C97.1341 105.895 97.0859 105.899 97.0437 105.903Z" fill="white"/>
<path d="M196.153 227.381C194.495 226.924 192.263 225.937 188.496 224.254C184.247 222.35 178.196 219.524 170.515 215.865C157.969 209.882 140.571 201.414 120.197 191.377L126.996 186.496C179.468 212.343 195.181 219.44 199.873 221.351C205.116 218.269 217.943 209.753 226.827 202.848C234.895 196.575 235.244 190.969 227.895 185.704C220.44 180.366 191.036 151.088 187.725 144.277C183.908 136.441 197.38 126.869 198.514 126.084C208.315 119.109 222.971 121.512 233.678 123.269C236.264 123.693 238.707 124.094 240.752 124.319C245.141 124.798 246.289 126.343 246.48 127.559C247.014 130.972 240.948 134.591 234.53 138.425C232.284 139.766 229.966 141.148 228.876 142.015C228.687 142.586 229.023 144.568 232.605 148.09C235.024 150.467 237.655 152.323 238.91 153.068C241.484 152.734 248.388 151.061 253.551 149.809C264.984 147.036 276.81 144.165 283.275 144.254C290.208 144.348 295.348 146.601 296.69 150.128C297.861 153.209 296.023 156.727 291.645 159.785L285.589 156.646C287.436 155.358 288.168 154.031 287.705 152.816C287.066 151.133 284.338 150.058 280.597 150.004C275.989 149.94 263.661 152.93 254.66 155.118C240.439 158.568 235.821 159.6 233.031 158.41C231.01 157.541 226.813 154.499 223.792 151.356C219.01 146.378 218.394 142.527 221.91 139.581C223.612 138.155 226.333 136.53 229.221 134.809C231.392 133.512 235.098 131.301 236.684 129.975C234.391 129.714 231.88 129.305 229.232 128.87C220.935 127.51 209.58 125.646 204.639 129.177L204.542 129.243C204.445 129.309 194.22 136.45 196.592 141.326C199.663 147.629 228.446 176.255 235.498 181.302C245.292 188.312 244.531 196.955 233.363 205.639C225.182 212.001 205.216 225.828 200.46 227.291C198.95 227.759 197.859 227.852 196.153 227.381Z" fill="#9A3995"/>
<path d="M135.607 182.009L132.566 184.186L135.321 185.551L138.361 183.375L135.607 182.009Z" fill="#25282B"/>
<path d="M132.587 184.189L129.547 186.365L132.302 187.73L135.342 185.554L132.587 184.189Z" fill="white"/>
<path d="M129.54 186.356L126.5 188.532L129.255 189.897L132.295 187.721L129.54 186.356Z" fill="#25282B"/>
<path d="M126.509 188.522L123.469 190.698L126.223 192.063L129.264 189.887L126.509 188.522Z" fill="white"/>
<path d="M120.442 192.873L123.477 190.695L126.231 192.061L123.192 194.243L120.442 192.873Z" fill="#25282B"/>
<path d="M120.434 192.875L117.395 195.051L120.15 196.416L123.189 194.24L120.434 192.875Z" fill="white"/>
<path d="M117.414 195.038L114.375 197.214L117.131 198.579L120.17 196.402L117.414 195.038Z" fill="#25282B"/>
<path d="M132.84 180.659L129.801 182.836L132.557 184.2L135.596 182.024L132.84 180.659Z" fill="white"/>
<path d="M129.816 182.823L126.777 185L129.535 186.364L132.573 184.186L129.816 182.823Z" fill="#25282B"/>
<path d="M126.773 184.99L123.734 187.167L126.491 188.531L129.529 186.354L126.773 184.99Z" fill="white"/>
<path d="M123.743 187.156L120.703 189.333L123.458 190.698L126.498 188.522L123.743 187.156Z" fill="#25282B"/>
<path d="M120.711 189.339L117.672 191.516L120.428 192.88L123.467 190.703L120.711 189.339Z" fill="white"/>
<path d="M117.689 191.502L114.648 193.678L117.403 195.043L120.443 192.867L117.689 191.502Z" fill="#25282B"/>
<path d="M114.659 193.677L111.621 195.854L114.378 197.218L117.417 195.04L114.659 193.677Z" fill="white"/>
<path d="M130.082 179.288L127.043 181.465L129.799 182.829L132.838 180.652L130.082 179.288Z" fill="#25282B"/>
<path d="M124.02 183.634L127.055 181.457L129.814 182.818L126.768 184.999L124.02 183.634Z" fill="white"/>
<path d="M124.016 183.631L120.977 185.808L123.732 187.173L126.771 184.996L124.016 183.631Z" fill="#25282B"/>
<path d="M121.008 185.783L117.969 187.959L120.724 189.324L123.764 187.148L121.008 185.783Z" fill="white"/>
<path d="M117.977 187.972L114.938 190.148L117.693 191.513L120.733 189.337L117.977 187.972Z" fill="#25282B"/>
<path d="M114.915 190.142L111.875 192.318L114.63 193.683L117.67 191.507L114.915 190.142Z" fill="white"/>
<path d="M111.913 192.309L108.875 194.486L111.632 195.85L114.67 193.673L111.913 192.309Z" fill="#25282B"/>
<path d="M269.863 141.4C269.974 149.463 275.613 156.139 283.077 157.778C284.301 158.047 286.349 161.474 286.925 161.467C287.5 161.459 289.414 157.981 290.613 157.687C298.057 155.863 303.538 149.02 303.426 140.937C303.296 131.551 295.678 124.047 286.41 124.174C277.142 124.302 269.734 132.014 269.863 141.4Z" fill="#9A3995" stroke="#F5F5F5"/>
<path d="M282.773 144.147C282.375 144.211 281.721 144.329 281.279 143.838C280.836 143.347 280.442 142.151 280.262 141.08C279.995 139.502 280.219 138.165 280.892 137.317C281.289 136.817 281.815 136.524 282.412 136.47C282.924 136.424 283.692 136.615 284.448 137.79C284.921 138.526 285.287 139.508 285.452 140.484C285.65 141.661 285.846 142.918 285.23 143.378C284.882 143.638 284.631 143.73 284.038 143.881C283.55 144.004 283.17 144.083 282.773 144.147Z" fill="white"/>
<path d="M281.958 144.942L285.39 144.175C285.68 144.111 285.916 144.269 286.03 144.753C286.407 146.341 285.925 148.253 284.333 148.275C282.826 148.296 281.798 146.57 281.621 145.637C281.54 145.214 281.644 145.012 281.958 144.942Z" fill="white"/>
<path d="M289.082 140.623C288.485 140.489 288.232 140.404 287.877 140.154C287.249 139.711 287.409 138.449 287.575 137.267C287.713 136.288 288.052 135.295 288.504 134.547C289.227 133.351 289.989 133.139 290.503 133.171C291.101 133.209 291.635 133.487 292.045 133.975C292.742 134.805 293.003 136.134 292.78 137.719C292.628 138.795 292.269 139.997 291.838 140.504C291.406 141.012 290.753 140.907 290.352 140.854C289.952 140.801 289.573 140.733 289.082 140.623Z" fill="white"/>
<path d="M291.19 142.001L287.74 141.41C287.448 141.36 287.217 141.507 287.115 141.94C286.78 143.36 287.311 145.047 288.903 145.025C290.41 145.004 291.394 143.444 291.546 142.61C291.616 142.232 291.506 142.055 291.19 142.001Z" fill="white"/>
<path d="M195.14 82.37C194.926 90.4314 200.291 97.3285 207.683 99.2674C208.895 99.5853 210.803 103.093 211.378 103.108C211.954 103.123 214.007 99.7254 215.217 99.4801C222.728 97.9573 228.48 91.3415 228.694 83.26C228.943 73.877 221.633 66.0713 212.367 65.8255C203.102 65.5797 195.389 72.9869 195.14 82.37Z" fill="#9A3995" stroke="#F5F5F5"/>
<path d="M207.919 85.6336C207.52 85.6817 206.861 85.7735 206.439 85.2647C206.016 84.7559 205.671 83.5453 205.534 82.4679C205.331 80.88 205.609 79.5536 206.316 78.7333C206.732 78.2502 207.269 77.9782 207.868 77.9485C208.382 77.9225 209.142 78.1443 209.849 79.3492C210.293 80.1042 210.618 81.1001 210.744 82.0814C210.895 83.2659 211.039 84.5296 210.405 84.9644C210.047 85.21 209.793 85.2916 209.194 85.4183C208.701 85.5223 208.319 85.5852 207.919 85.6336Z" fill="white"/>
<path d="M207.073 86.3944L210.533 85.7671C210.826 85.714 211.054 85.8821 211.15 86.37C211.462 87.9714 210.903 89.8629 209.312 89.8207C207.805 89.7807 206.847 88.0149 206.708 87.0756C206.644 86.6497 206.756 86.4516 207.073 86.3944Z" fill="white"/>
<path d="M214.364 82.3666C213.773 82.2089 213.523 82.1133 213.179 81.8492C212.569 81.3814 212.78 80.1273 212.994 78.9526C213.171 77.9794 213.549 77.001 214.032 76.2719C214.801 75.1063 215.572 74.9251 216.084 74.9783C216.68 75.04 217.202 75.3395 217.592 75.8439C218.255 76.7004 218.462 78.0396 218.175 79.6144C217.981 80.6829 217.574 81.8693 217.122 82.3589C216.67 82.8485 216.022 82.718 215.624 82.6488C215.226 82.5795 214.85 82.4962 214.364 82.3666Z" fill="white"/>
<path d="M216.417 83.8288L212.993 83.0988C212.704 83.0371 212.467 83.1748 212.347 83.6031C211.955 85.0088 212.419 86.7156 214.01 86.7578C215.517 86.7977 216.562 85.2784 216.748 84.4518C216.833 84.0769 216.73 83.8955 216.417 83.8288Z" fill="white"/>
<path d="M78.1136 83.6641C78.0969 91.7284 83.6293 98.4923 91.0662 100.25C92.2854 100.538 94.2793 103.998 94.8545 103.999C95.4298 104 97.3994 100.553 98.6028 100.278C106.075 98.5724 111.663 91.818 111.68 83.7337C111.699 74.3474 104.201 66.7227 94.9319 66.7035C85.6629 66.6843 78.1331 74.2778 78.1136 83.6641Z" fill="#9A3995" stroke="#F5F5F5"/>
<path d="M90.9673 86.6152C90.569 86.673 89.9133 86.7809 89.4783 86.2826C89.0433 85.7843 88.6687 84.5825 88.5052 83.5088C88.2639 81.9262 88.5093 80.5934 89.1957 79.7561C89.6002 79.263 90.1303 78.9779 90.7287 78.9336C91.2412 78.8951 92.0065 79.0982 92.7433 80.2855C93.2048 81.0294 93.555 82.0171 93.7041 82.995C93.8842 84.1755 94.0594 85.4352 93.4362 85.8854C93.0846 86.1396 92.8324 86.2274 92.2366 86.3688C91.7466 86.4848 91.3659 86.557 90.9673 86.6152Z" fill="white"/>
<path d="M90.1383 87.3964L93.5818 86.6847C93.8727 86.6245 94.1056 86.7869 94.2127 87.2723C94.5641 88.8656 94.0519 90.7702 92.46 90.7669C90.9526 90.7638 89.9516 89.0219 89.7895 88.0863C89.7155 87.6621 89.8227 87.4613 90.1383 87.3964Z" fill="white"/>
<path d="M97.3316 83.1916C96.7363 83.0484 96.4845 82.959 96.134 82.7033C95.5127 82.2506 95.6931 80.9917 95.8781 79.8121C96.0312 78.8349 96.3856 77.8475 96.8501 77.1069C97.5912 75.9228 98.3573 75.7228 98.8702 75.7635C99.4679 75.8106 99.9971 76.0972 100.4 76.5919C101.083 77.432 101.323 78.7657 101.075 80.347C100.906 81.42 100.528 82.616 100.088 83.1165C99.6488 83.617 98.9973 83.5024 98.598 83.4429C98.1987 83.3834 97.8208 83.3093 97.3316 83.1916Z" fill="white"/>
<path d="M99.4184 84.6028L95.9778 83.9567C95.6871 83.9021 95.4535 84.0455 95.3445 84.4766C94.9872 85.8915 95.492 87.5864 97.0838 87.5897C98.5913 87.5928 99.599 86.0484 99.7648 85.2175C99.8402 84.8407 99.7337 84.6618 99.4184 84.6028Z" fill="white"/>
</svg>
