<svg width="88" height="90" viewBox="0 0 88 90" fill="none" xmlns="http://www.w3.org/2000/svg">
<g filter="url(#filter0_d)">
<circle cx="45" cy="41" r="20" fill="white"/>
</g>
<path d="M45.2245 42.9227C45.4758 42.9227 45.7167 42.8229 45.8943 42.6453C46.072 42.4677 46.1717 42.2267 46.1717 41.9755C46.1717 41.7243 46.072 41.4834 45.8943 41.3057C45.7167 41.1281 45.4758 41.0283 45.2245 41.0283C44.9733 41.0283 44.7324 41.1281 44.5548 41.3057C44.3771 41.4834 44.2773 41.7243 44.2773 41.9755C44.2773 42.2267 44.3771 42.4677 44.5548 42.6453C44.7324 42.8229 44.9733 42.9227 45.2245 42.9227Z" fill="#9A3995"/>
<path d="M44.7879 48.1006L44.4612 47.7756C43.6273 46.9469 42.7937 46.1179 41.9606 45.2884C41.3135 44.6412 40.8728 43.8167 40.6943 42.9191C40.5158 42.0215 40.6075 41.0911 40.9578 40.2456C41.308 39.4001 41.9011 38.6774 42.6621 38.169C43.423 37.6605 44.3177 37.3892 45.2329 37.3892C46.1481 37.3892 47.0427 37.6605 47.8037 38.169C48.5646 38.6774 49.1577 39.4001 49.508 40.2456C49.8582 41.0911 49.9499 42.0215 49.7714 42.9191C49.5929 43.8167 49.1522 44.6412 48.5051 45.2884C48.1313 45.6623 47.4241 46.3661 46.8111 46.9749L45.6778 48.1006C45.5596 48.218 45.3996 48.284 45.2329 48.284C45.0662 48.284 44.9062 48.218 44.7879 48.1006ZM42.8548 39.6372C42.2239 40.2682 41.8694 41.1239 41.8694 42.0162C41.8694 42.9084 42.2239 43.7642 42.8548 44.3951C43.2606 44.8009 43.9661 45.5031 44.5715 46.1043L45.2341 46.7627L45.9212 46.079C46.535 45.4694 47.2405 44.7681 47.6135 44.3951C47.9259 44.0826 48.1737 43.7117 48.3428 43.3035C48.5118 42.8952 48.5988 42.4577 48.5988 42.0159C48.5987 41.574 48.5117 41.1365 48.3425 40.7283C48.1734 40.3201 47.9256 39.9492 47.6131 39.6368C47.3006 39.3244 46.9297 39.0766 46.5215 38.9075C46.1132 38.7385 45.6757 38.6515 45.2338 38.6515C44.792 38.6516 44.3545 38.7386 43.9463 38.9077C43.5381 39.0769 43.1672 39.3247 42.8548 39.6372Z" fill="#9A3995"/>
<path d="M37.8822 34.369C38.0161 34.2684 38.1845 34.2252 38.3504 34.2488C38.5162 34.2724 38.6659 34.3609 38.7664 34.4948C38.867 34.6288 38.9102 34.7972 38.8866 34.9631C38.863 35.1289 38.7745 35.2786 38.6406 35.3791C35.1026 38.0336 34.0751 42.9188 36.2444 46.7732C36.2851 46.8455 36.3111 46.9251 36.321 47.0074C36.3309 47.0898 36.3246 47.1733 36.3022 47.2531C36.2799 47.333 36.242 47.4077 36.1908 47.4729C36.1396 47.5382 36.076 47.5927 36.0037 47.6334C35.9315 47.674 35.8519 47.7001 35.7695 47.71C35.6872 47.7199 35.6037 47.7135 35.5238 47.6912C35.444 47.6688 35.3693 47.631 35.3041 47.5798C35.2388 47.5285 35.1843 47.465 35.1436 47.3927C32.6632 42.9842 33.8378 37.403 37.8822 34.369Z" fill="#9A3995"/>
<path d="M39.4652 36.8298C39.5968 36.7265 39.764 36.6797 39.9301 36.6995C40.0962 36.7194 40.2476 36.8043 40.3511 36.9357C40.4546 37.067 40.5018 37.2341 40.4823 37.4003C40.4628 37.5664 40.3781 37.718 40.2469 37.8218C39.1695 38.6744 38.4245 39.8773 38.1412 41.2218C37.858 42.5663 38.0542 43.9675 38.696 45.1824C38.7745 45.3304 38.791 45.5035 38.7419 45.6636C38.6928 45.8237 38.5821 45.9578 38.4342 46.0363C38.2862 46.1148 38.1131 46.1313 37.953 46.0822C37.7929 46.0331 37.6588 45.9224 37.5803 45.7744C36.7999 44.2982 36.5611 42.5953 36.9054 40.9613C37.2498 39.3274 38.1554 37.8656 39.4652 36.8298Z" fill="#9A3995"/>
<path d="M52.7428 34.369C52.6089 34.2684 52.4405 34.2252 52.2746 34.2488C52.1088 34.2724 51.9591 34.3609 51.8586 34.4948C51.758 34.6288 51.7148 34.7972 51.7384 34.9631C51.762 35.1289 51.8505 35.2786 51.9844 35.3791C55.5224 38.0336 56.5499 42.9188 54.3806 46.7732C54.3399 46.8455 54.3139 46.9251 54.304 47.0074C54.2941 47.0898 54.3004 47.1733 54.3228 47.2531C54.3451 47.333 54.383 47.4077 54.4342 47.4729C54.4854 47.5382 54.549 47.5927 54.6213 47.6334C54.6935 47.674 54.7731 47.7001 54.8555 47.71C54.9378 47.7199 55.0213 47.7135 55.1012 47.6912C55.181 47.6688 55.2557 47.631 55.3209 47.5798C55.3862 47.5285 55.4407 47.465 55.4814 47.3927C57.9618 42.9842 56.7872 37.403 52.7428 34.369Z" fill="#9A3995"/>
<path d="M51.1598 36.8298C51.0282 36.7265 50.861 36.6797 50.6949 36.6995C50.5288 36.7194 50.3774 36.8043 50.2739 36.9357C50.1704 37.067 50.1232 37.2341 50.1427 37.4003C50.1622 37.5664 50.2469 37.718 50.3781 37.8218C51.4555 38.6744 52.2005 39.8773 52.4838 41.2218C52.767 42.5663 52.5708 43.9675 51.929 45.1824C51.8505 45.3304 51.834 45.5035 51.8831 45.6636C51.9322 45.8237 52.0429 45.9578 52.1908 46.0363C52.3388 46.1148 52.5119 46.1313 52.672 46.0822C52.8321 46.0331 52.9662 45.9224 53.0447 45.7744C53.8251 44.2982 54.0639 42.5953 53.7196 40.9613C53.3752 39.3274 52.4696 37.8656 51.1598 36.8298Z" fill="#9A3995"/>
<defs>
<filter id="filter0_d" x="0" y="0" width="90" height="90" filterUnits="userSpaceOnUse" color-interpolation-filters="sRGB">
<feFlood flood-opacity="0" result="BackgroundImageFix"/>
<feColorMatrix in="SourceAlpha" type="matrix" values="0 0 0 0 0 0 0 0 0 0 0 0 0 0 0 0 0 0 127 0"/>
<feOffset dy="4"/>
<feGaussianBlur stdDeviation="12.5"/>
<feColorMatrix type="matrix" values="0 0 0 0 0.603922 0 0 0 0 0.223529 0 0 0 0 0.584314 0 0 0 0.3 0"/>
<feBlend mode="normal" in2="BackgroundImageFix" result="effect1_dropShadow"/>
<feBlend mode="normal" in="SourceGraphic" in2="effect1_dropShadow" result="shape"/>
</filter>
</defs>
</svg>
