<svg width="89" height="90" viewBox="0 0 89 90" fill="none" xmlns="http://www.w3.org/2000/svg">
<g filter="url(#filter0_d)">
<circle cx="45" cy="41" r="20" fill="white"/>
</g>
<path d="M53.963 34.7692H50.5L49.675 32.5242C49.618 32.3706 49.5136 32.2378 49.3759 32.1439C49.2383 32.0501 49.0742 31.9999 48.906 32H41.094C40.7502 32 40.4421 32.2102 40.3275 32.5242L39.5 34.7692H36.037C34.9116 34.7692 34 35.6544 34 36.7473V48.022C34 49.1148 34.9116 50 36.037 50H53.963C55.0884 50 56 49.1148 56 48.022V36.7473C56 35.6544 55.0884 34.7692 53.963 34.7692ZM54.1667 48.022C54.1667 48.1308 54.075 48.2198 53.963 48.2198H36.037C35.925 48.2198 35.8333 48.1308 35.8333 48.022V36.7473C35.8333 36.6385 35.925 36.5495 36.037 36.5495H40.791L41.2264 35.3676L41.8095 33.7802H48.188L48.7711 35.3676L49.2065 36.5495H53.963C54.075 36.5495 54.1667 36.6385 54.1667 36.7473V48.022ZM45 38.1319C42.7491 38.1319 40.9259 39.9022 40.9259 42.0879C40.9259 44.2736 42.7491 46.044 45 46.044C47.2509 46.044 49.0741 44.2736 49.0741 42.0879C49.0741 39.9022 47.2509 38.1319 45 38.1319ZM45 44.4615C43.6505 44.4615 42.5556 43.3984 42.5556 42.0879C42.5556 40.7775 43.6505 39.7143 45 39.7143C46.3495 39.7143 47.4444 40.7775 47.4444 42.0879C47.4444 43.3984 46.3495 44.4615 45 44.4615Z" fill="#9A3995"/>
<defs>
<filter id="filter0_d" x="0" y="0" width="90" height="90" filterUnits="userSpaceOnUse" color-interpolation-filters="sRGB">
<feFlood flood-opacity="0" result="BackgroundImageFix"/>
<feColorMatrix in="SourceAlpha" type="matrix" values="0 0 0 0 0 0 0 0 0 0 0 0 0 0 0 0 0 0 127 0"/>
<feOffset dy="4"/>
<feGaussianBlur stdDeviation="12.5"/>
<feColorMatrix type="matrix" values="0 0 0 0 0.603922 0 0 0 0 0.223529 0 0 0 0 0.584314 0 0 0 0.3 0"/>
<feBlend mode="normal" in2="BackgroundImageFix" result="effect1_dropShadow"/>
<feBlend mode="normal" in="SourceGraphic" in2="effect1_dropShadow" result="shape"/>
</filter>
</defs>
</svg>
