<svg width="22" height="19" viewBox="0 0 22 19" fill="none" xmlns="http://www.w3.org/2000/svg">
<path d="M0.500007 3.21791L0.500006 3.21723C0.499519 2.86172 0.570274 2.50941 0.708436 2.18037C0.846607 1.85132 1.04959 1.55174 1.3062 1.29899C1.56282 1.04622 1.86803 0.845265 2.20458 0.708011C2.54114 0.570751 2.90219 0.5 3.267 0.5H18.733C19.0978 0.5 19.4589 0.570751 19.7954 0.708011C20.132 0.845265 20.4372 1.04622 20.6938 1.29899C20.9504 1.55174 21.1534 1.85132 21.2916 2.18037C21.4297 2.50941 21.5005 2.86172 21.5 3.21723V3.21791L21.5 11.6836L21.5 11.6846C21.5007 12.0398 21.4303 12.3919 21.2926 12.7208C21.1549 13.0497 20.9525 13.3492 20.6964 13.6021C20.4404 13.855 20.1358 14.0562 19.7997 14.1939C19.4638 14.3316 19.1034 14.4029 18.7391 14.4037C18.7389 14.4037 18.7388 14.4037 18.7386 14.4037L10.1596 14.4037H9.96613L9.82304 14.5339L5.87632 18.1261C5.87629 18.1262 5.87627 18.1262 5.87625 18.1262C5.41647 18.5445 5.17587 18.5075 5.13007 18.4878C5.08928 18.4703 4.9 18.3302 4.9 17.7169V14.9037V14.4037H4.4H3.267C2.90203 14.4037 2.54083 14.3329 2.20415 14.1955L2.01525 14.6584L2.20414 14.1955C1.86747 14.0581 1.56218 13.857 1.30554 13.604C1.04891 13.3511 0.845963 13.0513 0.707902 12.722L0.246795 12.9154L0.707902 12.722C0.569849 12.3928 0.499275 12.0403 0.500007 11.6846V11.6836L0.500007 3.21791ZM6.66727e-06 3.21791V11.6836V3.21791Z" stroke="#9A3995"/>
</svg>
