<svg width="22" height="22" viewBox="0 0 22 22" fill="none" xmlns="http://www.w3.org/2000/svg">
<path d="M8.83108 15.563L8.81406 15.414C8.78312 15.4175 8.75154 15.4241 8.72685 15.4297C8.71747 15.4313 8.70671 15.4328 8.69212 15.4347L8.68886 15.4351C8.67819 15.4365 8.66553 15.4382 8.65226 15.4402H8.65208H8.65174H8.6514H8.65106H8.65072H8.65038H8.65004H8.6497H8.64936H8.64903H8.64869H8.64835H8.64801H8.64767H8.64733H8.64699H8.64666H8.64632H8.64598H8.64564H8.6453H8.64496H8.64463H8.64429H8.64395H8.64361H8.64327H8.64294H8.6426H8.64226H8.64192H8.64159H8.64125H8.64091H8.64057H8.64024H8.6399H8.63956H8.63922H8.63889H8.63855H8.63821H8.63787H8.63754H8.6372H8.63686H8.63653H8.63619H8.63585H8.63551H8.63518H8.63484H8.6345H8.63417H8.63383H8.63349H8.63316H8.63282H8.63248H8.63215H8.63181H8.63147H8.63114H8.6308H8.63047H8.63013H8.62979H8.62946H8.62912H8.62878H8.62845H8.62811H8.62778H8.62744H8.6271H8.62677H8.62643H8.6261H8.62576H8.62542H8.62509H8.62475H8.62442H8.62408H8.62375H8.62341H8.62307H8.62274H8.6224H8.62207H8.62173H8.6214H8.62106H8.62073H8.62039H8.62006H8.61972H8.61939H8.61905H8.61871H8.61838H8.61804H8.61771H8.61737H8.61704H8.6167H8.61637H8.61603H8.6157H8.61536H8.61503H8.61469H8.61436H8.61402H8.61369H8.61336H8.61302H8.61269H8.61235H8.61202H8.61168H8.61135H8.61101H8.61068H8.61034H8.61001H8.60967H8.60934H8.60901H8.60867H8.60834H8.608H8.60767H8.60733H8.607H8.60666H8.60633H8.606H8.60566H8.60533H8.60499H8.60466H8.60433H8.60399H8.60366H8.60332H8.60299H8.60265H8.60232H8.60199H8.60165H8.60132H8.60098H8.60065H8.60032H8.59998H8.59965H8.59931H8.59898H8.59865H8.59831H8.59798H8.59765H8.59731H8.59698H8.59664H8.59631H8.59598H8.59564H8.59531H8.59497H8.59464H8.59431H8.59397H8.59364H8.59331H8.59297H8.59264H8.59231H8.59197H8.59164H8.5913H8.59097H8.59064H8.5903H8.58997H8.58964H8.5893H8.58897H8.58864H8.5883H8.58797H8.58763H8.5873H8.58697H8.58663H8.5863H8.58597H8.58563H8.5853H8.58497H8.58463H8.5843H8.58397H8.58363H8.5833H8.58297H8.58263H8.5823H8.58197H8.58163H8.5813H8.58097H8.58063H8.5803H8.57996H8.57963H8.5793H8.57896H8.57863H8.5783H8.57796H8.57763H8.5773H8.57696H8.57663H8.5763H8.57596H8.57563H8.5753H8.57496H8.57463H8.5743H8.57396H8.57363H8.5733H8.57296H8.57263H8.5723H8.57196H8.57163H8.57129H8.57096H8.57063H8.57029H8.56996H8.56963H8.56929H8.56896H8.56863H8.56829H8.56796H8.56763H8.56729H8.56696H8.56662H8.56629H8.56596H8.56562H8.56529H8.56496H8.56462H8.56429H8.56396H8.56362H8.56329H8.56295H8.56262H8.56229H8.56195H8.56162H8.56129H8.56095H8.56062H8.56028H8.55995H8.55962H8.55928H8.55895H8.55862H8.55828H8.55795H8.55761H8.55728H8.55695H8.55661H8.55628H8.55594H8.55561H8.55528H8.55494H8.55461H8.55427H8.55394H8.55361H8.55327H8.55294H8.5526H8.55227H8.55194H8.5516H8.55127H8.55093H8.5506H8.55026H8.54993H8.5496H8.54926H8.54893H8.54859H8.54826H8.54792H8.54759H8.54725H8.54692H8.54659H8.54625H8.54592H8.54558H8.54525H8.54491H8.54458H8.54424H8.54391H8.54357H8.54324H8.5429H8.54257H8.54224H8.5419H8.54157H8.54123H8.5409H8.54056H8.54023H8.53989H8.53956H8.53922H8.53889H8.53855H8.53822H8.53788H8.53754H8.53721H8.53687H8.53654H8.5362H8.53587H8.53553H8.5352H8.53486H8.53453H8.53419H8.53386H8.53352H8.53318H8.53285H8.53251H8.53218H8.53184H8.53151H8.53117H8.53083H8.5305H8.53016H8.52983H8.52949H8.52915H8.52882H8.52848H8.52815H8.52781H8.52747H8.52714H8.5268H8.52647H8.52613H8.52579H8.52546H8.52512H8.52478H8.52445H8.52411H8.52377H8.52344H8.5231H8.52276H8.52243H8.52209H8.52175H8.52142H8.52108H8.52074H8.52041H8.52007H8.51973H8.5194H8.51906H8.51872H8.51838H8.51805H8.51771H8.51737H8.51703H8.5167H8.51636H8.51602H8.51568H8.51535H8.51501H8.51467H8.51433H8.514H8.51366H8.51332H8.51298H8.51264H8.51231H8.51197H8.51163H8.51129H8.51095H8.51062H8.51028H8.50994H8.5096H8.50926H8.50892H8.50858H8.50825H8.50791H8.50757H8.50723H8.50689H8.50655H8.50621H8.50587H8.50554H8.5052H8.50486H8.50452H8.50418H8.50404C8.47483 15.4356 8.4413 15.4306 8.40686 15.4276C8.3815 15.4238 8.35597 15.4215 8.33579 15.4196C8.33238 15.4193 8.32913 15.4191 8.32606 15.4188C8.3017 15.4165 8.28432 15.4145 8.26933 15.4114C8.2527 15.4073 8.23732 15.4048 8.22489 15.403L8.20633 15.4005L8.19149 15.3985C8.17301 15.3959 8.16846 15.3941 8.16734 15.3936L8.14634 15.3841L8.12349 15.3814C8.08095 15.3764 8.04166 15.3628 7.98494 15.3432C7.97672 15.3403 7.96812 15.3374 7.9591 15.3343C7.86087 15.2997 7.76543 15.2548 7.66625 15.2025L7.59452 15.1628C7.60332 15.1574 7.61231 15.1519 7.62143 15.1464C7.67445 15.114 7.73211 15.0787 7.78563 15.0421C7.99162 14.9009 8.18278 14.7417 8.35534 14.5559C8.50053 14.4037 8.62832 14.2351 8.739 14.0559L8.73929 14.0554C8.83473 13.8996 8.91295 13.7358 8.97691 13.5643L8.97692 13.5643L8.97728 13.5633C8.98268 13.5485 8.98701 13.5343 8.99012 13.5241L8.99047 13.5229C8.99396 13.5114 8.99612 13.5044 8.99846 13.498L8.99846 13.498L8.99883 13.497C9.01219 13.4595 9.03145 13.4463 9.05621 13.4414L9.05622 13.4414L9.05789 13.441C9.06906 13.4387 9.08131 13.4404 9.09473 13.4481C9.10938 13.4565 9.12061 13.4697 9.12595 13.4814L9.1259 13.4814L9.12764 13.485C9.15751 13.5464 9.1814 13.6121 9.20407 13.6845C9.21904 13.7324 9.23113 13.7778 9.24409 13.8265C9.25083 13.8518 9.25781 13.8781 9.26555 13.906C9.27005 13.9247 9.27333 13.941 9.27486 13.9551L9.27473 13.9551L9.27564 13.9612C9.27909 13.9843 9.28244 14.0043 9.28544 14.0223C9.29366 14.0714 9.29936 14.1055 9.29791 14.1458L9.29781 14.1458V14.1512C9.29781 14.185 9.3001 14.218 9.302 14.2453L9.30214 14.2473C9.30419 14.2767 9.30575 14.3001 9.30575 14.3226C9.30575 14.3535 9.30513 14.3853 9.30446 14.4189L9.30444 14.4196C9.30379 14.4524 9.3031 14.487 9.3031 14.5211C9.3031 14.5287 9.3027 14.5368 9.302 14.5498L9.30193 14.5511C9.30131 14.5625 9.30046 14.5782 9.30046 14.5946C9.30046 14.6351 9.2956 14.6723 9.28929 14.7205C9.28731 14.7357 9.28519 14.7519 9.28303 14.7696L9.28293 14.7696L9.28248 14.7749C9.27561 14.855 9.25965 14.9303 9.23422 15.0064C9.21561 15.061 9.19815 15.1122 9.17843 15.1629C9.13976 15.2611 9.06937 15.3269 8.9675 15.3709L9.02695 15.5086M8.83108 15.563L8.81341 15.4141C8.8652 15.4079 8.91472 15.3935 8.9679 15.3707L9.02695 15.5086M8.83108 15.563C8.8999 15.5549 8.96342 15.5358 9.02695 15.5086M8.83108 15.563C8.80726 15.5658 8.78079 15.5712 8.75696 15.5766C8.74153 15.5795 8.72536 15.5816 8.70884 15.5838C8.69418 15.5857 8.67925 15.5877 8.66432 15.5902L9.43193 14.7877M9.02695 15.5086C9.1593 15.4515 9.26253 15.359 9.31811 15.2175C9.33929 15.1631 9.35781 15.1087 9.37634 15.0543L9.37634 15.0543C9.40546 14.9673 9.42399 14.8802 9.43193 14.7877M9.43193 14.7877C9.43364 14.7737 9.43547 14.7597 9.4373 14.7459C9.44394 14.6954 9.45046 14.6458 9.45046 14.5946C9.45046 14.5823 9.45112 14.5701 9.45178 14.5579C9.45244 14.5456 9.4531 14.5334 9.4531 14.5211C9.4531 14.4885 9.45377 14.4552 9.45443 14.4218C9.45509 14.3885 9.45575 14.3552 9.45575 14.3226C9.45575 14.294 9.45377 14.2654 9.45178 14.2369C9.4498 14.2083 9.44781 14.1797 9.44781 14.1512L9.43193 14.7877ZM8.85755 13.4466C8.85358 13.4575 8.85027 13.4684 8.84696 13.4793C8.84365 13.4901 8.84034 13.501 8.83637 13.5119C8.77549 13.6751 8.70138 13.8302 8.61138 13.9771C8.50551 14.1485 8.38375 14.309 8.24611 14.4531C8.082 14.63 7.89936 14.7823 7.70084 14.9183C7.65089 14.9525 7.59766 14.9851 7.54502 15.0173C7.53072 15.026 7.51646 15.0347 7.50232 15.0434C7.48379 15.0543 7.46791 15.0652 7.45203 15.0788C7.38851 15.1332 7.40439 15.2284 7.46262 15.2611C7.46791 15.2638 7.47255 15.2665 7.47718 15.2692C7.48181 15.272 7.48644 15.2747 7.49174 15.2774L7.59497 15.3345C7.6982 15.3889 7.80143 15.4379 7.90995 15.476C7.91822 15.4788 7.9265 15.4817 7.93479 15.4846C7.99012 15.5038 8.04597 15.5233 8.10582 15.5304C8.13179 15.5421 8.15875 15.5456 8.18549 15.549C8.20236 15.5512 8.21914 15.5534 8.23552 15.5576C8.26417 15.5638 8.29368 15.5665 8.32307 15.5691C8.34527 15.5711 8.3674 15.5731 8.38904 15.5766C8.42345 15.5794 8.45786 15.5848 8.49227 15.5902L8.85755 13.4466ZM8.85755 13.4466C8.88666 13.365 8.9449 13.3106 9.02695 13.2943C9.13018 13.2725 9.22547 13.3378 9.26253 13.4194C9.29694 13.4901 9.32341 13.5636 9.34723 13.6398C9.36311 13.6905 9.37664 13.7413 9.39017 13.7921C9.39693 13.8175 9.4037 13.8429 9.41075 13.8683L8.85755 13.4466Z" stroke="#9A3995" stroke-width="0.3"/>
<path d="M8.6563 11.4131L8.50968 11.3815C8.50833 11.3877 8.5068 11.3945 8.50515 11.4019C8.49578 11.4435 8.48268 11.5019 8.47955 11.5596C8.47776 11.5849 8.47513 11.6093 8.47216 11.6368C8.47101 11.6475 8.4698 11.6587 8.46858 11.6706C8.46439 11.7111 8.46035 11.7569 8.46035 11.8052V11.8056V11.806V11.8064V11.8069V11.8073V11.8077V11.8081V11.8086V11.809V11.8094V11.8098V11.8103V11.8107V11.8111V11.8115V11.812V11.8124V11.8128V11.8132V11.8137V11.8141V11.8145V11.8149V11.8154V11.8158V11.8162V11.8166V11.8171V11.8175V11.8179V11.8183V11.8188V11.8192V11.8196V11.82V11.8205V11.8209V11.8213V11.8217V11.8222V11.8226V11.823V11.8234V11.8239V11.8243V11.8247V11.8251V11.8256V11.826V11.8264V11.8268V11.8273V11.8277V11.8281V11.8286V11.829V11.8294V11.8298V11.8303V11.8307V11.8311V11.8315V11.832V11.8324V11.8328V11.8333V11.8337V11.8341V11.8345V11.835V11.8354V11.8358V11.8362V11.8367V11.8371V11.8375V11.838V11.8384V11.8388V11.8392V11.8397V11.8401V11.8405V11.8409V11.8414V11.8418V11.8422V11.8427V11.8431V11.8435V11.8439V11.8444V11.8448V11.8452V11.8457V11.8461V11.8465V11.8469V11.8474V11.8478V11.8482V11.8487V11.8491V11.8495V11.8499V11.8504V11.8508V11.8512V11.8517V11.8521V11.8525V11.853V11.8534V11.8538V11.8542V11.8547V11.8551V11.8555V11.856V11.8564V11.8568V11.8572V11.8577V11.8581V11.8585V11.859V11.8594V11.8598V11.8603V11.8607V11.8611V11.8615V11.862V11.8624V11.8628V11.8633V11.8637V11.8641V11.8645V11.865V11.8654V11.8658V11.8663V11.8667V11.8671V11.8676V11.868V11.8684V11.8689V11.8693V11.8697V11.8701V11.8706V11.871V11.8714V11.8719V11.8723V11.8727V11.8732V11.8736V11.874V11.8744V11.8749V11.8753V11.8757V11.8762V11.8766V11.877V11.8775V11.8779V11.8783V11.8788V11.8792V11.8796V11.88V11.8805V11.8809V11.8813V11.8818V11.8822V11.8826V11.8831V11.8835V11.8839V11.8844V11.8848V11.8852V11.8857V11.8861V11.8865V11.8869V11.8874V11.8878V11.8882V11.8887V11.8891V11.8895V11.89V11.8904V11.8908V11.8913V11.8917V11.8921V11.8926V11.893V11.8934V11.8938V11.8943V11.8947V11.8951V11.8956V11.896V11.8964V11.8969V11.8973V11.8977V11.8982V11.8986V11.899V11.8995V11.8999V11.9003V11.9008V11.9012V11.9016V11.902V11.9025V11.9029V11.9033V11.9038V11.9042V11.9046V11.9051V11.9055V11.9059V11.9064V11.9068V11.9072V11.9077V11.9081V11.9085V11.909V11.9094V11.9098V11.9102V11.9107V11.9111V11.9115V11.912V11.9124V11.9128V11.9133V11.9137V11.9141V11.9146V11.915V11.9154V11.9159V11.9163V11.9167V11.9172V11.9176V11.918V11.9184V11.9189V11.9193V11.9197V11.9202V11.9206V11.921V11.9215V11.9219V11.9223V11.9228V11.9232V11.9236V11.9241V11.9245V11.9249V11.9254V11.9258V11.9262V11.9267V11.9271V11.9275V11.9279V11.9284V11.9288V11.9292V11.9297V11.9301V11.9305V11.931V11.9314V11.9318V11.9323V11.9327V11.9331V11.9336V11.934V11.9344V11.9349V11.9353V11.9357V11.9361V11.9366V11.937V11.9374V11.9379V11.9383V11.9387V11.9392V11.9396V11.94V11.9405V11.9409V11.9413V11.9418V11.9422V11.9426V11.943V11.9435V11.9439V11.9443V11.9448V11.9452V11.9456V11.9461V11.9465V11.9469V11.9474V11.9478V11.9482V11.9487V11.9491V11.9495V11.9499V11.9504V11.9508V11.9512V11.9517V11.9521V11.9525V11.953V11.9534V11.9538V11.9543V11.9547V11.9551V11.9555V11.956V11.9564V11.9568V11.9573V11.9577V11.9581V11.9586V11.959V11.9594V11.9598V11.9603V11.9607V11.9611V11.9616V11.962V11.9624V11.9629V11.9633V11.9637V11.9642V11.9646V11.965V11.9654V11.9659V11.9663V11.9667V11.9672V11.9676V11.968V11.9685V11.9689V11.9693V11.9697V11.9702V11.9706V11.971V11.9715V11.9719V11.9723V11.9727V11.9732V11.9736V11.974V11.9745V11.9749V11.9753V11.9758V11.9762V11.9766V11.977V11.9775V11.9779V11.9783V11.9788V11.9792V11.9796V11.98V11.9805V11.9809V11.9813V11.9818V11.9822V11.9826V11.983V11.9835V11.9839V11.9843V11.9848V11.9852V11.9856V11.986V11.9865V11.9869V11.9873V11.9878V11.9882V11.9886V11.989V11.9895V11.9899V11.9903V11.9908V11.9912V11.9916V11.992V11.9925V11.9929V11.9933V11.9937V11.9942V11.9946V11.995V11.9955V11.9959V11.9963V11.9967V11.9972V11.9976V11.998V11.9984V11.9989V11.9993V11.9997V12.0002V12.0006V12.001V12.0014V12.0019V12.0023V12.0027V12.0031V12.0036V12.004V12.0044V12.0048V12.0053V12.0057V12.0061V12.0066V12.007V12.0074V12.0078V12.0083V12.0087V12.0091V12.0095V12.01V12.0104V12.0108V12.0112V12.0117V12.0121V12.0125V12.0129V12.0134V12.0138V12.0142V12.0146V12.0151V12.0155V12.0159V12.0163V12.0168V12.0172V12.0176V12.018V12.0185V12.0189V12.0193V12.0197V12.0202V12.0206V12.021V12.0211C8.45736 12.0845 8.46435 12.1421 8.47301 12.193C8.48144 12.2515 8.46651 12.294 8.42441 12.3373L8.42437 12.3373L8.42163 12.3403C8.40532 12.358 8.38275 12.3696 8.34128 12.373L8.341 12.3731L8.34097 12.3731C8.34046 12.373 8.33334 12.3729 8.31574 12.3653C8.26604 12.3436 8.22019 12.3106 8.169 12.2654L8.169 12.2654L8.16801 12.2646C8.0779 12.1865 7.99938 12.0915 7.92483 11.9857L7.92484 11.9857L7.92342 11.9837C7.81628 11.8368 7.72318 11.6749 7.63911 11.5074C7.57675 11.3819 7.51611 11.2597 7.46093 11.1354L7.46093 11.1354L7.46059 11.1346C7.41147 11.0256 7.367 10.9101 7.32433 10.7921L7.32433 10.7921L7.32421 10.7918C7.3147 10.7657 7.30885 10.7382 7.30644 10.6981C7.30909 10.6538 7.3216 10.6078 7.34553 10.5652C7.37288 10.5193 7.40428 10.4874 7.43976 10.4668L7.4398 10.4668L7.44373 10.4644C7.53296 10.4087 7.61275 10.3602 7.69848 10.3199L7.69848 10.3199L7.69898 10.3197C7.76177 10.2898 7.8274 10.2648 7.89339 10.2446C7.91847 10.2374 7.93973 10.231 7.96004 10.2248C7.98663 10.2167 8.0116 10.2091 8.04142 10.201L8.00222 10.0563M8.6563 11.4131L8.50954 11.3821C8.51233 11.3689 8.51542 11.3519 8.51891 11.3326C8.52728 11.2864 8.53796 11.2275 8.55232 11.1782C8.58888 11.0397 8.63407 10.9031 8.69081 10.7688C8.77593 10.5617 8.88321 10.3645 9.0037 10.18L9.00525 10.1776L9.00527 10.1776C9.01198 10.1678 9.01763 10.1596 9.02254 10.1526C9.02661 10.1467 9.03017 10.1416 9.03339 10.1369C9.01557 10.1329 9.0064 10.1312 8.99415 10.1312C8.99349 10.1312 8.99273 10.1312 8.99187 10.1312C8.9808 10.1312 8.95362 10.1313 8.9262 10.1264C8.87983 10.1198 8.8292 10.1173 8.77792 10.1173H8.77751H8.7771H8.77669H8.77628H8.77586H8.77545H8.77504H8.77463H8.77422H8.77381H8.7734H8.77299H8.77257H8.77216H8.77175H8.77134H8.77093H8.77052H8.77011H8.7697H8.76929H8.76888H8.76847H8.76806H8.76765H8.76724H8.76683H8.76642H8.76601H8.7656H8.76519H8.76478H8.76437H8.76396H8.76355H8.76314H8.76273H8.76232H8.76191H8.7615H8.76109H8.76068H8.76027H8.75986H8.75945H8.75904H8.75863H8.75823H8.75782H8.75741H8.757H8.75659H8.75618H8.75577H8.75536H8.75495H8.75455H8.75414H8.75373H8.75332H8.75291H8.7525H8.75209H8.75169H8.75128H8.75087H8.75046H8.75005H8.74965H8.74924H8.74883H8.74842H8.74801H8.74761H8.7472H8.74679H8.74638H8.74597H8.74557H8.74516H8.74475H8.74434H8.74394H8.74353H8.74312H8.74271H8.74231H8.7419H8.74149H8.74109H8.74068H8.74027H8.73986H8.73946H8.73905H8.73864H8.73824H8.73783H8.73742H8.73702H8.73661H8.7362H8.7358H8.73539H8.73498H8.73458H8.73417H8.73376H8.73336H8.73295H8.73254H8.73214H8.73173H8.73132H8.73092H8.73051H8.73011H8.7297H8.72929H8.72889H8.72848H8.72808H8.72767H8.72726H8.72686H8.72645H8.72605H8.72564H8.72523H8.72483H8.72442H8.72402H8.72361H8.72321H8.7228H8.72239H8.72199H8.72158H8.72118H8.72077H8.72037H8.71996H8.71956H8.71915H8.71875H8.71834H8.71794H8.71753H8.71712H8.71672H8.71631H8.71591H8.7155H8.7151H8.71469H8.71429H8.71388H8.71348H8.71307H8.71267H8.71226H8.71186H8.71145H8.71105H8.71064H8.71024H8.70983H8.70943H8.70903H8.70862H8.70822H8.70781H8.70741H8.707H8.7066H8.70619H8.70579H8.70538H8.70498H8.70457H8.70417H8.70377H8.70336H8.70296H8.70255H8.70215H8.70174H8.70134H8.70093H8.70053H8.70013H8.69972H8.69932H8.69891H8.69851H8.6981H8.6977H8.6973H8.69689H8.69649H8.69608H8.69568H8.69527H8.69487H8.69447H8.69406H8.69366H8.69325H8.69285H8.69245H8.69204H8.69164H8.69123H8.69083H8.69042H8.69002H8.68962H8.68921H8.68881H8.6884H8.688H8.6876H8.68719H8.68679H8.68639H8.68598H8.68558H8.68517H8.68477H8.68437H8.68396H8.68356H8.68315H8.68275H8.68235H8.68194H8.68154H8.68113H8.68073H8.68033H8.67992H8.67952H8.67911H8.67871H8.67831H8.6779H8.6775H8.6771H8.67669H8.67629H8.67588H8.67548H8.67508H8.67467H8.67427H8.67386H8.67346H8.67306H8.67265H8.67225H8.67185H8.67144H8.67104H8.67063H8.67023H8.66983H8.66942H8.66902H8.66861H8.66821H8.66781H8.6674H8.667H8.6666H8.66619H8.66579H8.66538H8.66498H8.66458H8.66417H8.66377H8.66336H8.66296H8.66256H8.66215H8.66175H8.66134H8.66094H8.66054H8.66013H8.65973H8.65932H8.65892H8.65852H8.65811H8.65771H8.6573H8.6569H8.6565H8.65609H8.65569H8.65528H8.65488H8.65448H8.65407H8.65367H8.65326H8.65286H8.65246H8.65205H8.65165H8.65124H8.65084H8.65043H8.65003H8.64963H8.64922H8.64882H8.64841H8.64801H8.6476H8.6472H8.6468H8.64639H8.64599H8.64558H8.64518H8.64477H8.64437H8.64396H8.64356H8.64316H8.64275H8.64235H8.64194H8.64154H8.64113H8.64073H8.64032H8.63992H8.63951H8.63911H8.6387H8.6383H8.6379H8.63749H8.63709H8.63668H8.63628H8.63587H8.63547H8.63506H8.63466H8.63425H8.63385H8.63344H8.63304H8.63263H8.63223H8.63182H8.63142H8.63101H8.63061H8.6302H8.62979H8.62939H8.62898H8.62858H8.62817H8.62777H8.62736H8.62696H8.62655H8.62615H8.62574H8.62534H8.62493H8.62452H8.62412H8.62371H8.62331H8.6229H8.6225H8.62209H8.62168H8.62128H8.62087H8.62047H8.62006H8.61965H8.61925H8.61884H8.61844H8.61803H8.61762H8.61722H8.61681H8.61641H8.616H8.61559H8.61519H8.61478H8.61437H8.61397H8.61356H8.61315H8.61275H8.61234H8.61193H8.61153H8.61112H8.61071H8.61031H8.6099H8.60949H8.60909H8.60868H8.60827H8.60787H8.60746H8.60705H8.60664H8.60624H8.60583H8.60542H8.60502H8.60461H8.6042H8.60379H8.60339H8.60298H8.60257H8.60216H8.60176H8.60135H8.60094H8.60053H8.60012H8.59972H8.59931H8.5989H8.59849H8.59808H8.59768H8.59727H8.59686H8.59645H8.59604H8.59564H8.59523H8.59482H8.59441H8.594H8.59359H8.59318H8.59278H8.59237H8.59196H8.59155H8.59114H8.59073H8.59032H8.58991H8.5895H8.5891H8.58869H8.58828H8.58787H8.58746H8.58705H8.58664H8.58623H8.58582H8.58541H8.585H8.58459H8.58418H8.58377H8.58336H8.58295H8.58254H8.58213H8.58172H8.58131H8.5809H8.58049H8.58008H8.57967H8.57926H8.57885H8.57844H8.57803H8.57762H8.57721H8.5768H8.57639H8.57598H8.57557H8.57516H8.57474H8.57433H8.57392H8.57351H8.5731H8.57269H8.57228H8.57187H8.57145H8.57104H8.57063H8.57022H8.56981C8.55201 10.1173 8.53294 10.1191 8.50521 10.1219C8.47165 10.1259 8.44517 10.128 8.4224 10.1298C8.3828 10.133 8.35442 10.1353 8.31949 10.1448C8.29325 10.1526 8.26884 10.1557 8.25349 10.1576C8.24783 10.1583 8.24326 10.1588 8.23943 10.1592C8.23111 10.1602 8.22625 10.1607 8.22111 10.1616C8.19439 10.1676 8.17065 10.1724 8.14835 10.1769C8.11095 10.1845 8.07762 10.1913 8.0411 10.2011L8.00222 10.0563M8.6563 11.4131C8.66093 11.3912 8.66493 11.3689 8.66895 11.3466C8.67665 11.3037 8.68441 11.2605 8.69684 11.2185L8.61035 11.8052C8.61035 11.7544 8.61572 11.7047 8.62104 11.6554C8.62416 11.6264 8.62727 11.5976 8.62927 11.5688C8.63154 11.5245 8.6414 11.4802 8.6509 11.4376C8.65273 11.4294 8.65455 11.4212 8.6563 11.4131ZM8.00222 10.0563C7.97212 10.0644 7.94202 10.0735 7.91246 10.0825C7.8916 10.0888 7.871 10.095 7.85087 10.1007L8.27791 10.0007C8.26146 10.0057 8.244 10.0077 8.22616 10.0097C8.21469 10.0111 8.20305 10.0124 8.19142 10.0146C8.16948 10.0195 8.14721 10.024 8.12484 10.0286C8.08381 10.037 8.04245 10.0455 8.00222 10.0563Z" stroke="#9A3995" stroke-width="0.3"/>
<path d="M7.50271 14.3632L7.50272 14.3632C7.62923 14.2841 7.74966 14.1973 7.86142 14.1028L7.86177 14.1025C8.04102 13.9518 8.19861 13.7795 8.33468 13.5855C8.41084 13.4749 8.47854 13.3594 8.53517 13.2419L8.53522 13.2418C8.53806 13.2359 8.5389 13.2324 8.53915 13.2311C8.53922 13.2307 8.53925 13.2305 8.53927 13.2303C8.53895 13.2291 8.53765 13.2254 8.53315 13.2189C8.52225 13.2068 8.51489 13.2008 8.51094 13.1984L8.50121 13.1923L8.50147 13.192C8.49168 13.1848 8.48683 13.1843 8.48638 13.1842L8.48637 13.1842C8.4859 13.1842 8.48508 13.1841 8.48349 13.1844C8.48182 13.1847 8.47855 13.1854 8.47351 13.1877L8.47281 13.188L8.47281 13.188C8.38222 13.2283 8.28658 13.2618 8.19212 13.289L8.18814 13.2901C8.10181 13.3149 8.00539 13.3427 7.90732 13.3584L7.90468 13.3588L7.90467 13.3588C7.88757 13.3612 7.87003 13.3643 7.84949 13.3679L7.84843 13.3681C7.83013 13.3713 7.80931 13.375 7.78799 13.3781C7.75267 13.3848 7.71609 13.3881 7.68782 13.3906L7.68465 13.3909L7.67119 13.3921V13.3915C7.67017 13.3915 7.66935 13.3915 7.6687 13.3915C7.6052 13.4047 7.5368 13.4117 7.46672 13.4086M7.50271 14.3632L7.43298 13.4086H7.43291H7.43284H7.43277H7.4327H7.43263H7.43256H7.43249H7.43242H7.43235H7.43228H7.43221H7.43215H7.43208H7.43201H7.43194H7.43187H7.4318H7.43173H7.43166H7.43159H7.43152H7.43146H7.43139H7.43132H7.43125H7.43118H7.43111H7.43105H7.43098H7.43091H7.43084H7.43077H7.4307H7.43064H7.43057H7.4305H7.43043H7.43037H7.4303H7.43023H7.43016H7.4301H7.43003V13.2586L7.43609 13.4085C7.43507 13.4085 7.43406 13.4086 7.43304 13.4086M7.50271 14.3632L7.50078 14.3644C7.48884 14.3721 7.47647 14.38 7.46378 14.3882C7.41185 14.4214 7.35452 14.4581 7.29934 14.4982C7.20077 14.5549 7.1054 14.6053 7.00497 14.6426C6.96396 14.6576 6.92598 14.6676 6.88833 14.6725C6.8398 14.6674 6.81054 14.655 6.78667 14.6351C6.75058 14.6037 6.71693 14.5661 6.68184 14.5233L6.68185 14.5233L6.68065 14.5219C6.65467 14.491 6.63161 14.4613 6.60644 14.4289C6.59126 14.4093 6.57531 14.3888 6.55749 14.3664C6.44103 14.216 6.34317 14.0573 6.25847 13.8868C6.20166 13.7688 6.15263 13.6448 6.11156 13.5201C6.08833 13.4453 6.06826 13.38 6.05584 13.3135L6.05598 13.3135L6.05448 13.3071C6.0533 13.302 6.05182 13.2949 6.05006 13.2865C6.04522 13.2633 6.03826 13.23 6.02952 13.2004L7.50271 14.3632ZM7.46672 13.4086C7.46542 13.4085 7.46411 13.4085 7.4628 13.4084L7.47022 13.2586V13.4086H7.47014H7.47005H7.46997H7.46989H7.4698H7.46972H7.46963H7.46955H7.46947H7.46938H7.4693H7.46921H7.46913H7.46905H7.46896H7.46888H7.46879H7.46871H7.46862H7.46854H7.46846H7.46837H7.46829H7.4682H7.46812H7.46804H7.46795H7.46787H7.46778H7.4677H7.46762H7.46753H7.46745H7.46736H7.46728H7.4672H7.46711H7.46703H7.46694H7.46686H7.46678H7.46672ZM7.46672 13.4086H7.46669H7.46661H7.46652H7.46644H7.46636H7.46627H7.46619H7.4661H7.46602H7.46594H7.46585H7.46577H7.46568H7.4656H7.46552H7.46543H7.46535H7.46526H7.46518H7.4651H7.46501H7.46493H7.46485H7.46476H7.46468H7.46459H7.46451H7.46443H7.46434H7.46426H7.46417H7.46409H7.46401H7.46392H7.46384H7.46376H7.46367H7.46359H7.4635H7.46342H7.46334H7.46325H7.46317H7.46309H7.463H7.46292H7.46284H7.46275H7.46267H7.46258H7.4625H7.46242H7.46233H7.46225H7.46217H7.46208H7.462H7.46192H7.46183H7.46175H7.46167H7.46158H7.4615H7.46142H7.46133H7.46125H7.46117H7.46108H7.461H7.46092H7.46083H7.46075H7.46067H7.46058H7.4605H7.46042H7.46033H7.46025H7.46017H7.46008H7.46H7.45992H7.45983H7.45975H7.45967H7.45958H7.4595H7.45942H7.45934H7.45925H7.45917H7.45909H7.459H7.45892H7.45884H7.45875H7.45867H7.45859H7.45851H7.45842H7.45834H7.45826H7.45817H7.45809H7.45801H7.45793H7.45784H7.45776H7.45768H7.4576H7.45751H7.45743H7.45735H7.45727H7.45718H7.4571H7.45702H7.45694H7.45685H7.45677H7.45669H7.45661H7.45652H7.45644H7.45636H7.45628H7.45619H7.45611H7.45603H7.45595H7.45586H7.45578H7.4557H7.45562H7.45554H7.45545H7.45537H7.45529H7.45521H7.45513H7.45504H7.45496H7.45488H7.4548H7.45472H7.45463H7.45455H7.45447H7.45439H7.45431H7.45422H7.45414H7.45406H7.45398H7.4539H7.45382H7.45373H7.45365H7.45357H7.45349H7.45341H7.45333H7.45325H7.45316H7.45308H7.453H7.45292H7.45284H7.45276H7.45268H7.45259H7.45251H7.45243H7.45235H7.45227H7.45219H7.45211H7.45203H7.45195H7.45186H7.45178H7.4517H7.45162H7.45154H7.45146H7.45138H7.4513H7.45122H7.45114H7.45106H7.45098H7.4509H7.45081H7.45073H7.45065H7.45057H7.45049H7.45041H7.45033H7.45025H7.45017H7.45009H7.45001H7.44993H7.44985H7.44977H7.44969H7.44961H7.44953H7.44945H7.44937H7.44929H7.44921H7.44913H7.44905H7.44897H7.44889H7.44881H7.44873H7.44865H7.44857H7.44849H7.44841H7.44833H7.44825H7.44817H7.44809H7.44801H7.44793H7.44785H7.44777H7.4477H7.44762H7.44754H7.44746H7.44738H7.4473H7.44722H7.44714H7.44706H7.44698H7.4469H7.44682H7.44675H7.44667H7.44659H7.44651H7.44643H7.44635H7.44627H7.44619H7.44612H7.44604H7.44596H7.44588H7.4458H7.44572H7.44565H7.44557H7.44549H7.44541H7.44533H7.44525H7.44518H7.4451H7.44502H7.44494H7.44486H7.44479H7.44471H7.44463H7.44455H7.44447H7.4444H7.44432H7.44424H7.44416H7.44409H7.44401H7.44393H7.44385H7.44378H7.4437H7.44362H7.44354H7.44347H7.44339H7.44331H7.44323H7.44316H7.44308H7.443H7.44293H7.44285H7.44277H7.4427H7.44262H7.44254H7.44247H7.44239H7.44231H7.44224H7.44216H7.44208H7.44201H7.44193H7.44185H7.44178H7.4417H7.44162H7.44155H7.44147H7.4414H7.44132H7.44124H7.44117H7.44109H7.44102H7.44094H7.44086H7.44079H7.44071H7.44064H7.44056H7.44049H7.44041H7.44034H7.44026H7.44018H7.44011H7.44003H7.43996H7.43988H7.43981H7.43973H7.43966H7.43958H7.43951H7.43943H7.43936H7.43928H7.43921H7.43913H7.43906H7.43899H7.43891H7.43884H7.43876H7.43869H7.43861H7.43854H7.43847H7.43839H7.43832H7.43824H7.43817H7.43809H7.43802H7.43795H7.43787H7.4378H7.43773H7.43765H7.43758H7.4375H7.43743H7.43736H7.43728H7.43721H7.43714H7.43706H7.43699H7.43692H7.43685H7.43677H7.4367H7.43663H7.43655H7.43648H7.43641H7.43634H7.43626H7.43619H7.43612H7.43604H7.43597H7.4359H7.43583H7.43576H7.43568H7.43561H7.43554H7.43547H7.43539H7.43532H7.43525H7.43518H7.43511H7.43504H7.43496H7.43489H7.43482H7.43475H7.43468H7.43461H7.43454H7.43446H7.43439H7.43432H7.43425H7.43418H7.43411H7.43404H7.43397H7.4339H7.43383H7.43375H7.43368H7.43361H7.43354H7.43347H7.4334H7.43333H7.43326H7.43319H7.43312H7.43305H7.43304M7.43304 13.4086C7.29012 13.4143 7.14303 13.4144 6.99672 13.3994C6.92752 13.3934 6.86175 13.3845 6.79989 13.3762L6.79842 13.376L6.79645 13.3757L6.79645 13.3757L6.79487 13.3754C6.73847 13.3671 6.67805 13.3581 6.61708 13.346C6.54183 13.3311 6.47005 13.3133 6.40208 13.2965L6.40059 13.2961L6.39799 13.2955L6.39799 13.2954C6.321 13.2749 6.24164 13.2516 6.1661 13.2285L6.16548 13.2284L6.16548 13.2284L6.16474 13.2281C6.12369 13.2154 6.0813 13.2023 6.04074 13.1891M7.43304 13.4086L6.03629 13.1463L6.0383 13.1532L6.04797 13.1864C6.04737 13.1866 6.04679 13.1868 6.04624 13.1869M6.04074 13.1891C6.04198 13.1885 6.04349 13.1879 6.04532 13.1872M6.04074 13.1891C6.03643 13.1876 6.03214 13.1862 6.02787 13.1848L6.02263 13.1831L6.02266 13.183C6.02446 13.1837 6.02622 13.1842 6.02791 13.1847C6.0334 13.1862 6.03822 13.1868 6.04182 13.187M6.04074 13.1891L6.04182 13.187M6.04532 13.1872C6.04675 13.1869 6.04739 13.1868 6.04739 13.1868C6.04739 13.1868 6.04698 13.1869 6.04624 13.1869M6.04532 13.1872C6.04451 13.1874 6.04343 13.1877 6.04207 13.188L6.04182 13.187M6.04532 13.1872C6.04562 13.1871 6.04593 13.187 6.04624 13.1869M6.04624 13.1869L6.04182 13.187M6.03041 13.1987C6.03065 13.1982 6.03091 13.1977 6.03118 13.1972L6.02804 13.1955M6.03041 13.1987L6.01513 13.1884L6.02472 13.1852C6.02585 13.1885 6.02696 13.192 6.02804 13.1955M6.03041 13.1987C6.03018 13.199 6.02995 13.1994 6.02972 13.1998L6.02927 13.1996C6.02886 13.1982 6.02845 13.1968 6.02804 13.1955M6.03041 13.1987L6.02668 13.1914C6.02703 13.1927 6.02731 13.1939 6.02752 13.1952L6.02804 13.1955" stroke="#9A3995" stroke-width="0.3"/>
<path d="M7.74812 13.0344C7.77409 13.0332 7.79634 13.0325 7.81678 13.0319C7.84171 13.0312 7.86396 13.0306 7.887 13.0291C7.93154 13.0265 7.97347 13.0239 8.01801 13.0187C8.03635 13.0187 8.05469 13.0161 8.07303 13.0135L8.07304 13.0135L8.07306 13.0135C8.13332 13.0057 8.19358 12.9978 8.25384 12.9822C8.2879 12.9743 8.32196 12.9665 8.35079 12.9508C8.43726 12.9065 8.46608 12.8021 8.39009 12.7238M7.74812 13.0344L7.76165 12.885C7.7583 12.8847 7.75484 12.8844 7.7513 12.8841M7.74812 13.0344C7.71515 13.0314 7.67702 13.0292 7.6367 13.027C7.60653 13.0253 7.57514 13.0235 7.54374 13.0213L7.74812 13.0344ZM7.7513 12.8841C7.77873 12.8829 7.79871 12.8824 7.81609 12.8819C7.83751 12.8813 7.855 12.8808 7.87768 12.8794L7.87823 12.8794C7.92284 12.8768 7.96082 12.8744 8.00055 12.8697L8.00925 12.8687H8.01801C8.02394 12.8687 8.03171 12.8679 8.05191 12.865L8.05371 12.8647L8.05371 12.8647C8.11538 12.8567 8.16639 12.8499 8.21611 12.837L8.22022 12.8359L8.22023 12.836C8.24729 12.8298 8.26172 12.8259 8.27051 12.8228M7.7513 12.8841C7.71891 12.8814 7.67904 12.8791 7.63971 12.8769C7.60978 12.8752 7.58016 12.8735 7.55439 12.8717L7.55439 12.8717L7.55252 12.8716C7.53455 12.8705 7.51365 12.8701 7.4969 12.8698C7.49031 12.8697 7.48437 12.8696 7.4795 12.8694C7.45845 12.8688 7.4429 12.8677 7.42943 12.8655L7.42944 12.8655L7.42677 12.8651C7.38968 12.8596 7.3522 12.8566 7.32023 12.8541C7.31647 12.8538 7.31278 12.8535 7.30919 12.8532C7.2732 12.8503 7.24309 12.8475 7.2144 12.8424M7.7513 12.8841L8.34031 12.6898M8.27051 12.8228C8.27263 12.8238 8.27476 12.8248 8.27689 12.8258L8.27685 12.8259L8.28069 12.8275C8.28092 12.8276 8.28137 12.8279 8.28201 12.8283C8.28276 12.8289 8.28335 12.8293 8.28373 12.8296C8.28617 12.8324 8.28562 12.8328 8.28484 12.8303C8.28477 12.8301 8.28471 12.8299 8.28465 12.8296L8.28483 12.8294L8.28725 12.827L8.39009 12.7238M8.27051 12.8228C8.27423 12.8215 8.27694 12.8203 8.27918 12.819L8.28032 12.8184L8.28229 12.8174L8.28231 12.8174C8.2856 12.8157 8.28659 12.8145 8.28656 12.8145C8.28652 12.8145 8.28524 12.8159 8.28443 12.8198C8.28434 12.8203 8.28427 12.8207 8.28421 12.8211C8.2842 12.8212 8.28419 12.8212 8.28418 12.8213C8.28394 12.8231 8.28393 12.8249 8.28411 12.8266L8.28607 12.8247L8.39009 12.7238M8.27051 12.8228C8.05198 12.7201 7.85658 12.5879 7.6765 12.4329L7.67592 12.4324C7.52368 12.3001 7.39097 12.1568 7.26982 11.9977L7.26967 11.9975C7.09983 11.7738 6.95998 11.5335 6.85031 11.2767L6.84845 11.2724L6.84852 11.2724C6.84043 11.2516 6.83162 11.2311 6.82164 11.2079L6.82122 11.207C6.8136 11.1893 6.80528 11.1699 6.7971 11.1497C6.79661 11.1502 6.79611 11.1508 6.79559 11.1513L6.7903 11.1572L6.79015 11.157C6.6892 11.2576 6.60576 11.3734 6.53555 11.5012C6.47141 11.6191 6.41756 11.7412 6.37613 11.8675L6.37586 11.8683L6.37586 11.8683C6.36302 11.9067 6.35315 11.9421 6.34223 11.9814C6.33621 12.003 6.32987 12.0257 6.32254 12.0508L6.32221 12.0519L6.32221 12.0519C6.30778 12.0998 6.29682 12.1442 6.29038 12.1891L6.28404 12.2334V12.2334V12.2335V12.2336V12.2337V12.2338V12.2339V12.234V12.2341V12.2342V12.2343V12.2345V12.2346V12.2347V12.2348V12.2349V12.235V12.2351V12.2352V12.2353V12.2354V12.2355V12.2356V12.2358V12.2359V12.236V12.2361V12.2362V12.2363V12.2364V12.2365V12.2366V12.2367V12.2368V12.2369V12.237V12.2372V12.2373V12.2374V12.2375V12.2376V12.2377V12.2378V12.2379V12.238V12.2381V12.2382V12.2383V12.2385V12.2386V12.2387V12.2388V12.2389V12.239V12.2391V12.2392V12.2393V12.2394V12.2395V12.2396V12.2398V12.2399V12.24V12.2401V12.2402V12.2403V12.2404V12.2405V12.2406V12.2407V12.2408V12.2409V12.2411V12.2412V12.2413V12.2414V12.2415V12.2416V12.2417V12.2418V12.2419V12.242V12.2421V12.2423V12.2424V12.2425V12.2426V12.2427V12.2428V12.2429V12.243V12.2431V12.2432V12.2433V12.2435V12.2436V12.2437V12.2438V12.2439V12.244V12.2441V12.2442V12.2443V12.2444V12.2445V12.2447V12.2448V12.2449V12.245V12.2451V12.2452V12.2453V12.2454V12.2455V12.2456V12.2458V12.2459V12.246V12.2461V12.2462V12.2463V12.2464V12.2465V12.2466V12.2467V12.2469V12.247V12.2471V12.2472V12.2473V12.2474V12.2475V12.2476V12.2477V12.2478V12.248V12.2481V12.2482V12.2483V12.2484V12.2485V12.2486V12.2487V12.2488V12.2489V12.2491V12.2492V12.2493V12.2494V12.2495V12.2496V12.2497V12.2498V12.2499V12.2501V12.2502V12.2503V12.2504V12.2505V12.2506V12.2507V12.2508V12.2509V12.2511V12.2512V12.2513V12.2514V12.2515V12.2516V12.2517V12.2518V12.2519V12.2521V12.2522V12.2523V12.2524V12.2525V12.2526V12.2527V12.2528V12.2529V12.2531V12.2532V12.2533V12.2534V12.2535V12.2536V12.2537V12.2538V12.2539V12.2541V12.2542V12.2543V12.2544V12.2545V12.2546V12.2547V12.2548V12.255V12.2551V12.2552V12.2553V12.2554V12.2555V12.2556V12.2557V12.2559V12.256V12.2561V12.2562V12.2563V12.2564V12.2565V12.2566V12.2568V12.2569V12.257V12.2571V12.2572V12.2573V12.2574V12.2575V12.2577V12.2578V12.2579V12.258V12.2581V12.2582V12.2583V12.2585V12.2586V12.2587V12.2588V12.2589V12.259V12.2591V12.2592V12.2594V12.2595V12.2596V12.2597V12.2598V12.2599V12.26V12.2602V12.2603V12.2604V12.2605V12.2606V12.2607V12.2608V12.261V12.2611V12.2612V12.2613V12.2614V12.2615V12.2616V12.2618V12.2619V12.262V12.2621V12.2622V12.2623V12.2624V12.2626V12.2627V12.2628V12.2629V12.263V12.2631V12.2632V12.2634V12.2635V12.2636V12.2637V12.2638V12.2639V12.2641V12.2642V12.2643V12.2644V12.2645V12.2646V12.2647V12.2649V12.265V12.2651V12.2652V12.2653V12.2654V12.2656V12.2657V12.2658V12.2659V12.266V12.2661V12.2663V12.2664V12.2665V12.2666V12.2667V12.2668V12.267V12.2671V12.2672V12.2673V12.2674V12.2675V12.2677V12.2678V12.2679V12.268V12.2681V12.2682V12.2684V12.2685V12.2686V12.2687V12.2688V12.2689V12.2691V12.2692V12.2693V12.2694V12.2695V12.2696V12.2698V12.2699V12.27V12.2701V12.2702V12.2704V12.2705V12.2706V12.2707V12.2708V12.2709V12.2711V12.2712V12.2713V12.2714V12.2715V12.2716V12.2718V12.2719V12.272V12.2721V12.2722V12.2724V12.2725V12.2726V12.2727V12.2728V12.273V12.2731V12.2732V12.2733V12.2734V12.2736V12.2737V12.2738V12.2739V12.274V12.2741V12.2743V12.2744V12.2745V12.2746V12.2747V12.2749V12.275V12.2751V12.2752V12.2753V12.2755V12.2756V12.2757V12.2758V12.2759V12.2761V12.2762V12.2763V12.2764V12.2766V12.2767V12.2768V12.2769V12.277V12.2772V12.2773V12.2774V12.2775V12.2776V12.2778V12.2779V12.278V12.2781V12.2782V12.2784V12.2785V12.2786V12.2787V12.2789V12.279V12.2791V12.2792V12.2793V12.2795V12.2796V12.2797V12.2798V12.28V12.2801V12.2855L6.28394 12.2854C6.28231 12.3311 6.29371 12.3833 6.31464 12.4437C6.3463 12.5299 6.39725 12.5975 6.46937 12.6589C6.52015 12.7016 6.57633 12.7307 6.64239 12.7487L6.64307 12.7489C6.68407 12.7602 6.72822 12.7695 6.77311 12.7766L6.77577 12.777L6.77577 12.777L6.9094 12.8005C6.95469 12.8085 6.99498 12.8155 7.03453 12.8201L7.03726 12.8205L7.03726 12.8205C7.05702 12.8232 7.07623 12.8251 7.09817 12.8273C7.1047 12.828 7.11148 12.8286 7.11859 12.8294C7.14748 12.8323 7.1806 12.8361 7.2144 12.8424M8.39009 12.7238C8.37699 12.7107 8.35865 12.6977 8.34031 12.6898M8.34031 12.6898C8.1333 12.5933 7.94727 12.468 7.77433 12.3192C7.63021 12.1939 7.50444 12.0582 7.38915 11.9068L8.34031 12.6898ZM7.2144 12.8424C7.21471 12.8425 7.21503 12.8426 7.21535 12.8426L7.18739 12.99M7.2144 12.8424C7.21415 12.8424 7.2139 12.8424 7.21366 12.8423L7.18739 12.99M7.18739 12.99C7.22779 12.9972 7.26819 13.0004 7.30815 13.0036C7.34076 13.0062 7.37308 13.0088 7.40487 13.0135L6.17334 12.4941C6.21527 12.6089 6.28339 12.6977 6.37248 12.7734C6.44061 12.8308 6.5166 12.8699 6.60307 12.8934C6.65023 12.9065 6.70002 12.9169 6.7498 12.9247L6.88344 12.9482L6.88346 12.9482C6.928 12.9561 6.97253 12.9639 7.01707 12.9691C7.03967 12.9722 7.06228 12.9745 7.08472 12.9767C7.11952 12.9802 7.15394 12.9836 7.18739 12.99ZM6.98825 11.2178C6.97908 11.1943 6.96925 11.1715 6.95942 11.1486C6.9496 11.1258 6.93977 11.103 6.9306 11.0795C6.9175 11.0455 6.89392 11.0221 6.86247 11.0064L6.98825 11.2178ZM6.13404 12.2227V12.2801L6.17858 12.0086C6.16286 12.0608 6.14976 12.113 6.1419 12.1678L6.13404 12.2227Z" stroke="#9A3995" stroke-width="0.3"/>
<path d="M9.53983 13.8118C9.50599 13.7017 9.466 13.5945 9.41986 13.4872C9.37064 13.3771 9.31527 13.2699 9.25067 13.1655L9.38238 13.0937C9.38205 13.0931 9.38168 13.0924 9.38128 13.0917C9.38103 13.0912 9.38076 13.0907 9.38049 13.0902M9.53983 13.8118L9.38049 13.0902M9.53983 13.8118C9.55372 13.8573 9.56506 13.904 9.5763 13.9503M9.53983 13.8118L9.5763 13.9503M9.38049 13.0902C9.44814 13.2 9.50584 13.312 9.55679 13.426L9.55766 13.4279L9.55765 13.4279C9.60573 13.5397 9.64764 13.652 9.68321 13.7677L9.6833 13.768C9.69833 13.8172 9.71181 13.8726 9.72379 13.9219C9.72966 13.946 9.73517 13.9686 9.74032 13.9883L9.74132 13.9921L9.74127 13.9922C9.75179 14.0372 9.75867 14.0814 9.76461 14.1196L9.76495 14.1217C9.77712 14.1999 9.79085 14.2899 9.79431 14.3789L9.79451 14.3841L9.79837 14.4242L9.80292 14.4715L9.80365 14.4789V14.4863V14.4869V14.4876V14.4882V14.4888V14.4895V14.4901V14.4907V14.4913V14.492V14.4926V14.4932V14.4939V14.4945V14.4951V14.4957V14.4964V14.497V14.4976V14.4983V14.4989V14.4995V14.5001V14.5008V14.5014V14.502V14.5027V14.5033V14.5039V14.5045V14.5052V14.5058V14.5064V14.5071V14.5077V14.5083V14.5089V14.5096V14.5102V14.5108V14.5115V14.5121V14.5127V14.5133V14.514V14.5146V14.5152V14.5159V14.5165V14.5171V14.5177V14.5184V14.519V14.5196V14.5203V14.5209V14.5215V14.5221V14.5228V14.5234V14.524V14.5247V14.5253V14.5259V14.5265V14.5272V14.5278V14.5284V14.5291V14.5297V14.5303V14.5309V14.5316V14.5322V14.5328V14.5335V14.5341V14.5347V14.5353V14.536V14.5366V14.5372V14.5379V14.5385V14.5391V14.5397V14.5404V14.541V14.5416V14.5423V14.5429V14.5435V14.5441V14.5448V14.5454V14.546V14.5467V14.5473V14.5479V14.5485V14.5492V14.5498V14.5504V14.5511V14.5517V14.5523V14.553V14.5536V14.5542V14.5548V14.5555V14.5561V14.5567V14.5574V14.558V14.5586V14.5592V14.5599V14.5605V14.5611V14.5618V14.5624V14.563V14.5636V14.5643V14.5649V14.5655V14.5662V14.5668V14.5674V14.5681V14.5687V14.5693V14.5699V14.5706V14.5712V14.5718V14.5725V14.5731V14.5737V14.5744V14.575V14.5756V14.5762V14.5769V14.5775V14.5781V14.5788V14.5794V14.58V14.5806V14.5813V14.5819V14.5825V14.5832V14.5838V14.5844V14.5851V14.5857V14.5863V14.5869V14.5876V14.5882V14.5888V14.5895V14.5901V14.5907V14.5914V14.592V14.5926V14.5932V14.5939V14.5945V14.5951V14.5958V14.5964V14.597V14.5977V14.5983V14.5989V14.5996V14.6002V14.6008V14.6014V14.6021V14.6027V14.6033V14.604V14.6046V14.6052V14.6059V14.6065V14.6071V14.6077V14.6084V14.609V14.6096V14.6103V14.6109V14.6115V14.6122V14.6128V14.6134V14.6141V14.6147V14.6153V14.616V14.6166V14.6172V14.6178V14.6185V14.6191V14.6197V14.6204V14.621V14.6216V14.6223V14.6229V14.6235V14.6242V14.6248V14.6254V14.6261V14.6267V14.6273V14.6279V14.6286V14.6292V14.6298V14.6305V14.6311V14.6317V14.6324V14.633V14.6336V14.6343V14.6349V14.6355V14.6362V14.6368V14.6374V14.6381V14.6387V14.6393V14.64V14.6406V14.6412V14.6418V14.6425V14.6431V14.6437V14.6444V14.645V14.6456V14.6463V14.6469V14.6475V14.6482V14.6488V14.6494V14.6501V14.6507V14.6513V14.652V14.6526V14.6532V14.6539V14.6545V14.6551V14.6558V14.6564V14.657V14.6577V14.6583V14.6589V14.6596V14.6602V14.6608V14.6615V14.6621V14.6627V14.6634V14.664V14.6646V14.6653V14.6659V14.6665V14.6672V14.6678V14.6684V14.6691V14.6697V14.6703V14.671V14.6716V14.6722V14.6729V14.6735V14.6741V14.6748V14.6754V14.676V14.6767V14.6773V14.6779V14.6786V14.6792V14.6798V14.6805V14.6811V14.6817V14.6824V14.683V14.6837V14.6843V14.6849V14.6856V14.6862V14.6868V14.6875V14.6881V14.6887V14.6894V14.69V14.6906V14.6913V14.6919V14.6925V14.6932V14.6938V14.6944V14.6951V14.6957V14.6964V14.697V14.6976V14.6983V14.6989V14.6995V14.7002V14.7008V14.7014V14.7021V14.7027V14.7033V14.704V14.7046V14.7053V14.7059V14.7065V14.7072V14.7078V14.7084V14.7091V14.7097V14.7103V14.711V14.7116V14.7123V14.7129V14.7135V14.7142V14.7148V14.7154V14.7161V14.7167V14.7173V14.718V14.7186V14.7193V14.7199V14.7205V14.7212V14.7218V14.7224V14.7231V14.7237V14.7244V14.725V14.7256V14.7263V14.7269V14.7275V14.7282V14.7288V14.7295V14.7301V14.7307V14.7314V14.732V14.7326V14.7333V14.7339V14.7346V14.7352V14.7358V14.7365V14.7371V14.7377V14.7384V14.739V14.7397V14.7403V14.7409V14.7416V14.7422V14.7429V14.7435V14.7441V14.7448V14.7454V14.7461V14.7467V14.7473V14.748V14.7486V14.7492V14.7499V14.7505V14.7512V14.7518V14.7524V14.7531V14.7537V14.7544V14.755V14.7556V14.7563V14.7569V14.7576V14.7582V14.7588V14.7595V14.7601V14.7608V14.7614V14.762V14.7627V14.7633V14.764V14.7646V14.7652V14.7659V14.7665V14.7672V14.7678V14.7685V14.7691V14.7697V14.7704V14.771V14.7717V14.7723V14.7729V14.7736V14.7742V14.7749V14.7755V14.7761V14.7768V14.7774V14.7781V14.7787V14.7794V14.78V14.7806V14.7813V14.7819V14.7826V14.7832V14.7839V14.7845V14.7851V14.7858V14.7864V14.7871V14.7877V14.7883V14.789V14.7896V14.7903V14.7909V14.7916V14.7922V14.7928V14.7935V14.7941V14.7948V14.7954V14.7961V14.7967V14.7974V14.798V14.7986V14.7993V14.7999V14.8006V14.8012V14.8019V14.8025V14.8031V14.8038V14.8044V14.8051V14.8057V14.8064V14.807V14.8077V14.8083V14.8089V14.8096V14.8102V14.8109C9.80365 14.8271 9.80265 14.8451 9.80128 14.8626C9.8891 14.7893 9.97018 14.7101 10.047 14.6255C10.1599 14.5007 10.2578 14.3657 10.3383 14.2234L10.3387 14.2226L10.3387 14.2226C10.3975 14.1202 10.4496 14.0164 10.4927 13.911C10.5292 13.819 10.5564 13.7415 10.5661 13.6634L10.5667 13.6589L10.5667 13.6589L10.576 13.5996L10.5836 13.5506C10.5833 13.5459 10.5824 13.5436 10.5818 13.5425C10.581 13.5407 10.5782 13.5356 10.5687 13.528L10.5678 13.5273L10.5679 13.5273C10.5402 13.5047 10.518 13.4857 10.4977 13.4683C10.4696 13.4443 10.4453 13.4235 10.4158 13.4012C10.2612 13.2862 10.0941 13.1866 9.91708 13.0999C9.81903 13.0523 9.71429 13.0095 9.60844 12.9716C9.56094 12.9563 9.51286 12.9433 9.46076 12.9293L9.4603 12.9291C9.42396 12.9355 9.40134 12.9451 9.38575 12.957C9.37029 12.9706 9.3575 12.9908 9.35247 13.0103C9.34818 13.0269 9.34998 13.0394 9.35705 13.0512C9.3671 13.0658 9.37565 13.0813 9.38049 13.0902ZM9.5763 13.9503C9.58249 13.9758 9.58866 14.0012 9.59521 14.0263L9.5763 13.9503ZM9.46277 12.929C9.4628 12.929 9.4628 12.929 9.46277 12.929L9.46277 12.929ZM10.6004 13.3588C10.5686 13.3316 10.5378 13.3054 10.5058 13.2812L10.7334 13.5634C10.7365 13.5013 10.7119 13.4505 10.6627 13.411C10.6412 13.3935 10.6206 13.376 10.6004 13.3588Z" stroke="#9A3995" stroke-width="0.3"/>
<path d="M10.5521 12.75C10.5518 12.7476 10.5516 12.7453 10.5513 12.743C10.5482 12.716 10.5461 12.6976 10.5425 12.6801C10.5328 12.6401 10.5256 12.6003 10.5192 12.5654L10.5189 12.5635C10.5122 12.5265 10.5064 12.4948 10.4989 12.4644C10.4793 12.3936 10.4567 12.3225 10.4332 12.2484C10.4127 12.1911 10.3869 12.1352 10.3553 12.0781C10.3216 12.0201 10.2951 11.9831 10.2602 11.9565L10.2558 11.9531L10.2559 11.953C10.2103 11.9154 10.1679 11.9016 10.1195 11.9078C10.0868 11.9131 10.0604 11.9176 10.0348 11.9239L9.99901 11.7782L10.0352 11.9238C9.96016 11.9424 9.88518 11.971 9.80783 12.0046L9.80669 12.0051L9.80668 12.0051C9.71327 12.0447 9.62378 12.0923 9.53003 12.1451L9.3797 12.2327C9.36272 12.243 9.35576 12.2522 9.3504 12.271C9.35023 12.2723 9.35004 12.2749 9.35041 12.2795C9.35093 12.286 9.35241 12.2946 9.3555 12.3069C9.36678 12.346 9.39252 12.3687 9.44396 12.374L9.44921 12.3745L9.44919 12.3746C9.49305 12.3807 9.53876 12.3896 9.57859 12.3979C9.60111 12.4026 9.62237 12.4079 9.64036 12.4125L9.64148 12.4127C9.66032 12.4175 9.6758 12.4214 9.6914 12.4246C9.69162 12.4247 9.69185 12.4247 9.69207 12.4248L10.5521 12.75ZM10.5521 12.75C10.4486 12.692 10.3412 12.64 10.2289 12.5941L10.2289 12.5941L10.2275 12.5936C10.2166 12.5892 10.2053 12.5847 10.1939 12.5802C10.1305 12.5548 10.0589 12.5262 9.98742 12.5039L10.5521 12.75Z" stroke="#9A3995" stroke-width="0.3"/>
<mask id="path-7-inside-1" fill="white">
<path d="M9.23547 11.8327C9.21415 11.8508 9.20349 11.8713 9.20083 11.8985C9.19283 11.9508 9.26211 12.0121 9.32339 12.0121C9.36069 12.0121 9.39 12.0008 9.41931 11.9803C9.45661 11.9531 9.49391 11.9258 9.53388 11.9008C9.64312 11.8281 9.75503 11.76 9.88026 11.7077C9.96019 11.6736 10.0428 11.6418 10.1334 11.6259C10.152 11.6237 10.1707 11.6191 10.1893 11.6168C10.2053 11.6146 10.2186 11.6032 10.2213 11.5896C10.2266 11.5759 10.2133 11.5669 10.2 11.56C10.192 11.5555 10.1867 11.5532 10.1787 11.5487C10.1067 11.5192 10.0321 11.5055 9.94687 11.501C9.92555 11.5032 9.89891 11.5078 9.87226 11.5101C9.77101 11.5214 9.68042 11.5532 9.5925 11.5941C9.49391 11.6396 9.40599 11.6964 9.32339 11.76C9.29142 11.7804 9.26211 11.8077 9.23547 11.8327Z"/>
</mask>
<path d="M9.23547 11.8327L9.43011 12.0609L9.43551 12.0563L9.4407 12.0515L9.23547 11.8327ZM9.20083 11.8985L9.49738 11.9439L9.49861 11.9358L9.49941 11.9277L9.20083 11.8985ZM9.41931 11.9803L9.591 12.2264L9.59633 12.2225L9.41931 11.9803ZM9.53388 11.9008L9.69299 12.1553L9.70009 12.1506L9.53388 11.9008ZM9.88026 11.7077L9.99578 11.9846L9.99791 11.9837L9.88026 11.7077ZM10.1334 11.6259L10.0971 11.3281L10.0893 11.3291L10.0815 11.3304L10.1334 11.6259ZM10.1893 11.6168L10.2256 11.9147L10.2315 11.9139L10.1893 11.6168ZM10.2213 11.5896L9.94189 11.4803L9.93206 11.5055L9.92687 11.532L10.2213 11.5896ZM10.2 11.56L10.0516 11.8211L10.0634 11.8271L10.2 11.56ZM10.1787 11.5487L10.3269 11.2879L10.3103 11.2784L10.2926 11.2712L10.1787 11.5487ZM9.94687 11.501L9.96283 11.2014L9.9389 11.2001L9.91507 11.2027L9.94687 11.501ZM9.87226 11.5101L9.84677 11.211L9.83881 11.2119L9.87226 11.5101ZM9.5925 11.5941L9.71807 11.8666L9.71901 11.8661L9.5925 11.5941ZM9.32339 11.76L9.48501 12.0127L9.49606 12.0056L9.50644 11.9976L9.32339 11.76ZM9.04082 11.6044C8.96108 11.6724 8.91256 11.7639 8.90225 11.8694L9.49941 11.9277C9.49758 11.9464 9.49179 11.973 9.47681 12.0016C9.46188 12.03 9.4436 12.0494 9.43011 12.0609L9.04082 11.6044ZM8.90428 11.8532C8.87834 12.0228 8.97654 12.1442 9.03399 12.1966C9.09875 12.2557 9.20043 12.3121 9.32339 12.3121V11.7121C9.38507 11.7121 9.42148 11.7379 9.43827 11.7533C9.44925 11.7633 9.46495 11.7806 9.47812 11.8078C9.49128 11.8351 9.50668 11.8831 9.49738 11.9439L8.90428 11.8532ZM9.32339 12.3121C9.43306 12.3121 9.52112 12.2751 9.59096 12.2264L9.24767 11.7343C9.25024 11.7325 9.26029 11.7259 9.27659 11.7203C9.29375 11.7144 9.31025 11.7121 9.32339 11.7121V12.3121ZM9.59633 12.2225C9.63496 12.1943 9.66365 12.1735 9.69293 12.1552L9.37483 11.6464C9.32417 11.6781 9.27826 11.7118 9.24229 11.7381L9.59633 12.2225ZM9.70009 12.1506C9.80359 12.0817 9.89685 12.0259 9.99578 11.9846L9.76473 11.4308C9.6132 11.4941 9.48265 11.5745 9.36768 11.6511L9.70009 12.1506ZM9.99791 11.9837C10.0731 11.9516 10.1298 11.9311 10.1852 11.9214L10.0815 11.3304C9.95577 11.3525 9.84731 11.3956 9.7626 11.4317L9.99791 11.9837ZM10.1696 11.9237C10.1893 11.9213 10.2075 11.9179 10.2153 11.9165C10.2261 11.9145 10.2266 11.9145 10.2256 11.9146L10.1531 11.319C10.1334 11.3214 10.1152 11.3248 10.1074 11.3263C10.0966 11.3282 10.0961 11.3283 10.0971 11.3281L10.1696 11.9237ZM10.2315 11.9139C10.3471 11.8974 10.4837 11.8109 10.5157 11.6471L9.92687 11.532C9.94064 11.4616 9.97868 11.4107 10.0157 11.3792C10.0531 11.3472 10.0986 11.3267 10.1471 11.3198L10.2315 11.9139ZM10.5007 11.6988C10.5229 11.642 10.5299 11.5757 10.5134 11.5085C10.4978 11.4452 10.4661 11.3999 10.441 11.372C10.3969 11.3228 10.3465 11.298 10.3366 11.293L10.0634 11.8271C10.0615 11.8262 10.0537 11.8221 10.0434 11.8153C10.0339 11.809 10.0147 11.7953 9.9943 11.7726C9.97354 11.7494 9.94495 11.7094 9.93079 11.6519C9.91566 11.5904 9.92234 11.5304 9.94189 11.4803L10.5007 11.6988ZM10.3482 11.2992C10.3379 11.2933 10.3292 11.289 10.326 11.2873C10.3226 11.2856 10.3246 11.2865 10.3269 11.2879L10.0304 11.8095C10.0408 11.8154 10.0494 11.8198 10.0527 11.8214C10.0561 11.8232 10.0541 11.8222 10.0517 11.8209L10.3482 11.2992ZM10.2926 11.2712C10.1812 11.2254 10.0714 11.2072 9.96283 11.2014L9.9309 11.8006C9.99283 11.8039 10.0323 11.8129 10.0647 11.8262L10.2926 11.2712ZM9.91507 11.2027C9.89901 11.2044 9.88059 11.207 9.87154 11.2082C9.85963 11.2098 9.85238 11.2107 9.84678 11.2111L9.89775 11.809C9.91879 11.8072 9.93818 11.8046 9.95159 11.8028C9.96784 11.8006 9.97341 11.7998 9.97866 11.7993L9.91507 11.2027ZM9.83881 11.2119C9.69448 11.2281 9.57143 11.2731 9.46599 11.3221L9.71901 11.8661C9.78942 11.8334 9.84755 11.8147 9.90571 11.8082L9.83881 11.2119ZM9.46693 11.3217C9.3433 11.3786 9.23617 11.4485 9.14034 11.5223L9.50644 11.9976C9.57581 11.9442 9.64453 11.9005 9.71807 11.8666L9.46693 11.3217ZM9.16177 11.5072C9.10275 11.545 9.05401 11.5915 9.03024 11.6138L9.4407 12.0515C9.45433 12.0387 9.46352 12.0302 9.47207 12.0229C9.4804 12.0158 9.48438 12.0131 9.48501 12.0127L9.16177 11.5072Z" fill="#9A3995" mask="url(#path-7-inside-1)"/>
<path d="M9.50561 20.0063C6.85588 20.0063 4.20615 20.0072 1.55642 20.0058C0.858356 20.0054 0.28506 19.5994 0.0774167 18.9478C0.0273273 18.7903 0.00410352 18.6174 0.00364816 18.4517C-0.000450066 14.6613 -0.00136073 10.8714 0.00228214 7.08097C0.00319286 6.17853 0.669383 5.52913 1.57236 5.52822C1.93209 5.52776 2.29182 5.53186 2.6511 5.52458C2.7144 5.52321 2.77951 5.4818 2.83916 5.4504C2.90292 5.41672 2.95847 5.36757 3.02222 5.33435C6.3008 3.62278 9.58029 1.91211 12.8593 0.200994C12.9522 0.152755 13.0447 0.103605 13.138 0.0562766C13.3488 -0.0515786 13.5037 -0.00561522 13.6139 0.204634C13.929 0.804436 14.2418 1.4056 14.5555 2.00632C14.8565 2.58291 15.1598 3.15859 15.4571 3.737C15.5031 3.8262 15.5573 3.85806 15.6575 3.86033C15.9617 3.86579 16.2731 3.84531 16.5678 3.90539C17.2645 4.04692 17.7394 4.65628 17.7444 5.36939C17.7453 5.49955 17.7786 5.5537 17.9124 5.59056C18.5763 5.7726 19.0203 6.37058 19.0226 7.0746C19.0262 8.1759 19.0253 9.27675 19.0212 10.3781C19.0208 10.5064 19.0449 10.5615 19.1902 10.5869C19.6036 10.6598 19.9037 11.0297 19.906 11.4511C19.9105 12.3295 19.911 13.2073 19.906 14.0856C19.9037 14.5175 19.5909 14.8839 19.1624 14.9553C19.0408 14.9753 19.0212 15.0245 19.0217 15.1314C19.0249 16.2373 19.0253 17.3427 19.0231 18.4485C19.0212 19.2158 18.5294 19.8224 17.7799 19.9799C17.6565 20.0058 17.5267 20.0058 17.3997 20.0058C14.7686 20.0067 12.1371 20.0063 9.50561 20.0063ZM9.50925 19.4065C12.1499 19.4065 14.7905 19.4074 17.4311 19.406C18.0349 19.4056 18.4224 19.0156 18.4229 18.4149C18.4238 17.3227 18.4211 16.2309 18.4256 15.1387C18.4261 15.0067 18.3869 14.9699 18.2558 14.9708C17.2676 14.9758 16.28 14.974 15.2918 14.9735C14.6411 14.9731 14.2737 14.6081 14.2732 13.9614C14.2728 13.165 14.2873 12.3686 14.2687 11.5727C14.2545 10.9797 14.6871 10.5451 15.2796 10.5574C16.2763 10.5774 17.2736 10.561 18.2708 10.5656C18.3919 10.566 18.4256 10.5287 18.4252 10.4099C18.4211 9.30406 18.4243 8.19866 18.4224 7.0928C18.4215 6.52895 18.0217 6.12756 17.4584 6.12756C12.159 6.12665 6.85952 6.12665 1.56006 6.12756C1.00134 6.12756 0.6029 6.52258 0.6029 7.08233C0.601078 10.8727 0.601078 14.6627 0.605632 18.4531C0.605632 18.5942 0.635686 18.7475 0.696248 18.874C0.874293 19.2486 1.18758 19.4092 1.6015 19.4088C4.23711 19.4051 6.87318 19.4065 9.50925 19.4065ZM4.02856 5.49454C4.03266 5.50273 4.0363 5.51092 4.0404 5.51912C7.92096 5.51912 11.802 5.51912 15.6998 5.51912C15.6794 5.46997 15.6666 5.43219 15.6488 5.39761C14.8538 3.87353 14.0569 2.35081 13.2641 0.82537C13.2104 0.722066 13.1644 0.71706 13.0665 0.768029C10.0876 2.32533 7.10724 3.87944 4.12692 5.43447C4.09322 5.45222 4.06135 5.47452 4.02856 5.49454ZM17.0869 14.3732C17.697 14.3732 18.3072 14.3737 18.9174 14.3732C19.1965 14.3728 19.3095 14.2622 19.3099 13.9878C19.3104 13.1732 19.3104 12.3586 19.3099 11.5444C19.3099 11.2746 19.1993 11.1617 18.9292 11.1617C17.7043 11.1603 16.4799 11.1603 15.255 11.1617C14.9863 11.1622 14.8743 11.2769 14.8738 11.5463C14.8729 12.3609 14.8729 13.1755 14.8738 13.9896C14.8743 14.2567 14.9909 14.3723 15.2568 14.3728C15.8665 14.3742 16.4767 14.3732 17.0869 14.3732ZM15.8483 4.47743C15.9621 4.69587 16.0673 4.90066 16.1752 5.10408C16.2472 5.2406 16.2914 5.4281 16.4052 5.49591C16.5245 5.5669 16.7126 5.52549 16.8706 5.52685C17.1725 5.52958 17.1989 5.49318 17.1292 5.19009C17.1274 5.18144 17.1247 5.17234 17.1224 5.16369C16.984 4.63489 16.4771 4.35319 15.8483 4.47743Z" fill="#9A3995"/>
<path d="M8.34203 8.17871C10.8351 8.17871 12.8537 10.1938 12.8528 12.6818C12.8519 15.1729 10.8351 17.1917 8.34749 17.1921C5.85942 17.1926 3.8349 15.172 3.83398 12.6868C3.83353 10.1988 5.85395 8.17871 8.34203 8.17871ZM8.35615 8.77942C6.19866 8.77715 4.43961 10.5197 4.43551 12.6627C4.43141 14.8307 6.1809 16.591 8.34021 16.5923C10.4982 16.5937 12.2522 14.8416 12.2522 12.6854C12.2522 10.531 10.5073 8.7817 8.35615 8.77942Z" fill="#9A3995"/>
</svg>
