<svg width="25" height="22" viewBox="0 0 25 22" fill="none" xmlns="http://www.w3.org/2000/svg">
<path d="M24.0728 14.8424C24.0187 14.6418 23.9439 14.4476 23.8834 14.2486C23.8102 14.0083 23.7433 13.7647 23.6717 13.5244C23.5842 13.2347 23.4966 12.945 23.4043 12.6568C23.3327 12.434 23.2562 12.2111 23.183 11.9899C23.1114 11.7734 23.0398 11.5585 22.9681 11.342C22.914 11.1797 22.8631 11.0157 22.809 10.8518C22.7644 10.7212 22.715 10.5923 22.6705 10.4618C22.6195 10.3137 22.5702 10.1641 22.5192 10.0161C22.4476 9.80595 22.3744 9.59583 22.3028 9.38412C22.2359 9.18515 22.1706 8.98617 22.1038 8.7856C22.0322 8.57071 21.9605 8.35423 21.8889 8.13934C21.8109 7.90853 21.7345 7.67613 21.6565 7.44532C21.5674 7.17949 21.4734 6.91525 21.3891 6.64783C21.3238 6.43771 21.2713 6.22282 21.214 6.01111C21.171 5.85353 21.085 5.78031 20.9179 5.76916C20.8304 5.76439 20.7428 5.76598 20.6568 5.76916C20.0981 5.78667 19.5394 5.81692 18.9791 5.8201C16.9177 5.83124 14.8564 5.83602 12.795 5.8392C10.5792 5.84239 8.36344 5.801 6.14767 5.72937C5.57144 5.71027 4.99521 5.69117 4.41898 5.67047C4.26139 5.6657 4.10381 5.65137 3.94781 5.65137C3.79182 5.65137 3.65811 5.70549 3.57533 5.84875C3.53554 5.92038 3.49574 5.99201 3.46391 6.06842C3.3302 6.38837 3.26016 6.72901 3.17102 7.06329C3.12326 7.24316 3.0771 7.42303 3.02616 7.60131C2.98 7.7589 2.92907 7.9149 2.87972 8.07249C2.8065 8.30011 2.73487 8.52933 2.65846 8.75536C2.59161 8.95274 2.51838 9.14694 2.44994 9.34273C2.37353 9.5624 2.30031 9.78207 2.2255 10.0017C2.15864 10.1959 2.09179 10.3901 2.02652 10.5843C1.9533 10.804 1.88326 11.0253 1.80844 11.2465C1.73363 11.4694 1.65563 11.689 1.58082 11.9119C1.51556 12.1077 1.45348 12.3035 1.38981 12.4993C1.29748 12.789 1.20197 13.0787 1.11283 13.3716C1.02369 13.6676 0.947285 13.9685 0.85337 14.263C0.722843 14.6736 0.611419 15.0891 0.546155 15.5157C0.452239 16.1254 0.466566 16.7334 0.581175 17.3367C0.670315 17.8047 0.823125 18.252 1.04438 18.677C1.32772 19.2182 1.71294 19.6735 2.19525 20.0428C2.61548 20.3659 3.08029 20.6063 3.59443 20.7416C3.9892 20.8466 4.39193 20.9023 4.80102 20.8864C5.08435 20.8769 5.36769 20.8562 5.65103 20.853C8.05304 20.8275 10.4566 20.8036 12.8587 20.7798C12.8587 20.7829 12.8587 20.7861 12.8587 20.7909C14.7035 20.775 16.55 20.7591 18.3949 20.7431C19.315 20.7352 20.235 20.7272 21.1567 20.7193C21.2283 20.7193 21.3015 20.7256 21.3732 20.724C21.4321 20.7224 21.4957 20.7225 21.5498 20.7034C21.9287 20.5649 22.2709 20.3643 22.5845 20.1112C23.1416 19.6623 23.5666 19.1116 23.8627 18.4621C24.0378 18.0785 24.1492 17.6758 24.2177 17.2603C24.3116 16.692 24.3275 16.1222 24.2288 15.5539C24.1938 15.3151 24.1349 15.078 24.0728 14.8424Z" fill="#9A3995"/>
<path d="M24.5524 14.6878C24.519 14.5445 24.4569 14.4092 24.4123 14.2691C24.3279 14.0033 24.2515 13.7359 24.164 13.4717C24.0414 13.1039 23.9125 12.7394 23.7867 12.3733C23.7071 12.1441 23.6323 11.9149 23.5496 11.6888C23.4636 11.4533 23.3713 11.2193 23.2821 10.9837C23.1675 10.6749 23.0545 10.3661 22.9399 10.0589C22.8508 9.8169 22.76 9.57495 22.6709 9.33141C22.577 9.07513 22.4831 8.81885 22.3907 8.56098C22.3175 8.35563 22.2443 8.15029 22.1758 7.94495C22.1647 7.90993 22.1679 7.86377 22.1806 7.82716C22.2379 7.66321 22.3159 7.50562 22.3573 7.33848C22.4369 7.02171 22.4958 6.70017 22.5626 6.38022C22.6454 5.98546 22.69 5.58592 22.6566 5.1816C22.6327 4.90622 22.5738 4.64199 22.4273 4.40163C22.2236 4.06735 21.9387 3.8254 21.5662 3.71557C21.3195 3.64394 21.0584 3.60096 20.8021 3.59459C20.1463 3.57867 19.4889 3.58981 18.8331 3.58981C18.7121 3.58981 18.5911 3.58822 18.4702 3.593C18.3667 3.59618 18.3619 3.59141 18.3508 3.48794C18.3189 3.19505 18.1789 2.97538 17.9019 2.86236C17.679 2.77163 17.4434 2.73661 17.2047 2.74298C16.7765 2.75571 16.3483 2.77959 15.9201 2.79551C15.511 2.80983 15.1003 2.82098 14.7072 2.67931C14.5543 2.62519 14.4175 2.54719 14.3315 2.39915C14.2615 2.27818 14.2806 2.19063 14.3888 2.13969C14.4366 2.11741 14.4843 2.09512 14.5289 2.06488C14.7374 1.92162 14.8791 1.72901 14.9205 1.47751C14.9475 1.31833 14.9555 1.15596 14.9603 0.993602C14.9682 0.721406 14.8568 0.496963 14.6499 0.326641C14.306 0.0417102 13.9033 -0.0490234 13.4703 0.024199C13.1042 0.0878707 12.832 0.302763 12.6522 0.62908C12.4659 0.969724 12.4627 1.31196 12.649 1.65419C12.7699 1.87705 12.9498 2.03622 13.1822 2.13651C13.2316 2.1572 13.2523 2.19063 13.2427 2.24475C13.23 2.32275 13.2172 2.40234 13.2125 2.48193C13.195 2.73184 13.2172 2.97857 13.3271 3.2046C13.386 3.32717 13.4703 3.437 13.5436 3.55479C13.5547 3.5739 13.5595 3.59618 13.5674 3.61846C13.5451 3.62483 13.5245 3.63598 13.5022 3.63598C13.3637 3.63757 13.2268 3.63757 13.0883 3.63757C12.4675 3.63916 11.8483 3.64075 11.2275 3.64234C11.2068 3.64234 11.1845 3.62802 11.1638 3.62006C11.1734 3.59936 11.1798 3.57708 11.1925 3.55798C11.2625 3.44814 11.3437 3.34468 11.401 3.22848C11.5315 2.96424 11.5618 2.67772 11.5156 2.39119C11.4901 2.23997 11.5475 2.18585 11.6637 2.12218C11.9756 1.95345 12.1683 1.68285 12.2351 1.33902C12.3577 0.710263 11.9358 0.210439 11.393 0.0671781C11.0604 -0.0203705 10.7293 -0.00126906 10.4093 0.129258C10.1578 0.231132 9.98431 0.414189 9.88085 0.667284C9.81876 0.818504 9.80922 0.977683 9.79967 1.13686C9.76942 1.59052 9.99705 1.91843 10.3679 2.11741C10.4316 2.15083 10.4507 2.19222 10.4459 2.25589C10.4364 2.38642 10.3632 2.48193 10.2629 2.55515C10.0496 2.71114 9.79807 2.76049 9.54498 2.78277C9.30939 2.80347 9.07063 2.79869 8.83345 2.79073C8.40207 2.778 7.97229 2.75412 7.54091 2.73979C7.30215 2.73184 7.06656 2.76527 6.84371 2.856C6.69567 2.91649 6.56992 3.00881 6.48874 3.15207C6.4187 3.27623 6.39005 3.40835 6.38368 3.54683C6.3805 3.61051 6.35981 3.64393 6.28818 3.64393C5.8186 3.64234 5.34902 3.64234 4.87785 3.64393C4.41463 3.64553 3.95301 3.64712 3.4898 3.64871C3.30515 3.64871 3.12688 3.69009 2.96611 3.77605C2.52836 4.01164 2.25935 4.38411 2.1336 4.86006C2.03809 5.21662 2.04446 5.58433 2.10176 5.94248C2.17817 6.42002 2.28164 6.89278 2.3851 7.36554C2.41535 7.5088 2.47265 7.64729 2.53314 7.781C2.56179 7.84308 2.57611 7.8972 2.55383 7.95928C2.44718 8.25854 2.34371 8.55779 2.23547 8.85546C2.12405 9.16267 2.00625 9.46671 1.89324 9.77233C1.8041 10.0127 1.71655 10.2531 1.62741 10.4934C1.53508 10.7401 1.44276 10.9869 1.35203 11.2336C1.28199 11.4246 1.21195 11.6156 1.1435 11.8066C1.07187 12.0072 1.00024 12.2062 0.930204 12.4083C0.877675 12.5596 0.828328 12.7108 0.777391 12.862C0.686659 13.1278 0.592743 13.3921 0.508378 13.6595C0.433564 13.8919 0.374667 14.1291 0.301445 14.3631C0.197978 14.6894 0.110431 15.0173 0.0642692 15.3563C-0.0296465 16.0297 -0.02328 16.6998 0.10088 17.3668C0.170919 17.7488 0.27916 18.1197 0.433564 18.4762C0.573641 18.7994 0.743964 19.1066 0.949305 19.3915C1.26925 19.834 1.65606 20.2049 2.1129 20.5058C2.5013 20.7605 2.91835 20.9515 3.36883 21.0613C3.61237 21.1202 3.86546 21.16 4.11538 21.1711C4.66454 21.195 5.21531 21.2046 5.76447 21.203C8.05029 21.1998 10.3377 21.1918 12.1476 21.1871C13.9367 21.1743 15.25 21.1664 16.5616 21.1568C17.2206 21.152 17.8796 21.1441 18.5386 21.1457C19.2183 21.1457 19.8996 21.1489 20.5793 21.1632C21.0409 21.1727 21.4946 21.1536 21.9243 20.9658C22.1217 20.8799 22.3191 20.7923 22.5038 20.6841C22.9717 20.4087 23.3665 20.0458 23.7008 19.6192C23.9841 19.2562 24.207 18.8599 24.3805 18.4333C24.5365 18.0496 24.6431 17.6533 24.7084 17.2458C24.8007 16.6727 24.8118 16.0965 24.7259 15.5235C24.6829 15.2449 24.6192 14.9663 24.5524 14.6878ZM12.9498 1.32629C12.8686 1.10184 12.9244 0.893318 13.0644 0.711854C13.2761 0.436474 13.5722 0.363251 13.9001 0.403046C14.115 0.430107 14.3092 0.51288 14.4668 0.672059C14.6276 0.834422 14.6769 1.08752 14.5846 1.29604C14.5464 1.382 14.5114 1.47114 14.4604 1.54914C14.3522 1.71627 14.1898 1.79905 13.9972 1.82929C13.9113 1.84203 13.8253 1.85158 13.7378 1.86113C13.3653 1.85635 13.0708 1.66056 12.9498 1.32629ZM13.4544 2.71433C13.4369 2.59017 13.4274 2.46442 13.4178 2.33867C13.4114 2.25112 13.4385 2.23201 13.5245 2.23997C13.62 2.24793 13.7171 2.2543 13.8142 2.25589C13.8699 2.25748 13.8985 2.27658 13.9081 2.3323C13.9622 2.65702 14.1787 2.84485 14.4572 2.97697C14.7485 3.11546 15.0605 3.16321 15.3805 3.16958C15.8341 3.17913 16.2846 3.14252 16.7351 3.08999C17.0264 3.05656 17.3193 3.04701 17.6106 3.10432C17.8462 3.15207 18.0213 3.27941 18.12 3.50386C18.147 3.56594 18.1279 3.59777 18.0611 3.59777C17.4116 3.59777 16.7638 3.59777 16.1143 3.59777C16.1143 3.6105 16.1143 3.62324 16.1143 3.63438C15.4808 3.63438 14.8456 3.63438 14.2121 3.63438C14.0593 3.63438 13.9479 3.54524 13.8428 3.45451C13.6152 3.2619 13.4974 3.00563 13.4544 2.71433ZM10.2868 1.58416C10.1674 1.44567 10.1005 1.29127 10.1674 1.09548C10.2183 0.942664 10.2486 0.783485 10.3679 0.667284C10.43 0.605204 10.5048 0.544715 10.5844 0.514471C10.8025 0.428514 11.0301 0.414189 11.2625 0.46831C11.4424 0.509697 11.5984 0.589285 11.7178 0.730955C11.9565 1.0127 11.8913 1.49183 11.592 1.70672C11.4153 1.83248 11.2195 1.885 10.9919 1.88978C10.7245 1.885 10.473 1.80223 10.2868 1.58416ZM6.61131 3.54206C6.69567 3.3017 6.87236 3.1648 7.1159 3.11068C7.45496 3.03428 7.79719 3.06293 8.13465 3.10591C8.55647 3.15844 8.9783 3.17913 9.40331 3.17117C9.74873 3.1648 10.0814 3.09795 10.387 2.92604C10.6099 2.80029 10.7802 2.62678 10.828 2.36254C10.8407 2.2925 10.8757 2.27499 10.9442 2.27977C11.0349 2.28454 11.1272 2.27658 11.218 2.27022C11.2928 2.26385 11.323 2.28136 11.3198 2.35458C11.3087 2.66021 11.2705 2.95787 11.1018 3.2237C10.9855 3.40676 10.828 3.54365 10.6306 3.62961C10.5844 3.6503 10.5271 3.64712 10.473 3.64712C9.85378 3.64871 9.23299 3.64712 8.61378 3.64712C7.9691 3.64712 7.32602 3.64712 6.68135 3.64712C6.60017 3.64552 6.58425 3.62324 6.61131 3.54206ZM2.46469 5.15136C2.51881 4.61811 2.7926 4.23767 3.26855 3.99731C3.2972 3.98299 3.32585 3.96866 3.35132 3.95115C3.46274 3.87474 3.58531 3.89862 3.70947 3.9034C4.17905 3.9225 4.64863 3.93682 5.11821 3.94797C6.38687 3.97821 7.65552 4.02278 8.92418 4.03233C11.1989 4.04825 13.4719 4.04347 15.7466 4.04506C16.3308 4.04506 16.9134 4.0387 17.4976 4.03392C18.4304 4.02597 19.3631 4.02119 20.2943 4.00686C20.5474 4.00368 20.8021 3.98139 21.0536 3.94797C21.2017 3.92886 21.3306 3.95752 21.4611 4.01641C21.7222 4.1358 21.9387 4.30612 22.0883 4.55762C22.214 4.76933 22.2602 5.00332 22.2777 5.24368C22.308 5.64959 22.2411 6.04436 22.144 6.43594C22.0994 6.6174 22.0549 6.79727 22.0087 6.97874C22.0007 7.00898 21.988 7.03763 21.9769 7.06788C21.9673 7.06788 21.9578 7.06788 21.9498 7.06788C21.9387 7.03763 21.9259 7.00898 21.918 6.97874C21.8034 6.57602 21.6951 6.1717 21.571 5.77216C21.5089 5.57318 21.364 5.44743 21.1555 5.3965C20.8849 5.32964 20.6111 5.34238 20.3389 5.34556C19.153 5.36307 17.9656 5.39331 16.7797 5.40286C15.3343 5.414 13.8874 5.4156 12.442 5.41082C10.5096 5.40605 8.57717 5.39172 6.64473 5.38217C5.99528 5.37899 5.34742 5.37739 4.69797 5.37421C4.48308 5.37262 4.2666 5.36307 4.0517 5.36625C3.77792 5.36944 3.5296 5.44584 3.37838 5.69416C3.29561 5.83106 3.23512 5.98386 3.17622 6.13349C3.09345 6.34838 3.02341 6.56646 2.94859 6.78454C2.91676 6.88005 2.89129 6.97873 2.85786 7.07424C2.84831 7.10289 2.82125 7.12518 2.80215 7.15065C2.78623 7.12359 2.76076 7.09971 2.7544 7.06947C2.69709 6.8498 2.6382 6.63013 2.58726 6.40728C2.49175 5.9966 2.42171 5.57955 2.46469 5.15136ZM24.2197 17.2617C24.1513 17.6772 24.0382 18.0799 23.8647 18.4635C23.5687 19.113 23.1421 19.6621 22.5865 20.1126C22.2729 20.3657 21.9307 20.5663 21.5519 20.7048C21.4977 20.7254 21.4341 20.7239 21.3752 20.7254C21.3035 20.727 21.2303 20.7207 21.1587 20.7207C20.2386 20.7286 19.3186 20.7366 18.3969 20.7445C16.552 20.7605 14.7056 20.7764 12.8607 20.7923C12.8607 20.7891 12.8607 20.7859 12.8607 20.7812C10.4587 20.805 8.05506 20.8273 5.65305 20.8544C5.36971 20.8576 5.08637 20.8783 4.80303 20.8878C4.39394 20.9021 3.99122 20.8464 3.59645 20.743C3.08071 20.6077 2.61591 20.3657 2.19727 20.0442C1.71496 19.6733 1.32815 19.2196 1.0464 18.6784C0.825145 18.255 0.670741 17.8077 0.583192 17.3381C0.468583 16.7348 0.454257 16.1268 0.548173 15.5171C0.615028 15.0889 0.724863 14.675 0.85539 14.2644C0.949305 13.9699 1.02412 13.669 1.11485 13.373C1.2024 13.0817 1.29791 12.792 1.39182 12.5007C1.4539 12.3049 1.51757 12.1091 1.58284 11.9133C1.65765 11.6904 1.73565 11.4708 1.81046 11.2479C1.88369 11.0283 1.95373 10.807 2.02854 10.5857C2.0938 10.3915 2.16225 10.1973 2.22751 10.0031C2.30233 9.78348 2.37555 9.56221 2.45196 9.34414C2.5204 9.14835 2.59363 8.95256 2.66048 8.75677C2.73689 8.53073 2.80851 8.30151 2.88174 8.07389C2.93108 7.91789 2.98361 7.7619 3.02818 7.60272C3.07912 7.42444 3.12528 7.24297 3.17304 7.06469C3.26218 6.73042 3.33222 6.39136 3.46593 6.06982C3.49776 5.99501 3.53756 5.92178 3.57735 5.85015C3.65854 5.70689 3.79384 5.65277 3.94983 5.65277C4.10742 5.65277 4.26501 5.66551 4.421 5.67187C4.99723 5.69257 5.57346 5.71167 6.14969 5.73077C8.36546 5.8024 10.5812 5.84379 12.797 5.8406C14.8584 5.83742 16.9197 5.83265 18.9811 5.8215C19.5398 5.81832 20.1001 5.78807 20.6589 5.77057C20.7464 5.76738 20.834 5.76579 20.9199 5.77057C21.0871 5.78171 21.173 5.85334 21.216 6.01252C21.2749 6.22423 21.3258 6.43912 21.3911 6.64924C21.4739 6.91666 21.5694 7.18089 21.6585 7.44672C21.7365 7.67753 21.8129 7.90993 21.8909 8.14075C21.9625 8.35564 22.0342 8.57212 22.1058 8.78701C22.1727 8.98599 22.2379 9.18655 22.3048 9.38553C22.3764 9.59564 22.4496 9.80576 22.5213 10.0175C22.5722 10.1655 22.62 10.3151 22.6725 10.4632C22.7171 10.5937 22.768 10.7226 22.811 10.8532C22.8667 11.0155 22.916 11.1795 22.9701 11.3434C23.0418 11.5599 23.1134 11.7748 23.185 11.9913C23.2583 12.2141 23.3347 12.4354 23.4063 12.6582C23.497 12.9464 23.5862 13.2361 23.6737 13.5258C23.7454 13.7661 23.8122 14.0097 23.8854 14.25C23.9459 14.449 24.0207 14.6432 24.0749 14.8438C24.1385 15.0794 24.1958 15.3165 24.2372 15.5569C24.3279 16.1236 24.3136 16.6934 24.2197 17.2617Z" fill="#9A3995"/>
<circle cx="12" cy="13" r="5" fill="#F5F5F5"/>
<path d="M12.0035 16.6018C13.6589 16.6014 15.0011 15.1228 15.0018 13.2984C15.0024 11.4761 13.6592 10 11.9999 10C10.3442 10 8.99967 11.4797 9 13.302C9.00066 15.1221 10.3478 16.6021 12.0035 16.6018ZM12.0094 10.44C13.441 10.4419 14.6021 11.723 14.6021 13.3009C14.6021 14.8802 13.4347 16.1635 11.9989 16.1625C10.5618 16.1614 9.39776 14.8723 9.40038 13.2843C9.40301 11.7147 10.5736 10.4382 12.0094 10.44Z" fill="#9A3995"/>
<path d="M12.6916 14.4974C12.6897 14.4792 12.6859 14.461 12.6821 14.4448C12.6669 14.388 12.6536 14.3313 12.6365 14.2746C12.6193 14.2179 12.6003 14.1632 12.5756 14.1105C12.549 14.0497 12.4806 14.0011 12.4065 14.0173C12.3475 14.0295 12.3057 14.07 12.2848 14.1308C12.2791 14.147 12.2753 14.1632 12.2696 14.1794C12.2259 14.3009 12.1727 14.4164 12.108 14.5258C12.032 14.6534 11.9446 14.773 11.8457 14.8803C11.7279 15.012 11.5967 15.1255 11.4541 15.2268C11.4085 15.2592 11.3591 15.2896 11.3116 15.32C11.2983 15.3281 11.2869 15.3362 11.2755 15.3463C11.2298 15.3868 11.2412 15.4577 11.2831 15.482C11.2907 15.4861 11.2964 15.4901 11.304 15.4942C11.3287 15.5084 11.3534 15.5225 11.3781 15.5367C11.4522 15.5772 11.5264 15.6137 11.6043 15.6421C11.6499 15.6583 11.6955 15.6765 11.745 15.6826C11.7754 15.6968 11.8077 15.6947 11.8381 15.7028C11.8742 15.7109 11.9122 15.711 11.9484 15.717C11.9731 15.7191 11.9978 15.7231 12.0225 15.7272C12.0643 15.7272 12.1042 15.7272 12.146 15.7272C12.1688 15.7231 12.1917 15.7211 12.2126 15.717C12.2297 15.713 12.2487 15.7089 12.2658 15.7069C12.3152 15.7008 12.3608 15.6866 12.4065 15.6664C12.5015 15.6238 12.5756 15.555 12.6155 15.4496C12.6307 15.4091 12.6441 15.3686 12.6574 15.3281C12.6783 15.2632 12.6916 15.1984 12.6973 15.1295C12.703 15.0809 12.7106 15.0343 12.7106 14.9857C12.7106 14.9675 12.7125 14.9492 12.7125 14.931C12.7125 14.8824 12.7144 14.8317 12.7144 14.7831C12.7144 14.7406 12.7087 14.698 12.7087 14.6555C12.7106 14.6008 12.6992 14.5501 12.6916 14.4974Z" fill="#9A3995"/>
<path d="M11.1828 12.4548C11.2236 12.55 11.2682 12.6432 11.3129 12.7364C11.375 12.8648 11.4449 12.9911 11.5264 13.107C11.5827 13.1899 11.6448 13.2686 11.7185 13.3348C11.7593 13.3721 11.802 13.4052 11.8525 13.428C11.8758 13.4383 11.899 13.4446 11.9223 13.4425C11.9709 13.4383 12.0155 13.4218 12.0504 13.3824C12.1028 13.3265 12.1261 13.2603 12.1145 13.1795C12.1087 13.1443 12.1048 13.1091 12.1067 13.0718C12.1067 13.018 12.1067 12.9621 12.1067 12.9083C12.1067 12.8482 12.1164 12.7902 12.1203 12.7323C12.1223 12.6929 12.132 12.6536 12.1397 12.6163C12.1494 12.5687 12.1552 12.519 12.1688 12.4713C12.1941 12.372 12.2251 12.2746 12.2639 12.1794C12.3222 12.0324 12.3959 11.8916 12.4794 11.759C12.493 11.7383 12.5066 11.7197 12.5182 11.6969C12.5531 11.6369 12.5085 11.5748 12.4677 11.5644C12.4386 11.5582 12.4115 11.5499 12.3823 11.5499C12.3726 11.5499 12.361 11.5499 12.3513 11.5478C12.3105 11.5416 12.2678 11.5396 12.2271 11.5396C12.1766 11.5396 12.1281 11.5396 12.0776 11.5396C12.0582 11.5396 12.0388 11.5416 12.0194 11.5437C11.9689 11.5499 11.9185 11.5499 11.868 11.5644C11.8486 11.5706 11.8272 11.5706 11.8059 11.5748C11.7612 11.5851 11.7147 11.5934 11.67 11.6058C11.6331 11.6162 11.5963 11.6286 11.5613 11.6389C11.5089 11.6555 11.4565 11.6762 11.406 11.7011C11.3381 11.7342 11.276 11.7735 11.212 11.8149C11.1673 11.8419 11.1324 11.8812 11.1052 11.9288C11.078 11.9785 11.0644 12.0324 11.0625 12.0841C11.0644 12.1255 11.0703 12.1587 11.0819 12.1918C11.113 12.2808 11.146 12.3699 11.1828 12.4548Z" fill="#9A3995"/>
<path d="M11.3684 14.908C11.4632 14.8465 11.554 14.7787 11.6385 14.7046C11.7746 14.5859 11.8941 14.4503 11.9972 14.2978C12.055 14.2109 12.1065 14.1198 12.1498 14.0266C12.1725 13.9779 12.1663 13.9334 12.1354 13.891C12.123 13.8762 12.1086 13.8614 12.0921 13.8508C12.0529 13.8211 12.0096 13.8148 11.9642 13.836C11.9045 13.8635 11.8405 13.8868 11.7766 13.9059C11.7127 13.9249 11.6488 13.944 11.5849 13.9546C11.556 13.9588 11.5272 13.9652 11.4983 13.9694C11.4777 13.9737 11.455 13.9758 11.4323 13.9779C11.4261 13.9779 11.4179 13.9779 11.4096 13.98C11.3705 13.9885 11.3292 13.9927 11.288 13.9906C11.2777 13.9906 11.2674 13.9906 11.2591 13.9906C11.1581 13.9949 11.0571 13.9949 10.9581 13.9843C10.9107 13.98 10.8653 13.9737 10.82 13.9673C10.7787 13.961 10.7375 13.9546 10.6963 13.9461C10.6447 13.9355 10.5952 13.9228 10.5458 13.9101C10.4922 13.8953 10.4365 13.8783 10.3829 13.8614C10.3499 13.8508 10.3169 13.8402 10.286 13.8296C10.2695 13.8233 10.253 13.8254 10.2365 13.8296C10.2015 13.8402 10.1767 13.8614 10.1602 13.891C10.1479 13.9143 10.1396 13.9419 10.1479 13.9715C10.1561 13.997 10.1602 14.0245 10.1664 14.0521C10.1767 14.1093 10.1932 14.1643 10.2097 14.2194C10.2406 14.3169 10.2777 14.4143 10.321 14.5075C10.385 14.641 10.4592 14.766 10.5478 14.8847C10.5788 14.9249 10.6076 14.9652 10.6385 15.0033C10.6653 15.0372 10.6942 15.0711 10.7272 15.1007C10.7684 15.1368 10.8159 15.1516 10.8715 15.1558C10.9128 15.1516 10.9519 15.141 10.9911 15.1262C11.0736 15.0944 11.1499 15.052 11.2241 15.0075C11.2715 14.9715 11.321 14.9397 11.3684 14.908Z" fill="#9A3995"/>
<path d="M10.4995 13.6293C10.5485 13.6721 10.603 13.7012 10.6651 13.7187C10.699 13.7285 10.7347 13.7362 10.7705 13.7421C10.8025 13.7479 10.8345 13.7537 10.8665 13.7596C10.8985 13.7654 10.9304 13.7712 10.9624 13.7751C11.0038 13.7809 11.0452 13.7829 11.0847 13.7907C11.1374 13.8004 11.1901 13.8004 11.2409 13.8081C11.2748 13.814 11.3087 13.812 11.3406 13.814C11.3933 13.8179 11.446 13.8198 11.4874 13.8237C11.5288 13.8218 11.557 13.8218 11.5871 13.8198C11.6191 13.8179 11.6492 13.8159 11.6812 13.812C11.6944 13.812 11.7076 13.8101 11.7207 13.8081C11.764 13.8023 11.8073 13.7965 11.8506 13.7848C11.875 13.779 11.8995 13.7732 11.9202 13.7615C11.9823 13.7285 12.003 13.6507 11.9484 13.5924C11.939 13.5827 11.9258 13.573 11.9127 13.5671C11.764 13.4952 11.6304 13.4019 11.5062 13.2911C11.4027 13.1978 11.3124 13.0967 11.2296 12.984C11.113 12.8246 11.017 12.6536 10.9417 12.4709C10.9286 12.4359 10.9135 12.4028 10.9003 12.3678C10.8909 12.3426 10.874 12.3251 10.8514 12.3134C10.8307 12.3018 10.8081 12.2979 10.7837 12.3037C10.7592 12.3115 10.7404 12.327 10.7235 12.3465C10.6425 12.43 10.5767 12.5253 10.5221 12.6283C10.4732 12.7216 10.4318 12.8188 10.3998 12.9199C10.3848 12.9665 10.3735 13.0132 10.3603 13.0598C10.349 13.0987 10.3396 13.1376 10.3339 13.1784C10.3321 13.192 10.3302 13.2056 10.3283 13.2192C10.3283 13.2328 10.3283 13.2464 10.3283 13.262C10.3264 13.3164 10.3396 13.3708 10.3565 13.4213C10.3866 13.5069 10.4356 13.573 10.4995 13.6293Z" fill="#9A3995"/>
<path d="M13.4688 14.0072C13.3517 13.9168 13.2258 13.839 13.0933 13.7718C13.0182 13.7339 12.9386 13.7003 12.8591 13.6709C12.8215 13.6583 12.784 13.6478 12.7464 13.6373C12.7354 13.6331 12.7221 13.6331 12.7111 13.6331C12.6691 13.6394 12.6294 13.652 12.5962 13.6793C12.541 13.7276 12.5056 13.8201 12.5542 13.8979C12.5587 13.9042 12.5631 13.9126 12.5675 13.921C12.6139 13.9988 12.6537 14.0786 12.689 14.1606C12.7221 14.2405 12.7509 14.3204 12.7752 14.4023C12.7906 14.4549 12.8017 14.5095 12.8149 14.5621C12.8215 14.5915 12.826 14.6209 12.8304 14.6504C12.8392 14.7092 12.8481 14.7702 12.8503 14.829C12.8503 14.8311 12.8503 14.8311 12.8503 14.8332C12.8525 14.8563 12.8547 14.8816 12.8569 14.9047C12.8569 14.9845 12.8569 15.0644 12.8569 15.1464C12.8569 15.1758 12.8525 15.2031 12.8503 15.2326C12.8481 15.2494 12.8458 15.2683 12.8481 15.2851C12.8481 15.3187 12.8812 15.3461 12.9165 15.3461C12.9342 15.3461 12.9497 15.3377 12.9629 15.3271C13.0579 15.2536 13.1419 15.1716 13.2192 15.0833C13.3053 14.9845 13.3804 14.8774 13.4423 14.7639C13.4865 14.684 13.5262 14.602 13.5594 14.5179C13.5859 14.4486 13.6102 14.3792 13.619 14.3056C13.6234 14.2762 13.6279 14.2468 13.6323 14.2174C13.6345 14.1711 13.6168 14.1333 13.5815 14.1039C13.5417 14.0702 13.5064 14.0366 13.4688 14.0072Z" fill="#9A3995"/>
<path d="M13.6196 13.6653C13.6089 13.6212 13.6089 13.5771 13.6003 13.5351C13.5874 13.481 13.581 13.4249 13.5681 13.3708C13.5531 13.3147 13.536 13.2587 13.5188 13.2026C13.5016 13.1525 13.4802 13.1044 13.4545 13.0564C13.4287 13.0103 13.4009 12.9662 13.358 12.9322C13.3065 12.8881 13.2464 12.8641 13.1757 12.8741C13.1521 12.8781 13.1285 12.8821 13.1049 12.8881C13.0427 12.9041 12.9827 12.9282 12.9247 12.9542C12.8518 12.9862 12.7832 13.0243 12.7146 13.0644C12.6781 13.0864 12.6417 13.1084 12.6052 13.1305C12.5666 13.1545 12.5452 13.1865 12.5344 13.2286C12.528 13.2567 12.5323 13.2847 12.5387 13.3107C12.5602 13.3909 12.6202 13.4349 12.6953 13.4429C12.7232 13.4469 12.7532 13.4529 12.7811 13.459C12.8089 13.465 12.8347 13.473 12.8626 13.479C12.9312 13.493 12.9977 13.513 13.0641 13.5351C13.1199 13.5531 13.1757 13.5771 13.2293 13.5992C13.3665 13.6572 13.4931 13.7294 13.6132 13.8155C13.6175 13.8175 13.6217 13.8195 13.6325 13.8235C13.6303 13.7814 13.6282 13.7434 13.626 13.7073C13.6217 13.6933 13.6217 13.6793 13.6196 13.6653Z" fill="#9A3995"/>
<path d="M12.5566 12.9287C12.5413 12.9422 12.5336 12.9574 12.5317 12.9777C12.526 13.0166 12.5757 13.0623 12.6197 13.0623C12.6465 13.0623 12.6676 13.0539 12.6886 13.0386C12.7154 13.0183 12.7422 12.998 12.7709 12.9794C12.8493 12.9253 12.9297 12.8745 13.0196 12.8356C13.077 12.8102 13.1363 12.7865 13.2014 12.7747C13.2148 12.773 13.2282 12.7696 13.2416 12.7679C13.253 12.7662 13.2626 12.7578 13.2645 12.7476C13.2684 12.7375 13.2588 12.7307 13.2492 12.7256C13.2435 12.7222 13.2397 12.7206 13.2339 12.7172C13.1823 12.6952 13.1287 12.685 13.0674 12.6816C13.0521 12.6833 13.033 12.6867 13.0139 12.6884C12.9412 12.6969 12.8761 12.7206 12.813 12.751C12.7422 12.7848 12.679 12.8271 12.6197 12.8745C12.5968 12.8897 12.5757 12.91 12.5566 12.9287Z" fill="#9A3995"/>
</svg>
