<svg width="19" height="19" viewBox="0 0 19 19" fill="none" xmlns="http://www.w3.org/2000/svg">
<g clip-path="url(#clip0)">
<path d="M16.9403 14.0123C15.3568 16.072 16.1488 17.8129 16.7057 18.6857C16.9403 19.001 16.625 19.001 16.4677 19.001C15.8207 18.8834 15.2051 18.6328 14.6601 18.265C14.115 17.8971 13.6523 17.4201 13.3012 16.8641C13.1438 16.7833 13.0631 16.7067 12.9052 16.7833C11.7943 17.1022 10.6875 17.3367 9.5 17.2601C4.27322 17.2601 0 13.4595 0 8.70951C0 3.95951 4.27322 0.000976562 9.5 0.000976562C14.7268 0.000976562 19 3.87876 19 8.70951C19 10.6885 18.2085 12.5101 16.9403 14.0129V14.0123ZM9.5 11.0839L12.0323 12.8248C12.0836 12.8554 12.1425 12.871 12.2022 12.8696C12.2619 12.8683 12.3201 12.8501 12.3699 12.8171C12.4197 12.7842 12.4592 12.7378 12.4839 12.6834C12.5085 12.629 12.5173 12.5687 12.5091 12.5095L11.5597 9.50038L14.0113 7.60216C14.0383 7.56194 14.0557 7.51609 14.0622 7.46812C14.0688 7.42015 14.0643 7.37132 14.0491 7.32534C14.0339 7.27936 14.0085 7.23745 13.9747 7.2028C13.9408 7.16815 13.8996 7.14167 13.854 7.12538H10.7682L9.73809 4.11626C9.70803 4.08283 9.67127 4.0561 9.6302 4.0378C9.58913 4.0195 9.54467 4.01004 9.4997 4.01004C9.45474 4.01004 9.41028 4.0195 9.36921 4.0378C9.32814 4.0561 9.29138 4.08283 9.26131 4.11626L8.23116 7.12538H5.06469C5.01067 7.145 4.96302 7.17898 4.92688 7.22367C4.89074 7.26835 4.86748 7.32205 4.8596 7.37898C4.85172 7.43591 4.85952 7.49391 4.88216 7.54674C4.90481 7.59956 4.94143 7.64521 4.98809 7.67876L7.36309 9.58113L6.57162 12.5095C6.57035 12.5586 6.58048 12.6072 6.60121 12.6517C6.62194 12.6962 6.65271 12.7352 6.6911 12.7658C6.72949 12.7964 6.77445 12.8176 6.82244 12.8278C6.87043 12.8381 6.92014 12.837 6.96766 12.8248L9.5 11.0839Z" fill="#C9B2FF"/>
</g>
<defs>
<clipPath id="clip0">
<rect width="19" height="19" fill="white"/>
</clipPath>
</defs>
</svg>
