<svg width="22" height="22" viewBox="0 0 22 22" fill="none" xmlns="http://www.w3.org/2000/svg">
<path d="M10.804 14.8976L10.787 14.7486C10.7611 14.7515 10.735 14.7569 10.7151 14.7614C10.7086 14.7625 10.7009 14.7636 10.6896 14.7651C10.6887 14.7652 10.6879 14.7653 10.687 14.7654C10.6792 14.7664 10.6697 14.7677 10.6596 14.7692H10.6594H10.6591H10.6588H10.6586H10.6583H10.658H10.6578H10.6575H10.6572H10.6569H10.6567H10.6564H10.6561H10.6559H10.6556H10.6553H10.6551H10.6548H10.6545H10.6543H10.654H10.6537H10.6535H10.6532H10.6529H10.6526H10.6524H10.6521H10.6518H10.6516H10.6513H10.651H10.6508H10.6505H10.6502H10.65H10.6497H10.6494H10.6492H10.6489H10.6486H10.6484H10.6481H10.6478H10.6476H10.6473H10.647H10.6468H10.6465H10.6462H10.646H10.6457H10.6454H10.6452H10.6449H10.6446H10.6443H10.6441H10.6438H10.6435H10.6433H10.643H10.6427H10.6425H10.6422H10.6419H10.6417H10.6414H10.6411H10.6409H10.6406H10.6403H10.6401H10.6398H10.6395H10.6393H10.639H10.6387H10.6385H10.6382H10.6379H10.6377H10.6374H10.6371H10.6369H10.6366H10.6363H10.6361H10.6358H10.6355H10.6353H10.635H10.6347H10.6345H10.6342H10.6339H10.6337H10.6334H10.6332H10.6329H10.6326H10.6324H10.6321H10.6318H10.6316H10.6313H10.631H10.6308H10.6305H10.6302H10.63H10.6297H10.6294H10.6292H10.6289H10.6286H10.6284H10.6281H10.6278H10.6276H10.6273H10.627H10.6268H10.6265H10.6262H10.626H10.6257H10.6254H10.6252H10.6249H10.6246H10.6244H10.6241H10.6238H10.6236H10.6233H10.6231H10.6228H10.6225H10.6223H10.622H10.6217H10.6215H10.6212H10.6209H10.6207H10.6204H10.6201H10.6199H10.6196H10.6193H10.6191H10.6188H10.6185H10.6183H10.618H10.6177H10.6175H10.6172H10.6169H10.6167H10.6164H10.6162H10.6159H10.6156H10.6154H10.6151H10.6148H10.6146H10.6143H10.614H10.6138H10.6135H10.6132H10.613H10.6127H10.6124H10.6122H10.6119H10.6116H10.6114H10.6111H10.6109H10.6106H10.6103H10.6101H10.6098H10.6095H10.6093H10.609H10.6087H10.6085H10.6082H10.6079H10.6077H10.6074H10.6071H10.6069H10.6066H10.6063H10.6061H10.6058H10.6056H10.6053H10.605H10.6048H10.6045H10.6042H10.604H10.6037H10.6034H10.6032H10.6029H10.6026H10.6024H10.6021H10.6018H10.6016H10.6013H10.601H10.6008H10.6005H10.6003H10.6H10.5997H10.5995H10.5992H10.5989H10.5987H10.5984H10.5981H10.5979H10.5976H10.5973H10.5971H10.5968H10.5965H10.5963H10.596H10.5957H10.5955H10.5952H10.595H10.5947H10.5944H10.5942H10.5939H10.5936H10.5934H10.5931H10.5928H10.5926H10.5923H10.592H10.5918H10.5915H10.5912H10.591H10.5907H10.5904H10.5902H10.5899H10.5896H10.5894H10.5891H10.5889H10.5886H10.5883H10.5881H10.5878H10.5875H10.5873H10.587H10.5867H10.5865H10.5862H10.5859H10.5857H10.5854H10.5851H10.5849H10.5846H10.5843H10.5841H10.5838H10.5835H10.5833H10.583H10.5828H10.5825H10.5822H10.582H10.5817H10.5814H10.5812H10.5809H10.5806H10.5804H10.5801H10.5798H10.5796H10.5793H10.579H10.5788H10.5785H10.5782H10.578H10.5777H10.5774H10.5772H10.5769H10.5766H10.5764H10.5761H10.5758H10.5756H10.5753H10.575H10.5748H10.5745H10.5742H10.574H10.5737H10.5734H10.5732H10.5729H10.5726H10.5724H10.5721H10.5719H10.5716H10.5713H10.5711H10.5708H10.5705H10.5703H10.57H10.5697H10.5695H10.5692H10.5689H10.5687H10.5684H10.5681H10.5679H10.5676H10.5673H10.5671H10.5668H10.5665H10.5663H10.566H10.5657H10.5655H10.5652H10.5649H10.5647H10.5644H10.5641H10.5639H10.5636H10.5633H10.5631H10.5628H10.5625H10.5622H10.562H10.5617H10.5614H10.5612H10.5609H10.5606H10.5604H10.5601H10.5598H10.5596H10.5593H10.559H10.5588H10.5585H10.5582H10.558H10.5577H10.5574H10.5572H10.5569H10.5566H10.5564H10.5561H10.5558H10.5556H10.5553H10.555H10.5548H10.5545H10.5542H10.554H10.5537H10.5534H10.5531H10.5529H10.5526H10.5523H10.5521H10.5518H10.5515H10.5513H10.551H10.5507H10.5505H10.5502H10.5499H10.5497H10.5494H10.5491H10.5489H10.5486H10.5483H10.548H10.5478H10.5475H10.5472H10.547H10.5467H10.5466C10.5241 14.7657 10.4978 14.7618 10.4706 14.7594C10.4497 14.7562 10.4288 14.7544 10.4131 14.753C10.4104 14.7527 10.4079 14.7525 10.4056 14.7523C10.3866 14.7505 10.3744 14.7491 10.3644 14.7471C10.3501 14.7436 10.337 14.7414 10.3268 14.7399L10.3116 14.7379L10.3001 14.7363C10.2925 14.7353 10.289 14.7345 10.2879 14.7342L10.2683 14.7254L10.2454 14.7227C10.2151 14.7191 10.1873 14.7095 10.1418 14.6938C10.1353 14.6915 10.1285 14.6892 10.1213 14.6867C10.0453 14.66 9.9711 14.6251 9.89312 14.584L9.88272 14.5783C9.91816 14.5565 9.9556 14.5331 9.99076 14.5091C10.156 14.3959 10.3096 14.268 10.4484 14.1185C10.5654 13.9959 10.6681 13.8602 10.7571 13.7163L10.7574 13.7158C10.8343 13.5902 10.8973 13.4582 10.9488 13.3203L10.9488 13.3203L10.9491 13.3192C10.9537 13.3067 10.9574 13.2946 10.9598 13.2866L10.9601 13.2855C10.963 13.2763 10.9644 13.2715 10.966 13.2674L10.966 13.2674L10.9663 13.2664C10.9708 13.2539 10.9754 13.2488 10.9774 13.247C10.979 13.2456 10.9818 13.2434 10.9889 13.242L10.9889 13.242L10.9906 13.2417C10.9914 13.2415 10.992 13.2415 10.9927 13.2417C10.9937 13.2418 10.9956 13.2424 10.9981 13.2438C11.0008 13.2453 11.0035 13.2475 11.0059 13.2502C11.0084 13.2528 11.0097 13.2552 11.0102 13.2564L11.0102 13.2564L11.0119 13.26C11.0347 13.3068 11.0532 13.3574 11.071 13.4142C11.0827 13.4517 11.092 13.4867 11.1022 13.5249C11.1075 13.545 11.1131 13.566 11.1194 13.5887C11.1228 13.6028 11.125 13.6141 11.126 13.6233L11.1259 13.6233L11.1268 13.6294C11.1298 13.6495 11.1326 13.6663 11.135 13.6809C11.1413 13.7183 11.1452 13.7417 11.1441 13.7704L11.144 13.7704V13.7758C11.144 13.8037 11.1459 13.8309 11.1474 13.8524L11.1476 13.8543C11.1492 13.8778 11.1504 13.8953 11.1504 13.912C11.1504 13.9361 11.1499 13.9611 11.1493 13.9879L11.1493 13.9886C11.1488 14.0146 11.1483 14.0423 11.1483 14.0697C11.1483 14.0747 11.148 14.0804 11.1474 14.0908L11.1474 14.092C11.1469 14.101 11.1462 14.1143 11.1462 14.1281C11.1462 14.1582 11.1426 14.1852 11.1377 14.2228C11.1361 14.2351 11.1343 14.2485 11.1325 14.2635L11.1324 14.2634L11.132 14.2687C11.1267 14.3298 11.1146 14.3872 11.0951 14.4454C11.0803 14.4889 11.0667 14.5289 11.0513 14.5684C11.0241 14.6376 10.9749 14.6844 10.9002 14.7166L10.9596 14.8544M10.804 14.8976L10.7864 14.7486C10.824 14.7442 10.8605 14.7337 10.9006 14.7165L10.9596 14.8544M10.804 14.8976C10.8587 14.8911 10.9092 14.876 10.9596 14.8544M10.804 14.8976C10.7851 14.8997 10.7641 14.9041 10.7451 14.9084C10.7329 14.9107 10.72 14.9124 10.7069 14.9141C10.6952 14.9156 10.6834 14.9172 10.6715 14.9192L11.191 14.6231C11.1468 14.7355 11.0648 14.809 10.9596 14.8544" stroke="#BABABA" stroke-width="0.3"/>
<path d="M9.74389 11.3673L9.74389 11.3673C9.7874 11.4654 9.83528 11.5618 9.88487 11.6616C9.95116 11.7937 10.0243 11.9207 10.1081 12.0357L10.1095 12.0376L10.1095 12.0377C10.168 12.1206 10.2287 12.1939 10.2977 12.2537L10.2987 12.2546L10.2987 12.2546C10.3382 12.2894 10.3719 12.3134 10.4071 12.3288C10.4115 12.3307 10.4145 12.3316 10.4162 12.3321C10.4287 12.3308 10.437 12.3284 10.4425 12.3261C10.4478 12.3238 10.4521 12.3209 10.4564 12.3163L10.4591 12.3133L10.4592 12.3133C10.4863 12.2854 10.4946 12.2611 10.4894 12.2249C10.4894 12.2244 10.4893 12.224 10.4892 12.2236L9.74389 11.3673ZM9.74389 11.3673L9.74354 11.3665M9.74389 11.3673L9.74354 11.3665M9.74354 11.3665C9.70498 11.2809 9.66994 11.1899 9.63616 11.0966L9.63617 11.0966L9.63604 11.0962C9.62982 11.0791 9.62568 11.0607 9.62385 11.0324C9.6259 11.0023 9.63452 10.9711 9.6507 10.9422M9.74354 11.3665L9.6507 10.9422M10.425 12.482C10.3992 12.4842 10.3734 12.4775 10.3477 12.4665C10.2918 12.4422 10.2446 12.4068 10.1995 12.3671C10.1179 12.2964 10.0492 12.2124 9.98689 12.1241L10.425 12.482ZM10.425 12.482C10.4787 12.4775 10.5281 12.4599 10.5667 12.4179L10.425 12.482ZM9.6507 10.9422C9.67025 10.9095 9.69165 10.8884 9.71439 10.8752L9.71443 10.8752L9.71835 10.8728C9.78927 10.8286 9.85128 10.7909 9.91758 10.7597L9.91758 10.7597L9.91808 10.7595C9.96644 10.7365 10.0171 10.7172 10.0681 10.7016C10.089 10.6956 10.106 10.6904 10.122 10.6855C10.1425 10.6793 10.1614 10.6735 10.185 10.6671L10.1458 10.5224M9.6507 10.9422L9.85375 10.624C9.90958 10.5975 9.96757 10.5754 10.0255 10.5577C10.0415 10.5531 10.0579 10.5482 10.0745 10.5432C10.098 10.5361 10.1219 10.5288 10.1458 10.5224M10.1458 10.5224C10.1778 10.5138 10.2106 10.507 10.2432 10.5004C10.261 10.4967 10.2787 10.4931 10.2961 10.4892M10.1458 10.5224L10.1847 10.6672C10.213 10.6596 10.2379 10.6546 10.2668 10.6487C10.2844 10.6451 10.3035 10.6412 10.3257 10.6363M10.2961 10.4892L10.3237 10.6367C10.3244 10.6365 10.325 10.6364 10.3257 10.6363M10.2961 10.4892C10.3054 10.4875 10.3146 10.4864 10.3237 10.4854C10.3379 10.4838 10.3518 10.4822 10.3649 10.4782L10.4063 10.6223M10.2961 10.4892L10.3289 10.6356C10.3278 10.6358 10.3267 10.6361 10.3257 10.6363M10.3257 10.6363C10.3285 10.6358 10.3313 10.6355 10.3367 10.6349C10.3398 10.6346 10.3438 10.6341 10.3491 10.6335C10.3615 10.632 10.3829 10.6293 10.4063 10.6223M10.4063 10.6223C10.4313 10.6156 10.4502 10.6141 10.4791 10.6118C10.4971 10.6104 10.5191 10.6087 10.5488 10.6052C10.571 10.6029 10.5845 10.6017 10.5968 10.6017H10.5971H10.5974H10.5978H10.5981H10.5984H10.5988H10.5991H10.5994H10.5997H10.6001H10.6004H10.6007H10.601H10.6014H10.6017H10.602H10.6023H10.6027H10.603H10.6033H10.6037H10.604H10.6043H10.6046H10.605H10.6053H10.6056H10.6059H10.6063H10.6066H10.6069H10.6072H10.6076H10.6079H10.6082H10.6085H10.6089H10.6092H10.6095H10.6098H10.6102H10.6105H10.6108H10.6111H10.6115H10.6118H10.6121H10.6124H10.6128H10.6131H10.6134H10.6137H10.6141H10.6144H10.6147H10.615H10.6154H10.6157H10.616H10.6163H10.6167H10.617H10.6173H10.6176H10.618H10.6183H10.6186H10.6189H10.6193H10.6196H10.6199H10.6202H10.6206H10.6209H10.6212H10.6215H10.6219H10.6222H10.6225H10.6228H10.6231H10.6235H10.6238H10.6241H10.6244H10.6248H10.6251H10.6254H10.6257H10.6261H10.6264H10.6267H10.627H10.6274H10.6277H10.628H10.6283H10.6286H10.629H10.6293H10.6296H10.6299H10.6303H10.6306H10.6309H10.6312H10.6316H10.6319H10.6322H10.6325H10.6328H10.6332H10.6335H10.6338H10.6341H10.6345H10.6348H10.6351H10.6354H10.6358H10.6361H10.6364H10.6367H10.637H10.6374H10.6377H10.638H10.6383H10.6387H10.639H10.6393H10.6396H10.6399H10.6403H10.6406H10.6409H10.6412H10.6416H10.6419H10.6422H10.6425H10.6428H10.6432H10.6435H10.6438H10.6441H10.6445H10.6448H10.6451H10.6454H10.6457H10.6461H10.6464H10.6467H10.647H10.6474H10.6477H10.648H10.6483H10.6486H10.649H10.6493H10.6496H10.6499H10.6502H10.6506H10.6509H10.6512H10.6515H10.6519H10.6522H10.6525H10.6528H10.6531H10.6535H10.6538H10.6541H10.6544H10.6548H10.6551H10.6554H10.6557H10.656H10.6564H10.6567H10.657H10.6573H10.6576H10.658H10.6583H10.6586H10.6589H10.6592H10.6596H10.6599H10.6602H10.6605H10.6609H10.6612H10.6615H10.6618H10.6621H10.6625H10.6628H10.6631H10.6634H10.6637H10.6641H10.6644H10.6647H10.665H10.6654H10.6657H10.666H10.6663H10.6666H10.667H10.6673H10.6676H10.6679H10.6682H10.6686H10.6689H10.6692H10.6695H10.6698H10.6702H10.6705H10.6708H10.6711H10.6714H10.6718H10.6721H10.6724H10.6727H10.6731H10.6734H10.6737H10.674H10.6743H10.6747H10.675H10.6753H10.6756H10.6759H10.6763H10.6766H10.6769H10.6772H10.6775H10.6779H10.6782H10.6785H10.6788H10.6792H10.6795H10.6798H10.6801H10.6804H10.6808H10.6811H10.6814H10.6817H10.682H10.6824H10.6827H10.683H10.6833H10.6836H10.684H10.6843H10.6846H10.6849H10.6852H10.6856H10.6859H10.6862H10.6865H10.6869H10.6872H10.6875H10.6878H10.6881H10.6885H10.6888H10.6891H10.6894H10.6897H10.6901H10.6904H10.6907H10.691H10.6913H10.6917H10.692H10.6923H10.6926H10.693H10.6933H10.6936H10.6939H10.6942H10.6946H10.6949H10.6952H10.6955H10.6958H10.6962H10.6965H10.6968H10.6971H10.6974H10.6978H10.6981H10.6984H10.6987H10.6991H10.6994H10.6997H10.7H10.7003H10.7007H10.701H10.7013H10.7016H10.7019H10.7023H10.7026H10.7029H10.7032H10.7036H10.7039H10.7042H10.7045H10.7048H10.7052H10.7055H10.7058H10.7061H10.7064H10.7068H10.7071H10.7074H10.7077H10.7081H10.7084H10.7087H10.709H10.7093H10.7097H10.71H10.7103H10.7106H10.7109H10.7113H10.7116H10.7119H10.7122H10.7126H10.7129H10.7132H10.7135H10.7138H10.7142H10.7145H10.7148H10.7151H10.7155H10.7158H10.7161H10.7164H10.7167H10.7171H10.7174H10.7177H10.718H10.7184H10.7187H10.719H10.7193H10.7196H10.72H10.7203H10.7206H10.7209H10.7213H10.7216H10.7219H10.7222H10.7225H10.7229H10.7232H10.7235H10.7238H10.7242H10.7245H10.7248H10.7251H10.7255H10.7258H10.7261H10.7264H10.7267H10.7271H10.7274H10.7277H10.728H10.7284H10.7287H10.729H10.7293H10.7296H10.73H10.7303H10.7306H10.7309H10.7313H10.7316H10.7319H10.7322H10.7326H10.7329H10.7332H10.7335H10.7339H10.7342H10.7345H10.7348H10.7351H10.7355H10.7358H10.7361H10.7364H10.7368H10.7371H10.7374H10.7377H10.7381H10.7384H10.7387H10.739H10.7394H10.7397H10.74H10.7403H10.7407H10.741H10.7413H10.7416H10.742H10.7423H10.7426H10.7429H10.7433H10.7436H10.7439H10.7442H10.7446H10.7449H10.7452H10.7455H10.7459H10.7462H10.7465H10.7468H10.7472H10.7475H10.7478H10.7481H10.7485H10.7488H10.7491H10.7494H10.7498H10.7501H10.7504H10.7507H10.7511H10.7514H10.7517H10.752H10.7524H10.7527H10.753H10.7533H10.7537H10.754H10.7543H10.7546H10.755H10.7553H10.7556H10.7559H10.7563H10.7566H10.7569H10.7573H10.7576H10.7579H10.7582H10.7586H10.7589H10.7592H10.7595H10.7599H10.7602H10.7605H10.7608H10.7612H10.7615H10.7618H10.7622C10.8018 10.6017 10.8403 10.6036 10.8751 10.6085C10.8877 10.6107 10.9 10.6118 10.9102 10.6123C10.8159 10.7578 10.7316 10.9133 10.6645 11.0766C10.6188 11.1847 10.5825 11.2945 10.5532 11.4056C10.5413 11.4464 10.5322 11.4969 10.5255 11.5338C10.5229 11.5482 10.5206 11.5606 10.5188 11.5695L10.4063 10.6223ZM9.47363 11.0327C9.47578 11.0769 9.48222 11.1122 9.49511 11.1476L9.47363 11.0327ZM10.479 12.0825V12.0828L10.4943 11.715C10.4929 11.7343 10.4909 11.7528 10.4886 11.7743C10.4877 11.783 10.4867 11.792 10.4857 11.8018C10.4823 11.8343 10.479 11.872 10.479 11.912V11.9123V11.9126V11.913V11.9133V11.9137V11.914V11.9143V11.9147V11.915V11.9153V11.9157V11.916V11.9164V11.9167V11.917V11.9174V11.9177V11.918V11.9184V11.9187V11.9191V11.9194V11.9197V11.9201V11.9204V11.9207V11.9211V11.9214V11.9218V11.9221V11.9224V11.9228V11.9231V11.9234V11.9238V11.9241V11.9245V11.9248V11.9251V11.9255V11.9258V11.9261V11.9265V11.9268V11.9272V11.9275V11.9278V11.9282V11.9285V11.9289V11.9292V11.9295V11.9299V11.9302V11.9306V11.9309V11.9312V11.9316V11.9319V11.9322V11.9326V11.9329V11.9333V11.9336V11.9339V11.9343V11.9346V11.935V11.9353V11.9356V11.936V11.9363V11.9367V11.937V11.9373V11.9377V11.938V11.9384V11.9387V11.939V11.9394V11.9397V11.9401V11.9404V11.9407V11.9411V11.9414V11.9418V11.9421V11.9424V11.9428V11.9431V11.9435V11.9438V11.9441V11.9445V11.9448V11.9452V11.9455V11.9458V11.9462V11.9465V11.9469V11.9472V11.9476V11.9479V11.9482V11.9486V11.9489V11.9493V11.9496V11.9499V11.9503V11.9506V11.951V11.9513V11.9516V11.952V11.9523V11.9527V11.953V11.9533V11.9537V11.954V11.9544V11.9547V11.9551V11.9554V11.9557V11.9561V11.9564V11.9568V11.9571V11.9574V11.9578V11.9581V11.9585V11.9588V11.9592V11.9595V11.9598V11.9602V11.9605V11.9609V11.9612V11.9615V11.9619V11.9622V11.9626V11.9629V11.9633V11.9636V11.9639V11.9643V11.9646V11.965V11.9653V11.9657V11.966V11.9663V11.9667V11.967V11.9674V11.9677V11.968V11.9684V11.9687V11.9691V11.9694V11.9698V11.9701V11.9704V11.9708V11.9711V11.9715V11.9718V11.9722V11.9725V11.9728V11.9732V11.9735V11.9739V11.9742V11.9746V11.9749V11.9752V11.9756V11.9759V11.9763V11.9766V11.9769V11.9773V11.9776V11.978V11.9783V11.9787V11.979V11.9793V11.9797V11.98V11.9804V11.9807V11.9811V11.9814V11.9817V11.9821V11.9824V11.9828V11.9831V11.9835V11.9838V11.9841V11.9845V11.9848V11.9852V11.9855V11.9859V11.9862V11.9865V11.9869V11.9872V11.9876V11.9879V11.9883V11.9886V11.9889V11.9893V11.9896V11.99V11.9903V11.9907V11.991V11.9913V11.9917V11.992V11.9924V11.9927V11.9931V11.9934V11.9937V11.9941V11.9944V11.9948V11.9951V11.9955V11.9958V11.9962V11.9965V11.9968V11.9972V11.9975V11.9979V11.9982V11.9986V11.9989V11.9992V11.9996V11.9999V12.0003V12.0006V12.001V12.0013V12.0016V12.002V12.0023V12.0027V12.003V12.0034V12.0037V12.004V12.0044V12.0047V12.0051V12.0054V12.0058V12.0061V12.0064V12.0068V12.0071V12.0075V12.0078V12.0082V12.0085V12.0088V12.0092V12.0095V12.0099V12.0102V12.0106V12.0109V12.0112V12.0116V12.0119V12.0123V12.0126V12.013V12.0133V12.0136V12.014V12.0143V12.0147V12.015V12.0154V12.0157V12.016V12.0164V12.0167V12.0171V12.0174V12.0178V12.0181V12.0184V12.0188V12.0191V12.0195V12.0198V12.0202V12.0205V12.0208V12.0212V12.0215V12.0219V12.0222V12.0226V12.0229V12.0232V12.0236V12.0239V12.0243V12.0246V12.025V12.0253V12.0256V12.026V12.0263V12.0267V12.027V12.0273V12.0277V12.028V12.0284V12.0287V12.0291V12.0294V12.0297V12.0301V12.0304V12.0308V12.0311V12.0315V12.0318V12.0321V12.0325V12.0328V12.0332V12.0335V12.0339V12.0342V12.0345V12.0349V12.0352V12.0356V12.0359V12.0362V12.0366V12.0369V12.0373V12.0376V12.038V12.0383V12.0386V12.039V12.0393V12.0397V12.04V12.0403V12.0407V12.041V12.0414V12.0417V12.0421V12.0424V12.0427V12.0431V12.0434V12.0438V12.0441V12.0444V12.0448V12.0451V12.0455V12.0458V12.0461V12.0465V12.0468V12.0472V12.0475V12.0479V12.0482V12.0485V12.0489V12.0492V12.0496V12.0499V12.0502V12.0506V12.0509V12.0513V12.0516V12.0519V12.0523V12.0526V12.053V12.0533V12.0536V12.054V12.0543V12.0547V12.055V12.0554V12.0557V12.056V12.0564V12.0567V12.0571V12.0574V12.0577V12.0581V12.0584V12.0588V12.0591V12.0594V12.0598V12.0601V12.0605V12.0608V12.0611V12.0615V12.0618V12.0622V12.0625V12.0628V12.0632V12.0635V12.0638V12.0642V12.0645V12.0649V12.0652V12.0655V12.0659V12.0662V12.0666V12.0669V12.0672V12.0676V12.0679V12.0683V12.0686V12.0689V12.0693V12.0696V12.07V12.0703V12.0706V12.071V12.0713V12.0716V12.072V12.0723V12.0727V12.073V12.0733V12.0737V12.074V12.0744V12.0747V12.075V12.0754V12.0757V12.076V12.0764V12.0767V12.0771V12.0774V12.0777V12.0781V12.0784V12.0787V12.0791V12.0794V12.0798V12.0801V12.0804V12.0808V12.0811V12.0814V12.0818V12.0821V12.0825Z" stroke="#BABABA" stroke-width="0.3"/>
<path d="M9.73267 13.9182L9.73268 13.9183C9.83205 13.8562 9.92654 13.788 10.0141 13.714L10.0145 13.7137C10.1548 13.5957 10.2782 13.4609 10.3847 13.3089C10.4426 13.2249 10.4942 13.1373 10.5376 13.0483C10.5374 13.0481 10.5372 13.0479 10.537 13.0477C10.5349 13.0459 10.5338 13.0451 10.5337 13.045C10.5337 13.045 10.5337 13.045 10.5337 13.045L10.5273 13.041C10.4553 13.0727 10.3797 13.0991 10.3053 13.1205L10.3015 13.1216C10.2333 13.1412 10.1551 13.1637 10.0753 13.1764L10.0727 13.1769L10.0727 13.1768C10.0597 13.1787 10.0463 13.181 10.0299 13.1839L10.0289 13.1841C10.0146 13.1866 9.99795 13.1896 9.98075 13.1921C9.95134 13.1976 9.92127 13.2003 9.89922 13.2023C9.89824 13.2024 9.89727 13.2025 9.89632 13.2026L9.88287 13.2038V13.2034L9.73267 13.9182ZM9.73267 13.9182L9.73074 13.9195C9.72146 13.9255 9.71177 13.9317 9.70178 13.9381C9.6609 13.9643 9.61491 13.9937 9.57064 14.0257C9.49336 14.0702 9.41977 14.1089 9.34285 14.1375C9.31329 14.1483 9.28648 14.1554 9.26045 14.1591C9.22881 14.1554 9.21258 14.1474 9.20002 14.137C9.17337 14.1138 9.14798 14.0855 9.1206 14.0521L9.12061 14.0521L9.1194 14.0506C9.09906 14.0265 9.08138 14.0037 9.06172 13.9784C9.04965 13.9628 9.03683 13.9463 9.0222 13.9279C8.9311 13.8103 8.85447 13.686 8.78805 13.5524C8.74363 13.46 8.70521 13.3629 8.67299 13.2652C8.65449 13.2056 8.63913 13.1554 8.62966 13.1047L8.6298 13.1047L8.6283 13.0983C8.6276 13.0953 8.62663 13.0906 8.62542 13.0848C8.62367 13.0764 8.62142 13.0656 8.61876 13.0539C8.63814 13.06 8.65762 13.066 8.67664 13.0719L8.67737 13.0721L8.67737 13.0722L8.67799 13.0723C8.7382 13.0907 8.80163 13.1093 8.86329 13.1258L8.86328 13.1258L8.86589 13.1264L8.86734 13.1268C8.92118 13.1401 8.97881 13.1544 9.03932 13.1664C9.0885 13.1762 9.13713 13.1834 9.18175 13.19L9.1833 13.1902L9.1833 13.1903L9.18527 13.1905L9.18671 13.1907C9.23563 13.1973 9.28842 13.2045 9.34405 13.2093C9.46204 13.2214 9.58022 13.2213 9.69425 13.2167H9.69426H9.69432H9.69438H9.69443H9.69449H9.69454H9.6946H9.69466H9.69471H9.69477H9.69483H9.69488H9.69494H9.695H9.69505H9.69511H9.69517H9.69523H9.69528H9.69534H9.6954H9.69545H9.69551H9.69557H9.69562H9.69568H9.69574H9.6958H9.69585H9.69591H9.69597H9.69603H9.69608H9.69614H9.6962H9.69626H9.69632H9.69637H9.69643H9.69649H9.69655H9.6966H9.69666H9.69672H9.69678H9.69684H9.6969H9.69695H9.69701H9.69707H9.69713H9.69719H9.69725H9.6973H9.69736H9.69742H9.69748H9.69754H9.6976H9.69766H9.69771H9.69777H9.69783H9.69789H9.69795H9.69801H9.69807H9.69813H9.69819H9.69825H9.6983H9.69836H9.69842H9.69848H9.69854H9.6986H9.69866H9.69872H9.69878H9.69884H9.6989H9.69896H9.69902H9.69908H9.69914H9.6992H9.69926H9.69932H9.69938H9.69944H9.6995H9.69956H9.69962H9.69968H9.69974H9.6998H9.69986H9.69992H9.69998H9.70004H9.7001H9.70016H9.70022H9.70028H9.70034H9.7004H9.70046H9.70052H9.70058H9.70064H9.7007H9.70076H9.70082H9.70089H9.70095H9.70101H9.70107H9.70113H9.70119H9.70125H9.70131H9.70137H9.70143H9.70149H9.70156H9.70162H9.70168H9.70174H9.7018H9.70186H9.70192H9.70199H9.70205H9.70211H9.70217H9.70223H9.70229H9.70235H9.70242H9.70248H9.70254H9.7026H9.70266H9.70272H9.70279H9.70285H9.70291H9.70297H9.70303H9.7031H9.70316H9.70322H9.70328H9.70334H9.70341H9.70347H9.70353H9.70359H9.70366H9.70372H9.70378H9.70384H9.7039H9.70397H9.70403H9.70409H9.70415H9.70422H9.70428H9.70434H9.7044H9.70447H9.70453H9.70459H9.70466H9.70472H9.70478H9.70484H9.70491H9.70497H9.70503H9.7051H9.70516H9.70522H9.70528H9.70535H9.70541H9.70547H9.70554H9.7056H9.70566H9.70573H9.70579H9.70585H9.70592H9.70598H9.70604H9.70611H9.70617H9.70623H9.7063H9.70636H9.70642H9.70649H9.70655H9.70661H9.70668H9.70674H9.7068H9.70687H9.70693H9.707H9.70706H9.70712H9.70719H9.70725H9.70731H9.70738H9.70744H9.70751H9.70757H9.70763H9.7077H9.70776H9.70783H9.70789H9.70795H9.70802H9.70808H9.70815H9.70821H9.70828H9.70834H9.7084H9.70847H9.70853H9.7086H9.70866H9.70873H9.70879H9.70885H9.70892H9.70898H9.70905H9.70911H9.70918H9.70924H9.70931H9.70937H9.70944H9.7095H9.70956H9.70963H9.70969H9.70976H9.70982H9.70989H9.70995H9.71002H9.71008H9.71015H9.71021H9.71028H9.71034H9.71041H9.71047H9.71054H9.7106H9.71067H9.71073H9.7108H9.71086H9.71093H9.71099H9.71106H9.71112H9.71119H9.71125H9.71132H9.71138H9.71145H9.71151H9.71158H9.71164H9.71171H9.71177H9.71184H9.71191H9.71197H9.71204H9.7121H9.71217H9.71223H9.7123H9.71236H9.71243H9.71249H9.71256H9.71263H9.71269H9.71276H9.71282H9.71289H9.71295H9.71302H9.71308H9.71315H9.71322H9.71328H9.71335H9.71341H9.71348H9.71354H9.71361H9.71368H9.71374H9.71381H9.71387H9.71394H9.71401H9.71407H9.71414H9.7142H9.71427H9.71433H9.7144H9.71447H9.71453H9.7146H9.71466H9.71473H9.7148H9.71486H9.71493H9.71499H9.71506H9.71513H9.71519H9.71526H9.71533H9.71539H9.71546H9.71552H9.71559H9.71566H9.71572H9.71579H9.71585H9.71592H9.71599H9.71605H9.71612H9.71619H9.71625H9.71632H9.71638H9.71645H9.71652H9.71658H9.71665H9.71672H9.71678H9.71685H9.71692H9.71698H9.71705H9.71711H9.71718H9.71725H9.71731H9.71738H9.71745H9.71751H9.71758H9.71765H9.71771H9.71778H9.71785H9.71791H9.71798H9.71805H9.71811H9.71818H9.71824H9.71831H9.71838H9.71844H9.71851H9.71858H9.71864H9.71871H9.71878H9.71884H9.71891H9.71898H9.71904H9.71911H9.71918H9.71924H9.71931H9.71938H9.71944H9.71951H9.71958H9.71964H9.71971H9.71973L9.73267 13.9182Z" stroke="#BABABA" stroke-width="0.3"/>
<path d="M9.49828 12.8532C9.53038 12.8589 9.56248 12.8615 9.59423 12.8641C9.62015 12.8661 9.64583 12.8682 9.67109 12.8719L9.52527 12.7057M9.49828 12.8532L9.52624 12.7059C9.52592 12.7058 9.5256 12.7057 9.52527 12.7057M9.49828 12.8532C9.4717 12.8482 9.44436 12.8455 9.41671 12.8427C9.39887 12.8409 9.38091 12.8391 9.36295 12.8366L9.49828 12.8532ZM9.52527 12.7057C9.54645 12.7094 9.56903 12.7115 9.59754 12.7138C9.60037 12.7141 9.60328 12.7143 9.60628 12.7145C9.63157 12.7165 9.66242 12.719 9.69298 12.7235L9.69566 12.7239L9.69565 12.7239C9.70427 12.7254 9.71498 12.7262 9.73125 12.7266C9.73461 12.7267 9.73897 12.7268 9.74393 12.7269C9.75737 12.7272 9.77527 12.7275 9.7902 12.7284L9.79208 12.7285L9.79207 12.7285C9.81143 12.7299 9.83453 12.7312 9.85819 12.7325C9.88919 12.7343 9.92116 12.7361 9.94693 12.7382C9.9689 12.7373 9.98432 12.7369 9.99756 12.7365C10.0139 12.7361 10.0269 12.7358 10.0448 12.7346L10.0454 12.7346C10.0809 12.7325 10.1102 12.7307 10.1408 12.7271L10.1495 12.7261H10.1583C10.1604 12.7261 10.1644 12.7257 10.1809 12.7234L10.1827 12.7231L10.1827 12.7232C10.2154 12.7189 10.2434 12.7152 10.2694 12.7103C10.1234 12.6337 9.9905 12.5404 9.86682 12.434L9.86623 12.4335C9.7436 12.3269 9.63673 12.2115 9.53926 12.0835L9.53912 12.0833C9.40265 11.9035 9.29026 11.7104 9.20211 11.5041L9.20025 11.4997L9.20032 11.4997C9.19412 11.4838 9.18733 11.468 9.17936 11.4494L9.17896 11.4485C9.17861 11.4477 9.17826 11.4469 9.17791 11.4461C9.11177 11.517 9.05567 11.5972 9.00739 11.685C8.95725 11.7773 8.91525 11.8726 8.88297 11.9709L8.88269 11.9718L8.88269 11.9718C8.87272 12.0016 8.86523 12.0285 8.85671 12.0591C8.8519 12.0764 8.84677 12.0948 8.84068 12.1156L8.84036 12.1167L8.84035 12.1167C8.82915 12.1539 8.82088 12.1877 8.81606 12.2213L8.81133 12.2542V12.2543V12.2544V12.2545V12.2545V12.2546V12.2547V12.2548V12.2549V12.255V12.2551V12.2551V12.2552V12.2553V12.2554V12.2555V12.2556V12.2557V12.2557V12.2558V12.2559V12.256V12.2561V12.2562V12.2563V12.2563V12.2564V12.2565V12.2566V12.2567V12.2568V12.2569V12.257V12.257V12.2571V12.2572V12.2573V12.2574V12.2575V12.2576V12.2576V12.2577V12.2578V12.2579V12.258V12.2581V12.2582V12.2582V12.2583V12.2584V12.2585V12.2586V12.2587V12.2588V12.2589V12.2589V12.259V12.2591V12.2592V12.2593V12.2594V12.2595V12.2595V12.2596V12.2597V12.2598V12.2599V12.26V12.2601V12.2602V12.2602V12.2603V12.2604V12.2605V12.2606V12.2607V12.2608V12.2608V12.2609V12.261V12.2611V12.2612V12.2613V12.2614V12.2615V12.2615V12.2616V12.2617V12.2618V12.2619V12.262V12.2621V12.2622V12.2622V12.2623V12.2624V12.2625V12.2626V12.2627V12.2628V12.2629V12.2629V12.263V12.2631V12.2632V12.2633V12.2634V12.2635V12.2636V12.2636V12.2637V12.2638V12.2639V12.264V12.2641V12.2642V12.2643V12.2643V12.2644V12.2645V12.2646V12.2647V12.2648V12.2649V12.265V12.265V12.2651V12.2652V12.2653V12.2654V12.2655V12.2656V12.2657V12.2657V12.2658V12.2659V12.266V12.2661V12.2662V12.2663V12.2664V12.2665V12.2665V12.2666V12.2667V12.2668V12.2669V12.267V12.2671V12.2672V12.2673V12.2673V12.2674V12.2675V12.2676V12.2677V12.2678V12.2679V12.268V12.268V12.2681V12.2682V12.2683V12.2684V12.2685V12.2686V12.2687V12.2688V12.2688V12.2689V12.269V12.2691V12.2692V12.2693V12.2694V12.2695V12.2696V12.2697V12.2697V12.2698V12.2699V12.27V12.2701V12.2702V12.2703V12.2704V12.2705V12.2705V12.2706V12.2707V12.2708V12.2709V12.271V12.2711V12.2712V12.2713V12.2714V12.2714V12.2715V12.2716V12.2717V12.2718V12.2719V12.272V12.2721V12.2722V12.2723V12.2723V12.2724V12.2725V12.2726V12.2727V12.2728V12.2729V12.273V12.2731V12.2732V12.2732V12.2733V12.2734V12.2735V12.2736V12.2737V12.2738V12.2739V12.274V12.2741V12.2742V12.2742V12.2743V12.2744V12.2745V12.2746V12.2747V12.2748V12.2749V12.275V12.2751V12.2752V12.2752V12.2753V12.2754V12.2755V12.2756V12.2757V12.2758V12.2759V12.276V12.2761V12.2762V12.2763V12.2763V12.2764V12.2765V12.2766V12.2767V12.2768V12.2769V12.277V12.2771V12.2772V12.2773V12.2774V12.2774V12.2775V12.2776V12.2777V12.2778V12.2779V12.278V12.2781V12.2782V12.2783V12.2784V12.2785V12.2786V12.2786V12.2787V12.2788V12.2789V12.279V12.2791V12.2792V12.2793V12.2794V12.2795V12.2796V12.2797V12.2798V12.2798V12.2799V12.28V12.2801V12.2802V12.2803V12.2804V12.2805V12.2806V12.2807V12.2808V12.2809V12.281V12.2811V12.2812V12.2812V12.2813V12.2814V12.2815V12.2816V12.2817V12.2818V12.2819V12.282V12.2821V12.2822V12.2823V12.2824V12.2825V12.2826V12.2827V12.2828V12.2828V12.2829V12.283V12.2831V12.2832V12.2833V12.2834V12.2835V12.2836V12.2837V12.2838V12.2839V12.284V12.2841V12.2842V12.2843V12.2844V12.2845V12.2845V12.2846V12.2847V12.2848V12.2849V12.285V12.2851V12.2852V12.2853V12.2854V12.2855V12.2856V12.2857V12.2858V12.2859V12.286V12.2861V12.2862V12.2863V12.2864V12.2865V12.2866V12.2867V12.2867V12.2868V12.2869V12.287V12.2871V12.2872V12.2873V12.2874V12.2875V12.2876V12.2877V12.2878V12.2879V12.288V12.2881V12.2882V12.2883V12.2884V12.2885V12.2886V12.2887V12.2888V12.2889V12.289V12.2891V12.2892V12.2945L8.81123 12.2945C8.81014 12.3252 8.81779 12.3624 8.83385 12.4088C8.8569 12.4714 8.89386 12.5208 8.94767 12.5666C8.98446 12.5975 9.02503 12.6186 9.07333 12.6318L9.074 12.6319C9.10532 12.6406 9.13924 12.6478 9.1739 12.6532L9.17657 12.6536L9.17656 12.6537L9.28274 12.6723C9.31887 12.6787 9.35001 12.6841 9.38041 12.6877L9.38315 12.688L9.38314 12.688C9.39826 12.6901 9.41284 12.6915 9.43014 12.6933C9.4354 12.6938 9.44091 12.6944 9.44677 12.695C9.46982 12.6973 9.49714 12.7004 9.52527 12.7057ZM9.29425 11.3352C9.30154 11.3539 9.30934 11.372 9.31715 11.3902C9.32496 11.4083 9.33277 11.4265 9.34005 11.4451C9.42333 11.6401 9.52951 11.8226 9.65859 11.9926C9.7502 12.1129 9.85013 12.2207 9.96464 12.3203L9.29425 11.3352ZM9.29425 11.3352C9.28384 11.3083 9.2651 11.2896 9.24012 11.2771L9.29425 11.3352ZM8.66133 12.2892V12.2435L8.66758 12.2C8.67382 12.1564 8.68423 12.115 8.69672 12.0735L8.66133 12.2892ZM8.66133 12.2892C8.65925 12.3472 8.67382 12.4053 8.69256 12.4592L8.66133 12.2892Z" stroke="#BABABA" stroke-width="0.3"/>
<path d="M11.3675 13.5063C11.3406 13.4188 11.3089 13.3336 11.2722 13.2484C11.2331 13.161 11.1891 13.0757 11.1378 12.9928L11.2695 12.921C11.2692 12.9205 11.2689 12.92 11.2686 12.9194C11.2683 12.9188 11.268 12.9182 11.2676 12.9176M11.3675 13.5063L11.2676 12.9176M11.3675 13.5063C11.3786 13.5425 11.3876 13.5796 11.3965 13.6164M11.3675 13.5063L11.3965 13.6164M11.2676 12.9176C11.322 13.0058 11.3683 13.0959 11.4091 13.1872L11.41 13.1891L11.41 13.1891C11.4486 13.2788 11.4823 13.3691 11.5109 13.4622L11.511 13.4625C11.5232 13.5024 11.5344 13.5484 11.544 13.588C11.5486 13.6068 11.5528 13.6242 11.5566 13.6388L11.5576 13.6426L11.5576 13.6426C11.5662 13.6795 11.5718 13.7157 11.5765 13.7458L11.5768 13.7478C11.5865 13.8098 11.5977 13.883 11.6005 13.9557L11.6006 13.959L11.6036 13.99L11.6072 14.0275L11.608 14.0349V14.0423V14.0428V14.0433V14.0438V14.0443V14.0448V14.0453V14.0458V14.0463V14.0468V14.0473V14.0478V14.0483V14.0488V14.0493V14.0498V14.0503V14.0508V14.0513V14.0518V14.0523V14.0528V14.0533V14.0538V14.0543V14.0548V14.0552V14.0557V14.0562V14.0567V14.0572V14.0577V14.0582V14.0587V14.0592V14.0597V14.0602V14.0607V14.0612V14.0617V14.0622V14.0627V14.0632V14.0637V14.0642V14.0647V14.0652V14.0657V14.0662V14.0667V14.0672V14.0677V14.0682V14.0687V14.0692V14.0697V14.0702V14.0707V14.0712V14.0717V14.0722V14.0727V14.0732V14.0737V14.0742V14.0747V14.0752V14.0757V14.0762V14.0767V14.0772V14.0777V14.0782V14.0787V14.0792V14.0797V14.0802V14.0807V14.0812V14.0817V14.0822V14.0827V14.0832V14.0837V14.0842V14.0847V14.0852V14.0857V14.0862V14.0867V14.0872V14.0877V14.0882V14.0887V14.0892V14.0897V14.0902V14.0907V14.0912V14.0917V14.0922V14.0927V14.0932V14.0937V14.0942V14.0947V14.0952V14.0957V14.0962V14.0967V14.0972V14.0977V14.0982V14.0987V14.0992V14.0997V14.1002V14.1007V14.1012V14.1017V14.1022V14.1027V14.1032V14.1037V14.1042V14.1047V14.1052V14.1057V14.1062V14.1067V14.1072V14.1077V14.1082V14.1087V14.1092V14.1097V14.1102V14.1107V14.1112V14.1117V14.1122V14.1127V14.1132V14.1137V14.1142V14.1147V14.1152V14.1157V14.1162V14.1167V14.1172V14.1177V14.1182V14.1187V14.1192V14.1197V14.1202V14.1207V14.1212V14.1217V14.1222V14.1227V14.1232V14.1237V14.1242V14.1247V14.1252V14.1257V14.1262V14.1267V14.1272V14.1277V14.1282V14.1287V14.1292V14.1297V14.1302V14.1307V14.1312V14.1317V14.1322V14.1327V14.1332V14.1337V14.1342V14.1347V14.1352V14.1357V14.1362V14.1367V14.1373V14.1378V14.1383V14.1388V14.1393V14.1398V14.1403V14.1408V14.1413V14.1418V14.1423V14.1428V14.1433V14.1438V14.1443V14.1448V14.1453V14.1458V14.1463V14.1468V14.1473V14.1478V14.1483V14.1488V14.1493V14.1498V14.1503V14.1508V14.1513V14.1518V14.1523V14.1528V14.1533V14.1538V14.1543V14.1548V14.1553V14.1558V14.1563V14.1568V14.1573V14.1578V14.1583V14.1588V14.1593V14.1598V14.1603V14.1608V14.1613V14.1618V14.1623V14.1628V14.1633V14.1638V14.1643V14.1648V14.1653V14.1658V14.1664V14.1669V14.1674V14.1679V14.1684V14.1689V14.1694V14.1699V14.1704V14.1709V14.1714V14.1719V14.1724V14.1729V14.1734V14.1739V14.1744V14.1749V14.1754V14.1759V14.1764V14.1769V14.1774V14.1779V14.1784V14.1789V14.1794V14.1799V14.1804V14.1809V14.1814V14.1819V14.1824V14.1829V14.1834V14.184V14.1845V14.185V14.1855V14.186V14.1865V14.187V14.1875V14.188V14.1885V14.189V14.1895V14.19V14.1905V14.191V14.1915V14.192V14.1925V14.193V14.1935V14.194V14.1945V14.195V14.1955V14.196V14.1965V14.197V14.1976V14.1981V14.1986V14.1991V14.1996V14.2001V14.2006V14.2011V14.2016V14.2021V14.2026V14.2031V14.2036V14.2041V14.2046V14.2051V14.2056V14.2061V14.2066V14.2071V14.2076V14.2081V14.2086V14.2092V14.2097V14.2102V14.2107V14.2112V14.2117V14.2122V14.2127V14.2132V14.2137V14.2142V14.2147V14.2152V14.2157V14.2162V14.2167V14.2172V14.2177V14.2182V14.2188V14.2193V14.2198V14.2203V14.2208V14.2213V14.2218V14.2223V14.2228V14.2233V14.2238V14.2243V14.2248V14.2253V14.2258V14.2263V14.2268V14.2274V14.2279V14.2284V14.2289V14.2294V14.2299V14.2304V14.2309V14.2314V14.2319V14.2324V14.2329V14.2334V14.2339V14.2344V14.2349V14.2355V14.236V14.2365V14.237V14.2375V14.238V14.2385V14.239V14.2395V14.24V14.2405V14.241V14.2415V14.242V14.2426V14.2431V14.2436V14.2441V14.2446V14.2451V14.2456V14.2461V14.2466V14.2471V14.2476V14.2481V14.2486V14.2492V14.2497V14.2502V14.2507V14.2512V14.2517V14.2522V14.2527V14.2532V14.2537V14.2542V14.2547V14.2552V14.2558V14.2563V14.2568V14.2573V14.2578V14.2583V14.2588V14.2593V14.2598V14.2603V14.2608V14.2614V14.2619V14.2624V14.2629V14.2634V14.2639V14.2644V14.2649V14.2654V14.2659V14.2664V14.267V14.2675V14.268V14.2685V14.269V14.2695V14.27V14.2705V14.271V14.2715V14.272C11.6568 14.2279 11.7032 14.1811 11.7478 14.132L11.8588 14.2329M11.2676 12.9176C11.2638 12.9105 11.2567 12.8978 11.2483 12.8855C11.2478 12.8845 11.2477 12.884 11.2477 12.8838C11.2477 12.8838 11.2477 12.8838 11.2477 12.8838C11.2476 12.8832 11.2475 12.8811 11.2485 12.8772C11.2495 12.8731 11.2517 12.8679 11.2552 12.8624C11.2582 12.8577 11.2616 12.8538 11.2647 12.851C11.2713 12.8462 11.2825 12.8408 11.3031 12.8366C11.3419 12.8471 11.3773 12.8567 11.4121 12.8679C11.4952 12.8977 11.5772 12.9312 11.6538 12.9684C11.7929 13.0365 11.9239 13.1146 12.045 13.2047C12.0679 13.2221 12.0861 13.2376 12.1076 13.256C12.1237 13.2698 12.1416 13.2851 12.1648 13.3041L12.153 13.3801L12.1529 13.3801L12.1524 13.3846C12.1452 13.4424 12.1249 13.5008 12.0961 13.5736C12.0624 13.6558 12.0216 13.7371 11.9756 13.8174L11.9756 13.8174L11.9751 13.8182C11.9123 13.9293 11.8358 14.0347 11.7476 14.1323L11.8588 14.2329M11.8588 14.2329C11.9541 14.1275 12.0372 14.0131 12.1057 13.892L11.4506 13.966L11.458 14.0423V14.3002C11.458 14.3208 11.4559 14.3404 11.4537 14.3603C11.4526 14.3708 11.4515 14.3813 11.4506 14.3921C11.4482 14.41 11.4457 14.4302 11.4482 14.4482C11.4482 14.484 11.4848 14.5132 11.524 14.5132C11.5435 14.5132 11.5606 14.5042 11.5753 14.493C11.6804 14.4145 11.7733 14.3271 11.8588 14.2329ZM12.3159 13.309L12.1683 13.3017L12.1669 13.3016L12.1663 13.3016L12.3159 13.309ZM12.3159 13.309C12.3183 13.2596 12.2988 13.2193 12.2597 13.1879M12.3159 13.309L12.3012 13.4032L12.2597 13.1879M12.2597 13.1879C12.2426 13.1739 12.2263 13.16 12.2102 13.1464M12.2597 13.1879L12.2102 13.1464M11.3965 13.6164C11.4014 13.6367 11.4063 13.6568 11.4115 13.6767L11.3965 13.6164ZM12.2102 13.1464C12.1849 13.1248 12.1604 13.1039 12.135 13.0847L12.2102 13.1464ZM11.4842 14.3738C11.4837 14.3742 11.4838 14.3741 11.4843 14.3737L11.4842 14.3738Z" stroke="#BABABA" stroke-width="0.3"/>
<path d="M12.1323 12.6063C12.1254 12.5765 12.12 12.5472 12.1154 12.5219L12.1151 12.5201C12.1098 12.4908 12.1053 12.4666 12.0998 12.4436C12.0844 12.3884 12.0667 12.3327 12.0482 12.2741C12.0326 12.2306 12.0129 12.188 11.9887 12.1442C11.9624 12.099 11.9438 12.0741 11.9212 12.0568L11.9168 12.0534L11.9169 12.0533C11.886 12.0279 11.8607 12.0207 11.8325 12.0241C11.8067 12.0283 11.787 12.0317 11.7681 12.0363L12.1323 12.6063ZM12.1323 12.6063C12.066 12.5713 11.9975 12.5393 11.9267 12.5104L11.9267 12.5104L11.9252 12.5099C11.9167 12.5065 11.9079 12.503 11.8989 12.4993C11.8486 12.4792 11.7904 12.456 11.7324 12.4379C11.6571 12.4138 11.5778 12.3906 11.4941 12.3741C11.4825 12.3716 11.4708 12.3687 11.4558 12.365L11.4548 12.3647C11.4406 12.3611 11.4231 12.3567 11.4046 12.3529M12.1323 12.6063L11.375 12.2089L11.2561 12.2782C11.2532 12.28 11.2516 12.2813 11.2508 12.282L11.2497 12.2832L11.2487 12.2849C11.2484 12.2855 11.2481 12.2862 11.2478 12.2872C11.2481 12.29 11.2488 12.2948 11.2508 12.3027C11.2545 12.3152 11.2595 12.3202 11.2629 12.3229C11.2673 12.3264 11.2767 12.3316 11.2945 12.3334L11.2997 12.3339L11.2997 12.334C11.3356 12.339 11.3727 12.3462 11.4046 12.3529M11.4046 12.3529L11.3752 12.4944L11.4046 12.3529Z" stroke="#BABABA" stroke-width="0.3"/>
<path d="M11.1257 11.9337C11.1087 11.9481 11.1003 11.9644 11.0982 11.9861L11.1257 11.9337Z" stroke="#BABABA" stroke-width="0.3"/>
<path d="M10.4989 9C12.434 9 14.0007 10.565 14 12.4972C13.9993 14.4318 12.434 15.9996 10.5032 16C8.57205 16.0004 7.00071 14.4311 7 12.5011C6.99965 10.5689 8.56781 9 10.4989 9ZM10.5099 9.46652C8.83535 9.46476 7.47006 10.818 7.46688 12.4823C7.4637 14.1661 8.82157 15.5331 10.4975 15.5342C12.1724 15.5352 13.5338 14.1745 13.5338 12.5C13.5338 10.8269 12.1795 9.46829 10.5099 9.46652Z" fill="#BABABA"/>
<mask id="path-9-inside-1" fill="white">
<path d="M19.9554 14.6733C19.9226 14.4608 19.874 14.2531 19.823 14.0419C19.806 13.9726 19.7817 13.907 19.7574 13.8425C19.7428 13.8032 19.7283 13.7638 19.7149 13.7244C19.6882 13.6432 19.6639 13.5609 19.6384 13.4797C19.602 13.3615 19.5656 13.2434 19.5255 13.1264C19.4599 12.933 19.3919 12.7421 19.3239 12.5499L19.1818 12.1441C19.1405 12.0247 19.0992 11.9066 19.0555 11.7884C19.0179 11.6857 18.9778 11.5831 18.9377 11.4816C18.9086 11.4076 18.8794 11.3336 18.8515 11.2596C18.7932 11.1069 18.7362 10.9529 18.6791 10.8001L18.5164 10.368C18.4726 10.2523 18.4289 10.1365 18.3864 10.0219C18.3148 9.82973 18.2431 9.63756 18.1727 9.4454C18.1168 9.29262 18.061 9.13865 18.0088 8.98348C18.0039 8.96796 18.0051 8.94409 18.0124 8.9238C18.0282 8.87964 18.0464 8.83547 18.0646 8.79131C18.0962 8.71492 18.1278 8.63615 18.1496 8.55379C18.1946 8.37714 18.2322 8.19572 18.2674 8.02026L18.3063 7.83287C18.3791 7.48673 18.4022 7.19669 18.3779 6.92217C18.3561 6.6751 18.299 6.48293 18.197 6.31822C18.0282 6.04608 17.7987 5.86704 17.5145 5.78469C17.3214 5.72978 17.1162 5.69756 16.9195 5.69278C16.5588 5.68443 16.1909 5.68562 15.8363 5.68801C15.6966 5.6892 15.5558 5.6892 15.4161 5.6892H15.3724C15.2947 5.6892 15.2158 5.6892 15.1381 5.69159C15.1259 5.69159 15.1004 5.69278 15.1016 5.69756C15.0992 5.69159 15.0955 5.66652 15.0943 5.65339C15.0664 5.40632 14.9413 5.23564 14.724 5.14732C14.5576 5.08048 14.373 5.04944 14.1739 5.05421C13.9893 5.06018 13.8047 5.06735 13.6201 5.0757C13.478 5.08167 13.336 5.08764 13.1927 5.0936C12.9073 5.10435 12.5843 5.11509 12.2843 5.01005C12.1532 4.9635 12.0718 4.90502 12.022 4.82027C12.0063 4.79402 11.9905 4.75821 11.999 4.73195C12.0038 4.71524 12.0196 4.70092 12.0488 4.68779C12.0852 4.67108 12.1228 4.65317 12.158 4.6293C12.3366 4.50756 12.4434 4.35 12.4762 4.16023C12.4981 4.03609 12.5041 3.90957 12.5066 3.79141C12.5126 3.58015 12.4252 3.39395 12.254 3.25549C11.988 3.03945 11.6723 2.95948 11.3177 3.01916C11.036 3.06691 10.8089 3.23162 10.662 3.4954C10.5114 3.76515 10.5114 4.03729 10.6595 4.30703C10.7543 4.47891 10.8988 4.60782 11.0882 4.68898C11.1089 4.69734 11.1113 4.7045 11.1076 4.7224C11.0979 4.7773 11.0882 4.84056 11.0834 4.90382C11.0676 5.12583 11.0979 5.31083 11.1756 5.46839C11.2072 5.53165 11.2473 5.59133 11.2849 5.64862C11.3031 5.67488 11.3202 5.70113 11.3372 5.72859C11.2631 5.72978 11.1878 5.72978 11.1137 5.72978L10.8393 5.73098C10.4349 5.73217 10.0317 5.73336 9.62857 5.73336C9.64557 5.7083 9.66257 5.68323 9.67957 5.65817C9.71721 5.60445 9.75607 5.54836 9.78643 5.48749C9.88601 5.28816 9.91758 5.06735 9.87751 4.8334C9.86294 4.74866 9.88601 4.72121 9.96737 4.67824C10.2139 4.54694 10.373 4.33329 10.4264 4.05996C10.5284 3.54195 10.1641 3.1612 9.75122 3.05497C9.48649 2.98574 9.22419 3.00245 8.97282 3.10271C8.77367 3.18268 8.62916 3.32711 8.54416 3.53121C8.49558 3.64937 8.48708 3.77231 8.47858 3.89764C8.45551 4.23661 8.61337 4.50517 8.93639 4.67585C8.96918 4.69375 8.97404 4.70688 8.97282 4.73672C8.96675 4.81192 8.92911 4.87279 8.85139 4.92889C8.68867 5.04706 8.49558 5.07689 8.32679 5.09122C8.15071 5.10554 7.9722 5.10315 7.78884 5.09718C7.6164 5.09241 7.44396 5.08525 7.27152 5.07809C7.11609 5.07093 6.95944 5.06496 6.804 5.06018C6.60242 5.05422 6.41784 5.08406 6.2539 5.1509C6.11911 5.20461 6.02318 5.28338 5.96003 5.392C5.90782 5.48152 5.8811 5.58178 5.87381 5.7083C5.8726 5.73933 5.87138 5.73933 5.8471 5.73933C5.48886 5.73814 5.12942 5.73814 4.77119 5.73933C4.56961 5.73933 4.36802 5.74052 4.16644 5.74172L3.71228 5.74291C3.55927 5.74291 3.41719 5.77752 3.2909 5.84436C2.95696 6.01982 2.73594 6.3027 2.63272 6.68465C2.56594 6.93291 2.55744 7.20385 2.60722 7.51538C2.66066 7.84719 2.73473 8.18139 2.80638 8.50485L2.82459 8.58483C2.85009 8.69941 2.89745 8.81161 2.93995 8.9059C2.9606 8.95245 2.96424 8.97751 2.95453 9.00616L2.87681 9.2222C2.82216 9.37498 2.76752 9.52656 2.71166 9.67815C2.65944 9.81899 2.6048 9.95983 2.55137 10.1007C2.51736 10.189 2.48336 10.2773 2.45057 10.3656C2.41414 10.4635 2.3765 10.5614 2.34007 10.6593L2.15184 11.157C2.11299 11.2584 2.07413 11.3611 2.03648 11.4625C1.98305 11.6058 1.92962 11.749 1.8774 11.8922C1.82276 12.0426 1.76811 12.193 1.71468 12.3434C1.69039 12.4126 1.66611 12.4819 1.64303 12.5523L1.53132 12.8757C1.48396 13.0118 1.43659 13.1467 1.39166 13.2839C1.36373 13.3723 1.33824 13.4606 1.31152 13.5489C1.28602 13.6372 1.26051 13.7244 1.23258 13.8115C1.14029 14.0968 1.08201 14.3355 1.04922 14.5647C0.975146 15.0839 0.984859 15.5947 1.07715 16.0865C1.13422 16.392 1.21801 16.6677 1.33338 16.9279C1.44388 17.1798 1.57746 17.4125 1.73168 17.6226C1.97819 17.958 2.28057 18.2421 2.63151 18.4689C2.94117 18.6682 3.26783 18.8102 3.60299 18.8914C3.80093 18.9391 3.99522 18.9666 4.18101 18.9749C4.56353 18.9916 4.96305 19 5.40022 19C5.41358 19 5.42694 19 5.44029 19C6.753 18.9988 8.06571 18.994 9.22298 18.9905L14.1144 18.9606C14.4714 18.9582 14.8284 18.9558 15.1854 18.9546C15.6833 18.9546 16.2176 18.957 16.7422 18.9678C17.1381 18.9749 17.4684 18.9535 17.7878 18.8162C17.942 18.7494 18.0926 18.6837 18.2346 18.6025C18.5807 18.4032 18.8916 18.1311 19.1612 17.7933C19.3725 17.5271 19.5498 17.2251 19.6858 16.8933C19.8024 16.6105 19.8874 16.3073 19.9384 15.9934C20.0149 15.5315 20.0197 15.0922 19.9554 14.6733ZM11.7197 4.36552C11.6747 4.37268 11.631 4.37746 11.5861 4.38223L11.5302 4.38939C11.2594 4.38581 11.0566 4.24974 10.9716 4.017C10.9194 3.87377 10.9461 3.73292 11.0518 3.59805C11.1902 3.4214 11.3857 3.35217 11.648 3.3844C11.8107 3.40469 11.948 3.46795 12.0536 3.57298C12.1641 3.68399 12.1969 3.85228 12.1338 3.99193L12.118 4.02893C12.0949 4.08145 12.073 4.13158 12.0439 4.17574C11.9723 4.28078 11.8678 4.34284 11.7197 4.36552ZM17.3664 18.5333H17.353C17.3239 18.5345 17.2947 18.5333 17.2656 18.5321C17.2401 18.5309 17.2134 18.5297 17.1879 18.5297C16.486 18.5357 15.7841 18.5417 15.081 18.5476L10.9036 18.5834V18.5751L9.48285 18.5894C8.10821 18.6025 6.73357 18.6157 5.35893 18.63C5.22171 18.6312 5.08206 18.6383 4.94605 18.6443C4.86712 18.6479 4.78819 18.6515 4.70926 18.6551C4.41781 18.6646 4.1203 18.63 3.80214 18.5476C3.43055 18.451 3.07717 18.2779 2.75052 18.0308C2.38621 17.7551 2.09477 17.4161 1.88469 17.021C1.71954 16.7107 1.60296 16.3777 1.53496 16.0292C1.44753 15.5756 1.43903 15.1209 1.50824 14.6792C1.55317 14.3952 1.62725 14.0992 1.7414 13.7459C1.78268 13.6205 1.8179 13.4928 1.85433 13.3651C1.88226 13.2684 1.90898 13.1718 1.93933 13.0763C1.99034 12.9116 2.04377 12.748 2.0972 12.5833L2.1567 12.4007C2.20163 12.2611 2.24778 12.1226 2.29392 11.9841C2.32307 11.8994 2.35221 11.8158 2.38136 11.7311C2.4105 11.6487 2.43843 11.5676 2.46636 11.4852C2.4955 11.3993 2.52465 11.3133 2.55258 11.2274C2.5793 11.1474 2.6048 11.0687 2.63151 10.9887C2.66187 10.9004 2.69223 10.8132 2.72259 10.7249L2.84645 10.3668C2.88167 10.263 2.91688 10.1603 2.95331 10.0565C2.97639 9.99205 2.99946 9.9276 3.02253 9.86434C3.05289 9.78199 3.08325 9.69843 3.11239 9.61608C3.15854 9.48001 3.20347 9.34275 3.24718 9.20668L3.30183 9.03958C3.3334 8.9429 3.36498 8.84622 3.39412 8.74954C3.42327 8.65047 3.44998 8.55021 3.4767 8.44876L3.50463 8.34372C3.52041 8.28643 3.53499 8.22914 3.54956 8.17065C3.59813 7.98087 3.64792 7.78513 3.72564 7.6037C3.74871 7.5488 3.77907 7.49509 3.80821 7.44376C3.85679 7.35902 3.93693 7.31844 4.05229 7.31844C4.12758 7.31844 4.20166 7.32202 4.27695 7.32679C4.32188 7.32918 4.3656 7.33156 4.41053 7.33276L4.5611 7.33753C4.95091 7.35066 5.3395 7.36379 5.7293 7.37692C7.54718 7.43422 9.20719 7.46286 10.8016 7.45928C12.1908 7.45689 13.8387 7.45331 15.5194 7.44495C15.8059 7.44376 16.0962 7.43302 16.3779 7.42228C16.5188 7.4175 16.6596 7.41153 16.8005 7.40795C16.8612 7.40557 16.9292 7.40437 16.996 7.40795C17.1029 7.41512 17.1526 7.45451 17.1806 7.55596C17.1952 7.60609 17.2085 7.65741 17.2219 7.70754C17.251 7.81497 17.2802 7.92597 17.3154 8.03458C17.3591 8.17304 17.4064 8.30911 17.4538 8.44637C17.4757 8.50963 17.4975 8.57169 17.5194 8.63495L17.9092 9.78437C17.9432 9.88583 17.9772 9.98728 18.0124 10.0887C18.0428 10.1783 18.0743 10.2666 18.1059 10.3561L18.2261 10.7046C18.248 10.7691 18.2698 10.8335 18.2929 10.8968C18.3087 10.941 18.3245 10.9851 18.3415 11.0293C18.3609 11.0818 18.3804 11.1355 18.3986 11.188C18.4229 11.2596 18.4471 11.3324 18.4702 11.4053C18.486 11.4554 18.503 11.5055 18.52 11.5556C18.5576 11.669 18.5965 11.7812 18.6341 11.8946L18.7362 12.1966C18.775 12.3112 18.8151 12.427 18.8515 12.5415C18.9207 12.7576 18.9887 12.9736 19.0555 13.1909C19.081 13.2744 19.1053 13.358 19.1296 13.4415C19.1575 13.5394 19.1867 13.6361 19.217 13.7327C19.2365 13.7936 19.2571 13.8545 19.2778 13.9142C19.3069 14.0001 19.3373 14.0884 19.3615 14.1767C19.4198 14.3904 19.4575 14.5539 19.4854 14.7079C19.5558 15.1089 19.5522 15.5219 19.4769 15.9731C19.421 16.3037 19.3336 16.5949 19.2085 16.8623C18.9863 17.3409 18.6621 17.7515 18.2456 18.0821C18.0039 18.2743 17.7428 18.4211 17.4696 18.519C17.4429 18.5321 17.404 18.5321 17.3664 18.5333ZM17.874 7.94865C17.8509 8.04174 17.8278 8.13365 17.8035 8.22675C17.7805 8.14559 17.7562 8.06323 17.7331 7.98087C17.6748 7.77439 17.6141 7.56193 17.5485 7.35305C17.4975 7.19192 17.3773 7.08449 17.1988 7.04152C17.0057 6.99497 16.8102 6.99856 16.6208 7.00094L16.5637 7.00214C16.2261 7.00691 15.8873 7.01288 15.5497 7.02004C14.9923 7.02959 14.4155 7.04033 13.8496 7.0451C12.8854 7.05227 11.8338 7.05466 10.5405 7.05107C9.54235 7.04869 8.54537 7.04272 7.54718 7.03794L5.433 7.0272C5.16585 7.02601 4.89869 7.02482 4.63154 7.02362C4.56475 7.02362 4.49796 7.02123 4.43117 7.02004C4.33281 7.01765 4.23566 7.01527 4.1373 7.01646C3.875 7.02004 3.69407 7.10717 3.58477 7.28382C3.52041 7.38886 3.47305 7.50344 3.42691 7.62041C3.3759 7.75051 3.33097 7.88419 3.28604 8.0131L3.25326 8.10978C3.24111 8.14439 3.23019 8.17901 3.22047 8.21362C3.20954 8.24704 3.19982 8.28166 3.18768 8.31508L3.17675 8.2733C3.13789 8.12888 3.09903 7.98087 3.06503 7.83287C2.99824 7.54164 2.93995 7.22773 2.97396 6.90307C3.01281 6.52232 3.2059 6.25018 3.56656 6.07115C3.58841 6.06041 3.61027 6.04966 3.6297 6.03653C3.66978 6.01027 3.71228 6.00311 3.75964 6.00311C3.78149 6.00311 3.80457 6.0043 3.82886 6.0055C3.84464 6.00669 3.85921 6.00789 3.875 6.00789C4.2393 6.02221 4.60118 6.03295 4.9497 6.04131C5.22171 6.04728 5.49372 6.05563 5.76574 6.06279C6.44941 6.0807 7.15738 6.09979 7.8532 6.10457C9.17319 6.11412 10.5138 6.11411 11.812 6.11411H13.0591C13.404 6.11411 13.7464 6.11173 14.0901 6.10815L14.8709 6.10218C15.4234 6.0974 15.9759 6.09382 16.5297 6.08547C16.7131 6.08308 16.9098 6.06757 17.115 6.04131C17.2097 6.02937 17.3008 6.04369 17.4004 6.08905C17.608 6.18215 17.7574 6.30986 17.8582 6.47696C17.9383 6.60945 17.9808 6.76223 17.9966 6.9723C18.0209 7.29815 17.9553 7.61444 17.8958 7.85316L17.874 7.94865ZM14.826 5.69278H13.2959V5.72023H12.9632C12.6061 5.72023 12.2479 5.72023 11.8897 5.72023C11.7913 5.72023 11.7172 5.66414 11.6383 5.5961C11.4853 5.466 11.3918 5.28816 11.359 5.06615C11.3457 4.97305 11.3384 4.87876 11.3311 4.78805C11.3299 4.77134 11.3311 4.76298 11.3299 4.76179C11.3335 4.76059 11.342 4.76059 11.3627 4.76179C11.4428 4.76895 11.5157 4.77253 11.5861 4.77492C11.6104 4.77492 11.6104 4.7773 11.614 4.79521C11.6529 5.02438 11.7937 5.1879 12.0585 5.31203C12.2625 5.40752 12.492 5.45526 12.7822 5.46123C13.0858 5.46719 13.4064 5.44929 13.8217 5.40155C14.0791 5.37171 14.2868 5.37529 14.475 5.41229C14.6475 5.44571 14.764 5.53523 14.8308 5.68562C14.832 5.68801 14.8332 5.69039 14.8332 5.69278C14.8308 5.69278 14.8284 5.69278 14.826 5.69278ZM9.35413 4.81789C9.35898 4.79402 9.35898 4.78924 9.39541 4.79163C9.4622 4.79521 9.53021 4.79043 9.59457 4.78566L9.61157 4.78447C9.62007 4.78327 9.62614 4.78327 9.63099 4.78327C9.63585 4.78327 9.63828 4.78327 9.6395 4.78327C9.6395 4.78566 9.64071 4.79043 9.64071 4.80118C9.63343 5.01125 9.60914 5.23325 9.48163 5.43019C9.39784 5.56029 9.28369 5.65697 9.14283 5.71784C9.11976 5.72739 9.08697 5.7274 9.05418 5.7274H9.04083C8.66681 5.7274 8.29157 5.72859 7.91756 5.7274H7.6674H6.14704C6.13975 5.7274 6.13489 5.7274 6.13125 5.7274C6.13247 5.72262 6.13368 5.71785 6.13611 5.71068C6.19318 5.55194 6.30855 5.45526 6.48827 5.41587C6.74814 5.35858 7.01773 5.38364 7.24967 5.41229C7.56782 5.45168 7.8957 5.46839 8.22357 5.46123C8.52473 5.45526 8.77731 5.39319 8.99468 5.27264C9.20112 5.15567 9.31769 5.00767 9.35413 4.81789ZM9.86415 4.28197C9.74272 4.36671 9.60549 4.40729 9.43306 4.41088C9.21933 4.4061 9.05054 4.33449 8.93032 4.19723C8.83439 4.08742 8.80889 3.98835 8.84774 3.87496C8.85503 3.85348 8.86232 3.83199 8.86839 3.81051C8.89632 3.71979 8.92303 3.63505 8.98861 3.57179C9.04325 3.51808 9.09304 3.48466 9.13797 3.46676C9.2339 3.42975 9.33227 3.41185 9.43306 3.41185C9.49742 3.41185 9.56178 3.41901 9.62735 3.43453C9.76943 3.46675 9.87144 3.52524 9.95037 3.61715C10.0281 3.70666 10.0633 3.83438 10.0463 3.96448C10.0317 4.09577 9.96373 4.21155 9.86415 4.28197Z"/>
</mask>
<path d="M19.9554 14.6733C19.9226 14.4608 19.874 14.2531 19.823 14.0419C19.806 13.9726 19.7817 13.907 19.7574 13.8425C19.7428 13.8032 19.7283 13.7638 19.7149 13.7244C19.6882 13.6432 19.6639 13.5609 19.6384 13.4797C19.602 13.3615 19.5656 13.2434 19.5255 13.1264C19.4599 12.933 19.3919 12.7421 19.3239 12.5499L19.1818 12.1441C19.1405 12.0247 19.0992 11.9066 19.0555 11.7884C19.0179 11.6857 18.9778 11.5831 18.9377 11.4816C18.9086 11.4076 18.8794 11.3336 18.8515 11.2596C18.7932 11.1069 18.7362 10.9529 18.6791 10.8001L18.5164 10.368C18.4726 10.2523 18.4289 10.1365 18.3864 10.0219C18.3148 9.82973 18.2431 9.63756 18.1727 9.4454C18.1168 9.29262 18.061 9.13865 18.0088 8.98348C18.0039 8.96796 18.0051 8.94409 18.0124 8.9238C18.0282 8.87964 18.0464 8.83547 18.0646 8.79131C18.0962 8.71492 18.1278 8.63615 18.1496 8.55379C18.1946 8.37714 18.2322 8.19572 18.2674 8.02026L18.3063 7.83287C18.3791 7.48673 18.4022 7.19669 18.3779 6.92217C18.3561 6.6751 18.299 6.48293 18.197 6.31822C18.0282 6.04608 17.7987 5.86704 17.5145 5.78469C17.3214 5.72978 17.1162 5.69756 16.9195 5.69278C16.5588 5.68443 16.1909 5.68562 15.8363 5.68801C15.6966 5.6892 15.5558 5.6892 15.4161 5.6892H15.3724C15.2947 5.6892 15.2158 5.6892 15.1381 5.69159C15.1259 5.69159 15.1004 5.69278 15.1016 5.69756C15.0992 5.69159 15.0955 5.66652 15.0943 5.65339C15.0664 5.40632 14.9413 5.23564 14.724 5.14732C14.5576 5.08048 14.373 5.04944 14.1739 5.05421C13.9893 5.06018 13.8047 5.06735 13.6201 5.0757C13.478 5.08167 13.336 5.08764 13.1927 5.0936C12.9073 5.10435 12.5843 5.11509 12.2843 5.01005C12.1532 4.9635 12.0718 4.90502 12.022 4.82027C12.0063 4.79402 11.9905 4.75821 11.999 4.73195C12.0038 4.71524 12.0196 4.70092 12.0488 4.68779C12.0852 4.67108 12.1228 4.65317 12.158 4.6293C12.3366 4.50756 12.4434 4.35 12.4762 4.16023C12.4981 4.03609 12.5041 3.90957 12.5066 3.79141C12.5126 3.58015 12.4252 3.39395 12.254 3.25549C11.988 3.03945 11.6723 2.95948 11.3177 3.01916C11.036 3.06691 10.8089 3.23162 10.662 3.4954C10.5114 3.76515 10.5114 4.03729 10.6595 4.30703C10.7543 4.47891 10.8988 4.60782 11.0882 4.68898C11.1089 4.69734 11.1113 4.7045 11.1076 4.7224C11.0979 4.7773 11.0882 4.84056 11.0834 4.90382C11.0676 5.12583 11.0979 5.31083 11.1756 5.46839C11.2072 5.53165 11.2473 5.59133 11.2849 5.64862C11.3031 5.67488 11.3202 5.70113 11.3372 5.72859C11.2631 5.72978 11.1878 5.72978 11.1137 5.72978L10.8393 5.73098C10.4349 5.73217 10.0317 5.73336 9.62857 5.73336C9.64557 5.7083 9.66257 5.68323 9.67957 5.65817C9.71721 5.60445 9.75607 5.54836 9.78643 5.48749C9.88601 5.28816 9.91758 5.06735 9.87751 4.8334C9.86294 4.74866 9.88601 4.72121 9.96737 4.67824C10.2139 4.54694 10.373 4.33329 10.4264 4.05996C10.5284 3.54195 10.1641 3.1612 9.75122 3.05497C9.48649 2.98574 9.22419 3.00245 8.97282 3.10271C8.77367 3.18268 8.62916 3.32711 8.54416 3.53121C8.49558 3.64937 8.48708 3.77231 8.47858 3.89764C8.45551 4.23661 8.61337 4.50517 8.93639 4.67585C8.96918 4.69375 8.97404 4.70688 8.97282 4.73672C8.96675 4.81192 8.92911 4.87279 8.85139 4.92889C8.68867 5.04706 8.49558 5.07689 8.32679 5.09122C8.15071 5.10554 7.9722 5.10315 7.78884 5.09718C7.6164 5.09241 7.44396 5.08525 7.27152 5.07809C7.11609 5.07093 6.95944 5.06496 6.804 5.06018C6.60242 5.05422 6.41784 5.08406 6.2539 5.1509C6.11911 5.20461 6.02318 5.28338 5.96003 5.392C5.90782 5.48152 5.8811 5.58178 5.87381 5.7083C5.8726 5.73933 5.87138 5.73933 5.8471 5.73933C5.48886 5.73814 5.12942 5.73814 4.77119 5.73933C4.56961 5.73933 4.36802 5.74052 4.16644 5.74172L3.71228 5.74291C3.55927 5.74291 3.41719 5.77752 3.2909 5.84436C2.95696 6.01982 2.73594 6.3027 2.63272 6.68465C2.56594 6.93291 2.55744 7.20385 2.60722 7.51538C2.66066 7.84719 2.73473 8.18139 2.80638 8.50485L2.82459 8.58483C2.85009 8.69941 2.89745 8.81161 2.93995 8.9059C2.9606 8.95245 2.96424 8.97751 2.95453 9.00616L2.87681 9.2222C2.82216 9.37498 2.76752 9.52656 2.71166 9.67815C2.65944 9.81899 2.6048 9.95983 2.55137 10.1007C2.51736 10.189 2.48336 10.2773 2.45057 10.3656C2.41414 10.4635 2.3765 10.5614 2.34007 10.6593L2.15184 11.157C2.11299 11.2584 2.07413 11.3611 2.03648 11.4625C1.98305 11.6058 1.92962 11.749 1.8774 11.8922C1.82276 12.0426 1.76811 12.193 1.71468 12.3434C1.69039 12.4126 1.66611 12.4819 1.64303 12.5523L1.53132 12.8757C1.48396 13.0118 1.43659 13.1467 1.39166 13.2839C1.36373 13.3723 1.33824 13.4606 1.31152 13.5489C1.28602 13.6372 1.26051 13.7244 1.23258 13.8115C1.14029 14.0968 1.08201 14.3355 1.04922 14.5647C0.975146 15.0839 0.984859 15.5947 1.07715 16.0865C1.13422 16.392 1.21801 16.6677 1.33338 16.9279C1.44388 17.1798 1.57746 17.4125 1.73168 17.6226C1.97819 17.958 2.28057 18.2421 2.63151 18.4689C2.94117 18.6682 3.26783 18.8102 3.60299 18.8914C3.80093 18.9391 3.99522 18.9666 4.18101 18.9749C4.56353 18.9916 4.96305 19 5.40022 19C5.41358 19 5.42694 19 5.44029 19C6.753 18.9988 8.06571 18.994 9.22298 18.9905L14.1144 18.9606C14.4714 18.9582 14.8284 18.9558 15.1854 18.9546C15.6833 18.9546 16.2176 18.957 16.7422 18.9678C17.1381 18.9749 17.4684 18.9535 17.7878 18.8162C17.942 18.7494 18.0926 18.6837 18.2346 18.6025C18.5807 18.4032 18.8916 18.1311 19.1612 17.7933C19.3725 17.5271 19.5498 17.2251 19.6858 16.8933C19.8024 16.6105 19.8874 16.3073 19.9384 15.9934C20.0149 15.5315 20.0197 15.0922 19.9554 14.6733ZM11.7197 4.36552C11.6747 4.37268 11.631 4.37746 11.5861 4.38223L11.5302 4.38939C11.2594 4.38581 11.0566 4.24974 10.9716 4.017C10.9194 3.87377 10.9461 3.73292 11.0518 3.59805C11.1902 3.4214 11.3857 3.35217 11.648 3.3844C11.8107 3.40469 11.948 3.46795 12.0536 3.57298C12.1641 3.68399 12.1969 3.85228 12.1338 3.99193L12.118 4.02893C12.0949 4.08145 12.073 4.13158 12.0439 4.17574C11.9723 4.28078 11.8678 4.34284 11.7197 4.36552ZM17.3664 18.5333H17.353C17.3239 18.5345 17.2947 18.5333 17.2656 18.5321C17.2401 18.5309 17.2134 18.5297 17.1879 18.5297C16.486 18.5357 15.7841 18.5417 15.081 18.5476L10.9036 18.5834V18.5751L9.48285 18.5894C8.10821 18.6025 6.73357 18.6157 5.35893 18.63C5.22171 18.6312 5.08206 18.6383 4.94605 18.6443C4.86712 18.6479 4.78819 18.6515 4.70926 18.6551C4.41781 18.6646 4.1203 18.63 3.80214 18.5476C3.43055 18.451 3.07717 18.2779 2.75052 18.0308C2.38621 17.7551 2.09477 17.4161 1.88469 17.021C1.71954 16.7107 1.60296 16.3777 1.53496 16.0292C1.44753 15.5756 1.43903 15.1209 1.50824 14.6792C1.55317 14.3952 1.62725 14.0992 1.7414 13.7459C1.78268 13.6205 1.8179 13.4928 1.85433 13.3651C1.88226 13.2684 1.90898 13.1718 1.93933 13.0763C1.99034 12.9116 2.04377 12.748 2.0972 12.5833L2.1567 12.4007C2.20163 12.2611 2.24778 12.1226 2.29392 11.9841C2.32307 11.8994 2.35221 11.8158 2.38136 11.7311C2.4105 11.6487 2.43843 11.5676 2.46636 11.4852C2.4955 11.3993 2.52465 11.3133 2.55258 11.2274C2.5793 11.1474 2.6048 11.0687 2.63151 10.9887C2.66187 10.9004 2.69223 10.8132 2.72259 10.7249L2.84645 10.3668C2.88167 10.263 2.91688 10.1603 2.95331 10.0565C2.97639 9.99205 2.99946 9.9276 3.02253 9.86434C3.05289 9.78199 3.08325 9.69843 3.11239 9.61608C3.15854 9.48001 3.20347 9.34275 3.24718 9.20668L3.30183 9.03958C3.3334 8.9429 3.36498 8.84622 3.39412 8.74954C3.42327 8.65047 3.44998 8.55021 3.4767 8.44876L3.50463 8.34372C3.52041 8.28643 3.53499 8.22914 3.54956 8.17065C3.59813 7.98087 3.64792 7.78513 3.72564 7.6037C3.74871 7.5488 3.77907 7.49509 3.80821 7.44376C3.85679 7.35902 3.93693 7.31844 4.05229 7.31844C4.12758 7.31844 4.20166 7.32202 4.27695 7.32679C4.32188 7.32918 4.3656 7.33156 4.41053 7.33276L4.5611 7.33753C4.95091 7.35066 5.3395 7.36379 5.7293 7.37692C7.54718 7.43422 9.20719 7.46286 10.8016 7.45928C12.1908 7.45689 13.8387 7.45331 15.5194 7.44495C15.8059 7.44376 16.0962 7.43302 16.3779 7.42228C16.5188 7.4175 16.6596 7.41153 16.8005 7.40795C16.8612 7.40557 16.9292 7.40437 16.996 7.40795C17.1029 7.41512 17.1526 7.45451 17.1806 7.55596C17.1952 7.60609 17.2085 7.65741 17.2219 7.70754C17.251 7.81497 17.2802 7.92597 17.3154 8.03458C17.3591 8.17304 17.4064 8.30911 17.4538 8.44637C17.4757 8.50963 17.4975 8.57169 17.5194 8.63495L17.9092 9.78437C17.9432 9.88583 17.9772 9.98728 18.0124 10.0887C18.0428 10.1783 18.0743 10.2666 18.1059 10.3561L18.2261 10.7046C18.248 10.7691 18.2698 10.8335 18.2929 10.8968C18.3087 10.941 18.3245 10.9851 18.3415 11.0293C18.3609 11.0818 18.3804 11.1355 18.3986 11.188C18.4229 11.2596 18.4471 11.3324 18.4702 11.4053C18.486 11.4554 18.503 11.5055 18.52 11.5556C18.5576 11.669 18.5965 11.7812 18.6341 11.8946L18.7362 12.1966C18.775 12.3112 18.8151 12.427 18.8515 12.5415C18.9207 12.7576 18.9887 12.9736 19.0555 13.1909C19.081 13.2744 19.1053 13.358 19.1296 13.4415C19.1575 13.5394 19.1867 13.6361 19.217 13.7327C19.2365 13.7936 19.2571 13.8545 19.2778 13.9142C19.3069 14.0001 19.3373 14.0884 19.3615 14.1767C19.4198 14.3904 19.4575 14.5539 19.4854 14.7079C19.5558 15.1089 19.5522 15.5219 19.4769 15.9731C19.421 16.3037 19.3336 16.5949 19.2085 16.8623C18.9863 17.3409 18.6621 17.7515 18.2456 18.0821C18.0039 18.2743 17.7428 18.4211 17.4696 18.519C17.4429 18.5321 17.404 18.5321 17.3664 18.5333ZM17.874 7.94865C17.8509 8.04174 17.8278 8.13365 17.8035 8.22675C17.7805 8.14559 17.7562 8.06323 17.7331 7.98087C17.6748 7.77439 17.6141 7.56193 17.5485 7.35305C17.4975 7.19192 17.3773 7.08449 17.1988 7.04152C17.0057 6.99497 16.8102 6.99856 16.6208 7.00094L16.5637 7.00214C16.2261 7.00691 15.8873 7.01288 15.5497 7.02004C14.9923 7.02959 14.4155 7.04033 13.8496 7.0451C12.8854 7.05227 11.8338 7.05466 10.5405 7.05107C9.54235 7.04869 8.54537 7.04272 7.54718 7.03794L5.433 7.0272C5.16585 7.02601 4.89869 7.02482 4.63154 7.02362C4.56475 7.02362 4.49796 7.02123 4.43117 7.02004C4.33281 7.01765 4.23566 7.01527 4.1373 7.01646C3.875 7.02004 3.69407 7.10717 3.58477 7.28382C3.52041 7.38886 3.47305 7.50344 3.42691 7.62041C3.3759 7.75051 3.33097 7.88419 3.28604 8.0131L3.25326 8.10978C3.24111 8.14439 3.23019 8.17901 3.22047 8.21362C3.20954 8.24704 3.19982 8.28166 3.18768 8.31508L3.17675 8.2733C3.13789 8.12888 3.09903 7.98087 3.06503 7.83287C2.99824 7.54164 2.93995 7.22773 2.97396 6.90307C3.01281 6.52232 3.2059 6.25018 3.56656 6.07115C3.58841 6.06041 3.61027 6.04966 3.6297 6.03653C3.66978 6.01027 3.71228 6.00311 3.75964 6.00311C3.78149 6.00311 3.80457 6.0043 3.82886 6.0055C3.84464 6.00669 3.85921 6.00789 3.875 6.00789C4.2393 6.02221 4.60118 6.03295 4.9497 6.04131C5.22171 6.04728 5.49372 6.05563 5.76574 6.06279C6.44941 6.0807 7.15738 6.09979 7.8532 6.10457C9.17319 6.11412 10.5138 6.11411 11.812 6.11411H13.0591C13.404 6.11411 13.7464 6.11173 14.0901 6.10815L14.8709 6.10218C15.4234 6.0974 15.9759 6.09382 16.5297 6.08547C16.7131 6.08308 16.9098 6.06757 17.115 6.04131C17.2097 6.02937 17.3008 6.04369 17.4004 6.08905C17.608 6.18215 17.7574 6.30986 17.8582 6.47696C17.9383 6.60945 17.9808 6.76223 17.9966 6.9723C18.0209 7.29815 17.9553 7.61444 17.8958 7.85316L17.874 7.94865ZM14.826 5.69278H13.2959V5.72023H12.9632C12.6061 5.72023 12.2479 5.72023 11.8897 5.72023C11.7913 5.72023 11.7172 5.66414 11.6383 5.5961C11.4853 5.466 11.3918 5.28816 11.359 5.06615C11.3457 4.97305 11.3384 4.87876 11.3311 4.78805C11.3299 4.77134 11.3311 4.76298 11.3299 4.76179C11.3335 4.76059 11.342 4.76059 11.3627 4.76179C11.4428 4.76895 11.5157 4.77253 11.5861 4.77492C11.6104 4.77492 11.6104 4.7773 11.614 4.79521C11.6529 5.02438 11.7937 5.1879 12.0585 5.31203C12.2625 5.40752 12.492 5.45526 12.7822 5.46123C13.0858 5.46719 13.4064 5.44929 13.8217 5.40155C14.0791 5.37171 14.2868 5.37529 14.475 5.41229C14.6475 5.44571 14.764 5.53523 14.8308 5.68562C14.832 5.68801 14.8332 5.69039 14.8332 5.69278C14.8308 5.69278 14.8284 5.69278 14.826 5.69278ZM9.35413 4.81789C9.35898 4.79402 9.35898 4.78924 9.39541 4.79163C9.4622 4.79521 9.53021 4.79043 9.59457 4.78566L9.61157 4.78447C9.62007 4.78327 9.62614 4.78327 9.63099 4.78327C9.63585 4.78327 9.63828 4.78327 9.6395 4.78327C9.6395 4.78566 9.64071 4.79043 9.64071 4.80118C9.63343 5.01125 9.60914 5.23325 9.48163 5.43019C9.39784 5.56029 9.28369 5.65697 9.14283 5.71784C9.11976 5.72739 9.08697 5.7274 9.05418 5.7274H9.04083C8.66681 5.7274 8.29157 5.72859 7.91756 5.7274H7.6674H6.14704C6.13975 5.7274 6.13489 5.7274 6.13125 5.7274C6.13247 5.72262 6.13368 5.71785 6.13611 5.71068C6.19318 5.55194 6.30855 5.45526 6.48827 5.41587C6.74814 5.35858 7.01773 5.38364 7.24967 5.41229C7.56782 5.45168 7.8957 5.46839 8.22357 5.46123C8.52473 5.45526 8.77731 5.39319 8.99468 5.27264C9.20112 5.15567 9.31769 5.00767 9.35413 4.81789ZM9.86415 4.28197C9.74272 4.36671 9.60549 4.40729 9.43306 4.41088C9.21933 4.4061 9.05054 4.33449 8.93032 4.19723C8.83439 4.08742 8.80889 3.98835 8.84774 3.87496C8.85503 3.85348 8.86232 3.83199 8.86839 3.81051C8.89632 3.71979 8.92303 3.63505 8.98861 3.57179C9.04325 3.51808 9.09304 3.48466 9.13797 3.46676C9.2339 3.42975 9.33227 3.41185 9.43306 3.41185C9.49742 3.41185 9.56178 3.41901 9.62735 3.43453C9.76943 3.46675 9.87144 3.52524 9.95037 3.61715C10.0281 3.70666 10.0633 3.83438 10.0463 3.96448C10.0317 4.09577 9.96373 4.21155 9.86415 4.28197Z" fill="#BABABA" stroke="#BABABA" stroke-width="2" mask="url(#path-9-inside-1)"/>
</svg>
