<svg width="16" height="16" viewBox="0 0 16 16" fill="none" xmlns="http://www.w3.org/2000/svg">
<path fill-rule="evenodd" clip-rule="evenodd" d="M7.66644 2.70937C7.99198 2.70937 8.2562 2.44515 8.2562 2.1196V0.589762C8.2562 0.263034 7.99198 0 7.66644 0C7.34089 0 7.07667 0.263034 7.07667 0.589762V2.1196C7.07667 2.44515 7.34089 2.70937 7.66644 2.70937ZM7.66644 4.27129C5.76505 4.27129 4.22341 5.81293 4.22341 7.71432C4.22341 9.61571 5.76505 11.1573 7.66644 11.1573C9.56783 11.1573 11.1095 9.61571 11.1095 7.71432C11.1095 5.81293 9.56783 4.27129 7.66644 4.27129ZM7.07667 13.2133C7.07667 12.8877 7.34089 12.6235 7.66644 12.6235C7.99198 12.6235 8.2562 12.8877 8.2562 13.2133V14.7431C8.2562 15.0698 7.99198 15.3329 7.66644 15.3329C7.34089 15.3329 7.07667 15.0698 7.07667 14.7431V13.2133ZM2.70937 7.66643C2.70937 7.34088 2.44515 7.07667 2.1196 7.07667H0.589762C0.263034 7.07667 0 7.34088 0 7.66643C0 7.99198 0.263034 8.25619 0.589762 8.25619H2.1196C2.44515 8.25619 2.70937 7.99198 2.70937 7.66643ZM13.2137 7.07667H14.7436C15.0691 7.07667 15.3333 7.34088 15.3333 7.66643C15.3333 7.99198 15.0691 8.25619 14.7436 8.25619H13.2137C12.887 8.25619 12.624 7.99198 12.624 7.66643C12.624 7.34088 12.887 7.07667 13.2137 7.07667ZM3.32732 11.1716L2.24569 12.2532C2.01451 12.4844 2.01451 12.8572 2.24569 13.0883C2.36011 13.2028 2.51109 13.2606 2.66207 13.2606C2.81304 13.2606 2.96402 13.2028 3.07962 13.0883L4.16124 12.0055C4.39125 11.7755 4.39125 11.4016 4.16124 11.1716C3.93123 10.9416 3.55732 10.9416 3.32732 11.1716ZM12.0061 4.16183C11.8905 4.27625 11.7396 4.33404 11.5886 4.33404C11.4376 4.33404 11.2866 4.27625 11.171 4.16183C10.941 3.93064 10.941 3.55792 11.171 3.32673L12.2538 2.24511C12.4838 2.0151 12.8577 2.0151 13.0877 2.24511C13.3178 2.47511 13.3178 2.84902 13.0877 3.07903L12.0061 4.16183ZM3.32732 4.16124C3.44291 4.27683 3.59389 4.33345 3.74487 4.33345C3.89467 4.33345 4.04565 4.27683 4.16124 4.16124C4.39125 3.93123 4.39125 3.55733 4.16124 3.32732L3.07962 2.24452C2.84843 2.01451 2.4757 2.01451 2.24569 2.24452C2.01451 2.4757 2.01451 2.84843 2.24569 3.07962L3.32732 4.16124ZM11.1716 11.1716C11.4016 10.9416 11.7755 10.9416 12.0055 11.1716L13.0872 12.2532C13.3184 12.4844 13.3184 12.8572 13.0872 13.0883C12.9728 13.2028 12.8218 13.2606 12.6708 13.2606C12.5198 13.2606 12.3688 13.2028 12.2532 13.0883L11.1716 12.0055C10.9416 11.7755 10.9416 11.4016 11.1716 11.1716Z" fill="#9A3995"/>
</svg>
