<svg width="32" height="31" viewBox="0 0 32 31" fill="none" xmlns="http://www.w3.org/2000/svg">
<path d="M17.8303 8.86861C17.6486 8.86861 17.5324 8.86135 17.507 8.86135C17.1291 8.83955 16.8312 8.53076 16.8203 8.15294C16.8167 7.9713 16.7404 3.66273 19.0509 1.98435C20.6712 0.803667 24.5256 0.0916274 24.9616 0.0117046C25.1977 -0.0318897 25.4447 0.0480331 25.6119 0.22241C25.779 0.396787 25.8516 0.643822 25.8008 0.879958C25.7644 1.04344 24.9144 4.91606 23.5702 6.61261C21.9245 8.6906 18.8402 8.86861 17.8303 8.86861ZM24.1042 1.67555C22.7237 1.99161 20.7693 2.53654 19.9046 3.16139C18.7458 4.00058 18.3752 6.10401 18.2917 7.40094C19.3597 7.33918 21.376 7.04492 22.4331 5.71166C23.1343 4.82887 23.7446 2.98338 24.1042 1.67555Z" fill="#9A3995"/>
<path d="M27.1011 16.1343C26.9376 16.1343 26.7887 16.0217 26.7487 15.8582C26.2765 13.9037 25.3428 12.6504 23.9732 12.1381C23.7843 12.0691 23.6899 11.8584 23.7589 11.6695C23.8279 11.4806 24.0386 11.3861 24.2275 11.4552C25.8332 12.0546 26.9195 13.4787 27.4535 15.6838C27.5007 15.88 27.3808 16.0762 27.1847 16.1234C27.1592 16.1307 27.1302 16.1343 27.1011 16.1343Z" fill="#9A3995"/>
<path d="M12.7879 30.9999C11.0768 30.9999 9.79802 30.1534 9.22403 29.5141C8.25769 28.6422 7.40397 27.6686 6.68829 26.6187C6.65196 26.5678 5.30781 24.7804 4.90093 24.0902C4.69749 23.7451 4.81374 23.2982 5.15886 23.0948C5.50398 22.8914 5.95082 23.0076 6.15426 23.3527C6.45579 23.865 7.49479 25.2709 7.86897 25.7722C8.54832 26.764 9.33665 27.6613 10.2303 28.4605C10.2521 28.4823 10.2776 28.5041 10.2957 28.5295C10.3575 28.5986 11.9269 30.3242 14.6188 29.1253C14.8186 29.0454 16.3372 28.4605 17.4633 28.4605C18.5895 28.4605 20.1081 29.0454 20.2788 29.1108C23.0325 30.3387 24.6164 28.5441 24.631 28.5259C24.6528 28.5005 24.6746 28.4787 24.6964 28.4569C31.0284 22.7787 29.5535 14.5903 29.5353 14.5067C28.9541 12.109 27.8606 10.4488 26.2948 9.61326C24.0025 8.38535 21.4304 9.30447 21.405 9.31537C21.3687 9.3299 21.3287 9.3408 21.2887 9.34806C18.6586 9.84213 17.4924 9.8276 17.4416 9.82396C17.427 9.8276 16.2536 9.84213 13.6234 9.34806C13.5835 9.3408 13.5471 9.3299 13.5072 9.31537C13.4817 9.3081 10.8842 8.39625 8.60644 9.62053C7.04795 10.4597 5.95809 12.1163 5.3732 14.543C5.3732 14.543 5.18066 15.6075 5.22062 17.2023C5.23152 17.6019 4.91183 17.9361 4.51221 17.947C4.50495 17.947 4.50131 17.947 4.49405 17.947C4.1017 17.947 3.77837 17.6346 3.76748 17.2386C3.72388 15.4585 3.94185 14.2887 3.95275 14.2379C4.65026 11.3498 5.98715 9.37712 7.93436 8.33449C10.6081 6.90315 13.4745 7.7714 13.9467 7.93125C16.3553 8.38172 17.427 8.37082 17.4452 8.37445C17.4742 8.37082 18.5496 8.38535 20.9654 7.93125C21.4377 7.7714 24.304 6.90678 26.9778 8.33449C28.925 9.37349 30.2619 11.3498 30.9521 14.2016C31.0284 14.6048 32.5942 23.291 25.6954 29.5104C24.8816 30.4223 22.6329 31.7483 19.7121 30.4477C19.3524 30.306 18.179 29.91 17.4561 29.91C16.7331 29.91 15.5597 30.3096 15.171 30.4622C14.3173 30.8473 13.5144 30.9999 12.7879 30.9999Z" fill="#9A3995"/>
<path d="M17.5471 8.86509C17.2637 8.86509 16.9912 8.69798 16.875 8.41825C15.5563 5.24676 13.6744 4.4221 13.5945 4.38941C13.2276 4.23319 13.0496 3.81178 13.2022 3.44123C13.3547 3.07068 13.7725 2.89267 14.1431 3.04162C14.2448 3.08158 16.6497 4.08425 18.2191 7.85879C18.3717 8.22934 18.1973 8.65438 17.8268 8.80696C17.736 8.84692 17.6415 8.86509 17.5471 8.86509Z" fill="#9A3995"/>
<path d="M17.1725 24.4465H3.00437C1.34779 24.4465 0 23.1822 0 21.6237V15.1282C0 13.5733 1.34779 12.3091 3.00437 12.3091H4.96248C5.3621 12.3091 5.68906 12.636 5.68906 13.0357C5.68906 13.4353 5.3621 13.7622 4.96248 13.7622H3.00437C2.14702 13.7622 1.45314 14.3762 1.45314 15.1282C1.45314 15.8838 2.15065 16.4941 3.00437 16.4941H17.1725C17.5721 16.4941 17.8991 16.8211 17.8991 17.2207V23.7199C17.8991 24.1231 17.5721 24.4465 17.1725 24.4465ZM1.45314 17.544V21.6274C1.45314 22.383 2.15065 22.9969 3.00437 22.9969H16.4459V17.9473H3.00437C2.43765 17.9473 1.90362 17.802 1.45314 17.544Z" fill="#9A3995"/>
<path d="M5.13672 23.945C4.93692 23.945 4.77344 23.7815 4.77344 23.5817V21.1187C4.77344 20.9188 4.93692 20.7554 5.13672 20.7554C5.33653 20.7554 5.50001 20.9188 5.50001 21.1187V23.5817C5.50001 23.7815 5.34016 23.945 5.13672 23.945Z" fill="#9A3995"/>
<path d="M9.24903 23.945C9.04922 23.945 8.88574 23.7815 8.88574 23.5817V21.1187C8.88574 20.9188 9.04922 20.7554 9.24903 20.7554C9.44884 20.7554 9.61231 20.9188 9.61231 21.1187V23.5817C9.61231 23.7815 9.45247 23.945 9.24903 23.945Z" fill="#9A3995"/>
<path d="M13.3652 23.945C13.1654 23.945 13.002 23.7815 13.002 23.5817V21.1187C13.002 20.9188 13.1654 20.7554 13.3652 20.7554C13.565 20.7554 13.7285 20.9188 13.7285 21.1187V23.5817C13.7285 23.7815 13.565 23.945 13.3652 23.945Z" fill="#9A3995"/>
</svg>
