<svg width="34" height="44" viewBox="0 0 34 44" fill="none" xmlns="http://www.w3.org/2000/svg">
<mask id="path-1-outside-1" maskUnits="userSpaceOnUse" x="0" y="0" width="34" height="44" fill="black">
<rect fill="white" width="34" height="44"/>
<path d="M32.966 39.3143C32.9097 39.1829 32.769 39.0362 32.5455 39.0208C32.3451 39.0072 32.1199 39.0601 31.8666 39.1283C31.6464 39.188 31.4196 39.2614 31.201 39.333C30.7821 39.4695 30.3499 39.6111 29.9012 39.6709C29.681 39.6999 29.5154 39.7306 29.3846 39.7545C28.7803 39.8671 28.6793 39.7869 28.3216 39.2409C28.2604 39.1471 28.1842 39.0293 28.0898 38.8928C28.0832 38.8826 28.0766 38.8741 28.07 38.8638C28.0484 38.8348 28.0236 38.799 27.9988 38.7564C27.8663 38.5175 27.7289 38.2752 27.5948 38.0415C27.2719 37.4767 26.9391 36.8915 26.6559 36.2875C26.4308 35.8064 26.2801 35.2928 26.1344 34.7963C26.0897 34.6428 26.0417 34.4824 25.9936 34.3289C25.9556 34.206 25.9158 34.0832 25.8777 33.962C25.6343 33.2011 25.3843 32.4128 25.3512 31.5563C25.3413 31.2799 25.227 30.9472 25.0482 30.6674C24.8793 30.4047 24.6823 30.1607 24.472 29.9048C24.2849 29.6744 24.0912 29.4356 23.919 29.1814C22.9172 27.6953 21.9238 26.1666 20.9999 24.7368C20.8691 24.5338 20.8691 24.2335 20.9353 24.0424C21.3857 22.7611 21.5198 21.5872 21.3476 20.456C21.3227 20.2957 21.3625 20.1472 21.3923 20.0261L21.3973 20.0073C21.5661 19.3504 21.9122 18.9529 22.4553 18.7908C22.5083 18.7755 22.5745 18.7294 22.644 18.6816C22.6921 18.6492 22.7401 18.6168 22.7947 18.5844C23.1176 18.3984 23.4338 18.1766 23.7402 17.9633C24.3925 17.5078 25.0664 17.0352 25.8976 16.8185C25.9589 16.8031 26.0532 16.7264 26.1294 16.5933C26.2039 16.4619 26.2122 16.3595 26.2056 16.3339C26.1294 16.165 26.0748 15.9876 26.0234 15.8153C25.8695 15.3034 25.7618 15.0082 25.3231 14.9195C25.237 14.9025 25.1807 14.853 25.1542 14.8274C24.9439 14.6858 24.8594 14.7165 24.7171 14.8717C24.6508 14.9434 24.5945 15.039 24.5283 15.1481C24.4935 15.2062 24.4571 15.2659 24.4174 15.329L24.2104 15.6464L23.962 15.3631C23.7898 15.1652 23.6342 14.9792 23.4835 14.7984C23.1706 14.4247 22.9007 14.1006 22.5977 13.8173C22.048 13.3021 21.8923 12.6571 21.7433 12.0344C21.697 11.8433 21.6539 11.6625 21.5993 11.485C21.533 11.27 21.5678 11.0636 21.692 10.9152C21.7681 10.8247 21.947 10.6797 22.2781 10.7377C22.4371 10.765 22.5911 10.7838 22.7351 10.7906C23.1722 10.8128 23.3593 10.6524 23.4256 10.2003C23.4305 10.1627 23.4355 10.1252 23.4405 10.0877C23.4537 9.987 23.467 9.88292 23.4901 9.77714C23.5382 9.55534 23.6507 9.24823 24.0796 9.15098C24.1574 9.13392 24.2832 9.02302 24.3114 8.94624C24.3329 8.89164 24.3031 8.74321 24.2832 8.63572C24.2733 8.58283 24.2634 8.53164 24.2551 8.48216C24.2369 8.35761 24.212 8.23477 24.1856 8.1051C24.1409 7.88159 24.0945 7.64955 24.0779 7.40898C24.0647 7.22642 24.1061 7.05581 24.1408 6.90567C24.1591 6.82718 24.1773 6.75211 24.1856 6.68386C24.2965 5.79666 24.1326 5.13467 23.6706 4.59893C23.1408 3.983 22.4073 3.68272 21.4304 3.67931C21.139 3.6776 20.8277 3.60935 20.7416 3.10433C20.576 2.13523 20.1753 1.53807 19.4815 1.22925C18.4301 0.758352 17.1536 1.02793 16.3041 1.89978C15.9531 2.25978 15.6915 2.72215 15.4829 3.35002C15.1964 4.21334 14.299 4.7013 13.3966 4.48291C13.289 4.45732 13.0986 4.49997 12.9976 4.57334C12.7989 4.71666 12.9943 5.04083 13.0589 5.13637C14.1633 6.77429 16.0028 7.16841 17.5327 6.09694C17.7016 5.97922 17.748 5.77789 17.6453 5.62092C17.5013 5.40083 17.2496 5.51685 17.1767 5.5578L17.0906 5.60557C16.8671 5.73012 16.637 5.85808 16.382 5.93827C15.713 6.14813 15.0954 6.05599 14.5474 5.66528L14.3338 5.51343L14.458 5.27798C14.4629 5.26775 14.4663 5.25922 14.4696 5.25239C14.4861 5.21656 14.5159 5.14832 14.5888 5.09372C14.6434 5.05448 14.6997 5.02035 14.7593 4.99476C15.4564 4.69277 15.9084 4.18092 16.1402 3.43191C16.1882 3.27665 16.2528 3.11968 16.3389 2.94907C16.8191 1.99873 17.8854 1.47835 18.8755 1.71039C19.4782 1.85201 19.869 2.2376 20.0346 2.85352L20.0528 2.92006C20.1753 3.36879 20.3574 4.04613 19.6703 4.48462C19.6653 4.49315 19.6587 4.49997 19.6537 4.5068C18.5858 5.88879 18.349 7.17865 18.907 8.56406C19.0858 9.00766 19.104 9.37449 18.96 9.65088C18.8789 9.80785 18.705 10.0109 18.3341 10.0894C17.7877 10.2037 17.281 10.3862 16.7446 10.5773L16.5724 10.6388C16.319 10.7292 16.0574 10.7377 15.8041 10.7445C15.675 10.7479 15.5524 10.7531 15.4349 10.7667C14.405 10.8964 13.6732 11.1489 13.0638 11.584C12.539 11.9576 11.9131 12.3961 11.2624 12.8005C10.8004 13.0871 10.7524 13.2253 10.9378 13.7252C11.2955 14.6892 11.8104 15.6463 12.5572 16.74C13.0539 17.4668 13.5274 18.1885 14.0275 18.9529C14.2444 19.2839 14.4629 19.6166 14.6865 19.9544L14.8587 20.2138L14.5971 20.3758C14.5424 20.41 14.4927 20.4424 14.4447 20.4731C14.3404 20.5396 14.2427 20.601 14.1401 20.6591C14.0242 20.7239 13.8702 20.8502 13.8652 21.1914C13.8636 21.2921 13.8867 21.391 14.1815 21.5121C14.501 21.6418 14.8123 21.7681 15.1236 21.8807C15.266 21.9319 15.6981 22.0854 15.5177 22.6672C15.2577 23.5084 15.1683 24.2676 15.2412 24.9893C15.261 25.177 15.2014 25.4022 15.0921 25.566C14.2361 26.8354 13.5159 28.2703 12.9496 29.828C12.7443 30.3961 12.3734 30.4013 12.0389 30.333C11.1349 30.147 10.4146 30.1829 9.77384 30.449C9.19267 30.6896 8.60157 30.9251 8.02702 31.1537C7.54354 31.3465 7.04184 31.5444 6.55339 31.7457C5.91262 32.0085 5.29833 32.0682 4.67742 31.9266C4.44396 31.8737 4.18235 31.8413 3.87935 31.831C3.25182 31.8071 3.02332 31.9726 2.81139 32.5971C2.78324 32.679 2.75674 32.7626 2.73025 32.8462C2.67727 33.01 2.62428 33.1806 2.55971 33.3478C2.47692 33.5594 2.39082 33.7163 2.28651 33.8409C1.39075 34.9158 0.970182 36.2193 1.00164 37.8214C1.0033 37.9357 1.02979 38.0927 1.1457 38.1899C1.24007 38.2718 1.37916 38.2991 1.54639 38.2718C1.91562 38.2087 2.20041 37.9715 2.44049 37.5262C3.06637 36.3643 4.06811 35.6051 4.9589 34.984C5.86295 34.3545 6.76699 34.0678 7.72567 34.1088C8.26379 34.1326 8.82013 34.0985 9.3599 34.0661C9.59337 34.0525 9.83345 34.0371 10.0719 34.0269C10.4212 34.0115 10.7789 33.9893 11.1249 33.9689C11.9296 33.9194 12.7608 33.8682 13.5837 33.9023C14.2527 33.9313 14.6964 33.7112 15.0673 33.1687C15.3008 32.8274 15.5342 32.4862 15.7677 32.145C16.3969 31.227 17.0476 30.2767 17.6801 29.3383C17.9351 28.9578 18.1255 28.707 18.4136 28.6712C18.4368 28.6678 18.4583 28.6678 18.4798 28.6678C18.7431 28.6678 18.9749 28.8606 19.2862 29.1472C19.3557 29.2104 19.412 29.2803 19.4633 29.3417C19.4799 29.3605 19.4948 29.3793 19.5113 29.3997L20.018 29.9935C20.7151 30.8107 21.437 31.6553 22.139 32.4913C22.2649 32.6415 22.346 32.8598 22.3427 33.0475C22.3328 34.0439 22.6093 35.0182 23.1623 35.9446C23.6425 36.7482 24.169 37.5467 24.679 38.3179C24.8147 38.5226 24.9489 38.7273 25.083 38.9321C25.1972 39.1078 25.3181 39.2853 25.4356 39.4559C25.9705 40.2407 26.5251 41.0511 26.7801 42.0493C26.8182 42.196 26.9093 42.3512 26.9904 42.4877C27.2636 42.9518 27.5815 43.0917 28.0203 42.9433C28.9061 42.643 29.7919 42.2762 30.6496 41.9213L30.7705 41.8718C31.5818 41.5357 32.0868 40.8447 32.6233 40.111C32.7193 39.9797 32.8187 39.8432 32.9197 39.7101C33.0389 39.548 32.9991 39.3928 32.966 39.3143ZM17.5708 28.3436C17.4864 28.4699 17.4036 28.5961 17.3191 28.7241C17.132 29.0073 16.94 29.2991 16.7429 29.5857C16.478 29.973 16.2114 30.3603 15.9448 30.7476C15.5144 31.3738 15.069 32.0221 14.6368 32.6619C14.3669 33.0646 14.0374 33.2352 13.5407 33.2352C13.5374 33.2352 13.5341 33.2352 13.5308 33.2352C12.683 33.2318 11.8154 33.2744 10.9776 33.3171C10.653 33.3325 10.3186 33.3495 9.98909 33.3632C9.74735 33.3734 9.50064 33.3888 9.26056 33.4041C8.7274 33.4365 8.17769 33.4707 7.63129 33.4536C6.62128 33.4195 5.6626 33.7198 4.69895 34.3681C3.99856 34.8407 3.10115 35.4942 2.38255 36.3763L2.22856 36.5656C1.9537 37.5467 1.35432 37.806 1.35432 37.806C1.22682 37.3846 1.50996 36.6083 1.66394 36.2381L1.64739 36.2295L1.78647 35.9702C1.86098 35.832 1.93384 35.6836 2.00338 35.5419C2.17061 35.2024 2.34281 34.8509 2.57792 34.5404C2.96537 34.0303 3.2187 33.5167 3.35448 32.9725C3.45051 32.5869 3.71377 32.4162 4.09294 32.4947C4.20222 32.5169 4.31316 32.5323 4.43072 32.5493C4.56483 32.5681 4.70557 32.5886 4.84466 32.6193C5.55332 32.7745 6.23218 32.5647 6.74381 32.3651C6.92429 32.2951 7.10311 32.2252 7.28358 32.1552C7.94092 31.9027 8.62144 31.6399 9.26387 31.3362C10.307 30.8415 11.3269 30.7544 12.38 31.0684C12.8204 31.1997 12.9529 31.1639 13.0208 31.1196C13.14 31.0377 13.2542 30.7681 13.3768 30.4815C13.7659 29.5652 14.1931 28.6507 14.607 27.7669C14.7395 27.4837 14.8719 27.2005 15.0027 26.9173C15.064 26.7842 15.1418 26.6699 15.2163 26.559C15.2412 26.5232 15.2643 26.4873 15.2875 26.4515C15.3273 26.3884 15.3769 26.3525 15.4084 26.3286C15.415 26.3235 15.4216 26.3201 15.4283 26.3133L15.622 26.1495L17.7066 28.1286L17.5708 28.3436ZM31.5967 40.4523L31.2159 40.7765C31.1861 40.802 31.1546 40.8328 31.1215 40.8652C31.0305 40.9556 30.9261 41.058 30.7837 41.1194C30.0685 41.4316 29.3383 41.737 28.6329 42.0339L28.1643 42.2301C28.0666 42.2711 27.9756 42.2915 27.8911 42.2915C27.815 42.2915 27.7454 42.2762 27.6809 42.2438C27.5914 42.1994 27.4722 42.1021 27.4143 41.8923C27.0384 40.5512 26.2702 39.4712 25.4572 38.3264C25.1128 37.8419 24.7568 37.3402 24.4372 36.8216C24.3909 36.7482 24.3462 36.6731 24.2998 36.5998C23.7584 35.7262 23.1987 34.8236 23.0398 33.7198C23.0149 33.5491 23.0182 33.3819 23.0199 33.2216C23.0216 33.0851 23.0249 32.9571 23.0083 32.8377C22.9851 32.6619 22.9553 32.4197 22.8725 32.3207C21.9238 31.181 20.9601 30.0686 19.8905 28.8384C19.7696 28.7002 19.6157 28.5808 19.4517 28.4545L19.4087 28.4221C19.0312 28.1287 18.647 27.8335 18.2745 27.5469C17.8423 27.2159 17.3969 26.8729 16.9598 26.5317C15.9299 25.7298 15.6137 24.6105 16.0227 23.2081C16.0624 23.0699 16.1071 22.9351 16.1518 22.8054C16.2015 22.657 16.2479 22.5171 16.2876 22.3738C16.4432 21.8141 16.738 21.4337 17.19 21.2119C17.3936 21.1112 17.4748 20.9508 17.4466 20.7068C17.4251 20.5226 17.4234 20.3417 17.4234 20.1677C17.4218 19.8128 17.4201 19.5057 17.2612 19.231C17.185 19.0996 17.2082 18.9631 17.2198 18.8795L17.2214 18.8642C17.3787 17.8337 17.1767 16.8407 16.9615 15.7914L16.9184 15.5798C16.8654 15.3154 16.8174 15.0458 16.7727 14.7864L16.7363 14.5732C16.6982 14.3582 16.7545 14.162 16.8886 14.0374C17.0178 13.918 17.1949 13.8805 17.3771 13.9351C17.4897 13.9692 17.5244 13.9504 17.6983 13.7764C17.7215 13.7525 17.7447 13.7303 17.7678 13.7064C17.8556 13.6211 17.9467 13.5426 18.041 13.4659C17.6453 13.2236 17.238 13.227 16.7164 13.3191C16.0045 13.4454 15.2395 13.5785 14.4629 13.686C14.2345 13.7184 14.0126 13.6962 13.799 13.6757C13.7493 13.6706 13.698 13.6655 13.6483 13.6621C13.4811 13.6484 13.3238 13.7474 13.2824 13.8907C13.2427 14.0272 13.2824 14.2029 13.4314 14.2644C13.7609 14.3974 13.953 14.6568 13.9894 15.0168C14.097 16.0968 14.6898 16.9311 15.3173 17.8132C15.372 17.89 15.4266 17.9684 15.4812 18.0452C15.7577 18.4376 16.0641 18.8249 16.3604 19.1986L16.5128 19.3914C16.8058 19.7633 16.8274 20.0909 16.7943 20.3008C16.7611 20.5038 16.6452 20.7973 16.2727 21.0378C16.1767 21.0992 16.0806 21.1607 15.9929 21.2153L15.1931 21.722L15.4663 20.9269C15.4961 20.8416 15.5309 20.7614 15.5657 20.6847C15.6236 20.5533 15.6832 20.4185 15.6766 20.3332C15.6667 20.2172 15.5557 20.0534 15.4564 19.9083C15.4316 19.8725 15.4067 19.8367 15.3835 19.8009C14.9961 19.2105 14.602 18.6134 14.2196 18.035C13.5804 17.0693 12.9198 16.0695 12.2807 15.0799C12.0604 14.7387 11.9065 14.3633 11.7558 13.9982L11.7045 13.8753C11.6101 13.6484 11.7326 13.3277 11.8998 13.2048C12.4247 12.8158 12.9595 12.4456 13.5076 12.0668C14.1053 11.6556 14.7709 11.5225 15.4581 11.4134C15.766 11.3639 16.026 11.3332 16.2926 11.3366C16.7164 11.3434 17.0393 11.2973 17.3373 11.0499C17.6652 10.777 18.0659 10.7411 18.4831 10.9442C18.5593 10.8725 18.6355 10.8008 18.7083 10.7309C19.0279 10.4306 19.3276 10.1474 19.6057 9.83686C19.6935 9.7396 19.7581 9.53657 19.7448 9.41202C19.6985 9.0179 19.5975 8.59818 19.4468 8.16652C19.0527 7.04386 19.412 5.56121 20.2647 4.79173C20.8939 4.22528 21.8824 4.16044 22.7252 4.63305C23.404 5.01182 23.6971 5.72329 23.5514 6.63439C23.5315 6.75552 23.505 6.87325 23.4785 6.98756C23.4305 7.19571 23.3858 7.39363 23.3941 7.57278C23.4123 7.98226 23.3858 8.42415 23.0663 8.88652C22.9769 9.01619 22.9371 9.22093 22.8957 9.43591C22.8825 9.50586 22.8692 9.57752 22.8527 9.64747C22.8179 9.80444 22.6838 10.1593 22.2003 10.0604C22.1109 10.0416 22.0215 10.0245 21.9321 10.0075C21.7185 9.96652 21.4999 9.92387 21.2814 9.86757C21.0578 9.80956 20.9634 9.86757 20.8823 9.98018C20.8012 10.0928 20.7747 10.202 20.8989 10.3965C20.9668 10.5023 21.0678 10.7104 20.9966 10.9083C20.8807 11.2291 20.9601 11.5413 21.0529 11.9013C21.086 12.031 21.1207 12.1658 21.1472 12.304C21.3161 13.2082 21.7483 13.9675 22.4735 14.6209C22.5381 14.679 22.5877 14.7438 22.6325 14.8001C22.6672 14.8445 22.7003 14.8871 22.7285 14.911C23.4521 15.4979 23.1126 16.2384 23.0017 16.4807C22.707 17.1239 22.3079 17.5351 21.7847 17.7381C21.5728 17.82 21.4436 17.9582 21.3542 18.1971C21.2979 18.3489 21.24 18.5008 21.182 18.6526C21.0231 19.0672 20.8591 19.4972 20.7366 19.9237C20.6836 20.1114 20.7101 20.3622 20.7366 20.6028L20.7449 20.6761C20.8244 21.432 20.7764 22.1827 20.5942 22.9675L20.4982 23.3838L20.1521 23.1467C19.6521 22.8037 19.5792 22.8754 19.4666 22.9829C19.3905 23.0562 19.2779 23.1654 19.5792 23.6397L19.869 24.0936C20.9767 25.8304 22.1225 27.6287 23.2716 29.3793C23.4603 29.6676 23.6789 29.9321 23.9124 30.2119C24.0812 30.4149 24.2568 30.6265 24.4174 30.8466C24.5283 30.9984 24.7171 31.3021 24.7237 31.6348C24.7419 32.5033 25.0002 33.3052 25.275 34.1531C25.3131 34.2708 25.3512 34.3886 25.3893 34.508C25.4506 34.6991 25.5085 34.8936 25.5648 35.083C25.732 35.6426 25.9042 36.221 26.1526 36.7345C26.4771 37.4102 26.8745 38.0705 27.2603 38.7086C27.4143 38.9628 27.5716 39.2256 27.7239 39.4883C27.7554 39.5429 27.7984 39.5992 27.8431 39.6606C27.9011 39.7374 27.959 39.8159 28.012 39.9097C28.267 40.3653 28.6329 40.5274 29.2025 40.4318C29.5982 40.3653 30.0022 40.3056 30.3913 40.2475L30.6397 40.21C30.6894 40.2032 30.7423 40.1964 30.8003 40.1964L32.4809 39.4559L31.5967 40.4523ZM16.9996 19.2447L16.0707 17.7671L15.9564 17.6016C15.8786 17.489 15.8008 17.3781 15.7213 17.2672C15.1882 16.5148 14.6351 15.7368 14.6037 14.6346L14.5954 14.3736L15.9929 14.1398L16.6353 17.5436L16.6502 17.5658L16.9996 19.2447Z"/>
</mask>
<path d="M32.966 39.3143C32.9097 39.1829 32.769 39.0362 32.5455 39.0208C32.3451 39.0072 32.1199 39.0601 31.8666 39.1283C31.6464 39.188 31.4196 39.2614 31.201 39.333C30.7821 39.4695 30.3499 39.6111 29.9012 39.6709C29.681 39.6999 29.5154 39.7306 29.3846 39.7545C28.7803 39.8671 28.6793 39.7869 28.3216 39.2409C28.2604 39.1471 28.1842 39.0293 28.0898 38.8928C28.0832 38.8826 28.0766 38.8741 28.07 38.8638C28.0484 38.8348 28.0236 38.799 27.9988 38.7564C27.8663 38.5175 27.7289 38.2752 27.5948 38.0415C27.2719 37.4767 26.9391 36.8915 26.6559 36.2875C26.4308 35.8064 26.2801 35.2928 26.1344 34.7963C26.0897 34.6428 26.0417 34.4824 25.9936 34.3289C25.9556 34.206 25.9158 34.0832 25.8777 33.962C25.6343 33.2011 25.3843 32.4128 25.3512 31.5563C25.3413 31.2799 25.227 30.9472 25.0482 30.6674C24.8793 30.4047 24.6823 30.1607 24.472 29.9048C24.2849 29.6744 24.0912 29.4356 23.919 29.1814C22.9172 27.6953 21.9238 26.1666 20.9999 24.7368C20.8691 24.5338 20.8691 24.2335 20.9353 24.0424C21.3857 22.7611 21.5198 21.5872 21.3476 20.456C21.3227 20.2957 21.3625 20.1472 21.3923 20.0261L21.3973 20.0073C21.5661 19.3504 21.9122 18.9529 22.4553 18.7908C22.5083 18.7755 22.5745 18.7294 22.644 18.6816C22.6921 18.6492 22.7401 18.6168 22.7947 18.5844C23.1176 18.3984 23.4338 18.1766 23.7402 17.9633C24.3925 17.5078 25.0664 17.0352 25.8976 16.8185C25.9589 16.8031 26.0532 16.7264 26.1294 16.5933C26.2039 16.4619 26.2122 16.3595 26.2056 16.3339C26.1294 16.165 26.0748 15.9876 26.0234 15.8153C25.8695 15.3034 25.7618 15.0082 25.3231 14.9195C25.237 14.9025 25.1807 14.853 25.1542 14.8274C24.9439 14.6858 24.8594 14.7165 24.7171 14.8717C24.6508 14.9434 24.5945 15.039 24.5283 15.1481C24.4935 15.2062 24.4571 15.2659 24.4174 15.329L24.2104 15.6464L23.962 15.3631C23.7898 15.1652 23.6342 14.9792 23.4835 14.7984C23.1706 14.4247 22.9007 14.1006 22.5977 13.8173C22.048 13.3021 21.8923 12.6571 21.7433 12.0344C21.697 11.8433 21.6539 11.6625 21.5993 11.485C21.533 11.27 21.5678 11.0636 21.692 10.9152C21.7681 10.8247 21.947 10.6797 22.2781 10.7377C22.4371 10.765 22.5911 10.7838 22.7351 10.7906C23.1722 10.8128 23.3593 10.6524 23.4256 10.2003C23.4305 10.1627 23.4355 10.1252 23.4405 10.0877C23.4537 9.987 23.467 9.88292 23.4901 9.77714C23.5382 9.55534 23.6507 9.24823 24.0796 9.15098C24.1574 9.13392 24.2832 9.02302 24.3114 8.94624C24.3329 8.89164 24.3031 8.74321 24.2832 8.63572C24.2733 8.58283 24.2634 8.53164 24.2551 8.48216C24.2369 8.35761 24.212 8.23477 24.1856 8.1051C24.1409 7.88159 24.0945 7.64955 24.0779 7.40898C24.0647 7.22642 24.1061 7.05581 24.1408 6.90567C24.1591 6.82718 24.1773 6.75211 24.1856 6.68386C24.2965 5.79666 24.1326 5.13467 23.6706 4.59893C23.1408 3.983 22.4073 3.68272 21.4304 3.67931C21.139 3.6776 20.8277 3.60935 20.7416 3.10433C20.576 2.13523 20.1753 1.53807 19.4815 1.22925C18.4301 0.758352 17.1536 1.02793 16.3041 1.89978C15.9531 2.25978 15.6915 2.72215 15.4829 3.35002C15.1964 4.21334 14.299 4.7013 13.3966 4.48291C13.289 4.45732 13.0986 4.49997 12.9976 4.57334C12.7989 4.71666 12.9943 5.04083 13.0589 5.13637C14.1633 6.77429 16.0028 7.16841 17.5327 6.09694C17.7016 5.97922 17.748 5.77789 17.6453 5.62092C17.5013 5.40083 17.2496 5.51685 17.1767 5.5578L17.0906 5.60557C16.8671 5.73012 16.637 5.85808 16.382 5.93827C15.713 6.14813 15.0954 6.05599 14.5474 5.66528L14.3338 5.51343L14.458 5.27798C14.4629 5.26775 14.4663 5.25922 14.4696 5.25239C14.4861 5.21656 14.5159 5.14832 14.5888 5.09372C14.6434 5.05448 14.6997 5.02035 14.7593 4.99476C15.4564 4.69277 15.9084 4.18092 16.1402 3.43191C16.1882 3.27665 16.2528 3.11968 16.3389 2.94907C16.8191 1.99873 17.8854 1.47835 18.8755 1.71039C19.4782 1.85201 19.869 2.2376 20.0346 2.85352L20.0528 2.92006C20.1753 3.36879 20.3574 4.04613 19.6703 4.48462C19.6653 4.49315 19.6587 4.49997 19.6537 4.5068C18.5858 5.88879 18.349 7.17865 18.907 8.56406C19.0858 9.00766 19.104 9.37449 18.96 9.65088C18.8789 9.80785 18.705 10.0109 18.3341 10.0894C17.7877 10.2037 17.281 10.3862 16.7446 10.5773L16.5724 10.6388C16.319 10.7292 16.0574 10.7377 15.8041 10.7445C15.675 10.7479 15.5524 10.7531 15.4349 10.7667C14.405 10.8964 13.6732 11.1489 13.0638 11.584C12.539 11.9576 11.9131 12.3961 11.2624 12.8005C10.8004 13.0871 10.7524 13.2253 10.9378 13.7252C11.2955 14.6892 11.8104 15.6463 12.5572 16.74C13.0539 17.4668 13.5274 18.1885 14.0275 18.9529C14.2444 19.2839 14.4629 19.6166 14.6865 19.9544L14.8587 20.2138L14.5971 20.3758C14.5424 20.41 14.4927 20.4424 14.4447 20.4731C14.3404 20.5396 14.2427 20.601 14.1401 20.6591C14.0242 20.7239 13.8702 20.8502 13.8652 21.1914C13.8636 21.2921 13.8867 21.391 14.1815 21.5121C14.501 21.6418 14.8123 21.7681 15.1236 21.8807C15.266 21.9319 15.6981 22.0854 15.5177 22.6672C15.2577 23.5084 15.1683 24.2676 15.2412 24.9893C15.261 25.177 15.2014 25.4022 15.0921 25.566C14.2361 26.8354 13.5159 28.2703 12.9496 29.828C12.7443 30.3961 12.3734 30.4013 12.0389 30.333C11.1349 30.147 10.4146 30.1829 9.77384 30.449C9.19267 30.6896 8.60157 30.9251 8.02702 31.1537C7.54354 31.3465 7.04184 31.5444 6.55339 31.7457C5.91262 32.0085 5.29833 32.0682 4.67742 31.9266C4.44396 31.8737 4.18235 31.8413 3.87935 31.831C3.25182 31.8071 3.02332 31.9726 2.81139 32.5971C2.78324 32.679 2.75674 32.7626 2.73025 32.8462C2.67727 33.01 2.62428 33.1806 2.55971 33.3478C2.47692 33.5594 2.39082 33.7163 2.28651 33.8409C1.39075 34.9158 0.970182 36.2193 1.00164 37.8214C1.0033 37.9357 1.02979 38.0927 1.1457 38.1899C1.24007 38.2718 1.37916 38.2991 1.54639 38.2718C1.91562 38.2087 2.20041 37.9715 2.44049 37.5262C3.06637 36.3643 4.06811 35.6051 4.9589 34.984C5.86295 34.3545 6.76699 34.0678 7.72567 34.1088C8.26379 34.1326 8.82013 34.0985 9.3599 34.0661C9.59337 34.0525 9.83345 34.0371 10.0719 34.0269C10.4212 34.0115 10.7789 33.9893 11.1249 33.9689C11.9296 33.9194 12.7608 33.8682 13.5837 33.9023C14.2527 33.9313 14.6964 33.7112 15.0673 33.1687C15.3008 32.8274 15.5342 32.4862 15.7677 32.145C16.3969 31.227 17.0476 30.2767 17.6801 29.3383C17.9351 28.9578 18.1255 28.707 18.4136 28.6712C18.4368 28.6678 18.4583 28.6678 18.4798 28.6678C18.7431 28.6678 18.9749 28.8606 19.2862 29.1472C19.3557 29.2104 19.412 29.2803 19.4633 29.3417C19.4799 29.3605 19.4948 29.3793 19.5113 29.3997L20.018 29.9935C20.7151 30.8107 21.437 31.6553 22.139 32.4913C22.2649 32.6415 22.346 32.8598 22.3427 33.0475C22.3328 34.0439 22.6093 35.0182 23.1623 35.9446C23.6425 36.7482 24.169 37.5467 24.679 38.3179C24.8147 38.5226 24.9489 38.7273 25.083 38.9321C25.1972 39.1078 25.3181 39.2853 25.4356 39.4559C25.9705 40.2407 26.5251 41.0511 26.7801 42.0493C26.8182 42.196 26.9093 42.3512 26.9904 42.4877C27.2636 42.9518 27.5815 43.0917 28.0203 42.9433C28.9061 42.643 29.7919 42.2762 30.6496 41.9213L30.7705 41.8718C31.5818 41.5357 32.0868 40.8447 32.6233 40.111C32.7193 39.9797 32.8187 39.8432 32.9197 39.7101C33.0389 39.548 32.9991 39.3928 32.966 39.3143ZM17.5708 28.3436C17.4864 28.4699 17.4036 28.5961 17.3191 28.7241C17.132 29.0073 16.94 29.2991 16.7429 29.5857C16.478 29.973 16.2114 30.3603 15.9448 30.7476C15.5144 31.3738 15.069 32.0221 14.6368 32.6619C14.3669 33.0646 14.0374 33.2352 13.5407 33.2352C13.5374 33.2352 13.5341 33.2352 13.5308 33.2352C12.683 33.2318 11.8154 33.2744 10.9776 33.3171C10.653 33.3325 10.3186 33.3495 9.98909 33.3632C9.74735 33.3734 9.50064 33.3888 9.26056 33.4041C8.7274 33.4365 8.17769 33.4707 7.63129 33.4536C6.62128 33.4195 5.6626 33.7198 4.69895 34.3681C3.99856 34.8407 3.10115 35.4942 2.38255 36.3763L2.22856 36.5656C1.9537 37.5467 1.35432 37.806 1.35432 37.806C1.22682 37.3846 1.50996 36.6083 1.66394 36.2381L1.64739 36.2295L1.78647 35.9702C1.86098 35.832 1.93384 35.6836 2.00338 35.5419C2.17061 35.2024 2.34281 34.8509 2.57792 34.5404C2.96537 34.0303 3.2187 33.5167 3.35448 32.9725C3.45051 32.5869 3.71377 32.4162 4.09294 32.4947C4.20222 32.5169 4.31316 32.5323 4.43072 32.5493C4.56483 32.5681 4.70557 32.5886 4.84466 32.6193C5.55332 32.7745 6.23218 32.5647 6.74381 32.3651C6.92429 32.2951 7.10311 32.2252 7.28358 32.1552C7.94092 31.9027 8.62144 31.6399 9.26387 31.3362C10.307 30.8415 11.3269 30.7544 12.38 31.0684C12.8204 31.1997 12.9529 31.1639 13.0208 31.1196C13.14 31.0377 13.2542 30.7681 13.3768 30.4815C13.7659 29.5652 14.1931 28.6507 14.607 27.7669C14.7395 27.4837 14.8719 27.2005 15.0027 26.9173C15.064 26.7842 15.1418 26.6699 15.2163 26.559C15.2412 26.5232 15.2643 26.4873 15.2875 26.4515C15.3273 26.3884 15.3769 26.3525 15.4084 26.3286C15.415 26.3235 15.4216 26.3201 15.4283 26.3133L15.622 26.1495L17.7066 28.1286L17.5708 28.3436ZM31.5967 40.4523L31.2159 40.7765C31.1861 40.802 31.1546 40.8328 31.1215 40.8652C31.0305 40.9556 30.9261 41.058 30.7837 41.1194C30.0685 41.4316 29.3383 41.737 28.6329 42.0339L28.1643 42.2301C28.0666 42.2711 27.9756 42.2915 27.8911 42.2915C27.815 42.2915 27.7454 42.2762 27.6809 42.2438C27.5914 42.1994 27.4722 42.1021 27.4143 41.8923C27.0384 40.5512 26.2702 39.4712 25.4572 38.3264C25.1128 37.8419 24.7568 37.3402 24.4372 36.8216C24.3909 36.7482 24.3462 36.6731 24.2998 36.5998C23.7584 35.7262 23.1987 34.8236 23.0398 33.7198C23.0149 33.5491 23.0182 33.3819 23.0199 33.2216C23.0216 33.0851 23.0249 32.9571 23.0083 32.8377C22.9851 32.6619 22.9553 32.4197 22.8725 32.3207C21.9238 31.181 20.9601 30.0686 19.8905 28.8384C19.7696 28.7002 19.6157 28.5808 19.4517 28.4545L19.4087 28.4221C19.0312 28.1287 18.647 27.8335 18.2745 27.5469C17.8423 27.2159 17.3969 26.8729 16.9598 26.5317C15.9299 25.7298 15.6137 24.6105 16.0227 23.2081C16.0624 23.0699 16.1071 22.9351 16.1518 22.8054C16.2015 22.657 16.2479 22.5171 16.2876 22.3738C16.4432 21.8141 16.738 21.4337 17.19 21.2119C17.3936 21.1112 17.4748 20.9508 17.4466 20.7068C17.4251 20.5226 17.4234 20.3417 17.4234 20.1677C17.4218 19.8128 17.4201 19.5057 17.2612 19.231C17.185 19.0996 17.2082 18.9631 17.2198 18.8795L17.2214 18.8642C17.3787 17.8337 17.1767 16.8407 16.9615 15.7914L16.9184 15.5798C16.8654 15.3154 16.8174 15.0458 16.7727 14.7864L16.7363 14.5732C16.6982 14.3582 16.7545 14.162 16.8886 14.0374C17.0178 13.918 17.1949 13.8805 17.3771 13.9351C17.4897 13.9692 17.5244 13.9504 17.6983 13.7764C17.7215 13.7525 17.7447 13.7303 17.7678 13.7064C17.8556 13.6211 17.9467 13.5426 18.041 13.4659C17.6453 13.2236 17.238 13.227 16.7164 13.3191C16.0045 13.4454 15.2395 13.5785 14.4629 13.686C14.2345 13.7184 14.0126 13.6962 13.799 13.6757C13.7493 13.6706 13.698 13.6655 13.6483 13.6621C13.4811 13.6484 13.3238 13.7474 13.2824 13.8907C13.2427 14.0272 13.2824 14.2029 13.4314 14.2644C13.7609 14.3974 13.953 14.6568 13.9894 15.0168C14.097 16.0968 14.6898 16.9311 15.3173 17.8132C15.372 17.89 15.4266 17.9684 15.4812 18.0452C15.7577 18.4376 16.0641 18.8249 16.3604 19.1986L16.5128 19.3914C16.8058 19.7633 16.8274 20.0909 16.7943 20.3008C16.7611 20.5038 16.6452 20.7973 16.2727 21.0378C16.1767 21.0992 16.0806 21.1607 15.9929 21.2153L15.1931 21.722L15.4663 20.9269C15.4961 20.8416 15.5309 20.7614 15.5657 20.6847C15.6236 20.5533 15.6832 20.4185 15.6766 20.3332C15.6667 20.2172 15.5557 20.0534 15.4564 19.9083C15.4316 19.8725 15.4067 19.8367 15.3835 19.8009C14.9961 19.2105 14.602 18.6134 14.2196 18.035C13.5804 17.0693 12.9198 16.0695 12.2807 15.0799C12.0604 14.7387 11.9065 14.3633 11.7558 13.9982L11.7045 13.8753C11.6101 13.6484 11.7326 13.3277 11.8998 13.2048C12.4247 12.8158 12.9595 12.4456 13.5076 12.0668C14.1053 11.6556 14.7709 11.5225 15.4581 11.4134C15.766 11.3639 16.026 11.3332 16.2926 11.3366C16.7164 11.3434 17.0393 11.2973 17.3373 11.0499C17.6652 10.777 18.0659 10.7411 18.4831 10.9442C18.5593 10.8725 18.6355 10.8008 18.7083 10.7309C19.0279 10.4306 19.3276 10.1474 19.6057 9.83686C19.6935 9.7396 19.7581 9.53657 19.7448 9.41202C19.6985 9.0179 19.5975 8.59818 19.4468 8.16652C19.0527 7.04386 19.412 5.56121 20.2647 4.79173C20.8939 4.22528 21.8824 4.16044 22.7252 4.63305C23.404 5.01182 23.6971 5.72329 23.5514 6.63439C23.5315 6.75552 23.505 6.87325 23.4785 6.98756C23.4305 7.19571 23.3858 7.39363 23.3941 7.57278C23.4123 7.98226 23.3858 8.42415 23.0663 8.88652C22.9769 9.01619 22.9371 9.22093 22.8957 9.43591C22.8825 9.50586 22.8692 9.57752 22.8527 9.64747C22.8179 9.80444 22.6838 10.1593 22.2003 10.0604C22.1109 10.0416 22.0215 10.0245 21.9321 10.0075C21.7185 9.96652 21.4999 9.92387 21.2814 9.86757C21.0578 9.80956 20.9634 9.86757 20.8823 9.98018C20.8012 10.0928 20.7747 10.202 20.8989 10.3965C20.9668 10.5023 21.0678 10.7104 20.9966 10.9083C20.8807 11.2291 20.9601 11.5413 21.0529 11.9013C21.086 12.031 21.1207 12.1658 21.1472 12.304C21.3161 13.2082 21.7483 13.9675 22.4735 14.6209C22.5381 14.679 22.5877 14.7438 22.6325 14.8001C22.6672 14.8445 22.7003 14.8871 22.7285 14.911C23.4521 15.4979 23.1126 16.2384 23.0017 16.4807C22.707 17.1239 22.3079 17.5351 21.7847 17.7381C21.5728 17.82 21.4436 17.9582 21.3542 18.1971C21.2979 18.3489 21.24 18.5008 21.182 18.6526C21.0231 19.0672 20.8591 19.4972 20.7366 19.9237C20.6836 20.1114 20.7101 20.3622 20.7366 20.6028L20.7449 20.6761C20.8244 21.432 20.7764 22.1827 20.5942 22.9675L20.4982 23.3838L20.1521 23.1467C19.6521 22.8037 19.5792 22.8754 19.4666 22.9829C19.3905 23.0562 19.2779 23.1654 19.5792 23.6397L19.869 24.0936C20.9767 25.8304 22.1225 27.6287 23.2716 29.3793C23.4603 29.6676 23.6789 29.9321 23.9124 30.2119C24.0812 30.4149 24.2568 30.6265 24.4174 30.8466C24.5283 30.9984 24.7171 31.3021 24.7237 31.6348C24.7419 32.5033 25.0002 33.3052 25.275 34.1531C25.3131 34.2708 25.3512 34.3886 25.3893 34.508C25.4506 34.6991 25.5085 34.8936 25.5648 35.083C25.732 35.6426 25.9042 36.221 26.1526 36.7345C26.4771 37.4102 26.8745 38.0705 27.2603 38.7086C27.4143 38.9628 27.5716 39.2256 27.7239 39.4883C27.7554 39.5429 27.7984 39.5992 27.8431 39.6606C27.9011 39.7374 27.959 39.8159 28.012 39.9097C28.267 40.3653 28.6329 40.5274 29.2025 40.4318C29.5982 40.3653 30.0022 40.3056 30.3913 40.2475L30.6397 40.21C30.6894 40.2032 30.7423 40.1964 30.8003 40.1964L32.4809 39.4559L31.5967 40.4523ZM16.9996 19.2447L16.0707 17.7671L15.9564 17.6016C15.8786 17.489 15.8008 17.3781 15.7213 17.2672C15.1882 16.5148 14.6351 15.7368 14.6037 14.6346L14.5954 14.3736L15.9929 14.1398L16.6353 17.5436L16.6502 17.5658L16.9996 19.2447Z" fill="#9A3995"/>
<path d="M32.966 39.3143C32.9097 39.1829 32.769 39.0362 32.5455 39.0208C32.3451 39.0072 32.1199 39.0601 31.8666 39.1283C31.6464 39.188 31.4196 39.2614 31.201 39.333C30.7821 39.4695 30.3499 39.6111 29.9012 39.6709C29.681 39.6999 29.5154 39.7306 29.3846 39.7545C28.7803 39.8671 28.6793 39.7869 28.3216 39.2409C28.2604 39.1471 28.1842 39.0293 28.0898 38.8928C28.0832 38.8826 28.0766 38.8741 28.07 38.8638C28.0484 38.8348 28.0236 38.799 27.9988 38.7564C27.8663 38.5175 27.7289 38.2752 27.5948 38.0415C27.2719 37.4767 26.9391 36.8915 26.6559 36.2875C26.4308 35.8064 26.2801 35.2928 26.1344 34.7963C26.0897 34.6428 26.0417 34.4824 25.9936 34.3289C25.9556 34.206 25.9158 34.0832 25.8777 33.962C25.6343 33.2011 25.3843 32.4128 25.3512 31.5563C25.3413 31.2799 25.227 30.9472 25.0482 30.6674C24.8793 30.4047 24.6823 30.1607 24.472 29.9048C24.2849 29.6744 24.0912 29.4356 23.919 29.1814C22.9172 27.6953 21.9238 26.1666 20.9999 24.7368C20.8691 24.5338 20.8691 24.2335 20.9353 24.0424C21.3857 22.7611 21.5198 21.5872 21.3476 20.456C21.3227 20.2957 21.3625 20.1472 21.3923 20.0261L21.3973 20.0073C21.5661 19.3504 21.9122 18.9529 22.4553 18.7908C22.5083 18.7755 22.5745 18.7294 22.644 18.6816C22.6921 18.6492 22.7401 18.6168 22.7947 18.5844C23.1176 18.3984 23.4338 18.1766 23.7402 17.9633C24.3925 17.5078 25.0664 17.0352 25.8976 16.8185C25.9589 16.8031 26.0532 16.7264 26.1294 16.5933C26.2039 16.4619 26.2122 16.3595 26.2056 16.3339C26.1294 16.165 26.0748 15.9876 26.0234 15.8153C25.8695 15.3034 25.7618 15.0082 25.3231 14.9195C25.237 14.9025 25.1807 14.853 25.1542 14.8274C24.9439 14.6858 24.8594 14.7165 24.7171 14.8717C24.6508 14.9434 24.5945 15.039 24.5283 15.1481C24.4935 15.2062 24.4571 15.2659 24.4174 15.329L24.2104 15.6464L23.962 15.3631C23.7898 15.1652 23.6342 14.9792 23.4835 14.7984C23.1706 14.4247 22.9007 14.1006 22.5977 13.8173C22.048 13.3021 21.8923 12.6571 21.7433 12.0344C21.697 11.8433 21.6539 11.6625 21.5993 11.485C21.533 11.27 21.5678 11.0636 21.692 10.9152C21.7681 10.8247 21.947 10.6797 22.2781 10.7377C22.4371 10.765 22.5911 10.7838 22.7351 10.7906C23.1722 10.8128 23.3593 10.6524 23.4256 10.2003C23.4305 10.1627 23.4355 10.1252 23.4405 10.0877C23.4537 9.987 23.467 9.88292 23.4901 9.77714C23.5382 9.55534 23.6507 9.24823 24.0796 9.15098C24.1574 9.13392 24.2832 9.02302 24.3114 8.94624C24.3329 8.89164 24.3031 8.74321 24.2832 8.63572C24.2733 8.58283 24.2634 8.53164 24.2551 8.48216C24.2369 8.35761 24.212 8.23477 24.1856 8.1051C24.1409 7.88159 24.0945 7.64955 24.0779 7.40898C24.0647 7.22642 24.1061 7.05581 24.1408 6.90567C24.1591 6.82718 24.1773 6.75211 24.1856 6.68386C24.2965 5.79666 24.1326 5.13467 23.6706 4.59893C23.1408 3.983 22.4073 3.68272 21.4304 3.67931C21.139 3.6776 20.8277 3.60935 20.7416 3.10433C20.576 2.13523 20.1753 1.53807 19.4815 1.22925C18.4301 0.758352 17.1536 1.02793 16.3041 1.89978C15.9531 2.25978 15.6915 2.72215 15.4829 3.35002C15.1964 4.21334 14.299 4.7013 13.3966 4.48291C13.289 4.45732 13.0986 4.49997 12.9976 4.57334C12.7989 4.71666 12.9943 5.04083 13.0589 5.13637C14.1633 6.77429 16.0028 7.16841 17.5327 6.09694C17.7016 5.97922 17.748 5.77789 17.6453 5.62092C17.5013 5.40083 17.2496 5.51685 17.1767 5.5578L17.0906 5.60557C16.8671 5.73012 16.637 5.85808 16.382 5.93827C15.713 6.14813 15.0954 6.05599 14.5474 5.66528L14.3338 5.51343L14.458 5.27798C14.4629 5.26775 14.4663 5.25922 14.4696 5.25239C14.4861 5.21656 14.5159 5.14832 14.5888 5.09372C14.6434 5.05448 14.6997 5.02035 14.7593 4.99476C15.4564 4.69277 15.9084 4.18092 16.1402 3.43191C16.1882 3.27665 16.2528 3.11968 16.3389 2.94907C16.8191 1.99873 17.8854 1.47835 18.8755 1.71039C19.4782 1.85201 19.869 2.2376 20.0346 2.85352L20.0528 2.92006C20.1753 3.36879 20.3574 4.04613 19.6703 4.48462C19.6653 4.49315 19.6587 4.49997 19.6537 4.5068C18.5858 5.88879 18.349 7.17865 18.907 8.56406C19.0858 9.00766 19.104 9.37449 18.96 9.65088C18.8789 9.80785 18.705 10.0109 18.3341 10.0894C17.7877 10.2037 17.281 10.3862 16.7446 10.5773L16.5724 10.6388C16.319 10.7292 16.0574 10.7377 15.8041 10.7445C15.675 10.7479 15.5524 10.7531 15.4349 10.7667C14.405 10.8964 13.6732 11.1489 13.0638 11.584C12.539 11.9576 11.9131 12.3961 11.2624 12.8005C10.8004 13.0871 10.7524 13.2253 10.9378 13.7252C11.2955 14.6892 11.8104 15.6463 12.5572 16.74C13.0539 17.4668 13.5274 18.1885 14.0275 18.9529C14.2444 19.2839 14.4629 19.6166 14.6865 19.9544L14.8587 20.2138L14.5971 20.3758C14.5424 20.41 14.4927 20.4424 14.4447 20.4731C14.3404 20.5396 14.2427 20.601 14.1401 20.6591C14.0242 20.7239 13.8702 20.8502 13.8652 21.1914C13.8636 21.2921 13.8867 21.391 14.1815 21.5121C14.501 21.6418 14.8123 21.7681 15.1236 21.8807C15.266 21.9319 15.6981 22.0854 15.5177 22.6672C15.2577 23.5084 15.1683 24.2676 15.2412 24.9893C15.261 25.177 15.2014 25.4022 15.0921 25.566C14.2361 26.8354 13.5159 28.2703 12.9496 29.828C12.7443 30.3961 12.3734 30.4013 12.0389 30.333C11.1349 30.147 10.4146 30.1829 9.77384 30.449C9.19267 30.6896 8.60157 30.9251 8.02702 31.1537C7.54354 31.3465 7.04184 31.5444 6.55339 31.7457C5.91262 32.0085 5.29833 32.0682 4.67742 31.9266C4.44396 31.8737 4.18235 31.8413 3.87935 31.831C3.25182 31.8071 3.02332 31.9726 2.81139 32.5971C2.78324 32.679 2.75674 32.7626 2.73025 32.8462C2.67727 33.01 2.62428 33.1806 2.55971 33.3478C2.47692 33.5594 2.39082 33.7163 2.28651 33.8409C1.39075 34.9158 0.970182 36.2193 1.00164 37.8214C1.0033 37.9357 1.02979 38.0927 1.1457 38.1899C1.24007 38.2718 1.37916 38.2991 1.54639 38.2718C1.91562 38.2087 2.20041 37.9715 2.44049 37.5262C3.06637 36.3643 4.06811 35.6051 4.9589 34.984C5.86295 34.3545 6.76699 34.0678 7.72567 34.1088C8.26379 34.1326 8.82013 34.0985 9.3599 34.0661C9.59337 34.0525 9.83345 34.0371 10.0719 34.0269C10.4212 34.0115 10.7789 33.9893 11.1249 33.9689C11.9296 33.9194 12.7608 33.8682 13.5837 33.9023C14.2527 33.9313 14.6964 33.7112 15.0673 33.1687C15.3008 32.8274 15.5342 32.4862 15.7677 32.145C16.3969 31.227 17.0476 30.2767 17.6801 29.3383C17.9351 28.9578 18.1255 28.707 18.4136 28.6712C18.4368 28.6678 18.4583 28.6678 18.4798 28.6678C18.7431 28.6678 18.9749 28.8606 19.2862 29.1472C19.3557 29.2104 19.412 29.2803 19.4633 29.3417C19.4799 29.3605 19.4948 29.3793 19.5113 29.3997L20.018 29.9935C20.7151 30.8107 21.437 31.6553 22.139 32.4913C22.2649 32.6415 22.346 32.8598 22.3427 33.0475C22.3328 34.0439 22.6093 35.0182 23.1623 35.9446C23.6425 36.7482 24.169 37.5467 24.679 38.3179C24.8147 38.5226 24.9489 38.7273 25.083 38.9321C25.1972 39.1078 25.3181 39.2853 25.4356 39.4559C25.9705 40.2407 26.5251 41.0511 26.7801 42.0493C26.8182 42.196 26.9093 42.3512 26.9904 42.4877C27.2636 42.9518 27.5815 43.0917 28.0203 42.9433C28.9061 42.643 29.7919 42.2762 30.6496 41.9213L30.7705 41.8718C31.5818 41.5357 32.0868 40.8447 32.6233 40.111C32.7193 39.9797 32.8187 39.8432 32.9197 39.7101C33.0389 39.548 32.9991 39.3928 32.966 39.3143ZM17.5708 28.3436C17.4864 28.4699 17.4036 28.5961 17.3191 28.7241C17.132 29.0073 16.94 29.2991 16.7429 29.5857C16.478 29.973 16.2114 30.3603 15.9448 30.7476C15.5144 31.3738 15.069 32.0221 14.6368 32.6619C14.3669 33.0646 14.0374 33.2352 13.5407 33.2352C13.5374 33.2352 13.5341 33.2352 13.5308 33.2352C12.683 33.2318 11.8154 33.2744 10.9776 33.3171C10.653 33.3325 10.3186 33.3495 9.98909 33.3632C9.74735 33.3734 9.50064 33.3888 9.26056 33.4041C8.7274 33.4365 8.17769 33.4707 7.63129 33.4536C6.62128 33.4195 5.6626 33.7198 4.69895 34.3681C3.99856 34.8407 3.10115 35.4942 2.38255 36.3763L2.22856 36.5656C1.9537 37.5467 1.35432 37.806 1.35432 37.806C1.22682 37.3846 1.50996 36.6083 1.66394 36.2381L1.64739 36.2295L1.78647 35.9702C1.86098 35.832 1.93384 35.6836 2.00338 35.5419C2.17061 35.2024 2.34281 34.8509 2.57792 34.5404C2.96537 34.0303 3.2187 33.5167 3.35448 32.9725C3.45051 32.5869 3.71377 32.4162 4.09294 32.4947C4.20222 32.5169 4.31316 32.5323 4.43072 32.5493C4.56483 32.5681 4.70557 32.5886 4.84466 32.6193C5.55332 32.7745 6.23218 32.5647 6.74381 32.3651C6.92429 32.2951 7.10311 32.2252 7.28358 32.1552C7.94092 31.9027 8.62144 31.6399 9.26387 31.3362C10.307 30.8415 11.3269 30.7544 12.38 31.0684C12.8204 31.1997 12.9529 31.1639 13.0208 31.1196C13.14 31.0377 13.2542 30.7681 13.3768 30.4815C13.7659 29.5652 14.1931 28.6507 14.607 27.7669C14.7395 27.4837 14.8719 27.2005 15.0027 26.9173C15.064 26.7842 15.1418 26.6699 15.2163 26.559C15.2412 26.5232 15.2643 26.4873 15.2875 26.4515C15.3273 26.3884 15.3769 26.3525 15.4084 26.3286C15.415 26.3235 15.4216 26.3201 15.4283 26.3133L15.622 26.1495L17.7066 28.1286L17.5708 28.3436ZM31.5967 40.4523L31.2159 40.7765C31.1861 40.802 31.1546 40.8328 31.1215 40.8652C31.0305 40.9556 30.9261 41.058 30.7837 41.1194C30.0685 41.4316 29.3383 41.737 28.6329 42.0339L28.1643 42.2301C28.0666 42.2711 27.9756 42.2915 27.8911 42.2915C27.815 42.2915 27.7454 42.2762 27.6809 42.2438C27.5914 42.1994 27.4722 42.1021 27.4143 41.8923C27.0384 40.5512 26.2702 39.4712 25.4572 38.3264C25.1128 37.8419 24.7568 37.3402 24.4372 36.8216C24.3909 36.7482 24.3462 36.6731 24.2998 36.5998C23.7584 35.7262 23.1987 34.8236 23.0398 33.7198C23.0149 33.5491 23.0182 33.3819 23.0199 33.2216C23.0216 33.0851 23.0249 32.9571 23.0083 32.8377C22.9851 32.6619 22.9553 32.4197 22.8725 32.3207C21.9238 31.181 20.9601 30.0686 19.8905 28.8384C19.7696 28.7002 19.6157 28.5808 19.4517 28.4545L19.4087 28.4221C19.0312 28.1287 18.647 27.8335 18.2745 27.5469C17.8423 27.2159 17.3969 26.8729 16.9598 26.5317C15.9299 25.7298 15.6137 24.6105 16.0227 23.2081C16.0624 23.0699 16.1071 22.9351 16.1518 22.8054C16.2015 22.657 16.2479 22.5171 16.2876 22.3738C16.4432 21.8141 16.738 21.4337 17.19 21.2119C17.3936 21.1112 17.4748 20.9508 17.4466 20.7068C17.4251 20.5226 17.4234 20.3417 17.4234 20.1677C17.4218 19.8128 17.4201 19.5057 17.2612 19.231C17.185 19.0996 17.2082 18.9631 17.2198 18.8795L17.2214 18.8642C17.3787 17.8337 17.1767 16.8407 16.9615 15.7914L16.9184 15.5798C16.8654 15.3154 16.8174 15.0458 16.7727 14.7864L16.7363 14.5732C16.6982 14.3582 16.7545 14.162 16.8886 14.0374C17.0178 13.918 17.1949 13.8805 17.3771 13.9351C17.4897 13.9692 17.5244 13.9504 17.6983 13.7764C17.7215 13.7525 17.7447 13.7303 17.7678 13.7064C17.8556 13.6211 17.9467 13.5426 18.041 13.4659C17.6453 13.2236 17.238 13.227 16.7164 13.3191C16.0045 13.4454 15.2395 13.5785 14.4629 13.686C14.2345 13.7184 14.0126 13.6962 13.799 13.6757C13.7493 13.6706 13.698 13.6655 13.6483 13.6621C13.4811 13.6484 13.3238 13.7474 13.2824 13.8907C13.2427 14.0272 13.2824 14.2029 13.4314 14.2644C13.7609 14.3974 13.953 14.6568 13.9894 15.0168C14.097 16.0968 14.6898 16.9311 15.3173 17.8132C15.372 17.89 15.4266 17.9684 15.4812 18.0452C15.7577 18.4376 16.0641 18.8249 16.3604 19.1986L16.5128 19.3914C16.8058 19.7633 16.8274 20.0909 16.7943 20.3008C16.7611 20.5038 16.6452 20.7973 16.2727 21.0378C16.1767 21.0992 16.0806 21.1607 15.9929 21.2153L15.1931 21.722L15.4663 20.9269C15.4961 20.8416 15.5309 20.7614 15.5657 20.6847C15.6236 20.5533 15.6832 20.4185 15.6766 20.3332C15.6667 20.2172 15.5557 20.0534 15.4564 19.9083C15.4316 19.8725 15.4067 19.8367 15.3835 19.8009C14.9961 19.2105 14.602 18.6134 14.2196 18.035C13.5804 17.0693 12.9198 16.0695 12.2807 15.0799C12.0604 14.7387 11.9065 14.3633 11.7558 13.9982L11.7045 13.8753C11.6101 13.6484 11.7326 13.3277 11.8998 13.2048C12.4247 12.8158 12.9595 12.4456 13.5076 12.0668C14.1053 11.6556 14.7709 11.5225 15.4581 11.4134C15.766 11.3639 16.026 11.3332 16.2926 11.3366C16.7164 11.3434 17.0393 11.2973 17.3373 11.0499C17.6652 10.777 18.0659 10.7411 18.4831 10.9442C18.5593 10.8725 18.6355 10.8008 18.7083 10.7309C19.0279 10.4306 19.3276 10.1474 19.6057 9.83686C19.6935 9.7396 19.7581 9.53657 19.7448 9.41202C19.6985 9.0179 19.5975 8.59818 19.4468 8.16652C19.0527 7.04386 19.412 5.56121 20.2647 4.79173C20.8939 4.22528 21.8824 4.16044 22.7252 4.63305C23.404 5.01182 23.6971 5.72329 23.5514 6.63439C23.5315 6.75552 23.505 6.87325 23.4785 6.98756C23.4305 7.19571 23.3858 7.39363 23.3941 7.57278C23.4123 7.98226 23.3858 8.42415 23.0663 8.88652C22.9769 9.01619 22.9371 9.22093 22.8957 9.43591C22.8825 9.50586 22.8692 9.57752 22.8527 9.64747C22.8179 9.80444 22.6838 10.1593 22.2003 10.0604C22.1109 10.0416 22.0215 10.0245 21.9321 10.0075C21.7185 9.96652 21.4999 9.92387 21.2814 9.86757C21.0578 9.80956 20.9634 9.86757 20.8823 9.98018C20.8012 10.0928 20.7747 10.202 20.8989 10.3965C20.9668 10.5023 21.0678 10.7104 20.9966 10.9083C20.8807 11.2291 20.9601 11.5413 21.0529 11.9013C21.086 12.031 21.1207 12.1658 21.1472 12.304C21.3161 13.2082 21.7483 13.9675 22.4735 14.6209C22.5381 14.679 22.5877 14.7438 22.6325 14.8001C22.6672 14.8445 22.7003 14.8871 22.7285 14.911C23.4521 15.4979 23.1126 16.2384 23.0017 16.4807C22.707 17.1239 22.3079 17.5351 21.7847 17.7381C21.5728 17.82 21.4436 17.9582 21.3542 18.1971C21.2979 18.3489 21.24 18.5008 21.182 18.6526C21.0231 19.0672 20.8591 19.4972 20.7366 19.9237C20.6836 20.1114 20.7101 20.3622 20.7366 20.6028L20.7449 20.6761C20.8244 21.432 20.7764 22.1827 20.5942 22.9675L20.4982 23.3838L20.1521 23.1467C19.6521 22.8037 19.5792 22.8754 19.4666 22.9829C19.3905 23.0562 19.2779 23.1654 19.5792 23.6397L19.869 24.0936C20.9767 25.8304 22.1225 27.6287 23.2716 29.3793C23.4603 29.6676 23.6789 29.9321 23.9124 30.2119C24.0812 30.4149 24.2568 30.6265 24.4174 30.8466C24.5283 30.9984 24.7171 31.3021 24.7237 31.6348C24.7419 32.5033 25.0002 33.3052 25.275 34.1531C25.3131 34.2708 25.3512 34.3886 25.3893 34.508C25.4506 34.6991 25.5085 34.8936 25.5648 35.083C25.732 35.6426 25.9042 36.221 26.1526 36.7345C26.4771 37.4102 26.8745 38.0705 27.2603 38.7086C27.4143 38.9628 27.5716 39.2256 27.7239 39.4883C27.7554 39.5429 27.7984 39.5992 27.8431 39.6606C27.9011 39.7374 27.959 39.8159 28.012 39.9097C28.267 40.3653 28.6329 40.5274 29.2025 40.4318C29.5982 40.3653 30.0022 40.3056 30.3913 40.2475L30.6397 40.21C30.6894 40.2032 30.7423 40.1964 30.8003 40.1964L32.4809 39.4559L31.5967 40.4523ZM16.9996 19.2447L16.0707 17.7671L15.9564 17.6016C15.8786 17.489 15.8008 17.3781 15.7213 17.2672C15.1882 16.5148 14.6351 15.7368 14.6037 14.6346L14.5954 14.3736L15.9929 14.1398L16.6353 17.5436L16.6502 17.5658L16.9996 19.2447Z" stroke="#9A3995" stroke-width="0.4" mask="url(#path-1-outside-1)"/>
</svg>
