<svg width="26" height="23" viewBox="0 0 26 23" fill="none" xmlns="http://www.w3.org/2000/svg">
<path d="M20.8852 8.83799C20.8852 7.44538 19.7688 6.31285 18.3961 6.31285H16.6115L13.6022 1.22596C13.3804 0.852895 13.0676 0.544105 12.694 0.329368C12.3204 0.114632 11.8985 0.00119519 11.4691 0H4.70626V2.52514H11.4691L13.7092 6.31285H3.46172C2.089 6.31285 0.972656 7.44538 0.972656 8.83799V20.2011C0.972656 21.5937 2.089 22.7263 3.46172 22.7263H18.3961C19.7688 22.7263 20.8852 21.5937 20.8852 20.2011V16.4134L25.8633 18.9386V10.1006L20.8852 12.6257V8.83799ZM18.3986 20.2011H3.46172V8.83799H18.3961L18.3974 13.8883H18.3961V15.1508L18.3974 15.1521L18.3986 20.2011Z" fill="#9A3995"/>
<path d="M6.38281 15.1509H13.9582V17.3153H6.38281V15.1509Z" fill="#9A3995"/>
</svg>
