<svg width="26" height="23" viewBox="0 0 26 23" fill="none" xmlns="http://www.w3.org/2000/svg">
<path d="M9.7371 7.30507C9.7371 7.95086 9.48056 8.57021 9.02392 9.02685C8.56728 9.48349 7.94793 9.74003 7.30214 9.74003C6.65635 9.74003 6.03701 9.48349 5.58037 9.02685C5.12373 8.57021 4.86719 7.95086 4.86719 7.30507C4.86719 6.65928 5.12373 6.03994 5.58037 5.5833C6.03701 5.12666 6.65635 4.87012 7.30214 4.87012C7.94793 4.87012 8.56728 5.12666 9.02392 5.5833C9.48056 6.03994 9.7371 6.65928 9.7371 7.30507Z" fill="#9A3995"/>
<path d="M3.24661 0C2.38555 0 1.55977 0.342053 0.95091 0.95091C0.342053 1.55977 0 2.38555 0 3.24661V19.4797C0 20.3407 0.342053 21.1665 0.95091 21.7754C1.55977 22.3842 2.38555 22.7263 3.24661 22.7263H22.7263C23.5873 22.7263 24.4131 22.3842 25.022 21.7754C25.6308 21.1665 25.9729 20.3407 25.9729 19.4797V3.24661C25.9729 2.38555 25.6308 1.55977 25.022 0.95091C24.4131 0.342053 23.5873 0 22.7263 0H3.24661ZM22.7263 1.6233C23.1568 1.6233 23.5697 1.79433 23.8741 2.09876C24.1785 2.40319 24.3496 2.81608 24.3496 3.24661V13.7981L18.2183 10.6375C18.0661 10.5613 17.8938 10.5348 17.7257 10.5619C17.5576 10.589 17.4023 10.6683 17.2817 10.7885L11.2592 16.8109L6.94125 13.9344C6.78535 13.8307 6.59835 13.784 6.41195 13.8023C6.22556 13.8207 6.05125 13.9029 5.91857 14.0351L1.6233 17.8563V3.24661C1.6233 2.81608 1.79433 2.40319 2.09876 2.09876C2.40319 1.79433 2.81608 1.6233 3.24661 1.6233H22.7263Z" fill="#9A3995"/>
</svg>
