<svg width="19" height="23" viewBox="0 0 19 23" fill="none" xmlns="http://www.w3.org/2000/svg">
<path d="M10.7335 10.7532H9.96449C9.84851 10.7532 9.7527 10.8465 9.7527 10.965V16.5396C9.7527 16.6556 9.84599 16.7514 9.96449 16.7514H10.7335C10.8495 16.7514 10.9453 16.6581 10.9453 16.5396V10.965C10.9428 10.849 10.8495 10.7532 10.7335 10.7532ZM8.86268 13.5141H6.64141C6.52543 13.5141 6.42962 13.6074 6.42962 13.7259V14.3259C6.42962 14.4419 6.52291 14.5377 6.64141 14.5377H7.84155V14.5554C7.82642 15.3092 7.26165 15.811 6.41701 15.811C5.42866 15.811 4.81346 15.0369 4.81346 13.7586C4.81346 12.4955 5.41605 11.7265 6.38423 11.7265C7.09272 11.7265 7.58185 12.0668 7.78104 12.6921L7.80373 12.7627H9.04421L9.02656 12.6467C8.82738 11.3937 7.7886 10.5894 6.38423 10.5894C4.64957 10.5894 3.53516 11.8349 3.53516 13.7637C3.53516 15.7177 4.63697 16.943 6.39936 16.943C8.02308 16.943 9.07195 15.927 9.07195 14.3486V13.7233C9.07195 13.6074 8.97866 13.5141 8.86268 13.5141Z" fill="#9A3995"/>
<path d="M18.3763 5.66286L12.9504 0.237003C12.7991 0.0857245 12.5949 0 12.3806 0H1.6701C1.22383 0 0.863281 0.360547 0.863281 0.806818V21.7841C0.863281 22.2304 1.22383 22.5909 1.6701 22.5909H17.8065C18.2527 22.5909 18.6133 22.2304 18.6133 21.7841V6.23519C18.6133 6.02088 18.5276 5.81413 18.3763 5.66286ZM12.0075 1.86072L16.7526 6.60582H12.0075V1.86072ZM16.7979 20.7756H2.67862V1.81534H10.293V7.26136C10.293 7.84631 10.767 8.32031 11.3519 8.32031H16.7979V20.7756Z" fill="#9A3995"/>
<path d="M12.1649 16.7365H12.9793C13.0953 16.7365 13.1911 16.6433 13.1911 16.5248V14.3867H15.4048C15.5208 14.3867 15.6166 14.2934 15.6166 14.1749V13.532C15.6166 13.416 15.5233 13.3202 15.4048 13.3202H13.1911V11.8351H15.6317C15.7477 11.8351 15.8435 11.7418 15.8435 11.6233V10.9476C15.8435 10.8317 15.7502 10.7358 15.6317 10.7358H12.1649C12.0489 10.7358 11.9531 10.8291 11.9531 10.9476V16.5222C11.9531 16.6433 12.0489 16.7365 12.1649 16.7365Z" fill="#9A3995"/>
</svg>
