<svg width="129" height="160" viewBox="0 0 129 160" fill="none" xmlns="http://www.w3.org/2000/svg">
<path fill-rule="evenodd" clip-rule="evenodd" d="M2 27.121V88.3356C2 93.3405 3.15499 97.9605 5.84997 102.195C18.5549 124.14 40.8847 141.08 64.3695 157.25C87.4693 141.08 109.799 124.14 122.504 102.195C125.199 97.9605 126.354 93.3405 126.354 88.3356V27.121C53.9746 -6.37368 74.3794 -6.37368 2 27.121ZM48.1996 69.8557L56.6696 78.3256L80.1544 54.4558C81.3094 53.3008 82.8493 53.3008 84.0043 54.4558L88.2393 58.6908C89.0093 59.4608 89.0093 61.3858 88.2393 62.5408L58.5945 92.1855C57.4396 92.9555 55.5146 92.9555 54.3596 92.1855L40.1147 77.5556C39.3447 76.4007 39.3447 74.4757 40.4997 73.7057L44.3497 69.8557C45.5047 68.7007 47.0446 68.7007 48.1996 69.8557Z" fill="#9A3995" stroke="#F7E9F6" stroke-width="4"/>
</svg>
