<svg width="17" height="22" viewBox="0 0 17 22" fill="none" xmlns="http://www.w3.org/2000/svg">
<path d="M8.69953 0C7.86902 0 7.11955 0.332521 6.57263 0.886724C5.76238 0.288185 3.97984 -0.753715 3.14933 0.864556C3.14933 0.864556 2.58216 1.95079 2.54165 3.92375C2.50113 5.89671 1.99473 6.96078 1.99473 6.96078C1.99473 6.96078 1.67063 7.75883 0.961663 7.62582L0.941406 8.00268C0.941406 8.00268 2.52139 8.42387 3.41266 7.55932C4.30393 6.69476 4.60778 5.67503 4.60778 5.67503C4.60778 5.67503 5.03316 4.52229 5.29649 2.92619C5.49905 1.70694 5.88392 1.50743 6.06622 1.48526C5.74212 2.0173 5.55982 2.638 5.55982 3.30305C5.55982 5.143 6.9575 6.62826 8.69953 6.62826C10.4416 6.62826 11.8392 5.16517 11.8392 3.32521C11.8392 1.48526 10.4213 0 8.69953 0Z" fill="#F3D538"/>
<path d="M13.1349 12.6317C13.4868 12.4148 13.818 12.0461 13.9008 11.7859C14.2941 10.5931 11.3132 8.22931 8.80844 8.14256C7.66991 7.99076 6.48997 8.29437 5.59985 9.24857L5.57915 9.27026C5.57915 9.27026 4.1508 10.8317 4.21291 13.2389C4.27501 15.6461 4.95813 17.0774 5.14443 22.0002H12.224C14.439 21.7833 16.1986 19.7231 16.1986 17.2075C16.1986 15.0605 14.9151 13.2389 13.1349 12.6317ZM11.7686 20.6773C9.94697 20.6773 8.47723 19.1159 8.47723 17.2075C8.47723 15.2991 9.94697 13.7377 11.7686 13.7377C13.5903 13.7377 15.06 15.2991 15.06 17.2075C15.06 19.1159 13.5903 20.6773 11.7686 20.6773Z" fill="#F3D538"/>
<path d="M12.3837 18.5262C12.4669 18.4597 13.5698 17.6281 13.7779 17.3287C13.7779 17.3287 14.3189 16.7965 13.7779 16.3973C13.7779 16.3973 12.9872 15.8651 12.3837 16.5969C11.801 15.8651 10.9895 16.3973 10.9895 16.3973C10.4484 16.7965 10.9895 17.3287 10.9895 17.3287C11.1976 17.6281 12.3837 18.5262 12.3837 18.5262Z" fill="#F3D538"/>
</svg>
