<svg width="43" height="17" viewBox="0 0 43 17" fill="none" xmlns="http://www.w3.org/2000/svg">
<path d="M5.99068 0.366521L5.68525 0L5.37981 0.366521C5.31873 0.427608 4.03591 1.89369 2.75309 3.90955C0.981574 6.65844 0.0652749 8.91865 0.00418824 10.6902C-0.0568984 12.1562 0.553968 13.5612 1.59244 14.6608C2.63091 15.7604 4.09699 16.3712 5.62416 16.3712C7.09024 16.3712 8.55632 15.7604 9.59479 14.7219C10.6333 13.6223 11.2441 12.2173 11.2441 10.6902C11.2441 9.04082 10.3889 6.78062 8.55632 3.97063C7.33458 1.95477 6.05177 0.427608 5.99068 0.366521ZM9.41153 8.61322C9.5337 8.49104 9.71696 8.55213 9.83914 8.6743C9.90022 8.73539 10.9387 10.0182 10.2667 12.1562C10.2057 12.2784 10.0835 12.3395 9.96131 12.3395H9.90022C9.77805 12.2784 9.65588 12.1562 9.71696 11.973C10.3278 10.1404 9.47262 9.10191 9.41153 9.04082C9.22827 8.85756 9.28936 8.6743 9.41153 8.61322Z" fill="#9A3995"/>
<path d="M21.8122 0.366521L21.5068 0L21.2013 0.366521C21.1403 0.427608 19.8574 1.89369 18.5746 3.90955C16.8031 6.65844 15.8868 8.91865 15.8257 10.6902C15.7646 12.1562 16.3755 13.5612 17.414 14.6608C18.4524 15.7604 19.9185 16.3712 21.4457 16.3712C22.9118 16.3712 24.3779 15.7604 25.4163 14.7219C26.4548 13.6223 27.0657 12.2173 27.0657 10.6902C27.0657 9.04082 26.2105 6.78062 24.3779 3.97063C23.1561 1.95477 21.8733 0.427608 21.8122 0.366521ZM25.2331 8.61322C25.3552 8.49104 25.5385 8.55213 25.6607 8.6743C25.7218 8.73539 26.7602 10.0182 26.0883 12.1562C26.0272 12.2784 25.905 12.3395 25.7828 12.3395H25.7218C25.5996 12.2784 25.4774 12.1562 25.5385 11.973C26.1494 10.1404 25.2941 9.10191 25.2331 9.04082C25.0498 8.85756 25.1109 8.6743 25.2331 8.61322Z" fill="#9A3995"/>
<path d="M37.2667 16.3712C35.7395 16.3712 34.2735 15.7604 33.235 14.6608C32.1965 13.5612 31.6467 12.1562 31.6467 10.6902C31.7078 8.91865 32.6241 6.65845 34.3956 3.84846C35.7395 1.77151 37.0224 0.244347 37.0834 0.244347L37.3278 0L37.5721 0.244347C37.5721 0.244347 38.916 1.89369 40.2599 3.90955C42.0925 6.71953 42.9478 8.97974 42.9478 10.6902C42.8867 13.8056 40.3821 16.3712 37.2667 16.3712ZM37.2667 0.9163C36.2893 2.13803 32.3187 7.26931 32.1965 10.7513C32.1965 12.0952 32.6852 13.3169 33.6015 14.2943C34.5789 15.2717 35.8617 15.8214 37.2056 15.8214C40.0156 15.8214 42.2758 13.5612 42.2758 10.7513C42.3369 7.39149 38.2441 2.13803 37.2667 0.9163Z" fill="#9A3995"/>
</svg>
