<svg width="35" height="13" viewBox="0 0 35 13" fill="none" xmlns="http://www.w3.org/2000/svg">
<path d="M4.75706 0.291046L4.51452 0L4.27198 0.291046C4.22347 0.339553 3.20482 1.50373 2.18616 3.10448C0.779445 5.28731 0.0518332 7.08209 0.00332578 8.4888C-0.0451817 9.65298 0.439893 10.7687 1.26452 11.6418C2.08915 12.5149 3.25332 13 4.46601 13C5.63019 13 6.79437 12.5149 7.619 11.6903C8.44362 10.8172 8.9287 9.70149 8.9287 8.4888C8.9287 7.1791 8.24959 5.38433 6.79437 3.15298C5.82422 1.55224 4.80556 0.339553 4.75706 0.291046ZM7.47347 6.83955C7.57049 6.74254 7.71601 6.79104 7.81303 6.88806C7.86153 6.93657 8.68616 7.95522 8.15258 9.65298C8.10407 9.75 8.00706 9.79851 7.91004 9.79851H7.86153C7.76452 9.75 7.6675 9.65299 7.71601 9.50746C8.20109 8.05224 7.52198 7.22761 7.47347 7.17911C7.32795 7.03358 7.37646 6.88806 7.47347 6.83955Z" fill="#FF9B90"/>
<path d="M17.3205 0.291046L17.078 0L16.8355 0.291046C16.787 0.339553 15.7683 1.50373 14.7496 3.10448C13.3429 5.28731 12.6153 7.08209 12.5668 8.4888C12.5183 9.65298 13.0034 10.7687 13.828 11.6418C14.6526 12.5149 15.8168 13 17.0295 13C18.1937 13 19.3578 12.5149 20.1825 11.6903C21.0071 10.8172 21.4922 9.70149 21.4922 8.4888C21.4922 7.1791 20.8131 5.38433 19.3578 3.15298C18.3877 1.55224 17.369 0.339553 17.3205 0.291046ZM20.037 6.83955C20.134 6.74254 20.2795 6.79104 20.3765 6.88806C20.425 6.93657 21.2496 7.95522 20.7161 9.65298C20.6675 9.75 20.5705 9.79851 20.4735 9.79851H20.425C20.328 9.75 20.231 9.65298 20.2795 9.50746C20.7646 8.05224 20.0855 7.22761 20.037 7.17911C19.8914 7.03358 19.9399 6.88806 20.037 6.83955Z" fill="#FF9B90"/>
<path d="M29.5926 13C28.3799 13 27.2157 12.5149 26.3911 11.6418C25.5664 10.7687 25.1299 9.65298 25.1299 8.4888C25.1784 7.08209 25.906 5.28731 27.3127 3.05597C28.3799 1.40672 29.3985 0.194031 29.447 0.194031L29.6411 0L29.8351 0.194031C29.8351 0.194031 30.9023 1.50373 31.9694 3.10448C33.4247 5.33582 34.1038 7.1306 34.1038 8.4888C34.0553 10.9627 32.0665 13 29.5926 13ZM29.5926 0.727612C28.8165 1.69776 25.6635 5.77239 25.5665 8.53731C25.5665 9.60448 25.9545 10.5746 26.6821 11.3507C27.4582 12.1269 28.4769 12.5634 29.5441 12.5634C31.7754 12.5634 33.5702 10.7687 33.5702 8.53731C33.6187 5.8694 30.3687 1.69776 29.5926 0.727612Z" fill="#FF9B90"/>
</svg>
