<svg width="45" height="45" viewBox="0 0 45 45" fill="none" xmlns="http://www.w3.org/2000/svg">
<path d="M10.0117 3C10.0117 1.34315 11.3549 0 13.0117 0H15.204V20.7692H10.0117V3Z" fill="#D6D9E0"/>
<path d="M29.0508 0H31.2431C32.8999 0 34.2431 1.34315 34.2431 3V20.7692H29.0508V0Z" fill="#D6D9E0"/>
<rect x="19.5312" width="5.19231" height="20.7692" fill="#D6D9E0"/>
<path fill-rule="evenodd" clip-rule="evenodd" d="M22.128 45.0001C31.6868 45.0001 39.4357 37.2512 39.4357 27.6925C39.4357 18.1337 31.6868 10.3848 22.128 10.3848C12.5692 10.3848 4.82031 18.1337 4.82031 27.6925C4.82031 37.2512 12.5692 45.0001 22.128 45.0001Z" fill="#E1E1E2"/>
<path fill-rule="evenodd" clip-rule="evenodd" d="M22.1271 39.8079C28.8182 39.8079 34.2425 34.3837 34.2425 27.6925C34.2425 21.0014 28.8182 15.5771 22.1271 15.5771C15.436 15.5771 10.0117 21.0014 10.0117 27.6925C10.0117 34.3837 15.436 39.8079 22.1271 39.8079Z" fill="#ABB5BC"/>
<path d="M17.0631 33.2557C16.9452 33.2557 16.8421 33.2115 16.7537 33.1231C16.6653 33.0347 16.6211 32.9316 16.6211 32.8137V31.4878C16.6211 31.1343 16.7684 30.8396 17.0631 30.6039L18.7072 28.9952L19.7355 28.2094C20.3601 27.7275 20.863 27.3295 21.244 27.0152C21.8157 26.5437 22.2517 26.1165 22.5523 25.7335C22.8528 25.3504 23.0031 24.988 23.0031 24.6462C23.0031 23.7741 22.567 23.338 21.6948 23.338C21.2352 23.338 20.8816 23.4765 20.6341 23.7535C20.3866 24.0304 20.2216 24.3752 20.1391 24.7877C20.0684 25.0587 19.8681 25.1943 19.5381 25.1943H17.2045C17.0984 25.1943 17.0071 25.156 16.9305 25.0794C16.8539 25.0028 16.8156 24.9173 16.8156 24.823C16.8391 24.0452 17.0542 23.341 17.4608 22.7104C17.8674 22.0799 18.4361 21.579 19.1668 21.2078C19.8975 20.8365 20.7402 20.6509 21.6948 20.6509C22.6848 20.6509 23.5393 20.81 24.2582 21.1282C24.9772 21.4464 25.5223 21.8943 25.8935 22.4718C26.2648 23.0493 26.4504 23.7211 26.4504 24.4871C26.4504 25.3357 26.1882 26.1018 25.6637 26.7853C25.1392 27.4689 24.3407 28.2114 23.2682 29.0128L21.8009 30.4802H26.2736C26.4032 30.4802 26.5093 30.5214 26.5918 30.6039C26.6743 30.6864 26.7156 30.7925 26.7156 30.9221V32.8137C26.7156 32.9316 26.6743 33.0347 26.5918 33.1231C26.5093 33.2115 26.4032 33.2557 26.2736 33.2557H17.0631Z" fill="white"/>
</svg>
