<svg width="20" height="20" viewBox="0 0 20 20" fill="none" xmlns="http://www.w3.org/2000/svg">
<path d="M10 0C11.9778 0 13.9112 0.58649 15.5557 1.6853C17.2002 2.78412 18.4819 4.3459 19.2388 6.17316C19.9957 8.00043 20.1937 10.0111 19.8078 11.9509C19.422 13.8907 18.4696 15.6725 17.0711 17.0711C15.6725 18.4696 13.8907 19.422 11.9509 19.8078C10.0111 20.1937 8.00043 19.9957 6.17316 19.2388C4.3459 18.4819 2.78412 17.2002 1.6853 15.5557C0.586489 13.9112 0 11.9778 0 10C0 7.34783 1.05357 4.80429 2.92893 2.92893C4.8043 1.05357 7.34783 0 10 0ZM4.28571 10.7143H12.9643L8.97857 14.695L10 15.7143L15.7143 10L10 4.28571L8.97857 5.28071L12.9643 9.28571H4.28571V10.7143Z" fill="#F3D538"/>
</svg>
