<svg width="45" height="41" viewBox="0 0 45 41" fill="none" xmlns="http://www.w3.org/2000/svg">
<mask id="path-1-outside-1" maskUnits="userSpaceOnUse" x="0" y="0" width="45" height="41" fill="black">
<rect fill="white" width="45" height="41"/>
<path d="M14.3879 38.8189C14.2105 38.7801 14.1125 38.749 14.0129 38.7397C13.2133 38.6636 12.4836 38.3842 11.7757 38.0163C10.1203 37.1532 8.46331 36.2901 7.00861 35.1056C6.54808 34.7315 6.14668 34.2844 5.73127 33.8575C5.15095 33.2614 5.09494 32.5395 5.26608 31.7742C5.30809 31.5895 5.36098 31.4078 5.41077 31.2169C4.85845 31.1734 4.33102 31.1393 3.80671 31.0896C3.25284 31.0368 2.75809 30.8567 2.33179 30.4718C1.90705 30.0883 1.44497 29.7468 1 29.3882C1.30805 28.9846 1.54454 28.8976 1.96306 29.0265C2.30534 29.1321 2.6414 29.25 2.98835 29.3649C3.25284 28.5794 3.49555 27.8529 3.76937 27.0426C4.177 27.3856 4.5504 27.6402 4.84601 27.9631C5.18051 28.3295 5.53368 28.5468 6.04555 28.5965C6.40961 28.6322 6.7939 28.7828 7.10351 28.9815C7.53914 29.2609 7.9561 29.3199 8.3964 29.0839C9.13698 28.6865 9.87755 28.2829 10.5948 27.8436C11.3945 27.3546 12.1631 26.8159 12.9565 26.316C13.3408 26.0739 13.5322 25.7448 13.5742 25.2992C13.6831 24.1334 13.7905 22.9676 13.9305 21.8048C13.9958 21.2677 14.167 20.7446 14.2339 20.2075C14.3117 19.5772 14.363 18.9392 14.3583 18.3058C14.3537 17.4629 14.475 16.6556 14.7815 15.8701C15.2327 14.7105 16.076 14.1206 17.3175 14.0616C17.7625 14.0399 18.209 13.9793 18.6478 13.9017C18.864 13.8629 19.0741 13.7635 19.2701 13.6595C19.7213 13.4189 20.006 13.0541 20.0309 12.5216C20.0387 12.3618 20.0449 12.2019 20.0667 12.0435C20.1009 11.7719 20.034 11.5607 19.8115 11.3713C19.4086 11.0283 19.1923 10.5672 19.0803 10.0534C19.0569 9.94471 19.0196 9.80499 18.9387 9.74911C18.64 9.53954 18.5466 9.23682 18.4657 8.90927C18.4097 8.68418 18.3164 8.4684 18.2308 8.25107C18.0363 7.76518 18.0908 7.54939 18.4673 7.18459C18.5326 7.12094 18.5388 6.97967 18.5435 6.87256C18.5731 6.08861 18.5529 5.3 18.6384 4.52227C18.6742 4.20248 18.9294 3.90287 19.0974 3.60171C19.2094 3.3999 19.3681 3.22138 19.4661 3.01336C19.7166 2.47468 20.9084 1.34611 21.4591 1.15517C22.4844 0.798119 23.4724 1.06358 24.2021 1.88633C24.2643 1.95619 24.3468 2.01052 24.4277 2.0602C24.8197 2.30858 25.0889 2.65321 25.2709 3.07701C25.3363 3.23069 25.4172 3.39369 25.537 3.50546C25.9742 3.91218 26.1406 4.43533 26.1671 4.99729C26.1966 5.63377 26.1624 6.27179 26.1671 6.90982C26.1686 7.01072 26.2029 7.15664 26.2744 7.20166C26.5918 7.40502 26.6416 7.69221 26.5514 8.01045C26.4269 8.44822 26.2729 8.87823 26.1266 9.31134C26.1033 9.3812 26.0706 9.46502 26.0162 9.50228C25.6661 9.7398 25.6459 10.1419 25.4887 10.4803C25.3332 10.8202 25.0609 11.1043 24.8586 11.4257C24.7637 11.5763 24.6548 11.7532 24.6517 11.9193C24.6206 13.155 24.9426 13.7216 26.5047 13.9902C26.8703 14.0538 27.2484 14.0523 27.6202 14.0833C28.7031 14.1749 29.4343 14.74 29.8699 15.7242C30.2994 16.6944 30.3631 17.7128 30.3491 18.756C30.3414 19.3009 30.4549 19.8504 30.5265 20.3953C30.6665 21.4602 30.8237 22.522 30.9606 23.587C31.0353 24.1676 31.0882 24.7513 31.1442 25.3334C31.1831 25.7401 31.3511 26.0537 31.7074 26.2788C32.6533 26.8749 33.5884 27.4912 34.5343 28.0873C34.9855 28.3714 35.446 28.6384 35.9128 28.8961C36.1259 29.0125 36.3609 29.0932 36.5896 29.1771C36.8774 29.2826 37.1543 29.2625 37.4095 29.0762C37.8793 28.7346 38.399 28.5468 38.9855 28.539C39.3527 28.5344 39.5565 28.2519 39.7977 28.0237C40.1415 27.6992 40.5103 27.3981 40.9381 27.027C41.2104 27.842 41.4515 28.5608 41.716 29.3509C41.9852 29.2656 42.2652 29.1879 42.5375 29.0886C43.0914 28.8852 43.3123 28.924 43.7728 29.4239C43.6826 29.4674 43.5752 29.5 43.4943 29.5652C43.026 29.9362 42.592 30.3569 42.0925 30.6751C41.7643 30.8847 41.3535 31.0011 40.963 31.0694C40.4325 31.1626 39.8864 31.1688 39.3076 31.2153C39.3465 31.3752 39.387 31.5444 39.4305 31.7137C39.639 32.5411 39.513 33.2738 38.9264 33.9413C38.1267 34.8494 37.1886 35.5822 36.1617 36.1938C34.9637 36.9079 33.7393 37.5847 32.4946 38.2134C31.9921 38.468 31.404 38.555 30.8517 38.7102C30.7117 38.749 30.5623 38.7599 30.4176 38.7847C30.3958 38.8173 30.374 38.8499 30.3523 38.8825C30.4721 38.9772 30.6043 39.0579 30.707 39.1666C31.1006 39.5842 31.0041 40.0018 30.4689 40.2129C30.3616 40.2548 30.2449 40.2874 30.1298 40.3029C28.644 40.5187 27.1986 40.4458 25.817 39.772C25.2336 39.4879 24.6159 39.2753 24.0169 39.0207C22.9076 38.5488 21.803 38.5503 20.6937 39.0222C19.9687 39.3312 19.2359 39.6261 18.5108 39.935C17.1962 40.4939 15.8348 40.497 14.4548 40.2781C14.3412 40.2595 14.2292 40.2098 14.1265 40.1555C13.7329 39.949 13.6535 39.6106 13.9305 39.2597C14.041 39.1169 14.1965 39.0005 14.3879 38.8189ZM39.5099 29.0948C39.1396 29.1383 38.8113 29.1336 38.5126 29.2267C38.203 29.323 37.9198 29.5062 37.6335 29.6661C37.3115 29.8477 36.9723 29.9191 36.6176 29.8182C36.3017 29.7282 35.9672 29.649 35.6903 29.4813C34.2247 28.5903 32.7778 27.6697 31.3184 26.7678C30.833 26.4682 30.6074 26.0226 30.5343 25.4809C30.4985 25.217 30.4658 24.9531 30.4347 24.6892C30.2854 23.4007 30.2107 22.0967 29.9633 20.8268C29.7968 19.9699 29.7361 19.1286 29.7128 18.267C29.6957 17.6476 29.6179 17.0111 29.4452 16.4166C29.0734 15.1374 28.4681 14.7369 27.1395 14.6686C26.6229 14.6422 26.094 14.5615 25.6023 14.4062C24.7808 14.147 24.1741 13.6316 24.076 12.7079C24.0325 12.2966 24.0356 11.879 24.0278 11.4645C24.0263 11.3884 24.0589 11.2782 24.1134 11.2409C24.7544 10.8171 25.0049 10.1822 25.1262 9.46502C25.1402 9.3843 25.2149 9.26322 25.2771 9.25235C25.537 9.20578 25.5728 9.01328 25.6288 8.81458C25.6957 8.58017 25.7781 8.35197 25.8528 8.11912C25.8777 8.03995 25.8948 7.95767 25.9306 7.82261C25.7097 7.9111 25.5572 7.97164 25.3596 8.05081C25.3876 7.87229 25.4187 7.74034 25.4265 7.60528C25.4716 6.74682 25.5339 5.88836 25.5432 5.02989C25.5479 4.59833 25.3783 4.20713 25.0438 3.892C24.896 3.75229 24.7917 3.55048 24.7093 3.35798C24.5521 2.99007 24.3281 2.69978 23.9625 2.5197C23.8629 2.47003 23.7478 2.39086 23.7089 2.29616C23.3355 1.41752 21.3876 1.4082 21.0017 2.2884C20.9675 2.36757 20.8835 2.43898 20.8057 2.484C19.9858 2.94816 19.7804 3.87337 19.2468 4.55176C19.2343 4.56728 19.2374 4.59367 19.2328 4.61386C19.0352 5.45835 19.099 6.30594 19.2079 7.15354C19.2452 7.44073 19.2919 7.72792 19.3417 8.05702C19.1347 7.96854 18.9854 7.90489 18.7738 7.81485C18.9216 8.28988 19.0476 8.69815 19.1814 9.10487C19.1954 9.14679 19.2545 9.19957 19.2965 9.20423C19.5548 9.22596 19.5813 9.42001 19.6186 9.6094C19.7119 10.0953 19.8037 10.6138 20.2316 10.9056C20.6906 11.2192 20.7279 11.6228 20.6766 12.0916C20.6672 12.1755 20.6703 12.2624 20.6657 12.3462C20.6081 13.4407 20.1102 14.1284 19.0538 14.4186C18.4844 14.5754 17.8823 14.6344 17.2895 14.6779C16.3762 14.7446 15.7493 15.1653 15.3961 16.0114C15.0662 16.8031 14.962 17.6228 14.9744 18.4766C14.9838 19.0897 14.9309 19.7076 14.8515 20.3161C14.7753 20.9045 14.5948 21.4804 14.5233 22.0703C14.3879 23.1678 14.2946 24.2716 14.1888 25.3738C14.1281 25.9947 13.8667 26.4806 13.3237 26.8206C12.4384 27.3748 11.5765 27.9662 10.685 28.5096C10.0036 28.9256 9.30657 29.3199 8.58933 29.6692C8.04946 29.9315 7.46135 29.9828 6.94949 29.5838C6.43451 29.1833 5.83551 29.1693 5.20385 29.0995C5.29875 29.4332 5.40455 29.7778 5.06071 29.9812C4.62974 30.2358 4.20033 30.1069 3.78648 29.8461C3.73359 29.9641 3.69002 30.0635 3.64646 30.1613C3.35397 30.0774 3.08325 29.9998 2.81098 29.9222C2.79231 29.9641 2.77364 30.0045 2.75653 30.0464C2.98057 30.1628 3.19372 30.3227 3.43331 30.3864C4.17233 30.582 4.92846 30.5944 5.68926 30.5354C5.95375 30.5152 6.22136 30.5323 6.46407 30.5323C6.24625 31.0291 6.02688 31.442 5.88374 31.8798C5.68926 32.4743 5.77172 33.0487 6.2447 33.502C6.7659 34.0019 7.25443 34.5623 7.85031 34.9535C9.12298 35.7871 10.4563 36.5276 11.7648 37.3069C12.6127 37.8114 13.5275 38.097 14.5108 38.1964C14.8718 38.2336 15.2234 38.3563 15.5797 38.4385C15.5937 38.4789 15.6092 38.5208 15.6232 38.5612C15.2452 38.9089 14.8671 39.2566 14.461 39.6292C14.5917 39.668 14.6617 39.6991 14.7333 39.7084C15.9219 39.8667 17.0935 39.8574 18.2261 39.3855C19.0912 39.0253 19.9593 38.6698 20.8337 38.3283C21.8403 37.9356 22.8563 37.9402 23.8645 38.3252C24.5817 38.5984 25.316 38.8406 26.0006 39.1806C27.155 39.755 28.3655 39.8605 29.6163 39.7643C29.8171 39.7487 30.0146 39.6913 30.2698 39.6432C29.8762 39.1852 29.3067 39.0222 29.1263 38.4292C29.5152 38.3438 29.8948 38.2398 30.2822 38.1808C30.9808 38.0753 31.6747 37.9728 32.3079 37.6313C33.2368 37.1299 34.1827 36.658 35.0929 36.1255C36.2986 35.4192 37.4577 34.6476 38.4052 33.5905C38.8922 33.0471 39.04 32.4634 38.8051 31.7959C38.6588 31.3814 38.4441 30.9918 38.2356 30.5385C38.5437 30.5385 38.858 30.5525 39.1722 30.5354C39.8724 30.4966 40.5741 30.4687 41.2695 30.3833C41.5075 30.3538 41.7269 30.1675 41.9541 30.0526C41.9354 30.0091 41.9183 29.9672 41.8996 29.9238C41.6227 30.0029 41.3442 30.0821 41.061 30.1613C41.0112 30.0542 40.9661 29.9548 40.9132 29.8415C40.5025 30.124 40.0793 30.2249 39.6592 29.9874C39.3076 29.7887 39.4009 29.4441 39.5099 29.0948ZM4.33725 29.0498C4.21589 29.4115 4.28124 29.4938 4.63597 29.427C4.53329 29.2966 4.4446 29.1864 4.33725 29.0498ZM40.0497 29.4565C40.448 29.4674 40.5087 29.3742 40.3469 29.0653C40.2535 29.1864 40.1695 29.2966 40.0497 29.4565Z"/>
</mask>
<path d="M14.3879 38.8189C14.2105 38.7801 14.1125 38.749 14.0129 38.7397C13.2133 38.6636 12.4836 38.3842 11.7757 38.0163C10.1203 37.1532 8.46331 36.2901 7.00861 35.1056C6.54808 34.7315 6.14668 34.2844 5.73127 33.8575C5.15095 33.2614 5.09494 32.5395 5.26608 31.7742C5.30809 31.5895 5.36098 31.4078 5.41077 31.2169C4.85845 31.1734 4.33102 31.1393 3.80671 31.0896C3.25284 31.0368 2.75809 30.8567 2.33179 30.4718C1.90705 30.0883 1.44497 29.7468 1 29.3882C1.30805 28.9846 1.54454 28.8976 1.96306 29.0265C2.30534 29.1321 2.6414 29.25 2.98835 29.3649C3.25284 28.5794 3.49555 27.8529 3.76937 27.0426C4.177 27.3856 4.5504 27.6402 4.84601 27.9631C5.18051 28.3295 5.53368 28.5468 6.04555 28.5965C6.40961 28.6322 6.7939 28.7828 7.10351 28.9815C7.53914 29.2609 7.9561 29.3199 8.3964 29.0839C9.13698 28.6865 9.87755 28.2829 10.5948 27.8436C11.3945 27.3546 12.1631 26.8159 12.9565 26.316C13.3408 26.0739 13.5322 25.7448 13.5742 25.2992C13.6831 24.1334 13.7905 22.9676 13.9305 21.8048C13.9958 21.2677 14.167 20.7446 14.2339 20.2075C14.3117 19.5772 14.363 18.9392 14.3583 18.3058C14.3537 17.4629 14.475 16.6556 14.7815 15.8701C15.2327 14.7105 16.076 14.1206 17.3175 14.0616C17.7625 14.0399 18.209 13.9793 18.6478 13.9017C18.864 13.8629 19.0741 13.7635 19.2701 13.6595C19.7213 13.4189 20.006 13.0541 20.0309 12.5216C20.0387 12.3618 20.0449 12.2019 20.0667 12.0435C20.1009 11.7719 20.034 11.5607 19.8115 11.3713C19.4086 11.0283 19.1923 10.5672 19.0803 10.0534C19.0569 9.94471 19.0196 9.80499 18.9387 9.74911C18.64 9.53954 18.5466 9.23682 18.4657 8.90927C18.4097 8.68418 18.3164 8.4684 18.2308 8.25107C18.0363 7.76518 18.0908 7.54939 18.4673 7.18459C18.5326 7.12094 18.5388 6.97967 18.5435 6.87256C18.5731 6.08861 18.5529 5.3 18.6384 4.52227C18.6742 4.20248 18.9294 3.90287 19.0974 3.60171C19.2094 3.3999 19.3681 3.22138 19.4661 3.01336C19.7166 2.47468 20.9084 1.34611 21.4591 1.15517C22.4844 0.798119 23.4724 1.06358 24.2021 1.88633C24.2643 1.95619 24.3468 2.01052 24.4277 2.0602C24.8197 2.30858 25.0889 2.65321 25.2709 3.07701C25.3363 3.23069 25.4172 3.39369 25.537 3.50546C25.9742 3.91218 26.1406 4.43533 26.1671 4.99729C26.1966 5.63377 26.1624 6.27179 26.1671 6.90982C26.1686 7.01072 26.2029 7.15664 26.2744 7.20166C26.5918 7.40502 26.6416 7.69221 26.5514 8.01045C26.4269 8.44822 26.2729 8.87823 26.1266 9.31134C26.1033 9.3812 26.0706 9.46502 26.0162 9.50228C25.6661 9.7398 25.6459 10.1419 25.4887 10.4803C25.3332 10.8202 25.0609 11.1043 24.8586 11.4257C24.7637 11.5763 24.6548 11.7532 24.6517 11.9193C24.6206 13.155 24.9426 13.7216 26.5047 13.9902C26.8703 14.0538 27.2484 14.0523 27.6202 14.0833C28.7031 14.1749 29.4343 14.74 29.8699 15.7242C30.2994 16.6944 30.3631 17.7128 30.3491 18.756C30.3414 19.3009 30.4549 19.8504 30.5265 20.3953C30.6665 21.4602 30.8237 22.522 30.9606 23.587C31.0353 24.1676 31.0882 24.7513 31.1442 25.3334C31.1831 25.7401 31.3511 26.0537 31.7074 26.2788C32.6533 26.8749 33.5884 27.4912 34.5343 28.0873C34.9855 28.3714 35.446 28.6384 35.9128 28.8961C36.1259 29.0125 36.3609 29.0932 36.5896 29.1771C36.8774 29.2826 37.1543 29.2625 37.4095 29.0762C37.8793 28.7346 38.399 28.5468 38.9855 28.539C39.3527 28.5344 39.5565 28.2519 39.7977 28.0237C40.1415 27.6992 40.5103 27.3981 40.9381 27.027C41.2104 27.842 41.4515 28.5608 41.716 29.3509C41.9852 29.2656 42.2652 29.1879 42.5375 29.0886C43.0914 28.8852 43.3123 28.924 43.7728 29.4239C43.6826 29.4674 43.5752 29.5 43.4943 29.5652C43.026 29.9362 42.592 30.3569 42.0925 30.6751C41.7643 30.8847 41.3535 31.0011 40.963 31.0694C40.4325 31.1626 39.8864 31.1688 39.3076 31.2153C39.3465 31.3752 39.387 31.5444 39.4305 31.7137C39.639 32.5411 39.513 33.2738 38.9264 33.9413C38.1267 34.8494 37.1886 35.5822 36.1617 36.1938C34.9637 36.9079 33.7393 37.5847 32.4946 38.2134C31.9921 38.468 31.404 38.555 30.8517 38.7102C30.7117 38.749 30.5623 38.7599 30.4176 38.7847C30.3958 38.8173 30.374 38.8499 30.3523 38.8825C30.4721 38.9772 30.6043 39.0579 30.707 39.1666C31.1006 39.5842 31.0041 40.0018 30.4689 40.2129C30.3616 40.2548 30.2449 40.2874 30.1298 40.3029C28.644 40.5187 27.1986 40.4458 25.817 39.772C25.2336 39.4879 24.6159 39.2753 24.0169 39.0207C22.9076 38.5488 21.803 38.5503 20.6937 39.0222C19.9687 39.3312 19.2359 39.6261 18.5108 39.935C17.1962 40.4939 15.8348 40.497 14.4548 40.2781C14.3412 40.2595 14.2292 40.2098 14.1265 40.1555C13.7329 39.949 13.6535 39.6106 13.9305 39.2597C14.041 39.1169 14.1965 39.0005 14.3879 38.8189ZM39.5099 29.0948C39.1396 29.1383 38.8113 29.1336 38.5126 29.2267C38.203 29.323 37.9198 29.5062 37.6335 29.6661C37.3115 29.8477 36.9723 29.9191 36.6176 29.8182C36.3017 29.7282 35.9672 29.649 35.6903 29.4813C34.2247 28.5903 32.7778 27.6697 31.3184 26.7678C30.833 26.4682 30.6074 26.0226 30.5343 25.4809C30.4985 25.217 30.4658 24.9531 30.4347 24.6892C30.2854 23.4007 30.2107 22.0967 29.9633 20.8268C29.7968 19.9699 29.7361 19.1286 29.7128 18.267C29.6957 17.6476 29.6179 17.0111 29.4452 16.4166C29.0734 15.1374 28.4681 14.7369 27.1395 14.6686C26.6229 14.6422 26.094 14.5615 25.6023 14.4062C24.7808 14.147 24.1741 13.6316 24.076 12.7079C24.0325 12.2966 24.0356 11.879 24.0278 11.4645C24.0263 11.3884 24.0589 11.2782 24.1134 11.2409C24.7544 10.8171 25.0049 10.1822 25.1262 9.46502C25.1402 9.3843 25.2149 9.26322 25.2771 9.25235C25.537 9.20578 25.5728 9.01328 25.6288 8.81458C25.6957 8.58017 25.7781 8.35197 25.8528 8.11912C25.8777 8.03995 25.8948 7.95767 25.9306 7.82261C25.7097 7.9111 25.5572 7.97164 25.3596 8.05081C25.3876 7.87229 25.4187 7.74034 25.4265 7.60528C25.4716 6.74682 25.5339 5.88836 25.5432 5.02989C25.5479 4.59833 25.3783 4.20713 25.0438 3.892C24.896 3.75229 24.7917 3.55048 24.7093 3.35798C24.5521 2.99007 24.3281 2.69978 23.9625 2.5197C23.8629 2.47003 23.7478 2.39086 23.7089 2.29616C23.3355 1.41752 21.3876 1.4082 21.0017 2.2884C20.9675 2.36757 20.8835 2.43898 20.8057 2.484C19.9858 2.94816 19.7804 3.87337 19.2468 4.55176C19.2343 4.56728 19.2374 4.59367 19.2328 4.61386C19.0352 5.45835 19.099 6.30594 19.2079 7.15354C19.2452 7.44073 19.2919 7.72792 19.3417 8.05702C19.1347 7.96854 18.9854 7.90489 18.7738 7.81485C18.9216 8.28988 19.0476 8.69815 19.1814 9.10487C19.1954 9.14679 19.2545 9.19957 19.2965 9.20423C19.5548 9.22596 19.5813 9.42001 19.6186 9.6094C19.7119 10.0953 19.8037 10.6138 20.2316 10.9056C20.6906 11.2192 20.7279 11.6228 20.6766 12.0916C20.6672 12.1755 20.6703 12.2624 20.6657 12.3462C20.6081 13.4407 20.1102 14.1284 19.0538 14.4186C18.4844 14.5754 17.8823 14.6344 17.2895 14.6779C16.3762 14.7446 15.7493 15.1653 15.3961 16.0114C15.0662 16.8031 14.962 17.6228 14.9744 18.4766C14.9838 19.0897 14.9309 19.7076 14.8515 20.3161C14.7753 20.9045 14.5948 21.4804 14.5233 22.0703C14.3879 23.1678 14.2946 24.2716 14.1888 25.3738C14.1281 25.9947 13.8667 26.4806 13.3237 26.8206C12.4384 27.3748 11.5765 27.9662 10.685 28.5096C10.0036 28.9256 9.30657 29.3199 8.58933 29.6692C8.04946 29.9315 7.46135 29.9828 6.94949 29.5838C6.43451 29.1833 5.83551 29.1693 5.20385 29.0995C5.29875 29.4332 5.40455 29.7778 5.06071 29.9812C4.62974 30.2358 4.20033 30.1069 3.78648 29.8461C3.73359 29.9641 3.69002 30.0635 3.64646 30.1613C3.35397 30.0774 3.08325 29.9998 2.81098 29.9222C2.79231 29.9641 2.77364 30.0045 2.75653 30.0464C2.98057 30.1628 3.19372 30.3227 3.43331 30.3864C4.17233 30.582 4.92846 30.5944 5.68926 30.5354C5.95375 30.5152 6.22136 30.5323 6.46407 30.5323C6.24625 31.0291 6.02688 31.442 5.88374 31.8798C5.68926 32.4743 5.77172 33.0487 6.2447 33.502C6.7659 34.0019 7.25443 34.5623 7.85031 34.9535C9.12298 35.7871 10.4563 36.5276 11.7648 37.3069C12.6127 37.8114 13.5275 38.097 14.5108 38.1964C14.8718 38.2336 15.2234 38.3563 15.5797 38.4385C15.5937 38.4789 15.6092 38.5208 15.6232 38.5612C15.2452 38.9089 14.8671 39.2566 14.461 39.6292C14.5917 39.668 14.6617 39.6991 14.7333 39.7084C15.9219 39.8667 17.0935 39.8574 18.2261 39.3855C19.0912 39.0253 19.9593 38.6698 20.8337 38.3283C21.8403 37.9356 22.8563 37.9402 23.8645 38.3252C24.5817 38.5984 25.316 38.8406 26.0006 39.1806C27.155 39.755 28.3655 39.8605 29.6163 39.7643C29.8171 39.7487 30.0146 39.6913 30.2698 39.6432C29.8762 39.1852 29.3067 39.0222 29.1263 38.4292C29.5152 38.3438 29.8948 38.2398 30.2822 38.1808C30.9808 38.0753 31.6747 37.9728 32.3079 37.6313C33.2368 37.1299 34.1827 36.658 35.0929 36.1255C36.2986 35.4192 37.4577 34.6476 38.4052 33.5905C38.8922 33.0471 39.04 32.4634 38.8051 31.7959C38.6588 31.3814 38.4441 30.9918 38.2356 30.5385C38.5437 30.5385 38.858 30.5525 39.1722 30.5354C39.8724 30.4966 40.5741 30.4687 41.2695 30.3833C41.5075 30.3538 41.7269 30.1675 41.9541 30.0526C41.9354 30.0091 41.9183 29.9672 41.8996 29.9238C41.6227 30.0029 41.3442 30.0821 41.061 30.1613C41.0112 30.0542 40.9661 29.9548 40.9132 29.8415C40.5025 30.124 40.0793 30.2249 39.6592 29.9874C39.3076 29.7887 39.4009 29.4441 39.5099 29.0948ZM4.33725 29.0498C4.21589 29.4115 4.28124 29.4938 4.63597 29.427C4.53329 29.2966 4.4446 29.1864 4.33725 29.0498ZM40.0497 29.4565C40.448 29.4674 40.5087 29.3742 40.3469 29.0653C40.2535 29.1864 40.1695 29.2966 40.0497 29.4565Z" fill="#9A3995"/>
<path d="M14.3879 38.8189C14.2105 38.7801 14.1125 38.749 14.0129 38.7397C13.2133 38.6636 12.4836 38.3842 11.7757 38.0163C10.1203 37.1532 8.46331 36.2901 7.00861 35.1056C6.54808 34.7315 6.14668 34.2844 5.73127 33.8575C5.15095 33.2614 5.09494 32.5395 5.26608 31.7742C5.30809 31.5895 5.36098 31.4078 5.41077 31.2169C4.85845 31.1734 4.33102 31.1393 3.80671 31.0896C3.25284 31.0368 2.75809 30.8567 2.33179 30.4718C1.90705 30.0883 1.44497 29.7468 1 29.3882C1.30805 28.9846 1.54454 28.8976 1.96306 29.0265C2.30534 29.1321 2.6414 29.25 2.98835 29.3649C3.25284 28.5794 3.49555 27.8529 3.76937 27.0426C4.177 27.3856 4.5504 27.6402 4.84601 27.9631C5.18051 28.3295 5.53368 28.5468 6.04555 28.5965C6.40961 28.6322 6.7939 28.7828 7.10351 28.9815C7.53914 29.2609 7.9561 29.3199 8.3964 29.0839C9.13698 28.6865 9.87755 28.2829 10.5948 27.8436C11.3945 27.3546 12.1631 26.8159 12.9565 26.316C13.3408 26.0739 13.5322 25.7448 13.5742 25.2992C13.6831 24.1334 13.7905 22.9676 13.9305 21.8048C13.9958 21.2677 14.167 20.7446 14.2339 20.2075C14.3117 19.5772 14.363 18.9392 14.3583 18.3058C14.3537 17.4629 14.475 16.6556 14.7815 15.8701C15.2327 14.7105 16.076 14.1206 17.3175 14.0616C17.7625 14.0399 18.209 13.9793 18.6478 13.9017C18.864 13.8629 19.0741 13.7635 19.2701 13.6595C19.7213 13.4189 20.006 13.0541 20.0309 12.5216C20.0387 12.3618 20.0449 12.2019 20.0667 12.0435C20.1009 11.7719 20.034 11.5607 19.8115 11.3713C19.4086 11.0283 19.1923 10.5672 19.0803 10.0534C19.0569 9.94471 19.0196 9.80499 18.9387 9.74911C18.64 9.53954 18.5466 9.23682 18.4657 8.90927C18.4097 8.68418 18.3164 8.4684 18.2308 8.25107C18.0363 7.76518 18.0908 7.54939 18.4673 7.18459C18.5326 7.12094 18.5388 6.97967 18.5435 6.87256C18.5731 6.08861 18.5529 5.3 18.6384 4.52227C18.6742 4.20248 18.9294 3.90287 19.0974 3.60171C19.2094 3.3999 19.3681 3.22138 19.4661 3.01336C19.7166 2.47468 20.9084 1.34611 21.4591 1.15517C22.4844 0.798119 23.4724 1.06358 24.2021 1.88633C24.2643 1.95619 24.3468 2.01052 24.4277 2.0602C24.8197 2.30858 25.0889 2.65321 25.2709 3.07701C25.3363 3.23069 25.4172 3.39369 25.537 3.50546C25.9742 3.91218 26.1406 4.43533 26.1671 4.99729C26.1966 5.63377 26.1624 6.27179 26.1671 6.90982C26.1686 7.01072 26.2029 7.15664 26.2744 7.20166C26.5918 7.40502 26.6416 7.69221 26.5514 8.01045C26.4269 8.44822 26.2729 8.87823 26.1266 9.31134C26.1033 9.3812 26.0706 9.46502 26.0162 9.50228C25.6661 9.7398 25.6459 10.1419 25.4887 10.4803C25.3332 10.8202 25.0609 11.1043 24.8586 11.4257C24.7637 11.5763 24.6548 11.7532 24.6517 11.9193C24.6206 13.155 24.9426 13.7216 26.5047 13.9902C26.8703 14.0538 27.2484 14.0523 27.6202 14.0833C28.7031 14.1749 29.4343 14.74 29.8699 15.7242C30.2994 16.6944 30.3631 17.7128 30.3491 18.756C30.3414 19.3009 30.4549 19.8504 30.5265 20.3953C30.6665 21.4602 30.8237 22.522 30.9606 23.587C31.0353 24.1676 31.0882 24.7513 31.1442 25.3334C31.1831 25.7401 31.3511 26.0537 31.7074 26.2788C32.6533 26.8749 33.5884 27.4912 34.5343 28.0873C34.9855 28.3714 35.446 28.6384 35.9128 28.8961C36.1259 29.0125 36.3609 29.0932 36.5896 29.1771C36.8774 29.2826 37.1543 29.2625 37.4095 29.0762C37.8793 28.7346 38.399 28.5468 38.9855 28.539C39.3527 28.5344 39.5565 28.2519 39.7977 28.0237C40.1415 27.6992 40.5103 27.3981 40.9381 27.027C41.2104 27.842 41.4515 28.5608 41.716 29.3509C41.9852 29.2656 42.2652 29.1879 42.5375 29.0886C43.0914 28.8852 43.3123 28.924 43.7728 29.4239C43.6826 29.4674 43.5752 29.5 43.4943 29.5652C43.026 29.9362 42.592 30.3569 42.0925 30.6751C41.7643 30.8847 41.3535 31.0011 40.963 31.0694C40.4325 31.1626 39.8864 31.1688 39.3076 31.2153C39.3465 31.3752 39.387 31.5444 39.4305 31.7137C39.639 32.5411 39.513 33.2738 38.9264 33.9413C38.1267 34.8494 37.1886 35.5822 36.1617 36.1938C34.9637 36.9079 33.7393 37.5847 32.4946 38.2134C31.9921 38.468 31.404 38.555 30.8517 38.7102C30.7117 38.749 30.5623 38.7599 30.4176 38.7847C30.3958 38.8173 30.374 38.8499 30.3523 38.8825C30.4721 38.9772 30.6043 39.0579 30.707 39.1666C31.1006 39.5842 31.0041 40.0018 30.4689 40.2129C30.3616 40.2548 30.2449 40.2874 30.1298 40.3029C28.644 40.5187 27.1986 40.4458 25.817 39.772C25.2336 39.4879 24.6159 39.2753 24.0169 39.0207C22.9076 38.5488 21.803 38.5503 20.6937 39.0222C19.9687 39.3312 19.2359 39.6261 18.5108 39.935C17.1962 40.4939 15.8348 40.497 14.4548 40.2781C14.3412 40.2595 14.2292 40.2098 14.1265 40.1555C13.7329 39.949 13.6535 39.6106 13.9305 39.2597C14.041 39.1169 14.1965 39.0005 14.3879 38.8189ZM39.5099 29.0948C39.1396 29.1383 38.8113 29.1336 38.5126 29.2267C38.203 29.323 37.9198 29.5062 37.6335 29.6661C37.3115 29.8477 36.9723 29.9191 36.6176 29.8182C36.3017 29.7282 35.9672 29.649 35.6903 29.4813C34.2247 28.5903 32.7778 27.6697 31.3184 26.7678C30.833 26.4682 30.6074 26.0226 30.5343 25.4809C30.4985 25.217 30.4658 24.9531 30.4347 24.6892C30.2854 23.4007 30.2107 22.0967 29.9633 20.8268C29.7968 19.9699 29.7361 19.1286 29.7128 18.267C29.6957 17.6476 29.6179 17.0111 29.4452 16.4166C29.0734 15.1374 28.4681 14.7369 27.1395 14.6686C26.6229 14.6422 26.094 14.5615 25.6023 14.4062C24.7808 14.147 24.1741 13.6316 24.076 12.7079C24.0325 12.2966 24.0356 11.879 24.0278 11.4645C24.0263 11.3884 24.0589 11.2782 24.1134 11.2409C24.7544 10.8171 25.0049 10.1822 25.1262 9.46502C25.1402 9.3843 25.2149 9.26322 25.2771 9.25235C25.537 9.20578 25.5728 9.01328 25.6288 8.81458C25.6957 8.58017 25.7781 8.35197 25.8528 8.11912C25.8777 8.03995 25.8948 7.95767 25.9306 7.82261C25.7097 7.9111 25.5572 7.97164 25.3596 8.05081C25.3876 7.87229 25.4187 7.74034 25.4265 7.60528C25.4716 6.74682 25.5339 5.88836 25.5432 5.02989C25.5479 4.59833 25.3783 4.20713 25.0438 3.892C24.896 3.75229 24.7917 3.55048 24.7093 3.35798C24.5521 2.99007 24.3281 2.69978 23.9625 2.5197C23.8629 2.47003 23.7478 2.39086 23.7089 2.29616C23.3355 1.41752 21.3876 1.4082 21.0017 2.2884C20.9675 2.36757 20.8835 2.43898 20.8057 2.484C19.9858 2.94816 19.7804 3.87337 19.2468 4.55176C19.2343 4.56728 19.2374 4.59367 19.2328 4.61386C19.0352 5.45835 19.099 6.30594 19.2079 7.15354C19.2452 7.44073 19.2919 7.72792 19.3417 8.05702C19.1347 7.96854 18.9854 7.90489 18.7738 7.81485C18.9216 8.28988 19.0476 8.69815 19.1814 9.10487C19.1954 9.14679 19.2545 9.19957 19.2965 9.20423C19.5548 9.22596 19.5813 9.42001 19.6186 9.6094C19.7119 10.0953 19.8037 10.6138 20.2316 10.9056C20.6906 11.2192 20.7279 11.6228 20.6766 12.0916C20.6672 12.1755 20.6703 12.2624 20.6657 12.3462C20.6081 13.4407 20.1102 14.1284 19.0538 14.4186C18.4844 14.5754 17.8823 14.6344 17.2895 14.6779C16.3762 14.7446 15.7493 15.1653 15.3961 16.0114C15.0662 16.8031 14.962 17.6228 14.9744 18.4766C14.9838 19.0897 14.9309 19.7076 14.8515 20.3161C14.7753 20.9045 14.5948 21.4804 14.5233 22.0703C14.3879 23.1678 14.2946 24.2716 14.1888 25.3738C14.1281 25.9947 13.8667 26.4806 13.3237 26.8206C12.4384 27.3748 11.5765 27.9662 10.685 28.5096C10.0036 28.9256 9.30657 29.3199 8.58933 29.6692C8.04946 29.9315 7.46135 29.9828 6.94949 29.5838C6.43451 29.1833 5.83551 29.1693 5.20385 29.0995C5.29875 29.4332 5.40455 29.7778 5.06071 29.9812C4.62974 30.2358 4.20033 30.1069 3.78648 29.8461C3.73359 29.9641 3.69002 30.0635 3.64646 30.1613C3.35397 30.0774 3.08325 29.9998 2.81098 29.9222C2.79231 29.9641 2.77364 30.0045 2.75653 30.0464C2.98057 30.1628 3.19372 30.3227 3.43331 30.3864C4.17233 30.582 4.92846 30.5944 5.68926 30.5354C5.95375 30.5152 6.22136 30.5323 6.46407 30.5323C6.24625 31.0291 6.02688 31.442 5.88374 31.8798C5.68926 32.4743 5.77172 33.0487 6.2447 33.502C6.7659 34.0019 7.25443 34.5623 7.85031 34.9535C9.12298 35.7871 10.4563 36.5276 11.7648 37.3069C12.6127 37.8114 13.5275 38.097 14.5108 38.1964C14.8718 38.2336 15.2234 38.3563 15.5797 38.4385C15.5937 38.4789 15.6092 38.5208 15.6232 38.5612C15.2452 38.9089 14.8671 39.2566 14.461 39.6292C14.5917 39.668 14.6617 39.6991 14.7333 39.7084C15.9219 39.8667 17.0935 39.8574 18.2261 39.3855C19.0912 39.0253 19.9593 38.6698 20.8337 38.3283C21.8403 37.9356 22.8563 37.9402 23.8645 38.3252C24.5817 38.5984 25.316 38.8406 26.0006 39.1806C27.155 39.755 28.3655 39.8605 29.6163 39.7643C29.8171 39.7487 30.0146 39.6913 30.2698 39.6432C29.8762 39.1852 29.3067 39.0222 29.1263 38.4292C29.5152 38.3438 29.8948 38.2398 30.2822 38.1808C30.9808 38.0753 31.6747 37.9728 32.3079 37.6313C33.2368 37.1299 34.1827 36.658 35.0929 36.1255C36.2986 35.4192 37.4577 34.6476 38.4052 33.5905C38.8922 33.0471 39.04 32.4634 38.8051 31.7959C38.6588 31.3814 38.4441 30.9918 38.2356 30.5385C38.5437 30.5385 38.858 30.5525 39.1722 30.5354C39.8724 30.4966 40.5741 30.4687 41.2695 30.3833C41.5075 30.3538 41.7269 30.1675 41.9541 30.0526C41.9354 30.0091 41.9183 29.9672 41.8996 29.9238C41.6227 30.0029 41.3442 30.0821 41.061 30.1613C41.0112 30.0542 40.9661 29.9548 40.9132 29.8415C40.5025 30.124 40.0793 30.2249 39.6592 29.9874C39.3076 29.7887 39.4009 29.4441 39.5099 29.0948ZM4.33725 29.0498C4.21589 29.4115 4.28124 29.4938 4.63597 29.427C4.53329 29.2966 4.4446 29.1864 4.33725 29.0498ZM40.0497 29.4565C40.448 29.4674 40.5087 29.3742 40.3469 29.0653C40.2535 29.1864 40.1695 29.2966 40.0497 29.4565Z" stroke="#9A3995" stroke-width="0.4" mask="url(#path-1-outside-1)"/>
<path d="M9.45918 30.9385L9.53714 30.9057C9.70861 30.8336 9.88007 30.7611 10.0516 30.6886C10.4959 30.501 10.9407 30.313 11.3878 30.1292L9.45918 30.9385ZM9.45918 30.9385L9.4786 31.0208M9.45918 30.9385L9.4786 31.0208M9.4786 31.0208C9.47938 31.0242 9.48023 31.028 9.48116 31.0321C9.48583 31.0529 9.4925 31.0826 9.50334 31.1096L9.52576 31.1655L9.58571 31.1718C9.59913 31.1733 9.61366 31.175 9.62895 31.1768C9.67368 31.1821 9.72494 31.1882 9.77407 31.1894L9.77417 31.1894C10.187 31.1996 10.5999 31.2101 11.0129 31.2206C12.1138 31.2486 13.215 31.2767 14.3161 31.2981L14.3162 31.2981C15.1844 31.3141 15.9543 31.0301 16.5261 30.3497L16.5263 30.3495C16.9859 29.8005 17.4169 29.227 17.8317 28.6451C18.238 28.0775 18.3553 27.4318 18.2362 26.7459L18.2361 26.7457M9.4786 31.0208L18.2361 26.7457M18.2361 26.7457C18.1761 26.4029 18.1343 26.0563 18.0987 25.7081C17.9353 24.0986 17.7767 22.4891 17.6227 20.8797M18.2361 26.7457L17.6227 20.8797M14.2892 28.9464C15.0711 28.6228 15.4586 27.9747 15.6924 27.1803C16.2653 25.2291 16.5322 23.2234 16.7124 21.1985C16.7125 21.1984 16.7125 21.1983 16.7125 21.1982L14.2892 28.9464ZM14.2892 28.9464C13.7683 29.1618 13.2474 29.3729 12.726 29.5842M14.2892 28.9464L12.726 29.5842M12.726 29.5842C12.2804 29.7648 11.8344 29.9455 11.3878 30.1292L12.726 29.5842ZM17.2536 20.4603C17.0922 20.4431 16.9521 20.4606 16.8566 20.5518M17.2536 20.4603C17.2535 20.4603 17.2534 20.4603 17.2534 20.4602L16.8566 20.5518M17.2536 20.4603C17.388 20.4743 17.4879 20.5169 17.5492 20.6069C17.604 20.6874 17.6145 20.7905 17.6227 20.8797M17.2536 20.4603L17.6227 20.8797M16.8566 20.5518C16.7622 20.6419 16.7392 20.778 16.7417 20.9231L16.8566 20.5518ZM9.64378 31.0778C9.63174 31.0764 9.61975 31.075 9.60781 31.0736L9.61471 31.0901C9.6244 31.086 9.63409 31.0819 9.64378 31.0778ZM9.60528 30.9855C9.61328 30.9822 9.62128 30.9788 9.62928 30.9754C9.62189 30.9746 9.61435 30.9738 9.6066 30.9729L9.60528 30.9855ZM16.065 29.6272L16.0649 29.6273C15.7319 30.0673 15.3271 30.3954 14.7987 30.4371C14.1395 30.4893 13.4795 30.5071 12.8163 30.5249C12.6373 30.5297 12.4581 30.5345 12.2786 30.54C12.2877 30.5367 12.2967 30.5334 12.3058 30.5301C12.3257 30.5227 12.3455 30.5155 12.3652 30.5083C12.563 30.438 12.7597 30.3662 12.956 30.2945C13.3792 30.14 13.8007 29.986 14.2286 29.8497C15.4133 29.4722 16.1335 28.6495 16.445 27.4891C16.6267 26.8152 16.7753 26.1306 16.9232 25.4494C16.9874 25.1537 17.0515 24.8586 17.1181 24.5652L17.0206 24.5431L17.118 24.5655C17.1194 24.5595 17.1208 24.5536 17.1221 24.5477C17.1239 24.54 17.1256 24.5324 17.1273 24.5249C17.1377 24.6264 17.1477 24.7283 17.1578 24.8304C17.2107 25.3697 17.2644 25.9161 17.3803 26.4445L17.3803 26.4445C17.5883 27.3926 17.3073 28.1446 16.6773 28.8397C16.5133 29.0206 16.3664 29.22 16.2233 29.4143C16.1703 29.4864 16.1177 29.5578 16.065 29.6272Z" fill="#9A3995" stroke="#9A3995" stroke-width="0.2"/>
<path d="M27.7056 20.5737L27.742 20.4805C27.5725 20.4144 27.4112 20.4173 27.2852 20.5064C27.1626 20.5931 27.0983 20.7443 27.0803 20.9204C27.0634 21.0836 27.0465 21.2467 27.0297 21.4099C26.8428 23.2154 26.656 25.0214 26.4534 26.8248L26.4534 26.8249C26.3815 27.4738 26.4766 28.0871 26.8602 28.6278L26.9377 28.5728L26.8602 28.6278C27.2797 29.2192 27.7171 29.8005 28.1845 30.3574L28.1846 30.3575C28.7567 31.0367 29.5299 31.3156 30.3975 31.2996C30.9858 31.2887 31.5767 31.2718 32.167 31.2549C32.6659 31.2407 33.1643 31.2264 33.6604 31.2158L33.6605 31.2158C33.9901 31.2084 34.3194 31.2104 34.6506 31.2124C34.8042 31.2133 34.9583 31.2143 35.1129 31.2143H35.1983L35.2117 31.1299C35.2164 31.1001 35.2215 31.0667 35.2249 31.0327L35.2314 30.9673L35.174 30.9353C35.1586 30.9267 35.1411 30.9163 35.1222 30.905C35.0738 30.8762 35.0163 30.8418 34.9599 30.8186C34.5683 30.656 34.1769 30.491 33.7852 30.3258C32.7618 29.8943 31.7359 29.4618 30.697 29.0694C29.787 28.7251 29.2389 28.1096 29.0275 27.2075C28.723 25.9054 28.4573 24.5939 28.2258 23.2761L28.2258 23.2761C28.1357 22.7636 28.0867 22.2486 28.0372 21.7289C28.0091 21.4343 27.9809 21.1381 27.945 20.8402C27.9383 20.779 27.9187 20.7063 27.8899 20.6435C27.8753 20.6118 27.8571 20.5797 27.8347 20.5519C27.813 20.525 27.7824 20.4959 27.7413 20.4803L27.7056 20.5737ZM27.7056 20.5737C27.7788 20.6016 27.8348 20.7506 27.8457 20.8515L26.5528 26.8359C26.7554 25.0321 26.9423 23.2257 27.1291 21.4203C27.146 21.2571 27.1629 21.0939 27.1798 20.9307C27.2125 20.6094 27.4069 20.4572 27.7056 20.5737ZM27.2908 26.7397L27.2908 26.7396C27.3968 26.1235 27.4656 25.4996 27.534 24.8791C27.5462 24.768 27.5585 24.657 27.5709 24.5461C27.5801 24.5956 27.5893 24.6451 27.5985 24.6946C27.6748 25.1062 27.7517 25.5214 27.8529 25.9271L27.853 25.9276C28.0379 26.6562 28.2259 27.3962 28.4975 28.1043C28.8079 28.914 29.4247 29.4643 30.2454 29.757C30.6212 29.8913 30.9978 30.0249 31.3743 30.1583L31.3744 30.1584C31.7111 30.2778 32.0477 30.3971 32.3836 30.517C32.2398 30.5175 32.0965 30.5177 31.9527 30.516H31.9527C31.687 30.5129 31.421 30.5078 31.1545 30.5028L31.1539 30.5028C30.8877 30.4977 30.6211 30.4927 30.3548 30.4896L30.3548 30.4896C29.68 30.4821 29.1248 30.239 28.7067 29.7095L28.7067 29.7095C28.3711 29.2847 28.0401 28.8552 27.7103 28.4252L27.7103 28.4252C27.3252 27.9234 27.179 27.3833 27.2908 26.7397Z" fill="#9A3995" stroke="#9A3995" stroke-width="0.2"/>
</svg>
